<?xml version="1.0" encoding="utf-8"?>
<svg xmlns="http://www.w3.org/2000/svg" xmlns:xlink="http://www.w3.org/1999/xlink" width="600" height="400" viewBox="0 0 2400 1600">
<defs>
  <clipPath id="clip040">
    <rect x="0" y="0" width="2400" height="1600"/>
  </clipPath>
</defs>
<path clip-path="url(#clip040)" d="M0 1600 L2400 1600 L2400 8.88178e-14 L0 8.88178e-14  Z" fill="#ffffff" fill-rule="evenodd" fill-opacity="1"/>
<defs>
  <clipPath id="clip041">
    <rect x="480" y="0" width="1681" height="1600"/>
  </clipPath>
</defs>
<path clip-path="url(#clip040)" d="M251.56 1423.18 L2352.76 1423.18 L2352.76 47.2441 L251.56 47.2441  Z" fill="#ffffff" fill-rule="evenodd" fill-opacity="1"/>
<defs>
  <clipPath id="clip042">
    <rect x="251" y="47" width="2102" height="1377"/>
  </clipPath>
</defs>
<polyline clip-path="url(#clip042)" style="stroke:#000000; stroke-linecap:round; stroke-linejoin:round; stroke-width:2; stroke-opacity:0.1; fill:none" points="624.016,1423.18 624.016,47.2441 "/>
<polyline clip-path="url(#clip042)" style="stroke:#000000; stroke-linecap:round; stroke-linejoin:round; stroke-width:2; stroke-opacity:0.1; fill:none" points="1041.33,1423.18 1041.33,47.2441 "/>
<polyline clip-path="url(#clip042)" style="stroke:#000000; stroke-linecap:round; stroke-linejoin:round; stroke-width:2; stroke-opacity:0.1; fill:none" points="1458.65,1423.18 1458.65,47.2441 "/>
<polyline clip-path="url(#clip042)" style="stroke:#000000; stroke-linecap:round; stroke-linejoin:round; stroke-width:2; stroke-opacity:0.1; fill:none" points="1875.97,1423.18 1875.97,47.2441 "/>
<polyline clip-path="url(#clip042)" style="stroke:#000000; stroke-linecap:round; stroke-linejoin:round; stroke-width:2; stroke-opacity:0.1; fill:none" points="2293.29,1423.18 2293.29,47.2441 "/>
<polyline clip-path="url(#clip042)" style="stroke:#000000; stroke-linecap:round; stroke-linejoin:round; stroke-width:2; stroke-opacity:0.1; fill:none" points="251.56,1002.81 2352.76,1002.81 "/>
<polyline clip-path="url(#clip042)" style="stroke:#000000; stroke-linecap:round; stroke-linejoin:round; stroke-width:2; stroke-opacity:0.1; fill:none" points="251.56,182.549 2352.76,182.549 "/>
<polyline clip-path="url(#clip040)" style="stroke:#000000; stroke-linecap:round; stroke-linejoin:round; stroke-width:4; stroke-opacity:1; fill:none" points="251.56,1423.18 2352.76,1423.18 "/>
<polyline clip-path="url(#clip040)" style="stroke:#000000; stroke-linecap:round; stroke-linejoin:round; stroke-width:4; stroke-opacity:1; fill:none" points="624.016,1423.18 624.016,1404.28 "/>
<polyline clip-path="url(#clip040)" style="stroke:#000000; stroke-linecap:round; stroke-linejoin:round; stroke-width:4; stroke-opacity:1; fill:none" points="1041.33,1423.18 1041.33,1404.28 "/>
<polyline clip-path="url(#clip040)" style="stroke:#000000; stroke-linecap:round; stroke-linejoin:round; stroke-width:4; stroke-opacity:1; fill:none" points="1458.65,1423.18 1458.65,1404.28 "/>
<polyline clip-path="url(#clip040)" style="stroke:#000000; stroke-linecap:round; stroke-linejoin:round; stroke-width:4; stroke-opacity:1; fill:none" points="1875.97,1423.18 1875.97,1404.28 "/>
<polyline clip-path="url(#clip040)" style="stroke:#000000; stroke-linecap:round; stroke-linejoin:round; stroke-width:4; stroke-opacity:1; fill:none" points="2293.29,1423.18 2293.29,1404.28 "/>
<path clip-path="url(#clip040)" d="M602.79 1481.64 L619.109 1481.64 L619.109 1485.58 L597.165 1485.58 L597.165 1481.64 Q599.827 1478.89 604.41 1474.26 Q609.017 1469.61 610.197 1468.27 Q612.442 1465.74 613.322 1464.01 Q614.225 1462.25 614.225 1460.56 Q614.225 1457.8 612.28 1456.07 Q610.359 1454.33 607.257 1454.33 Q605.058 1454.33 602.605 1455.09 Q600.174 1455.86 597.396 1457.41 L597.396 1452.69 Q600.22 1451.55 602.674 1450.97 Q605.128 1450.39 607.165 1450.39 Q612.535 1450.39 615.729 1453.08 Q618.924 1455.77 618.924 1460.26 Q618.924 1462.39 618.114 1464.31 Q617.327 1466.2 615.22 1468.8 Q614.642 1469.47 611.54 1472.69 Q608.438 1475.88 602.79 1481.64 Z" fill="#000000" fill-rule="nonzero" fill-opacity="1" /><path clip-path="url(#clip040)" d="M638.924 1454.1 Q635.313 1454.1 633.484 1457.66 Q631.678 1461.2 631.678 1468.33 Q631.678 1475.44 633.484 1479.01 Q635.313 1482.55 638.924 1482.55 Q642.558 1482.55 644.364 1479.01 Q646.192 1475.44 646.192 1468.33 Q646.192 1461.2 644.364 1457.66 Q642.558 1454.1 638.924 1454.1 M638.924 1450.39 Q644.734 1450.39 647.79 1455 Q650.868 1459.58 650.868 1468.33 Q650.868 1477.06 647.79 1481.67 Q644.734 1486.25 638.924 1486.25 Q633.114 1486.25 630.035 1481.67 Q626.979 1477.06 626.979 1468.33 Q626.979 1459.58 630.035 1455 Q633.114 1450.39 638.924 1450.39 Z" fill="#000000" fill-rule="nonzero" fill-opacity="1" /><path clip-path="url(#clip040)" d="M1029.51 1455.09 L1017.7 1473.54 L1029.51 1473.54 L1029.51 1455.09 M1028.28 1451.02 L1034.16 1451.02 L1034.16 1473.54 L1039.09 1473.54 L1039.09 1477.43 L1034.16 1477.43 L1034.16 1485.58 L1029.51 1485.58 L1029.51 1477.43 L1013.9 1477.43 L1013.9 1472.92 L1028.28 1451.02 Z" fill="#000000" fill-rule="nonzero" fill-opacity="1" /><path clip-path="url(#clip040)" d="M1056.82 1454.1 Q1053.21 1454.1 1051.38 1457.66 Q1049.58 1461.2 1049.58 1468.33 Q1049.58 1475.44 1051.38 1479.01 Q1053.21 1482.55 1056.82 1482.55 Q1060.45 1482.55 1062.26 1479.01 Q1064.09 1475.44 1064.09 1468.33 Q1064.09 1461.2 1062.26 1457.66 Q1060.45 1454.1 1056.82 1454.1 M1056.82 1450.39 Q1062.63 1450.39 1065.69 1455 Q1068.76 1459.58 1068.76 1468.33 Q1068.76 1477.06 1065.69 1481.67 Q1062.63 1486.25 1056.82 1486.25 Q1051.01 1486.25 1047.93 1481.67 Q1044.88 1477.06 1044.88 1468.33 Q1044.88 1459.58 1047.93 1455 Q1051.01 1450.39 1056.82 1450.39 Z" fill="#000000" fill-rule="nonzero" fill-opacity="1" /><path clip-path="url(#clip040)" d="M1444.06 1466.44 Q1440.91 1466.44 1439.06 1468.59 Q1437.23 1470.74 1437.23 1474.49 Q1437.23 1478.22 1439.06 1480.39 Q1440.91 1482.55 1444.06 1482.55 Q1447.21 1482.55 1449.03 1480.39 Q1450.89 1478.22 1450.89 1474.49 Q1450.89 1470.74 1449.03 1468.59 Q1447.21 1466.44 1444.06 1466.44 M1453.34 1451.78 L1453.34 1456.04 Q1451.58 1455.21 1449.78 1454.77 Q1447.99 1454.33 1446.23 1454.33 Q1441.6 1454.33 1439.15 1457.45 Q1436.72 1460.58 1436.37 1466.9 Q1437.74 1464.89 1439.8 1463.82 Q1441.86 1462.73 1444.34 1462.73 Q1449.54 1462.73 1452.55 1465.9 Q1455.59 1469.05 1455.59 1474.49 Q1455.59 1479.82 1452.44 1483.03 Q1449.29 1486.25 1444.06 1486.25 Q1438.06 1486.25 1434.89 1481.67 Q1431.72 1477.06 1431.72 1468.33 Q1431.72 1460.14 1435.61 1455.28 Q1439.5 1450.39 1446.05 1450.39 Q1447.81 1450.39 1449.59 1450.74 Q1451.4 1451.09 1453.34 1451.78 Z" fill="#000000" fill-rule="nonzero" fill-opacity="1" /><path clip-path="url(#clip040)" d="M1473.64 1454.1 Q1470.03 1454.1 1468.2 1457.66 Q1466.4 1461.2 1466.4 1468.33 Q1466.4 1475.44 1468.2 1479.01 Q1470.03 1482.55 1473.64 1482.55 Q1477.27 1482.55 1479.08 1479.01 Q1480.91 1475.44 1480.91 1468.33 Q1480.91 1461.2 1479.08 1457.66 Q1477.27 1454.1 1473.64 1454.1 M1473.64 1450.39 Q1479.45 1450.39 1482.51 1455 Q1485.59 1459.58 1485.59 1468.33 Q1485.59 1477.06 1482.51 1481.67 Q1479.45 1486.25 1473.64 1486.25 Q1467.83 1486.25 1464.75 1481.67 Q1461.7 1477.06 1461.7 1468.33 Q1461.7 1459.58 1464.75 1455 Q1467.83 1450.39 1473.64 1450.39 Z" fill="#000000" fill-rule="nonzero" fill-opacity="1" /><path clip-path="url(#clip040)" d="M1860.84 1469.17 Q1857.51 1469.17 1855.59 1470.95 Q1853.69 1472.73 1853.69 1475.86 Q1853.69 1478.98 1855.59 1480.77 Q1857.51 1482.55 1860.84 1482.55 Q1864.18 1482.55 1866.1 1480.77 Q1868.02 1478.96 1868.02 1475.86 Q1868.02 1472.73 1866.1 1470.95 Q1864.2 1469.17 1860.84 1469.17 M1856.17 1467.18 Q1853.16 1466.44 1851.47 1464.38 Q1849.8 1462.32 1849.8 1459.35 Q1849.8 1455.21 1852.74 1452.8 Q1855.7 1450.39 1860.84 1450.39 Q1866 1450.39 1868.94 1452.8 Q1871.88 1455.21 1871.88 1459.35 Q1871.88 1462.32 1870.19 1464.38 Q1868.53 1466.44 1865.54 1467.18 Q1868.92 1467.96 1870.8 1470.26 Q1872.69 1472.55 1872.69 1475.86 Q1872.69 1480.88 1869.62 1483.57 Q1866.56 1486.25 1860.84 1486.25 Q1855.13 1486.25 1852.05 1483.57 Q1848.99 1480.88 1848.99 1475.86 Q1848.99 1472.55 1850.89 1470.26 Q1852.79 1467.96 1856.17 1467.18 M1854.45 1459.79 Q1854.45 1462.48 1856.12 1463.98 Q1857.81 1465.49 1860.84 1465.49 Q1863.85 1465.49 1865.54 1463.98 Q1867.25 1462.48 1867.25 1459.79 Q1867.25 1457.11 1865.54 1455.6 Q1863.85 1454.1 1860.84 1454.1 Q1857.81 1454.1 1856.12 1455.6 Q1854.45 1457.11 1854.45 1459.79 Z" fill="#000000" fill-rule="nonzero" fill-opacity="1" /><path clip-path="url(#clip040)" d="M1891 1454.1 Q1887.39 1454.1 1885.57 1457.66 Q1883.76 1461.2 1883.76 1468.33 Q1883.76 1475.44 1885.57 1479.01 Q1887.39 1482.55 1891 1482.55 Q1894.64 1482.55 1896.44 1479.01 Q1898.27 1475.44 1898.27 1468.33 Q1898.27 1461.2 1896.44 1457.66 Q1894.64 1454.1 1891 1454.1 M1891 1450.39 Q1896.81 1450.39 1899.87 1455 Q1902.95 1459.58 1902.95 1468.33 Q1902.95 1477.06 1899.87 1481.67 Q1896.81 1486.25 1891 1486.25 Q1885.19 1486.25 1882.12 1481.67 Q1879.06 1477.06 1879.06 1468.33 Q1879.06 1459.58 1882.12 1455 Q1885.19 1450.39 1891 1450.39 Z" fill="#000000" fill-rule="nonzero" fill-opacity="1" /><path clip-path="url(#clip040)" d="M2252.89 1481.64 L2260.53 1481.64 L2260.53 1455.28 L2252.22 1456.95 L2252.22 1452.69 L2260.49 1451.02 L2265.16 1451.02 L2265.16 1481.64 L2272.8 1481.64 L2272.8 1485.58 L2252.89 1485.58 L2252.89 1481.64 Z" fill="#000000" fill-rule="nonzero" fill-opacity="1" /><path clip-path="url(#clip040)" d="M2292.25 1454.1 Q2288.64 1454.1 2286.81 1457.66 Q2285 1461.2 2285 1468.33 Q2285 1475.44 2286.81 1479.01 Q2288.64 1482.55 2292.25 1482.55 Q2295.88 1482.55 2297.69 1479.01 Q2299.51 1475.44 2299.51 1468.33 Q2299.51 1461.2 2297.69 1457.66 Q2295.88 1454.1 2292.25 1454.1 M2292.25 1450.39 Q2298.06 1450.39 2301.11 1455 Q2304.19 1459.58 2304.19 1468.33 Q2304.19 1477.06 2301.11 1481.67 Q2298.06 1486.25 2292.25 1486.25 Q2286.44 1486.25 2283.36 1481.67 Q2280.3 1477.06 2280.3 1468.33 Q2280.3 1459.58 2283.36 1455 Q2286.44 1450.39 2292.25 1450.39 Z" fill="#000000" fill-rule="nonzero" fill-opacity="1" /><path clip-path="url(#clip040)" d="M2322.41 1454.1 Q2318.8 1454.1 2316.97 1457.66 Q2315.16 1461.2 2315.16 1468.33 Q2315.16 1475.44 2316.97 1479.01 Q2318.8 1482.55 2322.41 1482.55 Q2326.04 1482.55 2327.85 1479.01 Q2329.68 1475.44 2329.68 1468.33 Q2329.68 1461.2 2327.85 1457.66 Q2326.04 1454.1 2322.41 1454.1 M2322.41 1450.39 Q2328.22 1450.39 2331.27 1455 Q2334.35 1459.58 2334.35 1468.33 Q2334.35 1477.06 2331.27 1481.67 Q2328.22 1486.25 2322.41 1486.25 Q2316.6 1486.25 2313.52 1481.67 Q2310.46 1477.06 2310.46 1468.33 Q2310.46 1459.58 2313.52 1455 Q2316.6 1450.39 2322.41 1450.39 Z" fill="#000000" fill-rule="nonzero" fill-opacity="1" /><path clip-path="url(#clip040)" d="M969.216 1520.52 L978.796 1520.52 L990.923 1552.86 L1003.11 1520.52 L1012.69 1520.52 L1012.69 1568.04 L1006.42 1568.04 L1006.42 1526.32 L994.169 1558.91 L987.708 1558.91 L975.454 1526.32 L975.454 1568.04 L969.216 1568.04 L969.216 1520.52 Z" fill="#000000" fill-rule="nonzero" fill-opacity="1" /><path clip-path="url(#clip040)" d="M1041.4 1550.12 Q1034.31 1550.12 1031.57 1551.75 Q1028.83 1553.37 1028.83 1557.29 Q1028.83 1560.4 1030.87 1562.25 Q1032.94 1564.07 1036.47 1564.07 Q1041.34 1564.07 1044.27 1560.63 Q1047.23 1557.16 1047.23 1551.43 L1047.23 1550.12 L1041.4 1550.12 M1053.08 1547.71 L1053.08 1568.04 L1047.23 1568.04 L1047.23 1562.63 Q1045.22 1565.88 1042.23 1567.44 Q1039.24 1568.97 1034.91 1568.97 Q1029.44 1568.97 1026.19 1565.91 Q1022.97 1562.82 1022.97 1557.67 Q1022.97 1551.65 1026.98 1548.6 Q1031.03 1545.54 1039.02 1545.54 L1047.23 1545.54 L1047.23 1544.97 Q1047.23 1540.93 1044.55 1538.73 Q1041.91 1536.5 1037.11 1536.5 Q1034.05 1536.5 1031.15 1537.23 Q1028.26 1537.97 1025.58 1539.43 L1025.58 1534.02 Q1028.8 1532.78 1031.82 1532.17 Q1034.85 1531.54 1037.71 1531.54 Q1045.45 1531.54 1049.26 1535.55 Q1053.08 1539.56 1053.08 1547.71 Z" fill="#000000" fill-rule="nonzero" fill-opacity="1" /><path clip-path="url(#clip040)" d="M1094.78 1532.4 L1081.89 1549.74 L1095.45 1568.04 L1088.54 1568.04 L1078.16 1554.04 L1067.79 1568.04 L1060.88 1568.04 L1074.73 1549.39 L1062.06 1532.4 L1068.97 1532.4 L1078.42 1545.1 L1087.87 1532.4 L1094.78 1532.4 Z" fill="#000000" fill-rule="nonzero" fill-opacity="1" /><path clip-path="url(#clip040)" d="M1150.03 1550.25 Q1150.03 1543.79 1147.36 1540.13 Q1144.72 1536.44 1140.07 1536.44 Q1135.42 1536.44 1132.75 1540.13 Q1130.11 1543.79 1130.11 1550.25 Q1130.11 1556.71 1132.75 1560.4 Q1135.42 1564.07 1140.07 1564.07 Q1144.72 1564.07 1147.36 1560.4 Q1150.03 1556.71 1150.03 1550.25 M1130.11 1537.81 Q1131.95 1534.62 1134.76 1533.1 Q1137.59 1531.54 1141.5 1531.54 Q1148 1531.54 1152.04 1536.69 Q1156.11 1541.85 1156.11 1550.25 Q1156.11 1558.65 1152.04 1563.81 Q1148 1568.97 1141.5 1568.97 Q1137.59 1568.97 1134.76 1567.44 Q1131.95 1565.88 1130.11 1562.7 L1130.11 1568.04 L1124.22 1568.04 L1124.22 1518.52 L1130.11 1518.52 L1130.11 1537.81 Z" fill="#000000" fill-rule="nonzero" fill-opacity="1" /><path clip-path="url(#clip040)" d="M1179.63 1536.5 Q1174.92 1536.5 1172.19 1540.19 Q1169.45 1543.85 1169.45 1550.25 Q1169.45 1556.65 1172.15 1560.34 Q1174.89 1564 1179.63 1564 Q1184.31 1564 1187.05 1560.31 Q1189.79 1556.62 1189.79 1550.25 Q1189.79 1543.92 1187.05 1540.23 Q1184.31 1536.5 1179.63 1536.5 M1179.63 1531.54 Q1187.27 1531.54 1191.63 1536.5 Q1195.99 1541.47 1195.99 1550.25 Q1195.99 1559 1191.63 1564 Q1187.27 1568.97 1179.63 1568.97 Q1171.96 1568.97 1167.6 1564 Q1163.27 1559 1163.27 1550.25 Q1163.27 1541.47 1167.6 1536.5 Q1171.96 1531.54 1179.63 1531.54 Z" fill="#000000" fill-rule="nonzero" fill-opacity="1" /><path clip-path="url(#clip040)" d="M1235.33 1546.53 L1235.33 1568.04 L1229.48 1568.04 L1229.48 1546.72 Q1229.48 1541.66 1227.5 1539.14 Q1225.53 1536.63 1221.58 1536.63 Q1216.84 1536.63 1214.1 1539.65 Q1211.37 1542.68 1211.37 1547.9 L1211.37 1568.04 L1205.48 1568.04 L1205.48 1532.4 L1211.37 1532.4 L1211.37 1537.93 Q1213.47 1534.72 1216.3 1533.13 Q1219.17 1531.54 1222.89 1531.54 Q1229.03 1531.54 1232.18 1535.36 Q1235.33 1539.14 1235.33 1546.53 Z" fill="#000000" fill-rule="nonzero" fill-opacity="1" /><path clip-path="url(#clip040)" d="M1270.47 1537.81 L1270.47 1518.52 L1276.33 1518.52 L1276.33 1568.04 L1270.47 1568.04 L1270.47 1562.7 Q1268.63 1565.88 1265.79 1567.44 Q1262.99 1568.97 1259.05 1568.97 Q1252.59 1568.97 1248.51 1563.81 Q1244.47 1558.65 1244.47 1550.25 Q1244.47 1541.85 1248.51 1536.69 Q1252.59 1531.54 1259.05 1531.54 Q1262.99 1531.54 1265.79 1533.1 Q1268.63 1534.62 1270.47 1537.81 M1250.52 1550.25 Q1250.52 1556.71 1253.16 1560.4 Q1255.83 1564.07 1260.48 1564.07 Q1265.13 1564.07 1267.8 1560.4 Q1270.47 1556.71 1270.47 1550.25 Q1270.47 1543.79 1267.8 1540.13 Q1265.13 1536.44 1260.48 1536.44 Q1255.83 1536.44 1253.16 1540.13 Q1250.52 1543.79 1250.52 1550.25 Z" fill="#000000" fill-rule="nonzero" fill-opacity="1" /><path clip-path="url(#clip040)" d="M1332.57 1537.81 L1332.57 1518.52 L1338.43 1518.52 L1338.43 1568.04 L1332.57 1568.04 L1332.57 1562.7 Q1330.72 1565.88 1327.89 1567.44 Q1325.09 1568.97 1321.14 1568.97 Q1314.68 1568.97 1310.61 1563.81 Q1306.57 1558.65 1306.57 1550.25 Q1306.57 1541.85 1310.61 1536.69 Q1314.68 1531.54 1321.14 1531.54 Q1325.09 1531.54 1327.89 1533.1 Q1330.72 1534.62 1332.57 1537.81 M1312.61 1550.25 Q1312.61 1556.71 1315.26 1560.4 Q1317.93 1564.07 1322.58 1564.07 Q1327.22 1564.07 1329.9 1560.4 Q1332.57 1556.71 1332.57 1550.25 Q1332.57 1543.79 1329.9 1540.13 Q1327.22 1536.44 1322.58 1536.44 Q1317.93 1536.44 1315.26 1540.13 Q1312.61 1543.79 1312.61 1550.25 Z" fill="#000000" fill-rule="nonzero" fill-opacity="1" /><path clip-path="url(#clip040)" d="M1350.49 1532.4 L1356.35 1532.4 L1356.35 1568.04 L1350.49 1568.04 L1350.49 1532.4 M1350.49 1518.52 L1356.35 1518.52 L1356.35 1525.93 L1350.49 1525.93 L1350.49 1518.52 Z" fill="#000000" fill-rule="nonzero" fill-opacity="1" /><path clip-path="url(#clip040)" d="M1396.35 1539.24 Q1398.55 1535.29 1401.61 1533.41 Q1404.66 1531.54 1408.8 1531.54 Q1414.37 1531.54 1417.39 1535.45 Q1420.42 1539.33 1420.42 1546.53 L1420.42 1568.04 L1414.53 1568.04 L1414.53 1546.72 Q1414.53 1541.59 1412.71 1539.11 Q1410.9 1536.63 1407.18 1536.63 Q1402.62 1536.63 1399.98 1539.65 Q1397.34 1542.68 1397.34 1547.9 L1397.34 1568.04 L1391.45 1568.04 L1391.45 1546.72 Q1391.45 1541.56 1389.64 1539.11 Q1387.82 1536.63 1384.04 1536.63 Q1379.55 1536.63 1376.91 1539.68 Q1374.27 1542.71 1374.27 1547.9 L1374.27 1568.04 L1368.38 1568.04 L1368.38 1532.4 L1374.27 1532.4 L1374.27 1537.93 Q1376.27 1534.66 1379.07 1533.1 Q1381.87 1531.54 1385.72 1531.54 Q1389.61 1531.54 1392.31 1533.51 Q1395.05 1535.48 1396.35 1539.24 Z" fill="#000000" fill-rule="nonzero" fill-opacity="1" /><path clip-path="url(#clip040)" d="M1462.59 1548.76 L1462.59 1551.62 L1435.66 1551.62 Q1436.04 1557.67 1439.29 1560.85 Q1442.57 1564 1448.39 1564 Q1451.77 1564 1454.92 1563.17 Q1458.1 1562.35 1461.22 1560.69 L1461.22 1566.23 Q1458.07 1567.57 1454.76 1568.27 Q1451.45 1568.97 1448.04 1568.97 Q1439.51 1568.97 1434.52 1564 Q1429.55 1559.04 1429.55 1550.57 Q1429.55 1541.82 1434.26 1536.69 Q1439 1531.54 1447.03 1531.54 Q1454.22 1531.54 1458.39 1536.18 Q1462.59 1540.8 1462.59 1548.76 M1456.73 1547.04 Q1456.67 1542.23 1454.03 1539.37 Q1451.42 1536.5 1447.09 1536.5 Q1442.19 1536.5 1439.23 1539.27 Q1436.3 1542.04 1435.85 1547.07 L1456.73 1547.04 Z" fill="#000000" fill-rule="nonzero" fill-opacity="1" /><path clip-path="url(#clip040)" d="M1501.83 1546.53 L1501.83 1568.04 L1495.98 1568.04 L1495.98 1546.72 Q1495.98 1541.66 1494 1539.14 Q1492.03 1536.63 1488.08 1536.63 Q1483.34 1536.63 1480.6 1539.65 Q1477.87 1542.68 1477.87 1547.9 L1477.87 1568.04 L1471.98 1568.04 L1471.98 1532.4 L1477.87 1532.4 L1477.87 1537.93 Q1479.97 1534.72 1482.8 1533.13 Q1485.67 1531.54 1489.39 1531.54 Q1495.53 1531.54 1498.68 1535.36 Q1501.83 1539.14 1501.83 1546.53 Z" fill="#000000" fill-rule="nonzero" fill-opacity="1" /><path clip-path="url(#clip040)" d="M1536.24 1533.45 L1536.24 1538.98 Q1533.76 1537.71 1531.08 1537.07 Q1528.41 1536.44 1525.55 1536.44 Q1521.19 1536.44 1518.99 1537.77 Q1516.83 1539.11 1516.83 1541.79 Q1516.83 1543.82 1518.39 1545 Q1519.94 1546.15 1524.66 1547.2 L1526.66 1547.64 Q1532.9 1548.98 1535.51 1551.43 Q1538.15 1553.85 1538.15 1558.21 Q1538.15 1563.17 1534.2 1566.07 Q1530.29 1568.97 1523.41 1568.97 Q1520.55 1568.97 1517.43 1568.39 Q1514.34 1567.85 1510.91 1566.74 L1510.91 1560.69 Q1514.15 1562.38 1517.3 1563.24 Q1520.45 1564.07 1523.54 1564.07 Q1527.68 1564.07 1529.91 1562.66 Q1532.14 1561.23 1532.14 1558.65 Q1532.14 1556.27 1530.51 1554.99 Q1528.92 1553.72 1523.48 1552.54 L1521.44 1552.07 Q1516 1550.92 1513.58 1548.56 Q1511.16 1546.18 1511.16 1542.04 Q1511.16 1537.01 1514.72 1534.27 Q1518.29 1531.54 1524.85 1531.54 Q1528.09 1531.54 1530.96 1532.01 Q1533.82 1532.49 1536.24 1533.45 Z" fill="#000000" fill-rule="nonzero" fill-opacity="1" /><path clip-path="url(#clip040)" d="M1547.48 1532.4 L1553.33 1532.4 L1553.33 1568.04 L1547.48 1568.04 L1547.48 1532.4 M1547.48 1518.52 L1553.33 1518.52 L1553.33 1525.93 L1547.48 1525.93 L1547.48 1518.52 Z" fill="#000000" fill-rule="nonzero" fill-opacity="1" /><path clip-path="url(#clip040)" d="M1579.4 1536.5 Q1574.69 1536.5 1571.95 1540.19 Q1569.22 1543.85 1569.22 1550.25 Q1569.22 1556.65 1571.92 1560.34 Q1574.66 1564 1579.4 1564 Q1584.08 1564 1586.82 1560.31 Q1589.55 1556.62 1589.55 1550.25 Q1589.55 1543.92 1586.82 1540.23 Q1584.08 1536.5 1579.4 1536.5 M1579.4 1531.54 Q1587.04 1531.54 1591.4 1536.5 Q1595.76 1541.47 1595.76 1550.25 Q1595.76 1559 1591.4 1564 Q1587.04 1568.97 1579.4 1568.97 Q1571.73 1568.97 1567.37 1564 Q1563.04 1559 1563.04 1550.25 Q1563.04 1541.47 1567.37 1536.5 Q1571.73 1531.54 1579.4 1531.54 Z" fill="#000000" fill-rule="nonzero" fill-opacity="1" /><path clip-path="url(#clip040)" d="M1635.1 1546.53 L1635.1 1568.04 L1629.24 1568.04 L1629.24 1546.72 Q1629.24 1541.66 1627.27 1539.14 Q1625.3 1536.63 1621.35 1536.63 Q1616.61 1536.63 1613.87 1539.65 Q1611.13 1542.68 1611.13 1547.9 L1611.13 1568.04 L1605.25 1568.04 L1605.25 1532.4 L1611.13 1532.4 L1611.13 1537.93 Q1613.23 1534.72 1616.07 1533.13 Q1618.93 1531.54 1622.66 1531.54 Q1628.8 1531.54 1631.95 1535.36 Q1635.1 1539.14 1635.1 1546.53 Z" fill="#000000" fill-rule="nonzero" fill-opacity="1" /><polyline clip-path="url(#clip040)" style="stroke:#000000; stroke-linecap:round; stroke-linejoin:round; stroke-width:4; stroke-opacity:1; fill:none" points="251.56,1423.18 251.56,47.2441 "/>
<polyline clip-path="url(#clip040)" style="stroke:#000000; stroke-linecap:round; stroke-linejoin:round; stroke-width:4; stroke-opacity:1; fill:none" points="251.56,1002.81 270.458,1002.81 "/>
<polyline clip-path="url(#clip040)" style="stroke:#000000; stroke-linecap:round; stroke-linejoin:round; stroke-width:4; stroke-opacity:1; fill:none" points="251.56,182.549 270.458,182.549 "/>
<path clip-path="url(#clip040)" d="M114.931 1022.6 L122.57 1022.6 L122.57 996.236 L114.26 997.903 L114.26 993.643 L122.524 991.977 L127.2 991.977 L127.2 1022.6 L134.839 1022.6 L134.839 1026.54 L114.931 1026.54 L114.931 1022.6 Z" fill="#000000" fill-rule="nonzero" fill-opacity="1" /><path clip-path="url(#clip040)" d="M154.283 995.055 Q150.672 995.055 148.843 998.62 Q147.038 1002.16 147.038 1009.29 Q147.038 1016.4 148.843 1019.96 Q150.672 1023.5 154.283 1023.5 Q157.917 1023.5 159.723 1019.96 Q161.552 1016.4 161.552 1009.29 Q161.552 1002.16 159.723 998.62 Q157.917 995.055 154.283 995.055 M154.283 991.352 Q160.093 991.352 163.149 995.958 Q166.227 1000.54 166.227 1009.29 Q166.227 1018.02 163.149 1022.62 Q160.093 1027.21 154.283 1027.21 Q148.473 1027.21 145.394 1022.62 Q142.339 1018.02 142.339 1009.29 Q142.339 1000.54 145.394 995.958 Q148.473 991.352 154.283 991.352 Z" fill="#000000" fill-rule="nonzero" fill-opacity="1" /><path clip-path="url(#clip040)" d="M166.227 985.453 L190.339 985.453 L190.339 988.65 L166.227 988.65 L166.227 985.453 Z" fill="#000000" fill-rule="nonzero" fill-opacity="1" /><path clip-path="url(#clip040)" d="M198.577 971.046 L213.491 971.046 L213.491 974.244 L202.056 974.244 L202.056 981.127 Q202.884 980.845 203.711 980.713 Q204.539 980.563 205.366 980.563 Q210.068 980.563 212.814 983.14 Q215.56 985.716 215.56 990.117 Q215.56 994.65 212.739 997.17 Q209.918 999.672 204.783 999.672 Q203.015 999.672 201.172 999.371 Q199.348 999.07 197.392 998.468 L197.392 994.65 Q199.085 995.572 200.89 996.023 Q202.696 996.474 204.708 996.474 Q207.962 996.474 209.861 994.763 Q211.761 993.051 211.761 990.117 Q211.761 987.183 209.861 985.472 Q207.962 983.76 204.708 983.76 Q203.185 983.76 201.661 984.099 Q200.157 984.437 198.577 985.152 L198.577 971.046 Z" fill="#000000" fill-rule="nonzero" fill-opacity="1" /><path clip-path="url(#clip040)" d="M144.855 202.341 L152.493 202.341 L152.493 175.976 L144.183 177.642 L144.183 173.383 L152.447 171.717 L157.123 171.717 L157.123 202.341 L164.762 202.341 L164.762 206.277 L144.855 206.277 L144.855 202.341 Z" fill="#000000" fill-rule="nonzero" fill-opacity="1" /><path clip-path="url(#clip040)" d="M184.206 174.795 Q180.595 174.795 178.766 178.36 Q176.961 181.902 176.961 189.031 Q176.961 196.138 178.766 199.703 Q180.595 203.244 184.206 203.244 Q187.84 203.244 189.646 199.703 Q191.475 196.138 191.475 189.031 Q191.475 181.902 189.646 178.36 Q187.84 174.795 184.206 174.795 M184.206 171.092 Q190.016 171.092 193.072 175.698 Q196.151 180.281 196.151 189.031 Q196.151 197.758 193.072 202.365 Q190.016 206.948 184.206 206.948 Q178.396 206.948 175.317 202.365 Q172.262 197.758 172.262 189.031 Q172.262 180.281 175.317 175.698 Q178.396 171.092 184.206 171.092 Z" fill="#000000" fill-rule="nonzero" fill-opacity="1" /><path clip-path="url(#clip040)" d="M205.855 153.288 Q202.921 153.288 201.436 156.184 Q199.969 159.062 199.969 164.854 Q199.969 170.628 201.436 173.525 Q202.921 176.402 205.855 176.402 Q208.808 176.402 210.275 173.525 Q211.761 170.628 211.761 164.854 Q211.761 159.062 210.275 156.184 Q208.808 153.288 205.855 153.288 M205.855 150.278 Q210.576 150.278 213.059 154.021 Q215.56 157.745 215.56 164.854 Q215.56 171.945 213.059 175.688 Q210.576 179.412 205.855 179.412 Q201.135 179.412 198.633 175.688 Q196.151 171.945 196.151 164.854 Q196.151 157.745 198.633 154.021 Q201.135 150.278 205.855 150.278 Z" fill="#000000" fill-rule="nonzero" fill-opacity="1" /><path clip-path="url(#clip040)" d="M18.0438 984.429 L24.314 984.429 Q22.5634 988.09 21.704 991.336 Q20.8447 994.583 20.8447 997.606 Q20.8447 1002.86 22.8817 1005.72 Q24.9187 1008.56 28.6745 1008.56 Q31.8255 1008.56 33.4488 1006.68 Q35.0402 1004.77 36.0269 999.484 L36.8226 995.601 Q38.1912 988.408 41.6605 985.002 Q45.098 981.565 50.8908 981.565 Q57.7976 981.565 61.3624 986.212 Q64.9272 990.827 64.9272 999.771 Q64.9272 1003.14 64.1633 1006.96 Q63.3994 1010.75 61.9035 1014.83 L55.2831 1014.83 Q57.4793 1010.91 58.5933 1007.15 Q59.7073 1003.4 59.7073 999.771 Q59.7073 994.264 57.543 991.273 Q55.3786 988.281 51.3682 988.281 Q47.8671 988.281 45.8937 990.445 Q43.9204 992.577 42.9337 997.479 L42.1698 1001.39 Q40.7375 1008.59 37.682 1011.8 Q34.6264 1015.02 29.1837 1015.02 Q22.8817 1015.02 19.2532 1010.59 Q15.6248 1006.14 15.6248 998.338 Q15.6248 994.996 16.2295 991.527 Q16.8343 988.058 18.0438 984.429 Z" fill="#000000" fill-rule="nonzero" fill-opacity="1" /><path clip-path="url(#clip040)" d="M46.0847 955.593 Q46.0847 962.69 47.7079 965.428 Q49.3312 968.165 53.2461 968.165 Q56.3653 968.165 58.2114 966.128 Q60.0256 964.059 60.0256 960.526 Q60.0256 955.656 56.5881 952.728 Q53.1188 949.768 47.3897 949.768 L46.0847 949.768 L46.0847 955.593 M43.6657 943.912 L64.0042 943.912 L64.0042 949.768 L58.5933 949.768 Q61.8398 951.773 63.3994 954.765 Q64.9272 957.757 64.9272 962.086 Q64.9272 967.56 61.8716 970.807 Q58.7843 974.021 53.6281 974.021 Q47.6125 974.021 44.5569 970.011 Q41.5014 965.969 41.5014 957.98 L41.5014 949.768 L40.9285 949.768 Q36.8862 949.768 34.6901 952.442 Q32.4621 955.083 32.4621 959.89 Q32.4621 962.945 33.1941 965.842 Q33.9262 968.738 35.3903 971.412 L29.9795 971.412 Q28.7381 968.197 28.1334 965.173 Q27.4968 962.149 27.4968 959.285 Q27.4968 951.551 31.5072 947.731 Q35.5176 943.912 43.6657 943.912 Z" fill="#000000" fill-rule="nonzero" fill-opacity="1" /><path clip-path="url(#clip040)" d="M35.1993 904.094 Q31.2526 901.898 29.3747 898.842 Q27.4968 895.787 27.4968 891.649 Q27.4968 886.079 31.4117 883.056 Q35.2948 880.032 42.4881 880.032 L64.0042 880.032 L64.0042 885.92 L42.679 885.92 Q37.5546 885.92 35.072 887.734 Q32.5894 889.549 32.5894 893.272 Q32.5894 897.824 35.6131 900.466 Q38.6368 903.107 43.8567 903.107 L64.0042 903.107 L64.0042 908.996 L42.679 908.996 Q37.5228 908.996 35.072 910.81 Q32.5894 912.624 32.5894 916.412 Q32.5894 920.9 35.6449 923.541 Q38.6686 926.183 43.8567 926.183 L64.0042 926.183 L64.0042 932.071 L28.3562 932.071 L28.3562 926.183 L33.8944 926.183 Q30.616 924.178 29.0564 921.377 Q27.4968 918.576 27.4968 914.725 Q27.4968 910.842 29.4702 908.136 Q31.4436 905.399 35.1993 904.094 Z" fill="#000000" fill-rule="nonzero" fill-opacity="1" /><path clip-path="url(#clip040)" d="M58.657 862.685 L77.5631 862.685 L77.5631 868.574 L28.3562 868.574 L28.3562 862.685 L33.7671 862.685 Q30.5842 860.839 29.0564 858.038 Q27.4968 855.206 27.4968 851.291 Q27.4968 844.798 32.6531 840.755 Q37.8093 836.681 46.212 836.681 Q54.6147 836.681 59.771 840.755 Q64.9272 844.798 64.9272 851.291 Q64.9272 855.206 63.3994 858.038 Q61.8398 860.839 58.657 862.685 M46.212 842.761 Q39.7508 842.761 36.0905 845.434 Q32.3984 848.076 32.3984 852.723 Q32.3984 857.37 36.0905 860.043 Q39.7508 862.685 46.212 862.685 Q52.6732 862.685 56.3653 860.043 Q60.0256 857.37 60.0256 852.723 Q60.0256 848.076 56.3653 845.434 Q52.6732 842.761 46.212 842.761 Z" fill="#000000" fill-rule="nonzero" fill-opacity="1" /><path clip-path="url(#clip040)" d="M14.479 826.974 L14.479 821.117 L64.0042 821.117 L64.0042 826.974 L14.479 826.974 Z" fill="#000000" fill-rule="nonzero" fill-opacity="1" /><path clip-path="url(#clip040)" d="M44.7161 778.371 L47.5806 778.371 L47.5806 805.298 Q53.6281 804.916 56.8109 801.67 Q59.9619 798.392 59.9619 792.567 Q59.9619 789.193 59.1344 786.042 Q58.3069 782.859 56.6518 779.74 L62.1899 779.74 Q63.5267 782.891 64.227 786.201 Q64.9272 789.511 64.9272 792.917 Q64.9272 801.447 59.9619 806.444 Q54.9967 811.409 46.5303 811.409 Q37.7774 811.409 32.6531 806.699 Q27.4968 801.956 27.4968 793.936 Q27.4968 786.742 32.1438 782.573 Q36.7589 778.371 44.7161 778.371 M42.9973 784.228 Q38.1912 784.292 35.3266 786.933 Q32.4621 789.543 32.4621 793.872 Q32.4621 798.774 35.2312 801.734 Q38.0002 804.662 43.0292 805.107 L42.9973 784.228 Z" fill="#000000" fill-rule="nonzero" fill-opacity="1" /><path clip-path="url(#clip040)" d="M33.7671 745.302 L14.479 745.302 L14.479 739.445 L64.0042 739.445 L64.0042 745.302 L58.657 745.302 Q61.8398 747.148 63.3994 749.98 Q64.9272 752.781 64.9272 756.728 Q64.9272 763.189 59.771 767.263 Q54.6147 771.306 46.212 771.306 Q37.8093 771.306 32.6531 767.263 Q27.4968 763.189 27.4968 756.728 Q27.4968 752.781 29.0564 749.98 Q30.5842 747.148 33.7671 745.302 M46.212 765.258 Q52.6732 765.258 56.3653 762.616 Q60.0256 759.943 60.0256 755.296 Q60.0256 750.649 56.3653 747.975 Q52.6732 745.302 46.212 745.302 Q39.7508 745.302 36.0905 747.975 Q32.3984 750.649 32.3984 755.296 Q32.3984 759.943 36.0905 762.616 Q39.7508 765.258 46.212 765.258 Z" fill="#000000" fill-rule="nonzero" fill-opacity="1" /><path clip-path="url(#clip040)" d="M16.4842 706.407 L16.4842 699.978 L58.5933 699.978 L58.5933 676.838 L64.0042 676.838 L64.0042 706.407 L16.4842 706.407 Z" fill="#000000" fill-rule="nonzero" fill-opacity="1" /><path clip-path="url(#clip040)" d="M58.5933 668.404 L58.5933 657.9 L22.3406 657.9 L24.6323 669.327 L18.7758 669.327 L16.4842 657.964 L16.4842 651.535 L58.5933 651.535 L58.5933 641.031 L64.0042 641.031 L64.0042 668.404 L58.5933 668.404 Z" fill="#000000" fill-rule="nonzero" fill-opacity="1" /><path clip-path="url(#clip040)" d="M16.4842 607.898 L16.4842 577.852 L21.895 577.852 L21.895 601.468 L35.9632 601.468 L35.9632 578.838 L41.3741 578.838 L41.3741 601.468 L58.5933 601.468 L58.5933 577.279 L64.0042 577.279 L64.0042 607.898 L16.4842 607.898 Z" fill="#000000" fill-rule="nonzero" fill-opacity="1" /><path clip-path="url(#clip040)" d="M33.8307 546.31 Q33.2578 547.296 33.0032 548.474 Q32.7167 549.62 32.7167 551.02 Q32.7167 555.985 35.9632 558.659 Q39.1779 561.301 45.2253 561.301 L64.0042 561.301 L64.0042 567.189 L28.3562 567.189 L28.3562 561.301 L33.8944 561.301 Q30.6479 559.455 29.0883 556.495 Q27.4968 553.535 27.4968 549.302 Q27.4968 548.697 27.5923 547.965 Q27.656 547.233 27.8151 546.341 L33.8307 546.31 Z" fill="#000000" fill-rule="nonzero" fill-opacity="1" /><path clip-path="url(#clip040)" d="M33.8307 520.656 Q33.2578 521.643 33.0032 522.82 Q32.7167 523.966 32.7167 525.366 Q32.7167 530.332 35.9632 533.005 Q39.1779 535.647 45.2253 535.647 L64.0042 535.647 L64.0042 541.535 L28.3562 541.535 L28.3562 535.647 L33.8944 535.647 Q30.6479 533.801 29.0883 530.841 Q27.4968 527.881 27.4968 523.648 Q27.4968 523.043 27.5923 522.311 Q27.656 521.579 27.8151 520.688 L33.8307 520.656 Z" fill="#000000" fill-rule="nonzero" fill-opacity="1" /><path clip-path="url(#clip040)" d="M32.4621 502.132 Q32.4621 506.842 36.1542 509.579 Q39.8145 512.317 46.212 512.317 Q52.6095 512.317 56.3017 509.611 Q59.9619 506.874 59.9619 502.132 Q59.9619 497.453 56.2698 494.716 Q52.5777 491.978 46.212 491.978 Q39.8781 491.978 36.186 494.716 Q32.4621 497.453 32.4621 502.132 M27.4968 502.132 Q27.4968 494.493 32.4621 490.132 Q37.4273 485.772 46.212 485.772 Q54.9649 485.772 59.9619 490.132 Q64.9272 494.493 64.9272 502.132 Q64.9272 509.802 59.9619 514.163 Q54.9649 518.491 46.212 518.491 Q37.4273 518.491 32.4621 514.163 Q27.4968 509.802 27.4968 502.132 Z" fill="#000000" fill-rule="nonzero" fill-opacity="1" /><path clip-path="url(#clip040)" d="M33.8307 455.407 Q33.2578 456.394 33.0032 457.572 Q32.7167 458.718 32.7167 460.118 Q32.7167 465.083 35.9632 467.757 Q39.1779 470.399 45.2253 470.399 L64.0042 470.399 L64.0042 476.287 L28.3562 476.287 L28.3562 470.399 L33.8944 470.399 Q30.6479 468.553 29.0883 465.592 Q27.4968 462.632 27.4968 458.399 Q27.4968 457.794 27.5923 457.062 Q27.656 456.33 27.8151 455.439 L33.8307 455.407 Z" fill="#000000" fill-rule="nonzero" fill-opacity="1" /><polyline clip-path="url(#clip042)" style="stroke:#009af9; stroke-linecap:round; stroke-linejoin:round; stroke-width:4; stroke-opacity:1; fill:none" points="311.028,96.9816 415.358,112.365 519.687,129.844 624.016,117.359 728.346,134.463 832.675,146.245 937.005,153.62 1041.33,154.003 1145.66,150.557 1249.99,145.549 1354.32,168.299 1458.65,167.635 1562.98,174.078 1667.31,175.224 1771.64,176.53 1875.97,183.425 1980.3,179.704 2084.63,177.553 2188.96,180.256 2293.29,171.579 "/>
<path clip-path="url(#clip042)" d="M311.028 112.982 L299.716 108.294 L295.028 96.9816 L299.716 85.6696 L311.028 80.9816 L322.34 85.6696 L327.028 96.9816 L322.34 108.294 Z" fill="#009af9" fill-rule="evenodd" fill-opacity="1" stroke="#000000" stroke-opacity="1" stroke-width="3.2"/>
<path clip-path="url(#clip042)" d="M415.358 128.365 L404.046 123.677 L399.358 112.365 L404.046 101.053 L415.358 96.3645 L426.67 101.053 L431.358 112.365 L426.67 123.677 Z" fill="#009af9" fill-rule="evenodd" fill-opacity="1" stroke="#000000" stroke-opacity="1" stroke-width="3.2"/>
<path clip-path="url(#clip042)" d="M519.687 145.844 L508.375 141.156 L503.687 129.844 L508.375 118.532 L519.687 113.844 L530.999 118.532 L535.687 129.844 L530.999 141.156 Z" fill="#009af9" fill-rule="evenodd" fill-opacity="1" stroke="#000000" stroke-opacity="1" stroke-width="3.2"/>
<path clip-path="url(#clip042)" d="M624.016 133.359 L612.704 128.671 L608.016 117.359 L612.704 106.047 L624.016 101.359 L635.328 106.047 L640.016 117.359 L635.328 128.671 Z" fill="#009af9" fill-rule="evenodd" fill-opacity="1" stroke="#000000" stroke-opacity="1" stroke-width="3.2"/>
<path clip-path="url(#clip042)" d="M728.346 150.463 L717.034 145.775 L712.346 134.463 L717.034 123.151 L728.346 118.463 L739.658 123.151 L744.346 134.463 L739.658 145.775 Z" fill="#009af9" fill-rule="evenodd" fill-opacity="1" stroke="#000000" stroke-opacity="1" stroke-width="3.2"/>
<path clip-path="url(#clip042)" d="M832.675 162.245 L821.363 157.557 L816.675 146.245 L821.363 134.933 L832.675 130.245 L843.987 134.933 L848.675 146.245 L843.987 157.557 Z" fill="#009af9" fill-rule="evenodd" fill-opacity="1" stroke="#000000" stroke-opacity="1" stroke-width="3.2"/>
<path clip-path="url(#clip042)" d="M937.005 169.62 L925.693 164.932 L921.005 153.62 L925.693 142.308 L937.005 137.62 L948.317 142.308 L953.005 153.62 L948.317 164.932 Z" fill="#009af9" fill-rule="evenodd" fill-opacity="1" stroke="#000000" stroke-opacity="1" stroke-width="3.2"/>
<path clip-path="url(#clip042)" d="M1041.33 170.003 L1030.02 165.315 L1025.33 154.003 L1030.02 142.691 L1041.33 138.003 L1052.65 142.691 L1057.33 154.003 L1052.65 165.315 Z" fill="#009af9" fill-rule="evenodd" fill-opacity="1" stroke="#000000" stroke-opacity="1" stroke-width="3.2"/>
<path clip-path="url(#clip042)" d="M1145.66 166.557 L1134.35 161.869 L1129.66 150.557 L1134.35 139.245 L1145.66 134.557 L1156.98 139.245 L1161.66 150.557 L1156.98 161.869 Z" fill="#009af9" fill-rule="evenodd" fill-opacity="1" stroke="#000000" stroke-opacity="1" stroke-width="3.2"/>
<path clip-path="url(#clip042)" d="M1249.99 161.549 L1238.68 156.861 L1233.99 145.549 L1238.68 134.237 L1249.99 129.549 L1261.31 134.237 L1265.99 145.549 L1261.31 156.861 Z" fill="#009af9" fill-rule="evenodd" fill-opacity="1" stroke="#000000" stroke-opacity="1" stroke-width="3.2"/>
<path clip-path="url(#clip042)" d="M1354.32 184.299 L1343.01 179.611 L1338.32 168.299 L1343.01 156.987 L1354.32 152.299 L1365.63 156.987 L1370.32 168.299 L1365.63 179.611 Z" fill="#009af9" fill-rule="evenodd" fill-opacity="1" stroke="#000000" stroke-opacity="1" stroke-width="3.2"/>
<path clip-path="url(#clip042)" d="M1458.65 183.635 L1447.34 178.947 L1442.65 167.635 L1447.34 156.323 L1458.65 151.635 L1469.96 156.323 L1474.65 167.635 L1469.96 178.947 Z" fill="#009af9" fill-rule="evenodd" fill-opacity="1" stroke="#000000" stroke-opacity="1" stroke-width="3.2"/>
<path clip-path="url(#clip042)" d="M1562.98 190.078 L1551.67 185.39 L1546.98 174.078 L1551.67 162.766 L1562.98 158.078 L1574.29 162.766 L1578.98 174.078 L1574.29 185.39 Z" fill="#009af9" fill-rule="evenodd" fill-opacity="1" stroke="#000000" stroke-opacity="1" stroke-width="3.2"/>
<path clip-path="url(#clip042)" d="M1667.31 191.224 L1656 186.536 L1651.31 175.224 L1656 163.912 L1667.31 159.224 L1678.62 163.912 L1683.31 175.224 L1678.62 186.536 Z" fill="#009af9" fill-rule="evenodd" fill-opacity="1" stroke="#000000" stroke-opacity="1" stroke-width="3.2"/>
<path clip-path="url(#clip042)" d="M1771.64 192.53 L1760.33 187.842 L1755.64 176.53 L1760.33 165.218 L1771.64 160.53 L1782.95 165.218 L1787.64 176.53 L1782.95 187.842 Z" fill="#009af9" fill-rule="evenodd" fill-opacity="1" stroke="#000000" stroke-opacity="1" stroke-width="3.2"/>
<path clip-path="url(#clip042)" d="M1875.97 199.425 L1864.66 194.737 L1859.97 183.425 L1864.66 172.113 L1875.97 167.425 L1887.28 172.113 L1891.97 183.425 L1887.28 194.737 Z" fill="#009af9" fill-rule="evenodd" fill-opacity="1" stroke="#000000" stroke-opacity="1" stroke-width="3.2"/>
<path clip-path="url(#clip042)" d="M1980.3 195.704 L1968.99 191.016 L1964.3 179.704 L1968.99 168.392 L1980.3 163.704 L1991.61 168.392 L1996.3 179.704 L1991.61 191.016 Z" fill="#009af9" fill-rule="evenodd" fill-opacity="1" stroke="#000000" stroke-opacity="1" stroke-width="3.2"/>
<path clip-path="url(#clip042)" d="M2084.63 193.553 L2073.32 188.865 L2068.63 177.553 L2073.32 166.241 L2084.63 161.553 L2095.94 166.241 L2100.63 177.553 L2095.94 188.865 Z" fill="#009af9" fill-rule="evenodd" fill-opacity="1" stroke="#000000" stroke-opacity="1" stroke-width="3.2"/>
<path clip-path="url(#clip042)" d="M2188.96 196.256 L2177.65 191.568 L2172.96 180.256 L2177.65 168.944 L2188.96 164.256 L2200.27 168.944 L2204.96 180.256 L2200.27 191.568 Z" fill="#009af9" fill-rule="evenodd" fill-opacity="1" stroke="#000000" stroke-opacity="1" stroke-width="3.2"/>
<path clip-path="url(#clip042)" d="M2293.29 187.579 L2281.98 182.891 L2277.29 171.579 L2281.98 160.267 L2293.29 155.579 L2304.6 160.267 L2309.29 171.579 L2304.6 182.891 Z" fill="#009af9" fill-rule="evenodd" fill-opacity="1" stroke="#000000" stroke-opacity="1" stroke-width="3.2"/>
<polyline clip-path="url(#clip042)" style="stroke:#e26f46; stroke-linecap:round; stroke-linejoin:round; stroke-width:4; stroke-opacity:1; fill:none" points="311.028,86.1857 415.358,117.467 519.687,137.013 624.016,169.221 728.346,180.415 832.675,216.435 937.005,237.947 1041.33,270.431 1145.66,271.189 1249.99,300.939 1354.32,318.094 1458.65,350.032 1562.98,364.096 1667.31,378.99 1771.64,377.413 1875.97,394.652 1980.3,370.342 2084.63,403.249 2188.96,398.18 2293.29,406.142 "/>
<path clip-path="url(#clip042)" d="M311.028 102.186 L299.716 97.4977 L295.028 86.1857 L299.716 74.8737 L311.028 70.1857 L322.34 74.8737 L327.028 86.1857 L322.34 97.4977 Z" fill="#e26f46" fill-rule="evenodd" fill-opacity="1" stroke="#000000" stroke-opacity="1" stroke-width="3.2"/>
<path clip-path="url(#clip042)" d="M415.358 133.467 L404.046 128.779 L399.358 117.467 L404.046 106.155 L415.358 101.467 L426.67 106.155 L431.358 117.467 L426.67 128.779 Z" fill="#e26f46" fill-rule="evenodd" fill-opacity="1" stroke="#000000" stroke-opacity="1" stroke-width="3.2"/>
<path clip-path="url(#clip042)" d="M519.687 153.013 L508.375 148.325 L503.687 137.013 L508.375 125.701 L519.687 121.013 L530.999 125.701 L535.687 137.013 L530.999 148.325 Z" fill="#e26f46" fill-rule="evenodd" fill-opacity="1" stroke="#000000" stroke-opacity="1" stroke-width="3.2"/>
<path clip-path="url(#clip042)" d="M624.016 185.221 L612.704 180.533 L608.016 169.221 L612.704 157.909 L624.016 153.221 L635.328 157.909 L640.016 169.221 L635.328 180.533 Z" fill="#e26f46" fill-rule="evenodd" fill-opacity="1" stroke="#000000" stroke-opacity="1" stroke-width="3.2"/>
<path clip-path="url(#clip042)" d="M728.346 196.415 L717.034 191.727 L712.346 180.415 L717.034 169.103 L728.346 164.415 L739.658 169.103 L744.346 180.415 L739.658 191.727 Z" fill="#e26f46" fill-rule="evenodd" fill-opacity="1" stroke="#000000" stroke-opacity="1" stroke-width="3.2"/>
<path clip-path="url(#clip042)" d="M832.675 232.435 L821.363 227.747 L816.675 216.435 L821.363 205.123 L832.675 200.435 L843.987 205.123 L848.675 216.435 L843.987 227.747 Z" fill="#e26f46" fill-rule="evenodd" fill-opacity="1" stroke="#000000" stroke-opacity="1" stroke-width="3.2"/>
<path clip-path="url(#clip042)" d="M937.005 253.947 L925.693 249.259 L921.005 237.947 L925.693 226.635 L937.005 221.947 L948.317 226.635 L953.005 237.947 L948.317 249.259 Z" fill="#e26f46" fill-rule="evenodd" fill-opacity="1" stroke="#000000" stroke-opacity="1" stroke-width="3.2"/>
<path clip-path="url(#clip042)" d="M1041.33 286.431 L1030.02 281.743 L1025.33 270.431 L1030.02 259.119 L1041.33 254.431 L1052.65 259.119 L1057.33 270.431 L1052.65 281.743 Z" fill="#e26f46" fill-rule="evenodd" fill-opacity="1" stroke="#000000" stroke-opacity="1" stroke-width="3.2"/>
<path clip-path="url(#clip042)" d="M1145.66 287.189 L1134.35 282.501 L1129.66 271.189 L1134.35 259.877 L1145.66 255.189 L1156.98 259.877 L1161.66 271.189 L1156.98 282.501 Z" fill="#e26f46" fill-rule="evenodd" fill-opacity="1" stroke="#000000" stroke-opacity="1" stroke-width="3.2"/>
<path clip-path="url(#clip042)" d="M1249.99 316.939 L1238.68 312.251 L1233.99 300.939 L1238.68 289.627 L1249.99 284.939 L1261.31 289.627 L1265.99 300.939 L1261.31 312.251 Z" fill="#e26f46" fill-rule="evenodd" fill-opacity="1" stroke="#000000" stroke-opacity="1" stroke-width="3.2"/>
<path clip-path="url(#clip042)" d="M1354.32 334.094 L1343.01 329.406 L1338.32 318.094 L1343.01 306.782 L1354.32 302.094 L1365.63 306.782 L1370.32 318.094 L1365.63 329.406 Z" fill="#e26f46" fill-rule="evenodd" fill-opacity="1" stroke="#000000" stroke-opacity="1" stroke-width="3.2"/>
<path clip-path="url(#clip042)" d="M1458.65 366.032 L1447.34 361.344 L1442.65 350.032 L1447.34 338.72 L1458.65 334.032 L1469.96 338.72 L1474.65 350.032 L1469.96 361.344 Z" fill="#e26f46" fill-rule="evenodd" fill-opacity="1" stroke="#000000" stroke-opacity="1" stroke-width="3.2"/>
<path clip-path="url(#clip042)" d="M1562.98 380.096 L1551.67 375.408 L1546.98 364.096 L1551.67 352.784 L1562.98 348.096 L1574.29 352.784 L1578.98 364.096 L1574.29 375.408 Z" fill="#e26f46" fill-rule="evenodd" fill-opacity="1" stroke="#000000" stroke-opacity="1" stroke-width="3.2"/>
<path clip-path="url(#clip042)" d="M1667.31 394.99 L1656 390.302 L1651.31 378.99 L1656 367.678 L1667.31 362.99 L1678.62 367.678 L1683.31 378.99 L1678.62 390.302 Z" fill="#e26f46" fill-rule="evenodd" fill-opacity="1" stroke="#000000" stroke-opacity="1" stroke-width="3.2"/>
<path clip-path="url(#clip042)" d="M1771.64 393.413 L1760.33 388.725 L1755.64 377.413 L1760.33 366.101 L1771.64 361.413 L1782.95 366.101 L1787.64 377.413 L1782.95 388.725 Z" fill="#e26f46" fill-rule="evenodd" fill-opacity="1" stroke="#000000" stroke-opacity="1" stroke-width="3.2"/>
<path clip-path="url(#clip042)" d="M1875.97 410.652 L1864.66 405.964 L1859.97 394.652 L1864.66 383.34 L1875.97 378.652 L1887.28 383.34 L1891.97 394.652 L1887.28 405.964 Z" fill="#e26f46" fill-rule="evenodd" fill-opacity="1" stroke="#000000" stroke-opacity="1" stroke-width="3.2"/>
<path clip-path="url(#clip042)" d="M1980.3 386.342 L1968.99 381.654 L1964.3 370.342 L1968.99 359.03 L1980.3 354.342 L1991.61 359.03 L1996.3 370.342 L1991.61 381.654 Z" fill="#e26f46" fill-rule="evenodd" fill-opacity="1" stroke="#000000" stroke-opacity="1" stroke-width="3.2"/>
<path clip-path="url(#clip042)" d="M2084.63 419.249 L2073.32 414.561 L2068.63 403.249 L2073.32 391.937 L2084.63 387.249 L2095.94 391.937 L2100.63 403.249 L2095.94 414.561 Z" fill="#e26f46" fill-rule="evenodd" fill-opacity="1" stroke="#000000" stroke-opacity="1" stroke-width="3.2"/>
<path clip-path="url(#clip042)" d="M2188.96 414.18 L2177.65 409.492 L2172.96 398.18 L2177.65 386.868 L2188.96 382.18 L2200.27 386.868 L2204.96 398.18 L2200.27 409.492 Z" fill="#e26f46" fill-rule="evenodd" fill-opacity="1" stroke="#000000" stroke-opacity="1" stroke-width="3.2"/>
<path clip-path="url(#clip042)" d="M2293.29 422.142 L2281.98 417.454 L2277.29 406.142 L2281.98 394.83 L2293.29 390.142 L2304.6 394.83 L2309.29 406.142 L2304.6 417.454 Z" fill="#e26f46" fill-rule="evenodd" fill-opacity="1" stroke="#000000" stroke-opacity="1" stroke-width="3.2"/>
<polyline clip-path="url(#clip042)" style="stroke:#3da44d; stroke-linecap:round; stroke-linejoin:round; stroke-width:4; stroke-opacity:1; fill:none" points="311.028,111.921 415.358,256.159 519.687,426.065 624.016,651.241 728.346,1358.15 832.675,1383.24 937.005,1382.99 1041.33,1381.64 1145.66,1383.08 1249.99,1383.26 1354.32,1382.33 1458.65,1383 1562.98,1380.38 1667.31,1381.73 1771.64,1383.34 1875.97,1383.1 1980.3,1377.61 2084.63,1384.24 2188.96,1380.29 2293.29,1380.92 "/>
<path clip-path="url(#clip042)" d="M311.028 127.921 L299.716 123.233 L295.028 111.921 L299.716 100.609 L311.028 95.9209 L322.34 100.609 L327.028 111.921 L322.34 123.233 Z" fill="#3da44d" fill-rule="evenodd" fill-opacity="1" stroke="#000000" stroke-opacity="1" stroke-width="3.2"/>
<path clip-path="url(#clip042)" d="M415.358 272.159 L404.046 267.471 L399.358 256.159 L404.046 244.847 L415.358 240.159 L426.67 244.847 L431.358 256.159 L426.67 267.471 Z" fill="#3da44d" fill-rule="evenodd" fill-opacity="1" stroke="#000000" stroke-opacity="1" stroke-width="3.2"/>
<path clip-path="url(#clip042)" d="M519.687 442.065 L508.375 437.377 L503.687 426.065 L508.375 414.753 L519.687 410.065 L530.999 414.753 L535.687 426.065 L530.999 437.377 Z" fill="#3da44d" fill-rule="evenodd" fill-opacity="1" stroke="#000000" stroke-opacity="1" stroke-width="3.2"/>
<path clip-path="url(#clip042)" d="M624.016 667.241 L612.704 662.553 L608.016 651.241 L612.704 639.929 L624.016 635.241 L635.328 639.929 L640.016 651.241 L635.328 662.553 Z" fill="#3da44d" fill-rule="evenodd" fill-opacity="1" stroke="#000000" stroke-opacity="1" stroke-width="3.2"/>
<path clip-path="url(#clip042)" d="M728.346 1374.15 L717.034 1369.46 L712.346 1358.15 L717.034 1346.83 L728.346 1342.15 L739.658 1346.83 L744.346 1358.15 L739.658 1369.46 Z" fill="#3da44d" fill-rule="evenodd" fill-opacity="1" stroke="#000000" stroke-opacity="1" stroke-width="3.2"/>
<path clip-path="url(#clip042)" d="M832.675 1399.24 L821.363 1394.55 L816.675 1383.24 L821.363 1371.93 L832.675 1367.24 L843.987 1371.93 L848.675 1383.24 L843.987 1394.55 Z" fill="#3da44d" fill-rule="evenodd" fill-opacity="1" stroke="#000000" stroke-opacity="1" stroke-width="3.2"/>
<path clip-path="url(#clip042)" d="M937.005 1398.99 L925.693 1394.3 L921.005 1382.99 L925.693 1371.68 L937.005 1366.99 L948.317 1371.68 L953.005 1382.99 L948.317 1394.3 Z" fill="#3da44d" fill-rule="evenodd" fill-opacity="1" stroke="#000000" stroke-opacity="1" stroke-width="3.2"/>
<path clip-path="url(#clip042)" d="M1041.33 1397.64 L1030.02 1392.95 L1025.33 1381.64 L1030.02 1370.32 L1041.33 1365.64 L1052.65 1370.32 L1057.33 1381.64 L1052.65 1392.95 Z" fill="#3da44d" fill-rule="evenodd" fill-opacity="1" stroke="#000000" stroke-opacity="1" stroke-width="3.2"/>
<path clip-path="url(#clip042)" d="M1145.66 1399.08 L1134.35 1394.39 L1129.66 1383.08 L1134.35 1371.77 L1145.66 1367.08 L1156.98 1371.77 L1161.66 1383.08 L1156.98 1394.39 Z" fill="#3da44d" fill-rule="evenodd" fill-opacity="1" stroke="#000000" stroke-opacity="1" stroke-width="3.2"/>
<path clip-path="url(#clip042)" d="M1249.99 1399.26 L1238.68 1394.58 L1233.99 1383.26 L1238.68 1371.95 L1249.99 1367.26 L1261.31 1371.95 L1265.99 1383.26 L1261.31 1394.58 Z" fill="#3da44d" fill-rule="evenodd" fill-opacity="1" stroke="#000000" stroke-opacity="1" stroke-width="3.2"/>
<path clip-path="url(#clip042)" d="M1354.32 1398.33 L1343.01 1393.64 L1338.32 1382.33 L1343.01 1371.02 L1354.32 1366.33 L1365.63 1371.02 L1370.32 1382.33 L1365.63 1393.64 Z" fill="#3da44d" fill-rule="evenodd" fill-opacity="1" stroke="#000000" stroke-opacity="1" stroke-width="3.2"/>
<path clip-path="url(#clip042)" d="M1458.65 1399 L1447.34 1394.31 L1442.65 1383 L1447.34 1371.69 L1458.65 1367 L1469.96 1371.69 L1474.65 1383 L1469.96 1394.31 Z" fill="#3da44d" fill-rule="evenodd" fill-opacity="1" stroke="#000000" stroke-opacity="1" stroke-width="3.2"/>
<path clip-path="url(#clip042)" d="M1562.98 1396.38 L1551.67 1391.69 L1546.98 1380.38 L1551.67 1369.07 L1562.98 1364.38 L1574.29 1369.07 L1578.98 1380.38 L1574.29 1391.69 Z" fill="#3da44d" fill-rule="evenodd" fill-opacity="1" stroke="#000000" stroke-opacity="1" stroke-width="3.2"/>
<path clip-path="url(#clip042)" d="M1667.31 1397.73 L1656 1393.04 L1651.31 1381.73 L1656 1370.41 L1667.31 1365.73 L1678.62 1370.41 L1683.31 1381.73 L1678.62 1393.04 Z" fill="#3da44d" fill-rule="evenodd" fill-opacity="1" stroke="#000000" stroke-opacity="1" stroke-width="3.2"/>
<path clip-path="url(#clip042)" d="M1771.64 1399.34 L1760.33 1394.65 L1755.64 1383.34 L1760.33 1372.03 L1771.64 1367.34 L1782.95 1372.03 L1787.64 1383.34 L1782.95 1394.65 Z" fill="#3da44d" fill-rule="evenodd" fill-opacity="1" stroke="#000000" stroke-opacity="1" stroke-width="3.2"/>
<path clip-path="url(#clip042)" d="M1875.97 1399.1 L1864.66 1394.41 L1859.97 1383.1 L1864.66 1371.79 L1875.97 1367.1 L1887.28 1371.79 L1891.97 1383.1 L1887.28 1394.41 Z" fill="#3da44d" fill-rule="evenodd" fill-opacity="1" stroke="#000000" stroke-opacity="1" stroke-width="3.2"/>
<path clip-path="url(#clip042)" d="M1980.3 1393.61 L1968.99 1388.92 L1964.3 1377.61 L1968.99 1366.29 L1980.3 1361.61 L1991.61 1366.29 L1996.3 1377.61 L1991.61 1388.92 Z" fill="#3da44d" fill-rule="evenodd" fill-opacity="1" stroke="#000000" stroke-opacity="1" stroke-width="3.2"/>
<path clip-path="url(#clip042)" d="M2084.63 1400.24 L2073.32 1395.55 L2068.63 1384.24 L2073.32 1372.93 L2084.63 1368.24 L2095.94 1372.93 L2100.63 1384.24 L2095.94 1395.55 Z" fill="#3da44d" fill-rule="evenodd" fill-opacity="1" stroke="#000000" stroke-opacity="1" stroke-width="3.2"/>
<path clip-path="url(#clip042)" d="M2188.96 1396.29 L2177.65 1391.61 L2172.96 1380.29 L2177.65 1368.98 L2188.96 1364.29 L2200.27 1368.98 L2204.96 1380.29 L2200.27 1391.61 Z" fill="#3da44d" fill-rule="evenodd" fill-opacity="1" stroke="#000000" stroke-opacity="1" stroke-width="3.2"/>
<path clip-path="url(#clip042)" d="M2293.29 1396.92 L2281.98 1392.24 L2277.29 1380.92 L2281.98 1369.61 L2293.29 1364.92 L2304.6 1369.61 L2309.29 1380.92 L2304.6 1392.24 Z" fill="#3da44d" fill-rule="evenodd" fill-opacity="1" stroke="#000000" stroke-opacity="1" stroke-width="3.2"/>
<path clip-path="url(#clip040)" d="M1872.11 300.469 L2282.72 300.469 L2282.72 93.1086 L1872.11 93.1086  Z" fill="#ffffff" fill-rule="evenodd" fill-opacity="1"/>
<polyline clip-path="url(#clip040)" style="stroke:#000000; stroke-linecap:round; stroke-linejoin:round; stroke-width:4; stroke-opacity:1; fill:none" points="1872.11,300.469 2282.72,300.469 2282.72,93.1086 1872.11,93.1086 1872.11,300.469 "/>
<polyline clip-path="url(#clip040)" style="stroke:#009af9; stroke-linecap:round; stroke-linejoin:round; stroke-width:4; stroke-opacity:1; fill:none" points="1895.46,144.949 2035.54,144.949 "/>
<path clip-path="url(#clip040)" d="M1965.5 166.566 L1950.21 160.232 L1943.88 144.949 L1950.21 129.665 L1965.5 123.331 L1980.78 129.665 L1987.12 144.949 L1980.78 160.232 Z" fill="#009af9" fill-rule="evenodd" fill-opacity="1" stroke="#000000" stroke-opacity="1" stroke-width="4.55111"/>
<path clip-path="url(#clip040)" d="M2074.9 130.84 Q2069.81 130.84 2066.8 134.636 Q2063.81 138.432 2063.81 144.983 Q2063.81 151.511 2066.8 155.307 Q2069.81 159.104 2074.9 159.104 Q2080 159.104 2082.96 155.307 Q2085.94 151.511 2085.94 144.983 Q2085.94 138.432 2082.96 134.636 Q2080 130.84 2074.9 130.84 M2081.45 161.604 L2087.61 168.34 L2081.96 168.34 L2076.85 162.807 Q2076.08 162.854 2075.67 162.877 Q2075.27 162.9 2074.9 162.9 Q2067.61 162.9 2063.24 158.039 Q2058.88 153.155 2058.88 144.983 Q2058.88 136.789 2063.24 131.928 Q2067.61 127.044 2074.9 127.044 Q2082.17 127.044 2086.52 131.928 Q2090.87 136.789 2090.87 144.983 Q2090.87 151.002 2088.44 155.284 Q2086.04 159.567 2081.45 161.604 Z" fill="#000000" fill-rule="nonzero" fill-opacity="1" /><path clip-path="url(#clip040)" d="M2093.4 127.669 L2122.63 127.669 L2122.63 131.604 L2110.37 131.604 L2110.37 162.229 L2105.67 162.229 L2105.67 131.604 L2093.4 131.604 L2093.4 127.669 Z" fill="#000000" fill-rule="nonzero" fill-opacity="1" /><path clip-path="url(#clip040)" d="M2121.52 127.669 L2150.76 127.669 L2150.76 131.604 L2138.49 131.604 L2138.49 162.229 L2133.79 162.229 L2133.79 131.604 L2121.52 131.604 L2121.52 127.669 Z" fill="#000000" fill-rule="nonzero" fill-opacity="1" /><path clip-path="url(#clip040)" d="M2174.79 170.099 L2174.79 173.409 L2150.16 173.409 L2150.16 170.099 L2174.79 170.099 Z" fill="#000000" fill-rule="nonzero" fill-opacity="1" /><path clip-path="url(#clip040)" d="M2199.69 128.803 L2199.69 133.363 Q2197.03 132.09 2194.67 131.465 Q2192.31 130.84 2190.11 130.84 Q2186.29 130.84 2184.21 132.321 Q2182.15 133.803 2182.15 136.534 Q2182.15 138.826 2183.51 140.007 Q2184.9 141.164 2188.74 141.882 L2191.57 142.46 Q2196.8 143.456 2199.28 145.979 Q2201.78 148.479 2201.78 152.692 Q2201.78 157.715 2198.4 160.307 Q2195.04 162.9 2188.54 162.9 Q2186.08 162.9 2183.31 162.344 Q2180.55 161.789 2177.59 160.701 L2177.59 155.886 Q2180.43 157.483 2183.17 158.293 Q2185.9 159.104 2188.54 159.104 Q2192.54 159.104 2194.72 157.53 Q2196.89 155.956 2196.89 153.039 Q2196.89 150.493 2195.32 149.057 Q2193.77 147.622 2190.2 146.905 L2187.36 146.349 Q2182.12 145.307 2179.79 143.085 Q2177.45 140.863 2177.45 136.905 Q2177.45 132.321 2180.67 129.682 Q2183.91 127.044 2189.58 127.044 Q2192.01 127.044 2194.53 127.483 Q2197.05 127.923 2199.69 128.803 Z" fill="#000000" fill-rule="nonzero" fill-opacity="1" /><path clip-path="url(#clip040)" d="M2231.06 148.201 L2231.06 150.284 L2211.48 150.284 Q2211.75 154.682 2214.12 156.997 Q2216.5 159.289 2220.74 159.289 Q2223.19 159.289 2225.48 158.687 Q2227.8 158.085 2230.06 156.881 L2230.06 160.909 Q2227.77 161.881 2225.36 162.391 Q2222.96 162.9 2220.48 162.9 Q2214.28 162.9 2210.64 159.289 Q2207.03 155.678 2207.03 149.52 Q2207.03 143.155 2210.46 139.428 Q2213.91 135.678 2219.74 135.678 Q2224.97 135.678 2228 139.057 Q2231.06 142.414 2231.06 148.201 M2226.8 146.951 Q2226.75 143.456 2224.83 141.372 Q2222.93 139.289 2219.79 139.289 Q2216.22 139.289 2214.07 141.303 Q2211.94 143.317 2211.62 146.974 L2226.8 146.951 Z" fill="#000000" fill-rule="nonzero" fill-opacity="1" /><path clip-path="url(#clip040)" d="M2240.6 149.289 Q2240.6 153.988 2242.52 156.673 Q2244.46 159.335 2247.84 159.335 Q2251.22 159.335 2253.17 156.673 Q2255.11 153.988 2255.11 149.289 Q2255.11 144.59 2253.17 141.928 Q2251.22 139.243 2247.84 139.243 Q2244.46 139.243 2242.52 141.928 Q2240.6 144.59 2240.6 149.289 M2255.11 158.34 Q2253.77 160.655 2251.71 161.789 Q2249.67 162.9 2246.8 162.9 Q2242.1 162.9 2239.14 159.15 Q2236.2 155.4 2236.2 149.289 Q2236.2 143.178 2239.14 139.428 Q2242.1 135.678 2246.8 135.678 Q2249.67 135.678 2251.71 136.812 Q2253.77 137.923 2255.11 140.238 L2255.11 136.303 L2259.37 136.303 L2259.37 172.09 L2255.11 172.09 L2255.11 158.34 Z" fill="#000000" fill-rule="nonzero" fill-opacity="1" /><polyline clip-path="url(#clip040)" style="stroke:#e26f46; stroke-linecap:round; stroke-linejoin:round; stroke-width:4; stroke-opacity:1; fill:none" points="1895.46,196.789 2035.54,196.789 "/>
<path clip-path="url(#clip040)" d="M1965.5 218.406 L1950.21 212.072 L1943.88 196.789 L1950.21 181.505 L1965.5 175.171 L1980.78 181.505 L1987.12 196.789 L1980.78 212.072 Z" fill="#e26f46" fill-rule="evenodd" fill-opacity="1" stroke="#000000" stroke-opacity="1" stroke-width="4.55111"/>
<path clip-path="url(#clip040)" d="M2086.75 182.171 L2086.75 187.101 Q2084.39 184.902 2081.71 183.814 Q2079.05 182.726 2076.04 182.726 Q2070.11 182.726 2066.96 186.36 Q2063.81 189.972 2063.81 196.823 Q2063.81 203.652 2066.96 207.286 Q2070.11 210.897 2076.04 210.897 Q2079.05 210.897 2081.71 209.809 Q2084.39 208.721 2086.75 206.522 L2086.75 211.407 Q2084.3 213.073 2081.55 213.907 Q2078.81 214.74 2075.76 214.74 Q2067.91 214.74 2063.4 209.948 Q2058.88 205.133 2058.88 196.823 Q2058.88 188.49 2063.4 183.698 Q2067.91 178.884 2075.76 178.884 Q2078.86 178.884 2081.59 179.717 Q2084.35 180.527 2086.75 182.171 Z" fill="#000000" fill-rule="nonzero" fill-opacity="1" /><path clip-path="url(#clip040)" d="M2089.19 179.509 L2118.42 179.509 L2118.42 183.444 L2106.15 183.444 L2106.15 214.069 L2101.45 214.069 L2101.45 183.444 L2089.19 183.444 L2089.19 179.509 Z" fill="#000000" fill-rule="nonzero" fill-opacity="1" /><path clip-path="url(#clip040)" d="M2117.31 179.509 L2146.55 179.509 L2146.55 183.444 L2134.28 183.444 L2134.28 214.069 L2129.58 214.069 L2129.58 183.444 L2117.31 183.444 L2117.31 179.509 Z" fill="#000000" fill-rule="nonzero" fill-opacity="1" /><path clip-path="url(#clip040)" d="M2151.06 179.509 L2157.36 179.509 L2172.68 208.421 L2172.68 179.509 L2177.22 179.509 L2177.22 214.069 L2170.92 214.069 L2155.6 185.157 L2155.6 214.069 L2151.06 214.069 L2151.06 179.509 Z" fill="#000000" fill-rule="nonzero" fill-opacity="1" /><polyline clip-path="url(#clip040)" style="stroke:#3da44d; stroke-linecap:round; stroke-linejoin:round; stroke-width:4; stroke-opacity:1; fill:none" points="1895.46,248.629 2035.54,248.629 "/>
<path clip-path="url(#clip040)" d="M1965.5 270.246 L1950.21 263.912 L1943.88 248.629 L1950.21 233.345 L1965.5 227.011 L1980.78 233.345 L1987.12 248.629 L1980.78 263.912 Z" fill="#3da44d" fill-rule="evenodd" fill-opacity="1" stroke="#000000" stroke-opacity="1" stroke-width="4.55111"/>
<path clip-path="url(#clip040)" d="M2074.9 234.52 Q2069.81 234.52 2066.8 238.316 Q2063.81 242.112 2063.81 248.663 Q2063.81 255.191 2066.8 258.987 Q2069.81 262.784 2074.9 262.784 Q2080 262.784 2082.96 258.987 Q2085.94 255.191 2085.94 248.663 Q2085.94 242.112 2082.96 238.316 Q2080 234.52 2074.9 234.52 M2081.45 265.284 L2087.61 272.02 L2081.96 272.02 L2076.85 266.487 Q2076.08 266.534 2075.67 266.557 Q2075.27 266.58 2074.9 266.58 Q2067.61 266.58 2063.24 261.719 Q2058.88 256.835 2058.88 248.663 Q2058.88 240.469 2063.24 235.608 Q2067.61 230.724 2074.9 230.724 Q2082.17 230.724 2086.52 235.608 Q2090.87 240.469 2090.87 248.663 Q2090.87 254.682 2088.44 258.964 Q2086.04 263.247 2081.45 265.284 Z" fill="#000000" fill-rule="nonzero" fill-opacity="1" /><path clip-path="url(#clip040)" d="M2093.4 231.349 L2122.63 231.349 L2122.63 235.284 L2110.37 235.284 L2110.37 265.909 L2105.67 265.909 L2105.67 235.284 L2093.4 235.284 L2093.4 231.349 Z" fill="#000000" fill-rule="nonzero" fill-opacity="1" /><path clip-path="url(#clip040)" d="M2121.52 231.349 L2150.76 231.349 L2150.76 235.284 L2138.49 235.284 L2138.49 265.909 L2133.79 265.909 L2133.79 235.284 L2121.52 235.284 L2121.52 231.349 Z" fill="#000000" fill-rule="nonzero" fill-opacity="1" /><path clip-path="url(#clip040)" d="M2174.79 273.779 L2174.79 277.089 L2150.16 277.089 L2150.16 273.779 L2174.79 273.779 Z" fill="#000000" fill-rule="nonzero" fill-opacity="1" /><path clip-path="url(#clip040)" d="M2178.98 231.349 L2183.65 231.349 L2183.65 265.909 L2178.98 265.909 L2178.98 231.349 Z" fill="#000000" fill-rule="nonzero" fill-opacity="1" /><path clip-path="url(#clip040)" d="M2214.32 250.261 L2214.32 265.909 L2210.06 265.909 L2210.06 250.399 Q2210.06 246.719 2208.63 244.89 Q2207.19 243.062 2204.32 243.062 Q2200.87 243.062 2198.88 245.261 Q2196.89 247.46 2196.89 251.256 L2196.89 265.909 L2192.61 265.909 L2192.61 239.983 L2196.89 239.983 L2196.89 244.011 Q2198.42 241.673 2200.48 240.515 Q2202.56 239.358 2205.27 239.358 Q2209.74 239.358 2212.03 242.136 Q2214.32 244.89 2214.32 250.261 Z" fill="#000000" fill-rule="nonzero" fill-opacity="1" /><path clip-path="url(#clip040)" d="M2227.03 232.622 L2227.03 239.983 L2235.8 239.983 L2235.8 243.293 L2227.03 243.293 L2227.03 257.367 Q2227.03 260.538 2227.89 261.441 Q2228.77 262.344 2231.43 262.344 L2235.8 262.344 L2235.8 265.909 L2231.43 265.909 Q2226.5 265.909 2224.62 264.08 Q2222.75 262.228 2222.75 257.367 L2222.75 243.293 L2219.62 243.293 L2219.62 239.983 L2222.75 239.983 L2222.75 232.622 L2227.03 232.622 Z" fill="#000000" fill-rule="nonzero" fill-opacity="1" /></svg>
