<?xml version="1.0" encoding="utf-8"?>
<svg xmlns="http://www.w3.org/2000/svg" xmlns:xlink="http://www.w3.org/1999/xlink" width="600" height="400" viewBox="0 0 2400 1600">
<defs>
  <clipPath id="clip830">
    <rect x="0" y="0" width="2400" height="1600"/>
  </clipPath>
</defs>
<path clip-path="url(#clip830)" d="M0 1600 L2400 1600 L2400 8.88178e-14 L0 8.88178e-14  Z" fill="#ffffff" fill-rule="evenodd" fill-opacity="1"/>
<defs>
  <clipPath id="clip831">
    <rect x="480" y="0" width="1681" height="1600"/>
  </clipPath>
</defs>
<path clip-path="url(#clip830)" d="M276.876 1423.18 L2352.76 1423.18 L2352.76 47.2441 L276.876 47.2441  Z" fill="#ffffff" fill-rule="evenodd" fill-opacity="1"/>
<defs>
  <clipPath id="clip832">
    <rect x="276" y="47" width="2077" height="1377"/>
  </clipPath>
</defs>
<polyline clip-path="url(#clip832)" style="stroke:#000000; stroke-linecap:round; stroke-linejoin:round; stroke-width:2; stroke-opacity:0.1; fill:none" points="480.692,1423.18 480.692,47.2441 "/>
<polyline clip-path="url(#clip832)" style="stroke:#000000; stroke-linecap:round; stroke-linejoin:round; stroke-width:2; stroke-opacity:0.1; fill:none" points="843.354,1423.18 843.354,47.2441 "/>
<polyline clip-path="url(#clip832)" style="stroke:#000000; stroke-linecap:round; stroke-linejoin:round; stroke-width:2; stroke-opacity:0.1; fill:none" points="1206.02,1423.18 1206.02,47.2441 "/>
<polyline clip-path="url(#clip832)" style="stroke:#000000; stroke-linecap:round; stroke-linejoin:round; stroke-width:2; stroke-opacity:0.1; fill:none" points="1568.68,1423.18 1568.68,47.2441 "/>
<polyline clip-path="url(#clip832)" style="stroke:#000000; stroke-linecap:round; stroke-linejoin:round; stroke-width:2; stroke-opacity:0.1; fill:none" points="1931.34,1423.18 1931.34,47.2441 "/>
<polyline clip-path="url(#clip832)" style="stroke:#000000; stroke-linecap:round; stroke-linejoin:round; stroke-width:2; stroke-opacity:0.1; fill:none" points="2294,1423.18 2294,47.2441 "/>
<polyline clip-path="url(#clip832)" style="stroke:#000000; stroke-linecap:round; stroke-linejoin:round; stroke-width:2; stroke-opacity:0.1; fill:none" points="276.876,1183.18 2352.76,1183.18 "/>
<polyline clip-path="url(#clip832)" style="stroke:#000000; stroke-linecap:round; stroke-linejoin:round; stroke-width:2; stroke-opacity:0.1; fill:none" points="276.876,630.552 2352.76,630.552 "/>
<polyline clip-path="url(#clip832)" style="stroke:#000000; stroke-linecap:round; stroke-linejoin:round; stroke-width:2; stroke-opacity:0.1; fill:none" points="276.876,77.9274 2352.76,77.9274 "/>
<polyline clip-path="url(#clip830)" style="stroke:#000000; stroke-linecap:round; stroke-linejoin:round; stroke-width:4; stroke-opacity:1; fill:none" points="276.876,1423.18 2352.76,1423.18 "/>
<polyline clip-path="url(#clip830)" style="stroke:#000000; stroke-linecap:round; stroke-linejoin:round; stroke-width:4; stroke-opacity:1; fill:none" points="480.692,1423.18 480.692,1404.28 "/>
<polyline clip-path="url(#clip830)" style="stroke:#000000; stroke-linecap:round; stroke-linejoin:round; stroke-width:4; stroke-opacity:1; fill:none" points="843.354,1423.18 843.354,1404.28 "/>
<polyline clip-path="url(#clip830)" style="stroke:#000000; stroke-linecap:round; stroke-linejoin:round; stroke-width:4; stroke-opacity:1; fill:none" points="1206.02,1423.18 1206.02,1404.28 "/>
<polyline clip-path="url(#clip830)" style="stroke:#000000; stroke-linecap:round; stroke-linejoin:round; stroke-width:4; stroke-opacity:1; fill:none" points="1568.68,1423.18 1568.68,1404.28 "/>
<polyline clip-path="url(#clip830)" style="stroke:#000000; stroke-linecap:round; stroke-linejoin:round; stroke-width:4; stroke-opacity:1; fill:none" points="1931.34,1423.18 1931.34,1404.28 "/>
<polyline clip-path="url(#clip830)" style="stroke:#000000; stroke-linecap:round; stroke-linejoin:round; stroke-width:4; stroke-opacity:1; fill:none" points="2294,1423.18 2294,1404.28 "/>
<path clip-path="url(#clip830)" d="M470.97 1451.02 L489.326 1451.02 L489.326 1454.96 L475.252 1454.96 L475.252 1463.43 Q476.271 1463.08 477.289 1462.92 Q478.308 1462.73 479.326 1462.73 Q485.113 1462.73 488.493 1465.9 Q491.872 1469.08 491.872 1474.49 Q491.872 1480.07 488.4 1483.17 Q484.928 1486.25 478.609 1486.25 Q476.433 1486.25 474.164 1485.88 Q471.919 1485.51 469.511 1484.77 L469.511 1480.07 Q471.595 1481.2 473.817 1481.76 Q476.039 1482.32 478.516 1482.32 Q482.521 1482.32 484.859 1480.21 Q487.196 1478.1 487.196 1474.49 Q487.196 1470.88 484.859 1468.77 Q482.521 1466.67 478.516 1466.67 Q476.641 1466.67 474.766 1467.08 Q472.914 1467.5 470.97 1468.38 L470.97 1451.02 Z" fill="#000000" fill-rule="nonzero" fill-opacity="1" /><path clip-path="url(#clip830)" d="M818.042 1481.64 L825.681 1481.64 L825.681 1455.28 L817.371 1456.95 L817.371 1452.69 L825.635 1451.02 L830.31 1451.02 L830.31 1481.64 L837.949 1481.64 L837.949 1485.58 L818.042 1485.58 L818.042 1481.64 Z" fill="#000000" fill-rule="nonzero" fill-opacity="1" /><path clip-path="url(#clip830)" d="M857.394 1454.1 Q853.783 1454.1 851.954 1457.66 Q850.148 1461.2 850.148 1468.33 Q850.148 1475.44 851.954 1479.01 Q853.783 1482.55 857.394 1482.55 Q861.028 1482.55 862.833 1479.01 Q864.662 1475.44 864.662 1468.33 Q864.662 1461.2 862.833 1457.66 Q861.028 1454.1 857.394 1454.1 M857.394 1450.39 Q863.204 1450.39 866.259 1455 Q869.338 1459.58 869.338 1468.33 Q869.338 1477.06 866.259 1481.67 Q863.204 1486.25 857.394 1486.25 Q851.584 1486.25 848.505 1481.67 Q845.449 1477.06 845.449 1468.33 Q845.449 1459.58 848.505 1455 Q851.584 1450.39 857.394 1450.39 Z" fill="#000000" fill-rule="nonzero" fill-opacity="1" /><path clip-path="url(#clip830)" d="M1181.2 1481.64 L1188.84 1481.64 L1188.84 1455.28 L1180.53 1456.95 L1180.53 1452.69 L1188.79 1451.02 L1193.47 1451.02 L1193.47 1481.64 L1201.11 1481.64 L1201.11 1485.58 L1181.2 1485.58 L1181.2 1481.64 Z" fill="#000000" fill-rule="nonzero" fill-opacity="1" /><path clip-path="url(#clip830)" d="M1210.6 1451.02 L1228.96 1451.02 L1228.96 1454.96 L1214.88 1454.96 L1214.88 1463.43 Q1215.9 1463.08 1216.92 1462.92 Q1217.94 1462.73 1218.96 1462.73 Q1224.74 1462.73 1228.12 1465.9 Q1231.5 1469.08 1231.5 1474.49 Q1231.5 1480.07 1228.03 1483.17 Q1224.56 1486.25 1218.24 1486.25 Q1216.06 1486.25 1213.79 1485.88 Q1211.55 1485.51 1209.14 1484.77 L1209.14 1480.07 Q1211.23 1481.2 1213.45 1481.76 Q1215.67 1482.32 1218.15 1482.32 Q1222.15 1482.32 1224.49 1480.21 Q1226.83 1478.1 1226.83 1474.49 Q1226.83 1470.88 1224.49 1468.77 Q1222.15 1466.67 1218.15 1466.67 Q1216.27 1466.67 1214.4 1467.08 Q1212.54 1467.5 1210.6 1468.38 L1210.6 1451.02 Z" fill="#000000" fill-rule="nonzero" fill-opacity="1" /><path clip-path="url(#clip830)" d="M1547.45 1481.64 L1563.77 1481.64 L1563.77 1485.58 L1541.83 1485.58 L1541.83 1481.64 Q1544.49 1478.89 1549.07 1474.26 Q1553.68 1469.61 1554.86 1468.27 Q1557.11 1465.74 1557.99 1464.01 Q1558.89 1462.25 1558.89 1460.56 Q1558.89 1457.8 1556.94 1456.07 Q1555.02 1454.33 1551.92 1454.33 Q1549.72 1454.33 1547.27 1455.09 Q1544.84 1455.86 1542.06 1457.41 L1542.06 1452.69 Q1544.88 1451.55 1547.34 1450.97 Q1549.79 1450.39 1551.83 1450.39 Q1557.2 1450.39 1560.39 1453.08 Q1563.59 1455.77 1563.59 1460.26 Q1563.59 1462.39 1562.78 1464.31 Q1561.99 1466.2 1559.88 1468.8 Q1559.3 1469.47 1556.2 1472.69 Q1553.1 1475.88 1547.45 1481.64 Z" fill="#000000" fill-rule="nonzero" fill-opacity="1" /><path clip-path="url(#clip830)" d="M1583.59 1454.1 Q1579.98 1454.1 1578.15 1457.66 Q1576.34 1461.2 1576.34 1468.33 Q1576.34 1475.44 1578.15 1479.01 Q1579.98 1482.55 1583.59 1482.55 Q1587.22 1482.55 1589.03 1479.01 Q1590.86 1475.44 1590.86 1468.33 Q1590.86 1461.2 1589.03 1457.66 Q1587.22 1454.1 1583.59 1454.1 M1583.59 1450.39 Q1589.4 1450.39 1592.45 1455 Q1595.53 1459.58 1595.53 1468.33 Q1595.53 1477.06 1592.45 1481.67 Q1589.4 1486.25 1583.59 1486.25 Q1577.78 1486.25 1574.7 1481.67 Q1571.64 1477.06 1571.64 1468.33 Q1571.64 1459.58 1574.7 1455 Q1577.78 1450.39 1583.59 1450.39 Z" fill="#000000" fill-rule="nonzero" fill-opacity="1" /><path clip-path="url(#clip830)" d="M1910.61 1481.64 L1926.93 1481.64 L1926.93 1485.58 L1904.99 1485.58 L1904.99 1481.64 Q1907.65 1478.89 1912.23 1474.26 Q1916.84 1469.61 1918.02 1468.27 Q1920.27 1465.74 1921.15 1464.01 Q1922.05 1462.25 1922.05 1460.56 Q1922.05 1457.8 1920.1 1456.07 Q1918.18 1454.33 1915.08 1454.33 Q1912.88 1454.33 1910.43 1455.09 Q1908 1455.86 1905.22 1457.41 L1905.22 1452.69 Q1908.04 1451.55 1910.5 1450.97 Q1912.95 1450.39 1914.99 1450.39 Q1920.36 1450.39 1923.55 1453.08 Q1926.75 1455.77 1926.75 1460.26 Q1926.75 1462.39 1925.94 1464.31 Q1925.15 1466.2 1923.04 1468.8 Q1922.46 1469.47 1919.36 1472.69 Q1916.26 1475.88 1910.61 1481.64 Z" fill="#000000" fill-rule="nonzero" fill-opacity="1" /><path clip-path="url(#clip830)" d="M1936.79 1451.02 L1955.15 1451.02 L1955.15 1454.96 L1941.08 1454.96 L1941.08 1463.43 Q1942.09 1463.08 1943.11 1462.92 Q1944.13 1462.73 1945.15 1462.73 Q1950.94 1462.73 1954.32 1465.9 Q1957.7 1469.08 1957.7 1474.49 Q1957.7 1480.07 1954.22 1483.17 Q1950.75 1486.25 1944.43 1486.25 Q1942.26 1486.25 1939.99 1485.88 Q1937.74 1485.51 1935.34 1484.77 L1935.34 1480.07 Q1937.42 1481.2 1939.64 1481.76 Q1941.86 1482.32 1944.34 1482.32 Q1948.34 1482.32 1950.68 1480.21 Q1953.02 1478.1 1953.02 1474.49 Q1953.02 1470.88 1950.68 1468.77 Q1948.34 1466.67 1944.34 1466.67 Q1942.46 1466.67 1940.59 1467.08 Q1938.74 1467.5 1936.79 1468.38 L1936.79 1451.02 Z" fill="#000000" fill-rule="nonzero" fill-opacity="1" /><path clip-path="url(#clip830)" d="M2282.85 1466.95 Q2286.2 1467.66 2288.08 1469.93 Q2289.98 1472.2 2289.98 1475.53 Q2289.98 1480.65 2286.46 1483.45 Q2282.94 1486.25 2276.46 1486.25 Q2274.28 1486.25 2271.97 1485.81 Q2269.68 1485.39 2267.22 1484.54 L2267.22 1480.02 Q2269.17 1481.16 2271.48 1481.74 Q2273.8 1482.32 2276.32 1482.32 Q2280.72 1482.32 2283.01 1480.58 Q2285.32 1478.84 2285.32 1475.53 Q2285.32 1472.48 2283.17 1470.77 Q2281.04 1469.03 2277.22 1469.03 L2273.19 1469.03 L2273.19 1465.19 L2277.41 1465.19 Q2280.86 1465.19 2282.69 1463.82 Q2284.51 1462.43 2284.51 1459.84 Q2284.51 1457.18 2282.62 1455.77 Q2280.74 1454.33 2277.22 1454.33 Q2275.3 1454.33 2273.1 1454.75 Q2270.9 1455.16 2268.26 1456.04 L2268.26 1451.88 Q2270.93 1451.14 2273.24 1450.77 Q2275.58 1450.39 2277.64 1450.39 Q2282.96 1450.39 2286.06 1452.83 Q2289.17 1455.23 2289.17 1459.35 Q2289.17 1462.22 2287.52 1464.21 Q2285.88 1466.18 2282.85 1466.95 Z" fill="#000000" fill-rule="nonzero" fill-opacity="1" /><path clip-path="url(#clip830)" d="M2308.84 1454.1 Q2305.23 1454.1 2303.4 1457.66 Q2301.6 1461.2 2301.6 1468.33 Q2301.6 1475.44 2303.4 1479.01 Q2305.23 1482.55 2308.84 1482.55 Q2312.48 1482.55 2314.28 1479.01 Q2316.11 1475.44 2316.11 1468.33 Q2316.11 1461.2 2314.28 1457.66 Q2312.48 1454.1 2308.84 1454.1 M2308.84 1450.39 Q2314.65 1450.39 2317.71 1455 Q2320.79 1459.58 2320.79 1468.33 Q2320.79 1477.06 2317.71 1481.67 Q2314.65 1486.25 2308.84 1486.25 Q2303.03 1486.25 2299.95 1481.67 Q2296.9 1477.06 2296.9 1468.33 Q2296.9 1459.58 2299.95 1455 Q2303.03 1450.39 2308.84 1450.39 Z" fill="#000000" fill-rule="nonzero" fill-opacity="1" /><path clip-path="url(#clip830)" d="M981.873 1520.52 L991.454 1520.52 L1003.58 1552.86 L1015.77 1520.52 L1025.35 1520.52 L1025.35 1568.04 L1019.08 1568.04 L1019.08 1526.32 L1006.83 1558.91 L1000.37 1558.91 L988.112 1526.32 L988.112 1568.04 L981.873 1568.04 L981.873 1520.52 Z" fill="#000000" fill-rule="nonzero" fill-opacity="1" /><path clip-path="url(#clip830)" d="M1054.06 1550.12 Q1046.96 1550.12 1044.23 1551.75 Q1041.49 1553.37 1041.49 1557.29 Q1041.49 1560.4 1043.53 1562.25 Q1045.59 1564.07 1049.13 1564.07 Q1054 1564.07 1056.93 1560.63 Q1059.89 1557.16 1059.89 1551.43 L1059.89 1550.12 L1054.06 1550.12 M1065.74 1547.71 L1065.74 1568.04 L1059.89 1568.04 L1059.89 1562.63 Q1057.88 1565.88 1054.89 1567.44 Q1051.9 1568.97 1047.57 1568.97 Q1042.09 1568.97 1038.85 1565.91 Q1035.63 1562.82 1035.63 1557.67 Q1035.63 1551.65 1039.64 1548.6 Q1043.68 1545.54 1051.67 1545.54 L1059.89 1545.54 L1059.89 1544.97 Q1059.89 1540.93 1057.21 1538.73 Q1054.57 1536.5 1049.76 1536.5 Q1046.71 1536.5 1043.81 1537.23 Q1040.92 1537.97 1038.24 1539.43 L1038.24 1534.02 Q1041.46 1532.78 1044.48 1532.17 Q1047.5 1531.54 1050.37 1531.54 Q1058.1 1531.54 1061.92 1535.55 Q1065.74 1539.56 1065.74 1547.71 Z" fill="#000000" fill-rule="nonzero" fill-opacity="1" /><path clip-path="url(#clip830)" d="M1107.44 1532.4 L1094.55 1549.74 L1108.11 1568.04 L1101.2 1568.04 L1090.82 1554.04 L1080.45 1568.04 L1073.54 1568.04 L1087.38 1549.39 L1074.72 1532.4 L1081.62 1532.4 L1091.08 1545.1 L1100.53 1532.4 L1107.44 1532.4 Z" fill="#000000" fill-rule="nonzero" fill-opacity="1" /><path clip-path="url(#clip830)" d="M1162.69 1550.25 Q1162.69 1543.79 1160.02 1540.13 Q1157.38 1536.44 1152.73 1536.44 Q1148.08 1536.44 1145.41 1540.13 Q1142.77 1543.79 1142.77 1550.25 Q1142.77 1556.71 1145.41 1560.4 Q1148.08 1564.07 1152.73 1564.07 Q1157.38 1564.07 1160.02 1560.4 Q1162.69 1556.71 1162.69 1550.25 M1142.77 1537.81 Q1144.61 1534.62 1147.41 1533.1 Q1150.25 1531.54 1154.16 1531.54 Q1160.65 1531.54 1164.7 1536.69 Q1168.77 1541.85 1168.77 1550.25 Q1168.77 1558.65 1164.7 1563.81 Q1160.65 1568.97 1154.16 1568.97 Q1150.25 1568.97 1147.41 1567.44 Q1144.61 1565.88 1142.77 1562.7 L1142.77 1568.04 L1136.88 1568.04 L1136.88 1518.52 L1142.77 1518.52 L1142.77 1537.81 Z" fill="#000000" fill-rule="nonzero" fill-opacity="1" /><path clip-path="url(#clip830)" d="M1192.29 1536.5 Q1187.58 1536.5 1184.84 1540.19 Q1182.11 1543.85 1182.11 1550.25 Q1182.11 1556.65 1184.81 1560.34 Q1187.55 1564 1192.29 1564 Q1196.97 1564 1199.71 1560.31 Q1202.45 1556.62 1202.45 1550.25 Q1202.45 1543.92 1199.71 1540.23 Q1196.97 1536.5 1192.29 1536.5 M1192.29 1531.54 Q1199.93 1531.54 1204.29 1536.5 Q1208.65 1541.47 1208.65 1550.25 Q1208.65 1559 1204.29 1564 Q1199.93 1568.97 1192.29 1568.97 Q1184.62 1568.97 1180.26 1564 Q1175.93 1559 1175.93 1550.25 Q1175.93 1541.47 1180.26 1536.5 Q1184.62 1531.54 1192.29 1531.54 Z" fill="#000000" fill-rule="nonzero" fill-opacity="1" /><path clip-path="url(#clip830)" d="M1247.99 1546.53 L1247.99 1568.04 L1242.14 1568.04 L1242.14 1546.72 Q1242.14 1541.66 1240.16 1539.14 Q1238.19 1536.63 1234.24 1536.63 Q1229.5 1536.63 1226.76 1539.65 Q1224.02 1542.68 1224.02 1547.9 L1224.02 1568.04 L1218.14 1568.04 L1218.14 1532.4 L1224.02 1532.4 L1224.02 1537.93 Q1226.13 1534.72 1228.96 1533.13 Q1231.82 1531.54 1235.55 1531.54 Q1241.69 1531.54 1244.84 1535.36 Q1247.99 1539.14 1247.99 1546.53 Z" fill="#000000" fill-rule="nonzero" fill-opacity="1" /><path clip-path="url(#clip830)" d="M1283.13 1537.81 L1283.13 1518.52 L1288.99 1518.52 L1288.99 1568.04 L1283.13 1568.04 L1283.13 1562.7 Q1281.28 1565.88 1278.45 1567.44 Q1275.65 1568.97 1271.7 1568.97 Q1265.24 1568.97 1261.17 1563.81 Q1257.13 1558.65 1257.13 1550.25 Q1257.13 1541.85 1261.17 1536.69 Q1265.24 1531.54 1271.7 1531.54 Q1275.65 1531.54 1278.45 1533.1 Q1281.28 1534.62 1283.13 1537.81 M1263.17 1550.25 Q1263.17 1556.71 1265.82 1560.4 Q1268.49 1564.07 1273.14 1564.07 Q1277.78 1564.07 1280.46 1560.4 Q1283.13 1556.71 1283.13 1550.25 Q1283.13 1543.79 1280.46 1540.13 Q1277.78 1536.44 1273.14 1536.44 Q1268.49 1536.44 1265.82 1540.13 Q1263.17 1543.79 1263.17 1550.25 Z" fill="#000000" fill-rule="nonzero" fill-opacity="1" /><path clip-path="url(#clip830)" d="M1345.23 1537.81 L1345.23 1518.52 L1351.08 1518.52 L1351.08 1568.04 L1345.23 1568.04 L1345.23 1562.7 Q1343.38 1565.88 1340.55 1567.44 Q1337.75 1568.97 1333.8 1568.97 Q1327.34 1568.97 1323.27 1563.81 Q1319.22 1558.65 1319.22 1550.25 Q1319.22 1541.85 1323.27 1536.69 Q1327.34 1531.54 1333.8 1531.54 Q1337.75 1531.54 1340.55 1533.1 Q1343.38 1534.62 1345.23 1537.81 M1325.27 1550.25 Q1325.27 1556.71 1327.91 1560.4 Q1330.59 1564.07 1335.23 1564.07 Q1339.88 1564.07 1342.55 1560.4 Q1345.23 1556.71 1345.23 1550.25 Q1345.23 1543.79 1342.55 1540.13 Q1339.88 1536.44 1335.23 1536.44 Q1330.59 1536.44 1327.91 1540.13 Q1325.27 1543.79 1325.27 1550.25 Z" fill="#000000" fill-rule="nonzero" fill-opacity="1" /><path clip-path="url(#clip830)" d="M1363.15 1532.4 L1369 1532.4 L1369 1568.04 L1363.15 1568.04 L1363.15 1532.4 M1363.15 1518.52 L1369 1518.52 L1369 1525.93 L1363.15 1525.93 L1363.15 1518.52 Z" fill="#000000" fill-rule="nonzero" fill-opacity="1" /><path clip-path="url(#clip830)" d="M1409.01 1539.24 Q1411.21 1535.29 1414.26 1533.41 Q1417.32 1531.54 1421.46 1531.54 Q1427.03 1531.54 1430.05 1535.45 Q1433.07 1539.33 1433.07 1546.53 L1433.07 1568.04 L1427.19 1568.04 L1427.19 1546.72 Q1427.19 1541.59 1425.37 1539.11 Q1423.56 1536.63 1419.83 1536.63 Q1415.28 1536.63 1412.64 1539.65 Q1410 1542.68 1410 1547.9 L1410 1568.04 L1404.11 1568.04 L1404.11 1546.72 Q1404.11 1541.56 1402.3 1539.11 Q1400.48 1536.63 1396.69 1536.63 Q1392.21 1536.63 1389.57 1539.68 Q1386.92 1542.71 1386.92 1547.9 L1386.92 1568.04 L1381.03 1568.04 L1381.03 1532.4 L1386.92 1532.4 L1386.92 1537.93 Q1388.93 1534.66 1391.73 1533.1 Q1394.53 1531.54 1398.38 1531.54 Q1402.26 1531.54 1404.97 1533.51 Q1407.71 1535.48 1409.01 1539.24 Z" fill="#000000" fill-rule="nonzero" fill-opacity="1" /><path clip-path="url(#clip830)" d="M1475.25 1548.76 L1475.25 1551.62 L1448.32 1551.62 Q1448.7 1557.67 1451.95 1560.85 Q1455.23 1564 1461.05 1564 Q1464.43 1564 1467.58 1563.17 Q1470.76 1562.35 1473.88 1560.69 L1473.88 1566.23 Q1470.73 1567.57 1467.42 1568.27 Q1464.11 1568.97 1460.7 1568.97 Q1452.17 1568.97 1447.17 1564 Q1442.21 1559.04 1442.21 1550.57 Q1442.21 1541.82 1446.92 1536.69 Q1451.66 1531.54 1459.68 1531.54 Q1466.88 1531.54 1471.05 1536.18 Q1475.25 1540.8 1475.25 1548.76 M1469.39 1547.04 Q1469.33 1542.23 1466.69 1539.37 Q1464.08 1536.5 1459.75 1536.5 Q1454.85 1536.5 1451.89 1539.27 Q1448.96 1542.04 1448.51 1547.07 L1469.39 1547.04 Z" fill="#000000" fill-rule="nonzero" fill-opacity="1" /><path clip-path="url(#clip830)" d="M1514.49 1546.53 L1514.49 1568.04 L1508.64 1568.04 L1508.64 1546.72 Q1508.64 1541.66 1506.66 1539.14 Q1504.69 1536.63 1500.74 1536.63 Q1496 1536.63 1493.26 1539.65 Q1490.53 1542.68 1490.53 1547.9 L1490.53 1568.04 L1484.64 1568.04 L1484.64 1532.4 L1490.53 1532.4 L1490.53 1537.93 Q1492.63 1534.72 1495.46 1533.13 Q1498.32 1531.54 1502.05 1531.54 Q1508.19 1531.54 1511.34 1535.36 Q1514.49 1539.14 1514.49 1546.53 Z" fill="#000000" fill-rule="nonzero" fill-opacity="1" /><path clip-path="url(#clip830)" d="M1548.9 1533.45 L1548.9 1538.98 Q1546.42 1537.71 1543.74 1537.07 Q1541.07 1536.44 1538.2 1536.44 Q1533.84 1536.44 1531.65 1537.77 Q1529.48 1539.11 1529.48 1541.79 Q1529.48 1543.82 1531.04 1545 Q1532.6 1546.15 1537.31 1547.2 L1539.32 1547.64 Q1545.56 1548.98 1548.17 1551.43 Q1550.81 1553.85 1550.81 1558.21 Q1550.81 1563.17 1546.86 1566.07 Q1542.95 1568.97 1536.07 1568.97 Q1533.21 1568.97 1530.09 1568.39 Q1527 1567.85 1523.56 1566.74 L1523.56 1560.69 Q1526.81 1562.38 1529.96 1563.24 Q1533.11 1564.07 1536.2 1564.07 Q1540.34 1564.07 1542.56 1562.66 Q1544.79 1561.23 1544.79 1558.65 Q1544.79 1556.27 1543.17 1554.99 Q1541.58 1553.72 1536.14 1552.54 L1534.1 1552.07 Q1528.66 1550.92 1526.24 1548.56 Q1523.82 1546.18 1523.82 1542.04 Q1523.82 1537.01 1527.38 1534.27 Q1530.95 1531.54 1537.5 1531.54 Q1540.75 1531.54 1543.62 1532.01 Q1546.48 1532.49 1548.9 1533.45 Z" fill="#000000" fill-rule="nonzero" fill-opacity="1" /><path clip-path="url(#clip830)" d="M1560.13 1532.4 L1565.99 1532.4 L1565.99 1568.04 L1560.13 1568.04 L1560.13 1532.4 M1560.13 1518.52 L1565.99 1518.52 L1565.99 1525.93 L1560.13 1525.93 L1560.13 1518.52 Z" fill="#000000" fill-rule="nonzero" fill-opacity="1" /><path clip-path="url(#clip830)" d="M1592.06 1536.5 Q1587.35 1536.5 1584.61 1540.19 Q1581.87 1543.85 1581.87 1550.25 Q1581.87 1556.65 1584.58 1560.34 Q1587.32 1564 1592.06 1564 Q1596.74 1564 1599.47 1560.31 Q1602.21 1556.62 1602.21 1550.25 Q1602.21 1543.92 1599.47 1540.23 Q1596.74 1536.5 1592.06 1536.5 M1592.06 1531.54 Q1599.7 1531.54 1604.06 1536.5 Q1608.42 1541.47 1608.42 1550.25 Q1608.42 1559 1604.06 1564 Q1599.7 1568.97 1592.06 1568.97 Q1584.39 1568.97 1580.03 1564 Q1575.7 1559 1575.7 1550.25 Q1575.7 1541.47 1580.03 1536.5 Q1584.39 1531.54 1592.06 1531.54 Z" fill="#000000" fill-rule="nonzero" fill-opacity="1" /><path clip-path="url(#clip830)" d="M1647.76 1546.53 L1647.76 1568.04 L1641.9 1568.04 L1641.9 1546.72 Q1641.9 1541.66 1639.93 1539.14 Q1637.95 1536.63 1634.01 1536.63 Q1629.27 1536.63 1626.53 1539.65 Q1623.79 1542.68 1623.79 1547.9 L1623.79 1568.04 L1617.9 1568.04 L1617.9 1532.4 L1623.79 1532.4 L1623.79 1537.93 Q1625.89 1534.72 1628.72 1533.13 Q1631.59 1531.54 1635.31 1531.54 Q1641.46 1531.54 1644.61 1535.36 Q1647.76 1539.14 1647.76 1546.53 Z" fill="#000000" fill-rule="nonzero" fill-opacity="1" /><polyline clip-path="url(#clip830)" style="stroke:#000000; stroke-linecap:round; stroke-linejoin:round; stroke-width:4; stroke-opacity:1; fill:none" points="276.876,1423.18 276.876,47.2441 "/>
<polyline clip-path="url(#clip830)" style="stroke:#000000; stroke-linecap:round; stroke-linejoin:round; stroke-width:4; stroke-opacity:1; fill:none" points="276.876,1183.18 295.773,1183.18 "/>
<polyline clip-path="url(#clip830)" style="stroke:#000000; stroke-linecap:round; stroke-linejoin:round; stroke-width:4; stroke-opacity:1; fill:none" points="276.876,630.552 295.773,630.552 "/>
<polyline clip-path="url(#clip830)" style="stroke:#000000; stroke-linecap:round; stroke-linejoin:round; stroke-width:4; stroke-opacity:1; fill:none" points="276.876,77.9274 295.773,77.9274 "/>
<path clip-path="url(#clip830)" d="M114.931 1202.97 L122.57 1202.97 L122.57 1176.6 L114.26 1178.27 L114.26 1174.01 L122.524 1172.35 L127.2 1172.35 L127.2 1202.97 L134.839 1202.97 L134.839 1206.91 L114.931 1206.91 L114.931 1202.97 Z" fill="#000000" fill-rule="nonzero" fill-opacity="1" /><path clip-path="url(#clip830)" d="M154.283 1175.42 Q150.672 1175.42 148.843 1178.99 Q147.038 1182.53 147.038 1189.66 Q147.038 1196.77 148.843 1200.33 Q150.672 1203.87 154.283 1203.87 Q157.917 1203.87 159.723 1200.33 Q161.552 1196.77 161.552 1189.66 Q161.552 1182.53 159.723 1178.99 Q157.917 1175.42 154.283 1175.42 M154.283 1171.72 Q160.093 1171.72 163.149 1176.33 Q166.227 1180.91 166.227 1189.66 Q166.227 1198.39 163.149 1202.99 Q160.093 1207.58 154.283 1207.58 Q148.473 1207.58 145.394 1202.99 Q142.339 1198.39 142.339 1189.66 Q142.339 1180.91 145.394 1176.33 Q148.473 1171.72 154.283 1171.72 Z" fill="#000000" fill-rule="nonzero" fill-opacity="1" /><path clip-path="url(#clip830)" d="M166.227 1165.82 L190.339 1165.82 L190.339 1169.02 L166.227 1169.02 L166.227 1165.82 Z" fill="#000000" fill-rule="nonzero" fill-opacity="1" /><path clip-path="url(#clip830)" d="M199.197 1176.3 L205.404 1176.3 L205.404 1154.88 L198.652 1156.23 L198.652 1152.77 L205.366 1151.41 L209.166 1151.41 L209.166 1176.3 L215.372 1176.3 L215.372 1179.49 L199.197 1179.49 L199.197 1176.3 Z" fill="#000000" fill-rule="nonzero" fill-opacity="1" /><path clip-path="url(#clip830)" d="M231.171 1153.92 Q228.237 1153.92 226.751 1156.81 Q225.284 1159.69 225.284 1165.48 Q225.284 1171.26 226.751 1174.15 Q228.237 1177.03 231.171 1177.03 Q234.124 1177.03 235.591 1174.15 Q237.076 1171.26 237.076 1165.48 Q237.076 1159.69 235.591 1156.81 Q234.124 1153.92 231.171 1153.92 M231.171 1150.91 Q235.891 1150.91 238.374 1154.65 Q240.876 1158.37 240.876 1165.48 Q240.876 1172.57 238.374 1176.32 Q235.891 1180.04 231.171 1180.04 Q226.45 1180.04 223.949 1176.32 Q221.466 1172.57 221.466 1165.48 Q221.466 1158.37 223.949 1154.65 Q226.45 1150.91 231.171 1150.91 Z" fill="#000000" fill-rule="nonzero" fill-opacity="1" /><path clip-path="url(#clip830)" d="M140.247 650.345 L147.886 650.345 L147.886 623.979 L139.575 625.646 L139.575 621.387 L147.839 619.72 L152.515 619.72 L152.515 650.345 L160.154 650.345 L160.154 654.28 L140.247 654.28 L140.247 650.345 Z" fill="#000000" fill-rule="nonzero" fill-opacity="1" /><path clip-path="url(#clip830)" d="M179.598 622.799 Q175.987 622.799 174.159 626.364 Q172.353 629.905 172.353 637.035 Q172.353 644.141 174.159 647.706 Q175.987 651.248 179.598 651.248 Q183.233 651.248 185.038 647.706 Q186.867 644.141 186.867 637.035 Q186.867 629.905 185.038 626.364 Q183.233 622.799 179.598 622.799 M179.598 619.095 Q185.409 619.095 188.464 623.702 Q191.543 628.285 191.543 637.035 Q191.543 645.762 188.464 650.368 Q185.409 654.951 179.598 654.951 Q173.788 654.951 170.71 650.368 Q167.654 645.762 167.654 637.035 Q167.654 628.285 170.71 623.702 Q173.788 619.095 179.598 619.095 Z" fill="#000000" fill-rule="nonzero" fill-opacity="1" /><path clip-path="url(#clip830)" d="M191.543 613.196 L215.654 613.196 L215.654 616.394 L191.543 616.394 L191.543 613.196 Z" fill="#000000" fill-rule="nonzero" fill-opacity="1" /><path clip-path="url(#clip830)" d="M223.892 598.79 L238.807 598.79 L238.807 601.987 L227.372 601.987 L227.372 608.871 Q228.199 608.589 229.027 608.457 Q229.854 608.306 230.682 608.306 Q235.384 608.306 238.13 610.883 Q240.876 613.46 240.876 617.861 Q240.876 622.393 238.054 624.914 Q235.233 627.415 230.099 627.415 Q228.331 627.415 226.488 627.114 Q224.663 626.813 222.707 626.211 L222.707 622.393 Q224.4 623.315 226.205 623.766 Q228.011 624.218 230.023 624.218 Q233.277 624.218 235.177 622.506 Q237.076 620.795 237.076 617.861 Q237.076 614.927 235.177 613.215 Q233.277 611.504 230.023 611.504 Q228.5 611.504 226.977 611.842 Q225.472 612.181 223.892 612.896 L223.892 598.79 Z" fill="#000000" fill-rule="nonzero" fill-opacity="1" /><path clip-path="url(#clip830)" d="M170.17 97.7199 L177.809 97.7199 L177.809 71.3543 L169.499 73.0209 L169.499 68.7617 L177.762 67.095 L182.438 67.095 L182.438 97.7199 L190.077 97.7199 L190.077 101.655 L170.17 101.655 L170.17 97.7199 Z" fill="#000000" fill-rule="nonzero" fill-opacity="1" /><path clip-path="url(#clip830)" d="M209.522 70.1737 Q205.91 70.1737 204.082 73.7385 Q202.276 77.2802 202.276 84.4098 Q202.276 91.5162 204.082 95.081 Q205.91 98.6227 209.522 98.6227 Q213.156 98.6227 214.961 95.081 Q216.79 91.5162 216.79 84.4098 Q216.79 77.2802 214.961 73.7385 Q213.156 70.1737 209.522 70.1737 M209.522 66.4701 Q215.332 66.4701 218.387 71.0765 Q221.466 75.6598 221.466 84.4098 Q221.466 93.1366 218.387 97.743 Q215.332 102.326 209.522 102.326 Q203.711 102.326 200.633 97.743 Q197.577 93.1366 197.577 84.4098 Q197.577 75.6598 200.633 71.0765 Q203.711 66.4701 209.522 66.4701 Z" fill="#000000" fill-rule="nonzero" fill-opacity="1" /><path clip-path="url(#clip830)" d="M231.171 48.6661 Q228.237 48.6661 226.751 51.5625 Q225.284 54.4401 225.284 60.2329 Q225.284 66.0068 226.751 68.9032 Q228.237 71.7808 231.171 71.7808 Q234.124 71.7808 235.591 68.9032 Q237.076 66.0068 237.076 60.2329 Q237.076 54.4401 235.591 51.5625 Q234.124 48.6661 231.171 48.6661 M231.171 45.6568 Q235.891 45.6568 238.374 49.3996 Q240.876 53.1235 240.876 60.2329 Q240.876 67.3234 238.374 71.0661 Q235.891 74.7901 231.171 74.7901 Q226.45 74.7901 223.949 71.0661 Q221.466 67.3234 221.466 60.2329 Q221.466 53.1235 223.949 49.3996 Q226.45 45.6568 231.171 45.6568 Z" fill="#000000" fill-rule="nonzero" fill-opacity="1" /><path clip-path="url(#clip830)" d="M18.0438 984.429 L24.314 984.429 Q22.5634 988.09 21.704 991.336 Q20.8447 994.583 20.8447 997.606 Q20.8447 1002.86 22.8817 1005.72 Q24.9187 1008.56 28.6745 1008.56 Q31.8255 1008.56 33.4488 1006.68 Q35.0402 1004.77 36.0269 999.484 L36.8226 995.601 Q38.1912 988.408 41.6605 985.002 Q45.098 981.565 50.8908 981.565 Q57.7976 981.565 61.3624 986.212 Q64.9272 990.827 64.9272 999.771 Q64.9272 1003.14 64.1633 1006.96 Q63.3994 1010.75 61.9035 1014.83 L55.2831 1014.83 Q57.4793 1010.91 58.5933 1007.15 Q59.7073 1003.4 59.7073 999.771 Q59.7073 994.264 57.543 991.273 Q55.3786 988.281 51.3682 988.281 Q47.8671 988.281 45.8937 990.445 Q43.9204 992.577 42.9337 997.479 L42.1698 1001.39 Q40.7375 1008.59 37.682 1011.8 Q34.6264 1015.02 29.1837 1015.02 Q22.8817 1015.02 19.2532 1010.59 Q15.6248 1006.14 15.6248 998.338 Q15.6248 994.996 16.2295 991.527 Q16.8343 988.058 18.0438 984.429 Z" fill="#000000" fill-rule="nonzero" fill-opacity="1" /><path clip-path="url(#clip830)" d="M46.0847 955.593 Q46.0847 962.69 47.7079 965.428 Q49.3312 968.165 53.2461 968.165 Q56.3653 968.165 58.2114 966.128 Q60.0256 964.059 60.0256 960.526 Q60.0256 955.656 56.5881 952.728 Q53.1188 949.768 47.3897 949.768 L46.0847 949.768 L46.0847 955.593 M43.6657 943.912 L64.0042 943.912 L64.0042 949.768 L58.5933 949.768 Q61.8398 951.773 63.3994 954.765 Q64.9272 957.757 64.9272 962.086 Q64.9272 967.56 61.8716 970.807 Q58.7843 974.021 53.6281 974.021 Q47.6125 974.021 44.5569 970.011 Q41.5014 965.969 41.5014 957.98 L41.5014 949.768 L40.9285 949.768 Q36.8862 949.768 34.6901 952.442 Q32.4621 955.083 32.4621 959.89 Q32.4621 962.945 33.1941 965.842 Q33.9262 968.738 35.3903 971.412 L29.9795 971.412 Q28.7381 968.197 28.1334 965.173 Q27.4968 962.149 27.4968 959.285 Q27.4968 951.551 31.5072 947.731 Q35.5176 943.912 43.6657 943.912 Z" fill="#000000" fill-rule="nonzero" fill-opacity="1" /><path clip-path="url(#clip830)" d="M35.1993 904.094 Q31.2526 901.898 29.3747 898.842 Q27.4968 895.787 27.4968 891.649 Q27.4968 886.079 31.4117 883.056 Q35.2948 880.032 42.4881 880.032 L64.0042 880.032 L64.0042 885.92 L42.679 885.92 Q37.5546 885.92 35.072 887.734 Q32.5894 889.549 32.5894 893.272 Q32.5894 897.824 35.6131 900.466 Q38.6368 903.107 43.8567 903.107 L64.0042 903.107 L64.0042 908.996 L42.679 908.996 Q37.5228 908.996 35.072 910.81 Q32.5894 912.624 32.5894 916.412 Q32.5894 920.9 35.6449 923.541 Q38.6686 926.183 43.8567 926.183 L64.0042 926.183 L64.0042 932.071 L28.3562 932.071 L28.3562 926.183 L33.8944 926.183 Q30.616 924.178 29.0564 921.377 Q27.4968 918.576 27.4968 914.725 Q27.4968 910.842 29.4702 908.136 Q31.4436 905.399 35.1993 904.094 Z" fill="#000000" fill-rule="nonzero" fill-opacity="1" /><path clip-path="url(#clip830)" d="M58.657 862.685 L77.5631 862.685 L77.5631 868.574 L28.3562 868.574 L28.3562 862.685 L33.7671 862.685 Q30.5842 860.839 29.0564 858.038 Q27.4968 855.206 27.4968 851.291 Q27.4968 844.798 32.6531 840.755 Q37.8093 836.681 46.212 836.681 Q54.6147 836.681 59.771 840.755 Q64.9272 844.798 64.9272 851.291 Q64.9272 855.206 63.3994 858.038 Q61.8398 860.839 58.657 862.685 M46.212 842.761 Q39.7508 842.761 36.0905 845.434 Q32.3984 848.076 32.3984 852.723 Q32.3984 857.37 36.0905 860.043 Q39.7508 862.685 46.212 862.685 Q52.6732 862.685 56.3653 860.043 Q60.0256 857.37 60.0256 852.723 Q60.0256 848.076 56.3653 845.434 Q52.6732 842.761 46.212 842.761 Z" fill="#000000" fill-rule="nonzero" fill-opacity="1" /><path clip-path="url(#clip830)" d="M14.479 826.974 L14.479 821.117 L64.0042 821.117 L64.0042 826.974 L14.479 826.974 Z" fill="#000000" fill-rule="nonzero" fill-opacity="1" /><path clip-path="url(#clip830)" d="M44.7161 778.371 L47.5806 778.371 L47.5806 805.298 Q53.6281 804.916 56.8109 801.67 Q59.9619 798.392 59.9619 792.567 Q59.9619 789.193 59.1344 786.042 Q58.3069 782.859 56.6518 779.74 L62.1899 779.74 Q63.5267 782.891 64.227 786.201 Q64.9272 789.511 64.9272 792.917 Q64.9272 801.447 59.9619 806.444 Q54.9967 811.409 46.5303 811.409 Q37.7774 811.409 32.6531 806.699 Q27.4968 801.956 27.4968 793.936 Q27.4968 786.742 32.1438 782.573 Q36.7589 778.371 44.7161 778.371 M42.9973 784.228 Q38.1912 784.292 35.3266 786.933 Q32.4621 789.543 32.4621 793.872 Q32.4621 798.774 35.2312 801.734 Q38.0002 804.662 43.0292 805.107 L42.9973 784.228 Z" fill="#000000" fill-rule="nonzero" fill-opacity="1" /><path clip-path="url(#clip830)" d="M33.7671 745.302 L14.479 745.302 L14.479 739.445 L64.0042 739.445 L64.0042 745.302 L58.657 745.302 Q61.8398 747.148 63.3994 749.98 Q64.9272 752.781 64.9272 756.728 Q64.9272 763.189 59.771 767.263 Q54.6147 771.306 46.212 771.306 Q37.8093 771.306 32.6531 767.263 Q27.4968 763.189 27.4968 756.728 Q27.4968 752.781 29.0564 749.98 Q30.5842 747.148 33.7671 745.302 M46.212 765.258 Q52.6732 765.258 56.3653 762.616 Q60.0256 759.943 60.0256 755.296 Q60.0256 750.649 56.3653 747.975 Q52.6732 745.302 46.212 745.302 Q39.7508 745.302 36.0905 747.975 Q32.3984 750.649 32.3984 755.296 Q32.3984 759.943 36.0905 762.616 Q39.7508 765.258 46.212 765.258 Z" fill="#000000" fill-rule="nonzero" fill-opacity="1" /><path clip-path="url(#clip830)" d="M16.4842 706.407 L16.4842 699.978 L58.5933 699.978 L58.5933 676.838 L64.0042 676.838 L64.0042 706.407 L16.4842 706.407 Z" fill="#000000" fill-rule="nonzero" fill-opacity="1" /><path clip-path="url(#clip830)" d="M58.5933 668.404 L58.5933 657.9 L22.3406 657.9 L24.6323 669.327 L18.7758 669.327 L16.4842 657.964 L16.4842 651.535 L58.5933 651.535 L58.5933 641.031 L64.0042 641.031 L64.0042 668.404 L58.5933 668.404 Z" fill="#000000" fill-rule="nonzero" fill-opacity="1" /><path clip-path="url(#clip830)" d="M16.4842 607.898 L16.4842 577.852 L21.895 577.852 L21.895 601.468 L35.9632 601.468 L35.9632 578.838 L41.3741 578.838 L41.3741 601.468 L58.5933 601.468 L58.5933 577.279 L64.0042 577.279 L64.0042 607.898 L16.4842 607.898 Z" fill="#000000" fill-rule="nonzero" fill-opacity="1" /><path clip-path="url(#clip830)" d="M33.8307 546.31 Q33.2578 547.296 33.0032 548.474 Q32.7167 549.62 32.7167 551.02 Q32.7167 555.985 35.9632 558.659 Q39.1779 561.301 45.2253 561.301 L64.0042 561.301 L64.0042 567.189 L28.3562 567.189 L28.3562 561.301 L33.8944 561.301 Q30.6479 559.455 29.0883 556.495 Q27.4968 553.535 27.4968 549.302 Q27.4968 548.697 27.5923 547.965 Q27.656 547.233 27.8151 546.341 L33.8307 546.31 Z" fill="#000000" fill-rule="nonzero" fill-opacity="1" /><path clip-path="url(#clip830)" d="M33.8307 520.656 Q33.2578 521.643 33.0032 522.82 Q32.7167 523.966 32.7167 525.366 Q32.7167 530.332 35.9632 533.005 Q39.1779 535.647 45.2253 535.647 L64.0042 535.647 L64.0042 541.535 L28.3562 541.535 L28.3562 535.647 L33.8944 535.647 Q30.6479 533.801 29.0883 530.841 Q27.4968 527.881 27.4968 523.648 Q27.4968 523.043 27.5923 522.311 Q27.656 521.579 27.8151 520.688 L33.8307 520.656 Z" fill="#000000" fill-rule="nonzero" fill-opacity="1" /><path clip-path="url(#clip830)" d="M32.4621 502.132 Q32.4621 506.842 36.1542 509.579 Q39.8145 512.317 46.212 512.317 Q52.6095 512.317 56.3017 509.611 Q59.9619 506.874 59.9619 502.132 Q59.9619 497.453 56.2698 494.716 Q52.5777 491.978 46.212 491.978 Q39.8781 491.978 36.186 494.716 Q32.4621 497.453 32.4621 502.132 M27.4968 502.132 Q27.4968 494.493 32.4621 490.132 Q37.4273 485.772 46.212 485.772 Q54.9649 485.772 59.9619 490.132 Q64.9272 494.493 64.9272 502.132 Q64.9272 509.802 59.9619 514.163 Q54.9649 518.491 46.212 518.491 Q37.4273 518.491 32.4621 514.163 Q27.4968 509.802 27.4968 502.132 Z" fill="#000000" fill-rule="nonzero" fill-opacity="1" /><path clip-path="url(#clip830)" d="M33.8307 455.407 Q33.2578 456.394 33.0032 457.572 Q32.7167 458.718 32.7167 460.118 Q32.7167 465.083 35.9632 467.757 Q39.1779 470.399 45.2253 470.399 L64.0042 470.399 L64.0042 476.287 L28.3562 476.287 L28.3562 470.399 L33.8944 470.399 Q30.6479 468.553 29.0883 465.592 Q27.4968 462.632 27.4968 458.399 Q27.4968 457.794 27.5923 457.062 Q27.656 456.33 27.8151 455.439 L33.8307 455.407 Z" fill="#000000" fill-rule="nonzero" fill-opacity="1" /><polyline clip-path="url(#clip832)" style="stroke:#009af9; stroke-linecap:round; stroke-linejoin:round; stroke-width:4; stroke-opacity:1; fill:none" points="335.627,122.817 553.224,226.811 770.822,249.111 988.419,287.431 1206.02,318.552 1423.61,366.449 1641.21,385.604 1858.81,439.714 2076.41,537.953 2294,562.589 "/>
<path clip-path="url(#clip832)" d="M335.627 138.817 L324.315 134.129 L319.627 122.817 L324.315 111.505 L335.627 106.817 L346.939 111.505 L351.627 122.817 L346.939 134.129 Z" fill="#009af9" fill-rule="evenodd" fill-opacity="1" stroke="#000000" stroke-opacity="1" stroke-width="3.2"/>
<path clip-path="url(#clip832)" d="M553.224 242.811 L541.912 238.123 L537.224 226.811 L541.912 215.499 L553.224 210.811 L564.536 215.499 L569.224 226.811 L564.536 238.123 Z" fill="#009af9" fill-rule="evenodd" fill-opacity="1" stroke="#000000" stroke-opacity="1" stroke-width="3.2"/>
<path clip-path="url(#clip832)" d="M770.822 265.111 L759.51 260.423 L754.822 249.111 L759.51 237.799 L770.822 233.111 L782.134 237.799 L786.822 249.111 L782.134 260.423 Z" fill="#009af9" fill-rule="evenodd" fill-opacity="1" stroke="#000000" stroke-opacity="1" stroke-width="3.2"/>
<path clip-path="url(#clip832)" d="M988.419 303.431 L977.107 298.743 L972.419 287.431 L977.107 276.119 L988.419 271.431 L999.731 276.119 L1004.42 287.431 L999.731 298.743 Z" fill="#009af9" fill-rule="evenodd" fill-opacity="1" stroke="#000000" stroke-opacity="1" stroke-width="3.2"/>
<path clip-path="url(#clip832)" d="M1206.02 334.552 L1194.7 329.864 L1190.02 318.552 L1194.7 307.24 L1206.02 302.552 L1217.33 307.24 L1222.02 318.552 L1217.33 329.864 Z" fill="#009af9" fill-rule="evenodd" fill-opacity="1" stroke="#000000" stroke-opacity="1" stroke-width="3.2"/>
<path clip-path="url(#clip832)" d="M1423.61 382.449 L1412.3 377.761 L1407.61 366.449 L1412.3 355.137 L1423.61 350.449 L1434.93 355.137 L1439.61 366.449 L1434.93 377.761 Z" fill="#009af9" fill-rule="evenodd" fill-opacity="1" stroke="#000000" stroke-opacity="1" stroke-width="3.2"/>
<path clip-path="url(#clip832)" d="M1641.21 401.604 L1629.9 396.916 L1625.21 385.604 L1629.9 374.292 L1641.21 369.604 L1652.52 374.292 L1657.21 385.604 L1652.52 396.916 Z" fill="#009af9" fill-rule="evenodd" fill-opacity="1" stroke="#000000" stroke-opacity="1" stroke-width="3.2"/>
<path clip-path="url(#clip832)" d="M1858.81 455.714 L1847.5 451.026 L1842.81 439.714 L1847.5 428.402 L1858.81 423.714 L1870.12 428.402 L1874.81 439.714 L1870.12 451.026 Z" fill="#009af9" fill-rule="evenodd" fill-opacity="1" stroke="#000000" stroke-opacity="1" stroke-width="3.2"/>
<path clip-path="url(#clip832)" d="M2076.41 553.953 L2065.1 549.265 L2060.41 537.953 L2065.1 526.641 L2076.41 521.953 L2087.72 526.641 L2092.41 537.953 L2087.72 549.265 Z" fill="#009af9" fill-rule="evenodd" fill-opacity="1" stroke="#000000" stroke-opacity="1" stroke-width="3.2"/>
<path clip-path="url(#clip832)" d="M2294 578.589 L2282.69 573.901 L2278 562.589 L2282.69 551.277 L2294 546.589 L2305.32 551.277 L2310 562.589 L2305.32 573.901 Z" fill="#009af9" fill-rule="evenodd" fill-opacity="1" stroke="#000000" stroke-opacity="1" stroke-width="3.2"/>
<polyline clip-path="url(#clip832)" style="stroke:#e26f46; stroke-linecap:round; stroke-linejoin:round; stroke-width:4; stroke-opacity:1; fill:none" points="335.627,86.1857 553.224,116.282 770.822,147.224 988.419,152.474 1206.02,188.902 1423.61,198.625 1641.21,193.956 1858.81,196.106 2076.41,220.728 2294,210.295 "/>
<path clip-path="url(#clip832)" d="M335.627 102.186 L324.315 97.4977 L319.627 86.1857 L324.315 74.8737 L335.627 70.1857 L346.939 74.8737 L351.627 86.1857 L346.939 97.4977 Z" fill="#e26f46" fill-rule="evenodd" fill-opacity="1" stroke="#000000" stroke-opacity="1" stroke-width="3.2"/>
<path clip-path="url(#clip832)" d="M553.224 132.282 L541.912 127.594 L537.224 116.282 L541.912 104.97 L553.224 100.282 L564.536 104.97 L569.224 116.282 L564.536 127.594 Z" fill="#e26f46" fill-rule="evenodd" fill-opacity="1" stroke="#000000" stroke-opacity="1" stroke-width="3.2"/>
<path clip-path="url(#clip832)" d="M770.822 163.224 L759.51 158.536 L754.822 147.224 L759.51 135.912 L770.822 131.224 L782.134 135.912 L786.822 147.224 L782.134 158.536 Z" fill="#e26f46" fill-rule="evenodd" fill-opacity="1" stroke="#000000" stroke-opacity="1" stroke-width="3.2"/>
<path clip-path="url(#clip832)" d="M988.419 168.474 L977.107 163.786 L972.419 152.474 L977.107 141.162 L988.419 136.474 L999.731 141.162 L1004.42 152.474 L999.731 163.786 Z" fill="#e26f46" fill-rule="evenodd" fill-opacity="1" stroke="#000000" stroke-opacity="1" stroke-width="3.2"/>
<path clip-path="url(#clip832)" d="M1206.02 204.902 L1194.7 200.214 L1190.02 188.902 L1194.7 177.59 L1206.02 172.902 L1217.33 177.59 L1222.02 188.902 L1217.33 200.214 Z" fill="#e26f46" fill-rule="evenodd" fill-opacity="1" stroke="#000000" stroke-opacity="1" stroke-width="3.2"/>
<path clip-path="url(#clip832)" d="M1423.61 214.625 L1412.3 209.937 L1407.61 198.625 L1412.3 187.313 L1423.61 182.625 L1434.93 187.313 L1439.61 198.625 L1434.93 209.937 Z" fill="#e26f46" fill-rule="evenodd" fill-opacity="1" stroke="#000000" stroke-opacity="1" stroke-width="3.2"/>
<path clip-path="url(#clip832)" d="M1641.21 209.956 L1629.9 205.268 L1625.21 193.956 L1629.9 182.644 L1641.21 177.956 L1652.52 182.644 L1657.21 193.956 L1652.52 205.268 Z" fill="#e26f46" fill-rule="evenodd" fill-opacity="1" stroke="#000000" stroke-opacity="1" stroke-width="3.2"/>
<path clip-path="url(#clip832)" d="M1858.81 212.106 L1847.5 207.418 L1842.81 196.106 L1847.5 184.794 L1858.81 180.106 L1870.12 184.794 L1874.81 196.106 L1870.12 207.418 Z" fill="#e26f46" fill-rule="evenodd" fill-opacity="1" stroke="#000000" stroke-opacity="1" stroke-width="3.2"/>
<path clip-path="url(#clip832)" d="M2076.41 236.728 L2065.1 232.04 L2060.41 220.728 L2065.1 209.416 L2076.41 204.728 L2087.72 209.416 L2092.41 220.728 L2087.72 232.04 Z" fill="#e26f46" fill-rule="evenodd" fill-opacity="1" stroke="#000000" stroke-opacity="1" stroke-width="3.2"/>
<path clip-path="url(#clip832)" d="M2294 226.295 L2282.69 221.607 L2278 210.295 L2282.69 198.983 L2294 194.295 L2305.32 198.983 L2310 210.295 L2305.32 221.607 Z" fill="#e26f46" fill-rule="evenodd" fill-opacity="1" stroke="#000000" stroke-opacity="1" stroke-width="3.2"/>
<polyline clip-path="url(#clip832)" style="stroke:#3da44d; stroke-linecap:round; stroke-linejoin:round; stroke-width:4; stroke-opacity:1; fill:none" points="335.627,110.39 553.224,167.111 770.822,223.818 988.419,234.359 1206.02,245.255 1423.61,308.359 1641.21,314.945 1858.81,298.545 2076.41,340.104 2294,340.753 "/>
<path clip-path="url(#clip832)" d="M335.627 126.39 L324.315 121.702 L319.627 110.39 L324.315 99.0777 L335.627 94.3897 L346.939 99.0777 L351.627 110.39 L346.939 121.702 Z" fill="#3da44d" fill-rule="evenodd" fill-opacity="1" stroke="#000000" stroke-opacity="1" stroke-width="3.2"/>
<path clip-path="url(#clip832)" d="M553.224 183.111 L541.912 178.423 L537.224 167.111 L541.912 155.799 L553.224 151.111 L564.536 155.799 L569.224 167.111 L564.536 178.423 Z" fill="#3da44d" fill-rule="evenodd" fill-opacity="1" stroke="#000000" stroke-opacity="1" stroke-width="3.2"/>
<path clip-path="url(#clip832)" d="M770.822 239.818 L759.51 235.13 L754.822 223.818 L759.51 212.506 L770.822 207.818 L782.134 212.506 L786.822 223.818 L782.134 235.13 Z" fill="#3da44d" fill-rule="evenodd" fill-opacity="1" stroke="#000000" stroke-opacity="1" stroke-width="3.2"/>
<path clip-path="url(#clip832)" d="M988.419 250.359 L977.107 245.671 L972.419 234.359 L977.107 223.047 L988.419 218.359 L999.731 223.047 L1004.42 234.359 L999.731 245.671 Z" fill="#3da44d" fill-rule="evenodd" fill-opacity="1" stroke="#000000" stroke-opacity="1" stroke-width="3.2"/>
<path clip-path="url(#clip832)" d="M1206.02 261.255 L1194.7 256.567 L1190.02 245.255 L1194.7 233.943 L1206.02 229.255 L1217.33 233.943 L1222.02 245.255 L1217.33 256.567 Z" fill="#3da44d" fill-rule="evenodd" fill-opacity="1" stroke="#000000" stroke-opacity="1" stroke-width="3.2"/>
<path clip-path="url(#clip832)" d="M1423.61 324.359 L1412.3 319.671 L1407.61 308.359 L1412.3 297.047 L1423.61 292.359 L1434.93 297.047 L1439.61 308.359 L1434.93 319.671 Z" fill="#3da44d" fill-rule="evenodd" fill-opacity="1" stroke="#000000" stroke-opacity="1" stroke-width="3.2"/>
<path clip-path="url(#clip832)" d="M1641.21 330.945 L1629.9 326.257 L1625.21 314.945 L1629.9 303.633 L1641.21 298.945 L1652.52 303.633 L1657.21 314.945 L1652.52 326.257 Z" fill="#3da44d" fill-rule="evenodd" fill-opacity="1" stroke="#000000" stroke-opacity="1" stroke-width="3.2"/>
<path clip-path="url(#clip832)" d="M1858.81 314.545 L1847.5 309.857 L1842.81 298.545 L1847.5 287.233 L1858.81 282.545 L1870.12 287.233 L1874.81 298.545 L1870.12 309.857 Z" fill="#3da44d" fill-rule="evenodd" fill-opacity="1" stroke="#000000" stroke-opacity="1" stroke-width="3.2"/>
<path clip-path="url(#clip832)" d="M2076.41 356.104 L2065.1 351.416 L2060.41 340.104 L2065.1 328.792 L2076.41 324.104 L2087.72 328.792 L2092.41 340.104 L2087.72 351.416 Z" fill="#3da44d" fill-rule="evenodd" fill-opacity="1" stroke="#000000" stroke-opacity="1" stroke-width="3.2"/>
<path clip-path="url(#clip832)" d="M2294 356.753 L2282.69 352.065 L2278 340.753 L2282.69 329.441 L2294 324.753 L2305.32 329.441 L2310 340.753 L2305.32 352.065 Z" fill="#3da44d" fill-rule="evenodd" fill-opacity="1" stroke="#000000" stroke-opacity="1" stroke-width="3.2"/>
<polyline clip-path="url(#clip832)" style="stroke:#c271d2; stroke-linecap:round; stroke-linejoin:round; stroke-width:4; stroke-opacity:1; fill:none" points="335.627,112.206 553.224,166.438 770.822,200.685 988.419,233.27 1206.02,256.967 1423.61,280.888 1641.21,294.479 1858.81,300.928 2076.41,320.805 2294,336.503 "/>
<path clip-path="url(#clip832)" d="M335.627 128.206 L324.315 123.518 L319.627 112.206 L324.315 100.894 L335.627 96.2058 L346.939 100.894 L351.627 112.206 L346.939 123.518 Z" fill="#c271d2" fill-rule="evenodd" fill-opacity="1" stroke="#000000" stroke-opacity="1" stroke-width="3.2"/>
<path clip-path="url(#clip832)" d="M553.224 182.438 L541.912 177.75 L537.224 166.438 L541.912 155.126 L553.224 150.438 L564.536 155.126 L569.224 166.438 L564.536 177.75 Z" fill="#c271d2" fill-rule="evenodd" fill-opacity="1" stroke="#000000" stroke-opacity="1" stroke-width="3.2"/>
<path clip-path="url(#clip832)" d="M770.822 216.685 L759.51 211.997 L754.822 200.685 L759.51 189.373 L770.822 184.685 L782.134 189.373 L786.822 200.685 L782.134 211.997 Z" fill="#c271d2" fill-rule="evenodd" fill-opacity="1" stroke="#000000" stroke-opacity="1" stroke-width="3.2"/>
<path clip-path="url(#clip832)" d="M988.419 249.27 L977.107 244.582 L972.419 233.27 L977.107 221.958 L988.419 217.27 L999.731 221.958 L1004.42 233.27 L999.731 244.582 Z" fill="#c271d2" fill-rule="evenodd" fill-opacity="1" stroke="#000000" stroke-opacity="1" stroke-width="3.2"/>
<path clip-path="url(#clip832)" d="M1206.02 272.967 L1194.7 268.279 L1190.02 256.967 L1194.7 245.655 L1206.02 240.967 L1217.33 245.655 L1222.02 256.967 L1217.33 268.279 Z" fill="#c271d2" fill-rule="evenodd" fill-opacity="1" stroke="#000000" stroke-opacity="1" stroke-width="3.2"/>
<path clip-path="url(#clip832)" d="M1423.61 296.888 L1412.3 292.2 L1407.61 280.888 L1412.3 269.576 L1423.61 264.888 L1434.93 269.576 L1439.61 280.888 L1434.93 292.2 Z" fill="#c271d2" fill-rule="evenodd" fill-opacity="1" stroke="#000000" stroke-opacity="1" stroke-width="3.2"/>
<path clip-path="url(#clip832)" d="M1641.21 310.479 L1629.9 305.791 L1625.21 294.479 L1629.9 283.167 L1641.21 278.479 L1652.52 283.167 L1657.21 294.479 L1652.52 305.791 Z" fill="#c271d2" fill-rule="evenodd" fill-opacity="1" stroke="#000000" stroke-opacity="1" stroke-width="3.2"/>
<path clip-path="url(#clip832)" d="M1858.81 316.928 L1847.5 312.24 L1842.81 300.928 L1847.5 289.616 L1858.81 284.928 L1870.12 289.616 L1874.81 300.928 L1870.12 312.24 Z" fill="#c271d2" fill-rule="evenodd" fill-opacity="1" stroke="#000000" stroke-opacity="1" stroke-width="3.2"/>
<path clip-path="url(#clip832)" d="M2076.41 336.805 L2065.1 332.117 L2060.41 320.805 L2065.1 309.493 L2076.41 304.805 L2087.72 309.493 L2092.41 320.805 L2087.72 332.117 Z" fill="#c271d2" fill-rule="evenodd" fill-opacity="1" stroke="#000000" stroke-opacity="1" stroke-width="3.2"/>
<path clip-path="url(#clip832)" d="M2294 352.503 L2282.69 347.815 L2278 336.503 L2282.69 325.191 L2294 320.503 L2305.32 325.191 L2310 336.503 L2305.32 347.815 Z" fill="#c271d2" fill-rule="evenodd" fill-opacity="1" stroke="#000000" stroke-opacity="1" stroke-width="3.2"/>
<polyline clip-path="url(#clip832)" style="stroke:#ac8d18; stroke-linecap:round; stroke-linejoin:round; stroke-width:4; stroke-opacity:1; fill:none" points="335.627,115.22 553.224,245.336 770.822,359.345 988.419,441.566 1206.02,625.258 1423.61,740.528 1641.21,862.205 1858.81,1013.39 2076.41,1306.89 2294,1384.24 "/>
<path clip-path="url(#clip832)" d="M335.627 131.22 L324.315 126.532 L319.627 115.22 L324.315 103.908 L335.627 99.2198 L346.939 103.908 L351.627 115.22 L346.939 126.532 Z" fill="#ac8d18" fill-rule="evenodd" fill-opacity="1" stroke="#000000" stroke-opacity="1" stroke-width="3.2"/>
<path clip-path="url(#clip832)" d="M553.224 261.336 L541.912 256.648 L537.224 245.336 L541.912 234.024 L553.224 229.336 L564.536 234.024 L569.224 245.336 L564.536 256.648 Z" fill="#ac8d18" fill-rule="evenodd" fill-opacity="1" stroke="#000000" stroke-opacity="1" stroke-width="3.2"/>
<path clip-path="url(#clip832)" d="M770.822 375.345 L759.51 370.657 L754.822 359.345 L759.51 348.033 L770.822 343.345 L782.134 348.033 L786.822 359.345 L782.134 370.657 Z" fill="#ac8d18" fill-rule="evenodd" fill-opacity="1" stroke="#000000" stroke-opacity="1" stroke-width="3.2"/>
<path clip-path="url(#clip832)" d="M988.419 457.566 L977.107 452.878 L972.419 441.566 L977.107 430.254 L988.419 425.566 L999.731 430.254 L1004.42 441.566 L999.731 452.878 Z" fill="#ac8d18" fill-rule="evenodd" fill-opacity="1" stroke="#000000" stroke-opacity="1" stroke-width="3.2"/>
<path clip-path="url(#clip832)" d="M1206.02 641.258 L1194.7 636.57 L1190.02 625.258 L1194.7 613.946 L1206.02 609.258 L1217.33 613.946 L1222.02 625.258 L1217.33 636.57 Z" fill="#ac8d18" fill-rule="evenodd" fill-opacity="1" stroke="#000000" stroke-opacity="1" stroke-width="3.2"/>
<path clip-path="url(#clip832)" d="M1423.61 756.528 L1412.3 751.84 L1407.61 740.528 L1412.3 729.216 L1423.61 724.528 L1434.93 729.216 L1439.61 740.528 L1434.93 751.84 Z" fill="#ac8d18" fill-rule="evenodd" fill-opacity="1" stroke="#000000" stroke-opacity="1" stroke-width="3.2"/>
<path clip-path="url(#clip832)" d="M1641.21 878.205 L1629.9 873.517 L1625.21 862.205 L1629.9 850.893 L1641.21 846.205 L1652.52 850.893 L1657.21 862.205 L1652.52 873.517 Z" fill="#ac8d18" fill-rule="evenodd" fill-opacity="1" stroke="#000000" stroke-opacity="1" stroke-width="3.2"/>
<path clip-path="url(#clip832)" d="M1858.81 1029.39 L1847.5 1024.7 L1842.81 1013.39 L1847.5 1002.07 L1858.81 997.385 L1870.12 1002.07 L1874.81 1013.39 L1870.12 1024.7 Z" fill="#ac8d18" fill-rule="evenodd" fill-opacity="1" stroke="#000000" stroke-opacity="1" stroke-width="3.2"/>
<path clip-path="url(#clip832)" d="M2076.41 1322.89 L2065.1 1318.2 L2060.41 1306.89 L2065.1 1295.58 L2076.41 1290.89 L2087.72 1295.58 L2092.41 1306.89 L2087.72 1318.2 Z" fill="#ac8d18" fill-rule="evenodd" fill-opacity="1" stroke="#000000" stroke-opacity="1" stroke-width="3.2"/>
<path clip-path="url(#clip832)" d="M2294 1400.24 L2282.69 1395.55 L2278 1384.24 L2282.69 1372.93 L2294 1368.24 L2305.32 1372.93 L2310 1384.24 L2305.32 1395.55 Z" fill="#ac8d18" fill-rule="evenodd" fill-opacity="1" stroke="#000000" stroke-opacity="1" stroke-width="3.2"/>
<polyline clip-path="url(#clip832)" style="stroke:#00a9ad; stroke-linecap:round; stroke-linejoin:round; stroke-width:4; stroke-opacity:1; fill:none" points="335.627,119.118 553.224,174.68 770.822,224.123 988.419,237 1206.02,270.552 1423.61,297.237 1641.21,288.147 1858.81,313.847 2076.41,317.81 2294,355.022 "/>
<path clip-path="url(#clip832)" d="M335.627 135.118 L324.315 130.43 L319.627 119.118 L324.315 107.806 L335.627 103.118 L346.939 107.806 L351.627 119.118 L346.939 130.43 Z" fill="#00a9ad" fill-rule="evenodd" fill-opacity="1" stroke="#000000" stroke-opacity="1" stroke-width="3.2"/>
<path clip-path="url(#clip832)" d="M553.224 190.68 L541.912 185.992 L537.224 174.68 L541.912 163.368 L553.224 158.68 L564.536 163.368 L569.224 174.68 L564.536 185.992 Z" fill="#00a9ad" fill-rule="evenodd" fill-opacity="1" stroke="#000000" stroke-opacity="1" stroke-width="3.2"/>
<path clip-path="url(#clip832)" d="M770.822 240.123 L759.51 235.435 L754.822 224.123 L759.51 212.811 L770.822 208.123 L782.134 212.811 L786.822 224.123 L782.134 235.435 Z" fill="#00a9ad" fill-rule="evenodd" fill-opacity="1" stroke="#000000" stroke-opacity="1" stroke-width="3.2"/>
<path clip-path="url(#clip832)" d="M988.419 253 L977.107 248.312 L972.419 237 L977.107 225.688 L988.419 221 L999.731 225.688 L1004.42 237 L999.731 248.312 Z" fill="#00a9ad" fill-rule="evenodd" fill-opacity="1" stroke="#000000" stroke-opacity="1" stroke-width="3.2"/>
<path clip-path="url(#clip832)" d="M1206.02 286.552 L1194.7 281.864 L1190.02 270.552 L1194.7 259.24 L1206.02 254.552 L1217.33 259.24 L1222.02 270.552 L1217.33 281.864 Z" fill="#00a9ad" fill-rule="evenodd" fill-opacity="1" stroke="#000000" stroke-opacity="1" stroke-width="3.2"/>
<path clip-path="url(#clip832)" d="M1423.61 313.237 L1412.3 308.549 L1407.61 297.237 L1412.3 285.925 L1423.61 281.237 L1434.93 285.925 L1439.61 297.237 L1434.93 308.549 Z" fill="#00a9ad" fill-rule="evenodd" fill-opacity="1" stroke="#000000" stroke-opacity="1" stroke-width="3.2"/>
<path clip-path="url(#clip832)" d="M1641.21 304.147 L1629.9 299.459 L1625.21 288.147 L1629.9 276.835 L1641.21 272.147 L1652.52 276.835 L1657.21 288.147 L1652.52 299.459 Z" fill="#00a9ad" fill-rule="evenodd" fill-opacity="1" stroke="#000000" stroke-opacity="1" stroke-width="3.2"/>
<path clip-path="url(#clip832)" d="M1858.81 329.847 L1847.5 325.159 L1842.81 313.847 L1847.5 302.535 L1858.81 297.847 L1870.12 302.535 L1874.81 313.847 L1870.12 325.159 Z" fill="#00a9ad" fill-rule="evenodd" fill-opacity="1" stroke="#000000" stroke-opacity="1" stroke-width="3.2"/>
<path clip-path="url(#clip832)" d="M2076.41 333.81 L2065.1 329.122 L2060.41 317.81 L2065.1 306.498 L2076.41 301.81 L2087.72 306.498 L2092.41 317.81 L2087.72 329.122 Z" fill="#00a9ad" fill-rule="evenodd" fill-opacity="1" stroke="#000000" stroke-opacity="1" stroke-width="3.2"/>
<path clip-path="url(#clip832)" d="M2294 371.022 L2282.69 366.334 L2278 355.022 L2282.69 343.71 L2294 339.022 L2305.32 343.71 L2310 355.022 L2305.32 366.334 Z" fill="#00a9ad" fill-rule="evenodd" fill-opacity="1" stroke="#000000" stroke-opacity="1" stroke-width="3.2"/>
<path clip-path="url(#clip830)" d="M1797.83 455.989 L2283.56 455.989 L2283.56 93.1086 L1797.83 93.1086  Z" fill="#ffffff" fill-rule="evenodd" fill-opacity="1"/>
<polyline clip-path="url(#clip830)" style="stroke:#000000; stroke-linecap:round; stroke-linejoin:round; stroke-width:4; stroke-opacity:1; fill:none" points="1797.83,455.989 2283.56,455.989 2283.56,93.1086 1797.83,93.1086 1797.83,455.989 "/>
<polyline clip-path="url(#clip830)" style="stroke:#009af9; stroke-linecap:round; stroke-linejoin:round; stroke-width:4; stroke-opacity:1; fill:none" points="1820.89,144.949 1959.28,144.949 "/>
<path clip-path="url(#clip830)" d="M1890.09 166.305 L1874.99 160.048 L1868.73 144.949 L1874.99 129.849 L1890.09 123.592 L1905.19 129.849 L1911.44 144.949 L1905.19 160.048 Z" fill="#009af9" fill-rule="evenodd" fill-opacity="1" stroke="#000000" stroke-opacity="1" stroke-width="4.55111"/>
<path clip-path="url(#clip830)" d="M1982.35 127.669 L2002.21 127.669 L2002.21 131.604 L1987.02 131.604 L1987.02 141.789 L2000.73 141.789 L2000.73 145.724 L1987.02 145.724 L1987.02 162.229 L1982.35 162.229 L1982.35 127.669 Z" fill="#000000" fill-rule="nonzero" fill-opacity="1" /><path clip-path="url(#clip830)" d="M2006.4 151.997 L2006.4 136.303 L2010.66 136.303 L2010.66 151.835 Q2010.66 155.516 2012.09 157.368 Q2013.53 159.196 2016.4 159.196 Q2019.85 159.196 2021.84 156.997 Q2023.85 154.798 2023.85 151.002 L2023.85 136.303 L2028.11 136.303 L2028.11 162.229 L2023.85 162.229 L2023.85 158.247 Q2022.3 160.608 2020.24 161.766 Q2018.2 162.9 2015.5 162.9 Q2011.03 162.9 2008.71 160.122 Q2006.4 157.344 2006.4 151.997 M2017.12 135.678 L2017.12 135.678 Z" fill="#000000" fill-rule="nonzero" fill-opacity="1" /><path clip-path="url(#clip830)" d="M2053.41 137.067 L2053.41 141.094 Q2051.61 140.169 2049.66 139.706 Q2047.72 139.243 2045.63 139.243 Q2042.46 139.243 2040.87 140.215 Q2039.29 141.187 2039.29 143.131 Q2039.29 144.613 2040.43 145.469 Q2041.56 146.303 2044.99 147.067 L2046.44 147.391 Q2050.98 148.363 2052.88 150.145 Q2054.8 151.905 2054.8 155.076 Q2054.8 158.687 2051.93 160.793 Q2049.08 162.9 2044.08 162.9 Q2042 162.9 2039.73 162.483 Q2037.49 162.09 2034.99 161.28 L2034.99 156.881 Q2037.35 158.108 2039.64 158.733 Q2041.93 159.335 2044.18 159.335 Q2047.19 159.335 2048.81 158.317 Q2050.43 157.275 2050.43 155.4 Q2050.43 153.664 2049.25 152.738 Q2048.09 151.812 2044.13 150.956 L2042.65 150.608 Q2038.69 149.775 2036.93 148.062 Q2035.17 146.326 2035.17 143.317 Q2035.17 139.659 2037.76 137.669 Q2040.36 135.678 2045.13 135.678 Q2047.49 135.678 2049.57 136.025 Q2051.65 136.372 2053.41 137.067 Z" fill="#000000" fill-rule="nonzero" fill-opacity="1" /><path clip-path="url(#clip830)" d="M2083.76 148.201 L2083.76 150.284 L2064.18 150.284 Q2064.45 154.682 2066.82 156.997 Q2069.2 159.289 2073.44 159.289 Q2075.89 159.289 2078.18 158.687 Q2080.5 158.085 2082.76 156.881 L2082.76 160.909 Q2080.47 161.881 2078.06 162.391 Q2075.66 162.9 2073.18 162.9 Q2066.98 162.9 2063.34 159.289 Q2059.73 155.678 2059.73 149.52 Q2059.73 143.155 2063.16 139.428 Q2066.61 135.678 2072.44 135.678 Q2077.67 135.678 2080.7 139.057 Q2083.76 142.414 2083.76 148.201 M2079.5 146.951 Q2079.45 143.456 2077.53 141.372 Q2075.63 139.289 2072.49 139.289 Q2068.92 139.289 2066.77 141.303 Q2064.64 143.317 2064.32 146.974 L2079.5 146.951 Z" fill="#000000" fill-rule="nonzero" fill-opacity="1" /><path clip-path="url(#clip830)" d="M2107.81 140.238 L2107.81 126.21 L2112.07 126.21 L2112.07 162.229 L2107.81 162.229 L2107.81 158.34 Q2106.47 160.655 2104.41 161.789 Q2102.37 162.9 2099.5 162.9 Q2094.8 162.9 2091.84 159.15 Q2088.9 155.4 2088.9 149.289 Q2088.9 143.178 2091.84 139.428 Q2094.8 135.678 2099.5 135.678 Q2102.37 135.678 2104.41 136.812 Q2106.47 137.923 2107.81 140.238 M2093.3 149.289 Q2093.3 153.988 2095.22 156.673 Q2097.16 159.335 2100.54 159.335 Q2103.92 159.335 2105.87 156.673 Q2107.81 153.988 2107.81 149.289 Q2107.81 144.59 2105.87 141.928 Q2103.92 139.243 2100.54 139.243 Q2097.16 139.243 2095.22 141.928 Q2093.3 144.59 2093.3 149.289 Z" fill="#000000" fill-rule="nonzero" fill-opacity="1" /><path clip-path="url(#clip830)" d="M2140.54 170.099 L2140.54 173.409 L2115.91 173.409 L2115.91 170.099 L2140.54 170.099 Z" fill="#000000" fill-rule="nonzero" fill-opacity="1" /><path clip-path="url(#clip830)" d="M2149.41 145.724 L2149.41 158.386 L2156.91 158.386 Q2160.68 158.386 2162.49 156.835 Q2164.31 155.261 2164.31 152.043 Q2164.31 148.803 2162.49 147.275 Q2160.68 145.724 2156.91 145.724 L2149.41 145.724 M2149.41 131.511 L2149.41 141.928 L2156.33 141.928 Q2159.75 141.928 2161.42 140.655 Q2163.11 139.358 2163.11 136.719 Q2163.11 134.104 2161.42 132.807 Q2159.75 131.511 2156.33 131.511 L2149.41 131.511 M2144.73 127.669 L2156.68 127.669 Q2162.02 127.669 2164.92 129.891 Q2167.81 132.113 2167.81 136.21 Q2167.81 139.382 2166.33 141.257 Q2164.85 143.131 2161.98 143.594 Q2165.43 144.335 2167.32 146.696 Q2169.25 149.034 2169.25 152.553 Q2169.25 157.182 2166.1 159.705 Q2162.95 162.229 2157.14 162.229 L2144.73 162.229 L2144.73 127.669 Z" fill="#000000" fill-rule="nonzero" fill-opacity="1" /><path clip-path="url(#clip830)" d="M2172.46 127.669 L2201.7 127.669 L2201.7 131.604 L2189.43 131.604 L2189.43 162.229 L2184.73 162.229 L2184.73 131.604 L2172.46 131.604 L2172.46 127.669 Z" fill="#000000" fill-rule="nonzero" fill-opacity="1" /><path clip-path="url(#clip830)" d="M2200.59 127.669 L2229.82 127.669 L2229.82 131.604 L2217.55 131.604 L2217.55 162.229 L2212.86 162.229 L2212.86 131.604 L2200.59 131.604 L2200.59 127.669 Z" fill="#000000" fill-rule="nonzero" fill-opacity="1" /><path clip-path="url(#clip830)" d="M2234.34 127.669 L2240.63 127.669 L2255.96 156.581 L2255.96 127.669 L2260.49 127.669 L2260.49 162.229 L2254.2 162.229 L2238.87 133.317 L2238.87 162.229 L2234.34 162.229 L2234.34 127.669 Z" fill="#000000" fill-rule="nonzero" fill-opacity="1" /><polyline clip-path="url(#clip830)" style="stroke:#e26f46; stroke-linecap:round; stroke-linejoin:round; stroke-width:4; stroke-opacity:1; fill:none" points="1820.89,196.789 1959.28,196.789 "/>
<path clip-path="url(#clip830)" d="M1890.09 218.145 L1874.99 211.888 L1868.73 196.789 L1874.99 181.689 L1890.09 175.432 L1905.19 181.689 L1911.44 196.789 L1905.19 211.888 Z" fill="#e26f46" fill-rule="evenodd" fill-opacity="1" stroke="#000000" stroke-opacity="1" stroke-width="4.55111"/>
<path clip-path="url(#clip830)" d="M1998.37 182.68 Q1993.27 182.68 1990.26 186.476 Q1987.28 190.272 1987.28 196.823 Q1987.28 203.351 1990.26 207.147 Q1993.27 210.944 1998.37 210.944 Q2003.46 210.944 2006.42 207.147 Q2009.41 203.351 2009.41 196.823 Q2009.41 190.272 2006.42 186.476 Q2003.46 182.68 1998.37 182.68 M2004.92 213.444 L2011.07 220.18 L2005.43 220.18 L2000.31 214.647 Q1999.55 214.694 1999.13 214.717 Q1998.74 214.74 1998.37 214.74 Q1991.07 214.74 1986.7 209.879 Q1982.35 204.995 1982.35 196.823 Q1982.35 188.629 1986.7 183.768 Q1991.07 178.884 1998.37 178.884 Q2005.63 178.884 2009.99 183.768 Q2014.34 188.629 2014.34 196.823 Q2014.34 202.842 2011.91 207.124 Q2009.5 211.407 2004.92 213.444 Z" fill="#000000" fill-rule="nonzero" fill-opacity="1" /><path clip-path="url(#clip830)" d="M2016.86 179.509 L2046.1 179.509 L2046.1 183.444 L2033.83 183.444 L2033.83 214.069 L2029.13 214.069 L2029.13 183.444 L2016.86 183.444 L2016.86 179.509 Z" fill="#000000" fill-rule="nonzero" fill-opacity="1" /><path clip-path="url(#clip830)" d="M2044.99 179.509 L2074.22 179.509 L2074.22 183.444 L2061.95 183.444 L2061.95 214.069 L2057.25 214.069 L2057.25 183.444 L2044.99 183.444 L2044.99 179.509 Z" fill="#000000" fill-rule="nonzero" fill-opacity="1" /><path clip-path="url(#clip830)" d="M2098.25 221.939 L2098.25 225.249 L2073.62 225.249 L2073.62 221.939 L2098.25 221.939 Z" fill="#000000" fill-rule="nonzero" fill-opacity="1" /><path clip-path="url(#clip830)" d="M2123.16 180.643 L2123.16 185.203 Q2120.5 183.93 2118.13 183.305 Q2115.77 182.68 2113.57 182.68 Q2109.75 182.68 2107.67 184.161 Q2105.61 185.643 2105.61 188.374 Q2105.61 190.666 2106.98 191.847 Q2108.37 193.004 2112.21 193.722 L2115.03 194.3 Q2120.26 195.296 2122.74 197.819 Q2125.24 200.319 2125.24 204.532 Q2125.24 209.555 2121.86 212.147 Q2118.5 214.74 2112 214.74 Q2109.55 214.74 2106.77 214.184 Q2104.01 213.629 2101.05 212.541 L2101.05 207.726 Q2103.9 209.323 2106.63 210.133 Q2109.36 210.944 2112 210.944 Q2116 210.944 2118.18 209.37 Q2120.36 207.796 2120.36 204.879 Q2120.36 202.333 2118.78 200.897 Q2117.23 199.462 2113.67 198.745 L2110.82 198.189 Q2105.59 197.147 2103.25 194.925 Q2100.91 192.703 2100.91 188.745 Q2100.91 184.161 2104.13 181.522 Q2107.37 178.884 2113.04 178.884 Q2115.47 178.884 2118 179.323 Q2120.52 179.763 2123.16 180.643 Z" fill="#000000" fill-rule="nonzero" fill-opacity="1" /><path clip-path="url(#clip830)" d="M2154.52 200.041 L2154.52 202.124 L2134.94 202.124 Q2135.22 206.522 2137.58 208.837 Q2139.96 211.129 2144.2 211.129 Q2146.65 211.129 2148.94 210.527 Q2151.26 209.925 2153.53 208.721 L2153.53 212.749 Q2151.24 213.721 2148.83 214.231 Q2146.42 214.74 2143.94 214.74 Q2137.74 214.74 2134.11 211.129 Q2130.5 207.518 2130.5 201.36 Q2130.5 194.995 2133.92 191.268 Q2137.37 187.518 2143.2 187.518 Q2148.43 187.518 2151.47 190.897 Q2154.52 194.254 2154.52 200.041 M2150.26 198.791 Q2150.22 195.296 2148.3 193.212 Q2146.4 191.129 2143.25 191.129 Q2139.69 191.129 2137.53 193.143 Q2135.4 195.157 2135.08 198.814 L2150.26 198.791 Z" fill="#000000" fill-rule="nonzero" fill-opacity="1" /><path clip-path="url(#clip830)" d="M2164.06 201.129 Q2164.06 205.828 2165.98 208.513 Q2167.93 211.175 2171.31 211.175 Q2174.68 211.175 2176.63 208.513 Q2178.57 205.828 2178.57 201.129 Q2178.57 196.43 2176.63 193.768 Q2174.68 191.083 2171.31 191.083 Q2167.93 191.083 2165.98 193.768 Q2164.06 196.43 2164.06 201.129 M2178.57 210.18 Q2177.23 212.495 2175.17 213.629 Q2173.13 214.74 2170.26 214.74 Q2165.56 214.74 2162.6 210.99 Q2159.66 207.24 2159.66 201.129 Q2159.66 195.018 2162.6 191.268 Q2165.56 187.518 2170.26 187.518 Q2173.13 187.518 2175.17 188.652 Q2177.23 189.763 2178.57 192.078 L2178.57 188.143 L2182.83 188.143 L2182.83 223.93 L2178.57 223.93 L2178.57 210.18 Z" fill="#000000" fill-rule="nonzero" fill-opacity="1" /><polyline clip-path="url(#clip830)" style="stroke:#3da44d; stroke-linecap:round; stroke-linejoin:round; stroke-width:4; stroke-opacity:1; fill:none" points="1820.89,248.629 1959.28,248.629 "/>
<path clip-path="url(#clip830)" d="M1890.09 269.985 L1874.99 263.728 L1868.73 248.629 L1874.99 233.529 L1890.09 227.272 L1905.19 233.529 L1911.44 248.629 L1905.19 263.728 Z" fill="#3da44d" fill-rule="evenodd" fill-opacity="1" stroke="#000000" stroke-opacity="1" stroke-width="4.55111"/>
<path clip-path="url(#clip830)" d="M1987.02 249.404 L1987.02 262.066 L1994.52 262.066 Q1998.3 262.066 2000.1 260.515 Q2001.93 258.941 2001.93 255.723 Q2001.93 252.483 2000.1 250.955 Q1998.3 249.404 1994.52 249.404 L1987.02 249.404 M1987.02 235.191 L1987.02 245.608 L1993.95 245.608 Q1997.37 245.608 1999.04 244.335 Q2000.73 243.038 2000.73 240.399 Q2000.73 237.784 1999.04 236.487 Q1997.37 235.191 1993.95 235.191 L1987.02 235.191 M1982.35 231.349 L1994.29 231.349 Q1999.64 231.349 2002.53 233.571 Q2005.43 235.793 2005.43 239.89 Q2005.43 243.062 2003.95 244.937 Q2002.46 246.811 1999.59 247.274 Q2003.04 248.015 2004.94 250.376 Q2006.86 252.714 2006.86 256.233 Q2006.86 260.862 2003.71 263.385 Q2000.57 265.909 1994.76 265.909 L1982.35 265.909 L1982.35 231.349 Z" fill="#000000" fill-rule="nonzero" fill-opacity="1" /><path clip-path="url(#clip830)" d="M2010.08 231.349 L2039.32 231.349 L2039.32 235.284 L2027.05 235.284 L2027.05 265.909 L2022.35 265.909 L2022.35 235.284 L2010.08 235.284 L2010.08 231.349 Z" fill="#000000" fill-rule="nonzero" fill-opacity="1" /><path clip-path="url(#clip830)" d="M2038.2 231.349 L2067.44 231.349 L2067.44 235.284 L2055.17 235.284 L2055.17 265.909 L2050.47 265.909 L2050.47 235.284 L2038.2 235.284 L2038.2 231.349 Z" fill="#000000" fill-rule="nonzero" fill-opacity="1" /><path clip-path="url(#clip830)" d="M2071.95 231.349 L2078.25 231.349 L2093.57 260.261 L2093.57 231.349 L2098.11 231.349 L2098.11 265.909 L2091.81 265.909 L2076.49 236.997 L2076.49 265.909 L2071.95 265.909 L2071.95 231.349 Z" fill="#000000" fill-rule="nonzero" fill-opacity="1" /><polyline clip-path="url(#clip830)" style="stroke:#c271d2; stroke-linecap:round; stroke-linejoin:round; stroke-width:4; stroke-opacity:1; fill:none" points="1820.89,300.469 1959.28,300.469 "/>
<path clip-path="url(#clip830)" d="M1890.09 321.825 L1874.99 315.568 L1868.73 300.469 L1874.99 285.369 L1890.09 279.112 L1905.19 285.369 L1911.44 300.469 L1905.19 315.568 Z" fill="#c271d2" fill-rule="evenodd" fill-opacity="1" stroke="#000000" stroke-opacity="1" stroke-width="4.55111"/>
<path clip-path="url(#clip830)" d="M2010.22 285.851 L2010.22 290.781 Q2007.86 288.582 2005.17 287.494 Q2002.51 286.406 1999.5 286.406 Q1993.57 286.406 1990.43 290.04 Q1987.28 293.652 1987.28 300.503 Q1987.28 307.332 1990.43 310.966 Q1993.57 314.577 1999.5 314.577 Q2002.51 314.577 2005.17 313.489 Q2007.86 312.401 2010.22 310.202 L2010.22 315.087 Q2007.76 316.753 2005.01 317.587 Q2002.28 318.42 1999.22 318.42 Q1991.38 318.42 1986.86 313.628 Q1982.35 308.813 1982.35 300.503 Q1982.35 292.17 1986.86 287.378 Q1991.38 282.564 1999.22 282.564 Q2002.32 282.564 2005.06 283.397 Q2007.81 284.207 2010.22 285.851 Z" fill="#000000" fill-rule="nonzero" fill-opacity="1" /><path clip-path="url(#clip830)" d="M2012.65 283.189 L2041.88 283.189 L2041.88 287.124 L2029.62 287.124 L2029.62 317.749 L2024.92 317.749 L2024.92 287.124 L2012.65 287.124 L2012.65 283.189 Z" fill="#000000" fill-rule="nonzero" fill-opacity="1" /><path clip-path="url(#clip830)" d="M2040.77 283.189 L2070.01 283.189 L2070.01 287.124 L2057.74 287.124 L2057.74 317.749 L2053.04 317.749 L2053.04 287.124 L2040.77 287.124 L2040.77 283.189 Z" fill="#000000" fill-rule="nonzero" fill-opacity="1" /><path clip-path="url(#clip830)" d="M2074.52 283.189 L2080.82 283.189 L2096.14 312.101 L2096.14 283.189 L2100.68 283.189 L2100.68 317.749 L2094.38 317.749 L2079.06 288.837 L2079.06 317.749 L2074.52 317.749 L2074.52 283.189 Z" fill="#000000" fill-rule="nonzero" fill-opacity="1" /><polyline clip-path="url(#clip830)" style="stroke:#ac8d18; stroke-linecap:round; stroke-linejoin:round; stroke-width:4; stroke-opacity:1; fill:none" points="1820.89,352.309 1959.28,352.309 "/>
<path clip-path="url(#clip830)" d="M1890.09 373.665 L1874.99 367.408 L1868.73 352.309 L1874.99 337.209 L1890.09 330.952 L1905.19 337.209 L1911.44 352.309 L1905.19 367.408 Z" fill="#ac8d18" fill-rule="evenodd" fill-opacity="1" stroke="#000000" stroke-opacity="1" stroke-width="4.55111"/>
<path clip-path="url(#clip830)" d="M1998.37 338.2 Q1993.27 338.2 1990.26 341.996 Q1987.28 345.792 1987.28 352.343 Q1987.28 358.871 1990.26 362.667 Q1993.27 366.464 1998.37 366.464 Q2003.46 366.464 2006.42 362.667 Q2009.41 358.871 2009.41 352.343 Q2009.41 345.792 2006.42 341.996 Q2003.46 338.2 1998.37 338.2 M2004.92 368.964 L2011.07 375.7 L2005.43 375.7 L2000.31 370.167 Q1999.55 370.214 1999.13 370.237 Q1998.74 370.26 1998.37 370.26 Q1991.07 370.26 1986.7 365.399 Q1982.35 360.515 1982.35 352.343 Q1982.35 344.149 1986.7 339.288 Q1991.07 334.404 1998.37 334.404 Q2005.63 334.404 2009.99 339.288 Q2014.34 344.149 2014.34 352.343 Q2014.34 358.362 2011.91 362.644 Q2009.5 366.927 2004.92 368.964 Z" fill="#000000" fill-rule="nonzero" fill-opacity="1" /><path clip-path="url(#clip830)" d="M2016.86 335.029 L2046.1 335.029 L2046.1 338.964 L2033.83 338.964 L2033.83 369.589 L2029.13 369.589 L2029.13 338.964 L2016.86 338.964 L2016.86 335.029 Z" fill="#000000" fill-rule="nonzero" fill-opacity="1" /><path clip-path="url(#clip830)" d="M2044.99 335.029 L2074.22 335.029 L2074.22 338.964 L2061.95 338.964 L2061.95 369.589 L2057.25 369.589 L2057.25 338.964 L2044.99 338.964 L2044.99 335.029 Z" fill="#000000" fill-rule="nonzero" fill-opacity="1" /><path clip-path="url(#clip830)" d="M2098.25 377.459 L2098.25 380.769 L2073.62 380.769 L2073.62 377.459 L2098.25 377.459 Z" fill="#000000" fill-rule="nonzero" fill-opacity="1" /><path clip-path="url(#clip830)" d="M2102.44 335.029 L2107.12 335.029 L2107.12 369.589 L2102.44 369.589 L2102.44 335.029 Z" fill="#000000" fill-rule="nonzero" fill-opacity="1" /><path clip-path="url(#clip830)" d="M2137.79 353.941 L2137.79 369.589 L2133.53 369.589 L2133.53 354.079 Q2133.53 350.399 2132.09 348.57 Q2130.66 346.742 2127.79 346.742 Q2124.34 346.742 2122.35 348.941 Q2120.36 351.14 2120.36 354.936 L2120.36 369.589 L2116.07 369.589 L2116.07 343.663 L2120.36 343.663 L2120.36 347.691 Q2121.88 345.353 2123.94 344.195 Q2126.03 343.038 2128.74 343.038 Q2133.2 343.038 2135.5 345.816 Q2137.79 348.57 2137.79 353.941 Z" fill="#000000" fill-rule="nonzero" fill-opacity="1" /><path clip-path="url(#clip830)" d="M2150.5 336.302 L2150.5 343.663 L2159.27 343.663 L2159.27 346.973 L2150.5 346.973 L2150.5 361.047 Q2150.5 364.218 2151.35 365.121 Q2152.23 366.024 2154.89 366.024 L2159.27 366.024 L2159.27 369.589 L2154.89 369.589 Q2149.96 369.589 2148.09 367.76 Q2146.21 365.908 2146.21 361.047 L2146.21 346.973 L2143.09 346.973 L2143.09 343.663 L2146.21 343.663 L2146.21 336.302 L2150.5 336.302 Z" fill="#000000" fill-rule="nonzero" fill-opacity="1" /><polyline clip-path="url(#clip830)" style="stroke:#00a9ad; stroke-linecap:round; stroke-linejoin:round; stroke-width:4; stroke-opacity:1; fill:none" points="1820.89,404.149 1959.28,404.149 "/>
<path clip-path="url(#clip830)" d="M1890.09 425.505 L1874.99 419.248 L1868.73 404.149 L1874.99 389.049 L1890.09 382.792 L1905.19 389.049 L1911.44 404.149 L1905.19 419.248 Z" fill="#00a9ad" fill-rule="evenodd" fill-opacity="1" stroke="#000000" stroke-opacity="1" stroke-width="4.55111"/>
<path clip-path="url(#clip830)" d="M1982.35 386.869 L2011.58 386.869 L2011.58 390.804 L1999.32 390.804 L1999.32 421.429 L1994.62 421.429 L1994.62 390.804 L1982.35 390.804 L1982.35 386.869 Z" fill="#000000" fill-rule="nonzero" fill-opacity="1" /><path clip-path="url(#clip830)" d="M2010.47 386.869 L2039.71 386.869 L2039.71 390.804 L2027.44 390.804 L2027.44 421.429 L2022.74 421.429 L2022.74 390.804 L2010.47 390.804 L2010.47 386.869 Z" fill="#000000" fill-rule="nonzero" fill-opacity="1" /><path clip-path="url(#clip830)" d="M2038.6 386.869 L2067.83 386.869 L2067.83 390.804 L2055.57 390.804 L2055.57 421.429 L2050.87 421.429 L2050.87 390.804 L2038.6 390.804 L2038.6 386.869 Z" fill="#000000" fill-rule="nonzero" fill-opacity="1" /><path clip-path="url(#clip830)" d="M2072.35 386.869 L2078.64 386.869 L2093.97 415.781 L2093.97 386.869 L2098.5 386.869 L2098.5 421.429 L2092.21 421.429 L2076.88 392.517 L2076.88 421.429 L2072.35 421.429 L2072.35 386.869 Z" fill="#000000" fill-rule="nonzero" fill-opacity="1" /></svg>
