<?xml version="1.0" encoding="utf-8"?>
<svg xmlns="http://www.w3.org/2000/svg" xmlns:xlink="http://www.w3.org/1999/xlink" width="600" height="400" viewBox="0 0 2400 1600">
<defs>
  <clipPath id="clip990">
    <rect x="0" y="0" width="2400" height="1600"/>
  </clipPath>
</defs>
<path clip-path="url(#clip990)" d="M0 1600 L2400 1600 L2400 8.88178e-14 L0 8.88178e-14  Z" fill="#ffffff" fill-rule="evenodd" fill-opacity="1"/>
<defs>
  <clipPath id="clip991">
    <rect x="480" y="0" width="1681" height="1600"/>
  </clipPath>
</defs>
<path clip-path="url(#clip990)" d="M251.56 1423.18 L2352.76 1423.18 L2352.76 47.2441 L251.56 47.2441  Z" fill="#ffffff" fill-rule="evenodd" fill-opacity="1"/>
<defs>
  <clipPath id="clip992">
    <rect x="251" y="47" width="2102" height="1377"/>
  </clipPath>
</defs>
<polyline clip-path="url(#clip992)" style="stroke:#000000; stroke-linecap:round; stroke-linejoin:round; stroke-width:2; stroke-opacity:0.1; fill:none" points="619.38,1423.18 619.38,47.2441 "/>
<polyline clip-path="url(#clip992)" style="stroke:#000000; stroke-linecap:round; stroke-linejoin:round; stroke-width:2; stroke-opacity:0.1; fill:none" points="1059.88,1423.18 1059.88,47.2441 "/>
<polyline clip-path="url(#clip992)" style="stroke:#000000; stroke-linecap:round; stroke-linejoin:round; stroke-width:2; stroke-opacity:0.1; fill:none" points="1500.38,1423.18 1500.38,47.2441 "/>
<polyline clip-path="url(#clip992)" style="stroke:#000000; stroke-linecap:round; stroke-linejoin:round; stroke-width:2; stroke-opacity:0.1; fill:none" points="1940.89,1423.18 1940.89,47.2441 "/>
<polyline clip-path="url(#clip992)" style="stroke:#000000; stroke-linecap:round; stroke-linejoin:round; stroke-width:2; stroke-opacity:0.1; fill:none" points="251.56,1003.19 2352.76,1003.19 "/>
<polyline clip-path="url(#clip992)" style="stroke:#000000; stroke-linecap:round; stroke-linejoin:round; stroke-width:2; stroke-opacity:0.1; fill:none" points="251.56,172.476 2352.76,172.476 "/>
<polyline clip-path="url(#clip990)" style="stroke:#000000; stroke-linecap:round; stroke-linejoin:round; stroke-width:4; stroke-opacity:1; fill:none" points="251.56,1423.18 2352.76,1423.18 "/>
<polyline clip-path="url(#clip990)" style="stroke:#000000; stroke-linecap:round; stroke-linejoin:round; stroke-width:4; stroke-opacity:1; fill:none" points="619.38,1423.18 619.38,1404.28 "/>
<polyline clip-path="url(#clip990)" style="stroke:#000000; stroke-linecap:round; stroke-linejoin:round; stroke-width:4; stroke-opacity:1; fill:none" points="1059.88,1423.18 1059.88,1404.28 "/>
<polyline clip-path="url(#clip990)" style="stroke:#000000; stroke-linecap:round; stroke-linejoin:round; stroke-width:4; stroke-opacity:1; fill:none" points="1500.38,1423.18 1500.38,1404.28 "/>
<polyline clip-path="url(#clip990)" style="stroke:#000000; stroke-linecap:round; stroke-linejoin:round; stroke-width:4; stroke-opacity:1; fill:none" points="1940.89,1423.18 1940.89,1404.28 "/>
<path clip-path="url(#clip990)" d="M594.067 1481.64 L601.706 1481.64 L601.706 1455.28 L593.396 1456.95 L593.396 1452.69 L601.66 1451.02 L606.336 1451.02 L606.336 1481.64 L613.975 1481.64 L613.975 1485.58 L594.067 1485.58 L594.067 1481.64 Z" fill="#000000" fill-rule="nonzero" fill-opacity="1" /><path clip-path="url(#clip990)" d="M633.419 1454.1 Q629.808 1454.1 627.979 1457.66 Q626.174 1461.2 626.174 1468.33 Q626.174 1475.44 627.979 1479.01 Q629.808 1482.55 633.419 1482.55 Q637.053 1482.55 638.859 1479.01 Q640.687 1475.44 640.687 1468.33 Q640.687 1461.2 638.859 1457.66 Q637.053 1454.1 633.419 1454.1 M633.419 1450.39 Q639.229 1450.39 642.285 1455 Q645.363 1459.58 645.363 1468.33 Q645.363 1477.06 642.285 1481.67 Q639.229 1486.25 633.419 1486.25 Q627.609 1486.25 624.53 1481.67 Q621.475 1477.06 621.475 1468.33 Q621.475 1459.58 624.53 1455 Q627.609 1450.39 633.419 1450.39 Z" fill="#000000" fill-rule="nonzero" fill-opacity="1" /><path clip-path="url(#clip990)" d="M1038.66 1481.64 L1054.97 1481.64 L1054.97 1485.58 L1033.03 1485.58 L1033.03 1481.64 Q1035.69 1478.89 1040.28 1474.26 Q1044.88 1469.61 1046.06 1468.27 Q1048.31 1465.74 1049.19 1464.01 Q1050.09 1462.25 1050.09 1460.56 Q1050.09 1457.8 1048.15 1456.07 Q1046.22 1454.33 1043.12 1454.33 Q1040.92 1454.33 1038.47 1455.09 Q1036.04 1455.86 1033.26 1457.41 L1033.26 1452.69 Q1036.09 1451.55 1038.54 1450.97 Q1040.99 1450.39 1043.03 1450.39 Q1048.4 1450.39 1051.59 1453.08 Q1054.79 1455.77 1054.79 1460.26 Q1054.79 1462.39 1053.98 1464.31 Q1053.19 1466.2 1051.09 1468.8 Q1050.51 1469.47 1047.41 1472.69 Q1044.3 1475.88 1038.66 1481.64 Z" fill="#000000" fill-rule="nonzero" fill-opacity="1" /><path clip-path="url(#clip990)" d="M1074.79 1454.1 Q1071.18 1454.1 1069.35 1457.66 Q1067.54 1461.2 1067.54 1468.33 Q1067.54 1475.44 1069.35 1479.01 Q1071.18 1482.55 1074.79 1482.55 Q1078.42 1482.55 1080.23 1479.01 Q1082.06 1475.44 1082.06 1468.33 Q1082.06 1461.2 1080.23 1457.66 Q1078.42 1454.1 1074.79 1454.1 M1074.79 1450.39 Q1080.6 1450.39 1083.65 1455 Q1086.73 1459.58 1086.73 1468.33 Q1086.73 1477.06 1083.65 1481.67 Q1080.6 1486.25 1074.79 1486.25 Q1068.98 1486.25 1065.9 1481.67 Q1062.84 1477.06 1062.84 1468.33 Q1062.84 1459.58 1065.9 1455 Q1068.98 1450.39 1074.79 1450.39 Z" fill="#000000" fill-rule="nonzero" fill-opacity="1" /><path clip-path="url(#clip990)" d="M1489.23 1466.95 Q1492.58 1467.66 1494.46 1469.93 Q1496.36 1472.2 1496.36 1475.53 Q1496.36 1480.65 1492.84 1483.45 Q1489.32 1486.25 1482.84 1486.25 Q1480.66 1486.25 1478.35 1485.81 Q1476.06 1485.39 1473.6 1484.54 L1473.6 1480.02 Q1475.55 1481.16 1477.86 1481.74 Q1480.18 1482.32 1482.7 1482.32 Q1487.1 1482.32 1489.39 1480.58 Q1491.7 1478.84 1491.7 1475.53 Q1491.7 1472.48 1489.55 1470.77 Q1487.42 1469.03 1483.6 1469.03 L1479.57 1469.03 L1479.57 1465.19 L1483.79 1465.19 Q1487.24 1465.19 1489.06 1463.82 Q1490.89 1462.43 1490.89 1459.84 Q1490.89 1457.18 1489 1455.77 Q1487.12 1454.33 1483.6 1454.33 Q1481.68 1454.33 1479.48 1454.75 Q1477.28 1455.16 1474.64 1456.04 L1474.64 1451.88 Q1477.31 1451.14 1479.62 1450.77 Q1481.96 1450.39 1484.02 1450.39 Q1489.34 1450.39 1492.44 1452.83 Q1495.55 1455.23 1495.55 1459.35 Q1495.55 1462.22 1493.9 1464.21 Q1492.26 1466.18 1489.23 1466.95 Z" fill="#000000" fill-rule="nonzero" fill-opacity="1" /><path clip-path="url(#clip990)" d="M1515.22 1454.1 Q1511.61 1454.1 1509.78 1457.66 Q1507.98 1461.2 1507.98 1468.33 Q1507.98 1475.44 1509.78 1479.01 Q1511.61 1482.55 1515.22 1482.55 Q1518.86 1482.55 1520.66 1479.01 Q1522.49 1475.44 1522.49 1468.33 Q1522.49 1461.2 1520.66 1457.66 Q1518.86 1454.1 1515.22 1454.1 M1515.22 1450.39 Q1521.03 1450.39 1524.09 1455 Q1527.17 1459.58 1527.17 1468.33 Q1527.17 1477.06 1524.09 1481.67 Q1521.03 1486.25 1515.22 1486.25 Q1509.41 1486.25 1506.33 1481.67 Q1503.28 1477.06 1503.28 1468.33 Q1503.28 1459.58 1506.33 1455 Q1509.41 1450.39 1515.22 1450.39 Z" fill="#000000" fill-rule="nonzero" fill-opacity="1" /><path clip-path="url(#clip990)" d="M1929.06 1455.09 L1917.25 1473.54 L1929.06 1473.54 L1929.06 1455.09 M1927.83 1451.02 L1933.71 1451.02 L1933.71 1473.54 L1938.64 1473.54 L1938.64 1477.43 L1933.71 1477.43 L1933.71 1485.58 L1929.06 1485.58 L1929.06 1477.43 L1913.46 1477.43 L1913.46 1472.92 L1927.83 1451.02 Z" fill="#000000" fill-rule="nonzero" fill-opacity="1" /><path clip-path="url(#clip990)" d="M1956.37 1454.1 Q1952.76 1454.1 1950.93 1457.66 Q1949.13 1461.2 1949.13 1468.33 Q1949.13 1475.44 1950.93 1479.01 Q1952.76 1482.55 1956.37 1482.55 Q1960.01 1482.55 1961.81 1479.01 Q1963.64 1475.44 1963.64 1468.33 Q1963.64 1461.2 1961.81 1457.66 Q1960.01 1454.1 1956.37 1454.1 M1956.37 1450.39 Q1962.18 1450.39 1965.24 1455 Q1968.32 1459.58 1968.32 1468.33 Q1968.32 1477.06 1965.24 1481.67 Q1962.18 1486.25 1956.37 1486.25 Q1950.56 1486.25 1947.48 1481.67 Q1944.43 1477.06 1944.43 1468.33 Q1944.43 1459.58 1947.48 1455 Q1950.56 1450.39 1956.37 1450.39 Z" fill="#000000" fill-rule="nonzero" fill-opacity="1" /><path clip-path="url(#clip990)" d="M969.216 1520.52 L978.796 1520.52 L990.923 1552.86 L1003.11 1520.52 L1012.69 1520.52 L1012.69 1568.04 L1006.42 1568.04 L1006.42 1526.32 L994.169 1558.91 L987.708 1558.91 L975.454 1526.32 L975.454 1568.04 L969.216 1568.04 L969.216 1520.52 Z" fill="#000000" fill-rule="nonzero" fill-opacity="1" /><path clip-path="url(#clip990)" d="M1041.4 1550.12 Q1034.31 1550.12 1031.57 1551.75 Q1028.83 1553.37 1028.83 1557.29 Q1028.83 1560.4 1030.87 1562.25 Q1032.94 1564.07 1036.47 1564.07 Q1041.34 1564.07 1044.27 1560.63 Q1047.23 1557.16 1047.23 1551.43 L1047.23 1550.12 L1041.4 1550.12 M1053.08 1547.71 L1053.08 1568.04 L1047.23 1568.04 L1047.23 1562.63 Q1045.22 1565.88 1042.23 1567.44 Q1039.24 1568.97 1034.91 1568.97 Q1029.44 1568.97 1026.19 1565.91 Q1022.97 1562.82 1022.97 1557.67 Q1022.97 1551.65 1026.98 1548.6 Q1031.03 1545.54 1039.02 1545.54 L1047.23 1545.54 L1047.23 1544.97 Q1047.23 1540.93 1044.55 1538.73 Q1041.91 1536.5 1037.11 1536.5 Q1034.05 1536.5 1031.15 1537.23 Q1028.26 1537.97 1025.58 1539.43 L1025.58 1534.02 Q1028.8 1532.78 1031.82 1532.17 Q1034.85 1531.54 1037.71 1531.54 Q1045.45 1531.54 1049.26 1535.55 Q1053.08 1539.56 1053.08 1547.71 Z" fill="#000000" fill-rule="nonzero" fill-opacity="1" /><path clip-path="url(#clip990)" d="M1094.78 1532.4 L1081.89 1549.74 L1095.45 1568.04 L1088.54 1568.04 L1078.16 1554.04 L1067.79 1568.04 L1060.88 1568.04 L1074.73 1549.39 L1062.06 1532.4 L1068.97 1532.4 L1078.42 1545.1 L1087.87 1532.4 L1094.78 1532.4 Z" fill="#000000" fill-rule="nonzero" fill-opacity="1" /><path clip-path="url(#clip990)" d="M1150.03 1550.25 Q1150.03 1543.79 1147.36 1540.13 Q1144.72 1536.44 1140.07 1536.44 Q1135.42 1536.44 1132.75 1540.13 Q1130.11 1543.79 1130.11 1550.25 Q1130.11 1556.71 1132.75 1560.4 Q1135.42 1564.07 1140.07 1564.07 Q1144.72 1564.07 1147.36 1560.4 Q1150.03 1556.71 1150.03 1550.25 M1130.11 1537.81 Q1131.95 1534.62 1134.76 1533.1 Q1137.59 1531.54 1141.5 1531.54 Q1148 1531.54 1152.04 1536.69 Q1156.11 1541.85 1156.11 1550.25 Q1156.11 1558.65 1152.04 1563.81 Q1148 1568.97 1141.5 1568.97 Q1137.59 1568.97 1134.76 1567.44 Q1131.95 1565.88 1130.11 1562.7 L1130.11 1568.04 L1124.22 1568.04 L1124.22 1518.52 L1130.11 1518.52 L1130.11 1537.81 Z" fill="#000000" fill-rule="nonzero" fill-opacity="1" /><path clip-path="url(#clip990)" d="M1179.63 1536.5 Q1174.92 1536.5 1172.19 1540.19 Q1169.45 1543.85 1169.45 1550.25 Q1169.45 1556.65 1172.15 1560.34 Q1174.89 1564 1179.63 1564 Q1184.31 1564 1187.05 1560.31 Q1189.79 1556.62 1189.79 1550.25 Q1189.79 1543.92 1187.05 1540.23 Q1184.31 1536.5 1179.63 1536.5 M1179.63 1531.54 Q1187.27 1531.54 1191.63 1536.5 Q1195.99 1541.47 1195.99 1550.25 Q1195.99 1559 1191.63 1564 Q1187.27 1568.97 1179.63 1568.97 Q1171.96 1568.97 1167.6 1564 Q1163.27 1559 1163.27 1550.25 Q1163.27 1541.47 1167.6 1536.5 Q1171.96 1531.54 1179.63 1531.54 Z" fill="#000000" fill-rule="nonzero" fill-opacity="1" /><path clip-path="url(#clip990)" d="M1235.33 1546.53 L1235.33 1568.04 L1229.48 1568.04 L1229.48 1546.72 Q1229.48 1541.66 1227.5 1539.14 Q1225.53 1536.63 1221.58 1536.63 Q1216.84 1536.63 1214.1 1539.65 Q1211.37 1542.68 1211.37 1547.9 L1211.37 1568.04 L1205.48 1568.04 L1205.48 1532.4 L1211.37 1532.4 L1211.37 1537.93 Q1213.47 1534.72 1216.3 1533.13 Q1219.17 1531.54 1222.89 1531.54 Q1229.03 1531.54 1232.18 1535.36 Q1235.33 1539.14 1235.33 1546.53 Z" fill="#000000" fill-rule="nonzero" fill-opacity="1" /><path clip-path="url(#clip990)" d="M1270.47 1537.81 L1270.47 1518.52 L1276.33 1518.52 L1276.33 1568.04 L1270.47 1568.04 L1270.47 1562.7 Q1268.63 1565.88 1265.79 1567.44 Q1262.99 1568.97 1259.05 1568.97 Q1252.59 1568.97 1248.51 1563.81 Q1244.47 1558.65 1244.47 1550.25 Q1244.47 1541.85 1248.51 1536.69 Q1252.59 1531.54 1259.05 1531.54 Q1262.99 1531.54 1265.79 1533.1 Q1268.63 1534.62 1270.47 1537.81 M1250.52 1550.25 Q1250.52 1556.71 1253.16 1560.4 Q1255.83 1564.07 1260.48 1564.07 Q1265.13 1564.07 1267.8 1560.4 Q1270.47 1556.71 1270.47 1550.25 Q1270.47 1543.79 1267.8 1540.13 Q1265.13 1536.44 1260.48 1536.44 Q1255.83 1536.44 1253.16 1540.13 Q1250.52 1543.79 1250.52 1550.25 Z" fill="#000000" fill-rule="nonzero" fill-opacity="1" /><path clip-path="url(#clip990)" d="M1332.57 1537.81 L1332.57 1518.52 L1338.43 1518.52 L1338.43 1568.04 L1332.57 1568.04 L1332.57 1562.7 Q1330.72 1565.88 1327.89 1567.44 Q1325.09 1568.97 1321.14 1568.97 Q1314.68 1568.97 1310.61 1563.81 Q1306.57 1558.65 1306.57 1550.25 Q1306.57 1541.85 1310.61 1536.69 Q1314.68 1531.54 1321.14 1531.54 Q1325.09 1531.54 1327.89 1533.1 Q1330.72 1534.62 1332.57 1537.81 M1312.61 1550.25 Q1312.61 1556.71 1315.26 1560.4 Q1317.93 1564.07 1322.58 1564.07 Q1327.22 1564.07 1329.9 1560.4 Q1332.57 1556.71 1332.57 1550.25 Q1332.57 1543.79 1329.9 1540.13 Q1327.22 1536.44 1322.58 1536.44 Q1317.93 1536.44 1315.26 1540.13 Q1312.61 1543.79 1312.61 1550.25 Z" fill="#000000" fill-rule="nonzero" fill-opacity="1" /><path clip-path="url(#clip990)" d="M1350.49 1532.4 L1356.35 1532.4 L1356.35 1568.04 L1350.49 1568.04 L1350.49 1532.4 M1350.49 1518.52 L1356.35 1518.52 L1356.35 1525.93 L1350.49 1525.93 L1350.49 1518.52 Z" fill="#000000" fill-rule="nonzero" fill-opacity="1" /><path clip-path="url(#clip990)" d="M1396.35 1539.24 Q1398.55 1535.29 1401.61 1533.41 Q1404.66 1531.54 1408.8 1531.54 Q1414.37 1531.54 1417.39 1535.45 Q1420.42 1539.33 1420.42 1546.53 L1420.42 1568.04 L1414.53 1568.04 L1414.53 1546.72 Q1414.53 1541.59 1412.71 1539.11 Q1410.9 1536.63 1407.18 1536.63 Q1402.62 1536.63 1399.98 1539.65 Q1397.34 1542.68 1397.34 1547.9 L1397.34 1568.04 L1391.45 1568.04 L1391.45 1546.72 Q1391.45 1541.56 1389.64 1539.11 Q1387.82 1536.63 1384.04 1536.63 Q1379.55 1536.63 1376.91 1539.68 Q1374.27 1542.71 1374.27 1547.9 L1374.27 1568.04 L1368.38 1568.04 L1368.38 1532.4 L1374.27 1532.4 L1374.27 1537.93 Q1376.27 1534.66 1379.07 1533.1 Q1381.87 1531.54 1385.72 1531.54 Q1389.61 1531.54 1392.31 1533.51 Q1395.05 1535.48 1396.35 1539.24 Z" fill="#000000" fill-rule="nonzero" fill-opacity="1" /><path clip-path="url(#clip990)" d="M1462.59 1548.76 L1462.59 1551.62 L1435.66 1551.62 Q1436.04 1557.67 1439.29 1560.85 Q1442.57 1564 1448.39 1564 Q1451.77 1564 1454.92 1563.17 Q1458.1 1562.35 1461.22 1560.69 L1461.22 1566.23 Q1458.07 1567.57 1454.76 1568.27 Q1451.45 1568.97 1448.04 1568.97 Q1439.51 1568.97 1434.52 1564 Q1429.55 1559.04 1429.55 1550.57 Q1429.55 1541.82 1434.26 1536.69 Q1439 1531.54 1447.03 1531.54 Q1454.22 1531.54 1458.39 1536.18 Q1462.59 1540.8 1462.59 1548.76 M1456.73 1547.04 Q1456.67 1542.23 1454.03 1539.37 Q1451.42 1536.5 1447.09 1536.5 Q1442.19 1536.5 1439.23 1539.27 Q1436.3 1542.04 1435.85 1547.07 L1456.73 1547.04 Z" fill="#000000" fill-rule="nonzero" fill-opacity="1" /><path clip-path="url(#clip990)" d="M1501.83 1546.53 L1501.83 1568.04 L1495.98 1568.04 L1495.98 1546.72 Q1495.98 1541.66 1494 1539.14 Q1492.03 1536.63 1488.08 1536.63 Q1483.34 1536.63 1480.6 1539.65 Q1477.87 1542.68 1477.87 1547.9 L1477.87 1568.04 L1471.98 1568.04 L1471.98 1532.4 L1477.87 1532.4 L1477.87 1537.93 Q1479.97 1534.72 1482.8 1533.13 Q1485.67 1531.54 1489.39 1531.54 Q1495.53 1531.54 1498.68 1535.36 Q1501.83 1539.14 1501.83 1546.53 Z" fill="#000000" fill-rule="nonzero" fill-opacity="1" /><path clip-path="url(#clip990)" d="M1536.24 1533.45 L1536.24 1538.98 Q1533.76 1537.71 1531.08 1537.07 Q1528.41 1536.44 1525.55 1536.44 Q1521.19 1536.44 1518.99 1537.77 Q1516.83 1539.11 1516.83 1541.79 Q1516.83 1543.82 1518.39 1545 Q1519.94 1546.15 1524.66 1547.2 L1526.66 1547.64 Q1532.9 1548.98 1535.51 1551.43 Q1538.15 1553.85 1538.15 1558.21 Q1538.15 1563.17 1534.2 1566.07 Q1530.29 1568.97 1523.41 1568.97 Q1520.55 1568.97 1517.43 1568.39 Q1514.34 1567.85 1510.91 1566.74 L1510.91 1560.69 Q1514.15 1562.38 1517.3 1563.24 Q1520.45 1564.07 1523.54 1564.07 Q1527.68 1564.07 1529.91 1562.66 Q1532.14 1561.23 1532.14 1558.65 Q1532.14 1556.27 1530.51 1554.99 Q1528.92 1553.72 1523.48 1552.54 L1521.44 1552.07 Q1516 1550.92 1513.58 1548.56 Q1511.16 1546.18 1511.16 1542.04 Q1511.16 1537.01 1514.72 1534.27 Q1518.29 1531.54 1524.85 1531.54 Q1528.09 1531.54 1530.96 1532.01 Q1533.82 1532.49 1536.24 1533.45 Z" fill="#000000" fill-rule="nonzero" fill-opacity="1" /><path clip-path="url(#clip990)" d="M1547.48 1532.4 L1553.33 1532.4 L1553.33 1568.04 L1547.48 1568.04 L1547.48 1532.4 M1547.48 1518.52 L1553.33 1518.52 L1553.33 1525.93 L1547.48 1525.93 L1547.48 1518.52 Z" fill="#000000" fill-rule="nonzero" fill-opacity="1" /><path clip-path="url(#clip990)" d="M1579.4 1536.5 Q1574.69 1536.5 1571.95 1540.19 Q1569.22 1543.85 1569.22 1550.25 Q1569.22 1556.65 1571.92 1560.34 Q1574.66 1564 1579.4 1564 Q1584.08 1564 1586.82 1560.31 Q1589.55 1556.62 1589.55 1550.25 Q1589.55 1543.92 1586.82 1540.23 Q1584.08 1536.5 1579.4 1536.5 M1579.4 1531.54 Q1587.04 1531.54 1591.4 1536.5 Q1595.76 1541.47 1595.76 1550.25 Q1595.76 1559 1591.4 1564 Q1587.04 1568.97 1579.4 1568.97 Q1571.73 1568.97 1567.37 1564 Q1563.04 1559 1563.04 1550.25 Q1563.04 1541.47 1567.37 1536.5 Q1571.73 1531.54 1579.4 1531.54 Z" fill="#000000" fill-rule="nonzero" fill-opacity="1" /><path clip-path="url(#clip990)" d="M1635.1 1546.53 L1635.1 1568.04 L1629.24 1568.04 L1629.24 1546.72 Q1629.24 1541.66 1627.27 1539.14 Q1625.3 1536.63 1621.35 1536.63 Q1616.61 1536.63 1613.87 1539.65 Q1611.13 1542.68 1611.13 1547.9 L1611.13 1568.04 L1605.25 1568.04 L1605.25 1532.4 L1611.13 1532.4 L1611.13 1537.93 Q1613.23 1534.72 1616.07 1533.13 Q1618.93 1531.54 1622.66 1531.54 Q1628.8 1531.54 1631.95 1535.36 Q1635.1 1539.14 1635.1 1546.53 Z" fill="#000000" fill-rule="nonzero" fill-opacity="1" /><polyline clip-path="url(#clip990)" style="stroke:#000000; stroke-linecap:round; stroke-linejoin:round; stroke-width:4; stroke-opacity:1; fill:none" points="251.56,1423.18 251.56,47.2441 "/>
<polyline clip-path="url(#clip990)" style="stroke:#000000; stroke-linecap:round; stroke-linejoin:round; stroke-width:4; stroke-opacity:1; fill:none" points="251.56,1003.19 270.458,1003.19 "/>
<polyline clip-path="url(#clip990)" style="stroke:#000000; stroke-linecap:round; stroke-linejoin:round; stroke-width:4; stroke-opacity:1; fill:none" points="251.56,172.476 270.458,172.476 "/>
<path clip-path="url(#clip990)" d="M114.931 1022.98 L122.57 1022.98 L122.57 996.612 L114.26 998.279 L114.26 994.02 L122.524 992.353 L127.2 992.353 L127.2 1022.98 L134.839 1022.98 L134.839 1026.91 L114.931 1026.91 L114.931 1022.98 Z" fill="#000000" fill-rule="nonzero" fill-opacity="1" /><path clip-path="url(#clip990)" d="M154.283 995.432 Q150.672 995.432 148.843 998.997 Q147.038 1002.54 147.038 1009.67 Q147.038 1016.77 148.843 1020.34 Q150.672 1023.88 154.283 1023.88 Q157.917 1023.88 159.723 1020.34 Q161.552 1016.77 161.552 1009.67 Q161.552 1002.54 159.723 998.997 Q157.917 995.432 154.283 995.432 M154.283 991.728 Q160.093 991.728 163.149 996.335 Q166.227 1000.92 166.227 1009.67 Q166.227 1018.39 163.149 1023 Q160.093 1027.58 154.283 1027.58 Q148.473 1027.58 145.394 1023 Q142.339 1018.39 142.339 1009.67 Q142.339 1000.92 145.394 996.335 Q148.473 991.728 154.283 991.728 Z" fill="#000000" fill-rule="nonzero" fill-opacity="1" /><path clip-path="url(#clip990)" d="M166.227 985.83 L190.339 985.83 L190.339 989.027 L166.227 989.027 L166.227 985.83 Z" fill="#000000" fill-rule="nonzero" fill-opacity="1" /><path clip-path="url(#clip990)" d="M198.577 971.423 L213.491 971.423 L213.491 974.62 L202.056 974.62 L202.056 981.504 Q202.884 981.222 203.711 981.09 Q204.539 980.94 205.366 980.94 Q210.068 980.94 212.814 983.516 Q215.56 986.093 215.56 990.494 Q215.56 995.027 212.739 997.547 Q209.918 1000.05 204.783 1000.05 Q203.015 1000.05 201.172 999.747 Q199.348 999.446 197.392 998.845 L197.392 995.027 Q199.085 995.948 200.89 996.4 Q202.696 996.851 204.708 996.851 Q207.962 996.851 209.861 995.139 Q211.761 993.428 211.761 990.494 Q211.761 987.56 209.861 985.848 Q207.962 984.137 204.708 984.137 Q203.185 984.137 201.661 984.475 Q200.157 984.814 198.577 985.529 L198.577 971.423 Z" fill="#000000" fill-rule="nonzero" fill-opacity="1" /><path clip-path="url(#clip990)" d="M144.855 192.268 L152.493 192.268 L152.493 165.903 L144.183 167.569 L144.183 163.31 L152.447 161.643 L157.123 161.643 L157.123 192.268 L164.762 192.268 L164.762 196.203 L144.855 196.203 L144.855 192.268 Z" fill="#000000" fill-rule="nonzero" fill-opacity="1" /><path clip-path="url(#clip990)" d="M184.206 164.722 Q180.595 164.722 178.766 168.287 Q176.961 171.828 176.961 178.958 Q176.961 186.064 178.766 189.629 Q180.595 193.171 184.206 193.171 Q187.84 193.171 189.646 189.629 Q191.475 186.064 191.475 178.958 Q191.475 171.828 189.646 168.287 Q187.84 164.722 184.206 164.722 M184.206 161.018 Q190.016 161.018 193.072 165.625 Q196.151 170.208 196.151 178.958 Q196.151 187.685 193.072 192.291 Q190.016 196.875 184.206 196.875 Q178.396 196.875 175.317 192.291 Q172.262 187.685 172.262 178.958 Q172.262 170.208 175.317 165.625 Q178.396 161.018 184.206 161.018 Z" fill="#000000" fill-rule="nonzero" fill-opacity="1" /><path clip-path="url(#clip990)" d="M205.855 143.214 Q202.921 143.214 201.436 146.111 Q199.969 148.988 199.969 154.781 Q199.969 160.555 201.436 163.451 Q202.921 166.329 205.855 166.329 Q208.808 166.329 210.275 163.451 Q211.761 160.555 211.761 154.781 Q211.761 148.988 210.275 146.111 Q208.808 143.214 205.855 143.214 M205.855 140.205 Q210.576 140.205 213.059 143.948 Q215.56 147.672 215.56 154.781 Q215.56 161.872 213.059 165.614 Q210.576 169.338 205.855 169.338 Q201.135 169.338 198.633 165.614 Q196.151 161.872 196.151 154.781 Q196.151 147.672 198.633 143.948 Q201.135 140.205 205.855 140.205 Z" fill="#000000" fill-rule="nonzero" fill-opacity="1" /><path clip-path="url(#clip990)" d="M18.0438 984.429 L24.314 984.429 Q22.5634 988.09 21.704 991.336 Q20.8447 994.583 20.8447 997.606 Q20.8447 1002.86 22.8817 1005.72 Q24.9187 1008.56 28.6745 1008.56 Q31.8255 1008.56 33.4488 1006.68 Q35.0402 1004.77 36.0269 999.484 L36.8226 995.601 Q38.1912 988.408 41.6605 985.002 Q45.098 981.565 50.8908 981.565 Q57.7976 981.565 61.3624 986.212 Q64.9272 990.827 64.9272 999.771 Q64.9272 1003.14 64.1633 1006.96 Q63.3994 1010.75 61.9035 1014.83 L55.2831 1014.83 Q57.4793 1010.91 58.5933 1007.15 Q59.7073 1003.4 59.7073 999.771 Q59.7073 994.264 57.543 991.273 Q55.3786 988.281 51.3682 988.281 Q47.8671 988.281 45.8937 990.445 Q43.9204 992.577 42.9337 997.479 L42.1698 1001.39 Q40.7375 1008.59 37.682 1011.8 Q34.6264 1015.02 29.1837 1015.02 Q22.8817 1015.02 19.2532 1010.59 Q15.6248 1006.14 15.6248 998.338 Q15.6248 994.996 16.2295 991.527 Q16.8343 988.058 18.0438 984.429 Z" fill="#000000" fill-rule="nonzero" fill-opacity="1" /><path clip-path="url(#clip990)" d="M46.0847 955.593 Q46.0847 962.69 47.7079 965.428 Q49.3312 968.165 53.2461 968.165 Q56.3653 968.165 58.2114 966.128 Q60.0256 964.059 60.0256 960.526 Q60.0256 955.656 56.5881 952.728 Q53.1188 949.768 47.3897 949.768 L46.0847 949.768 L46.0847 955.593 M43.6657 943.912 L64.0042 943.912 L64.0042 949.768 L58.5933 949.768 Q61.8398 951.773 63.3994 954.765 Q64.9272 957.757 64.9272 962.086 Q64.9272 967.56 61.8716 970.807 Q58.7843 974.021 53.6281 974.021 Q47.6125 974.021 44.5569 970.011 Q41.5014 965.969 41.5014 957.98 L41.5014 949.768 L40.9285 949.768 Q36.8862 949.768 34.6901 952.442 Q32.4621 955.083 32.4621 959.89 Q32.4621 962.945 33.1941 965.842 Q33.9262 968.738 35.3903 971.412 L29.9795 971.412 Q28.7381 968.197 28.1334 965.173 Q27.4968 962.149 27.4968 959.285 Q27.4968 951.551 31.5072 947.731 Q35.5176 943.912 43.6657 943.912 Z" fill="#000000" fill-rule="nonzero" fill-opacity="1" /><path clip-path="url(#clip990)" d="M35.1993 904.094 Q31.2526 901.898 29.3747 898.842 Q27.4968 895.787 27.4968 891.649 Q27.4968 886.079 31.4117 883.056 Q35.2948 880.032 42.4881 880.032 L64.0042 880.032 L64.0042 885.92 L42.679 885.92 Q37.5546 885.92 35.072 887.734 Q32.5894 889.549 32.5894 893.272 Q32.5894 897.824 35.6131 900.466 Q38.6368 903.107 43.8567 903.107 L64.0042 903.107 L64.0042 908.996 L42.679 908.996 Q37.5228 908.996 35.072 910.81 Q32.5894 912.624 32.5894 916.412 Q32.5894 920.9 35.6449 923.541 Q38.6686 926.183 43.8567 926.183 L64.0042 926.183 L64.0042 932.071 L28.3562 932.071 L28.3562 926.183 L33.8944 926.183 Q30.616 924.178 29.0564 921.377 Q27.4968 918.576 27.4968 914.725 Q27.4968 910.842 29.4702 908.136 Q31.4436 905.399 35.1993 904.094 Z" fill="#000000" fill-rule="nonzero" fill-opacity="1" /><path clip-path="url(#clip990)" d="M58.657 862.685 L77.5631 862.685 L77.5631 868.574 L28.3562 868.574 L28.3562 862.685 L33.7671 862.685 Q30.5842 860.839 29.0564 858.038 Q27.4968 855.206 27.4968 851.291 Q27.4968 844.798 32.6531 840.755 Q37.8093 836.681 46.212 836.681 Q54.6147 836.681 59.771 840.755 Q64.9272 844.798 64.9272 851.291 Q64.9272 855.206 63.3994 858.038 Q61.8398 860.839 58.657 862.685 M46.212 842.761 Q39.7508 842.761 36.0905 845.434 Q32.3984 848.076 32.3984 852.723 Q32.3984 857.37 36.0905 860.043 Q39.7508 862.685 46.212 862.685 Q52.6732 862.685 56.3653 860.043 Q60.0256 857.37 60.0256 852.723 Q60.0256 848.076 56.3653 845.434 Q52.6732 842.761 46.212 842.761 Z" fill="#000000" fill-rule="nonzero" fill-opacity="1" /><path clip-path="url(#clip990)" d="M14.479 826.974 L14.479 821.117 L64.0042 821.117 L64.0042 826.974 L14.479 826.974 Z" fill="#000000" fill-rule="nonzero" fill-opacity="1" /><path clip-path="url(#clip990)" d="M44.7161 778.371 L47.5806 778.371 L47.5806 805.298 Q53.6281 804.916 56.8109 801.67 Q59.9619 798.392 59.9619 792.567 Q59.9619 789.193 59.1344 786.042 Q58.3069 782.859 56.6518 779.74 L62.1899 779.74 Q63.5267 782.891 64.227 786.201 Q64.9272 789.511 64.9272 792.917 Q64.9272 801.447 59.9619 806.444 Q54.9967 811.409 46.5303 811.409 Q37.7774 811.409 32.6531 806.699 Q27.4968 801.956 27.4968 793.936 Q27.4968 786.742 32.1438 782.573 Q36.7589 778.371 44.7161 778.371 M42.9973 784.228 Q38.1912 784.292 35.3266 786.933 Q32.4621 789.543 32.4621 793.872 Q32.4621 798.774 35.2312 801.734 Q38.0002 804.662 43.0292 805.107 L42.9973 784.228 Z" fill="#000000" fill-rule="nonzero" fill-opacity="1" /><path clip-path="url(#clip990)" d="M33.7671 745.302 L14.479 745.302 L14.479 739.445 L64.0042 739.445 L64.0042 745.302 L58.657 745.302 Q61.8398 747.148 63.3994 749.98 Q64.9272 752.781 64.9272 756.728 Q64.9272 763.189 59.771 767.263 Q54.6147 771.306 46.212 771.306 Q37.8093 771.306 32.6531 767.263 Q27.4968 763.189 27.4968 756.728 Q27.4968 752.781 29.0564 749.98 Q30.5842 747.148 33.7671 745.302 M46.212 765.258 Q52.6732 765.258 56.3653 762.616 Q60.0256 759.943 60.0256 755.296 Q60.0256 750.649 56.3653 747.975 Q52.6732 745.302 46.212 745.302 Q39.7508 745.302 36.0905 747.975 Q32.3984 750.649 32.3984 755.296 Q32.3984 759.943 36.0905 762.616 Q39.7508 765.258 46.212 765.258 Z" fill="#000000" fill-rule="nonzero" fill-opacity="1" /><path clip-path="url(#clip990)" d="M16.4842 706.407 L16.4842 699.978 L58.5933 699.978 L58.5933 676.838 L64.0042 676.838 L64.0042 706.407 L16.4842 706.407 Z" fill="#000000" fill-rule="nonzero" fill-opacity="1" /><path clip-path="url(#clip990)" d="M58.5933 668.404 L58.5933 657.9 L22.3406 657.9 L24.6323 669.327 L18.7758 669.327 L16.4842 657.964 L16.4842 651.535 L58.5933 651.535 L58.5933 641.031 L64.0042 641.031 L64.0042 668.404 L58.5933 668.404 Z" fill="#000000" fill-rule="nonzero" fill-opacity="1" /><path clip-path="url(#clip990)" d="M16.4842 607.898 L16.4842 577.852 L21.895 577.852 L21.895 601.468 L35.9632 601.468 L35.9632 578.838 L41.3741 578.838 L41.3741 601.468 L58.5933 601.468 L58.5933 577.279 L64.0042 577.279 L64.0042 607.898 L16.4842 607.898 Z" fill="#000000" fill-rule="nonzero" fill-opacity="1" /><path clip-path="url(#clip990)" d="M33.8307 546.31 Q33.2578 547.296 33.0032 548.474 Q32.7167 549.62 32.7167 551.02 Q32.7167 555.985 35.9632 558.659 Q39.1779 561.301 45.2253 561.301 L64.0042 561.301 L64.0042 567.189 L28.3562 567.189 L28.3562 561.301 L33.8944 561.301 Q30.6479 559.455 29.0883 556.495 Q27.4968 553.535 27.4968 549.302 Q27.4968 548.697 27.5923 547.965 Q27.656 547.233 27.8151 546.341 L33.8307 546.31 Z" fill="#000000" fill-rule="nonzero" fill-opacity="1" /><path clip-path="url(#clip990)" d="M33.8307 520.656 Q33.2578 521.643 33.0032 522.82 Q32.7167 523.966 32.7167 525.366 Q32.7167 530.332 35.9632 533.005 Q39.1779 535.647 45.2253 535.647 L64.0042 535.647 L64.0042 541.535 L28.3562 541.535 L28.3562 535.647 L33.8944 535.647 Q30.6479 533.801 29.0883 530.841 Q27.4968 527.881 27.4968 523.648 Q27.4968 523.043 27.5923 522.311 Q27.656 521.579 27.8151 520.688 L33.8307 520.656 Z" fill="#000000" fill-rule="nonzero" fill-opacity="1" /><path clip-path="url(#clip990)" d="M32.4621 502.132 Q32.4621 506.842 36.1542 509.579 Q39.8145 512.317 46.212 512.317 Q52.6095 512.317 56.3017 509.611 Q59.9619 506.874 59.9619 502.132 Q59.9619 497.453 56.2698 494.716 Q52.5777 491.978 46.212 491.978 Q39.8781 491.978 36.186 494.716 Q32.4621 497.453 32.4621 502.132 M27.4968 502.132 Q27.4968 494.493 32.4621 490.132 Q37.4273 485.772 46.212 485.772 Q54.9649 485.772 59.9619 490.132 Q64.9272 494.493 64.9272 502.132 Q64.9272 509.802 59.9619 514.163 Q54.9649 518.491 46.212 518.491 Q37.4273 518.491 32.4621 514.163 Q27.4968 509.802 27.4968 502.132 Z" fill="#000000" fill-rule="nonzero" fill-opacity="1" /><path clip-path="url(#clip990)" d="M33.8307 455.407 Q33.2578 456.394 33.0032 457.572 Q32.7167 458.718 32.7167 460.118 Q32.7167 465.083 35.9632 467.757 Q39.1779 470.399 45.2253 470.399 L64.0042 470.399 L64.0042 476.287 L28.3562 476.287 L28.3562 470.399 L33.8944 470.399 Q30.6479 468.553 29.0883 465.592 Q27.4968 462.632 27.4968 458.399 Q27.4968 457.794 27.5923 457.062 Q27.656 456.33 27.8151 455.439 L33.8307 455.407 Z" fill="#000000" fill-rule="nonzero" fill-opacity="1" /><polyline clip-path="url(#clip992)" style="stroke:#009af9; stroke-linecap:round; stroke-linejoin:round; stroke-width:4; stroke-opacity:1; fill:none" points="311.028,86.1857 443.179,90.8798 575.329,96.6289 707.48,102.199 839.631,112.869 971.781,130.038 1103.93,145.533 1236.08,168.475 1368.23,202.078 1500.38,249.436 1632.53,313.728 1764.69,365.9 1896.84,451.435 2028.99,544.828 2161.14,675.593 2293.29,908.146 "/>
<path clip-path="url(#clip992)" d="M311.028 102.186 L299.716 97.4977 L295.028 86.1857 L299.716 74.8737 L311.028 70.1857 L322.34 74.8737 L327.028 86.1857 L322.34 97.4977 Z" fill="#009af9" fill-rule="evenodd" fill-opacity="1" stroke="#000000" stroke-opacity="1" stroke-width="3.2"/>
<path clip-path="url(#clip992)" d="M443.179 106.88 L431.867 102.192 L427.179 90.8798 L431.867 79.5678 L443.179 74.8798 L454.491 79.5678 L459.179 90.8798 L454.491 102.192 Z" fill="#009af9" fill-rule="evenodd" fill-opacity="1" stroke="#000000" stroke-opacity="1" stroke-width="3.2"/>
<path clip-path="url(#clip992)" d="M575.329 112.629 L564.017 107.941 L559.329 96.6289 L564.017 85.3169 L575.329 80.6289 L586.641 85.3169 L591.329 96.6289 L586.641 107.941 Z" fill="#009af9" fill-rule="evenodd" fill-opacity="1" stroke="#000000" stroke-opacity="1" stroke-width="3.2"/>
<path clip-path="url(#clip992)" d="M707.48 118.199 L696.168 113.511 L691.48 102.199 L696.168 90.8866 L707.48 86.1986 L718.792 90.8866 L723.48 102.199 L718.792 113.511 Z" fill="#009af9" fill-rule="evenodd" fill-opacity="1" stroke="#000000" stroke-opacity="1" stroke-width="3.2"/>
<path clip-path="url(#clip992)" d="M839.631 128.869 L828.319 124.181 L823.631 112.869 L828.319 101.557 L839.631 96.8689 L850.943 101.557 L855.631 112.869 L850.943 124.181 Z" fill="#009af9" fill-rule="evenodd" fill-opacity="1" stroke="#000000" stroke-opacity="1" stroke-width="3.2"/>
<path clip-path="url(#clip992)" d="M971.781 146.038 L960.469 141.35 L955.781 130.038 L960.469 118.726 L971.781 114.038 L983.093 118.726 L987.781 130.038 L983.093 141.35 Z" fill="#009af9" fill-rule="evenodd" fill-opacity="1" stroke="#000000" stroke-opacity="1" stroke-width="3.2"/>
<path clip-path="url(#clip992)" d="M1103.93 161.533 L1092.62 156.845 L1087.93 145.533 L1092.62 134.221 L1103.93 129.533 L1115.24 134.221 L1119.93 145.533 L1115.24 156.845 Z" fill="#009af9" fill-rule="evenodd" fill-opacity="1" stroke="#000000" stroke-opacity="1" stroke-width="3.2"/>
<path clip-path="url(#clip992)" d="M1236.08 184.475 L1224.77 179.787 L1220.08 168.475 L1224.77 157.163 L1236.08 152.475 L1247.39 157.163 L1252.08 168.475 L1247.39 179.787 Z" fill="#009af9" fill-rule="evenodd" fill-opacity="1" stroke="#000000" stroke-opacity="1" stroke-width="3.2"/>
<path clip-path="url(#clip992)" d="M1368.23 218.078 L1356.92 213.39 L1352.23 202.078 L1356.92 190.766 L1368.23 186.078 L1379.55 190.766 L1384.23 202.078 L1379.55 213.39 Z" fill="#009af9" fill-rule="evenodd" fill-opacity="1" stroke="#000000" stroke-opacity="1" stroke-width="3.2"/>
<path clip-path="url(#clip992)" d="M1500.38 265.436 L1489.07 260.748 L1484.38 249.436 L1489.07 238.124 L1500.38 233.436 L1511.7 238.124 L1516.38 249.436 L1511.7 260.748 Z" fill="#009af9" fill-rule="evenodd" fill-opacity="1" stroke="#000000" stroke-opacity="1" stroke-width="3.2"/>
<path clip-path="url(#clip992)" d="M1632.53 329.728 L1621.22 325.04 L1616.53 313.728 L1621.22 302.416 L1632.53 297.728 L1643.85 302.416 L1648.53 313.728 L1643.85 325.04 Z" fill="#009af9" fill-rule="evenodd" fill-opacity="1" stroke="#000000" stroke-opacity="1" stroke-width="3.2"/>
<path clip-path="url(#clip992)" d="M1764.69 381.9 L1753.37 377.212 L1748.69 365.9 L1753.37 354.588 L1764.69 349.9 L1776 354.588 L1780.69 365.9 L1776 377.212 Z" fill="#009af9" fill-rule="evenodd" fill-opacity="1" stroke="#000000" stroke-opacity="1" stroke-width="3.2"/>
<path clip-path="url(#clip992)" d="M1896.84 467.435 L1885.52 462.747 L1880.84 451.435 L1885.52 440.123 L1896.84 435.435 L1908.15 440.123 L1912.84 451.435 L1908.15 462.747 Z" fill="#009af9" fill-rule="evenodd" fill-opacity="1" stroke="#000000" stroke-opacity="1" stroke-width="3.2"/>
<path clip-path="url(#clip992)" d="M2028.99 560.828 L2017.67 556.14 L2012.99 544.828 L2017.67 533.516 L2028.99 528.828 L2040.3 533.516 L2044.99 544.828 L2040.3 556.14 Z" fill="#009af9" fill-rule="evenodd" fill-opacity="1" stroke="#000000" stroke-opacity="1" stroke-width="3.2"/>
<path clip-path="url(#clip992)" d="M2161.14 691.593 L2149.83 686.905 L2145.14 675.593 L2149.83 664.281 L2161.14 659.593 L2172.45 664.281 L2177.14 675.593 L2172.45 686.905 Z" fill="#009af9" fill-rule="evenodd" fill-opacity="1" stroke="#000000" stroke-opacity="1" stroke-width="3.2"/>
<path clip-path="url(#clip992)" d="M2293.29 924.146 L2281.98 919.458 L2277.29 908.146 L2281.98 896.834 L2293.29 892.146 L2304.6 896.834 L2309.29 908.146 L2304.6 919.458 Z" fill="#009af9" fill-rule="evenodd" fill-opacity="1" stroke="#000000" stroke-opacity="1" stroke-width="3.2"/>
<polyline clip-path="url(#clip992)" style="stroke:#e26f46; stroke-linecap:round; stroke-linejoin:round; stroke-width:4; stroke-opacity:1; fill:none" points="311.028,94.1178 443.179,113.414 575.329,152.617 707.48,216.996 839.631,522.448 971.781,950.647 1103.93,1335.15 1236.08,1361.01 1368.23,1365.93 1500.38,1362.87 1632.53,1364.67 1764.69,1364.63 1896.84,1361.36 2028.99,1361.6 2161.14,1365.66 2293.29,1364.37 "/>
<path clip-path="url(#clip992)" d="M311.028 110.118 L299.716 105.43 L295.028 94.1178 L299.716 82.8058 L311.028 78.1178 L322.34 82.8058 L327.028 94.1178 L322.34 105.43 Z" fill="#e26f46" fill-rule="evenodd" fill-opacity="1" stroke="#000000" stroke-opacity="1" stroke-width="3.2"/>
<path clip-path="url(#clip992)" d="M443.179 129.414 L431.867 124.726 L427.179 113.414 L431.867 102.102 L443.179 97.4136 L454.491 102.102 L459.179 113.414 L454.491 124.726 Z" fill="#e26f46" fill-rule="evenodd" fill-opacity="1" stroke="#000000" stroke-opacity="1" stroke-width="3.2"/>
<path clip-path="url(#clip992)" d="M575.329 168.617 L564.017 163.929 L559.329 152.617 L564.017 141.305 L575.329 136.617 L586.641 141.305 L591.329 152.617 L586.641 163.929 Z" fill="#e26f46" fill-rule="evenodd" fill-opacity="1" stroke="#000000" stroke-opacity="1" stroke-width="3.2"/>
<path clip-path="url(#clip992)" d="M707.48 232.996 L696.168 228.308 L691.48 216.996 L696.168 205.684 L707.48 200.996 L718.792 205.684 L723.48 216.996 L718.792 228.308 Z" fill="#e26f46" fill-rule="evenodd" fill-opacity="1" stroke="#000000" stroke-opacity="1" stroke-width="3.2"/>
<path clip-path="url(#clip992)" d="M839.631 538.448 L828.319 533.76 L823.631 522.448 L828.319 511.136 L839.631 506.448 L850.943 511.136 L855.631 522.448 L850.943 533.76 Z" fill="#e26f46" fill-rule="evenodd" fill-opacity="1" stroke="#000000" stroke-opacity="1" stroke-width="3.2"/>
<path clip-path="url(#clip992)" d="M971.781 966.647 L960.469 961.959 L955.781 950.647 L960.469 939.335 L971.781 934.647 L983.093 939.335 L987.781 950.647 L983.093 961.959 Z" fill="#e26f46" fill-rule="evenodd" fill-opacity="1" stroke="#000000" stroke-opacity="1" stroke-width="3.2"/>
<path clip-path="url(#clip992)" d="M1103.93 1351.15 L1092.62 1346.47 L1087.93 1335.15 L1092.62 1323.84 L1103.93 1319.15 L1115.24 1323.84 L1119.93 1335.15 L1115.24 1346.47 Z" fill="#e26f46" fill-rule="evenodd" fill-opacity="1" stroke="#000000" stroke-opacity="1" stroke-width="3.2"/>
<path clip-path="url(#clip992)" d="M1236.08 1377.01 L1224.77 1372.32 L1220.08 1361.01 L1224.77 1349.7 L1236.08 1345.01 L1247.39 1349.7 L1252.08 1361.01 L1247.39 1372.32 Z" fill="#e26f46" fill-rule="evenodd" fill-opacity="1" stroke="#000000" stroke-opacity="1" stroke-width="3.2"/>
<path clip-path="url(#clip992)" d="M1368.23 1381.93 L1356.92 1377.24 L1352.23 1365.93 L1356.92 1354.61 L1368.23 1349.93 L1379.55 1354.61 L1384.23 1365.93 L1379.55 1377.24 Z" fill="#e26f46" fill-rule="evenodd" fill-opacity="1" stroke="#000000" stroke-opacity="1" stroke-width="3.2"/>
<path clip-path="url(#clip992)" d="M1500.38 1378.87 L1489.07 1374.18 L1484.38 1362.87 L1489.07 1351.56 L1500.38 1346.87 L1511.7 1351.56 L1516.38 1362.87 L1511.7 1374.18 Z" fill="#e26f46" fill-rule="evenodd" fill-opacity="1" stroke="#000000" stroke-opacity="1" stroke-width="3.2"/>
<path clip-path="url(#clip992)" d="M1632.53 1380.67 L1621.22 1375.98 L1616.53 1364.67 L1621.22 1353.36 L1632.53 1348.67 L1643.85 1353.36 L1648.53 1364.67 L1643.85 1375.98 Z" fill="#e26f46" fill-rule="evenodd" fill-opacity="1" stroke="#000000" stroke-opacity="1" stroke-width="3.2"/>
<path clip-path="url(#clip992)" d="M1764.69 1380.63 L1753.37 1375.94 L1748.69 1364.63 L1753.37 1353.32 L1764.69 1348.63 L1776 1353.32 L1780.69 1364.63 L1776 1375.94 Z" fill="#e26f46" fill-rule="evenodd" fill-opacity="1" stroke="#000000" stroke-opacity="1" stroke-width="3.2"/>
<path clip-path="url(#clip992)" d="M1896.84 1377.36 L1885.52 1372.68 L1880.84 1361.36 L1885.52 1350.05 L1896.84 1345.36 L1908.15 1350.05 L1912.84 1361.36 L1908.15 1372.68 Z" fill="#e26f46" fill-rule="evenodd" fill-opacity="1" stroke="#000000" stroke-opacity="1" stroke-width="3.2"/>
<path clip-path="url(#clip992)" d="M2028.99 1377.6 L2017.67 1372.91 L2012.99 1361.6 L2017.67 1350.29 L2028.99 1345.6 L2040.3 1350.29 L2044.99 1361.6 L2040.3 1372.91 Z" fill="#e26f46" fill-rule="evenodd" fill-opacity="1" stroke="#000000" stroke-opacity="1" stroke-width="3.2"/>
<path clip-path="url(#clip992)" d="M2161.14 1381.66 L2149.83 1376.97 L2145.14 1365.66 L2149.83 1354.35 L2161.14 1349.66 L2172.45 1354.35 L2177.14 1365.66 L2172.45 1376.97 Z" fill="#e26f46" fill-rule="evenodd" fill-opacity="1" stroke="#000000" stroke-opacity="1" stroke-width="3.2"/>
<path clip-path="url(#clip992)" d="M2293.29 1380.37 L2281.98 1375.68 L2277.29 1364.37 L2281.98 1353.05 L2293.29 1348.37 L2304.6 1353.05 L2309.29 1364.37 L2304.6 1375.68 Z" fill="#e26f46" fill-rule="evenodd" fill-opacity="1" stroke="#000000" stroke-opacity="1" stroke-width="3.2"/>
<polyline clip-path="url(#clip992)" style="stroke:#3da44d; stroke-linecap:round; stroke-linejoin:round; stroke-width:4; stroke-opacity:1; fill:none" points="311.028,89.7484 443.179,114.472 575.329,142.737 707.48,220.06 839.631,516.794 971.781,947.545 1103.93,1349.43 1236.08,1361.8 1368.23,1362.7 1500.38,1363.32 1632.53,1358.06 1764.69,1361.96 1896.84,1360.66 2028.99,1364.85 2161.14,1362.91 2293.29,1362.23 "/>
<path clip-path="url(#clip992)" d="M311.028 105.748 L299.716 101.06 L295.028 89.7484 L299.716 78.4364 L311.028 73.7484 L322.34 78.4364 L327.028 89.7484 L322.34 101.06 Z" fill="#3da44d" fill-rule="evenodd" fill-opacity="1" stroke="#000000" stroke-opacity="1" stroke-width="3.2"/>
<path clip-path="url(#clip992)" d="M443.179 130.472 L431.867 125.784 L427.179 114.472 L431.867 103.16 L443.179 98.4718 L454.491 103.16 L459.179 114.472 L454.491 125.784 Z" fill="#3da44d" fill-rule="evenodd" fill-opacity="1" stroke="#000000" stroke-opacity="1" stroke-width="3.2"/>
<path clip-path="url(#clip992)" d="M575.329 158.737 L564.017 154.049 L559.329 142.737 L564.017 131.425 L575.329 126.737 L586.641 131.425 L591.329 142.737 L586.641 154.049 Z" fill="#3da44d" fill-rule="evenodd" fill-opacity="1" stroke="#000000" stroke-opacity="1" stroke-width="3.2"/>
<path clip-path="url(#clip992)" d="M707.48 236.06 L696.168 231.372 L691.48 220.06 L696.168 208.748 L707.48 204.06 L718.792 208.748 L723.48 220.06 L718.792 231.372 Z" fill="#3da44d" fill-rule="evenodd" fill-opacity="1" stroke="#000000" stroke-opacity="1" stroke-width="3.2"/>
<path clip-path="url(#clip992)" d="M839.631 532.794 L828.319 528.106 L823.631 516.794 L828.319 505.482 L839.631 500.794 L850.943 505.482 L855.631 516.794 L850.943 528.106 Z" fill="#3da44d" fill-rule="evenodd" fill-opacity="1" stroke="#000000" stroke-opacity="1" stroke-width="3.2"/>
<path clip-path="url(#clip992)" d="M971.781 963.545 L960.469 958.857 L955.781 947.545 L960.469 936.233 L971.781 931.545 L983.093 936.233 L987.781 947.545 L983.093 958.857 Z" fill="#3da44d" fill-rule="evenodd" fill-opacity="1" stroke="#000000" stroke-opacity="1" stroke-width="3.2"/>
<path clip-path="url(#clip992)" d="M1103.93 1365.43 L1092.62 1360.75 L1087.93 1349.43 L1092.62 1338.12 L1103.93 1333.43 L1115.24 1338.12 L1119.93 1349.43 L1115.24 1360.75 Z" fill="#3da44d" fill-rule="evenodd" fill-opacity="1" stroke="#000000" stroke-opacity="1" stroke-width="3.2"/>
<path clip-path="url(#clip992)" d="M1236.08 1377.8 L1224.77 1373.11 L1220.08 1361.8 L1224.77 1350.49 L1236.08 1345.8 L1247.39 1350.49 L1252.08 1361.8 L1247.39 1373.11 Z" fill="#3da44d" fill-rule="evenodd" fill-opacity="1" stroke="#000000" stroke-opacity="1" stroke-width="3.2"/>
<path clip-path="url(#clip992)" d="M1368.23 1378.7 L1356.92 1374.01 L1352.23 1362.7 L1356.92 1351.39 L1368.23 1346.7 L1379.55 1351.39 L1384.23 1362.7 L1379.55 1374.01 Z" fill="#3da44d" fill-rule="evenodd" fill-opacity="1" stroke="#000000" stroke-opacity="1" stroke-width="3.2"/>
<path clip-path="url(#clip992)" d="M1500.38 1379.32 L1489.07 1374.63 L1484.38 1363.32 L1489.07 1352.01 L1500.38 1347.32 L1511.7 1352.01 L1516.38 1363.32 L1511.7 1374.63 Z" fill="#3da44d" fill-rule="evenodd" fill-opacity="1" stroke="#000000" stroke-opacity="1" stroke-width="3.2"/>
<path clip-path="url(#clip992)" d="M1632.53 1374.06 L1621.22 1369.37 L1616.53 1358.06 L1621.22 1346.74 L1632.53 1342.06 L1643.85 1346.74 L1648.53 1358.06 L1643.85 1369.37 Z" fill="#3da44d" fill-rule="evenodd" fill-opacity="1" stroke="#000000" stroke-opacity="1" stroke-width="3.2"/>
<path clip-path="url(#clip992)" d="M1764.69 1377.96 L1753.37 1373.27 L1748.69 1361.96 L1753.37 1350.65 L1764.69 1345.96 L1776 1350.65 L1780.69 1361.96 L1776 1373.27 Z" fill="#3da44d" fill-rule="evenodd" fill-opacity="1" stroke="#000000" stroke-opacity="1" stroke-width="3.2"/>
<path clip-path="url(#clip992)" d="M1896.84 1376.66 L1885.52 1371.98 L1880.84 1360.66 L1885.52 1349.35 L1896.84 1344.66 L1908.15 1349.35 L1912.84 1360.66 L1908.15 1371.98 Z" fill="#3da44d" fill-rule="evenodd" fill-opacity="1" stroke="#000000" stroke-opacity="1" stroke-width="3.2"/>
<path clip-path="url(#clip992)" d="M2028.99 1380.85 L2017.67 1376.16 L2012.99 1364.85 L2017.67 1353.54 L2028.99 1348.85 L2040.3 1353.54 L2044.99 1364.85 L2040.3 1376.16 Z" fill="#3da44d" fill-rule="evenodd" fill-opacity="1" stroke="#000000" stroke-opacity="1" stroke-width="3.2"/>
<path clip-path="url(#clip992)" d="M2161.14 1378.91 L2149.83 1374.22 L2145.14 1362.91 L2149.83 1351.6 L2161.14 1346.91 L2172.45 1351.6 L2177.14 1362.91 L2172.45 1374.22 Z" fill="#3da44d" fill-rule="evenodd" fill-opacity="1" stroke="#000000" stroke-opacity="1" stroke-width="3.2"/>
<path clip-path="url(#clip992)" d="M2293.29 1378.23 L2281.98 1373.54 L2277.29 1362.23 L2281.98 1350.92 L2293.29 1346.23 L2304.6 1350.92 L2309.29 1362.23 L2304.6 1373.54 Z" fill="#3da44d" fill-rule="evenodd" fill-opacity="1" stroke="#000000" stroke-opacity="1" stroke-width="3.2"/>
<polyline clip-path="url(#clip992)" style="stroke:#c271d2; stroke-linecap:round; stroke-linejoin:round; stroke-width:4; stroke-opacity:1; fill:none" points="311.028,91.5137 443.179,91.9228 575.329,96.3629 707.48,100.007 839.631,104.092 971.781,110.684 1103.93,108.022 1236.08,132.343 1368.23,145.524 1500.38,177.678 1632.53,194.647 1764.69,240.642 1896.84,266.684 2028.99,315.34 2161.14,366.778 2293.29,463.488 "/>
<path clip-path="url(#clip992)" d="M311.028 107.514 L299.716 102.826 L295.028 91.5137 L299.716 80.2017 L311.028 75.5137 L322.34 80.2017 L327.028 91.5137 L322.34 102.826 Z" fill="#c271d2" fill-rule="evenodd" fill-opacity="1" stroke="#000000" stroke-opacity="1" stroke-width="3.2"/>
<path clip-path="url(#clip992)" d="M443.179 107.923 L431.867 103.235 L427.179 91.9228 L431.867 80.6108 L443.179 75.9228 L454.491 80.6108 L459.179 91.9228 L454.491 103.235 Z" fill="#c271d2" fill-rule="evenodd" fill-opacity="1" stroke="#000000" stroke-opacity="1" stroke-width="3.2"/>
<path clip-path="url(#clip992)" d="M575.329 112.363 L564.017 107.675 L559.329 96.3629 L564.017 85.0509 L575.329 80.3629 L586.641 85.0509 L591.329 96.3629 L586.641 107.675 Z" fill="#c271d2" fill-rule="evenodd" fill-opacity="1" stroke="#000000" stroke-opacity="1" stroke-width="3.2"/>
<path clip-path="url(#clip992)" d="M707.48 116.007 L696.168 111.319 L691.48 100.007 L696.168 88.6948 L707.48 84.0068 L718.792 88.6948 L723.48 100.007 L718.792 111.319 Z" fill="#c271d2" fill-rule="evenodd" fill-opacity="1" stroke="#000000" stroke-opacity="1" stroke-width="3.2"/>
<path clip-path="url(#clip992)" d="M839.631 120.092 L828.319 115.404 L823.631 104.092 L828.319 92.78 L839.631 88.092 L850.943 92.78 L855.631 104.092 L850.943 115.404 Z" fill="#c271d2" fill-rule="evenodd" fill-opacity="1" stroke="#000000" stroke-opacity="1" stroke-width="3.2"/>
<path clip-path="url(#clip992)" d="M971.781 126.684 L960.469 121.996 L955.781 110.684 L960.469 99.3722 L971.781 94.6842 L983.093 99.3722 L987.781 110.684 L983.093 121.996 Z" fill="#c271d2" fill-rule="evenodd" fill-opacity="1" stroke="#000000" stroke-opacity="1" stroke-width="3.2"/>
<path clip-path="url(#clip992)" d="M1103.93 124.022 L1092.62 119.334 L1087.93 108.022 L1092.62 96.7097 L1103.93 92.0217 L1115.24 96.7097 L1119.93 108.022 L1115.24 119.334 Z" fill="#c271d2" fill-rule="evenodd" fill-opacity="1" stroke="#000000" stroke-opacity="1" stroke-width="3.2"/>
<path clip-path="url(#clip992)" d="M1236.08 148.343 L1224.77 143.655 L1220.08 132.343 L1224.77 121.031 L1236.08 116.343 L1247.39 121.031 L1252.08 132.343 L1247.39 143.655 Z" fill="#c271d2" fill-rule="evenodd" fill-opacity="1" stroke="#000000" stroke-opacity="1" stroke-width="3.2"/>
<path clip-path="url(#clip992)" d="M1368.23 161.524 L1356.92 156.836 L1352.23 145.524 L1356.92 134.212 L1368.23 129.524 L1379.55 134.212 L1384.23 145.524 L1379.55 156.836 Z" fill="#c271d2" fill-rule="evenodd" fill-opacity="1" stroke="#000000" stroke-opacity="1" stroke-width="3.2"/>
<path clip-path="url(#clip992)" d="M1500.38 193.678 L1489.07 188.99 L1484.38 177.678 L1489.07 166.366 L1500.38 161.678 L1511.7 166.366 L1516.38 177.678 L1511.7 188.99 Z" fill="#c271d2" fill-rule="evenodd" fill-opacity="1" stroke="#000000" stroke-opacity="1" stroke-width="3.2"/>
<path clip-path="url(#clip992)" d="M1632.53 210.647 L1621.22 205.959 L1616.53 194.647 L1621.22 183.335 L1632.53 178.647 L1643.85 183.335 L1648.53 194.647 L1643.85 205.959 Z" fill="#c271d2" fill-rule="evenodd" fill-opacity="1" stroke="#000000" stroke-opacity="1" stroke-width="3.2"/>
<path clip-path="url(#clip992)" d="M1764.69 256.642 L1753.37 251.954 L1748.69 240.642 L1753.37 229.33 L1764.69 224.642 L1776 229.33 L1780.69 240.642 L1776 251.954 Z" fill="#c271d2" fill-rule="evenodd" fill-opacity="1" stroke="#000000" stroke-opacity="1" stroke-width="3.2"/>
<path clip-path="url(#clip992)" d="M1896.84 282.684 L1885.52 277.996 L1880.84 266.684 L1885.52 255.372 L1896.84 250.684 L1908.15 255.372 L1912.84 266.684 L1908.15 277.996 Z" fill="#c271d2" fill-rule="evenodd" fill-opacity="1" stroke="#000000" stroke-opacity="1" stroke-width="3.2"/>
<path clip-path="url(#clip992)" d="M2028.99 331.34 L2017.67 326.652 L2012.99 315.34 L2017.67 304.028 L2028.99 299.34 L2040.3 304.028 L2044.99 315.34 L2040.3 326.652 Z" fill="#c271d2" fill-rule="evenodd" fill-opacity="1" stroke="#000000" stroke-opacity="1" stroke-width="3.2"/>
<path clip-path="url(#clip992)" d="M2161.14 382.778 L2149.83 378.09 L2145.14 366.778 L2149.83 355.466 L2161.14 350.778 L2172.45 355.466 L2177.14 366.778 L2172.45 378.09 Z" fill="#c271d2" fill-rule="evenodd" fill-opacity="1" stroke="#000000" stroke-opacity="1" stroke-width="3.2"/>
<path clip-path="url(#clip992)" d="M2293.29 479.488 L2281.98 474.8 L2277.29 463.488 L2281.98 452.176 L2293.29 447.488 L2304.6 452.176 L2309.29 463.488 L2304.6 474.8 Z" fill="#c271d2" fill-rule="evenodd" fill-opacity="1" stroke="#000000" stroke-opacity="1" stroke-width="3.2"/>
<polyline clip-path="url(#clip992)" style="stroke:#ac8d18; stroke-linecap:round; stroke-linejoin:round; stroke-width:4; stroke-opacity:1; fill:none" points="311.028,93.095 443.179,112.27 575.329,142.246 707.48,223.529 839.631,520.881 971.781,925.016 1103.93,1360.62 1236.08,1378.44 1368.23,1380.85 1500.38,1374.49 1632.53,1384.24 1764.69,1379.88 1896.84,1377.8 2028.99,1381.7 2161.14,1378.89 2293.29,1382.97 "/>
<path clip-path="url(#clip992)" d="M311.028 109.095 L299.716 104.407 L295.028 93.095 L299.716 81.783 L311.028 77.095 L322.34 81.783 L327.028 93.095 L322.34 104.407 Z" fill="#ac8d18" fill-rule="evenodd" fill-opacity="1" stroke="#000000" stroke-opacity="1" stroke-width="3.2"/>
<path clip-path="url(#clip992)" d="M443.179 128.27 L431.867 123.582 L427.179 112.27 L431.867 100.958 L443.179 96.2697 L454.491 100.958 L459.179 112.27 L454.491 123.582 Z" fill="#ac8d18" fill-rule="evenodd" fill-opacity="1" stroke="#000000" stroke-opacity="1" stroke-width="3.2"/>
<path clip-path="url(#clip992)" d="M575.329 158.246 L564.017 153.558 L559.329 142.246 L564.017 130.934 L575.329 126.246 L586.641 130.934 L591.329 142.246 L586.641 153.558 Z" fill="#ac8d18" fill-rule="evenodd" fill-opacity="1" stroke="#000000" stroke-opacity="1" stroke-width="3.2"/>
<path clip-path="url(#clip992)" d="M707.48 239.529 L696.168 234.841 L691.48 223.529 L696.168 212.217 L707.48 207.529 L718.792 212.217 L723.48 223.529 L718.792 234.841 Z" fill="#ac8d18" fill-rule="evenodd" fill-opacity="1" stroke="#000000" stroke-opacity="1" stroke-width="3.2"/>
<path clip-path="url(#clip992)" d="M839.631 536.881 L828.319 532.193 L823.631 520.881 L828.319 509.569 L839.631 504.881 L850.943 509.569 L855.631 520.881 L850.943 532.193 Z" fill="#ac8d18" fill-rule="evenodd" fill-opacity="1" stroke="#000000" stroke-opacity="1" stroke-width="3.2"/>
<path clip-path="url(#clip992)" d="M971.781 941.016 L960.469 936.328 L955.781 925.016 L960.469 913.704 L971.781 909.016 L983.093 913.704 L987.781 925.016 L983.093 936.328 Z" fill="#ac8d18" fill-rule="evenodd" fill-opacity="1" stroke="#000000" stroke-opacity="1" stroke-width="3.2"/>
<path clip-path="url(#clip992)" d="M1103.93 1376.62 L1092.62 1371.93 L1087.93 1360.62 L1092.62 1349.31 L1103.93 1344.62 L1115.24 1349.31 L1119.93 1360.62 L1115.24 1371.93 Z" fill="#ac8d18" fill-rule="evenodd" fill-opacity="1" stroke="#000000" stroke-opacity="1" stroke-width="3.2"/>
<path clip-path="url(#clip992)" d="M1236.08 1394.44 L1224.77 1389.76 L1220.08 1378.44 L1224.77 1367.13 L1236.08 1362.44 L1247.39 1367.13 L1252.08 1378.44 L1247.39 1389.76 Z" fill="#ac8d18" fill-rule="evenodd" fill-opacity="1" stroke="#000000" stroke-opacity="1" stroke-width="3.2"/>
<path clip-path="url(#clip992)" d="M1368.23 1396.85 L1356.92 1392.17 L1352.23 1380.85 L1356.92 1369.54 L1368.23 1364.85 L1379.55 1369.54 L1384.23 1380.85 L1379.55 1392.17 Z" fill="#ac8d18" fill-rule="evenodd" fill-opacity="1" stroke="#000000" stroke-opacity="1" stroke-width="3.2"/>
<path clip-path="url(#clip992)" d="M1500.38 1390.49 L1489.07 1385.8 L1484.38 1374.49 L1489.07 1363.18 L1500.38 1358.49 L1511.7 1363.18 L1516.38 1374.49 L1511.7 1385.8 Z" fill="#ac8d18" fill-rule="evenodd" fill-opacity="1" stroke="#000000" stroke-opacity="1" stroke-width="3.2"/>
<path clip-path="url(#clip992)" d="M1632.53 1400.24 L1621.22 1395.55 L1616.53 1384.24 L1621.22 1372.93 L1632.53 1368.24 L1643.85 1372.93 L1648.53 1384.24 L1643.85 1395.55 Z" fill="#ac8d18" fill-rule="evenodd" fill-opacity="1" stroke="#000000" stroke-opacity="1" stroke-width="3.2"/>
<path clip-path="url(#clip992)" d="M1764.69 1395.88 L1753.37 1391.19 L1748.69 1379.88 L1753.37 1368.57 L1764.69 1363.88 L1776 1368.57 L1780.69 1379.88 L1776 1391.19 Z" fill="#ac8d18" fill-rule="evenodd" fill-opacity="1" stroke="#000000" stroke-opacity="1" stroke-width="3.2"/>
<path clip-path="url(#clip992)" d="M1896.84 1393.8 L1885.52 1389.11 L1880.84 1377.8 L1885.52 1366.49 L1896.84 1361.8 L1908.15 1366.49 L1912.84 1377.8 L1908.15 1389.11 Z" fill="#ac8d18" fill-rule="evenodd" fill-opacity="1" stroke="#000000" stroke-opacity="1" stroke-width="3.2"/>
<path clip-path="url(#clip992)" d="M2028.99 1397.7 L2017.67 1393.01 L2012.99 1381.7 L2017.67 1370.39 L2028.99 1365.7 L2040.3 1370.39 L2044.99 1381.7 L2040.3 1393.01 Z" fill="#ac8d18" fill-rule="evenodd" fill-opacity="1" stroke="#000000" stroke-opacity="1" stroke-width="3.2"/>
<path clip-path="url(#clip992)" d="M2161.14 1394.89 L2149.83 1390.2 L2145.14 1378.89 L2149.83 1367.57 L2161.14 1362.89 L2172.45 1367.57 L2177.14 1378.89 L2172.45 1390.2 Z" fill="#ac8d18" fill-rule="evenodd" fill-opacity="1" stroke="#000000" stroke-opacity="1" stroke-width="3.2"/>
<path clip-path="url(#clip992)" d="M2293.29 1398.97 L2281.98 1394.29 L2277.29 1382.97 L2281.98 1371.66 L2293.29 1366.97 L2304.6 1371.66 L2309.29 1382.97 L2304.6 1394.29 Z" fill="#ac8d18" fill-rule="evenodd" fill-opacity="1" stroke="#000000" stroke-opacity="1" stroke-width="3.2"/>
<path clip-path="url(#clip990)" d="M1872.11 404.149 L2282.72 404.149 L2282.72 93.1086 L1872.11 93.1086  Z" fill="#ffffff" fill-rule="evenodd" fill-opacity="1"/>
<polyline clip-path="url(#clip990)" style="stroke:#000000; stroke-linecap:round; stroke-linejoin:round; stroke-width:4; stroke-opacity:1; fill:none" points="1872.11,404.149 2282.72,404.149 2282.72,93.1086 1872.11,93.1086 1872.11,404.149 "/>
<polyline clip-path="url(#clip990)" style="stroke:#009af9; stroke-linecap:round; stroke-linejoin:round; stroke-width:4; stroke-opacity:1; fill:none" points="1895.46,144.949 2035.54,144.949 "/>
<path clip-path="url(#clip990)" d="M1965.5 166.566 L1950.21 160.232 L1943.88 144.949 L1950.21 129.665 L1965.5 123.331 L1980.78 129.665 L1987.12 144.949 L1980.78 160.232 Z" fill="#009af9" fill-rule="evenodd" fill-opacity="1" stroke="#000000" stroke-opacity="1" stroke-width="4.55111"/>
<path clip-path="url(#clip990)" d="M2074.9 130.84 Q2069.81 130.84 2066.8 134.636 Q2063.81 138.432 2063.81 144.983 Q2063.81 151.511 2066.8 155.307 Q2069.81 159.104 2074.9 159.104 Q2080 159.104 2082.96 155.307 Q2085.94 151.511 2085.94 144.983 Q2085.94 138.432 2082.96 134.636 Q2080 130.84 2074.9 130.84 M2081.45 161.604 L2087.61 168.34 L2081.96 168.34 L2076.85 162.807 Q2076.08 162.854 2075.67 162.877 Q2075.27 162.9 2074.9 162.9 Q2067.61 162.9 2063.24 158.039 Q2058.88 153.155 2058.88 144.983 Q2058.88 136.789 2063.24 131.928 Q2067.61 127.044 2074.9 127.044 Q2082.17 127.044 2086.52 131.928 Q2090.87 136.789 2090.87 144.983 Q2090.87 151.002 2088.44 155.284 Q2086.04 159.567 2081.45 161.604 Z" fill="#000000" fill-rule="nonzero" fill-opacity="1" /><path clip-path="url(#clip990)" d="M2093.4 127.669 L2122.63 127.669 L2122.63 131.604 L2110.37 131.604 L2110.37 162.229 L2105.67 162.229 L2105.67 131.604 L2093.4 131.604 L2093.4 127.669 Z" fill="#000000" fill-rule="nonzero" fill-opacity="1" /><path clip-path="url(#clip990)" d="M2121.52 127.669 L2150.76 127.669 L2150.76 131.604 L2138.49 131.604 L2138.49 162.229 L2133.79 162.229 L2133.79 131.604 L2121.52 131.604 L2121.52 127.669 Z" fill="#000000" fill-rule="nonzero" fill-opacity="1" /><path clip-path="url(#clip990)" d="M2174.79 170.099 L2174.79 173.409 L2150.16 173.409 L2150.16 170.099 L2174.79 170.099 Z" fill="#000000" fill-rule="nonzero" fill-opacity="1" /><path clip-path="url(#clip990)" d="M2199.69 128.803 L2199.69 133.363 Q2197.03 132.09 2194.67 131.465 Q2192.31 130.84 2190.11 130.84 Q2186.29 130.84 2184.21 132.321 Q2182.15 133.803 2182.15 136.534 Q2182.15 138.826 2183.51 140.007 Q2184.9 141.164 2188.74 141.882 L2191.57 142.46 Q2196.8 143.456 2199.28 145.979 Q2201.78 148.479 2201.78 152.692 Q2201.78 157.715 2198.4 160.307 Q2195.04 162.9 2188.54 162.9 Q2186.08 162.9 2183.31 162.344 Q2180.55 161.789 2177.59 160.701 L2177.59 155.886 Q2180.43 157.483 2183.17 158.293 Q2185.9 159.104 2188.54 159.104 Q2192.54 159.104 2194.72 157.53 Q2196.89 155.956 2196.89 153.039 Q2196.89 150.493 2195.32 149.057 Q2193.77 147.622 2190.2 146.905 L2187.36 146.349 Q2182.12 145.307 2179.79 143.085 Q2177.45 140.863 2177.45 136.905 Q2177.45 132.321 2180.67 129.682 Q2183.91 127.044 2189.58 127.044 Q2192.01 127.044 2194.53 127.483 Q2197.05 127.923 2199.69 128.803 Z" fill="#000000" fill-rule="nonzero" fill-opacity="1" /><path clip-path="url(#clip990)" d="M2231.06 148.201 L2231.06 150.284 L2211.48 150.284 Q2211.75 154.682 2214.12 156.997 Q2216.5 159.289 2220.74 159.289 Q2223.19 159.289 2225.48 158.687 Q2227.8 158.085 2230.06 156.881 L2230.06 160.909 Q2227.77 161.881 2225.36 162.391 Q2222.96 162.9 2220.48 162.9 Q2214.28 162.9 2210.64 159.289 Q2207.03 155.678 2207.03 149.52 Q2207.03 143.155 2210.46 139.428 Q2213.91 135.678 2219.74 135.678 Q2224.97 135.678 2228 139.057 Q2231.06 142.414 2231.06 148.201 M2226.8 146.951 Q2226.75 143.456 2224.83 141.372 Q2222.93 139.289 2219.79 139.289 Q2216.22 139.289 2214.07 141.303 Q2211.94 143.317 2211.62 146.974 L2226.8 146.951 Z" fill="#000000" fill-rule="nonzero" fill-opacity="1" /><path clip-path="url(#clip990)" d="M2240.6 149.289 Q2240.6 153.988 2242.52 156.673 Q2244.46 159.335 2247.84 159.335 Q2251.22 159.335 2253.17 156.673 Q2255.11 153.988 2255.11 149.289 Q2255.11 144.59 2253.17 141.928 Q2251.22 139.243 2247.84 139.243 Q2244.46 139.243 2242.52 141.928 Q2240.6 144.59 2240.6 149.289 M2255.11 158.34 Q2253.77 160.655 2251.71 161.789 Q2249.67 162.9 2246.8 162.9 Q2242.1 162.9 2239.14 159.15 Q2236.2 155.4 2236.2 149.289 Q2236.2 143.178 2239.14 139.428 Q2242.1 135.678 2246.8 135.678 Q2249.67 135.678 2251.71 136.812 Q2253.77 137.923 2255.11 140.238 L2255.11 136.303 L2259.37 136.303 L2259.37 172.09 L2255.11 172.09 L2255.11 158.34 Z" fill="#000000" fill-rule="nonzero" fill-opacity="1" /><polyline clip-path="url(#clip990)" style="stroke:#e26f46; stroke-linecap:round; stroke-linejoin:round; stroke-width:4; stroke-opacity:1; fill:none" points="1895.46,196.789 2035.54,196.789 "/>
<path clip-path="url(#clip990)" d="M1965.5 218.406 L1950.21 212.072 L1943.88 196.789 L1950.21 181.505 L1965.5 175.171 L1980.78 181.505 L1987.12 196.789 L1980.78 212.072 Z" fill="#e26f46" fill-rule="evenodd" fill-opacity="1" stroke="#000000" stroke-opacity="1" stroke-width="4.55111"/>
<path clip-path="url(#clip990)" d="M2063.56 197.564 L2063.56 210.226 L2071.06 210.226 Q2074.83 210.226 2076.64 208.675 Q2078.47 207.101 2078.47 203.883 Q2078.47 200.643 2076.64 199.115 Q2074.83 197.564 2071.06 197.564 L2063.56 197.564 M2063.56 183.351 L2063.56 193.768 L2070.48 193.768 Q2073.91 193.768 2075.57 192.495 Q2077.26 191.198 2077.26 188.559 Q2077.26 185.944 2075.57 184.647 Q2073.91 183.351 2070.48 183.351 L2063.56 183.351 M2058.88 179.509 L2070.83 179.509 Q2076.18 179.509 2079.07 181.731 Q2081.96 183.953 2081.96 188.05 Q2081.96 191.222 2080.48 193.097 Q2079 194.971 2076.13 195.434 Q2079.58 196.175 2081.48 198.536 Q2083.4 200.874 2083.4 204.393 Q2083.4 209.022 2080.25 211.545 Q2077.1 214.069 2071.29 214.069 L2058.88 214.069 L2058.88 179.509 Z" fill="#000000" fill-rule="nonzero" fill-opacity="1" /><path clip-path="url(#clip990)" d="M2086.62 179.509 L2115.85 179.509 L2115.85 183.444 L2103.58 183.444 L2103.58 214.069 L2098.88 214.069 L2098.88 183.444 L2086.62 183.444 L2086.62 179.509 Z" fill="#000000" fill-rule="nonzero" fill-opacity="1" /><path clip-path="url(#clip990)" d="M2114.74 179.509 L2143.98 179.509 L2143.98 183.444 L2131.71 183.444 L2131.71 214.069 L2127.01 214.069 L2127.01 183.444 L2114.74 183.444 L2114.74 179.509 Z" fill="#000000" fill-rule="nonzero" fill-opacity="1" /><path clip-path="url(#clip990)" d="M2148.49 179.509 L2154.79 179.509 L2170.11 208.421 L2170.11 179.509 L2174.65 179.509 L2174.65 214.069 L2168.35 214.069 L2153.03 185.157 L2153.03 214.069 L2148.49 214.069 L2148.49 179.509 Z" fill="#000000" fill-rule="nonzero" fill-opacity="1" /><polyline clip-path="url(#clip990)" style="stroke:#3da44d; stroke-linecap:round; stroke-linejoin:round; stroke-width:4; stroke-opacity:1; fill:none" points="1895.46,248.629 2035.54,248.629 "/>
<path clip-path="url(#clip990)" d="M1965.5 270.246 L1950.21 263.912 L1943.88 248.629 L1950.21 233.345 L1965.5 227.011 L1980.78 233.345 L1987.12 248.629 L1980.78 263.912 Z" fill="#3da44d" fill-rule="evenodd" fill-opacity="1" stroke="#000000" stroke-opacity="1" stroke-width="4.55111"/>
<path clip-path="url(#clip990)" d="M2086.75 234.011 L2086.75 238.941 Q2084.39 236.742 2081.71 235.654 Q2079.05 234.566 2076.04 234.566 Q2070.11 234.566 2066.96 238.2 Q2063.81 241.812 2063.81 248.663 Q2063.81 255.492 2066.96 259.126 Q2070.11 262.737 2076.04 262.737 Q2079.05 262.737 2081.71 261.649 Q2084.39 260.561 2086.75 258.362 L2086.75 263.247 Q2084.3 264.913 2081.55 265.747 Q2078.81 266.58 2075.76 266.58 Q2067.91 266.58 2063.4 261.788 Q2058.88 256.973 2058.88 248.663 Q2058.88 240.33 2063.4 235.538 Q2067.91 230.724 2075.76 230.724 Q2078.86 230.724 2081.59 231.557 Q2084.35 232.367 2086.75 234.011 Z" fill="#000000" fill-rule="nonzero" fill-opacity="1" /><path clip-path="url(#clip990)" d="M2089.19 231.349 L2118.42 231.349 L2118.42 235.284 L2106.15 235.284 L2106.15 265.909 L2101.45 265.909 L2101.45 235.284 L2089.19 235.284 L2089.19 231.349 Z" fill="#000000" fill-rule="nonzero" fill-opacity="1" /><path clip-path="url(#clip990)" d="M2117.31 231.349 L2146.55 231.349 L2146.55 235.284 L2134.28 235.284 L2134.28 265.909 L2129.58 265.909 L2129.58 235.284 L2117.31 235.284 L2117.31 231.349 Z" fill="#000000" fill-rule="nonzero" fill-opacity="1" /><path clip-path="url(#clip990)" d="M2151.06 231.349 L2157.36 231.349 L2172.68 260.261 L2172.68 231.349 L2177.22 231.349 L2177.22 265.909 L2170.92 265.909 L2155.6 236.997 L2155.6 265.909 L2151.06 265.909 L2151.06 231.349 Z" fill="#000000" fill-rule="nonzero" fill-opacity="1" /><polyline clip-path="url(#clip990)" style="stroke:#c271d2; stroke-linecap:round; stroke-linejoin:round; stroke-width:4; stroke-opacity:1; fill:none" points="1895.46,300.469 2035.54,300.469 "/>
<path clip-path="url(#clip990)" d="M1965.5 322.086 L1950.21 315.752 L1943.88 300.469 L1950.21 285.185 L1965.5 278.851 L1980.78 285.185 L1987.12 300.469 L1980.78 315.752 Z" fill="#c271d2" fill-rule="evenodd" fill-opacity="1" stroke="#000000" stroke-opacity="1" stroke-width="4.55111"/>
<path clip-path="url(#clip990)" d="M2074.9 286.36 Q2069.81 286.36 2066.8 290.156 Q2063.81 293.952 2063.81 300.503 Q2063.81 307.031 2066.8 310.827 Q2069.81 314.624 2074.9 314.624 Q2080 314.624 2082.96 310.827 Q2085.94 307.031 2085.94 300.503 Q2085.94 293.952 2082.96 290.156 Q2080 286.36 2074.9 286.36 M2081.45 317.124 L2087.61 323.86 L2081.96 323.86 L2076.85 318.327 Q2076.08 318.374 2075.67 318.397 Q2075.27 318.42 2074.9 318.42 Q2067.61 318.42 2063.24 313.559 Q2058.88 308.675 2058.88 300.503 Q2058.88 292.309 2063.24 287.448 Q2067.61 282.564 2074.9 282.564 Q2082.17 282.564 2086.52 287.448 Q2090.87 292.309 2090.87 300.503 Q2090.87 306.522 2088.44 310.804 Q2086.04 315.087 2081.45 317.124 Z" fill="#000000" fill-rule="nonzero" fill-opacity="1" /><path clip-path="url(#clip990)" d="M2093.4 283.189 L2122.63 283.189 L2122.63 287.124 L2110.37 287.124 L2110.37 317.749 L2105.67 317.749 L2105.67 287.124 L2093.4 287.124 L2093.4 283.189 Z" fill="#000000" fill-rule="nonzero" fill-opacity="1" /><path clip-path="url(#clip990)" d="M2121.52 283.189 L2150.76 283.189 L2150.76 287.124 L2138.49 287.124 L2138.49 317.749 L2133.79 317.749 L2133.79 287.124 L2121.52 287.124 L2121.52 283.189 Z" fill="#000000" fill-rule="nonzero" fill-opacity="1" /><path clip-path="url(#clip990)" d="M2174.79 325.619 L2174.79 328.929 L2150.16 328.929 L2150.16 325.619 L2174.79 325.619 Z" fill="#000000" fill-rule="nonzero" fill-opacity="1" /><path clip-path="url(#clip990)" d="M2178.98 283.189 L2183.65 283.189 L2183.65 317.749 L2178.98 317.749 L2178.98 283.189 Z" fill="#000000" fill-rule="nonzero" fill-opacity="1" /><path clip-path="url(#clip990)" d="M2214.32 302.101 L2214.32 317.749 L2210.06 317.749 L2210.06 302.239 Q2210.06 298.559 2208.63 296.73 Q2207.19 294.902 2204.32 294.902 Q2200.87 294.902 2198.88 297.101 Q2196.89 299.3 2196.89 303.096 L2196.89 317.749 L2192.61 317.749 L2192.61 291.823 L2196.89 291.823 L2196.89 295.851 Q2198.42 293.513 2200.48 292.355 Q2202.56 291.198 2205.27 291.198 Q2209.74 291.198 2212.03 293.976 Q2214.32 296.73 2214.32 302.101 Z" fill="#000000" fill-rule="nonzero" fill-opacity="1" /><path clip-path="url(#clip990)" d="M2227.03 284.462 L2227.03 291.823 L2235.8 291.823 L2235.8 295.133 L2227.03 295.133 L2227.03 309.207 Q2227.03 312.378 2227.89 313.281 Q2228.77 314.184 2231.43 314.184 L2235.8 314.184 L2235.8 317.749 L2231.43 317.749 Q2226.5 317.749 2224.62 315.92 Q2222.75 314.068 2222.75 309.207 L2222.75 295.133 L2219.62 295.133 L2219.62 291.823 L2222.75 291.823 L2222.75 284.462 L2227.03 284.462 Z" fill="#000000" fill-rule="nonzero" fill-opacity="1" /><polyline clip-path="url(#clip990)" style="stroke:#ac8d18; stroke-linecap:round; stroke-linejoin:round; stroke-width:4; stroke-opacity:1; fill:none" points="1895.46,352.309 2035.54,352.309 "/>
<path clip-path="url(#clip990)" d="M1965.5 373.926 L1950.21 367.592 L1943.88 352.309 L1950.21 337.025 L1965.5 330.691 L1980.78 337.025 L1987.12 352.309 L1980.78 367.592 Z" fill="#ac8d18" fill-rule="evenodd" fill-opacity="1" stroke="#000000" stroke-opacity="1" stroke-width="4.55111"/>
<path clip-path="url(#clip990)" d="M2063.56 353.084 L2063.56 365.746 L2071.06 365.746 Q2074.83 365.746 2076.64 364.195 Q2078.47 362.621 2078.47 359.403 Q2078.47 356.163 2076.64 354.635 Q2074.83 353.084 2071.06 353.084 L2063.56 353.084 M2063.56 338.871 L2063.56 349.288 L2070.48 349.288 Q2073.91 349.288 2075.57 348.015 Q2077.26 346.718 2077.26 344.079 Q2077.26 341.464 2075.57 340.167 Q2073.91 338.871 2070.48 338.871 L2063.56 338.871 M2058.88 335.029 L2070.83 335.029 Q2076.18 335.029 2079.07 337.251 Q2081.96 339.473 2081.96 343.57 Q2081.96 346.742 2080.48 348.617 Q2079 350.491 2076.13 350.954 Q2079.58 351.695 2081.48 354.056 Q2083.4 356.394 2083.4 359.913 Q2083.4 364.542 2080.25 367.065 Q2077.1 369.589 2071.29 369.589 L2058.88 369.589 L2058.88 335.029 Z" fill="#000000" fill-rule="nonzero" fill-opacity="1" /><path clip-path="url(#clip990)" d="M2086.62 335.029 L2115.85 335.029 L2115.85 338.964 L2103.58 338.964 L2103.58 369.589 L2098.88 369.589 L2098.88 338.964 L2086.62 338.964 L2086.62 335.029 Z" fill="#000000" fill-rule="nonzero" fill-opacity="1" /><path clip-path="url(#clip990)" d="M2114.74 335.029 L2143.98 335.029 L2143.98 338.964 L2131.71 338.964 L2131.71 369.589 L2127.01 369.589 L2127.01 338.964 L2114.74 338.964 L2114.74 335.029 Z" fill="#000000" fill-rule="nonzero" fill-opacity="1" /><path clip-path="url(#clip990)" d="M2148.49 335.029 L2154.79 335.029 L2170.11 363.941 L2170.11 335.029 L2174.65 335.029 L2174.65 369.589 L2168.35 369.589 L2153.03 340.677 L2153.03 369.589 L2148.49 369.589 L2148.49 335.029 Z" fill="#000000" fill-rule="nonzero" fill-opacity="1" /><path clip-path="url(#clip990)" d="M2188.4 365.653 L2204.72 365.653 L2204.72 369.589 L2182.77 369.589 L2182.77 365.653 Q2185.43 362.899 2190.02 358.269 Q2194.62 353.616 2195.8 352.274 Q2198.05 349.751 2198.93 348.015 Q2199.83 346.255 2199.83 344.566 Q2199.83 341.811 2197.89 340.075 Q2195.97 338.339 2192.87 338.339 Q2190.67 338.339 2188.21 339.103 Q2185.78 339.867 2183 341.417 L2183 336.695 Q2185.83 335.561 2188.28 334.982 Q2190.74 334.404 2192.77 334.404 Q2198.14 334.404 2201.34 337.089 Q2204.53 339.774 2204.53 344.265 Q2204.53 346.394 2203.72 348.316 Q2202.93 350.214 2200.83 352.806 Q2200.25 353.478 2197.15 356.695 Q2194.05 359.89 2188.4 365.653 Z" fill="#000000" fill-rule="nonzero" fill-opacity="1" /></svg>
