<?xml version="1.0" encoding="utf-8"?>
<svg xmlns="http://www.w3.org/2000/svg" xmlns:xlink="http://www.w3.org/1999/xlink" width="600" height="400" viewBox="0 0 2400 1600">
<defs>
  <clipPath id="clip560">
    <rect x="0" y="0" width="2400" height="1600"/>
  </clipPath>
</defs>
<path clip-path="url(#clip560)" d="M0 1600 L2400 1600 L2400 8.88178e-14 L0 8.88178e-14  Z" fill="#ffffff" fill-rule="evenodd" fill-opacity="1"/>
<defs>
  <clipPath id="clip561">
    <rect x="480" y="0" width="1681" height="1600"/>
  </clipPath>
</defs>
<path clip-path="url(#clip560)" d="M252.764 1423.18 L2352.76 1423.18 L2352.76 47.2441 L252.764 47.2441  Z" fill="#ffffff" fill-rule="evenodd" fill-opacity="1"/>
<defs>
  <clipPath id="clip562">
    <rect x="252" y="47" width="2101" height="1377"/>
  </clipPath>
</defs>
<polyline clip-path="url(#clip562)" style="stroke:#000000; stroke-linecap:round; stroke-linejoin:round; stroke-width:2; stroke-opacity:0.1; fill:none" points="458.948,1423.18 458.948,47.2441 "/>
<polyline clip-path="url(#clip562)" style="stroke:#000000; stroke-linecap:round; stroke-linejoin:round; stroke-width:2; stroke-opacity:0.1; fill:none" points="825.823,1423.18 825.823,47.2441 "/>
<polyline clip-path="url(#clip562)" style="stroke:#000000; stroke-linecap:round; stroke-linejoin:round; stroke-width:2; stroke-opacity:0.1; fill:none" points="1192.7,1423.18 1192.7,47.2441 "/>
<polyline clip-path="url(#clip562)" style="stroke:#000000; stroke-linecap:round; stroke-linejoin:round; stroke-width:2; stroke-opacity:0.1; fill:none" points="1559.57,1423.18 1559.57,47.2441 "/>
<polyline clip-path="url(#clip562)" style="stroke:#000000; stroke-linecap:round; stroke-linejoin:round; stroke-width:2; stroke-opacity:0.1; fill:none" points="1926.45,1423.18 1926.45,47.2441 "/>
<polyline clip-path="url(#clip562)" style="stroke:#000000; stroke-linecap:round; stroke-linejoin:round; stroke-width:2; stroke-opacity:0.1; fill:none" points="2293.32,1423.18 2293.32,47.2441 "/>
<polyline clip-path="url(#clip562)" style="stroke:#000000; stroke-linecap:round; stroke-linejoin:round; stroke-width:2; stroke-opacity:0.1; fill:none" points="252.764,1260.83 2352.76,1260.83 "/>
<polyline clip-path="url(#clip562)" style="stroke:#000000; stroke-linecap:round; stroke-linejoin:round; stroke-width:2; stroke-opacity:0.1; fill:none" points="252.764,952.199 2352.76,952.199 "/>
<polyline clip-path="url(#clip562)" style="stroke:#000000; stroke-linecap:round; stroke-linejoin:round; stroke-width:2; stroke-opacity:0.1; fill:none" points="252.764,643.569 2352.76,643.569 "/>
<polyline clip-path="url(#clip562)" style="stroke:#000000; stroke-linecap:round; stroke-linejoin:round; stroke-width:2; stroke-opacity:0.1; fill:none" points="252.764,334.938 2352.76,334.938 "/>
<polyline clip-path="url(#clip560)" style="stroke:#000000; stroke-linecap:round; stroke-linejoin:round; stroke-width:4; stroke-opacity:1; fill:none" points="252.764,1423.18 2352.76,1423.18 "/>
<polyline clip-path="url(#clip560)" style="stroke:#000000; stroke-linecap:round; stroke-linejoin:round; stroke-width:4; stroke-opacity:1; fill:none" points="458.948,1423.18 458.948,1404.28 "/>
<polyline clip-path="url(#clip560)" style="stroke:#000000; stroke-linecap:round; stroke-linejoin:round; stroke-width:4; stroke-opacity:1; fill:none" points="825.823,1423.18 825.823,1404.28 "/>
<polyline clip-path="url(#clip560)" style="stroke:#000000; stroke-linecap:round; stroke-linejoin:round; stroke-width:4; stroke-opacity:1; fill:none" points="1192.7,1423.18 1192.7,1404.28 "/>
<polyline clip-path="url(#clip560)" style="stroke:#000000; stroke-linecap:round; stroke-linejoin:round; stroke-width:4; stroke-opacity:1; fill:none" points="1559.57,1423.18 1559.57,1404.28 "/>
<polyline clip-path="url(#clip560)" style="stroke:#000000; stroke-linecap:round; stroke-linejoin:round; stroke-width:4; stroke-opacity:1; fill:none" points="1926.45,1423.18 1926.45,1404.28 "/>
<polyline clip-path="url(#clip560)" style="stroke:#000000; stroke-linecap:round; stroke-linejoin:round; stroke-width:4; stroke-opacity:1; fill:none" points="2293.32,1423.18 2293.32,1404.28 "/>
<path clip-path="url(#clip560)" d="M449.225 1451.02 L467.582 1451.02 L467.582 1454.96 L453.508 1454.96 L453.508 1463.43 Q454.526 1463.08 455.545 1462.92 Q456.563 1462.73 457.582 1462.73 Q463.369 1462.73 466.749 1465.9 Q470.128 1469.08 470.128 1474.49 Q470.128 1480.07 466.656 1483.17 Q463.184 1486.25 456.864 1486.25 Q454.688 1486.25 452.42 1485.88 Q450.175 1485.51 447.767 1484.77 L447.767 1480.07 Q449.85 1481.2 452.073 1481.76 Q454.295 1482.32 456.772 1482.32 Q460.776 1482.32 463.114 1480.21 Q465.452 1478.1 465.452 1474.49 Q465.452 1470.88 463.114 1468.77 Q460.776 1466.67 456.772 1466.67 Q454.897 1466.67 453.022 1467.08 Q451.17 1467.5 449.225 1468.38 L449.225 1451.02 Z" fill="#000000" fill-rule="nonzero" fill-opacity="1" /><path clip-path="url(#clip560)" d="M800.51 1481.64 L808.149 1481.64 L808.149 1455.28 L799.839 1456.95 L799.839 1452.69 L808.103 1451.02 L812.779 1451.02 L812.779 1481.64 L820.417 1481.64 L820.417 1485.58 L800.51 1485.58 L800.51 1481.64 Z" fill="#000000" fill-rule="nonzero" fill-opacity="1" /><path clip-path="url(#clip560)" d="M839.862 1454.1 Q836.251 1454.1 834.422 1457.66 Q832.616 1461.2 832.616 1468.33 Q832.616 1475.44 834.422 1479.01 Q836.251 1482.55 839.862 1482.55 Q843.496 1482.55 845.302 1479.01 Q847.13 1475.44 847.13 1468.33 Q847.13 1461.2 845.302 1457.66 Q843.496 1454.1 839.862 1454.1 M839.862 1450.39 Q845.672 1450.39 848.728 1455 Q851.806 1459.58 851.806 1468.33 Q851.806 1477.06 848.728 1481.67 Q845.672 1486.25 839.862 1486.25 Q834.052 1486.25 830.973 1481.67 Q827.917 1477.06 827.917 1468.33 Q827.917 1459.58 830.973 1455 Q834.052 1450.39 839.862 1450.39 Z" fill="#000000" fill-rule="nonzero" fill-opacity="1" /><path clip-path="url(#clip560)" d="M1167.88 1481.64 L1175.52 1481.64 L1175.52 1455.28 L1167.21 1456.95 L1167.21 1452.69 L1175.48 1451.02 L1180.15 1451.02 L1180.15 1481.64 L1187.79 1481.64 L1187.79 1485.58 L1167.88 1485.58 L1167.88 1481.64 Z" fill="#000000" fill-rule="nonzero" fill-opacity="1" /><path clip-path="url(#clip560)" d="M1197.28 1451.02 L1215.64 1451.02 L1215.64 1454.96 L1201.56 1454.96 L1201.56 1463.43 Q1202.58 1463.08 1203.6 1462.92 Q1204.62 1462.73 1205.64 1462.73 Q1211.42 1462.73 1214.8 1465.9 Q1218.18 1469.08 1218.18 1474.49 Q1218.18 1480.07 1214.71 1483.17 Q1211.24 1486.25 1204.92 1486.25 Q1202.74 1486.25 1200.48 1485.88 Q1198.23 1485.51 1195.82 1484.77 L1195.82 1480.07 Q1197.91 1481.2 1200.13 1481.76 Q1202.35 1482.32 1204.83 1482.32 Q1208.83 1482.32 1211.17 1480.21 Q1213.51 1478.1 1213.51 1474.49 Q1213.51 1470.88 1211.17 1468.77 Q1208.83 1466.67 1204.83 1466.67 Q1202.95 1466.67 1201.08 1467.08 Q1199.23 1467.5 1197.28 1468.38 L1197.28 1451.02 Z" fill="#000000" fill-rule="nonzero" fill-opacity="1" /><path clip-path="url(#clip560)" d="M1538.35 1481.64 L1554.66 1481.64 L1554.66 1485.58 L1532.72 1485.58 L1532.72 1481.64 Q1535.38 1478.89 1539.97 1474.26 Q1544.57 1469.61 1545.75 1468.27 Q1548 1465.74 1548.88 1464.01 Q1549.78 1462.25 1549.78 1460.56 Q1549.78 1457.8 1547.84 1456.07 Q1545.92 1454.33 1542.81 1454.33 Q1540.61 1454.33 1538.16 1455.09 Q1535.73 1455.86 1532.95 1457.41 L1532.95 1452.69 Q1535.78 1451.55 1538.23 1450.97 Q1540.68 1450.39 1542.72 1450.39 Q1548.09 1450.39 1551.29 1453.08 Q1554.48 1455.77 1554.48 1460.26 Q1554.48 1462.39 1553.67 1464.31 Q1552.88 1466.2 1550.78 1468.8 Q1550.2 1469.47 1547.1 1472.69 Q1543.99 1475.88 1538.35 1481.64 Z" fill="#000000" fill-rule="nonzero" fill-opacity="1" /><path clip-path="url(#clip560)" d="M1574.48 1454.1 Q1570.87 1454.1 1569.04 1457.66 Q1567.23 1461.2 1567.23 1468.33 Q1567.23 1475.44 1569.04 1479.01 Q1570.87 1482.55 1574.48 1482.55 Q1578.11 1482.55 1579.92 1479.01 Q1581.75 1475.44 1581.75 1468.33 Q1581.75 1461.2 1579.92 1457.66 Q1578.11 1454.1 1574.48 1454.1 M1574.48 1450.39 Q1580.29 1450.39 1583.35 1455 Q1586.42 1459.58 1586.42 1468.33 Q1586.42 1477.06 1583.35 1481.67 Q1580.29 1486.25 1574.48 1486.25 Q1568.67 1486.25 1565.59 1481.67 Q1562.54 1477.06 1562.54 1468.33 Q1562.54 1459.58 1565.59 1455 Q1568.67 1450.39 1574.48 1450.39 Z" fill="#000000" fill-rule="nonzero" fill-opacity="1" /><path clip-path="url(#clip560)" d="M1905.72 1481.64 L1922.04 1481.64 L1922.04 1485.58 L1900.09 1485.58 L1900.09 1481.64 Q1902.76 1478.89 1907.34 1474.26 Q1911.95 1469.61 1913.13 1468.27 Q1915.37 1465.74 1916.25 1464.01 Q1917.15 1462.25 1917.15 1460.56 Q1917.15 1457.8 1915.21 1456.07 Q1913.29 1454.33 1910.19 1454.33 Q1907.99 1454.33 1905.53 1455.09 Q1903.1 1455.86 1900.32 1457.41 L1900.32 1452.69 Q1903.15 1451.55 1905.6 1450.97 Q1908.06 1450.39 1910.09 1450.39 Q1915.46 1450.39 1918.66 1453.08 Q1921.85 1455.77 1921.85 1460.26 Q1921.85 1462.39 1921.04 1464.31 Q1920.26 1466.2 1918.15 1468.8 Q1917.57 1469.47 1914.47 1472.69 Q1911.37 1475.88 1905.72 1481.64 Z" fill="#000000" fill-rule="nonzero" fill-opacity="1" /><path clip-path="url(#clip560)" d="M1931.9 1451.02 L1950.26 1451.02 L1950.26 1454.96 L1936.18 1454.96 L1936.18 1463.43 Q1937.2 1463.08 1938.22 1462.92 Q1939.24 1462.73 1940.26 1462.73 Q1946.04 1462.73 1949.42 1465.9 Q1952.8 1469.08 1952.8 1474.49 Q1952.8 1480.07 1949.33 1483.17 Q1945.86 1486.25 1939.54 1486.25 Q1937.36 1486.25 1935.09 1485.88 Q1932.85 1485.51 1930.44 1484.77 L1930.44 1480.07 Q1932.52 1481.2 1934.75 1481.76 Q1936.97 1482.32 1939.44 1482.32 Q1943.45 1482.32 1945.79 1480.21 Q1948.13 1478.1 1948.13 1474.49 Q1948.13 1470.88 1945.79 1468.77 Q1943.45 1466.67 1939.44 1466.67 Q1937.57 1466.67 1935.69 1467.08 Q1933.84 1467.5 1931.9 1468.38 L1931.9 1451.02 Z" fill="#000000" fill-rule="nonzero" fill-opacity="1" /><path clip-path="url(#clip560)" d="M2282.16 1466.95 Q2285.52 1467.66 2287.4 1469.93 Q2289.29 1472.2 2289.29 1475.53 Q2289.29 1480.65 2285.78 1483.45 Q2282.26 1486.25 2275.78 1486.25 Q2273.6 1486.25 2271.29 1485.81 Q2268.99 1485.39 2266.54 1484.54 L2266.54 1480.02 Q2268.48 1481.16 2270.8 1481.74 Q2273.11 1482.32 2275.64 1482.32 Q2280.04 1482.32 2282.33 1480.58 Q2284.64 1478.84 2284.64 1475.53 Q2284.64 1472.48 2282.49 1470.77 Q2280.36 1469.03 2276.54 1469.03 L2272.51 1469.03 L2272.51 1465.19 L2276.73 1465.19 Q2280.17 1465.19 2282 1463.82 Q2283.83 1462.43 2283.83 1459.84 Q2283.83 1457.18 2281.93 1455.77 Q2280.06 1454.33 2276.54 1454.33 Q2274.62 1454.33 2272.42 1454.75 Q2270.22 1455.16 2267.58 1456.04 L2267.58 1451.88 Q2270.24 1451.14 2272.56 1450.77 Q2274.9 1450.39 2276.96 1450.39 Q2282.28 1450.39 2285.38 1452.83 Q2288.48 1455.23 2288.48 1459.35 Q2288.48 1462.22 2286.84 1464.21 Q2285.2 1466.18 2282.16 1466.95 Z" fill="#000000" fill-rule="nonzero" fill-opacity="1" /><path clip-path="url(#clip560)" d="M2308.16 1454.1 Q2304.55 1454.1 2302.72 1457.66 Q2300.91 1461.2 2300.91 1468.33 Q2300.91 1475.44 2302.72 1479.01 Q2304.55 1482.55 2308.16 1482.55 Q2311.79 1482.55 2313.6 1479.01 Q2315.43 1475.44 2315.43 1468.33 Q2315.43 1461.2 2313.6 1457.66 Q2311.79 1454.1 2308.16 1454.1 M2308.16 1450.39 Q2313.97 1450.39 2317.03 1455 Q2320.1 1459.58 2320.1 1468.33 Q2320.1 1477.06 2317.03 1481.67 Q2313.97 1486.25 2308.16 1486.25 Q2302.35 1486.25 2299.27 1481.67 Q2296.22 1477.06 2296.22 1468.33 Q2296.22 1459.58 2299.27 1455 Q2302.35 1450.39 2308.16 1450.39 Z" fill="#000000" fill-rule="nonzero" fill-opacity="1" /><path clip-path="url(#clip560)" d="M969.818 1520.52 L979.398 1520.52 L991.525 1552.86 L1003.71 1520.52 L1013.3 1520.52 L1013.3 1568.04 L1007.03 1568.04 L1007.03 1526.32 L994.771 1558.91 L988.31 1558.91 L976.056 1526.32 L976.056 1568.04 L969.818 1568.04 L969.818 1520.52 Z" fill="#000000" fill-rule="nonzero" fill-opacity="1" /><path clip-path="url(#clip560)" d="M1042 1550.12 Q1034.91 1550.12 1032.17 1551.75 Q1029.43 1553.37 1029.43 1557.29 Q1029.43 1560.4 1031.47 1562.25 Q1033.54 1564.07 1037.07 1564.07 Q1041.94 1564.07 1044.87 1560.63 Q1047.83 1557.16 1047.83 1551.43 L1047.83 1550.12 L1042 1550.12 M1053.69 1547.71 L1053.69 1568.04 L1047.83 1568.04 L1047.83 1562.63 Q1045.82 1565.88 1042.83 1567.44 Q1039.84 1568.97 1035.51 1568.97 Q1030.04 1568.97 1026.79 1565.91 Q1023.58 1562.82 1023.58 1557.67 Q1023.58 1551.65 1027.59 1548.6 Q1031.63 1545.54 1039.62 1545.54 L1047.83 1545.54 L1047.83 1544.97 Q1047.83 1540.93 1045.16 1538.73 Q1042.51 1536.5 1037.71 1536.5 Q1034.65 1536.5 1031.76 1537.23 Q1028.86 1537.97 1026.19 1539.43 L1026.19 1534.02 Q1029.4 1532.78 1032.42 1532.17 Q1035.45 1531.54 1038.31 1531.54 Q1046.05 1531.54 1049.87 1535.55 Q1053.69 1539.56 1053.69 1547.71 Z" fill="#000000" fill-rule="nonzero" fill-opacity="1" /><path clip-path="url(#clip560)" d="M1095.38 1532.4 L1082.49 1549.74 L1096.05 1568.04 L1089.14 1568.04 L1078.77 1554.04 L1068.39 1568.04 L1061.48 1568.04 L1075.33 1549.39 L1062.66 1532.4 L1069.57 1532.4 L1079.02 1545.1 L1088.47 1532.4 L1095.38 1532.4 Z" fill="#000000" fill-rule="nonzero" fill-opacity="1" /><path clip-path="url(#clip560)" d="M1150.64 1550.25 Q1150.64 1543.79 1147.96 1540.13 Q1145.32 1536.44 1140.67 1536.44 Q1136.03 1536.44 1133.35 1540.13 Q1130.71 1543.79 1130.71 1550.25 Q1130.71 1556.71 1133.35 1560.4 Q1136.03 1564.07 1140.67 1564.07 Q1145.32 1564.07 1147.96 1560.4 Q1150.64 1556.71 1150.64 1550.25 M1130.71 1537.81 Q1132.56 1534.62 1135.36 1533.1 Q1138.19 1531.54 1142.11 1531.54 Q1148.6 1531.54 1152.64 1536.69 Q1156.71 1541.85 1156.71 1550.25 Q1156.71 1558.65 1152.64 1563.81 Q1148.6 1568.97 1142.11 1568.97 Q1138.19 1568.97 1135.36 1567.44 Q1132.56 1565.88 1130.71 1562.7 L1130.71 1568.04 L1124.82 1568.04 L1124.82 1518.52 L1130.71 1518.52 L1130.71 1537.81 Z" fill="#000000" fill-rule="nonzero" fill-opacity="1" /><path clip-path="url(#clip560)" d="M1180.24 1536.5 Q1175.53 1536.5 1172.79 1540.19 Q1170.05 1543.85 1170.05 1550.25 Q1170.05 1556.65 1172.76 1560.34 Q1175.49 1564 1180.24 1564 Q1184.91 1564 1187.65 1560.31 Q1190.39 1556.62 1190.39 1550.25 Q1190.39 1543.92 1187.65 1540.23 Q1184.91 1536.5 1180.24 1536.5 M1180.24 1531.54 Q1187.87 1531.54 1192.24 1536.5 Q1196.6 1541.47 1196.6 1550.25 Q1196.6 1559 1192.24 1564 Q1187.87 1568.97 1180.24 1568.97 Q1172.57 1568.97 1168.2 1564 Q1163.88 1559 1163.88 1550.25 Q1163.88 1541.47 1168.2 1536.5 Q1172.57 1531.54 1180.24 1531.54 Z" fill="#000000" fill-rule="nonzero" fill-opacity="1" /><path clip-path="url(#clip560)" d="M1235.94 1546.53 L1235.94 1568.04 L1230.08 1568.04 L1230.08 1546.72 Q1230.08 1541.66 1228.11 1539.14 Q1226.13 1536.63 1222.19 1536.63 Q1217.44 1536.63 1214.71 1539.65 Q1211.97 1542.68 1211.97 1547.9 L1211.97 1568.04 L1206.08 1568.04 L1206.08 1532.4 L1211.97 1532.4 L1211.97 1537.93 Q1214.07 1534.72 1216.9 1533.13 Q1219.77 1531.54 1223.49 1531.54 Q1229.63 1531.54 1232.78 1535.36 Q1235.94 1539.14 1235.94 1546.53 Z" fill="#000000" fill-rule="nonzero" fill-opacity="1" /><path clip-path="url(#clip560)" d="M1271.07 1537.81 L1271.07 1518.52 L1276.93 1518.52 L1276.93 1568.04 L1271.07 1568.04 L1271.07 1562.7 Q1269.23 1565.88 1266.4 1567.44 Q1263.59 1568.97 1259.65 1568.97 Q1253.19 1568.97 1249.11 1563.81 Q1245.07 1558.65 1245.07 1550.25 Q1245.07 1541.85 1249.11 1536.69 Q1253.19 1531.54 1259.65 1531.54 Q1263.59 1531.54 1266.4 1533.1 Q1269.23 1534.62 1271.07 1537.81 M1251.12 1550.25 Q1251.12 1556.71 1253.76 1560.4 Q1256.43 1564.07 1261.08 1564.07 Q1265.73 1564.07 1268.4 1560.4 Q1271.07 1556.71 1271.07 1550.25 Q1271.07 1543.79 1268.4 1540.13 Q1265.73 1536.44 1261.08 1536.44 Q1256.43 1536.44 1253.76 1540.13 Q1251.12 1543.79 1251.12 1550.25 Z" fill="#000000" fill-rule="nonzero" fill-opacity="1" /><path clip-path="url(#clip560)" d="M1333.17 1537.81 L1333.17 1518.52 L1339.03 1518.52 L1339.03 1568.04 L1333.17 1568.04 L1333.17 1562.7 Q1331.33 1565.88 1328.49 1567.44 Q1325.69 1568.97 1321.75 1568.97 Q1315.28 1568.97 1311.21 1563.81 Q1307.17 1558.65 1307.17 1550.25 Q1307.17 1541.85 1311.21 1536.69 Q1315.28 1531.54 1321.75 1531.54 Q1325.69 1531.54 1328.49 1533.1 Q1331.33 1534.62 1333.17 1537.81 M1313.22 1550.25 Q1313.22 1556.71 1315.86 1560.4 Q1318.53 1564.07 1323.18 1564.07 Q1327.82 1564.07 1330.5 1560.4 Q1333.17 1556.71 1333.17 1550.25 Q1333.17 1543.79 1330.5 1540.13 Q1327.82 1536.44 1323.18 1536.44 Q1318.53 1536.44 1315.86 1540.13 Q1313.22 1543.79 1313.22 1550.25 Z" fill="#000000" fill-rule="nonzero" fill-opacity="1" /><path clip-path="url(#clip560)" d="M1351.09 1532.4 L1356.95 1532.4 L1356.95 1568.04 L1351.09 1568.04 L1351.09 1532.4 M1351.09 1518.52 L1356.95 1518.52 L1356.95 1525.93 L1351.09 1525.93 L1351.09 1518.52 Z" fill="#000000" fill-rule="nonzero" fill-opacity="1" /><path clip-path="url(#clip560)" d="M1396.96 1539.24 Q1399.15 1535.29 1402.21 1533.41 Q1405.26 1531.54 1409.4 1531.54 Q1414.97 1531.54 1418 1535.45 Q1421.02 1539.33 1421.02 1546.53 L1421.02 1568.04 L1415.13 1568.04 L1415.13 1546.72 Q1415.13 1541.59 1413.32 1539.11 Q1411.5 1536.63 1407.78 1536.63 Q1403.23 1536.63 1400.58 1539.65 Q1397.94 1542.68 1397.94 1547.9 L1397.94 1568.04 L1392.05 1568.04 L1392.05 1546.72 Q1392.05 1541.56 1390.24 1539.11 Q1388.43 1536.63 1384.64 1536.63 Q1380.15 1536.63 1377.51 1539.68 Q1374.87 1542.71 1374.87 1547.9 L1374.87 1568.04 L1368.98 1568.04 L1368.98 1532.4 L1374.87 1532.4 L1374.87 1537.93 Q1376.87 1534.66 1379.67 1533.1 Q1382.47 1531.54 1386.33 1531.54 Q1390.21 1531.54 1392.91 1533.51 Q1395.65 1535.48 1396.96 1539.24 Z" fill="#000000" fill-rule="nonzero" fill-opacity="1" /><path clip-path="url(#clip560)" d="M1463.19 1548.76 L1463.19 1551.62 L1436.26 1551.62 Q1436.65 1557.67 1439.89 1560.85 Q1443.17 1564 1449 1564 Q1452.37 1564 1455.52 1563.17 Q1458.7 1562.35 1461.82 1560.69 L1461.82 1566.23 Q1458.67 1567.57 1455.36 1568.27 Q1452.05 1568.97 1448.65 1568.97 Q1440.12 1568.97 1435.12 1564 Q1430.15 1559.04 1430.15 1550.57 Q1430.15 1541.82 1434.86 1536.69 Q1439.61 1531.54 1447.63 1531.54 Q1454.82 1531.54 1458.99 1536.18 Q1463.19 1540.8 1463.19 1548.76 M1457.34 1547.04 Q1457.27 1542.23 1454.63 1539.37 Q1452.02 1536.5 1447.69 1536.5 Q1442.79 1536.5 1439.83 1539.27 Q1436.9 1542.04 1436.46 1547.07 L1457.34 1547.04 Z" fill="#000000" fill-rule="nonzero" fill-opacity="1" /><path clip-path="url(#clip560)" d="M1502.44 1546.53 L1502.44 1568.04 L1496.58 1568.04 L1496.58 1546.72 Q1496.58 1541.66 1494.61 1539.14 Q1492.63 1536.63 1488.69 1536.63 Q1483.94 1536.63 1481.21 1539.65 Q1478.47 1542.68 1478.47 1547.9 L1478.47 1568.04 L1472.58 1568.04 L1472.58 1532.4 L1478.47 1532.4 L1478.47 1537.93 Q1480.57 1534.72 1483.4 1533.13 Q1486.27 1531.54 1489.99 1531.54 Q1496.13 1531.54 1499.29 1535.36 Q1502.44 1539.14 1502.44 1546.53 Z" fill="#000000" fill-rule="nonzero" fill-opacity="1" /><path clip-path="url(#clip560)" d="M1536.84 1533.45 L1536.84 1538.98 Q1534.36 1537.71 1531.69 1537.07 Q1529.01 1536.44 1526.15 1536.44 Q1521.79 1536.44 1519.59 1537.77 Q1517.43 1539.11 1517.43 1541.79 Q1517.43 1543.82 1518.99 1545 Q1520.55 1546.15 1525.26 1547.2 L1527.26 1547.64 Q1533.5 1548.98 1536.11 1551.43 Q1538.75 1553.85 1538.75 1558.21 Q1538.75 1563.17 1534.81 1566.07 Q1530.89 1568.97 1524.02 1568.97 Q1521.15 1568.97 1518.03 1568.39 Q1514.94 1567.85 1511.51 1566.74 L1511.51 1560.69 Q1514.75 1562.38 1517.9 1563.24 Q1521.06 1564.07 1524.14 1564.07 Q1528.28 1564.07 1530.51 1562.66 Q1532.74 1561.23 1532.74 1558.65 Q1532.74 1556.27 1531.11 1554.99 Q1529.52 1553.72 1524.08 1552.54 L1522.04 1552.07 Q1516.6 1550.92 1514.18 1548.56 Q1511.76 1546.18 1511.76 1542.04 Q1511.76 1537.01 1515.33 1534.27 Q1518.89 1531.54 1525.45 1531.54 Q1528.69 1531.54 1531.56 1532.01 Q1534.42 1532.49 1536.84 1533.45 Z" fill="#000000" fill-rule="nonzero" fill-opacity="1" /><path clip-path="url(#clip560)" d="M1548.08 1532.4 L1553.93 1532.4 L1553.93 1568.04 L1548.08 1568.04 L1548.08 1532.4 M1548.08 1518.52 L1553.93 1518.52 L1553.93 1525.93 L1548.08 1525.93 L1548.08 1518.52 Z" fill="#000000" fill-rule="nonzero" fill-opacity="1" /><path clip-path="url(#clip560)" d="M1580 1536.5 Q1575.29 1536.5 1572.55 1540.19 Q1569.82 1543.85 1569.82 1550.25 Q1569.82 1556.65 1572.52 1560.34 Q1575.26 1564 1580 1564 Q1584.68 1564 1587.42 1560.31 Q1590.16 1556.62 1590.16 1550.25 Q1590.16 1543.92 1587.42 1540.23 Q1584.68 1536.5 1580 1536.5 M1580 1531.54 Q1587.64 1531.54 1592 1536.5 Q1596.36 1541.47 1596.36 1550.25 Q1596.36 1559 1592 1564 Q1587.64 1568.97 1580 1568.97 Q1572.33 1568.97 1567.97 1564 Q1563.64 1559 1563.64 1550.25 Q1563.64 1541.47 1567.97 1536.5 Q1572.33 1531.54 1580 1531.54 Z" fill="#000000" fill-rule="nonzero" fill-opacity="1" /><path clip-path="url(#clip560)" d="M1635.7 1546.53 L1635.7 1568.04 L1629.85 1568.04 L1629.85 1546.72 Q1629.85 1541.66 1627.87 1539.14 Q1625.9 1536.63 1621.95 1536.63 Q1617.21 1536.63 1614.47 1539.65 Q1611.74 1542.68 1611.74 1547.9 L1611.74 1568.04 L1605.85 1568.04 L1605.85 1532.4 L1611.74 1532.4 L1611.74 1537.93 Q1613.84 1534.72 1616.67 1533.13 Q1619.53 1531.54 1623.26 1531.54 Q1629.4 1531.54 1632.55 1535.36 Q1635.7 1539.14 1635.7 1546.53 Z" fill="#000000" fill-rule="nonzero" fill-opacity="1" /><polyline clip-path="url(#clip560)" style="stroke:#000000; stroke-linecap:round; stroke-linejoin:round; stroke-width:4; stroke-opacity:1; fill:none" points="252.764,1423.18 252.764,47.2441 "/>
<polyline clip-path="url(#clip560)" style="stroke:#000000; stroke-linecap:round; stroke-linejoin:round; stroke-width:4; stroke-opacity:1; fill:none" points="252.764,1260.83 271.662,1260.83 "/>
<polyline clip-path="url(#clip560)" style="stroke:#000000; stroke-linecap:round; stroke-linejoin:round; stroke-width:4; stroke-opacity:1; fill:none" points="252.764,952.199 271.662,952.199 "/>
<polyline clip-path="url(#clip560)" style="stroke:#000000; stroke-linecap:round; stroke-linejoin:round; stroke-width:4; stroke-opacity:1; fill:none" points="252.764,643.569 271.662,643.569 "/>
<polyline clip-path="url(#clip560)" style="stroke:#000000; stroke-linecap:round; stroke-linejoin:round; stroke-width:4; stroke-opacity:1; fill:none" points="252.764,334.938 271.662,334.938 "/>
<path clip-path="url(#clip560)" d="M115.402 1280.62 L123.04 1280.62 L123.04 1254.26 L114.73 1255.92 L114.73 1251.66 L122.994 1250 L127.67 1250 L127.67 1280.62 L135.309 1280.62 L135.309 1284.56 L115.402 1284.56 L115.402 1280.62 Z" fill="#000000" fill-rule="nonzero" fill-opacity="1" /><path clip-path="url(#clip560)" d="M154.753 1253.08 Q151.142 1253.08 149.313 1256.64 Q147.508 1260.18 147.508 1267.31 Q147.508 1274.42 149.313 1277.98 Q151.142 1281.53 154.753 1281.53 Q158.388 1281.53 160.193 1277.98 Q162.022 1274.42 162.022 1267.31 Q162.022 1260.18 160.193 1256.64 Q158.388 1253.08 154.753 1253.08 M154.753 1249.37 Q160.563 1249.37 163.619 1253.98 Q166.698 1258.56 166.698 1267.31 Q166.698 1276.04 163.619 1280.65 Q160.563 1285.23 154.753 1285.23 Q148.943 1285.23 145.864 1280.65 Q142.809 1276.04 142.809 1267.31 Q142.809 1258.56 145.864 1253.98 Q148.943 1249.37 154.753 1249.37 Z" fill="#000000" fill-rule="nonzero" fill-opacity="1" /><path clip-path="url(#clip560)" d="M166.698 1243.47 L190.809 1243.47 L190.809 1246.67 L166.698 1246.67 L166.698 1243.47 Z" fill="#000000" fill-rule="nonzero" fill-opacity="1" /><path clip-path="url(#clip560)" d="M207.134 1243.81 Q204.426 1243.81 202.865 1245.26 Q201.323 1246.71 201.323 1249.25 Q201.323 1251.79 202.865 1253.24 Q204.426 1254.68 207.134 1254.68 Q209.843 1254.68 211.404 1253.24 Q212.965 1251.77 212.965 1249.25 Q212.965 1246.71 211.404 1245.26 Q209.861 1243.81 207.134 1243.81 M203.335 1242.2 Q200.89 1241.59 199.517 1239.92 Q198.163 1238.25 198.163 1235.84 Q198.163 1232.47 200.552 1230.52 Q202.959 1228.56 207.134 1228.56 Q211.329 1228.56 213.717 1230.52 Q216.106 1232.47 216.106 1235.84 Q216.106 1238.25 214.733 1239.92 Q213.379 1241.59 210.952 1242.2 Q213.698 1242.83 215.222 1244.7 Q216.764 1246.56 216.764 1249.25 Q216.764 1253.33 214.263 1255.51 Q211.78 1257.69 207.134 1257.69 Q202.489 1257.69 199.987 1255.51 Q197.505 1253.33 197.505 1249.25 Q197.505 1246.56 199.047 1244.7 Q200.589 1242.83 203.335 1242.2 M201.943 1236.2 Q201.943 1238.38 203.298 1239.6 Q204.671 1240.82 207.134 1240.82 Q209.579 1240.82 210.952 1239.6 Q212.344 1238.38 212.344 1236.2 Q212.344 1234.01 210.952 1232.79 Q209.579 1231.57 207.134 1231.57 Q204.671 1231.57 203.298 1232.79 Q201.943 1234.01 201.943 1236.2 Z" fill="#000000" fill-rule="nonzero" fill-opacity="1" /><path clip-path="url(#clip560)" d="M115.195 971.992 L122.834 971.992 L122.834 945.626 L114.523 947.293 L114.523 943.034 L122.787 941.367 L127.463 941.367 L127.463 971.992 L135.102 971.992 L135.102 975.927 L115.195 975.927 L115.195 971.992 Z" fill="#000000" fill-rule="nonzero" fill-opacity="1" /><path clip-path="url(#clip560)" d="M154.546 944.446 Q150.935 944.446 149.107 948.01 Q147.301 951.552 147.301 958.682 Q147.301 965.788 149.107 969.353 Q150.935 972.895 154.546 972.895 Q158.181 972.895 159.986 969.353 Q161.815 965.788 161.815 958.682 Q161.815 951.552 159.986 948.01 Q158.181 944.446 154.546 944.446 M154.546 940.742 Q160.357 940.742 163.412 945.348 Q166.491 949.932 166.491 958.682 Q166.491 967.408 163.412 972.015 Q160.357 976.598 154.546 976.598 Q148.736 976.598 145.658 972.015 Q142.602 967.408 142.602 958.682 Q142.602 949.932 145.658 945.348 Q148.736 940.742 154.546 940.742 Z" fill="#000000" fill-rule="nonzero" fill-opacity="1" /><path clip-path="url(#clip560)" d="M166.491 934.843 L190.602 934.843 L190.602 938.041 L166.491 938.041 L166.491 934.843 Z" fill="#000000" fill-rule="nonzero" fill-opacity="1" /><path clip-path="url(#clip560)" d="M207.398 932.963 Q204.84 932.963 203.335 934.712 Q201.849 936.461 201.849 939.508 Q201.849 942.536 203.335 944.304 Q204.84 946.053 207.398 946.053 Q209.956 946.053 211.441 944.304 Q212.946 942.536 212.946 939.508 Q212.946 936.461 211.441 934.712 Q209.956 932.963 207.398 932.963 M214.94 921.057 L214.94 924.518 Q213.51 923.841 212.043 923.483 Q210.595 923.126 209.166 923.126 Q205.404 923.126 203.41 925.665 Q201.436 928.204 201.153 933.339 Q202.263 931.702 203.937 930.837 Q205.611 929.953 207.623 929.953 Q211.855 929.953 214.3 932.53 Q216.764 935.088 216.764 939.508 Q216.764 943.833 214.206 946.448 Q211.648 949.062 207.398 949.062 Q202.526 949.062 199.95 945.338 Q197.373 941.595 197.373 934.505 Q197.373 927.847 200.533 923.897 Q203.693 919.929 209.015 919.929 Q210.445 919.929 211.893 920.211 Q213.36 920.493 214.94 921.057 Z" fill="#000000" fill-rule="nonzero" fill-opacity="1" /><path clip-path="url(#clip560)" d="M114.931 663.361 L122.57 663.361 L122.57 636.995 L114.26 638.662 L114.26 634.403 L122.524 632.736 L127.2 632.736 L127.2 663.361 L134.839 663.361 L134.839 667.296 L114.931 667.296 L114.931 663.361 Z" fill="#000000" fill-rule="nonzero" fill-opacity="1" /><path clip-path="url(#clip560)" d="M154.283 635.815 Q150.672 635.815 148.843 639.38 Q147.038 642.921 147.038 650.051 Q147.038 657.157 148.843 660.722 Q150.672 664.264 154.283 664.264 Q157.917 664.264 159.723 660.722 Q161.552 657.157 161.552 650.051 Q161.552 642.921 159.723 639.38 Q157.917 635.815 154.283 635.815 M154.283 632.111 Q160.093 632.111 163.149 636.718 Q166.227 641.301 166.227 650.051 Q166.227 658.778 163.149 663.384 Q160.093 667.968 154.283 667.968 Q148.473 667.968 145.394 663.384 Q142.339 658.778 142.339 650.051 Q142.339 641.301 145.394 636.718 Q148.473 632.111 154.283 632.111 Z" fill="#000000" fill-rule="nonzero" fill-opacity="1" /><path clip-path="url(#clip560)" d="M166.227 626.213 L190.339 626.213 L190.339 629.41 L166.227 629.41 L166.227 626.213 Z" fill="#000000" fill-rule="nonzero" fill-opacity="1" /><path clip-path="url(#clip560)" d="M208.978 615.116 L199.386 630.106 L208.978 630.106 L208.978 615.116 M207.981 611.806 L212.758 611.806 L212.758 630.106 L216.764 630.106 L216.764 633.266 L212.758 633.266 L212.758 639.886 L208.978 639.886 L208.978 633.266 L196.301 633.266 L196.301 629.598 L207.981 611.806 Z" fill="#000000" fill-rule="nonzero" fill-opacity="1" /><path clip-path="url(#clip560)" d="M116.624 354.73 L124.263 354.73 L124.263 328.365 L115.953 330.031 L115.953 325.772 L124.217 324.106 L128.893 324.106 L128.893 354.73 L136.531 354.73 L136.531 358.666 L116.624 358.666 L116.624 354.73 Z" fill="#000000" fill-rule="nonzero" fill-opacity="1" /><path clip-path="url(#clip560)" d="M155.976 327.184 Q152.365 327.184 150.536 330.749 Q148.73 334.291 148.73 341.42 Q148.73 348.527 150.536 352.091 Q152.365 355.633 155.976 355.633 Q159.61 355.633 161.416 352.091 Q163.244 348.527 163.244 341.42 Q163.244 334.291 161.416 330.749 Q159.61 327.184 155.976 327.184 M155.976 323.481 Q161.786 323.481 164.841 328.087 Q167.92 332.67 167.92 341.42 Q167.92 350.147 164.841 354.753 Q161.786 359.337 155.976 359.337 Q150.166 359.337 147.087 354.753 Q144.031 350.147 144.031 341.42 Q144.031 332.67 147.087 328.087 Q150.166 323.481 155.976 323.481 Z" fill="#000000" fill-rule="nonzero" fill-opacity="1" /><path clip-path="url(#clip560)" d="M167.92 317.582 L192.032 317.582 L192.032 320.779 L167.92 320.779 L167.92 317.582 Z" fill="#000000" fill-rule="nonzero" fill-opacity="1" /><path clip-path="url(#clip560)" d="M203.504 328.058 L216.764 328.058 L216.764 331.255 L198.934 331.255 L198.934 328.058 Q201.097 325.82 204.821 322.058 Q208.564 318.278 209.523 317.187 Q211.347 315.137 212.062 313.726 Q212.796 312.297 212.796 310.924 Q212.796 308.686 211.216 307.275 Q209.655 305.865 207.134 305.865 Q205.348 305.865 203.354 306.485 Q201.379 307.106 199.122 308.366 L199.122 304.529 Q201.417 303.608 203.41 303.137 Q205.404 302.667 207.059 302.667 Q211.423 302.667 214.018 304.849 Q216.613 307.031 216.613 310.679 Q216.613 312.41 215.955 313.971 Q215.316 315.513 213.604 317.619 Q213.134 318.165 210.614 320.779 Q208.094 323.375 203.504 328.058 Z" fill="#000000" fill-rule="nonzero" fill-opacity="1" /><path clip-path="url(#clip560)" d="M18.0438 984.429 L24.314 984.429 Q22.5634 988.09 21.704 991.336 Q20.8447 994.583 20.8447 997.606 Q20.8447 1002.86 22.8817 1005.72 Q24.9187 1008.56 28.6745 1008.56 Q31.8255 1008.56 33.4488 1006.68 Q35.0402 1004.77 36.0269 999.484 L36.8226 995.601 Q38.1912 988.408 41.6605 985.002 Q45.098 981.565 50.8908 981.565 Q57.7976 981.565 61.3624 986.212 Q64.9272 990.827 64.9272 999.771 Q64.9272 1003.14 64.1633 1006.96 Q63.3994 1010.75 61.9035 1014.83 L55.2831 1014.83 Q57.4793 1010.91 58.5933 1007.15 Q59.7073 1003.4 59.7073 999.771 Q59.7073 994.264 57.543 991.273 Q55.3786 988.281 51.3682 988.281 Q47.8671 988.281 45.8937 990.445 Q43.9204 992.577 42.9337 997.479 L42.1698 1001.39 Q40.7375 1008.59 37.682 1011.8 Q34.6264 1015.02 29.1837 1015.02 Q22.8817 1015.02 19.2532 1010.59 Q15.6248 1006.14 15.6248 998.338 Q15.6248 994.996 16.2295 991.527 Q16.8343 988.058 18.0438 984.429 Z" fill="#000000" fill-rule="nonzero" fill-opacity="1" /><path clip-path="url(#clip560)" d="M46.0847 955.593 Q46.0847 962.69 47.7079 965.428 Q49.3312 968.165 53.2461 968.165 Q56.3653 968.165 58.2114 966.128 Q60.0256 964.059 60.0256 960.526 Q60.0256 955.656 56.5881 952.728 Q53.1188 949.768 47.3897 949.768 L46.0847 949.768 L46.0847 955.593 M43.6657 943.912 L64.0042 943.912 L64.0042 949.768 L58.5933 949.768 Q61.8398 951.773 63.3994 954.765 Q64.9272 957.757 64.9272 962.086 Q64.9272 967.56 61.8716 970.807 Q58.7843 974.021 53.6281 974.021 Q47.6125 974.021 44.5569 970.011 Q41.5014 965.969 41.5014 957.98 L41.5014 949.768 L40.9285 949.768 Q36.8862 949.768 34.6901 952.442 Q32.4621 955.083 32.4621 959.89 Q32.4621 962.945 33.1941 965.842 Q33.9262 968.738 35.3903 971.412 L29.9795 971.412 Q28.7381 968.197 28.1334 965.173 Q27.4968 962.149 27.4968 959.285 Q27.4968 951.551 31.5072 947.731 Q35.5176 943.912 43.6657 943.912 Z" fill="#000000" fill-rule="nonzero" fill-opacity="1" /><path clip-path="url(#clip560)" d="M35.1993 904.094 Q31.2526 901.898 29.3747 898.842 Q27.4968 895.787 27.4968 891.649 Q27.4968 886.079 31.4117 883.056 Q35.2948 880.032 42.4881 880.032 L64.0042 880.032 L64.0042 885.92 L42.679 885.92 Q37.5546 885.92 35.072 887.734 Q32.5894 889.549 32.5894 893.272 Q32.5894 897.824 35.6131 900.466 Q38.6368 903.107 43.8567 903.107 L64.0042 903.107 L64.0042 908.996 L42.679 908.996 Q37.5228 908.996 35.072 910.81 Q32.5894 912.624 32.5894 916.412 Q32.5894 920.9 35.6449 923.541 Q38.6686 926.183 43.8567 926.183 L64.0042 926.183 L64.0042 932.071 L28.3562 932.071 L28.3562 926.183 L33.8944 926.183 Q30.616 924.178 29.0564 921.377 Q27.4968 918.576 27.4968 914.725 Q27.4968 910.842 29.4702 908.136 Q31.4436 905.399 35.1993 904.094 Z" fill="#000000" fill-rule="nonzero" fill-opacity="1" /><path clip-path="url(#clip560)" d="M58.657 862.685 L77.5631 862.685 L77.5631 868.574 L28.3562 868.574 L28.3562 862.685 L33.7671 862.685 Q30.5842 860.839 29.0564 858.038 Q27.4968 855.206 27.4968 851.291 Q27.4968 844.798 32.6531 840.755 Q37.8093 836.681 46.212 836.681 Q54.6147 836.681 59.771 840.755 Q64.9272 844.798 64.9272 851.291 Q64.9272 855.206 63.3994 858.038 Q61.8398 860.839 58.657 862.685 M46.212 842.761 Q39.7508 842.761 36.0905 845.434 Q32.3984 848.076 32.3984 852.723 Q32.3984 857.37 36.0905 860.043 Q39.7508 862.685 46.212 862.685 Q52.6732 862.685 56.3653 860.043 Q60.0256 857.37 60.0256 852.723 Q60.0256 848.076 56.3653 845.434 Q52.6732 842.761 46.212 842.761 Z" fill="#000000" fill-rule="nonzero" fill-opacity="1" /><path clip-path="url(#clip560)" d="M14.479 826.974 L14.479 821.117 L64.0042 821.117 L64.0042 826.974 L14.479 826.974 Z" fill="#000000" fill-rule="nonzero" fill-opacity="1" /><path clip-path="url(#clip560)" d="M44.7161 778.371 L47.5806 778.371 L47.5806 805.298 Q53.6281 804.916 56.8109 801.67 Q59.9619 798.392 59.9619 792.567 Q59.9619 789.193 59.1344 786.042 Q58.3069 782.859 56.6518 779.74 L62.1899 779.74 Q63.5267 782.891 64.227 786.201 Q64.9272 789.511 64.9272 792.917 Q64.9272 801.447 59.9619 806.444 Q54.9967 811.409 46.5303 811.409 Q37.7774 811.409 32.6531 806.699 Q27.4968 801.956 27.4968 793.936 Q27.4968 786.742 32.1438 782.573 Q36.7589 778.371 44.7161 778.371 M42.9973 784.228 Q38.1912 784.292 35.3266 786.933 Q32.4621 789.543 32.4621 793.872 Q32.4621 798.774 35.2312 801.734 Q38.0002 804.662 43.0292 805.107 L42.9973 784.228 Z" fill="#000000" fill-rule="nonzero" fill-opacity="1" /><path clip-path="url(#clip560)" d="M33.7671 745.302 L14.479 745.302 L14.479 739.445 L64.0042 739.445 L64.0042 745.302 L58.657 745.302 Q61.8398 747.148 63.3994 749.98 Q64.9272 752.781 64.9272 756.728 Q64.9272 763.189 59.771 767.263 Q54.6147 771.306 46.212 771.306 Q37.8093 771.306 32.6531 767.263 Q27.4968 763.189 27.4968 756.728 Q27.4968 752.781 29.0564 749.98 Q30.5842 747.148 33.7671 745.302 M46.212 765.258 Q52.6732 765.258 56.3653 762.616 Q60.0256 759.943 60.0256 755.296 Q60.0256 750.649 56.3653 747.975 Q52.6732 745.302 46.212 745.302 Q39.7508 745.302 36.0905 747.975 Q32.3984 750.649 32.3984 755.296 Q32.3984 759.943 36.0905 762.616 Q39.7508 765.258 46.212 765.258 Z" fill="#000000" fill-rule="nonzero" fill-opacity="1" /><path clip-path="url(#clip560)" d="M16.4842 706.407 L16.4842 699.978 L58.5933 699.978 L58.5933 676.838 L64.0042 676.838 L64.0042 706.407 L16.4842 706.407 Z" fill="#000000" fill-rule="nonzero" fill-opacity="1" /><path clip-path="url(#clip560)" d="M58.5933 668.404 L58.5933 657.9 L22.3406 657.9 L24.6323 669.327 L18.7758 669.327 L16.4842 657.964 L16.4842 651.535 L58.5933 651.535 L58.5933 641.031 L64.0042 641.031 L64.0042 668.404 L58.5933 668.404 Z" fill="#000000" fill-rule="nonzero" fill-opacity="1" /><path clip-path="url(#clip560)" d="M16.4842 607.898 L16.4842 577.852 L21.895 577.852 L21.895 601.468 L35.9632 601.468 L35.9632 578.838 L41.3741 578.838 L41.3741 601.468 L58.5933 601.468 L58.5933 577.279 L64.0042 577.279 L64.0042 607.898 L16.4842 607.898 Z" fill="#000000" fill-rule="nonzero" fill-opacity="1" /><path clip-path="url(#clip560)" d="M33.8307 546.31 Q33.2578 547.296 33.0032 548.474 Q32.7167 549.62 32.7167 551.02 Q32.7167 555.985 35.9632 558.659 Q39.1779 561.301 45.2253 561.301 L64.0042 561.301 L64.0042 567.189 L28.3562 567.189 L28.3562 561.301 L33.8944 561.301 Q30.6479 559.455 29.0883 556.495 Q27.4968 553.535 27.4968 549.302 Q27.4968 548.697 27.5923 547.965 Q27.656 547.233 27.8151 546.341 L33.8307 546.31 Z" fill="#000000" fill-rule="nonzero" fill-opacity="1" /><path clip-path="url(#clip560)" d="M33.8307 520.656 Q33.2578 521.643 33.0032 522.82 Q32.7167 523.966 32.7167 525.366 Q32.7167 530.332 35.9632 533.005 Q39.1779 535.647 45.2253 535.647 L64.0042 535.647 L64.0042 541.535 L28.3562 541.535 L28.3562 535.647 L33.8944 535.647 Q30.6479 533.801 29.0883 530.841 Q27.4968 527.881 27.4968 523.648 Q27.4968 523.043 27.5923 522.311 Q27.656 521.579 27.8151 520.688 L33.8307 520.656 Z" fill="#000000" fill-rule="nonzero" fill-opacity="1" /><path clip-path="url(#clip560)" d="M32.4621 502.132 Q32.4621 506.842 36.1542 509.579 Q39.8145 512.317 46.212 512.317 Q52.6095 512.317 56.3017 509.611 Q59.9619 506.874 59.9619 502.132 Q59.9619 497.453 56.2698 494.716 Q52.5777 491.978 46.212 491.978 Q39.8781 491.978 36.186 494.716 Q32.4621 497.453 32.4621 502.132 M27.4968 502.132 Q27.4968 494.493 32.4621 490.132 Q37.4273 485.772 46.212 485.772 Q54.9649 485.772 59.9619 490.132 Q64.9272 494.493 64.9272 502.132 Q64.9272 509.802 59.9619 514.163 Q54.9649 518.491 46.212 518.491 Q37.4273 518.491 32.4621 514.163 Q27.4968 509.802 27.4968 502.132 Z" fill="#000000" fill-rule="nonzero" fill-opacity="1" /><path clip-path="url(#clip560)" d="M33.8307 455.407 Q33.2578 456.394 33.0032 457.572 Q32.7167 458.718 32.7167 460.118 Q32.7167 465.083 35.9632 467.757 Q39.1779 470.399 45.2253 470.399 L64.0042 470.399 L64.0042 476.287 L28.3562 476.287 L28.3562 470.399 L33.8944 470.399 Q30.6479 468.553 29.0883 465.592 Q27.4968 462.632 27.4968 458.399 Q27.4968 457.794 27.5923 457.062 Q27.656 456.33 27.8151 455.439 L33.8307 455.407 Z" fill="#000000" fill-rule="nonzero" fill-opacity="1" /><polyline clip-path="url(#clip562)" style="stroke:#009af9; stroke-linecap:round; stroke-linejoin:round; stroke-width:4; stroke-opacity:1; fill:none" points="312.198,219.421 532.323,1076.28 752.448,1353.84 972.573,1354.71 1192.7,1356.19 1412.82,1351.58 1632.95,1359.06 1853.07,1352.41 2073.2,1357.74 2293.32,1356.18 "/>
<path clip-path="url(#clip562)" d="M312.198 235.421 L300.886 230.733 L296.198 219.421 L300.886 208.109 L312.198 203.421 L323.51 208.109 L328.198 219.421 L323.51 230.733 Z" fill="#009af9" fill-rule="evenodd" fill-opacity="1" stroke="#000000" stroke-opacity="1" stroke-width="3.2"/>
<path clip-path="url(#clip562)" d="M532.323 1092.28 L521.011 1087.59 L516.323 1076.28 L521.011 1064.97 L532.323 1060.28 L543.635 1064.97 L548.323 1076.28 L543.635 1087.59 Z" fill="#009af9" fill-rule="evenodd" fill-opacity="1" stroke="#000000" stroke-opacity="1" stroke-width="3.2"/>
<path clip-path="url(#clip562)" d="M752.448 1369.84 L741.136 1365.16 L736.448 1353.84 L741.136 1342.53 L752.448 1337.84 L763.76 1342.53 L768.448 1353.84 L763.76 1365.16 Z" fill="#009af9" fill-rule="evenodd" fill-opacity="1" stroke="#000000" stroke-opacity="1" stroke-width="3.2"/>
<path clip-path="url(#clip562)" d="M972.573 1370.71 L961.261 1366.03 L956.573 1354.71 L961.261 1343.4 L972.573 1338.71 L983.885 1343.4 L988.573 1354.71 L983.885 1366.03 Z" fill="#009af9" fill-rule="evenodd" fill-opacity="1" stroke="#000000" stroke-opacity="1" stroke-width="3.2"/>
<path clip-path="url(#clip562)" d="M1192.7 1372.19 L1181.39 1367.5 L1176.7 1356.19 L1181.39 1344.88 L1192.7 1340.19 L1204.01 1344.88 L1208.7 1356.19 L1204.01 1367.5 Z" fill="#009af9" fill-rule="evenodd" fill-opacity="1" stroke="#000000" stroke-opacity="1" stroke-width="3.2"/>
<path clip-path="url(#clip562)" d="M1412.82 1367.58 L1401.51 1362.89 L1396.82 1351.58 L1401.51 1340.26 L1412.82 1335.58 L1424.13 1340.26 L1428.82 1351.58 L1424.13 1362.89 Z" fill="#009af9" fill-rule="evenodd" fill-opacity="1" stroke="#000000" stroke-opacity="1" stroke-width="3.2"/>
<path clip-path="url(#clip562)" d="M1632.95 1375.06 L1621.64 1370.37 L1616.95 1359.06 L1621.64 1347.75 L1632.95 1343.06 L1644.26 1347.75 L1648.95 1359.06 L1644.26 1370.37 Z" fill="#009af9" fill-rule="evenodd" fill-opacity="1" stroke="#000000" stroke-opacity="1" stroke-width="3.2"/>
<path clip-path="url(#clip562)" d="M1853.07 1368.41 L1841.76 1363.72 L1837.07 1352.41 L1841.76 1341.09 L1853.07 1336.41 L1864.38 1341.09 L1869.07 1352.41 L1864.38 1363.72 Z" fill="#009af9" fill-rule="evenodd" fill-opacity="1" stroke="#000000" stroke-opacity="1" stroke-width="3.2"/>
<path clip-path="url(#clip562)" d="M2073.2 1373.74 L2061.89 1369.05 L2057.2 1357.74 L2061.89 1346.43 L2073.2 1341.74 L2084.51 1346.43 L2089.2 1357.74 L2084.51 1369.05 Z" fill="#009af9" fill-rule="evenodd" fill-opacity="1" stroke="#000000" stroke-opacity="1" stroke-width="3.2"/>
<path clip-path="url(#clip562)" d="M2293.32 1372.18 L2282.01 1367.49 L2277.32 1356.18 L2282.01 1344.87 L2293.32 1340.18 L2304.63 1344.87 L2309.32 1356.18 L2304.63 1367.49 Z" fill="#009af9" fill-rule="evenodd" fill-opacity="1" stroke="#000000" stroke-opacity="1" stroke-width="3.2"/>
<polyline clip-path="url(#clip562)" style="stroke:#e26f46; stroke-linecap:round; stroke-linejoin:round; stroke-width:4; stroke-opacity:1; fill:none" points="312.198,165.634 532.323,649.954 752.448,1308.91 972.573,1379.74 1192.7,1381.74 1412.82,1380.17 1632.95,1378.91 1853.07,1384.24 2073.2,1377.17 2293.32,1378.48 "/>
<path clip-path="url(#clip562)" d="M312.198 181.634 L300.886 176.946 L296.198 165.634 L300.886 154.322 L312.198 149.634 L323.51 154.322 L328.198 165.634 L323.51 176.946 Z" fill="#e26f46" fill-rule="evenodd" fill-opacity="1" stroke="#000000" stroke-opacity="1" stroke-width="3.2"/>
<path clip-path="url(#clip562)" d="M532.323 665.954 L521.011 661.266 L516.323 649.954 L521.011 638.642 L532.323 633.954 L543.635 638.642 L548.323 649.954 L543.635 661.266 Z" fill="#e26f46" fill-rule="evenodd" fill-opacity="1" stroke="#000000" stroke-opacity="1" stroke-width="3.2"/>
<path clip-path="url(#clip562)" d="M752.448 1324.91 L741.136 1320.22 L736.448 1308.91 L741.136 1297.6 L752.448 1292.91 L763.76 1297.6 L768.448 1308.91 L763.76 1320.22 Z" fill="#e26f46" fill-rule="evenodd" fill-opacity="1" stroke="#000000" stroke-opacity="1" stroke-width="3.2"/>
<path clip-path="url(#clip562)" d="M972.573 1395.74 L961.261 1391.05 L956.573 1379.74 L961.261 1368.43 L972.573 1363.74 L983.885 1368.43 L988.573 1379.74 L983.885 1391.05 Z" fill="#e26f46" fill-rule="evenodd" fill-opacity="1" stroke="#000000" stroke-opacity="1" stroke-width="3.2"/>
<path clip-path="url(#clip562)" d="M1192.7 1397.74 L1181.39 1393.05 L1176.7 1381.74 L1181.39 1370.43 L1192.7 1365.74 L1204.01 1370.43 L1208.7 1381.74 L1204.01 1393.05 Z" fill="#e26f46" fill-rule="evenodd" fill-opacity="1" stroke="#000000" stroke-opacity="1" stroke-width="3.2"/>
<path clip-path="url(#clip562)" d="M1412.82 1396.17 L1401.51 1391.49 L1396.82 1380.17 L1401.51 1368.86 L1412.82 1364.17 L1424.13 1368.86 L1428.82 1380.17 L1424.13 1391.49 Z" fill="#e26f46" fill-rule="evenodd" fill-opacity="1" stroke="#000000" stroke-opacity="1" stroke-width="3.2"/>
<path clip-path="url(#clip562)" d="M1632.95 1394.91 L1621.64 1390.22 L1616.95 1378.91 L1621.64 1367.6 L1632.95 1362.91 L1644.26 1367.6 L1648.95 1378.91 L1644.26 1390.22 Z" fill="#e26f46" fill-rule="evenodd" fill-opacity="1" stroke="#000000" stroke-opacity="1" stroke-width="3.2"/>
<path clip-path="url(#clip562)" d="M1853.07 1400.24 L1841.76 1395.55 L1837.07 1384.24 L1841.76 1372.93 L1853.07 1368.24 L1864.38 1372.93 L1869.07 1384.24 L1864.38 1395.55 Z" fill="#e26f46" fill-rule="evenodd" fill-opacity="1" stroke="#000000" stroke-opacity="1" stroke-width="3.2"/>
<path clip-path="url(#clip562)" d="M2073.2 1393.17 L2061.89 1388.48 L2057.2 1377.17 L2061.89 1365.86 L2073.2 1361.17 L2084.51 1365.86 L2089.2 1377.17 L2084.51 1388.48 Z" fill="#e26f46" fill-rule="evenodd" fill-opacity="1" stroke="#000000" stroke-opacity="1" stroke-width="3.2"/>
<path clip-path="url(#clip562)" d="M2293.32 1394.48 L2282.01 1389.79 L2277.32 1378.48 L2282.01 1367.16 L2293.32 1362.48 L2304.63 1367.16 L2309.32 1378.48 L2304.63 1389.79 Z" fill="#e26f46" fill-rule="evenodd" fill-opacity="1" stroke="#000000" stroke-opacity="1" stroke-width="3.2"/>
<polyline clip-path="url(#clip562)" style="stroke:#3da44d; stroke-linecap:round; stroke-linejoin:round; stroke-width:4; stroke-opacity:1; fill:none" points="312.198,227.075 532.323,1066.95 752.448,1352.2 972.573,1352.68 1192.7,1351.97 1412.82,1351.21 1632.95,1351.66 1853.07,1350.51 2073.2,1350.05 2293.32,1348.11 "/>
<path clip-path="url(#clip562)" d="M312.198 243.075 L300.886 238.387 L296.198 227.075 L300.886 215.763 L312.198 211.075 L323.51 215.763 L328.198 227.075 L323.51 238.387 Z" fill="#3da44d" fill-rule="evenodd" fill-opacity="1" stroke="#000000" stroke-opacity="1" stroke-width="3.2"/>
<path clip-path="url(#clip562)" d="M532.323 1082.95 L521.011 1078.26 L516.323 1066.95 L521.011 1055.63 L532.323 1050.95 L543.635 1055.63 L548.323 1066.95 L543.635 1078.26 Z" fill="#3da44d" fill-rule="evenodd" fill-opacity="1" stroke="#000000" stroke-opacity="1" stroke-width="3.2"/>
<path clip-path="url(#clip562)" d="M752.448 1368.2 L741.136 1363.51 L736.448 1352.2 L741.136 1340.89 L752.448 1336.2 L763.76 1340.89 L768.448 1352.2 L763.76 1363.51 Z" fill="#3da44d" fill-rule="evenodd" fill-opacity="1" stroke="#000000" stroke-opacity="1" stroke-width="3.2"/>
<path clip-path="url(#clip562)" d="M972.573 1368.68 L961.261 1363.99 L956.573 1352.68 L961.261 1341.37 L972.573 1336.68 L983.885 1341.37 L988.573 1352.68 L983.885 1363.99 Z" fill="#3da44d" fill-rule="evenodd" fill-opacity="1" stroke="#000000" stroke-opacity="1" stroke-width="3.2"/>
<path clip-path="url(#clip562)" d="M1192.7 1367.97 L1181.39 1363.28 L1176.7 1351.97 L1181.39 1340.66 L1192.7 1335.97 L1204.01 1340.66 L1208.7 1351.97 L1204.01 1363.28 Z" fill="#3da44d" fill-rule="evenodd" fill-opacity="1" stroke="#000000" stroke-opacity="1" stroke-width="3.2"/>
<path clip-path="url(#clip562)" d="M1412.82 1367.21 L1401.51 1362.53 L1396.82 1351.21 L1401.51 1339.9 L1412.82 1335.21 L1424.13 1339.9 L1428.82 1351.21 L1424.13 1362.53 Z" fill="#3da44d" fill-rule="evenodd" fill-opacity="1" stroke="#000000" stroke-opacity="1" stroke-width="3.2"/>
<path clip-path="url(#clip562)" d="M1632.95 1367.66 L1621.64 1362.97 L1616.95 1351.66 L1621.64 1340.35 L1632.95 1335.66 L1644.26 1340.35 L1648.95 1351.66 L1644.26 1362.97 Z" fill="#3da44d" fill-rule="evenodd" fill-opacity="1" stroke="#000000" stroke-opacity="1" stroke-width="3.2"/>
<path clip-path="url(#clip562)" d="M1853.07 1366.51 L1841.76 1361.83 L1837.07 1350.51 L1841.76 1339.2 L1853.07 1334.51 L1864.38 1339.2 L1869.07 1350.51 L1864.38 1361.83 Z" fill="#3da44d" fill-rule="evenodd" fill-opacity="1" stroke="#000000" stroke-opacity="1" stroke-width="3.2"/>
<path clip-path="url(#clip562)" d="M2073.2 1366.05 L2061.89 1361.36 L2057.2 1350.05 L2061.89 1338.74 L2073.2 1334.05 L2084.51 1338.74 L2089.2 1350.05 L2084.51 1361.36 Z" fill="#3da44d" fill-rule="evenodd" fill-opacity="1" stroke="#000000" stroke-opacity="1" stroke-width="3.2"/>
<path clip-path="url(#clip562)" d="M2293.32 1364.11 L2282.01 1359.42 L2277.32 1348.11 L2282.01 1336.8 L2293.32 1332.11 L2304.63 1336.8 L2309.32 1348.11 L2304.63 1359.42 Z" fill="#3da44d" fill-rule="evenodd" fill-opacity="1" stroke="#000000" stroke-opacity="1" stroke-width="3.2"/>
<polyline clip-path="url(#clip562)" style="stroke:#c271d2; stroke-linecap:round; stroke-linejoin:round; stroke-width:4; stroke-opacity:1; fill:none" points="312.198,86.1857 532.323,87.4839 752.448,88.7264 972.573,86.3695 1192.7,90.0112 1412.82,88.9665 1632.95,88.3926 1853.07,87.4551 2073.2,86.5966 2293.32,91.7743 "/>
<path clip-path="url(#clip562)" d="M312.198 102.186 L300.886 97.4977 L296.198 86.1857 L300.886 74.8737 L312.198 70.1857 L323.51 74.8737 L328.198 86.1857 L323.51 97.4977 Z" fill="#c271d2" fill-rule="evenodd" fill-opacity="1" stroke="#000000" stroke-opacity="1" stroke-width="3.2"/>
<path clip-path="url(#clip562)" d="M532.323 103.484 L521.011 98.7959 L516.323 87.4839 L521.011 76.1719 L532.323 71.4839 L543.635 76.1719 L548.323 87.4839 L543.635 98.7959 Z" fill="#c271d2" fill-rule="evenodd" fill-opacity="1" stroke="#000000" stroke-opacity="1" stroke-width="3.2"/>
<path clip-path="url(#clip562)" d="M752.448 104.726 L741.136 100.038 L736.448 88.7264 L741.136 77.4144 L752.448 72.7264 L763.76 77.4144 L768.448 88.7264 L763.76 100.038 Z" fill="#c271d2" fill-rule="evenodd" fill-opacity="1" stroke="#000000" stroke-opacity="1" stroke-width="3.2"/>
<path clip-path="url(#clip562)" d="M972.573 102.369 L961.261 97.6815 L956.573 86.3695 L961.261 75.0575 L972.573 70.3695 L983.885 75.0575 L988.573 86.3695 L983.885 97.6815 Z" fill="#c271d2" fill-rule="evenodd" fill-opacity="1" stroke="#000000" stroke-opacity="1" stroke-width="3.2"/>
<path clip-path="url(#clip562)" d="M1192.7 106.011 L1181.39 101.323 L1176.7 90.0112 L1181.39 78.6992 L1192.7 74.0112 L1204.01 78.6992 L1208.7 90.0112 L1204.01 101.323 Z" fill="#c271d2" fill-rule="evenodd" fill-opacity="1" stroke="#000000" stroke-opacity="1" stroke-width="3.2"/>
<path clip-path="url(#clip562)" d="M1412.82 104.967 L1401.51 100.279 L1396.82 88.9665 L1401.51 77.6545 L1412.82 72.9665 L1424.13 77.6545 L1428.82 88.9665 L1424.13 100.279 Z" fill="#c271d2" fill-rule="evenodd" fill-opacity="1" stroke="#000000" stroke-opacity="1" stroke-width="3.2"/>
<path clip-path="url(#clip562)" d="M1632.95 104.393 L1621.64 99.7046 L1616.95 88.3926 L1621.64 77.0806 L1632.95 72.3926 L1644.26 77.0806 L1648.95 88.3926 L1644.26 99.7046 Z" fill="#c271d2" fill-rule="evenodd" fill-opacity="1" stroke="#000000" stroke-opacity="1" stroke-width="3.2"/>
<path clip-path="url(#clip562)" d="M1853.07 103.455 L1841.76 98.7671 L1837.07 87.4551 L1841.76 76.1431 L1853.07 71.4551 L1864.38 76.1431 L1869.07 87.4551 L1864.38 98.7671 Z" fill="#c271d2" fill-rule="evenodd" fill-opacity="1" stroke="#000000" stroke-opacity="1" stroke-width="3.2"/>
<path clip-path="url(#clip562)" d="M2073.2 102.597 L2061.89 97.9086 L2057.2 86.5966 L2061.89 75.2846 L2073.2 70.5966 L2084.51 75.2846 L2089.2 86.5966 L2084.51 97.9086 Z" fill="#c271d2" fill-rule="evenodd" fill-opacity="1" stroke="#000000" stroke-opacity="1" stroke-width="3.2"/>
<path clip-path="url(#clip562)" d="M2293.32 107.774 L2282.01 103.086 L2277.32 91.7743 L2282.01 80.4623 L2293.32 75.7743 L2304.63 80.4623 L2309.32 91.7743 L2304.63 103.086 Z" fill="#c271d2" fill-rule="evenodd" fill-opacity="1" stroke="#000000" stroke-opacity="1" stroke-width="3.2"/>
<path clip-path="url(#clip560)" d="M1872.27 352.309 L2282.76 352.309 L2282.76 93.1086 L1872.27 93.1086  Z" fill="#ffffff" fill-rule="evenodd" fill-opacity="1"/>
<polyline clip-path="url(#clip560)" style="stroke:#000000; stroke-linecap:round; stroke-linejoin:round; stroke-width:4; stroke-opacity:1; fill:none" points="1872.27,352.309 2282.76,352.309 2282.76,93.1086 1872.27,93.1086 1872.27,352.309 "/>
<polyline clip-path="url(#clip560)" style="stroke:#009af9; stroke-linecap:round; stroke-linejoin:round; stroke-width:4; stroke-opacity:1; fill:none" points="1895.61,144.949 2035.6,144.949 "/>
<path clip-path="url(#clip560)" d="M1965.6 166.553 L1950.33 160.223 L1944 144.949 L1950.33 129.674 L1965.6 123.344 L1980.88 129.674 L1987.21 144.949 L1980.88 160.223 Z" fill="#009af9" fill-rule="evenodd" fill-opacity="1" stroke="#000000" stroke-opacity="1" stroke-width="4.55111"/>
<path clip-path="url(#clip560)" d="M2074.96 130.84 Q2069.86 130.84 2066.85 134.636 Q2063.87 138.432 2063.87 144.983 Q2063.87 151.511 2066.85 155.307 Q2069.86 159.104 2074.96 159.104 Q2080.05 159.104 2083.01 155.307 Q2086 151.511 2086 144.983 Q2086 138.432 2083.01 134.636 Q2080.05 130.84 2074.96 130.84 M2081.51 161.604 L2087.66 168.34 L2082.02 168.34 L2076.9 162.807 Q2076.14 162.854 2075.72 162.877 Q2075.33 162.9 2074.96 162.9 Q2067.66 162.9 2063.29 158.039 Q2058.94 153.155 2058.94 144.983 Q2058.94 136.789 2063.29 131.928 Q2067.66 127.044 2074.96 127.044 Q2082.22 127.044 2086.58 131.928 Q2090.93 136.789 2090.93 144.983 Q2090.93 151.002 2088.5 155.284 Q2086.09 159.567 2081.51 161.604 Z" fill="#000000" fill-rule="nonzero" fill-opacity="1" /><path clip-path="url(#clip560)" d="M2093.45 127.669 L2122.69 127.669 L2122.69 131.604 L2110.42 131.604 L2110.42 162.229 L2105.72 162.229 L2105.72 131.604 L2093.45 131.604 L2093.45 127.669 Z" fill="#000000" fill-rule="nonzero" fill-opacity="1" /><path clip-path="url(#clip560)" d="M2121.58 127.669 L2150.81 127.669 L2150.81 131.604 L2138.54 131.604 L2138.54 162.229 L2133.84 162.229 L2133.84 131.604 L2121.58 131.604 L2121.58 127.669 Z" fill="#000000" fill-rule="nonzero" fill-opacity="1" /><path clip-path="url(#clip560)" d="M2174.84 170.099 L2174.84 173.409 L2150.21 173.409 L2150.21 170.099 L2174.84 170.099 Z" fill="#000000" fill-rule="nonzero" fill-opacity="1" /><path clip-path="url(#clip560)" d="M2199.75 128.803 L2199.75 133.363 Q2197.09 132.09 2194.72 131.465 Q2192.36 130.84 2190.16 130.84 Q2186.34 130.84 2184.26 132.321 Q2182.2 133.803 2182.2 136.534 Q2182.2 138.826 2183.57 140.007 Q2184.96 141.164 2188.8 141.882 L2191.62 142.46 Q2196.85 143.456 2199.33 145.979 Q2201.83 148.479 2201.83 152.692 Q2201.83 157.715 2198.45 160.307 Q2195.09 162.9 2188.59 162.9 Q2186.14 162.9 2183.36 162.344 Q2180.6 161.789 2177.64 160.701 L2177.64 155.886 Q2180.49 157.483 2183.22 158.293 Q2185.95 159.104 2188.59 159.104 Q2192.59 159.104 2194.77 157.53 Q2196.95 155.956 2196.95 153.039 Q2196.95 150.493 2195.37 149.057 Q2193.82 147.622 2190.26 146.905 L2187.41 146.349 Q2182.18 145.307 2179.84 143.085 Q2177.5 140.863 2177.5 136.905 Q2177.5 132.321 2180.72 129.682 Q2183.96 127.044 2189.63 127.044 Q2192.06 127.044 2194.59 127.483 Q2197.11 127.923 2199.75 128.803 Z" fill="#000000" fill-rule="nonzero" fill-opacity="1" /><path clip-path="url(#clip560)" d="M2231.11 148.201 L2231.11 150.284 L2211.53 150.284 Q2211.81 154.682 2214.17 156.997 Q2216.55 159.289 2220.79 159.289 Q2223.24 159.289 2225.53 158.687 Q2227.85 158.085 2230.12 156.881 L2230.12 160.909 Q2227.83 161.881 2225.42 162.391 Q2223.01 162.9 2220.53 162.9 Q2214.33 162.9 2210.7 159.289 Q2207.09 155.678 2207.09 149.52 Q2207.09 143.155 2210.51 139.428 Q2213.96 135.678 2219.79 135.678 Q2225.02 135.678 2228.06 139.057 Q2231.11 142.414 2231.11 148.201 M2226.85 146.951 Q2226.81 143.456 2224.89 141.372 Q2222.99 139.289 2219.84 139.289 Q2216.28 139.289 2214.12 141.303 Q2211.99 143.317 2211.67 146.974 L2226.85 146.951 Z" fill="#000000" fill-rule="nonzero" fill-opacity="1" /><path clip-path="url(#clip560)" d="M2240.65 149.289 Q2240.65 153.988 2242.57 156.673 Q2244.52 159.335 2247.9 159.335 Q2251.27 159.335 2253.22 156.673 Q2255.16 153.988 2255.16 149.289 Q2255.16 144.59 2253.22 141.928 Q2251.27 139.243 2247.9 139.243 Q2244.52 139.243 2242.57 141.928 Q2240.65 144.59 2240.65 149.289 M2255.16 158.34 Q2253.82 160.655 2251.76 161.789 Q2249.72 162.9 2246.85 162.9 Q2242.15 162.9 2239.19 159.15 Q2236.25 155.4 2236.25 149.289 Q2236.25 143.178 2239.19 139.428 Q2242.15 135.678 2246.85 135.678 Q2249.72 135.678 2251.76 136.812 Q2253.82 137.923 2255.16 140.238 L2255.16 136.303 L2259.42 136.303 L2259.42 172.09 L2255.16 172.09 L2255.16 158.34 Z" fill="#000000" fill-rule="nonzero" fill-opacity="1" /><polyline clip-path="url(#clip560)" style="stroke:#e26f46; stroke-linecap:round; stroke-linejoin:round; stroke-width:4; stroke-opacity:1; fill:none" points="1895.61,196.789 2035.6,196.789 "/>
<path clip-path="url(#clip560)" d="M1965.6 218.393 L1950.33 212.063 L1944 196.789 L1950.33 181.514 L1965.6 175.184 L1980.88 181.514 L1987.21 196.789 L1980.88 212.063 Z" fill="#e26f46" fill-rule="evenodd" fill-opacity="1" stroke="#000000" stroke-opacity="1" stroke-width="4.55111"/>
<path clip-path="url(#clip560)" d="M2063.61 197.564 L2063.61 210.226 L2071.11 210.226 Q2074.89 210.226 2076.69 208.675 Q2078.52 207.101 2078.52 203.883 Q2078.52 200.643 2076.69 199.115 Q2074.89 197.564 2071.11 197.564 L2063.61 197.564 M2063.61 183.351 L2063.61 193.768 L2070.54 193.768 Q2073.96 193.768 2075.63 192.495 Q2077.32 191.198 2077.32 188.559 Q2077.32 185.944 2075.63 184.647 Q2073.96 183.351 2070.54 183.351 L2063.61 183.351 M2058.94 179.509 L2070.88 179.509 Q2076.23 179.509 2079.12 181.731 Q2082.02 183.953 2082.02 188.05 Q2082.02 191.222 2080.53 193.097 Q2079.05 194.971 2076.18 195.434 Q2079.63 196.175 2081.53 198.536 Q2083.45 200.874 2083.45 204.393 Q2083.45 209.022 2080.3 211.545 Q2077.16 214.069 2071.35 214.069 L2058.94 214.069 L2058.94 179.509 Z" fill="#000000" fill-rule="nonzero" fill-opacity="1" /><path clip-path="url(#clip560)" d="M2086.67 179.509 L2115.91 179.509 L2115.91 183.444 L2103.64 183.444 L2103.64 214.069 L2098.94 214.069 L2098.94 183.444 L2086.67 183.444 L2086.67 179.509 Z" fill="#000000" fill-rule="nonzero" fill-opacity="1" /><path clip-path="url(#clip560)" d="M2114.79 179.509 L2144.03 179.509 L2144.03 183.444 L2131.76 183.444 L2131.76 214.069 L2127.06 214.069 L2127.06 183.444 L2114.79 183.444 L2114.79 179.509 Z" fill="#000000" fill-rule="nonzero" fill-opacity="1" /><path clip-path="url(#clip560)" d="M2148.54 179.509 L2154.84 179.509 L2170.16 208.421 L2170.16 179.509 L2174.7 179.509 L2174.7 214.069 L2168.4 214.069 L2153.08 185.157 L2153.08 214.069 L2148.54 214.069 L2148.54 179.509 Z" fill="#000000" fill-rule="nonzero" fill-opacity="1" /><polyline clip-path="url(#clip560)" style="stroke:#3da44d; stroke-linecap:round; stroke-linejoin:round; stroke-width:4; stroke-opacity:1; fill:none" points="1895.61,248.629 2035.6,248.629 "/>
<path clip-path="url(#clip560)" d="M1965.6 270.233 L1950.33 263.903 L1944 248.629 L1950.33 233.354 L1965.6 227.024 L1980.88 233.354 L1987.21 248.629 L1980.88 263.903 Z" fill="#3da44d" fill-rule="evenodd" fill-opacity="1" stroke="#000000" stroke-opacity="1" stroke-width="4.55111"/>
<path clip-path="url(#clip560)" d="M2086.81 234.011 L2086.81 238.941 Q2084.45 236.742 2081.76 235.654 Q2079.1 234.566 2076.09 234.566 Q2070.16 234.566 2067.02 238.2 Q2063.87 241.812 2063.87 248.663 Q2063.87 255.492 2067.02 259.126 Q2070.16 262.737 2076.09 262.737 Q2079.1 262.737 2081.76 261.649 Q2084.45 260.561 2086.81 258.362 L2086.81 263.247 Q2084.35 264.913 2081.6 265.747 Q2078.87 266.58 2075.81 266.58 Q2067.97 266.58 2063.45 261.788 Q2058.94 256.973 2058.94 248.663 Q2058.94 240.33 2063.45 235.538 Q2067.97 230.724 2075.81 230.724 Q2078.91 230.724 2081.65 231.557 Q2084.4 232.367 2086.81 234.011 Z" fill="#000000" fill-rule="nonzero" fill-opacity="1" /><path clip-path="url(#clip560)" d="M2089.24 231.349 L2118.47 231.349 L2118.47 235.284 L2106.21 235.284 L2106.21 265.909 L2101.51 265.909 L2101.51 235.284 L2089.24 235.284 L2089.24 231.349 Z" fill="#000000" fill-rule="nonzero" fill-opacity="1" /><path clip-path="url(#clip560)" d="M2117.36 231.349 L2146.6 231.349 L2146.6 235.284 L2134.33 235.284 L2134.33 265.909 L2129.63 265.909 L2129.63 235.284 L2117.36 235.284 L2117.36 231.349 Z" fill="#000000" fill-rule="nonzero" fill-opacity="1" /><path clip-path="url(#clip560)" d="M2151.11 231.349 L2157.41 231.349 L2172.73 260.261 L2172.73 231.349 L2177.27 231.349 L2177.27 265.909 L2170.97 265.909 L2155.65 236.997 L2155.65 265.909 L2151.11 265.909 L2151.11 231.349 Z" fill="#000000" fill-rule="nonzero" fill-opacity="1" /><polyline clip-path="url(#clip560)" style="stroke:#c271d2; stroke-linecap:round; stroke-linejoin:round; stroke-width:4; stroke-opacity:1; fill:none" points="1895.61,300.469 2035.6,300.469 "/>
<path clip-path="url(#clip560)" d="M1965.6 322.073 L1950.33 315.743 L1944 300.469 L1950.33 285.194 L1965.6 278.864 L1980.88 285.194 L1987.21 300.469 L1980.88 315.743 Z" fill="#c271d2" fill-rule="evenodd" fill-opacity="1" stroke="#000000" stroke-opacity="1" stroke-width="4.55111"/>
<path clip-path="url(#clip560)" d="M2074.96 286.36 Q2069.86 286.36 2066.85 290.156 Q2063.87 293.952 2063.87 300.503 Q2063.87 307.031 2066.85 310.827 Q2069.86 314.624 2074.96 314.624 Q2080.05 314.624 2083.01 310.827 Q2086 307.031 2086 300.503 Q2086 293.952 2083.01 290.156 Q2080.05 286.36 2074.96 286.36 M2081.51 317.124 L2087.66 323.86 L2082.02 323.86 L2076.9 318.327 Q2076.14 318.374 2075.72 318.397 Q2075.33 318.42 2074.96 318.42 Q2067.66 318.42 2063.29 313.559 Q2058.94 308.675 2058.94 300.503 Q2058.94 292.309 2063.29 287.448 Q2067.66 282.564 2074.96 282.564 Q2082.22 282.564 2086.58 287.448 Q2090.93 292.309 2090.93 300.503 Q2090.93 306.522 2088.5 310.804 Q2086.09 315.087 2081.51 317.124 Z" fill="#000000" fill-rule="nonzero" fill-opacity="1" /><path clip-path="url(#clip560)" d="M2093.45 283.189 L2122.69 283.189 L2122.69 287.124 L2110.42 287.124 L2110.42 317.749 L2105.72 317.749 L2105.72 287.124 L2093.45 287.124 L2093.45 283.189 Z" fill="#000000" fill-rule="nonzero" fill-opacity="1" /><path clip-path="url(#clip560)" d="M2121.58 283.189 L2150.81 283.189 L2150.81 287.124 L2138.54 287.124 L2138.54 317.749 L2133.84 317.749 L2133.84 287.124 L2121.58 287.124 L2121.58 283.189 Z" fill="#000000" fill-rule="nonzero" fill-opacity="1" /><path clip-path="url(#clip560)" d="M2174.84 325.619 L2174.84 328.929 L2150.21 328.929 L2150.21 325.619 L2174.84 325.619 Z" fill="#000000" fill-rule="nonzero" fill-opacity="1" /><path clip-path="url(#clip560)" d="M2179.03 283.189 L2183.71 283.189 L2183.71 317.749 L2179.03 317.749 L2179.03 283.189 Z" fill="#000000" fill-rule="nonzero" fill-opacity="1" /><path clip-path="url(#clip560)" d="M2214.38 302.101 L2214.38 317.749 L2210.12 317.749 L2210.12 302.239 Q2210.12 298.559 2208.68 296.73 Q2207.25 294.902 2204.38 294.902 Q2200.93 294.902 2198.94 297.101 Q2196.95 299.3 2196.95 303.096 L2196.95 317.749 L2192.66 317.749 L2192.66 291.823 L2196.95 291.823 L2196.95 295.851 Q2198.47 293.513 2200.53 292.355 Q2202.62 291.198 2205.33 291.198 Q2209.79 291.198 2212.09 293.976 Q2214.38 296.73 2214.38 302.101 Z" fill="#000000" fill-rule="nonzero" fill-opacity="1" /><path clip-path="url(#clip560)" d="M2227.09 284.462 L2227.09 291.823 L2235.86 291.823 L2235.86 295.133 L2227.09 295.133 L2227.09 309.207 Q2227.09 312.378 2227.94 313.281 Q2228.82 314.184 2231.48 314.184 L2235.86 314.184 L2235.86 317.749 L2231.48 317.749 Q2226.55 317.749 2224.68 315.92 Q2222.8 314.068 2222.8 309.207 L2222.8 295.133 L2219.68 295.133 L2219.68 291.823 L2222.8 291.823 L2222.8 284.462 L2227.09 284.462 Z" fill="#000000" fill-rule="nonzero" fill-opacity="1" /></svg>
