<?xml version="1.0" encoding="utf-8"?>
<svg xmlns="http://www.w3.org/2000/svg" xmlns:xlink="http://www.w3.org/1999/xlink" width="600" height="400" viewBox="0 0 2400 1600">
<defs>
  <clipPath id="clip470">
    <rect x="0" y="0" width="2400" height="1600"/>
  </clipPath>
</defs>
<path clip-path="url(#clip470)" d="M0 1600 L2400 1600 L2400 8.88178e-14 L0 8.88178e-14  Z" fill="#ffffff" fill-rule="evenodd" fill-opacity="1"/>
<defs>
  <clipPath id="clip471">
    <rect x="480" y="0" width="1681" height="1600"/>
  </clipPath>
</defs>
<path clip-path="url(#clip470)" d="M276.876 1423.18 L2352.76 1423.18 L2352.76 47.2441 L276.876 47.2441  Z" fill="#ffffff" fill-rule="evenodd" fill-opacity="1"/>
<defs>
  <clipPath id="clip472">
    <rect x="276" y="47" width="2077" height="1377"/>
  </clipPath>
</defs>
<polyline clip-path="url(#clip472)" style="stroke:#000000; stroke-linecap:round; stroke-linejoin:round; stroke-width:2; stroke-opacity:0.1; fill:none" points="640.263,1423.18 640.263,47.2441 "/>
<polyline clip-path="url(#clip472)" style="stroke:#000000; stroke-linecap:round; stroke-linejoin:round; stroke-width:2; stroke-opacity:0.1; fill:none" points="1075.46,1423.18 1075.46,47.2441 "/>
<polyline clip-path="url(#clip472)" style="stroke:#000000; stroke-linecap:round; stroke-linejoin:round; stroke-width:2; stroke-opacity:0.1; fill:none" points="1510.65,1423.18 1510.65,47.2441 "/>
<polyline clip-path="url(#clip472)" style="stroke:#000000; stroke-linecap:round; stroke-linejoin:round; stroke-width:2; stroke-opacity:0.1; fill:none" points="1945.85,1423.18 1945.85,47.2441 "/>
<polyline clip-path="url(#clip472)" style="stroke:#000000; stroke-linecap:round; stroke-linejoin:round; stroke-width:2; stroke-opacity:0.1; fill:none" points="276.876,1420.97 2352.76,1420.97 "/>
<polyline clip-path="url(#clip472)" style="stroke:#000000; stroke-linecap:round; stroke-linejoin:round; stroke-width:2; stroke-opacity:0.1; fill:none" points="276.876,687.756 2352.76,687.756 "/>
<polyline clip-path="url(#clip470)" style="stroke:#000000; stroke-linecap:round; stroke-linejoin:round; stroke-width:4; stroke-opacity:1; fill:none" points="276.876,1423.18 2352.76,1423.18 "/>
<polyline clip-path="url(#clip470)" style="stroke:#000000; stroke-linecap:round; stroke-linejoin:round; stroke-width:4; stroke-opacity:1; fill:none" points="640.263,1423.18 640.263,1404.28 "/>
<polyline clip-path="url(#clip470)" style="stroke:#000000; stroke-linecap:round; stroke-linejoin:round; stroke-width:4; stroke-opacity:1; fill:none" points="1075.46,1423.18 1075.46,1404.28 "/>
<polyline clip-path="url(#clip470)" style="stroke:#000000; stroke-linecap:round; stroke-linejoin:round; stroke-width:4; stroke-opacity:1; fill:none" points="1510.65,1423.18 1510.65,1404.28 "/>
<polyline clip-path="url(#clip470)" style="stroke:#000000; stroke-linecap:round; stroke-linejoin:round; stroke-width:4; stroke-opacity:1; fill:none" points="1945.85,1423.18 1945.85,1404.28 "/>
<path clip-path="url(#clip470)" d="M614.951 1481.64 L622.59 1481.64 L622.59 1455.28 L614.28 1456.95 L614.28 1452.69 L622.544 1451.02 L627.219 1451.02 L627.219 1481.64 L634.858 1481.64 L634.858 1485.58 L614.951 1485.58 L614.951 1481.64 Z" fill="#000000" fill-rule="nonzero" fill-opacity="1" /><path clip-path="url(#clip470)" d="M654.303 1454.1 Q650.692 1454.1 648.863 1457.66 Q647.057 1461.2 647.057 1468.33 Q647.057 1475.44 648.863 1479.01 Q650.692 1482.55 654.303 1482.55 Q657.937 1482.55 659.742 1479.01 Q661.571 1475.44 661.571 1468.33 Q661.571 1461.2 659.742 1457.66 Q657.937 1454.1 654.303 1454.1 M654.303 1450.39 Q660.113 1450.39 663.168 1455 Q666.247 1459.58 666.247 1468.33 Q666.247 1477.06 663.168 1481.67 Q660.113 1486.25 654.303 1486.25 Q648.492 1486.25 645.414 1481.67 Q642.358 1477.06 642.358 1468.33 Q642.358 1459.58 645.414 1455 Q648.492 1450.39 654.303 1450.39 Z" fill="#000000" fill-rule="nonzero" fill-opacity="1" /><path clip-path="url(#clip470)" d="M1054.23 1481.64 L1070.55 1481.64 L1070.55 1485.58 L1048.61 1485.58 L1048.61 1481.64 Q1051.27 1478.89 1055.85 1474.26 Q1060.46 1469.61 1061.64 1468.27 Q1063.88 1465.74 1064.76 1464.01 Q1065.67 1462.25 1065.67 1460.56 Q1065.67 1457.8 1063.72 1456.07 Q1061.8 1454.33 1058.7 1454.33 Q1056.5 1454.33 1054.05 1455.09 Q1051.62 1455.86 1048.84 1457.41 L1048.84 1452.69 Q1051.66 1451.55 1054.12 1450.97 Q1056.57 1450.39 1058.61 1450.39 Q1063.98 1450.39 1067.17 1453.08 Q1070.37 1455.77 1070.37 1460.26 Q1070.37 1462.39 1069.56 1464.31 Q1068.77 1466.2 1066.66 1468.8 Q1066.08 1469.47 1062.98 1472.69 Q1059.88 1475.88 1054.23 1481.64 Z" fill="#000000" fill-rule="nonzero" fill-opacity="1" /><path clip-path="url(#clip470)" d="M1090.37 1454.1 Q1086.75 1454.1 1084.93 1457.66 Q1083.12 1461.2 1083.12 1468.33 Q1083.12 1475.44 1084.93 1479.01 Q1086.75 1482.55 1090.37 1482.55 Q1094 1482.55 1095.81 1479.01 Q1097.63 1475.44 1097.63 1468.33 Q1097.63 1461.2 1095.81 1457.66 Q1094 1454.1 1090.37 1454.1 M1090.37 1450.39 Q1096.18 1450.39 1099.23 1455 Q1102.31 1459.58 1102.31 1468.33 Q1102.31 1477.06 1099.23 1481.67 Q1096.18 1486.25 1090.37 1486.25 Q1084.56 1486.25 1081.48 1481.67 Q1078.42 1477.06 1078.42 1468.33 Q1078.42 1459.58 1081.48 1455 Q1084.56 1450.39 1090.37 1450.39 Z" fill="#000000" fill-rule="nonzero" fill-opacity="1" /><path clip-path="url(#clip470)" d="M1499.5 1466.95 Q1502.85 1467.66 1504.73 1469.93 Q1506.63 1472.2 1506.63 1475.53 Q1506.63 1480.65 1503.11 1483.45 Q1499.59 1486.25 1493.11 1486.25 Q1490.93 1486.25 1488.62 1485.81 Q1486.32 1485.39 1483.87 1484.54 L1483.87 1480.02 Q1485.82 1481.16 1488.13 1481.74 Q1490.45 1482.32 1492.97 1482.32 Q1497.37 1482.32 1499.66 1480.58 Q1501.97 1478.84 1501.97 1475.53 Q1501.97 1472.48 1499.82 1470.77 Q1497.69 1469.03 1493.87 1469.03 L1489.84 1469.03 L1489.84 1465.19 L1494.06 1465.19 Q1497.51 1465.19 1499.33 1463.82 Q1501.16 1462.43 1501.16 1459.84 Q1501.16 1457.18 1499.26 1455.77 Q1497.39 1454.33 1493.87 1454.33 Q1491.95 1454.33 1489.75 1454.75 Q1487.55 1455.16 1484.91 1456.04 L1484.91 1451.88 Q1487.57 1451.14 1489.89 1450.77 Q1492.23 1450.39 1494.29 1450.39 Q1499.61 1450.39 1502.71 1452.83 Q1505.82 1455.23 1505.82 1459.35 Q1505.82 1462.22 1504.17 1464.21 Q1502.53 1466.18 1499.5 1466.95 Z" fill="#000000" fill-rule="nonzero" fill-opacity="1" /><path clip-path="url(#clip470)" d="M1525.49 1454.1 Q1521.88 1454.1 1520.05 1457.66 Q1518.25 1461.2 1518.25 1468.33 Q1518.25 1475.44 1520.05 1479.01 Q1521.88 1482.55 1525.49 1482.55 Q1529.13 1482.55 1530.93 1479.01 Q1532.76 1475.44 1532.76 1468.33 Q1532.76 1461.2 1530.93 1457.66 Q1529.13 1454.1 1525.49 1454.1 M1525.49 1450.39 Q1531.3 1450.39 1534.36 1455 Q1537.44 1459.58 1537.44 1468.33 Q1537.44 1477.06 1534.36 1481.67 Q1531.3 1486.25 1525.49 1486.25 Q1519.68 1486.25 1516.6 1481.67 Q1513.55 1477.06 1513.55 1468.33 Q1513.55 1459.58 1516.6 1455 Q1519.68 1450.39 1525.49 1450.39 Z" fill="#000000" fill-rule="nonzero" fill-opacity="1" /><path clip-path="url(#clip470)" d="M1934.02 1455.09 L1922.21 1473.54 L1934.02 1473.54 L1934.02 1455.09 M1932.79 1451.02 L1938.67 1451.02 L1938.67 1473.54 L1943.6 1473.54 L1943.6 1477.43 L1938.67 1477.43 L1938.67 1485.58 L1934.02 1485.58 L1934.02 1477.43 L1918.42 1477.43 L1918.42 1472.92 L1932.79 1451.02 Z" fill="#000000" fill-rule="nonzero" fill-opacity="1" /><path clip-path="url(#clip470)" d="M1961.33 1454.1 Q1957.72 1454.1 1955.89 1457.66 Q1954.09 1461.2 1954.09 1468.33 Q1954.09 1475.44 1955.89 1479.01 Q1957.72 1482.55 1961.33 1482.55 Q1964.97 1482.55 1966.77 1479.01 Q1968.6 1475.44 1968.6 1468.33 Q1968.6 1461.2 1966.77 1457.66 Q1964.97 1454.1 1961.33 1454.1 M1961.33 1450.39 Q1967.14 1450.39 1970.2 1455 Q1973.28 1459.58 1973.28 1468.33 Q1973.28 1477.06 1970.2 1481.67 Q1967.14 1486.25 1961.33 1486.25 Q1955.52 1486.25 1952.45 1481.67 Q1949.39 1477.06 1949.39 1468.33 Q1949.39 1459.58 1952.45 1455 Q1955.52 1450.39 1961.33 1450.39 Z" fill="#000000" fill-rule="nonzero" fill-opacity="1" /><path clip-path="url(#clip470)" d="M981.873 1520.52 L991.454 1520.52 L1003.58 1552.86 L1015.77 1520.52 L1025.35 1520.52 L1025.35 1568.04 L1019.08 1568.04 L1019.08 1526.32 L1006.83 1558.91 L1000.37 1558.91 L988.112 1526.32 L988.112 1568.04 L981.873 1568.04 L981.873 1520.52 Z" fill="#000000" fill-rule="nonzero" fill-opacity="1" /><path clip-path="url(#clip470)" d="M1054.06 1550.12 Q1046.96 1550.12 1044.23 1551.75 Q1041.49 1553.37 1041.49 1557.29 Q1041.49 1560.4 1043.53 1562.25 Q1045.59 1564.07 1049.13 1564.07 Q1054 1564.07 1056.93 1560.63 Q1059.89 1557.16 1059.89 1551.43 L1059.89 1550.12 L1054.06 1550.12 M1065.74 1547.71 L1065.74 1568.04 L1059.89 1568.04 L1059.89 1562.63 Q1057.88 1565.88 1054.89 1567.44 Q1051.9 1568.97 1047.57 1568.97 Q1042.09 1568.97 1038.85 1565.91 Q1035.63 1562.82 1035.63 1557.67 Q1035.63 1551.65 1039.64 1548.6 Q1043.68 1545.54 1051.67 1545.54 L1059.89 1545.54 L1059.89 1544.97 Q1059.89 1540.93 1057.21 1538.73 Q1054.57 1536.5 1049.76 1536.5 Q1046.71 1536.5 1043.81 1537.23 Q1040.92 1537.97 1038.24 1539.43 L1038.24 1534.02 Q1041.46 1532.78 1044.48 1532.17 Q1047.5 1531.54 1050.37 1531.54 Q1058.1 1531.54 1061.92 1535.55 Q1065.74 1539.56 1065.74 1547.71 Z" fill="#000000" fill-rule="nonzero" fill-opacity="1" /><path clip-path="url(#clip470)" d="M1107.44 1532.4 L1094.55 1549.74 L1108.11 1568.04 L1101.2 1568.04 L1090.82 1554.04 L1080.45 1568.04 L1073.54 1568.04 L1087.38 1549.39 L1074.72 1532.4 L1081.62 1532.4 L1091.08 1545.1 L1100.53 1532.4 L1107.44 1532.4 Z" fill="#000000" fill-rule="nonzero" fill-opacity="1" /><path clip-path="url(#clip470)" d="M1162.69 1550.25 Q1162.69 1543.79 1160.02 1540.13 Q1157.38 1536.44 1152.73 1536.44 Q1148.08 1536.44 1145.41 1540.13 Q1142.77 1543.79 1142.77 1550.25 Q1142.77 1556.71 1145.41 1560.4 Q1148.08 1564.07 1152.73 1564.07 Q1157.38 1564.07 1160.02 1560.4 Q1162.69 1556.71 1162.69 1550.25 M1142.77 1537.81 Q1144.61 1534.62 1147.41 1533.1 Q1150.25 1531.54 1154.16 1531.54 Q1160.65 1531.54 1164.7 1536.69 Q1168.77 1541.85 1168.77 1550.25 Q1168.77 1558.65 1164.7 1563.81 Q1160.65 1568.97 1154.16 1568.97 Q1150.25 1568.97 1147.41 1567.44 Q1144.61 1565.88 1142.77 1562.7 L1142.77 1568.04 L1136.88 1568.04 L1136.88 1518.52 L1142.77 1518.52 L1142.77 1537.81 Z" fill="#000000" fill-rule="nonzero" fill-opacity="1" /><path clip-path="url(#clip470)" d="M1192.29 1536.5 Q1187.58 1536.5 1184.84 1540.19 Q1182.11 1543.85 1182.11 1550.25 Q1182.11 1556.65 1184.81 1560.34 Q1187.55 1564 1192.29 1564 Q1196.97 1564 1199.71 1560.31 Q1202.45 1556.62 1202.45 1550.25 Q1202.45 1543.92 1199.71 1540.23 Q1196.97 1536.5 1192.29 1536.5 M1192.29 1531.54 Q1199.93 1531.54 1204.29 1536.5 Q1208.65 1541.47 1208.65 1550.25 Q1208.65 1559 1204.29 1564 Q1199.93 1568.97 1192.29 1568.97 Q1184.62 1568.97 1180.26 1564 Q1175.93 1559 1175.93 1550.25 Q1175.93 1541.47 1180.26 1536.5 Q1184.62 1531.54 1192.29 1531.54 Z" fill="#000000" fill-rule="nonzero" fill-opacity="1" /><path clip-path="url(#clip470)" d="M1247.99 1546.53 L1247.99 1568.04 L1242.14 1568.04 L1242.14 1546.72 Q1242.14 1541.66 1240.16 1539.14 Q1238.19 1536.63 1234.24 1536.63 Q1229.5 1536.63 1226.76 1539.65 Q1224.02 1542.68 1224.02 1547.9 L1224.02 1568.04 L1218.14 1568.04 L1218.14 1532.4 L1224.02 1532.4 L1224.02 1537.93 Q1226.13 1534.72 1228.96 1533.13 Q1231.82 1531.54 1235.55 1531.54 Q1241.69 1531.54 1244.84 1535.36 Q1247.99 1539.14 1247.99 1546.53 Z" fill="#000000" fill-rule="nonzero" fill-opacity="1" /><path clip-path="url(#clip470)" d="M1283.13 1537.81 L1283.13 1518.52 L1288.99 1518.52 L1288.99 1568.04 L1283.13 1568.04 L1283.13 1562.7 Q1281.28 1565.88 1278.45 1567.44 Q1275.65 1568.97 1271.7 1568.97 Q1265.24 1568.97 1261.17 1563.81 Q1257.13 1558.65 1257.13 1550.25 Q1257.13 1541.85 1261.17 1536.69 Q1265.24 1531.54 1271.7 1531.54 Q1275.65 1531.54 1278.45 1533.1 Q1281.28 1534.62 1283.13 1537.81 M1263.17 1550.25 Q1263.17 1556.71 1265.82 1560.4 Q1268.49 1564.07 1273.14 1564.07 Q1277.78 1564.07 1280.46 1560.4 Q1283.13 1556.71 1283.13 1550.25 Q1283.13 1543.79 1280.46 1540.13 Q1277.78 1536.44 1273.14 1536.44 Q1268.49 1536.44 1265.82 1540.13 Q1263.17 1543.79 1263.17 1550.25 Z" fill="#000000" fill-rule="nonzero" fill-opacity="1" /><path clip-path="url(#clip470)" d="M1345.23 1537.81 L1345.23 1518.52 L1351.08 1518.52 L1351.08 1568.04 L1345.23 1568.04 L1345.23 1562.7 Q1343.38 1565.88 1340.55 1567.44 Q1337.75 1568.97 1333.8 1568.97 Q1327.34 1568.97 1323.27 1563.81 Q1319.22 1558.65 1319.22 1550.25 Q1319.22 1541.85 1323.27 1536.69 Q1327.34 1531.54 1333.8 1531.54 Q1337.75 1531.54 1340.55 1533.1 Q1343.38 1534.62 1345.23 1537.81 M1325.27 1550.25 Q1325.27 1556.71 1327.91 1560.4 Q1330.59 1564.07 1335.23 1564.07 Q1339.88 1564.07 1342.55 1560.4 Q1345.23 1556.71 1345.23 1550.25 Q1345.23 1543.79 1342.55 1540.13 Q1339.88 1536.44 1335.23 1536.44 Q1330.59 1536.44 1327.91 1540.13 Q1325.27 1543.79 1325.27 1550.25 Z" fill="#000000" fill-rule="nonzero" fill-opacity="1" /><path clip-path="url(#clip470)" d="M1363.15 1532.4 L1369 1532.4 L1369 1568.04 L1363.15 1568.04 L1363.15 1532.4 M1363.15 1518.52 L1369 1518.52 L1369 1525.93 L1363.15 1525.93 L1363.15 1518.52 Z" fill="#000000" fill-rule="nonzero" fill-opacity="1" /><path clip-path="url(#clip470)" d="M1409.01 1539.24 Q1411.21 1535.29 1414.26 1533.41 Q1417.32 1531.54 1421.46 1531.54 Q1427.03 1531.54 1430.05 1535.45 Q1433.07 1539.33 1433.07 1546.53 L1433.07 1568.04 L1427.19 1568.04 L1427.19 1546.72 Q1427.19 1541.59 1425.37 1539.11 Q1423.56 1536.63 1419.83 1536.63 Q1415.28 1536.63 1412.64 1539.65 Q1410 1542.68 1410 1547.9 L1410 1568.04 L1404.11 1568.04 L1404.11 1546.72 Q1404.11 1541.56 1402.3 1539.11 Q1400.48 1536.63 1396.69 1536.63 Q1392.21 1536.63 1389.57 1539.68 Q1386.92 1542.71 1386.92 1547.9 L1386.92 1568.04 L1381.03 1568.04 L1381.03 1532.4 L1386.92 1532.4 L1386.92 1537.93 Q1388.93 1534.66 1391.73 1533.1 Q1394.53 1531.54 1398.38 1531.54 Q1402.26 1531.54 1404.97 1533.51 Q1407.71 1535.48 1409.01 1539.24 Z" fill="#000000" fill-rule="nonzero" fill-opacity="1" /><path clip-path="url(#clip470)" d="M1475.25 1548.76 L1475.25 1551.62 L1448.32 1551.62 Q1448.7 1557.67 1451.95 1560.85 Q1455.23 1564 1461.05 1564 Q1464.43 1564 1467.58 1563.17 Q1470.76 1562.35 1473.88 1560.69 L1473.88 1566.23 Q1470.73 1567.57 1467.42 1568.27 Q1464.11 1568.97 1460.7 1568.97 Q1452.17 1568.97 1447.17 1564 Q1442.21 1559.04 1442.21 1550.57 Q1442.21 1541.82 1446.92 1536.69 Q1451.66 1531.54 1459.68 1531.54 Q1466.88 1531.54 1471.05 1536.18 Q1475.25 1540.8 1475.25 1548.76 M1469.39 1547.04 Q1469.33 1542.23 1466.69 1539.37 Q1464.08 1536.5 1459.75 1536.5 Q1454.85 1536.5 1451.89 1539.27 Q1448.96 1542.04 1448.51 1547.07 L1469.39 1547.04 Z" fill="#000000" fill-rule="nonzero" fill-opacity="1" /><path clip-path="url(#clip470)" d="M1514.49 1546.53 L1514.49 1568.04 L1508.64 1568.04 L1508.64 1546.72 Q1508.64 1541.66 1506.66 1539.14 Q1504.69 1536.63 1500.74 1536.63 Q1496 1536.63 1493.26 1539.65 Q1490.53 1542.68 1490.53 1547.9 L1490.53 1568.04 L1484.64 1568.04 L1484.64 1532.4 L1490.53 1532.4 L1490.53 1537.93 Q1492.63 1534.72 1495.46 1533.13 Q1498.32 1531.54 1502.05 1531.54 Q1508.19 1531.54 1511.34 1535.36 Q1514.49 1539.14 1514.49 1546.53 Z" fill="#000000" fill-rule="nonzero" fill-opacity="1" /><path clip-path="url(#clip470)" d="M1548.9 1533.45 L1548.9 1538.98 Q1546.42 1537.71 1543.74 1537.07 Q1541.07 1536.44 1538.2 1536.44 Q1533.84 1536.44 1531.65 1537.77 Q1529.48 1539.11 1529.48 1541.79 Q1529.48 1543.82 1531.04 1545 Q1532.6 1546.15 1537.31 1547.2 L1539.32 1547.64 Q1545.56 1548.98 1548.17 1551.43 Q1550.81 1553.85 1550.81 1558.21 Q1550.81 1563.17 1546.86 1566.07 Q1542.95 1568.97 1536.07 1568.97 Q1533.21 1568.97 1530.09 1568.39 Q1527 1567.85 1523.56 1566.74 L1523.56 1560.69 Q1526.81 1562.38 1529.96 1563.24 Q1533.11 1564.07 1536.2 1564.07 Q1540.34 1564.07 1542.56 1562.66 Q1544.79 1561.23 1544.79 1558.65 Q1544.79 1556.27 1543.17 1554.99 Q1541.58 1553.72 1536.14 1552.54 L1534.1 1552.07 Q1528.66 1550.92 1526.24 1548.56 Q1523.82 1546.18 1523.82 1542.04 Q1523.82 1537.01 1527.38 1534.27 Q1530.95 1531.54 1537.5 1531.54 Q1540.75 1531.54 1543.62 1532.01 Q1546.48 1532.49 1548.9 1533.45 Z" fill="#000000" fill-rule="nonzero" fill-opacity="1" /><path clip-path="url(#clip470)" d="M1560.13 1532.4 L1565.99 1532.4 L1565.99 1568.04 L1560.13 1568.04 L1560.13 1532.4 M1560.13 1518.52 L1565.99 1518.52 L1565.99 1525.93 L1560.13 1525.93 L1560.13 1518.52 Z" fill="#000000" fill-rule="nonzero" fill-opacity="1" /><path clip-path="url(#clip470)" d="M1592.06 1536.5 Q1587.35 1536.5 1584.61 1540.19 Q1581.87 1543.85 1581.87 1550.25 Q1581.87 1556.65 1584.58 1560.34 Q1587.32 1564 1592.06 1564 Q1596.74 1564 1599.47 1560.31 Q1602.21 1556.62 1602.21 1550.25 Q1602.21 1543.92 1599.47 1540.23 Q1596.74 1536.5 1592.06 1536.5 M1592.06 1531.54 Q1599.7 1531.54 1604.06 1536.5 Q1608.42 1541.47 1608.42 1550.25 Q1608.42 1559 1604.06 1564 Q1599.7 1568.97 1592.06 1568.97 Q1584.39 1568.97 1580.03 1564 Q1575.7 1559 1575.7 1550.25 Q1575.7 1541.47 1580.03 1536.5 Q1584.39 1531.54 1592.06 1531.54 Z" fill="#000000" fill-rule="nonzero" fill-opacity="1" /><path clip-path="url(#clip470)" d="M1647.76 1546.53 L1647.76 1568.04 L1641.9 1568.04 L1641.9 1546.72 Q1641.9 1541.66 1639.93 1539.14 Q1637.95 1536.63 1634.01 1536.63 Q1629.27 1536.63 1626.53 1539.65 Q1623.79 1542.68 1623.79 1547.9 L1623.79 1568.04 L1617.9 1568.04 L1617.9 1532.4 L1623.79 1532.4 L1623.79 1537.93 Q1625.89 1534.72 1628.72 1533.13 Q1631.59 1531.54 1635.31 1531.54 Q1641.46 1531.54 1644.61 1535.36 Q1647.76 1539.14 1647.76 1546.53 Z" fill="#000000" fill-rule="nonzero" fill-opacity="1" /><polyline clip-path="url(#clip470)" style="stroke:#000000; stroke-linecap:round; stroke-linejoin:round; stroke-width:4; stroke-opacity:1; fill:none" points="276.876,1423.18 276.876,47.2441 "/>
<polyline clip-path="url(#clip470)" style="stroke:#000000; stroke-linecap:round; stroke-linejoin:round; stroke-width:4; stroke-opacity:1; fill:none" points="276.876,1420.97 295.773,1420.97 "/>
<polyline clip-path="url(#clip470)" style="stroke:#000000; stroke-linecap:round; stroke-linejoin:round; stroke-width:4; stroke-opacity:1; fill:none" points="276.876,687.756 295.773,687.756 "/>
<path clip-path="url(#clip470)" d="M114.931 1440.76 L122.57 1440.76 L122.57 1414.39 L114.26 1416.06 L114.26 1411.8 L122.524 1410.14 L127.2 1410.14 L127.2 1440.76 L134.839 1440.76 L134.839 1444.7 L114.931 1444.7 L114.931 1440.76 Z" fill="#000000" fill-rule="nonzero" fill-opacity="1" /><path clip-path="url(#clip470)" d="M154.283 1413.21 Q150.672 1413.21 148.843 1416.78 Q147.038 1420.32 147.038 1427.45 Q147.038 1434.56 148.843 1438.12 Q150.672 1441.66 154.283 1441.66 Q157.917 1441.66 159.723 1438.12 Q161.552 1434.56 161.552 1427.45 Q161.552 1420.32 159.723 1416.78 Q157.917 1413.21 154.283 1413.21 M154.283 1409.51 Q160.093 1409.51 163.149 1414.12 Q166.227 1418.7 166.227 1427.45 Q166.227 1436.18 163.149 1440.78 Q160.093 1445.37 154.283 1445.37 Q148.473 1445.37 145.394 1440.78 Q142.339 1436.18 142.339 1427.45 Q142.339 1418.7 145.394 1414.12 Q148.473 1409.51 154.283 1409.51 Z" fill="#000000" fill-rule="nonzero" fill-opacity="1" /><path clip-path="url(#clip470)" d="M166.227 1403.61 L190.339 1403.61 L190.339 1406.81 L166.227 1406.81 L166.227 1403.61 Z" fill="#000000" fill-rule="nonzero" fill-opacity="1" /><path clip-path="url(#clip470)" d="M199.197 1414.09 L205.404 1414.09 L205.404 1392.67 L198.652 1394.02 L198.652 1390.56 L205.366 1389.21 L209.166 1389.21 L209.166 1414.09 L215.372 1414.09 L215.372 1417.29 L199.197 1417.29 L199.197 1414.09 Z" fill="#000000" fill-rule="nonzero" fill-opacity="1" /><path clip-path="url(#clip470)" d="M231.171 1391.71 Q228.237 1391.71 226.751 1394.6 Q225.284 1397.48 225.284 1403.27 Q225.284 1409.05 226.751 1411.94 Q228.237 1414.82 231.171 1414.82 Q234.124 1414.82 235.591 1411.94 Q237.076 1409.05 237.076 1403.27 Q237.076 1397.48 235.591 1394.6 Q234.124 1391.71 231.171 1391.71 M231.171 1388.7 Q235.891 1388.7 238.374 1392.44 Q240.876 1396.16 240.876 1403.27 Q240.876 1410.36 238.374 1414.11 Q235.891 1417.83 231.171 1417.83 Q226.45 1417.83 223.949 1414.11 Q221.466 1410.36 221.466 1403.27 Q221.466 1396.16 223.949 1392.44 Q226.45 1388.7 231.171 1388.7 Z" fill="#000000" fill-rule="nonzero" fill-opacity="1" /><path clip-path="url(#clip470)" d="M140.247 707.549 L147.886 707.549 L147.886 681.183 L139.575 682.85 L139.575 678.59 L147.839 676.924 L152.515 676.924 L152.515 707.549 L160.154 707.549 L160.154 711.484 L140.247 711.484 L140.247 707.549 Z" fill="#000000" fill-rule="nonzero" fill-opacity="1" /><path clip-path="url(#clip470)" d="M179.598 680.002 Q175.987 680.002 174.159 683.567 Q172.353 687.109 172.353 694.239 Q172.353 701.345 174.159 704.91 Q175.987 708.451 179.598 708.451 Q183.233 708.451 185.038 704.91 Q186.867 701.345 186.867 694.239 Q186.867 687.109 185.038 683.567 Q183.233 680.002 179.598 680.002 M179.598 676.299 Q185.409 676.299 188.464 680.905 Q191.543 685.489 191.543 694.239 Q191.543 702.965 188.464 707.572 Q185.409 712.155 179.598 712.155 Q173.788 712.155 170.71 707.572 Q167.654 702.965 167.654 694.239 Q167.654 685.489 170.71 680.905 Q173.788 676.299 179.598 676.299 Z" fill="#000000" fill-rule="nonzero" fill-opacity="1" /><path clip-path="url(#clip470)" d="M191.543 670.4 L215.654 670.4 L215.654 673.597 L191.543 673.597 L191.543 670.4 Z" fill="#000000" fill-rule="nonzero" fill-opacity="1" /><path clip-path="url(#clip470)" d="M223.892 655.993 L238.807 655.993 L238.807 659.191 L227.372 659.191 L227.372 666.074 Q228.199 665.792 229.027 665.661 Q229.854 665.51 230.682 665.51 Q235.384 665.51 238.13 668.087 Q240.876 670.663 240.876 675.064 Q240.876 679.597 238.054 682.117 Q235.233 684.619 230.099 684.619 Q228.331 684.619 226.488 684.318 Q224.663 684.017 222.707 683.415 L222.707 679.597 Q224.4 680.519 226.205 680.97 Q228.011 681.422 230.023 681.422 Q233.277 681.422 235.177 679.71 Q237.076 677.999 237.076 675.064 Q237.076 672.13 235.177 670.419 Q233.277 668.707 230.023 668.707 Q228.5 668.707 226.977 669.046 Q225.472 669.385 223.892 670.099 L223.892 655.993 Z" fill="#000000" fill-rule="nonzero" fill-opacity="1" /><path clip-path="url(#clip470)" d="M18.0438 984.429 L24.314 984.429 Q22.5634 988.09 21.704 991.336 Q20.8447 994.583 20.8447 997.606 Q20.8447 1002.86 22.8817 1005.72 Q24.9187 1008.56 28.6745 1008.56 Q31.8255 1008.56 33.4488 1006.68 Q35.0402 1004.77 36.0269 999.484 L36.8226 995.601 Q38.1912 988.408 41.6605 985.002 Q45.098 981.565 50.8908 981.565 Q57.7976 981.565 61.3624 986.212 Q64.9272 990.827 64.9272 999.771 Q64.9272 1003.14 64.1633 1006.96 Q63.3994 1010.75 61.9035 1014.83 L55.2831 1014.83 Q57.4793 1010.91 58.5933 1007.15 Q59.7073 1003.4 59.7073 999.771 Q59.7073 994.264 57.543 991.273 Q55.3786 988.281 51.3682 988.281 Q47.8671 988.281 45.8937 990.445 Q43.9204 992.577 42.9337 997.479 L42.1698 1001.39 Q40.7375 1008.59 37.682 1011.8 Q34.6264 1015.02 29.1837 1015.02 Q22.8817 1015.02 19.2532 1010.59 Q15.6248 1006.14 15.6248 998.338 Q15.6248 994.996 16.2295 991.527 Q16.8343 988.058 18.0438 984.429 Z" fill="#000000" fill-rule="nonzero" fill-opacity="1" /><path clip-path="url(#clip470)" d="M46.0847 955.593 Q46.0847 962.69 47.7079 965.428 Q49.3312 968.165 53.2461 968.165 Q56.3653 968.165 58.2114 966.128 Q60.0256 964.059 60.0256 960.526 Q60.0256 955.656 56.5881 952.728 Q53.1188 949.768 47.3897 949.768 L46.0847 949.768 L46.0847 955.593 M43.6657 943.912 L64.0042 943.912 L64.0042 949.768 L58.5933 949.768 Q61.8398 951.773 63.3994 954.765 Q64.9272 957.757 64.9272 962.086 Q64.9272 967.56 61.8716 970.807 Q58.7843 974.021 53.6281 974.021 Q47.6125 974.021 44.5569 970.011 Q41.5014 965.969 41.5014 957.98 L41.5014 949.768 L40.9285 949.768 Q36.8862 949.768 34.6901 952.442 Q32.4621 955.083 32.4621 959.89 Q32.4621 962.945 33.1941 965.842 Q33.9262 968.738 35.3903 971.412 L29.9795 971.412 Q28.7381 968.197 28.1334 965.173 Q27.4968 962.149 27.4968 959.285 Q27.4968 951.551 31.5072 947.731 Q35.5176 943.912 43.6657 943.912 Z" fill="#000000" fill-rule="nonzero" fill-opacity="1" /><path clip-path="url(#clip470)" d="M35.1993 904.094 Q31.2526 901.898 29.3747 898.842 Q27.4968 895.787 27.4968 891.649 Q27.4968 886.079 31.4117 883.056 Q35.2948 880.032 42.4881 880.032 L64.0042 880.032 L64.0042 885.92 L42.679 885.92 Q37.5546 885.92 35.072 887.734 Q32.5894 889.549 32.5894 893.272 Q32.5894 897.824 35.6131 900.466 Q38.6368 903.107 43.8567 903.107 L64.0042 903.107 L64.0042 908.996 L42.679 908.996 Q37.5228 908.996 35.072 910.81 Q32.5894 912.624 32.5894 916.412 Q32.5894 920.9 35.6449 923.541 Q38.6686 926.183 43.8567 926.183 L64.0042 926.183 L64.0042 932.071 L28.3562 932.071 L28.3562 926.183 L33.8944 926.183 Q30.616 924.178 29.0564 921.377 Q27.4968 918.576 27.4968 914.725 Q27.4968 910.842 29.4702 908.136 Q31.4436 905.399 35.1993 904.094 Z" fill="#000000" fill-rule="nonzero" fill-opacity="1" /><path clip-path="url(#clip470)" d="M58.657 862.685 L77.5631 862.685 L77.5631 868.574 L28.3562 868.574 L28.3562 862.685 L33.7671 862.685 Q30.5842 860.839 29.0564 858.038 Q27.4968 855.206 27.4968 851.291 Q27.4968 844.798 32.6531 840.755 Q37.8093 836.681 46.212 836.681 Q54.6147 836.681 59.771 840.755 Q64.9272 844.798 64.9272 851.291 Q64.9272 855.206 63.3994 858.038 Q61.8398 860.839 58.657 862.685 M46.212 842.761 Q39.7508 842.761 36.0905 845.434 Q32.3984 848.076 32.3984 852.723 Q32.3984 857.37 36.0905 860.043 Q39.7508 862.685 46.212 862.685 Q52.6732 862.685 56.3653 860.043 Q60.0256 857.37 60.0256 852.723 Q60.0256 848.076 56.3653 845.434 Q52.6732 842.761 46.212 842.761 Z" fill="#000000" fill-rule="nonzero" fill-opacity="1" /><path clip-path="url(#clip470)" d="M14.479 826.974 L14.479 821.117 L64.0042 821.117 L64.0042 826.974 L14.479 826.974 Z" fill="#000000" fill-rule="nonzero" fill-opacity="1" /><path clip-path="url(#clip470)" d="M44.7161 778.371 L47.5806 778.371 L47.5806 805.298 Q53.6281 804.916 56.8109 801.67 Q59.9619 798.392 59.9619 792.567 Q59.9619 789.193 59.1344 786.042 Q58.3069 782.859 56.6518 779.74 L62.1899 779.74 Q63.5267 782.891 64.227 786.201 Q64.9272 789.511 64.9272 792.917 Q64.9272 801.447 59.9619 806.444 Q54.9967 811.409 46.5303 811.409 Q37.7774 811.409 32.6531 806.699 Q27.4968 801.956 27.4968 793.936 Q27.4968 786.742 32.1438 782.573 Q36.7589 778.371 44.7161 778.371 M42.9973 784.228 Q38.1912 784.292 35.3266 786.933 Q32.4621 789.543 32.4621 793.872 Q32.4621 798.774 35.2312 801.734 Q38.0002 804.662 43.0292 805.107 L42.9973 784.228 Z" fill="#000000" fill-rule="nonzero" fill-opacity="1" /><path clip-path="url(#clip470)" d="M33.7671 745.302 L14.479 745.302 L14.479 739.445 L64.0042 739.445 L64.0042 745.302 L58.657 745.302 Q61.8398 747.148 63.3994 749.98 Q64.9272 752.781 64.9272 756.728 Q64.9272 763.189 59.771 767.263 Q54.6147 771.306 46.212 771.306 Q37.8093 771.306 32.6531 767.263 Q27.4968 763.189 27.4968 756.728 Q27.4968 752.781 29.0564 749.98 Q30.5842 747.148 33.7671 745.302 M46.212 765.258 Q52.6732 765.258 56.3653 762.616 Q60.0256 759.943 60.0256 755.296 Q60.0256 750.649 56.3653 747.975 Q52.6732 745.302 46.212 745.302 Q39.7508 745.302 36.0905 747.975 Q32.3984 750.649 32.3984 755.296 Q32.3984 759.943 36.0905 762.616 Q39.7508 765.258 46.212 765.258 Z" fill="#000000" fill-rule="nonzero" fill-opacity="1" /><path clip-path="url(#clip470)" d="M16.4842 706.407 L16.4842 699.978 L58.5933 699.978 L58.5933 676.838 L64.0042 676.838 L64.0042 706.407 L16.4842 706.407 Z" fill="#000000" fill-rule="nonzero" fill-opacity="1" /><path clip-path="url(#clip470)" d="M58.5933 668.404 L58.5933 657.9 L22.3406 657.9 L24.6323 669.327 L18.7758 669.327 L16.4842 657.964 L16.4842 651.535 L58.5933 651.535 L58.5933 641.031 L64.0042 641.031 L64.0042 668.404 L58.5933 668.404 Z" fill="#000000" fill-rule="nonzero" fill-opacity="1" /><path clip-path="url(#clip470)" d="M16.4842 607.898 L16.4842 577.852 L21.895 577.852 L21.895 601.468 L35.9632 601.468 L35.9632 578.838 L41.3741 578.838 L41.3741 601.468 L58.5933 601.468 L58.5933 577.279 L64.0042 577.279 L64.0042 607.898 L16.4842 607.898 Z" fill="#000000" fill-rule="nonzero" fill-opacity="1" /><path clip-path="url(#clip470)" d="M33.8307 546.31 Q33.2578 547.296 33.0032 548.474 Q32.7167 549.62 32.7167 551.02 Q32.7167 555.985 35.9632 558.659 Q39.1779 561.301 45.2253 561.301 L64.0042 561.301 L64.0042 567.189 L28.3562 567.189 L28.3562 561.301 L33.8944 561.301 Q30.6479 559.455 29.0883 556.495 Q27.4968 553.535 27.4968 549.302 Q27.4968 548.697 27.5923 547.965 Q27.656 547.233 27.8151 546.341 L33.8307 546.31 Z" fill="#000000" fill-rule="nonzero" fill-opacity="1" /><path clip-path="url(#clip470)" d="M33.8307 520.656 Q33.2578 521.643 33.0032 522.82 Q32.7167 523.966 32.7167 525.366 Q32.7167 530.332 35.9632 533.005 Q39.1779 535.647 45.2253 535.647 L64.0042 535.647 L64.0042 541.535 L28.3562 541.535 L28.3562 535.647 L33.8944 535.647 Q30.6479 533.801 29.0883 530.841 Q27.4968 527.881 27.4968 523.648 Q27.4968 523.043 27.5923 522.311 Q27.656 521.579 27.8151 520.688 L33.8307 520.656 Z" fill="#000000" fill-rule="nonzero" fill-opacity="1" /><path clip-path="url(#clip470)" d="M32.4621 502.132 Q32.4621 506.842 36.1542 509.579 Q39.8145 512.317 46.212 512.317 Q52.6095 512.317 56.3017 509.611 Q59.9619 506.874 59.9619 502.132 Q59.9619 497.453 56.2698 494.716 Q52.5777 491.978 46.212 491.978 Q39.8781 491.978 36.186 494.716 Q32.4621 497.453 32.4621 502.132 M27.4968 502.132 Q27.4968 494.493 32.4621 490.132 Q37.4273 485.772 46.212 485.772 Q54.9649 485.772 59.9619 490.132 Q64.9272 494.493 64.9272 502.132 Q64.9272 509.802 59.9619 514.163 Q54.9649 518.491 46.212 518.491 Q37.4273 518.491 32.4621 514.163 Q27.4968 509.802 27.4968 502.132 Z" fill="#000000" fill-rule="nonzero" fill-opacity="1" /><path clip-path="url(#clip470)" d="M33.8307 455.407 Q33.2578 456.394 33.0032 457.572 Q32.7167 458.718 32.7167 460.118 Q32.7167 465.083 35.9632 467.757 Q39.1779 470.399 45.2253 470.399 L64.0042 470.399 L64.0042 476.287 L28.3562 476.287 L28.3562 470.399 L33.8944 470.399 Q30.6479 468.553 29.0883 465.592 Q27.4968 462.632 27.4968 458.399 Q27.4968 457.794 27.5923 457.062 Q27.656 456.33 27.8151 455.439 L33.8307 455.407 Z" fill="#000000" fill-rule="nonzero" fill-opacity="1" /><polyline clip-path="url(#clip472)" style="stroke:#009af9; stroke-linecap:round; stroke-linejoin:round; stroke-width:4; stroke-opacity:1; fill:none" points="335.627,90.6386 466.185,142.044 596.744,229.453 727.302,331.14 857.861,409.674 988.419,503.818 1118.98,565.077 1249.54,613.212 1380.09,704.711 1510.65,761.798 1641.21,839.764 1771.77,879.097 1902.33,954.957 2032.89,1041.76 2163.45,1071.92 2294,1180.97 "/>
<path clip-path="url(#clip472)" d="M335.627 106.639 L324.315 101.951 L319.627 90.6386 L324.315 79.3266 L335.627 74.6386 L346.939 79.3266 L351.627 90.6386 L346.939 101.951 Z" fill="#009af9" fill-rule="evenodd" fill-opacity="1" stroke="#000000" stroke-opacity="1" stroke-width="3.2"/>
<path clip-path="url(#clip472)" d="M466.185 158.044 L454.873 153.356 L450.185 142.044 L454.873 130.732 L466.185 126.044 L477.497 130.732 L482.185 142.044 L477.497 153.356 Z" fill="#009af9" fill-rule="evenodd" fill-opacity="1" stroke="#000000" stroke-opacity="1" stroke-width="3.2"/>
<path clip-path="url(#clip472)" d="M596.744 245.453 L585.432 240.765 L580.744 229.453 L585.432 218.141 L596.744 213.453 L608.056 218.141 L612.744 229.453 L608.056 240.765 Z" fill="#009af9" fill-rule="evenodd" fill-opacity="1" stroke="#000000" stroke-opacity="1" stroke-width="3.2"/>
<path clip-path="url(#clip472)" d="M727.302 347.14 L715.99 342.452 L711.302 331.14 L715.99 319.828 L727.302 315.14 L738.614 319.828 L743.302 331.14 L738.614 342.452 Z" fill="#009af9" fill-rule="evenodd" fill-opacity="1" stroke="#000000" stroke-opacity="1" stroke-width="3.2"/>
<path clip-path="url(#clip472)" d="M857.861 425.674 L846.549 420.986 L841.861 409.674 L846.549 398.362 L857.861 393.674 L869.173 398.362 L873.861 409.674 L869.173 420.986 Z" fill="#009af9" fill-rule="evenodd" fill-opacity="1" stroke="#000000" stroke-opacity="1" stroke-width="3.2"/>
<path clip-path="url(#clip472)" d="M988.419 519.818 L977.107 515.13 L972.419 503.818 L977.107 492.506 L988.419 487.818 L999.731 492.506 L1004.42 503.818 L999.731 515.13 Z" fill="#009af9" fill-rule="evenodd" fill-opacity="1" stroke="#000000" stroke-opacity="1" stroke-width="3.2"/>
<path clip-path="url(#clip472)" d="M1118.98 581.077 L1107.67 576.389 L1102.98 565.077 L1107.67 553.765 L1118.98 549.077 L1130.29 553.765 L1134.98 565.077 L1130.29 576.389 Z" fill="#009af9" fill-rule="evenodd" fill-opacity="1" stroke="#000000" stroke-opacity="1" stroke-width="3.2"/>
<path clip-path="url(#clip472)" d="M1249.54 629.212 L1238.22 624.524 L1233.54 613.212 L1238.22 601.9 L1249.54 597.212 L1260.85 601.9 L1265.54 613.212 L1260.85 624.524 Z" fill="#009af9" fill-rule="evenodd" fill-opacity="1" stroke="#000000" stroke-opacity="1" stroke-width="3.2"/>
<path clip-path="url(#clip472)" d="M1380.09 720.711 L1368.78 716.023 L1364.09 704.711 L1368.78 693.399 L1380.09 688.711 L1391.41 693.399 L1396.09 704.711 L1391.41 716.023 Z" fill="#009af9" fill-rule="evenodd" fill-opacity="1" stroke="#000000" stroke-opacity="1" stroke-width="3.2"/>
<path clip-path="url(#clip472)" d="M1510.65 777.798 L1499.34 773.11 L1494.65 761.798 L1499.34 750.486 L1510.65 745.798 L1521.97 750.486 L1526.65 761.798 L1521.97 773.11 Z" fill="#009af9" fill-rule="evenodd" fill-opacity="1" stroke="#000000" stroke-opacity="1" stroke-width="3.2"/>
<path clip-path="url(#clip472)" d="M1641.21 855.764 L1629.9 851.076 L1625.21 839.764 L1629.9 828.452 L1641.21 823.764 L1652.52 828.452 L1657.21 839.764 L1652.52 851.076 Z" fill="#009af9" fill-rule="evenodd" fill-opacity="1" stroke="#000000" stroke-opacity="1" stroke-width="3.2"/>
<path clip-path="url(#clip472)" d="M1771.77 895.097 L1760.46 890.409 L1755.77 879.097 L1760.46 867.785 L1771.77 863.097 L1783.08 867.785 L1787.77 879.097 L1783.08 890.409 Z" fill="#009af9" fill-rule="evenodd" fill-opacity="1" stroke="#000000" stroke-opacity="1" stroke-width="3.2"/>
<path clip-path="url(#clip472)" d="M1902.33 970.957 L1891.02 966.269 L1886.33 954.957 L1891.02 943.645 L1902.33 938.957 L1913.64 943.645 L1918.33 954.957 L1913.64 966.269 Z" fill="#009af9" fill-rule="evenodd" fill-opacity="1" stroke="#000000" stroke-opacity="1" stroke-width="3.2"/>
<path clip-path="url(#clip472)" d="M2032.89 1057.76 L2021.58 1053.07 L2016.89 1041.76 L2021.58 1030.45 L2032.89 1025.76 L2044.2 1030.45 L2048.89 1041.76 L2044.2 1053.07 Z" fill="#009af9" fill-rule="evenodd" fill-opacity="1" stroke="#000000" stroke-opacity="1" stroke-width="3.2"/>
<path clip-path="url(#clip472)" d="M2163.45 1087.92 L2152.13 1083.23 L2147.45 1071.92 L2152.13 1060.6 L2163.45 1055.92 L2174.76 1060.6 L2179.45 1071.92 L2174.76 1083.23 Z" fill="#009af9" fill-rule="evenodd" fill-opacity="1" stroke="#000000" stroke-opacity="1" stroke-width="3.2"/>
<path clip-path="url(#clip472)" d="M2294 1196.97 L2282.69 1192.28 L2278 1180.97 L2282.69 1169.65 L2294 1164.97 L2305.32 1169.65 L2310 1180.97 L2305.32 1192.28 Z" fill="#009af9" fill-rule="evenodd" fill-opacity="1" stroke="#000000" stroke-opacity="1" stroke-width="3.2"/>
<polyline clip-path="url(#clip472)" style="stroke:#e26f46; stroke-linecap:round; stroke-linejoin:round; stroke-width:4; stroke-opacity:1; fill:none" points="335.627,115.898 466.185,286.287 596.744,415.312 727.302,507.786 857.861,555.788 988.419,706.584 1118.98,753.669 1249.54,855.111 1380.09,920.442 1510.65,1098.33 1641.21,1156.58 1771.77,1203.14 1902.33,1223.3 2032.89,1384.14 2163.45,1384.24 2294,1384.17 "/>
<path clip-path="url(#clip472)" d="M335.627 131.898 L324.315 127.21 L319.627 115.898 L324.315 104.586 L335.627 99.8979 L346.939 104.586 L351.627 115.898 L346.939 127.21 Z" fill="#e26f46" fill-rule="evenodd" fill-opacity="1" stroke="#000000" stroke-opacity="1" stroke-width="3.2"/>
<path clip-path="url(#clip472)" d="M466.185 302.287 L454.873 297.599 L450.185 286.287 L454.873 274.975 L466.185 270.287 L477.497 274.975 L482.185 286.287 L477.497 297.599 Z" fill="#e26f46" fill-rule="evenodd" fill-opacity="1" stroke="#000000" stroke-opacity="1" stroke-width="3.2"/>
<path clip-path="url(#clip472)" d="M596.744 431.312 L585.432 426.624 L580.744 415.312 L585.432 404 L596.744 399.312 L608.056 404 L612.744 415.312 L608.056 426.624 Z" fill="#e26f46" fill-rule="evenodd" fill-opacity="1" stroke="#000000" stroke-opacity="1" stroke-width="3.2"/>
<path clip-path="url(#clip472)" d="M727.302 523.786 L715.99 519.098 L711.302 507.786 L715.99 496.474 L727.302 491.786 L738.614 496.474 L743.302 507.786 L738.614 519.098 Z" fill="#e26f46" fill-rule="evenodd" fill-opacity="1" stroke="#000000" stroke-opacity="1" stroke-width="3.2"/>
<path clip-path="url(#clip472)" d="M857.861 571.788 L846.549 567.1 L841.861 555.788 L846.549 544.476 L857.861 539.788 L869.173 544.476 L873.861 555.788 L869.173 567.1 Z" fill="#e26f46" fill-rule="evenodd" fill-opacity="1" stroke="#000000" stroke-opacity="1" stroke-width="3.2"/>
<path clip-path="url(#clip472)" d="M988.419 722.584 L977.107 717.896 L972.419 706.584 L977.107 695.272 L988.419 690.584 L999.731 695.272 L1004.42 706.584 L999.731 717.896 Z" fill="#e26f46" fill-rule="evenodd" fill-opacity="1" stroke="#000000" stroke-opacity="1" stroke-width="3.2"/>
<path clip-path="url(#clip472)" d="M1118.98 769.669 L1107.67 764.981 L1102.98 753.669 L1107.67 742.357 L1118.98 737.669 L1130.29 742.357 L1134.98 753.669 L1130.29 764.981 Z" fill="#e26f46" fill-rule="evenodd" fill-opacity="1" stroke="#000000" stroke-opacity="1" stroke-width="3.2"/>
<path clip-path="url(#clip472)" d="M1249.54 871.111 L1238.22 866.423 L1233.54 855.111 L1238.22 843.799 L1249.54 839.111 L1260.85 843.799 L1265.54 855.111 L1260.85 866.423 Z" fill="#e26f46" fill-rule="evenodd" fill-opacity="1" stroke="#000000" stroke-opacity="1" stroke-width="3.2"/>
<path clip-path="url(#clip472)" d="M1380.09 936.442 L1368.78 931.754 L1364.09 920.442 L1368.78 909.13 L1380.09 904.442 L1391.41 909.13 L1396.09 920.442 L1391.41 931.754 Z" fill="#e26f46" fill-rule="evenodd" fill-opacity="1" stroke="#000000" stroke-opacity="1" stroke-width="3.2"/>
<path clip-path="url(#clip472)" d="M1510.65 1114.33 L1499.34 1109.65 L1494.65 1098.33 L1499.34 1087.02 L1510.65 1082.33 L1521.97 1087.02 L1526.65 1098.33 L1521.97 1109.65 Z" fill="#e26f46" fill-rule="evenodd" fill-opacity="1" stroke="#000000" stroke-opacity="1" stroke-width="3.2"/>
<path clip-path="url(#clip472)" d="M1641.21 1172.58 L1629.9 1167.89 L1625.21 1156.58 L1629.9 1145.27 L1641.21 1140.58 L1652.52 1145.27 L1657.21 1156.58 L1652.52 1167.89 Z" fill="#e26f46" fill-rule="evenodd" fill-opacity="1" stroke="#000000" stroke-opacity="1" stroke-width="3.2"/>
<path clip-path="url(#clip472)" d="M1771.77 1219.14 L1760.46 1214.45 L1755.77 1203.14 L1760.46 1191.83 L1771.77 1187.14 L1783.08 1191.83 L1787.77 1203.14 L1783.08 1214.45 Z" fill="#e26f46" fill-rule="evenodd" fill-opacity="1" stroke="#000000" stroke-opacity="1" stroke-width="3.2"/>
<path clip-path="url(#clip472)" d="M1902.33 1239.3 L1891.02 1234.62 L1886.33 1223.3 L1891.02 1211.99 L1902.33 1207.3 L1913.64 1211.99 L1918.33 1223.3 L1913.64 1234.62 Z" fill="#e26f46" fill-rule="evenodd" fill-opacity="1" stroke="#000000" stroke-opacity="1" stroke-width="3.2"/>
<path clip-path="url(#clip472)" d="M2032.89 1400.14 L2021.58 1395.45 L2016.89 1384.14 L2021.58 1372.83 L2032.89 1368.14 L2044.2 1372.83 L2048.89 1384.14 L2044.2 1395.45 Z" fill="#e26f46" fill-rule="evenodd" fill-opacity="1" stroke="#000000" stroke-opacity="1" stroke-width="3.2"/>
<path clip-path="url(#clip472)" d="M2163.45 1400.24 L2152.13 1395.55 L2147.45 1384.24 L2152.13 1372.93 L2163.45 1368.24 L2174.76 1372.93 L2179.45 1384.24 L2174.76 1395.55 Z" fill="#e26f46" fill-rule="evenodd" fill-opacity="1" stroke="#000000" stroke-opacity="1" stroke-width="3.2"/>
<path clip-path="url(#clip472)" d="M2294 1400.17 L2282.69 1395.48 L2278 1384.17 L2282.69 1372.85 L2294 1368.17 L2305.32 1372.85 L2310 1384.17 L2305.32 1395.48 Z" fill="#e26f46" fill-rule="evenodd" fill-opacity="1" stroke="#000000" stroke-opacity="1" stroke-width="3.2"/>
<polyline clip-path="url(#clip472)" style="stroke:#3da44d; stroke-linecap:round; stroke-linejoin:round; stroke-width:4; stroke-opacity:1; fill:none" points="335.627,89.8246 466.185,215.453 596.744,365.779 727.302,461.225 857.861,501.004 988.419,619.298 1118.98,627.556 1249.54,705.225 1380.09,785.786 1510.65,831.899 1641.21,936.956 1771.77,1019.87 1902.33,1099.91 2032.89,1259.76 2163.45,1291.67 2294,1282.66 "/>
<path clip-path="url(#clip472)" d="M335.627 105.825 L324.315 101.137 L319.627 89.8246 L324.315 78.5126 L335.627 73.8246 L346.939 78.5126 L351.627 89.8246 L346.939 101.137 Z" fill="#3da44d" fill-rule="evenodd" fill-opacity="1" stroke="#000000" stroke-opacity="1" stroke-width="3.2"/>
<path clip-path="url(#clip472)" d="M466.185 231.453 L454.873 226.765 L450.185 215.453 L454.873 204.141 L466.185 199.453 L477.497 204.141 L482.185 215.453 L477.497 226.765 Z" fill="#3da44d" fill-rule="evenodd" fill-opacity="1" stroke="#000000" stroke-opacity="1" stroke-width="3.2"/>
<path clip-path="url(#clip472)" d="M596.744 381.779 L585.432 377.091 L580.744 365.779 L585.432 354.467 L596.744 349.779 L608.056 354.467 L612.744 365.779 L608.056 377.091 Z" fill="#3da44d" fill-rule="evenodd" fill-opacity="1" stroke="#000000" stroke-opacity="1" stroke-width="3.2"/>
<path clip-path="url(#clip472)" d="M727.302 477.225 L715.99 472.537 L711.302 461.225 L715.99 449.913 L727.302 445.225 L738.614 449.913 L743.302 461.225 L738.614 472.537 Z" fill="#3da44d" fill-rule="evenodd" fill-opacity="1" stroke="#000000" stroke-opacity="1" stroke-width="3.2"/>
<path clip-path="url(#clip472)" d="M857.861 517.004 L846.549 512.316 L841.861 501.004 L846.549 489.692 L857.861 485.004 L869.173 489.692 L873.861 501.004 L869.173 512.316 Z" fill="#3da44d" fill-rule="evenodd" fill-opacity="1" stroke="#000000" stroke-opacity="1" stroke-width="3.2"/>
<path clip-path="url(#clip472)" d="M988.419 635.298 L977.107 630.61 L972.419 619.298 L977.107 607.986 L988.419 603.298 L999.731 607.986 L1004.42 619.298 L999.731 630.61 Z" fill="#3da44d" fill-rule="evenodd" fill-opacity="1" stroke="#000000" stroke-opacity="1" stroke-width="3.2"/>
<path clip-path="url(#clip472)" d="M1118.98 643.556 L1107.67 638.868 L1102.98 627.556 L1107.67 616.244 L1118.98 611.556 L1130.29 616.244 L1134.98 627.556 L1130.29 638.868 Z" fill="#3da44d" fill-rule="evenodd" fill-opacity="1" stroke="#000000" stroke-opacity="1" stroke-width="3.2"/>
<path clip-path="url(#clip472)" d="M1249.54 721.225 L1238.22 716.537 L1233.54 705.225 L1238.22 693.913 L1249.54 689.225 L1260.85 693.913 L1265.54 705.225 L1260.85 716.537 Z" fill="#3da44d" fill-rule="evenodd" fill-opacity="1" stroke="#000000" stroke-opacity="1" stroke-width="3.2"/>
<path clip-path="url(#clip472)" d="M1380.09 801.786 L1368.78 797.098 L1364.09 785.786 L1368.78 774.474 L1380.09 769.786 L1391.41 774.474 L1396.09 785.786 L1391.41 797.098 Z" fill="#3da44d" fill-rule="evenodd" fill-opacity="1" stroke="#000000" stroke-opacity="1" stroke-width="3.2"/>
<path clip-path="url(#clip472)" d="M1510.65 847.899 L1499.34 843.211 L1494.65 831.899 L1499.34 820.587 L1510.65 815.899 L1521.97 820.587 L1526.65 831.899 L1521.97 843.211 Z" fill="#3da44d" fill-rule="evenodd" fill-opacity="1" stroke="#000000" stroke-opacity="1" stroke-width="3.2"/>
<path clip-path="url(#clip472)" d="M1641.21 952.956 L1629.9 948.268 L1625.21 936.956 L1629.9 925.644 L1641.21 920.956 L1652.52 925.644 L1657.21 936.956 L1652.52 948.268 Z" fill="#3da44d" fill-rule="evenodd" fill-opacity="1" stroke="#000000" stroke-opacity="1" stroke-width="3.2"/>
<path clip-path="url(#clip472)" d="M1771.77 1035.87 L1760.46 1031.18 L1755.77 1019.87 L1760.46 1008.56 L1771.77 1003.87 L1783.08 1008.56 L1787.77 1019.87 L1783.08 1031.18 Z" fill="#3da44d" fill-rule="evenodd" fill-opacity="1" stroke="#000000" stroke-opacity="1" stroke-width="3.2"/>
<path clip-path="url(#clip472)" d="M1902.33 1115.91 L1891.02 1111.22 L1886.33 1099.91 L1891.02 1088.59 L1902.33 1083.91 L1913.64 1088.59 L1918.33 1099.91 L1913.64 1111.22 Z" fill="#3da44d" fill-rule="evenodd" fill-opacity="1" stroke="#000000" stroke-opacity="1" stroke-width="3.2"/>
<path clip-path="url(#clip472)" d="M2032.89 1275.76 L2021.58 1271.08 L2016.89 1259.76 L2021.58 1248.45 L2032.89 1243.76 L2044.2 1248.45 L2048.89 1259.76 L2044.2 1271.08 Z" fill="#3da44d" fill-rule="evenodd" fill-opacity="1" stroke="#000000" stroke-opacity="1" stroke-width="3.2"/>
<path clip-path="url(#clip472)" d="M2163.45 1307.67 L2152.13 1302.98 L2147.45 1291.67 L2152.13 1280.36 L2163.45 1275.67 L2174.76 1280.36 L2179.45 1291.67 L2174.76 1302.98 Z" fill="#3da44d" fill-rule="evenodd" fill-opacity="1" stroke="#000000" stroke-opacity="1" stroke-width="3.2"/>
<path clip-path="url(#clip472)" d="M2294 1298.66 L2282.69 1293.97 L2278 1282.66 L2282.69 1271.35 L2294 1266.66 L2305.32 1271.35 L2310 1282.66 L2305.32 1293.97 Z" fill="#3da44d" fill-rule="evenodd" fill-opacity="1" stroke="#000000" stroke-opacity="1" stroke-width="3.2"/>
<polyline clip-path="url(#clip472)" style="stroke:#c271d2; stroke-linecap:round; stroke-linejoin:round; stroke-width:4; stroke-opacity:1; fill:none" points="335.627,86.1857 466.185,121.071 596.744,220.765 727.302,278.31 857.861,367.286 988.419,426.684 1118.98,516.748 1249.54,591.855 1380.09,655.601 1510.65,755.906 1641.21,822.131 1771.77,878.665 1902.33,943.583 2032.89,1008.88 2163.45,1085.15 2294,1124.05 "/>
<path clip-path="url(#clip472)" d="M335.627 102.186 L324.315 97.4977 L319.627 86.1857 L324.315 74.8737 L335.627 70.1857 L346.939 74.8737 L351.627 86.1857 L346.939 97.4977 Z" fill="#c271d2" fill-rule="evenodd" fill-opacity="1" stroke="#000000" stroke-opacity="1" stroke-width="3.2"/>
<path clip-path="url(#clip472)" d="M466.185 137.071 L454.873 132.383 L450.185 121.071 L454.873 109.759 L466.185 105.071 L477.497 109.759 L482.185 121.071 L477.497 132.383 Z" fill="#c271d2" fill-rule="evenodd" fill-opacity="1" stroke="#000000" stroke-opacity="1" stroke-width="3.2"/>
<path clip-path="url(#clip472)" d="M596.744 236.765 L585.432 232.077 L580.744 220.765 L585.432 209.453 L596.744 204.765 L608.056 209.453 L612.744 220.765 L608.056 232.077 Z" fill="#c271d2" fill-rule="evenodd" fill-opacity="1" stroke="#000000" stroke-opacity="1" stroke-width="3.2"/>
<path clip-path="url(#clip472)" d="M727.302 294.31 L715.99 289.622 L711.302 278.31 L715.99 266.998 L727.302 262.31 L738.614 266.998 L743.302 278.31 L738.614 289.622 Z" fill="#c271d2" fill-rule="evenodd" fill-opacity="1" stroke="#000000" stroke-opacity="1" stroke-width="3.2"/>
<path clip-path="url(#clip472)" d="M857.861 383.286 L846.549 378.598 L841.861 367.286 L846.549 355.974 L857.861 351.286 L869.173 355.974 L873.861 367.286 L869.173 378.598 Z" fill="#c271d2" fill-rule="evenodd" fill-opacity="1" stroke="#000000" stroke-opacity="1" stroke-width="3.2"/>
<path clip-path="url(#clip472)" d="M988.419 442.684 L977.107 437.996 L972.419 426.684 L977.107 415.372 L988.419 410.684 L999.731 415.372 L1004.42 426.684 L999.731 437.996 Z" fill="#c271d2" fill-rule="evenodd" fill-opacity="1" stroke="#000000" stroke-opacity="1" stroke-width="3.2"/>
<path clip-path="url(#clip472)" d="M1118.98 532.748 L1107.67 528.06 L1102.98 516.748 L1107.67 505.436 L1118.98 500.748 L1130.29 505.436 L1134.98 516.748 L1130.29 528.06 Z" fill="#c271d2" fill-rule="evenodd" fill-opacity="1" stroke="#000000" stroke-opacity="1" stroke-width="3.2"/>
<path clip-path="url(#clip472)" d="M1249.54 607.855 L1238.22 603.167 L1233.54 591.855 L1238.22 580.543 L1249.54 575.855 L1260.85 580.543 L1265.54 591.855 L1260.85 603.167 Z" fill="#c271d2" fill-rule="evenodd" fill-opacity="1" stroke="#000000" stroke-opacity="1" stroke-width="3.2"/>
<path clip-path="url(#clip472)" d="M1380.09 671.601 L1368.78 666.913 L1364.09 655.601 L1368.78 644.289 L1380.09 639.601 L1391.41 644.289 L1396.09 655.601 L1391.41 666.913 Z" fill="#c271d2" fill-rule="evenodd" fill-opacity="1" stroke="#000000" stroke-opacity="1" stroke-width="3.2"/>
<path clip-path="url(#clip472)" d="M1510.65 771.906 L1499.34 767.218 L1494.65 755.906 L1499.34 744.594 L1510.65 739.906 L1521.97 744.594 L1526.65 755.906 L1521.97 767.218 Z" fill="#c271d2" fill-rule="evenodd" fill-opacity="1" stroke="#000000" stroke-opacity="1" stroke-width="3.2"/>
<path clip-path="url(#clip472)" d="M1641.21 838.131 L1629.9 833.443 L1625.21 822.131 L1629.9 810.819 L1641.21 806.131 L1652.52 810.819 L1657.21 822.131 L1652.52 833.443 Z" fill="#c271d2" fill-rule="evenodd" fill-opacity="1" stroke="#000000" stroke-opacity="1" stroke-width="3.2"/>
<path clip-path="url(#clip472)" d="M1771.77 894.665 L1760.46 889.977 L1755.77 878.665 L1760.46 867.353 L1771.77 862.665 L1783.08 867.353 L1787.77 878.665 L1783.08 889.977 Z" fill="#c271d2" fill-rule="evenodd" fill-opacity="1" stroke="#000000" stroke-opacity="1" stroke-width="3.2"/>
<path clip-path="url(#clip472)" d="M1902.33 959.583 L1891.02 954.895 L1886.33 943.583 L1891.02 932.271 L1902.33 927.583 L1913.64 932.271 L1918.33 943.583 L1913.64 954.895 Z" fill="#c271d2" fill-rule="evenodd" fill-opacity="1" stroke="#000000" stroke-opacity="1" stroke-width="3.2"/>
<path clip-path="url(#clip472)" d="M2032.89 1024.88 L2021.58 1020.19 L2016.89 1008.88 L2021.58 997.566 L2032.89 992.878 L2044.2 997.566 L2048.89 1008.88 L2044.2 1020.19 Z" fill="#c271d2" fill-rule="evenodd" fill-opacity="1" stroke="#000000" stroke-opacity="1" stroke-width="3.2"/>
<path clip-path="url(#clip472)" d="M2163.45 1101.15 L2152.13 1096.46 L2147.45 1085.15 L2152.13 1073.83 L2163.45 1069.15 L2174.76 1073.83 L2179.45 1085.15 L2174.76 1096.46 Z" fill="#c271d2" fill-rule="evenodd" fill-opacity="1" stroke="#000000" stroke-opacity="1" stroke-width="3.2"/>
<path clip-path="url(#clip472)" d="M2294 1140.05 L2282.69 1135.36 L2278 1124.05 L2282.69 1112.73 L2294 1108.05 L2305.32 1112.73 L2310 1124.05 L2305.32 1135.36 Z" fill="#c271d2" fill-rule="evenodd" fill-opacity="1" stroke="#000000" stroke-opacity="1" stroke-width="3.2"/>
<path clip-path="url(#clip470)" d="M1875.49 352.309 L2283.56 352.309 L2283.56 93.1086 L1875.49 93.1086  Z" fill="#ffffff" fill-rule="evenodd" fill-opacity="1"/>
<polyline clip-path="url(#clip470)" style="stroke:#000000; stroke-linecap:round; stroke-linejoin:round; stroke-width:4; stroke-opacity:1; fill:none" points="1875.49,352.309 2283.56,352.309 2283.56,93.1086 1875.49,93.1086 1875.49,352.309 "/>
<polyline clip-path="url(#clip470)" style="stroke:#009af9; stroke-linecap:round; stroke-linejoin:round; stroke-width:4; stroke-opacity:1; fill:none" points="1898.55,144.949 2036.94,144.949 "/>
<path clip-path="url(#clip470)" d="M1967.75 166.305 L1952.65 160.048 L1946.39 144.949 L1952.65 129.849 L1967.75 123.592 L1982.85 129.849 L1989.1 144.949 L1982.85 160.048 Z" fill="#009af9" fill-rule="evenodd" fill-opacity="1" stroke="#000000" stroke-opacity="1" stroke-width="4.55111"/>
<path clip-path="url(#clip470)" d="M2076.03 130.84 Q2070.94 130.84 2067.93 134.636 Q2064.94 138.432 2064.94 144.983 Q2064.94 151.511 2067.93 155.307 Q2070.94 159.104 2076.03 159.104 Q2081.12 159.104 2084.08 155.307 Q2087.07 151.511 2087.07 144.983 Q2087.07 138.432 2084.08 134.636 Q2081.12 130.84 2076.03 130.84 M2082.58 161.604 L2088.74 168.34 L2083.09 168.34 L2077.97 162.807 Q2077.21 162.854 2076.79 162.877 Q2076.4 162.9 2076.03 162.9 Q2068.74 162.9 2064.36 158.039 Q2060.01 153.155 2060.01 144.983 Q2060.01 136.789 2064.36 131.928 Q2068.74 127.044 2076.03 127.044 Q2083.3 127.044 2087.65 131.928 Q2092 136.789 2092 144.983 Q2092 151.002 2089.57 155.284 Q2087.16 159.567 2082.58 161.604 Z" fill="#000000" fill-rule="nonzero" fill-opacity="1" /><path clip-path="url(#clip470)" d="M2094.52 127.669 L2123.76 127.669 L2123.76 131.604 L2111.49 131.604 L2111.49 162.229 L2106.79 162.229 L2106.79 131.604 L2094.52 131.604 L2094.52 127.669 Z" fill="#000000" fill-rule="nonzero" fill-opacity="1" /><path clip-path="url(#clip470)" d="M2122.65 127.669 L2151.88 127.669 L2151.88 131.604 L2139.62 131.604 L2139.62 162.229 L2134.92 162.229 L2134.92 131.604 L2122.65 131.604 L2122.65 127.669 Z" fill="#000000" fill-rule="nonzero" fill-opacity="1" /><path clip-path="url(#clip470)" d="M2175.91 170.099 L2175.91 173.409 L2151.28 173.409 L2151.28 170.099 L2175.91 170.099 Z" fill="#000000" fill-rule="nonzero" fill-opacity="1" /><path clip-path="url(#clip470)" d="M2200.82 128.803 L2200.82 133.363 Q2198.16 132.09 2195.8 131.465 Q2193.43 130.84 2191.24 130.84 Q2187.42 130.84 2185.33 132.321 Q2183.27 133.803 2183.27 136.534 Q2183.27 138.826 2184.64 140.007 Q2186.03 141.164 2189.87 141.882 L2192.69 142.46 Q2197.93 143.456 2200.4 145.979 Q2202.9 148.479 2202.9 152.692 Q2202.9 157.715 2199.52 160.307 Q2196.17 162.9 2189.66 162.9 Q2187.21 162.9 2184.43 162.344 Q2181.68 161.789 2178.71 160.701 L2178.71 155.886 Q2181.56 157.483 2184.29 158.293 Q2187.02 159.104 2189.66 159.104 Q2193.67 159.104 2195.84 157.53 Q2198.02 155.956 2198.02 153.039 Q2198.02 150.493 2196.44 149.057 Q2194.89 147.622 2191.33 146.905 L2188.48 146.349 Q2183.25 145.307 2180.91 143.085 Q2178.57 140.863 2178.57 136.905 Q2178.57 132.321 2181.79 129.682 Q2185.03 127.044 2190.7 127.044 Q2193.13 127.044 2195.66 127.483 Q2198.18 127.923 2200.82 128.803 Z" fill="#000000" fill-rule="nonzero" fill-opacity="1" /><path clip-path="url(#clip470)" d="M2232.18 148.201 L2232.18 150.284 L2212.6 150.284 Q2212.88 154.682 2215.24 156.997 Q2217.62 159.289 2221.86 159.289 Q2224.31 159.289 2226.61 158.687 Q2228.92 158.085 2231.19 156.881 L2231.19 160.909 Q2228.9 161.881 2226.49 162.391 Q2224.08 162.9 2221.61 162.9 Q2215.4 162.9 2211.77 159.289 Q2208.16 155.678 2208.16 149.52 Q2208.16 143.155 2211.58 139.428 Q2215.03 135.678 2220.87 135.678 Q2226.1 135.678 2229.13 139.057 Q2232.18 142.414 2232.18 148.201 M2227.93 146.951 Q2227.88 143.456 2225.96 141.372 Q2224.06 139.289 2220.91 139.289 Q2217.35 139.289 2215.19 141.303 Q2213.06 143.317 2212.74 146.974 L2227.93 146.951 Z" fill="#000000" fill-rule="nonzero" fill-opacity="1" /><path clip-path="url(#clip470)" d="M2241.72 149.289 Q2241.72 153.988 2243.64 156.673 Q2245.59 159.335 2248.97 159.335 Q2252.35 159.335 2254.29 156.673 Q2256.24 153.988 2256.24 149.289 Q2256.24 144.59 2254.29 141.928 Q2252.35 139.243 2248.97 139.243 Q2245.59 139.243 2243.64 141.928 Q2241.72 144.59 2241.72 149.289 M2256.24 158.34 Q2254.89 160.655 2252.83 161.789 Q2250.8 162.9 2247.93 162.9 Q2243.23 162.9 2240.26 159.15 Q2237.32 155.4 2237.32 149.289 Q2237.32 143.178 2240.26 139.428 Q2243.23 135.678 2247.93 135.678 Q2250.8 135.678 2252.83 136.812 Q2254.89 137.923 2256.24 140.238 L2256.24 136.303 L2260.49 136.303 L2260.49 172.09 L2256.24 172.09 L2256.24 158.34 Z" fill="#000000" fill-rule="nonzero" fill-opacity="1" /><polyline clip-path="url(#clip470)" style="stroke:#e26f46; stroke-linecap:round; stroke-linejoin:round; stroke-width:4; stroke-opacity:1; fill:none" points="1898.55,196.789 2036.94,196.789 "/>
<path clip-path="url(#clip470)" d="M1967.75 218.145 L1952.65 211.888 L1946.39 196.789 L1952.65 181.689 L1967.75 175.432 L1982.85 181.689 L1989.1 196.789 L1982.85 211.888 Z" fill="#e26f46" fill-rule="evenodd" fill-opacity="1" stroke="#000000" stroke-opacity="1" stroke-width="4.55111"/>
<path clip-path="url(#clip470)" d="M2064.69 197.564 L2064.69 210.226 L2072.19 210.226 Q2075.96 210.226 2077.76 208.675 Q2079.59 207.101 2079.59 203.883 Q2079.59 200.643 2077.76 199.115 Q2075.96 197.564 2072.19 197.564 L2064.69 197.564 M2064.69 183.351 L2064.69 193.768 L2071.61 193.768 Q2075.03 193.768 2076.7 192.495 Q2078.39 191.198 2078.39 188.559 Q2078.39 185.944 2076.7 184.647 Q2075.03 183.351 2071.61 183.351 L2064.69 183.351 M2060.01 179.509 L2071.95 179.509 Q2077.3 179.509 2080.19 181.731 Q2083.09 183.953 2083.09 188.05 Q2083.09 191.222 2081.61 193.097 Q2080.13 194.971 2077.25 195.434 Q2080.7 196.175 2082.6 198.536 Q2084.52 200.874 2084.52 204.393 Q2084.52 209.022 2081.38 211.545 Q2078.23 214.069 2072.42 214.069 L2060.01 214.069 L2060.01 179.509 Z" fill="#000000" fill-rule="nonzero" fill-opacity="1" /><path clip-path="url(#clip470)" d="M2087.74 179.509 L2116.98 179.509 L2116.98 183.444 L2104.71 183.444 L2104.71 214.069 L2100.01 214.069 L2100.01 183.444 L2087.74 183.444 L2087.74 179.509 Z" fill="#000000" fill-rule="nonzero" fill-opacity="1" /><path clip-path="url(#clip470)" d="M2115.87 179.509 L2145.1 179.509 L2145.1 183.444 L2132.83 183.444 L2132.83 214.069 L2128.13 214.069 L2128.13 183.444 L2115.87 183.444 L2115.87 179.509 Z" fill="#000000" fill-rule="nonzero" fill-opacity="1" /><path clip-path="url(#clip470)" d="M2149.62 179.509 L2155.91 179.509 L2171.24 208.421 L2171.24 179.509 L2175.77 179.509 L2175.77 214.069 L2169.48 214.069 L2154.15 185.157 L2154.15 214.069 L2149.62 214.069 L2149.62 179.509 Z" fill="#000000" fill-rule="nonzero" fill-opacity="1" /><polyline clip-path="url(#clip470)" style="stroke:#3da44d; stroke-linecap:round; stroke-linejoin:round; stroke-width:4; stroke-opacity:1; fill:none" points="1898.55,248.629 2036.94,248.629 "/>
<path clip-path="url(#clip470)" d="M1967.75 269.985 L1952.65 263.728 L1946.39 248.629 L1952.65 233.529 L1967.75 227.272 L1982.85 233.529 L1989.1 248.629 L1982.85 263.728 Z" fill="#3da44d" fill-rule="evenodd" fill-opacity="1" stroke="#000000" stroke-opacity="1" stroke-width="4.55111"/>
<path clip-path="url(#clip470)" d="M2087.88 234.011 L2087.88 238.941 Q2085.52 236.742 2082.83 235.654 Q2080.17 234.566 2077.16 234.566 Q2071.24 234.566 2068.09 238.2 Q2064.94 241.812 2064.94 248.663 Q2064.94 255.492 2068.09 259.126 Q2071.24 262.737 2077.16 262.737 Q2080.17 262.737 2082.83 261.649 Q2085.52 260.561 2087.88 258.362 L2087.88 263.247 Q2085.43 264.913 2082.67 265.747 Q2079.94 266.58 2076.88 266.58 Q2069.04 266.58 2064.52 261.788 Q2060.01 256.973 2060.01 248.663 Q2060.01 240.33 2064.52 235.538 Q2069.04 230.724 2076.88 230.724 Q2079.99 230.724 2082.72 231.557 Q2085.47 232.367 2087.88 234.011 Z" fill="#000000" fill-rule="nonzero" fill-opacity="1" /><path clip-path="url(#clip470)" d="M2090.31 231.349 L2119.55 231.349 L2119.55 235.284 L2107.28 235.284 L2107.28 265.909 L2102.58 265.909 L2102.58 235.284 L2090.31 235.284 L2090.31 231.349 Z" fill="#000000" fill-rule="nonzero" fill-opacity="1" /><path clip-path="url(#clip470)" d="M2118.44 231.349 L2147.67 231.349 L2147.67 235.284 L2135.4 235.284 L2135.4 265.909 L2130.7 265.909 L2130.7 235.284 L2118.44 235.284 L2118.44 231.349 Z" fill="#000000" fill-rule="nonzero" fill-opacity="1" /><path clip-path="url(#clip470)" d="M2152.18 231.349 L2158.48 231.349 L2173.81 260.261 L2173.81 231.349 L2178.34 231.349 L2178.34 265.909 L2172.05 265.909 L2156.72 236.997 L2156.72 265.909 L2152.18 265.909 L2152.18 231.349 Z" fill="#000000" fill-rule="nonzero" fill-opacity="1" /><polyline clip-path="url(#clip470)" style="stroke:#c271d2; stroke-linecap:round; stroke-linejoin:round; stroke-width:4; stroke-opacity:1; fill:none" points="1898.55,300.469 2036.94,300.469 "/>
<path clip-path="url(#clip470)" d="M1967.75 321.825 L1952.65 315.568 L1946.39 300.469 L1952.65 285.369 L1967.75 279.112 L1982.85 285.369 L1989.1 300.469 L1982.85 315.568 Z" fill="#c271d2" fill-rule="evenodd" fill-opacity="1" stroke="#000000" stroke-opacity="1" stroke-width="4.55111"/>
<path clip-path="url(#clip470)" d="M2076.03 286.36 Q2070.94 286.36 2067.93 290.156 Q2064.94 293.952 2064.94 300.503 Q2064.94 307.031 2067.93 310.827 Q2070.94 314.624 2076.03 314.624 Q2081.12 314.624 2084.08 310.827 Q2087.07 307.031 2087.07 300.503 Q2087.07 293.952 2084.08 290.156 Q2081.12 286.36 2076.03 286.36 M2082.58 317.124 L2088.74 323.86 L2083.09 323.86 L2077.97 318.327 Q2077.21 318.374 2076.79 318.397 Q2076.4 318.42 2076.03 318.42 Q2068.74 318.42 2064.36 313.559 Q2060.01 308.675 2060.01 300.503 Q2060.01 292.309 2064.36 287.448 Q2068.74 282.564 2076.03 282.564 Q2083.3 282.564 2087.65 287.448 Q2092 292.309 2092 300.503 Q2092 306.522 2089.57 310.804 Q2087.16 315.087 2082.58 317.124 Z" fill="#000000" fill-rule="nonzero" fill-opacity="1" /><path clip-path="url(#clip470)" d="M2094.52 283.189 L2123.76 283.189 L2123.76 287.124 L2111.49 287.124 L2111.49 317.749 L2106.79 317.749 L2106.79 287.124 L2094.52 287.124 L2094.52 283.189 Z" fill="#000000" fill-rule="nonzero" fill-opacity="1" /><path clip-path="url(#clip470)" d="M2122.65 283.189 L2151.88 283.189 L2151.88 287.124 L2139.62 287.124 L2139.62 317.749 L2134.92 317.749 L2134.92 287.124 L2122.65 287.124 L2122.65 283.189 Z" fill="#000000" fill-rule="nonzero" fill-opacity="1" /><path clip-path="url(#clip470)" d="M2175.91 325.619 L2175.91 328.929 L2151.28 328.929 L2151.28 325.619 L2175.91 325.619 Z" fill="#000000" fill-rule="nonzero" fill-opacity="1" /><path clip-path="url(#clip470)" d="M2180.1 283.189 L2184.78 283.189 L2184.78 317.749 L2180.1 317.749 L2180.1 283.189 Z" fill="#000000" fill-rule="nonzero" fill-opacity="1" /><path clip-path="url(#clip470)" d="M2215.45 302.101 L2215.45 317.749 L2211.19 317.749 L2211.19 302.239 Q2211.19 298.559 2209.75 296.73 Q2208.32 294.902 2205.45 294.902 Q2202 294.902 2200.01 297.101 Q2198.02 299.3 2198.02 303.096 L2198.02 317.749 L2193.74 317.749 L2193.74 291.823 L2198.02 291.823 L2198.02 295.851 Q2199.55 293.513 2201.61 292.355 Q2203.69 291.198 2206.4 291.198 Q2210.87 291.198 2213.16 293.976 Q2215.45 296.73 2215.45 302.101 Z" fill="#000000" fill-rule="nonzero" fill-opacity="1" /><path clip-path="url(#clip470)" d="M2228.16 284.462 L2228.16 291.823 L2236.93 291.823 L2236.93 295.133 L2228.16 295.133 L2228.16 309.207 Q2228.16 312.378 2229.01 313.281 Q2229.89 314.184 2232.55 314.184 L2236.93 314.184 L2236.93 317.749 L2232.55 317.749 Q2227.62 317.749 2225.75 315.92 Q2223.87 314.068 2223.87 309.207 L2223.87 295.133 L2220.75 295.133 L2220.75 291.823 L2223.87 291.823 L2223.87 284.462 L2228.16 284.462 Z" fill="#000000" fill-rule="nonzero" fill-opacity="1" /></svg>
