<?xml version="1.0" encoding="utf-8"?>
<svg xmlns="http://www.w3.org/2000/svg" xmlns:xlink="http://www.w3.org/1999/xlink" width="600" height="400" viewBox="0 0 2400 1600">
<defs>
  <clipPath id="clip740">
    <rect x="0" y="0" width="2400" height="1600"/>
  </clipPath>
</defs>
<path clip-path="url(#clip740)" d="M0 1600 L2400 1600 L2400 8.88178e-14 L0 8.88178e-14  Z" fill="#ffffff" fill-rule="evenodd" fill-opacity="1"/>
<defs>
  <clipPath id="clip741">
    <rect x="480" y="0" width="1681" height="1600"/>
  </clipPath>
</defs>
<path clip-path="url(#clip740)" d="M252.764 1423.18 L2352.76 1423.18 L2352.76 123.472 L252.764 123.472  Z" fill="#ffffff" fill-rule="evenodd" fill-opacity="1"/>
<defs>
  <clipPath id="clip742">
    <rect x="252" y="123" width="2101" height="1301"/>
  </clipPath>
</defs>
<polyline clip-path="url(#clip742)" style="stroke:#000000; stroke-linecap:round; stroke-linejoin:round; stroke-width:2; stroke-opacity:0.1; fill:none" points="532.323,1423.18 532.323,123.472 "/>
<polyline clip-path="url(#clip742)" style="stroke:#000000; stroke-linecap:round; stroke-linejoin:round; stroke-width:2; stroke-opacity:0.1; fill:none" points="972.573,1423.18 972.573,123.472 "/>
<polyline clip-path="url(#clip742)" style="stroke:#000000; stroke-linecap:round; stroke-linejoin:round; stroke-width:2; stroke-opacity:0.1; fill:none" points="1412.82,1423.18 1412.82,123.472 "/>
<polyline clip-path="url(#clip742)" style="stroke:#000000; stroke-linecap:round; stroke-linejoin:round; stroke-width:2; stroke-opacity:0.1; fill:none" points="1853.07,1423.18 1853.07,123.472 "/>
<polyline clip-path="url(#clip742)" style="stroke:#000000; stroke-linecap:round; stroke-linejoin:round; stroke-width:2; stroke-opacity:0.1; fill:none" points="2293.32,1423.18 2293.32,123.472 "/>
<polyline clip-path="url(#clip742)" style="stroke:#000000; stroke-linecap:round; stroke-linejoin:round; stroke-width:2; stroke-opacity:0.1; fill:none" points="252.764,1001.26 2352.76,1001.26 "/>
<polyline clip-path="url(#clip742)" style="stroke:#000000; stroke-linecap:round; stroke-linejoin:round; stroke-width:2; stroke-opacity:0.1; fill:none" points="252.764,495.784 2352.76,495.784 "/>
<polyline clip-path="url(#clip740)" style="stroke:#000000; stroke-linecap:round; stroke-linejoin:round; stroke-width:4; stroke-opacity:1; fill:none" points="252.764,1423.18 2352.76,1423.18 "/>
<polyline clip-path="url(#clip740)" style="stroke:#000000; stroke-linecap:round; stroke-linejoin:round; stroke-width:4; stroke-opacity:1; fill:none" points="532.323,1423.18 532.323,1404.28 "/>
<polyline clip-path="url(#clip740)" style="stroke:#000000; stroke-linecap:round; stroke-linejoin:round; stroke-width:4; stroke-opacity:1; fill:none" points="972.573,1423.18 972.573,1404.28 "/>
<polyline clip-path="url(#clip740)" style="stroke:#000000; stroke-linecap:round; stroke-linejoin:round; stroke-width:4; stroke-opacity:1; fill:none" points="1412.82,1423.18 1412.82,1404.28 "/>
<polyline clip-path="url(#clip740)" style="stroke:#000000; stroke-linecap:round; stroke-linejoin:round; stroke-width:4; stroke-opacity:1; fill:none" points="1853.07,1423.18 1853.07,1404.28 "/>
<polyline clip-path="url(#clip740)" style="stroke:#000000; stroke-linecap:round; stroke-linejoin:round; stroke-width:4; stroke-opacity:1; fill:none" points="2293.32,1423.18 2293.32,1404.28 "/>
<path clip-path="url(#clip740)" d="M511.096 1481.64 L527.415 1481.64 L527.415 1485.58 L505.471 1485.58 L505.471 1481.64 Q508.133 1478.89 512.716 1474.26 Q517.323 1469.61 518.503 1468.27 Q520.749 1465.74 521.628 1464.01 Q522.531 1462.25 522.531 1460.56 Q522.531 1457.8 520.587 1456.07 Q518.665 1454.33 515.563 1454.33 Q513.364 1454.33 510.911 1455.09 Q508.48 1455.86 505.702 1457.41 L505.702 1452.69 Q508.526 1451.55 510.98 1450.97 Q513.434 1450.39 515.471 1450.39 Q520.841 1450.39 524.036 1453.08 Q527.23 1455.77 527.23 1460.26 Q527.23 1462.39 526.42 1464.31 Q525.633 1466.2 523.526 1468.8 Q522.948 1469.47 519.846 1472.69 Q516.744 1475.88 511.096 1481.64 Z" fill="#000000" fill-rule="nonzero" fill-opacity="1" /><path clip-path="url(#clip740)" d="M547.23 1454.1 Q543.619 1454.1 541.79 1457.66 Q539.985 1461.2 539.985 1468.33 Q539.985 1475.44 541.79 1479.01 Q543.619 1482.55 547.23 1482.55 Q550.864 1482.55 552.67 1479.01 Q554.498 1475.44 554.498 1468.33 Q554.498 1461.2 552.67 1457.66 Q550.864 1454.1 547.23 1454.1 M547.23 1450.39 Q553.04 1450.39 556.096 1455 Q559.174 1459.58 559.174 1468.33 Q559.174 1477.06 556.096 1481.67 Q553.04 1486.25 547.23 1486.25 Q541.42 1486.25 538.341 1481.67 Q535.286 1477.06 535.286 1468.33 Q535.286 1459.58 538.341 1455 Q541.42 1450.39 547.23 1450.39 Z" fill="#000000" fill-rule="nonzero" fill-opacity="1" /><path clip-path="url(#clip740)" d="M960.744 1455.09 L948.938 1473.54 L960.744 1473.54 L960.744 1455.09 M959.517 1451.02 L965.397 1451.02 L965.397 1473.54 L970.327 1473.54 L970.327 1477.43 L965.397 1477.43 L965.397 1485.58 L960.744 1485.58 L960.744 1477.43 L945.142 1477.43 L945.142 1472.92 L959.517 1451.02 Z" fill="#000000" fill-rule="nonzero" fill-opacity="1" /><path clip-path="url(#clip740)" d="M988.059 1454.1 Q984.447 1454.1 982.619 1457.66 Q980.813 1461.2 980.813 1468.33 Q980.813 1475.44 982.619 1479.01 Q984.447 1482.55 988.059 1482.55 Q991.693 1482.55 993.498 1479.01 Q995.327 1475.44 995.327 1468.33 Q995.327 1461.2 993.498 1457.66 Q991.693 1454.1 988.059 1454.1 M988.059 1450.39 Q993.869 1450.39 996.924 1455 Q1000 1459.58 1000 1468.33 Q1000 1477.06 996.924 1481.67 Q993.869 1486.25 988.059 1486.25 Q982.248 1486.25 979.17 1481.67 Q976.114 1477.06 976.114 1468.33 Q976.114 1459.58 979.17 1455 Q982.248 1450.39 988.059 1450.39 Z" fill="#000000" fill-rule="nonzero" fill-opacity="1" /><path clip-path="url(#clip740)" d="M1398.23 1466.44 Q1395.08 1466.44 1393.23 1468.59 Q1391.4 1470.74 1391.4 1474.49 Q1391.4 1478.22 1393.23 1480.39 Q1395.08 1482.55 1398.23 1482.55 Q1401.38 1482.55 1403.2 1480.39 Q1405.06 1478.22 1405.06 1474.49 Q1405.06 1470.74 1403.2 1468.59 Q1401.38 1466.44 1398.23 1466.44 M1407.51 1451.78 L1407.51 1456.04 Q1405.75 1455.21 1403.95 1454.77 Q1402.16 1454.33 1400.4 1454.33 Q1395.77 1454.33 1393.32 1457.45 Q1390.89 1460.58 1390.54 1466.9 Q1391.91 1464.89 1393.97 1463.82 Q1396.03 1462.73 1398.51 1462.73 Q1403.71 1462.73 1406.72 1465.9 Q1409.76 1469.05 1409.76 1474.49 Q1409.76 1479.82 1406.61 1483.03 Q1403.46 1486.25 1398.23 1486.25 Q1392.23 1486.25 1389.06 1481.67 Q1385.89 1477.06 1385.89 1468.33 Q1385.89 1460.14 1389.78 1455.28 Q1393.67 1450.39 1400.22 1450.39 Q1401.98 1450.39 1403.76 1450.74 Q1405.57 1451.09 1407.51 1451.78 Z" fill="#000000" fill-rule="nonzero" fill-opacity="1" /><path clip-path="url(#clip740)" d="M1427.81 1454.1 Q1424.2 1454.1 1422.37 1457.66 Q1420.57 1461.2 1420.57 1468.33 Q1420.57 1475.44 1422.37 1479.01 Q1424.2 1482.55 1427.81 1482.55 Q1431.44 1482.55 1433.25 1479.01 Q1435.08 1475.44 1435.08 1468.33 Q1435.08 1461.2 1433.25 1457.66 Q1431.44 1454.1 1427.81 1454.1 M1427.81 1450.39 Q1433.62 1450.39 1436.68 1455 Q1439.76 1459.58 1439.76 1468.33 Q1439.76 1477.06 1436.68 1481.67 Q1433.62 1486.25 1427.81 1486.25 Q1422 1486.25 1418.92 1481.67 Q1415.87 1477.06 1415.87 1468.33 Q1415.87 1459.58 1418.92 1455 Q1422 1450.39 1427.81 1450.39 Z" fill="#000000" fill-rule="nonzero" fill-opacity="1" /><path clip-path="url(#clip740)" d="M1837.95 1469.17 Q1834.61 1469.17 1832.69 1470.95 Q1830.79 1472.73 1830.79 1475.86 Q1830.79 1478.98 1832.69 1480.77 Q1834.61 1482.55 1837.95 1482.55 Q1841.28 1482.55 1843.2 1480.77 Q1845.12 1478.96 1845.12 1475.86 Q1845.12 1472.73 1843.2 1470.95 Q1841.3 1469.17 1837.95 1469.17 M1833.27 1467.18 Q1830.26 1466.44 1828.57 1464.38 Q1826.9 1462.32 1826.9 1459.35 Q1826.9 1455.21 1829.84 1452.8 Q1832.81 1450.39 1837.95 1450.39 Q1843.11 1450.39 1846.05 1452.8 Q1848.99 1455.21 1848.99 1459.35 Q1848.99 1462.32 1847.3 1464.38 Q1845.63 1466.44 1842.64 1467.18 Q1846.02 1467.96 1847.9 1470.26 Q1849.8 1472.55 1849.8 1475.86 Q1849.8 1480.88 1846.72 1483.57 Q1843.66 1486.25 1837.95 1486.25 Q1832.23 1486.25 1829.15 1483.57 Q1826.09 1480.88 1826.09 1475.86 Q1826.09 1472.55 1827.99 1470.26 Q1829.89 1467.96 1833.27 1467.18 M1831.56 1459.79 Q1831.56 1462.48 1833.22 1463.98 Q1834.91 1465.49 1837.95 1465.49 Q1840.95 1465.49 1842.64 1463.98 Q1844.36 1462.48 1844.36 1459.79 Q1844.36 1457.11 1842.64 1455.6 Q1840.95 1454.1 1837.95 1454.1 Q1834.91 1454.1 1833.22 1455.6 Q1831.56 1457.11 1831.56 1459.79 Z" fill="#000000" fill-rule="nonzero" fill-opacity="1" /><path clip-path="url(#clip740)" d="M1868.11 1454.1 Q1864.5 1454.1 1862.67 1457.66 Q1860.86 1461.2 1860.86 1468.33 Q1860.86 1475.44 1862.67 1479.01 Q1864.5 1482.55 1868.11 1482.55 Q1871.74 1482.55 1873.55 1479.01 Q1875.38 1475.44 1875.38 1468.33 Q1875.38 1461.2 1873.55 1457.66 Q1871.74 1454.1 1868.11 1454.1 M1868.11 1450.39 Q1873.92 1450.39 1876.97 1455 Q1880.05 1459.58 1880.05 1468.33 Q1880.05 1477.06 1876.97 1481.67 Q1873.92 1486.25 1868.11 1486.25 Q1862.3 1486.25 1859.22 1481.67 Q1856.16 1477.06 1856.16 1468.33 Q1856.16 1459.58 1859.22 1455 Q1862.3 1450.39 1868.11 1450.39 Z" fill="#000000" fill-rule="nonzero" fill-opacity="1" /><path clip-path="url(#clip740)" d="M2252.93 1481.64 L2260.57 1481.64 L2260.57 1455.28 L2252.26 1456.95 L2252.26 1452.69 L2260.52 1451.02 L2265.2 1451.02 L2265.2 1481.64 L2272.84 1481.64 L2272.84 1485.58 L2252.93 1485.58 L2252.93 1481.64 Z" fill="#000000" fill-rule="nonzero" fill-opacity="1" /><path clip-path="url(#clip740)" d="M2292.28 1454.1 Q2288.67 1454.1 2286.84 1457.66 Q2285.04 1461.2 2285.04 1468.33 Q2285.04 1475.44 2286.84 1479.01 Q2288.67 1482.55 2292.28 1482.55 Q2295.91 1482.55 2297.72 1479.01 Q2299.55 1475.44 2299.55 1468.33 Q2299.55 1461.2 2297.72 1457.66 Q2295.91 1454.1 2292.28 1454.1 M2292.28 1450.39 Q2298.09 1450.39 2301.15 1455 Q2304.22 1459.58 2304.22 1468.33 Q2304.22 1477.06 2301.15 1481.67 Q2298.09 1486.25 2292.28 1486.25 Q2286.47 1486.25 2283.39 1481.67 Q2280.34 1477.06 2280.34 1468.33 Q2280.34 1459.58 2283.39 1455 Q2286.47 1450.39 2292.28 1450.39 Z" fill="#000000" fill-rule="nonzero" fill-opacity="1" /><path clip-path="url(#clip740)" d="M2322.44 1454.1 Q2318.83 1454.1 2317 1457.66 Q2315.2 1461.2 2315.2 1468.33 Q2315.2 1475.44 2317 1479.01 Q2318.83 1482.55 2322.44 1482.55 Q2326.08 1482.55 2327.88 1479.01 Q2329.71 1475.44 2329.71 1468.33 Q2329.71 1461.2 2327.88 1457.66 Q2326.08 1454.1 2322.44 1454.1 M2322.44 1450.39 Q2328.25 1450.39 2331.31 1455 Q2334.39 1459.58 2334.39 1468.33 Q2334.39 1477.06 2331.31 1481.67 Q2328.25 1486.25 2322.44 1486.25 Q2316.63 1486.25 2313.55 1481.67 Q2310.5 1477.06 2310.5 1468.33 Q2310.5 1459.58 2313.55 1455 Q2316.63 1450.39 2322.44 1450.39 Z" fill="#000000" fill-rule="nonzero" fill-opacity="1" /><path clip-path="url(#clip740)" d="M963.738 1520.52 L973.319 1520.52 L985.445 1552.86 L997.636 1520.52 L1007.22 1520.52 L1007.22 1568.04 L1000.95 1568.04 L1000.95 1526.32 L988.692 1558.91 L982.231 1558.91 L969.977 1526.32 L969.977 1568.04 L963.738 1568.04 L963.738 1520.52 Z" fill="#000000" fill-rule="nonzero" fill-opacity="1" /><path clip-path="url(#clip740)" d="M1035.93 1550.12 Q1028.83 1550.12 1026.09 1551.75 Q1023.35 1553.37 1023.35 1557.29 Q1023.35 1560.4 1025.39 1562.25 Q1027.46 1564.07 1030.99 1564.07 Q1035.86 1564.07 1038.79 1560.63 Q1041.75 1557.16 1041.75 1551.43 L1041.75 1550.12 L1035.93 1550.12 M1047.61 1547.71 L1047.61 1568.04 L1041.75 1568.04 L1041.75 1562.63 Q1039.74 1565.88 1036.75 1567.44 Q1033.76 1568.97 1029.43 1568.97 Q1023.96 1568.97 1020.71 1565.91 Q1017.5 1562.82 1017.5 1557.67 Q1017.5 1551.65 1021.51 1548.6 Q1025.55 1545.54 1033.54 1545.54 L1041.75 1545.54 L1041.75 1544.97 Q1041.75 1540.93 1039.08 1538.73 Q1036.43 1536.5 1031.63 1536.5 Q1028.57 1536.5 1025.68 1537.23 Q1022.78 1537.97 1020.11 1539.43 L1020.11 1534.02 Q1023.32 1532.78 1026.35 1532.17 Q1029.37 1531.54 1032.23 1531.54 Q1039.97 1531.54 1043.79 1535.55 Q1047.61 1539.56 1047.61 1547.71 Z" fill="#000000" fill-rule="nonzero" fill-opacity="1" /><path clip-path="url(#clip740)" d="M1089.3 1532.4 L1076.41 1549.74 L1089.97 1568.04 L1083.06 1568.04 L1072.69 1554.04 L1062.31 1568.04 L1055.4 1568.04 L1069.25 1549.39 L1056.58 1532.4 L1063.49 1532.4 L1072.94 1545.1 L1082.4 1532.4 L1089.3 1532.4 Z" fill="#000000" fill-rule="nonzero" fill-opacity="1" /><path clip-path="url(#clip740)" d="M1125.65 1545.35 L1125.65 1562.76 L1135.96 1562.76 Q1141.15 1562.76 1143.63 1560.63 Q1146.15 1558.46 1146.15 1554.04 Q1146.15 1549.58 1143.63 1547.48 Q1141.15 1545.35 1135.96 1545.35 L1125.65 1545.35 M1125.65 1525.81 L1125.65 1540.13 L1135.17 1540.13 Q1139.88 1540.13 1142.17 1538.38 Q1144.49 1536.6 1144.49 1532.97 Q1144.49 1529.37 1142.17 1527.59 Q1139.88 1525.81 1135.17 1525.81 L1125.65 1525.81 M1119.22 1520.52 L1135.64 1520.52 Q1143 1520.52 1146.98 1523.58 Q1150.95 1526.63 1150.95 1532.27 Q1150.95 1536.63 1148.92 1539.21 Q1146.88 1541.79 1142.93 1542.42 Q1147.68 1543.44 1150.29 1546.69 Q1152.93 1549.9 1152.93 1554.74 Q1152.93 1561.11 1148.6 1564.57 Q1144.27 1568.04 1136.28 1568.04 L1119.22 1568.04 L1119.22 1520.52 Z" fill="#000000" fill-rule="nonzero" fill-opacity="1" /><path clip-path="url(#clip740)" d="M1177.5 1536.5 Q1172.79 1536.5 1170.05 1540.19 Q1167.31 1543.85 1167.31 1550.25 Q1167.31 1556.65 1170.02 1560.34 Q1172.76 1564 1177.5 1564 Q1182.18 1564 1184.91 1560.31 Q1187.65 1556.62 1187.65 1550.25 Q1187.65 1543.92 1184.91 1540.23 Q1182.18 1536.5 1177.5 1536.5 M1177.5 1531.54 Q1185.14 1531.54 1189.5 1536.5 Q1193.86 1541.47 1193.86 1550.25 Q1193.86 1559 1189.5 1564 Q1185.14 1568.97 1177.5 1568.97 Q1169.83 1568.97 1165.47 1564 Q1161.14 1559 1161.14 1550.25 Q1161.14 1541.47 1165.47 1536.5 Q1169.83 1531.54 1177.5 1531.54 Z" fill="#000000" fill-rule="nonzero" fill-opacity="1" /><path clip-path="url(#clip740)" d="M1233.2 1546.53 L1233.2 1568.04 L1227.34 1568.04 L1227.34 1546.72 Q1227.34 1541.66 1225.37 1539.14 Q1223.4 1536.63 1219.45 1536.63 Q1214.71 1536.63 1211.97 1539.65 Q1209.23 1542.68 1209.23 1547.9 L1209.23 1568.04 L1203.34 1568.04 L1203.34 1532.4 L1209.23 1532.4 L1209.23 1537.93 Q1211.33 1534.72 1214.17 1533.13 Q1217.03 1531.54 1220.75 1531.54 Q1226.9 1531.54 1230.05 1535.36 Q1233.2 1539.14 1233.2 1546.53 Z" fill="#000000" fill-rule="nonzero" fill-opacity="1" /><path clip-path="url(#clip740)" d="M1268.34 1537.81 L1268.34 1518.52 L1274.19 1518.52 L1274.19 1568.04 L1268.34 1568.04 L1268.34 1562.7 Q1266.49 1565.88 1263.66 1567.44 Q1260.86 1568.97 1256.91 1568.97 Q1250.45 1568.97 1246.38 1563.81 Q1242.33 1558.65 1242.33 1550.25 Q1242.33 1541.85 1246.38 1536.69 Q1250.45 1531.54 1256.91 1531.54 Q1260.86 1531.54 1263.66 1533.1 Q1266.49 1534.62 1268.34 1537.81 M1248.38 1550.25 Q1248.38 1556.71 1251.02 1560.4 Q1253.7 1564.07 1258.34 1564.07 Q1262.99 1564.07 1265.66 1560.4 Q1268.34 1556.71 1268.34 1550.25 Q1268.34 1543.79 1265.66 1540.13 Q1262.99 1536.44 1258.34 1536.44 Q1253.7 1536.44 1251.02 1540.13 Q1248.38 1543.79 1248.38 1550.25 Z" fill="#000000" fill-rule="nonzero" fill-opacity="1" /><path clip-path="url(#clip740)" d="M1313.66 1525.81 L1313.66 1562.76 L1321.43 1562.76 Q1331.26 1562.76 1335.81 1558.3 Q1340.4 1553.85 1340.4 1544.24 Q1340.4 1534.69 1335.81 1530.26 Q1331.26 1525.81 1321.43 1525.81 L1313.66 1525.81 M1307.23 1520.52 L1320.44 1520.52 Q1334.25 1520.52 1340.72 1526.28 Q1347.18 1532.01 1347.18 1544.24 Q1347.18 1556.52 1340.68 1562.28 Q1334.19 1568.04 1320.44 1568.04 L1307.23 1568.04 L1307.23 1520.52 Z" fill="#000000" fill-rule="nonzero" fill-opacity="1" /><path clip-path="url(#clip740)" d="M1357.17 1532.4 L1363.03 1532.4 L1363.03 1568.04 L1357.17 1568.04 L1357.17 1532.4 M1357.17 1518.52 L1363.03 1518.52 L1363.03 1525.93 L1357.17 1525.93 L1357.17 1518.52 Z" fill="#000000" fill-rule="nonzero" fill-opacity="1" /><path clip-path="url(#clip740)" d="M1403.04 1539.24 Q1405.23 1535.29 1408.29 1533.41 Q1411.34 1531.54 1415.48 1531.54 Q1421.05 1531.54 1424.07 1535.45 Q1427.1 1539.33 1427.1 1546.53 L1427.1 1568.04 L1421.21 1568.04 L1421.21 1546.72 Q1421.21 1541.59 1419.4 1539.11 Q1417.58 1536.63 1413.86 1536.63 Q1409.31 1536.63 1406.66 1539.65 Q1404.02 1542.68 1404.02 1547.9 L1404.02 1568.04 L1398.13 1568.04 L1398.13 1546.72 Q1398.13 1541.56 1396.32 1539.11 Q1394.51 1536.63 1390.72 1536.63 Q1386.23 1536.63 1383.59 1539.68 Q1380.95 1542.71 1380.95 1547.9 L1380.95 1568.04 L1375.06 1568.04 L1375.06 1532.4 L1380.95 1532.4 L1380.95 1537.93 Q1382.95 1534.66 1385.75 1533.1 Q1388.55 1531.54 1392.4 1531.54 Q1396.29 1531.54 1398.99 1533.51 Q1401.73 1535.48 1403.04 1539.24 Z" fill="#000000" fill-rule="nonzero" fill-opacity="1" /><path clip-path="url(#clip740)" d="M1469.27 1548.76 L1469.27 1551.62 L1442.34 1551.62 Q1442.73 1557.67 1445.97 1560.85 Q1449.25 1564 1455.08 1564 Q1458.45 1564 1461.6 1563.17 Q1464.78 1562.35 1467.9 1560.69 L1467.9 1566.23 Q1464.75 1567.57 1461.44 1568.27 Q1458.13 1568.97 1454.73 1568.97 Q1446.2 1568.97 1441.2 1564 Q1436.23 1559.04 1436.23 1550.57 Q1436.23 1541.82 1440.94 1536.69 Q1445.69 1531.54 1453.71 1531.54 Q1460.9 1531.54 1465.07 1536.18 Q1469.27 1540.8 1469.27 1548.76 M1463.41 1547.04 Q1463.35 1542.23 1460.71 1539.37 Q1458.1 1536.5 1453.77 1536.5 Q1448.87 1536.5 1445.91 1539.27 Q1442.98 1542.04 1442.53 1547.07 L1463.41 1547.04 Z" fill="#000000" fill-rule="nonzero" fill-opacity="1" /><path clip-path="url(#clip740)" d="M1508.52 1546.53 L1508.52 1568.04 L1502.66 1568.04 L1502.66 1546.72 Q1502.66 1541.66 1500.69 1539.14 Q1498.71 1536.63 1494.77 1536.63 Q1490.02 1536.63 1487.29 1539.65 Q1484.55 1542.68 1484.55 1547.9 L1484.55 1568.04 L1478.66 1568.04 L1478.66 1532.4 L1484.55 1532.4 L1484.55 1537.93 Q1486.65 1534.72 1489.48 1533.13 Q1492.35 1531.54 1496.07 1531.54 Q1502.21 1531.54 1505.36 1535.36 Q1508.52 1539.14 1508.52 1546.53 Z" fill="#000000" fill-rule="nonzero" fill-opacity="1" /><path clip-path="url(#clip740)" d="M1542.92 1533.45 L1542.92 1538.98 Q1540.44 1537.71 1537.77 1537.07 Q1535.09 1536.44 1532.23 1536.44 Q1527.87 1536.44 1525.67 1537.77 Q1523.51 1539.11 1523.51 1541.79 Q1523.51 1543.82 1525.07 1545 Q1526.63 1546.15 1531.34 1547.2 L1533.34 1547.64 Q1539.58 1548.98 1542.19 1551.43 Q1544.83 1553.85 1544.83 1558.21 Q1544.83 1563.17 1540.89 1566.07 Q1536.97 1568.97 1530.1 1568.97 Q1527.23 1568.97 1524.11 1568.39 Q1521.02 1567.85 1517.59 1566.74 L1517.59 1560.69 Q1520.83 1562.38 1523.98 1563.24 Q1527.14 1564.07 1530.22 1564.07 Q1534.36 1564.07 1536.59 1562.66 Q1538.82 1561.23 1538.82 1558.65 Q1538.82 1556.27 1537.19 1554.99 Q1535.6 1553.72 1530.16 1552.54 L1528.12 1552.07 Q1522.68 1550.92 1520.26 1548.56 Q1517.84 1546.18 1517.84 1542.04 Q1517.84 1537.01 1521.41 1534.27 Q1524.97 1531.54 1531.53 1531.54 Q1534.77 1531.54 1537.64 1532.01 Q1540.5 1532.49 1542.92 1533.45 Z" fill="#000000" fill-rule="nonzero" fill-opacity="1" /><path clip-path="url(#clip740)" d="M1554.16 1532.4 L1560.01 1532.4 L1560.01 1568.04 L1554.16 1568.04 L1554.16 1532.4 M1554.16 1518.52 L1560.01 1518.52 L1560.01 1525.93 L1554.16 1525.93 L1554.16 1518.52 Z" fill="#000000" fill-rule="nonzero" fill-opacity="1" /><path clip-path="url(#clip740)" d="M1586.08 1536.5 Q1581.37 1536.5 1578.63 1540.19 Q1575.9 1543.85 1575.9 1550.25 Q1575.9 1556.65 1578.6 1560.34 Q1581.34 1564 1586.08 1564 Q1590.76 1564 1593.5 1560.31 Q1596.23 1556.62 1596.23 1550.25 Q1596.23 1543.92 1593.5 1540.23 Q1590.76 1536.5 1586.08 1536.5 M1586.08 1531.54 Q1593.72 1531.54 1598.08 1536.5 Q1602.44 1541.47 1602.44 1550.25 Q1602.44 1559 1598.08 1564 Q1593.72 1568.97 1586.08 1568.97 Q1578.41 1568.97 1574.05 1564 Q1569.72 1559 1569.72 1550.25 Q1569.72 1541.47 1574.05 1536.5 Q1578.41 1531.54 1586.08 1531.54 Z" fill="#000000" fill-rule="nonzero" fill-opacity="1" /><path clip-path="url(#clip740)" d="M1641.78 1546.53 L1641.78 1568.04 L1635.93 1568.04 L1635.93 1546.72 Q1635.93 1541.66 1633.95 1539.14 Q1631.98 1536.63 1628.03 1536.63 Q1623.29 1536.63 1620.55 1539.65 Q1617.81 1542.68 1617.81 1547.9 L1617.81 1568.04 L1611.93 1568.04 L1611.93 1532.4 L1617.81 1532.4 L1617.81 1537.93 Q1619.92 1534.72 1622.75 1533.13 Q1625.61 1531.54 1629.34 1531.54 Q1635.48 1531.54 1638.63 1535.36 Q1641.78 1539.14 1641.78 1546.53 Z" fill="#000000" fill-rule="nonzero" fill-opacity="1" /><polyline clip-path="url(#clip740)" style="stroke:#000000; stroke-linecap:round; stroke-linejoin:round; stroke-width:4; stroke-opacity:1; fill:none" points="252.764,1423.18 252.764,123.472 "/>
<polyline clip-path="url(#clip740)" style="stroke:#000000; stroke-linecap:round; stroke-linejoin:round; stroke-width:4; stroke-opacity:1; fill:none" points="252.764,1001.26 271.662,1001.26 "/>
<polyline clip-path="url(#clip740)" style="stroke:#000000; stroke-linecap:round; stroke-linejoin:round; stroke-width:4; stroke-opacity:1; fill:none" points="252.764,495.784 271.662,495.784 "/>
<path clip-path="url(#clip740)" d="M114.931 1021.06 L122.57 1021.06 L122.57 994.69 L114.26 996.357 L114.26 992.097 L122.524 990.431 L127.2 990.431 L127.2 1021.06 L134.839 1021.06 L134.839 1024.99 L114.931 1024.99 L114.931 1021.06 Z" fill="#000000" fill-rule="nonzero" fill-opacity="1" /><path clip-path="url(#clip740)" d="M154.283 993.509 Q150.672 993.509 148.843 997.074 Q147.038 1000.62 147.038 1007.75 Q147.038 1014.85 148.843 1018.42 Q150.672 1021.96 154.283 1021.96 Q157.917 1021.96 159.723 1018.42 Q161.552 1014.85 161.552 1007.75 Q161.552 1000.62 159.723 997.074 Q157.917 993.509 154.283 993.509 M154.283 989.806 Q160.093 989.806 163.149 994.412 Q166.227 998.996 166.227 1007.75 Q166.227 1016.47 163.149 1021.08 Q160.093 1025.66 154.283 1025.66 Q148.473 1025.66 145.394 1021.08 Q142.339 1016.47 142.339 1007.75 Q142.339 998.996 145.394 994.412 Q148.473 989.806 154.283 989.806 Z" fill="#000000" fill-rule="nonzero" fill-opacity="1" /><path clip-path="url(#clip740)" d="M166.227 983.907 L190.339 983.907 L190.339 987.104 L166.227 987.104 L166.227 983.907 Z" fill="#000000" fill-rule="nonzero" fill-opacity="1" /><path clip-path="url(#clip740)" d="M208.978 972.811 L199.386 987.8 L208.978 987.8 L208.978 972.811 M207.981 969.5 L212.758 969.5 L212.758 987.8 L216.764 987.8 L216.764 990.96 L212.758 990.96 L212.758 997.58 L208.978 997.58 L208.978 990.96 L196.301 990.96 L196.301 987.293 L207.981 969.5 Z" fill="#000000" fill-rule="nonzero" fill-opacity="1" /><path clip-path="url(#clip740)" d="M116.624 515.576 L124.263 515.576 L124.263 489.211 L115.953 490.877 L115.953 486.618 L124.217 484.951 L128.893 484.951 L128.893 515.576 L136.531 515.576 L136.531 519.511 L116.624 519.511 L116.624 515.576 Z" fill="#000000" fill-rule="nonzero" fill-opacity="1" /><path clip-path="url(#clip740)" d="M155.976 488.03 Q152.365 488.03 150.536 491.595 Q148.73 495.136 148.73 502.266 Q148.73 509.372 150.536 512.937 Q152.365 516.479 155.976 516.479 Q159.61 516.479 161.416 512.937 Q163.244 509.372 163.244 502.266 Q163.244 495.136 161.416 491.595 Q159.61 488.03 155.976 488.03 M155.976 484.326 Q161.786 484.326 164.841 488.933 Q167.92 493.516 167.92 502.266 Q167.92 510.993 164.841 515.599 Q161.786 520.183 155.976 520.183 Q150.166 520.183 147.087 515.599 Q144.031 510.993 144.031 502.266 Q144.031 493.516 147.087 488.933 Q150.166 484.326 155.976 484.326 Z" fill="#000000" fill-rule="nonzero" fill-opacity="1" /><path clip-path="url(#clip740)" d="M167.92 478.428 L192.032 478.428 L192.032 481.625 L167.92 481.625 L167.92 478.428 Z" fill="#000000" fill-rule="nonzero" fill-opacity="1" /><path clip-path="url(#clip740)" d="M203.504 488.904 L216.764 488.904 L216.764 492.101 L198.934 492.101 L198.934 488.904 Q201.097 486.665 204.821 482.904 Q208.564 479.124 209.523 478.033 Q211.347 475.983 212.062 474.572 Q212.796 473.143 212.796 471.77 Q212.796 469.532 211.216 468.121 Q209.655 466.71 207.134 466.71 Q205.348 466.71 203.354 467.331 Q201.379 467.952 199.122 469.212 L199.122 465.375 Q201.417 464.454 203.41 463.983 Q205.404 463.513 207.059 463.513 Q211.423 463.513 214.018 465.695 Q216.613 467.877 216.613 471.525 Q216.613 473.256 215.955 474.817 Q215.316 476.359 213.604 478.465 Q213.134 479.011 210.614 481.625 Q208.094 484.22 203.504 488.904 Z" fill="#000000" fill-rule="nonzero" fill-opacity="1" /><path clip-path="url(#clip740)" d="M18.0438 1022.54 L24.314 1022.54 Q22.5634 1026.2 21.704 1029.45 Q20.8447 1032.7 20.8447 1035.72 Q20.8447 1040.97 22.8817 1043.84 Q24.9187 1046.67 28.6745 1046.67 Q31.8255 1046.67 33.4488 1044.79 Q35.0402 1042.88 36.0269 1037.6 L36.8226 1033.72 Q38.1912 1026.52 41.6605 1023.12 Q45.098 1019.68 50.8908 1019.68 Q57.7976 1019.68 61.3624 1024.33 Q64.9272 1028.94 64.9272 1037.88 Q64.9272 1041.26 64.1633 1045.08 Q63.3994 1048.87 61.9035 1052.94 L55.2831 1052.94 Q57.4793 1049.02 58.5933 1045.27 Q59.7073 1041.51 59.7073 1037.88 Q59.7073 1032.38 57.543 1029.39 Q55.3786 1026.39 51.3682 1026.39 Q47.8671 1026.39 45.8937 1028.56 Q43.9204 1030.69 42.9337 1035.59 L42.1698 1039.51 Q40.7375 1046.7 37.682 1049.92 Q34.6264 1053.13 29.1837 1053.13 Q22.8817 1053.13 19.2532 1048.71 Q15.6248 1044.25 15.6248 1036.45 Q15.6248 1033.11 16.2295 1029.64 Q16.8343 1026.17 18.0438 1022.54 Z" fill="#000000" fill-rule="nonzero" fill-opacity="1" /><path clip-path="url(#clip740)" d="M46.0847 993.707 Q46.0847 1000.8 47.7079 1003.54 Q49.3312 1006.28 53.2461 1006.28 Q56.3653 1006.28 58.2114 1004.24 Q60.0256 1002.17 60.0256 998.64 Q60.0256 993.77 56.5881 990.842 Q53.1188 987.882 47.3897 987.882 L46.0847 987.882 L46.0847 993.707 M43.6657 982.026 L64.0042 982.026 L64.0042 987.882 L58.5933 987.882 Q61.8398 989.887 63.3994 992.879 Q64.9272 995.871 64.9272 1000.2 Q64.9272 1005.67 61.8716 1008.92 Q58.7843 1012.14 53.6281 1012.14 Q47.6125 1012.14 44.5569 1008.13 Q41.5014 1004.08 41.5014 996.094 L41.5014 987.882 L40.9285 987.882 Q36.8862 987.882 34.6901 990.556 Q32.4621 993.197 32.4621 998.004 Q32.4621 1001.06 33.1941 1003.96 Q33.9262 1006.85 35.3903 1009.53 L29.9795 1009.53 Q28.7381 1006.31 28.1334 1003.29 Q27.4968 1000.26 27.4968 997.399 Q27.4968 989.665 31.5072 985.845 Q35.5176 982.026 43.6657 982.026 Z" fill="#000000" fill-rule="nonzero" fill-opacity="1" /><path clip-path="url(#clip740)" d="M35.1993 942.208 Q31.2526 940.012 29.3747 936.956 Q27.4968 933.901 27.4968 929.763 Q27.4968 924.193 31.4117 921.17 Q35.2948 918.146 42.4881 918.146 L64.0042 918.146 L64.0042 924.034 L42.679 924.034 Q37.5546 924.034 35.072 925.848 Q32.5894 927.663 32.5894 931.386 Q32.5894 935.938 35.6131 938.58 Q38.6368 941.221 43.8567 941.221 L64.0042 941.221 L64.0042 947.11 L42.679 947.11 Q37.5228 947.11 35.072 948.924 Q32.5894 950.738 32.5894 954.526 Q32.5894 959.014 35.6449 961.655 Q38.6686 964.297 43.8567 964.297 L64.0042 964.297 L64.0042 970.185 L28.3562 970.185 L28.3562 964.297 L33.8944 964.297 Q30.616 962.292 29.0564 959.491 Q27.4968 956.69 27.4968 952.839 Q27.4968 948.956 29.4702 946.25 Q31.4436 943.513 35.1993 942.208 Z" fill="#000000" fill-rule="nonzero" fill-opacity="1" /><path clip-path="url(#clip740)" d="M58.657 900.799 L77.5631 900.799 L77.5631 906.688 L28.3562 906.688 L28.3562 900.799 L33.7671 900.799 Q30.5842 898.953 29.0564 896.152 Q27.4968 893.32 27.4968 889.405 Q27.4968 882.912 32.6531 878.869 Q37.8093 874.795 46.212 874.795 Q54.6147 874.795 59.771 878.869 Q64.9272 882.912 64.9272 889.405 Q64.9272 893.32 63.3994 896.152 Q61.8398 898.953 58.657 900.799 M46.212 880.875 Q39.7508 880.875 36.0905 883.548 Q32.3984 886.19 32.3984 890.837 Q32.3984 895.484 36.0905 898.157 Q39.7508 900.799 46.212 900.799 Q52.6732 900.799 56.3653 898.157 Q60.0256 895.484 60.0256 890.837 Q60.0256 886.19 56.3653 883.548 Q52.6732 880.875 46.212 880.875 Z" fill="#000000" fill-rule="nonzero" fill-opacity="1" /><path clip-path="url(#clip740)" d="M14.479 865.088 L14.479 859.231 L64.0042 859.231 L64.0042 865.088 L14.479 865.088 Z" fill="#000000" fill-rule="nonzero" fill-opacity="1" /><path clip-path="url(#clip740)" d="M44.7161 816.485 L47.5806 816.485 L47.5806 843.412 Q53.6281 843.03 56.8109 839.784 Q59.9619 836.506 59.9619 830.681 Q59.9619 827.307 59.1344 824.156 Q58.3069 820.973 56.6518 817.854 L62.1899 817.854 Q63.5267 821.005 64.227 824.315 Q64.9272 827.625 64.9272 831.031 Q64.9272 839.561 59.9619 844.558 Q54.9967 849.523 46.5303 849.523 Q37.7774 849.523 32.6531 844.813 Q27.4968 840.07 27.4968 832.05 Q27.4968 824.856 32.1438 820.687 Q36.7589 816.485 44.7161 816.485 M42.9973 822.342 Q38.1912 822.406 35.3266 825.047 Q32.4621 827.657 32.4621 831.986 Q32.4621 836.888 35.2312 839.848 Q38.0002 842.776 43.0292 843.221 L42.9973 822.342 Z" fill="#000000" fill-rule="nonzero" fill-opacity="1" /><path clip-path="url(#clip740)" d="M33.7671 783.416 L14.479 783.416 L14.479 777.559 L64.0042 777.559 L64.0042 783.416 L58.657 783.416 Q61.8398 785.262 63.3994 788.094 Q64.9272 790.895 64.9272 794.842 Q64.9272 801.303 59.771 805.377 Q54.6147 809.42 46.212 809.42 Q37.8093 809.42 32.6531 805.377 Q27.4968 801.303 27.4968 794.842 Q27.4968 790.895 29.0564 788.094 Q30.5842 785.262 33.7671 783.416 M46.212 803.372 Q52.6732 803.372 56.3653 800.73 Q60.0256 798.057 60.0256 793.41 Q60.0256 788.763 56.3653 786.089 Q52.6732 783.416 46.212 783.416 Q39.7508 783.416 36.0905 786.089 Q32.3984 788.763 32.3984 793.41 Q32.3984 798.057 36.0905 800.73 Q39.7508 803.372 46.212 803.372 Z" fill="#000000" fill-rule="nonzero" fill-opacity="1" /><path clip-path="url(#clip740)" d="M16.4842 744.521 L16.4842 738.092 L58.5933 738.092 L58.5933 714.952 L64.0042 714.952 L64.0042 744.521 L16.4842 744.521 Z" fill="#000000" fill-rule="nonzero" fill-opacity="1" /><path clip-path="url(#clip740)" d="M58.5933 706.518 L58.5933 696.014 L22.3406 696.014 L24.6323 707.441 L18.7758 707.441 L16.4842 696.078 L16.4842 689.649 L58.5933 689.649 L58.5933 679.145 L64.0042 679.145 L64.0042 706.518 L58.5933 706.518 Z" fill="#000000" fill-rule="nonzero" fill-opacity="1" /><path clip-path="url(#clip740)" d="M16.4842 646.012 L16.4842 615.966 L21.895 615.966 L21.895 639.582 L35.9632 639.582 L35.9632 616.952 L41.3741 616.952 L41.3741 639.582 L58.5933 639.582 L58.5933 615.393 L64.0042 615.393 L64.0042 646.012 L16.4842 646.012 Z" fill="#000000" fill-rule="nonzero" fill-opacity="1" /><path clip-path="url(#clip740)" d="M33.8307 584.424 Q33.2578 585.41 33.0032 586.588 Q32.7167 587.734 32.7167 589.134 Q32.7167 594.1 35.9632 596.773 Q39.1779 599.415 45.2253 599.415 L64.0042 599.415 L64.0042 605.303 L28.3562 605.303 L28.3562 599.415 L33.8944 599.415 Q30.6479 597.569 29.0883 594.609 Q27.4968 591.649 27.4968 587.416 Q27.4968 586.811 27.5923 586.079 Q27.656 585.347 27.8151 584.455 L33.8307 584.424 Z" fill="#000000" fill-rule="nonzero" fill-opacity="1" /><path clip-path="url(#clip740)" d="M33.8307 558.77 Q33.2578 559.757 33.0032 560.934 Q32.7167 562.08 32.7167 563.48 Q32.7167 568.446 35.9632 571.119 Q39.1779 573.761 45.2253 573.761 L64.0042 573.761 L64.0042 579.649 L28.3562 579.649 L28.3562 573.761 L33.8944 573.761 Q30.6479 571.915 29.0883 568.955 Q27.4968 565.995 27.4968 561.762 Q27.4968 561.157 27.5923 560.425 Q27.656 559.693 27.8151 558.802 L33.8307 558.77 Z" fill="#000000" fill-rule="nonzero" fill-opacity="1" /><path clip-path="url(#clip740)" d="M32.4621 540.246 Q32.4621 544.956 36.1542 547.694 Q39.8145 550.431 46.212 550.431 Q52.6095 550.431 56.3017 547.725 Q59.9619 544.988 59.9619 540.246 Q59.9619 535.567 56.2698 532.83 Q52.5777 530.092 46.212 530.092 Q39.8781 530.092 36.186 532.83 Q32.4621 535.567 32.4621 540.246 M27.4968 540.246 Q27.4968 532.607 32.4621 528.246 Q37.4273 523.886 46.212 523.886 Q54.9649 523.886 59.9619 528.246 Q64.9272 532.607 64.9272 540.246 Q64.9272 547.916 59.9619 552.277 Q54.9649 556.606 46.212 556.606 Q37.4273 556.606 32.4621 552.277 Q27.4968 547.916 27.4968 540.246 Z" fill="#000000" fill-rule="nonzero" fill-opacity="1" /><path clip-path="url(#clip740)" d="M33.8307 493.521 Q33.2578 494.508 33.0032 495.686 Q32.7167 496.832 32.7167 498.232 Q32.7167 503.197 35.9632 505.871 Q39.1779 508.513 45.2253 508.513 L64.0042 508.513 L64.0042 514.401 L28.3562 514.401 L28.3562 508.513 L33.8944 508.513 Q30.6479 506.667 29.0883 503.706 Q27.4968 500.746 27.4968 496.513 Q27.4968 495.908 27.5923 495.176 Q27.656 494.444 27.8151 493.553 L33.8307 493.521 Z" fill="#000000" fill-rule="nonzero" fill-opacity="1" /><path clip-path="url(#clip740)" d="M477.489 14.0809 L477.489 22.0612 Q472.831 19.8332 468.699 18.7395 Q464.567 17.6457 460.719 17.6457 Q454.035 17.6457 450.389 20.2383 Q446.784 22.8309 446.784 27.611 Q446.784 31.6214 449.174 33.6873 Q451.604 35.7128 458.329 36.9686 L463.271 37.9813 Q472.426 39.7232 476.76 44.1387 Q481.135 48.5136 481.135 55.8863 Q481.135 64.6767 475.221 69.2137 Q469.347 73.7508 457.964 73.7508 Q453.67 73.7508 448.809 72.7785 Q443.988 71.8063 438.803 69.9024 L438.803 61.4765 Q443.786 64.2716 448.566 65.6895 Q453.346 67.1073 457.964 67.1073 Q464.972 67.1073 468.78 64.3527 Q472.588 61.598 472.588 56.4939 Q472.588 52.0379 469.833 49.5264 Q467.119 47.0148 460.881 45.759 L455.898 44.7868 Q446.743 42.9639 442.652 39.075 Q438.56 35.1862 438.56 28.2591 Q438.56 20.2383 444.191 15.6203 Q449.862 11.0023 459.787 11.0023 Q464.04 11.0023 468.456 11.7719 Q472.871 12.5416 477.489 14.0809 Z" fill="#000000" fill-rule="nonzero" fill-opacity="1" /><path clip-path="url(#clip740)" d="M514.191 49.7694 Q505.157 49.7694 501.673 51.8354 Q498.19 53.9013 498.19 58.8839 Q498.19 62.8538 500.782 65.2034 Q503.415 67.5124 507.912 67.5124 Q514.11 67.5124 517.836 63.1374 Q521.604 58.7219 521.604 51.4303 L521.604 49.7694 L514.191 49.7694 M529.057 46.6907 L529.057 72.576 L521.604 72.576 L521.604 65.6895 Q519.052 69.8214 515.244 71.8063 Q511.436 73.7508 505.927 73.7508 Q498.959 73.7508 494.827 69.8619 Q490.736 65.9325 490.736 59.3701 Q490.736 51.7138 495.84 47.825 Q500.985 43.9361 511.152 43.9361 L521.604 43.9361 L521.604 43.2069 Q521.604 38.0623 518.201 35.2672 Q514.839 32.4315 508.722 32.4315 Q504.833 32.4315 501.147 33.3632 Q497.46 34.295 494.058 36.1584 L494.058 29.2718 Q498.149 27.692 501.997 26.9223 Q505.846 26.1121 509.492 26.1121 Q519.335 26.1121 524.196 31.2163 Q529.057 36.3204 529.057 46.6907 Z" fill="#000000" fill-rule="nonzero" fill-opacity="1" /><path clip-path="url(#clip740)" d="M579.734 35.9153 Q582.529 30.8922 586.418 28.5022 Q590.307 26.1121 595.573 26.1121 Q602.662 26.1121 606.511 31.0947 Q610.359 36.0368 610.359 45.1919 L610.359 72.576 L602.865 72.576 L602.865 45.4349 Q602.865 38.913 600.556 35.7533 Q598.247 32.5936 593.507 32.5936 Q587.715 32.5936 584.352 36.4419 Q580.99 40.2903 580.99 46.9338 L580.99 72.576 L573.496 72.576 L573.496 45.4349 Q573.496 38.8725 571.187 35.7533 Q568.878 32.5936 564.057 32.5936 Q558.346 32.5936 554.983 36.4824 Q551.621 40.3308 551.621 46.9338 L551.621 72.576 L544.127 72.576 L544.127 27.2059 L551.621 27.2059 L551.621 34.2544 Q554.173 30.082 557.738 28.0971 Q561.303 26.1121 566.204 26.1121 Q571.146 26.1121 574.59 28.6237 Q578.073 31.1352 579.734 35.9153 Z" fill="#000000" fill-rule="nonzero" fill-opacity="1" /><path clip-path="url(#clip740)" d="M632.437 65.7705 L632.437 89.8329 L624.942 89.8329 L624.942 27.2059 L632.437 27.2059 L632.437 34.0924 Q634.786 30.0415 638.351 28.0971 Q641.956 26.1121 646.939 26.1121 Q655.203 26.1121 660.347 32.6746 Q665.532 39.2371 665.532 49.9314 Q665.532 60.6258 660.347 67.1883 Q655.203 73.7508 646.939 73.7508 Q641.956 73.7508 638.351 71.8063 Q634.786 69.8214 632.437 65.7705 M657.795 49.9314 Q657.795 41.7081 654.392 37.0496 Q651.03 32.3505 645.116 32.3505 Q639.202 32.3505 635.799 37.0496 Q632.437 41.7081 632.437 49.9314 Q632.437 58.1548 635.799 62.8538 Q639.202 67.5124 645.116 67.5124 Q651.03 67.5124 654.392 62.8538 Q657.795 58.1548 657.795 49.9314 Z" fill="#000000" fill-rule="nonzero" fill-opacity="1" /><path clip-path="url(#clip740)" d="M677.888 9.54393 L685.341 9.54393 L685.341 72.576 L677.888 72.576 L677.888 9.54393 Z" fill="#000000" fill-rule="nonzero" fill-opacity="1" /><path clip-path="url(#clip740)" d="M739.745 48.0275 L739.745 51.6733 L705.474 51.6733 Q705.96 59.3701 710.092 63.421 Q714.265 67.4314 721.678 67.4314 Q725.972 67.4314 729.982 66.3781 Q734.033 65.3249 738.003 63.2184 L738.003 70.267 Q733.993 71.9684 729.78 72.8596 Q725.567 73.7508 721.232 73.7508 Q710.376 73.7508 704.016 67.4314 Q697.697 61.1119 697.697 50.3365 Q697.697 39.1965 703.692 32.6746 Q709.728 26.1121 719.936 26.1121 Q729.091 26.1121 734.398 32.0264 Q739.745 37.9003 739.745 48.0275 M732.291 45.84 Q732.21 39.7232 728.848 36.0774 Q725.526 32.4315 720.017 32.4315 Q713.779 32.4315 710.011 35.9558 Q706.285 39.4801 705.717 45.8805 L732.291 45.84 Z" fill="#000000" fill-rule="nonzero" fill-opacity="1" /><path clip-path="url(#clip740)" d="M781.834 34.0924 L781.834 9.54393 L789.288 9.54393 L789.288 72.576 L781.834 72.576 L781.834 65.7705 Q779.484 69.8214 775.879 71.8063 Q772.314 73.7508 767.291 73.7508 Q759.068 73.7508 753.883 67.1883 Q748.738 60.6258 748.738 49.9314 Q748.738 39.2371 753.883 32.6746 Q759.068 26.1121 767.291 26.1121 Q772.314 26.1121 775.879 28.0971 Q779.484 30.0415 781.834 34.0924 M756.435 49.9314 Q756.435 58.1548 759.797 62.8538 Q763.2 67.5124 769.114 67.5124 Q775.028 67.5124 778.431 62.8538 Q781.834 58.1548 781.834 49.9314 Q781.834 41.7081 778.431 37.0496 Q775.028 32.3505 769.114 32.3505 Q763.2 32.3505 759.797 37.0496 Q756.435 41.7081 756.435 49.9314 Z" fill="#000000" fill-rule="nonzero" fill-opacity="1" /><path clip-path="url(#clip740)" d="M831.336 12.096 L839.519 12.096 L839.519 65.6895 L868.969 65.6895 L868.969 72.576 L831.336 72.576 L831.336 12.096 Z" fill="#000000" fill-rule="nonzero" fill-opacity="1" /><path clip-path="url(#clip740)" d="M879.704 65.6895 L893.072 65.6895 L893.072 19.5497 L878.529 22.4663 L878.529 15.0127 L892.991 12.096 L901.174 12.096 L901.174 65.6895 L914.542 65.6895 L914.542 72.576 L879.704 72.576 L879.704 65.6895 Z" fill="#000000" fill-rule="nonzero" fill-opacity="1" /><path clip-path="url(#clip740)" d="M956.711 12.096 L994.952 12.096 L994.952 18.9825 L964.894 18.9825 L964.894 36.8875 L993.696 36.8875 L993.696 43.7741 L964.894 43.7741 L964.894 65.6895 L995.681 65.6895 L995.681 72.576 L956.711 72.576 L956.711 12.096 Z" fill="#000000" fill-rule="nonzero" fill-opacity="1" /><path clip-path="url(#clip740)" d="M1035.1 34.1734 Q1033.84 33.4443 1032.34 33.1202 Q1030.88 32.7556 1029.1 32.7556 Q1022.78 32.7556 1019.38 36.8875 Q1016.02 40.9789 1016.02 48.6757 L1016.02 72.576 L1008.52 72.576 L1008.52 27.2059 L1016.02 27.2059 L1016.02 34.2544 Q1018.37 30.1225 1022.13 28.1376 Q1025.9 26.1121 1031.29 26.1121 Q1032.06 26.1121 1032.99 26.2337 Q1033.92 26.3147 1035.06 26.5172 L1035.1 34.1734 Z" fill="#000000" fill-rule="nonzero" fill-opacity="1" /><path clip-path="url(#clip740)" d="M1067.75 34.1734 Q1066.49 33.4443 1064.99 33.1202 Q1063.53 32.7556 1061.75 32.7556 Q1055.43 32.7556 1052.03 36.8875 Q1048.67 40.9789 1048.67 48.6757 L1048.67 72.576 L1041.17 72.576 L1041.17 27.2059 L1048.67 27.2059 L1048.67 34.2544 Q1051.02 30.1225 1054.78 28.1376 Q1058.55 26.1121 1063.94 26.1121 Q1064.71 26.1121 1065.64 26.2337 Q1066.57 26.3147 1067.71 26.5172 L1067.75 34.1734 Z" fill="#000000" fill-rule="nonzero" fill-opacity="1" /><path clip-path="url(#clip740)" d="M1091.32 32.4315 Q1085.33 32.4315 1081.84 37.1306 Q1078.36 41.7891 1078.36 49.9314 Q1078.36 58.0738 1081.8 62.7728 Q1085.29 67.4314 1091.32 67.4314 Q1097.28 67.4314 1100.76 62.7323 Q1104.25 58.0333 1104.25 49.9314 Q1104.25 41.8701 1100.76 37.1711 Q1097.28 32.4315 1091.32 32.4315 M1091.32 26.1121 Q1101.05 26.1121 1106.59 32.4315 Q1112.14 38.7509 1112.14 49.9314 Q1112.14 61.0714 1106.59 67.4314 Q1101.05 73.7508 1091.32 73.7508 Q1081.56 73.7508 1076.01 67.4314 Q1070.5 61.0714 1070.5 49.9314 Q1070.5 38.7509 1076.01 32.4315 Q1081.56 26.1121 1091.32 26.1121 Z" fill="#000000" fill-rule="nonzero" fill-opacity="1" /><path clip-path="url(#clip740)" d="M1150.79 34.1734 Q1149.53 33.4443 1148.04 33.1202 Q1146.58 32.7556 1144.79 32.7556 Q1138.48 32.7556 1135.07 36.8875 Q1131.71 40.9789 1131.71 48.6757 L1131.71 72.576 L1124.22 72.576 L1124.22 27.2059 L1131.71 27.2059 L1131.71 34.2544 Q1134.06 30.1225 1137.83 28.1376 Q1141.59 26.1121 1146.98 26.1121 Q1147.75 26.1121 1148.68 26.2337 Q1149.62 26.3147 1150.75 26.5172 L1150.79 34.1734 Z" fill="#000000" fill-rule="nonzero" fill-opacity="1" /><path clip-path="url(#clip740)" d="M1179.63 27.2059 L1187.53 27.2059 L1201.71 65.2844 L1215.89 27.2059 L1223.79 27.2059 L1206.77 72.576 L1196.65 72.576 L1179.63 27.2059 Z" fill="#000000" fill-rule="nonzero" fill-opacity="1" /><path clip-path="url(#clip740)" d="M1263 28.5427 L1263 35.5912 Q1259.84 33.9709 1256.44 33.1607 Q1253.04 32.3505 1249.39 32.3505 Q1243.84 32.3505 1241.04 34.0519 Q1238.29 35.7533 1238.29 39.156 Q1238.29 41.7486 1240.27 43.2475 Q1242.26 44.7058 1248.26 46.0426 L1250.81 46.6097 Q1258.75 48.3111 1262.07 51.4303 Q1265.43 54.509 1265.43 60.0587 Q1265.43 66.3781 1260.41 70.0644 Q1255.43 73.7508 1246.68 73.7508 Q1243.03 73.7508 1239.06 73.0216 Q1235.13 72.3329 1230.76 70.9151 L1230.76 63.2184 Q1234.89 65.3654 1238.9 66.4591 Q1242.91 67.5124 1246.84 67.5124 Q1252.1 67.5124 1254.94 65.73 Q1257.77 63.9071 1257.77 60.6258 Q1257.77 57.5877 1255.71 55.9673 Q1253.68 54.3469 1246.76 52.8481 L1244.16 52.2405 Q1237.24 50.7821 1234.16 47.7845 Q1231.08 44.7463 1231.08 39.4801 Q1231.08 33.0797 1235.62 29.5959 Q1240.15 26.1121 1248.5 26.1121 Q1252.63 26.1121 1256.28 26.7198 Q1259.92 27.3274 1263 28.5427 Z" fill="#000000" fill-rule="nonzero" fill-opacity="1" /><path clip-path="url(#clip740)" d="M1304 12.096 L1316.19 12.096 L1331.62 53.2532 L1347.14 12.096 L1359.33 12.096 L1359.33 72.576 L1351.35 72.576 L1351.35 19.4686 L1335.75 60.9499 L1327.53 60.9499 L1311.94 19.4686 L1311.94 72.576 L1304 72.576 L1304 12.096 Z" fill="#000000" fill-rule="nonzero" fill-opacity="1" /><path clip-path="url(#clip740)" d="M1395.87 49.7694 Q1386.84 49.7694 1383.35 51.8354 Q1379.87 53.9013 1379.87 58.8839 Q1379.87 62.8538 1382.46 65.2034 Q1385.09 67.5124 1389.59 67.5124 Q1395.79 67.5124 1399.52 63.1374 Q1403.28 58.7219 1403.28 51.4303 L1403.28 49.7694 L1395.87 49.7694 M1410.74 46.6907 L1410.74 72.576 L1403.28 72.576 L1403.28 65.6895 Q1400.73 69.8214 1396.92 71.8063 Q1393.12 73.7508 1387.61 73.7508 Q1380.64 73.7508 1376.51 69.8619 Q1372.42 65.9325 1372.42 59.3701 Q1372.42 51.7138 1377.52 47.825 Q1382.66 43.9361 1392.83 43.9361 L1403.28 43.9361 L1403.28 43.2069 Q1403.28 38.0623 1399.88 35.2672 Q1396.52 32.4315 1390.4 32.4315 Q1386.51 32.4315 1382.83 33.3632 Q1379.14 34.295 1375.74 36.1584 L1375.74 29.2718 Q1379.83 27.692 1383.68 26.9223 Q1387.53 26.1121 1391.17 26.1121 Q1401.01 26.1121 1405.88 31.2163 Q1410.74 36.3204 1410.74 46.6907 Z" fill="#000000" fill-rule="nonzero" fill-opacity="1" /><path clip-path="url(#clip740)" d="M1463.8 27.2059 L1447.4 49.2833 L1464.65 72.576 L1455.86 72.576 L1442.66 54.752 L1429.45 72.576 L1420.66 72.576 L1438.28 48.8377 L1422.16 27.2059 L1430.95 27.2059 L1442.98 43.369 L1455.01 27.2059 L1463.8 27.2059 Z" fill="#000000" fill-rule="nonzero" fill-opacity="1" /><path clip-path="url(#clip740)" d="M1510.06 43.6931 L1510.06 65.8515 L1523.19 65.8515 Q1529.79 65.8515 1532.95 63.1374 Q1536.15 60.3828 1536.15 54.752 Q1536.15 49.0808 1532.95 46.4072 Q1529.79 43.6931 1523.19 43.6931 L1510.06 43.6931 M1510.06 18.8205 L1510.06 37.0496 L1522.18 37.0496 Q1528.17 37.0496 1531.09 34.8216 Q1534.05 32.5531 1534.05 27.935 Q1534.05 23.3575 1531.09 21.089 Q1528.17 18.8205 1522.18 18.8205 L1510.06 18.8205 M1501.88 12.096 L1522.78 12.096 Q1532.14 12.096 1537.21 15.9849 Q1542.27 19.8737 1542.27 27.0438 Q1542.27 32.5936 1539.68 35.8748 Q1537.08 39.156 1532.06 39.9662 Q1538.1 41.2625 1541.42 45.3944 Q1544.78 49.4858 1544.78 55.6432 Q1544.78 63.745 1539.27 68.1605 Q1533.76 72.576 1523.59 72.576 L1501.88 72.576 L1501.88 12.096 Z" fill="#000000" fill-rule="nonzero" fill-opacity="1" /><path clip-path="url(#clip740)" d="M1576.05 32.4315 Q1570.06 32.4315 1566.58 37.1306 Q1563.09 41.7891 1563.09 49.9314 Q1563.09 58.0738 1566.53 62.7728 Q1570.02 67.4314 1576.05 67.4314 Q1582.01 67.4314 1585.49 62.7323 Q1588.98 58.0333 1588.98 49.9314 Q1588.98 41.8701 1585.49 37.1711 Q1582.01 32.4315 1576.05 32.4315 M1576.05 26.1121 Q1585.78 26.1121 1591.33 32.4315 Q1596.88 38.7509 1596.88 49.9314 Q1596.88 61.0714 1591.33 67.4314 Q1585.78 73.7508 1576.05 73.7508 Q1566.29 73.7508 1560.74 67.4314 Q1555.23 61.0714 1555.23 49.9314 Q1555.23 38.7509 1560.74 32.4315 Q1566.29 26.1121 1576.05 26.1121 Z" fill="#000000" fill-rule="nonzero" fill-opacity="1" /><path clip-path="url(#clip740)" d="M1646.95 45.1919 L1646.95 72.576 L1639.49 72.576 L1639.49 45.4349 Q1639.49 38.994 1636.98 35.7938 Q1634.47 32.5936 1629.45 32.5936 Q1623.41 32.5936 1619.93 36.4419 Q1616.44 40.2903 1616.44 46.9338 L1616.44 72.576 L1608.95 72.576 L1608.95 27.2059 L1616.44 27.2059 L1616.44 34.2544 Q1619.12 30.163 1622.72 28.1376 Q1626.37 26.1121 1631.11 26.1121 Q1638.92 26.1121 1642.93 30.9732 Q1646.95 35.7938 1646.95 45.1919 Z" fill="#000000" fill-rule="nonzero" fill-opacity="1" /><path clip-path="url(#clip740)" d="M1691.67 34.0924 L1691.67 9.54393 L1699.12 9.54393 L1699.12 72.576 L1691.67 72.576 L1691.67 65.7705 Q1689.32 69.8214 1685.71 71.8063 Q1682.15 73.7508 1677.12 73.7508 Q1668.9 73.7508 1663.72 67.1883 Q1658.57 60.6258 1658.57 49.9314 Q1658.57 39.2371 1663.72 32.6746 Q1668.9 26.1121 1677.12 26.1121 Q1682.15 26.1121 1685.71 28.0971 Q1689.32 30.0415 1691.67 34.0924 M1666.27 49.9314 Q1666.27 58.1548 1669.63 62.8538 Q1673.03 67.5124 1678.95 67.5124 Q1684.86 67.5124 1688.26 62.8538 Q1691.67 58.1548 1691.67 49.9314 Q1691.67 41.7081 1688.26 37.0496 Q1684.86 32.3505 1678.95 32.3505 Q1673.03 32.3505 1669.63 37.0496 Q1666.27 41.7081 1666.27 49.9314 Z" fill="#000000" fill-rule="nonzero" fill-opacity="1" /><path clip-path="url(#clip740)" d="M1749.35 18.8205 L1749.35 65.8515 L1759.24 65.8515 Q1771.75 65.8515 1777.55 60.1802 Q1783.38 54.509 1783.38 42.2752 Q1783.38 30.1225 1777.55 24.4918 Q1771.75 18.8205 1759.24 18.8205 L1749.35 18.8205 M1741.17 12.096 L1757.98 12.096 Q1775.56 12.096 1783.78 19.4281 Q1792.01 26.7198 1792.01 42.2752 Q1792.01 57.9117 1783.74 65.2439 Q1775.48 72.576 1757.98 72.576 L1741.17 72.576 L1741.17 12.096 Z" fill="#000000" fill-rule="nonzero" fill-opacity="1" /><path clip-path="url(#clip740)" d="M1804.73 27.2059 L1812.18 27.2059 L1812.18 72.576 L1804.73 72.576 L1804.73 27.2059 M1804.73 9.54393 L1812.18 9.54393 L1812.18 18.9825 L1804.73 18.9825 L1804.73 9.54393 Z" fill="#000000" fill-rule="nonzero" fill-opacity="1" /><path clip-path="url(#clip740)" d="M1863.1 35.9153 Q1865.9 30.8922 1869.79 28.5022 Q1873.67 26.1121 1878.94 26.1121 Q1886.03 26.1121 1889.88 31.0947 Q1893.73 36.0368 1893.73 45.1919 L1893.73 72.576 L1886.23 72.576 L1886.23 45.4349 Q1886.23 38.913 1883.92 35.7533 Q1881.61 32.5936 1876.87 32.5936 Q1871.08 32.5936 1867.72 36.4419 Q1864.36 40.2903 1864.36 46.9338 L1864.36 72.576 L1856.86 72.576 L1856.86 45.4349 Q1856.86 38.8725 1854.55 35.7533 Q1852.24 32.5936 1847.42 32.5936 Q1841.71 32.5936 1838.35 36.4824 Q1834.99 40.3308 1834.99 46.9338 L1834.99 72.576 L1827.49 72.576 L1827.49 27.2059 L1834.99 27.2059 L1834.99 34.2544 Q1837.54 30.082 1841.1 28.0971 Q1844.67 26.1121 1849.57 26.1121 Q1854.51 26.1121 1857.96 28.6237 Q1861.44 31.1352 1863.1 35.9153 Z" fill="#000000" fill-rule="nonzero" fill-opacity="1" /><path clip-path="url(#clip740)" d="M1947.4 48.0275 L1947.4 51.6733 L1913.13 51.6733 Q1913.62 59.3701 1917.75 63.421 Q1921.92 67.4314 1929.33 67.4314 Q1933.63 67.4314 1937.64 66.3781 Q1941.69 65.3249 1945.66 63.2184 L1945.66 70.267 Q1941.65 71.9684 1937.44 72.8596 Q1933.22 73.7508 1928.89 73.7508 Q1918.03 73.7508 1911.67 67.4314 Q1905.35 61.1119 1905.35 50.3365 Q1905.35 39.1965 1911.35 32.6746 Q1917.38 26.1121 1927.59 26.1121 Q1936.75 26.1121 1942.05 32.0264 Q1947.4 37.9003 1947.4 48.0275 M1939.95 45.84 Q1939.87 39.7232 1936.5 36.0774 Q1933.18 32.4315 1927.67 32.4315 Q1921.43 32.4315 1917.67 35.9558 Q1913.94 39.4801 1913.37 45.8805 L1939.95 45.84 Z" fill="#000000" fill-rule="nonzero" fill-opacity="1" /><path clip-path="url(#clip740)" d="M1997.35 45.1919 L1997.35 72.576 L1989.89 72.576 L1989.89 45.4349 Q1989.89 38.994 1987.38 35.7938 Q1984.87 32.5936 1979.85 32.5936 Q1973.81 32.5936 1970.33 36.4419 Q1966.84 40.2903 1966.84 46.9338 L1966.84 72.576 L1959.35 72.576 L1959.35 27.2059 L1966.84 27.2059 L1966.84 34.2544 Q1969.52 30.163 1973.12 28.1376 Q1976.77 26.1121 1981.51 26.1121 Q1989.33 26.1121 1993.34 30.9732 Q1997.35 35.7938 1997.35 45.1919 Z" fill="#000000" fill-rule="nonzero" fill-opacity="1" /><path clip-path="url(#clip740)" d="M2041.14 28.5427 L2041.14 35.5912 Q2037.98 33.9709 2034.58 33.1607 Q2031.17 32.3505 2027.53 32.3505 Q2021.98 32.3505 2019.18 34.0519 Q2016.43 35.7533 2016.43 39.156 Q2016.43 41.7486 2018.41 43.2475 Q2020.4 44.7058 2026.39 46.0426 L2028.95 46.6097 Q2036.89 48.3111 2040.21 51.4303 Q2043.57 54.509 2043.57 60.0587 Q2043.57 66.3781 2038.55 70.0644 Q2033.56 73.7508 2024.81 73.7508 Q2021.17 73.7508 2017.2 73.0216 Q2013.27 72.3329 2008.89 70.9151 L2008.89 63.2184 Q2013.03 65.3654 2017.04 66.4591 Q2021.05 67.5124 2024.98 67.5124 Q2030.24 67.5124 2033.08 65.73 Q2035.91 63.9071 2035.91 60.6258 Q2035.91 57.5877 2033.85 55.9673 Q2031.82 54.3469 2024.89 52.8481 L2022.3 52.2405 Q2015.37 50.7821 2012.3 47.7845 Q2009.22 44.7463 2009.22 39.4801 Q2009.22 33.0797 2013.75 29.5959 Q2018.29 26.1121 2026.64 26.1121 Q2030.77 26.1121 2034.41 26.7198 Q2038.06 27.3274 2041.14 28.5427 Z" fill="#000000" fill-rule="nonzero" fill-opacity="1" /><path clip-path="url(#clip740)" d="M2055.44 27.2059 L2062.89 27.2059 L2062.89 72.576 L2055.44 72.576 L2055.44 27.2059 M2055.44 9.54393 L2062.89 9.54393 L2062.89 18.9825 L2055.44 18.9825 L2055.44 9.54393 Z" fill="#000000" fill-rule="nonzero" fill-opacity="1" /><path clip-path="url(#clip740)" d="M2096.07 32.4315 Q2090.07 32.4315 2086.59 37.1306 Q2083.11 41.7891 2083.11 49.9314 Q2083.11 58.0738 2086.55 62.7728 Q2090.03 67.4314 2096.07 67.4314 Q2102.02 67.4314 2105.51 62.7323 Q2108.99 58.0333 2108.99 49.9314 Q2108.99 41.8701 2105.51 37.1711 Q2102.02 32.4315 2096.07 32.4315 M2096.07 26.1121 Q2105.79 26.1121 2111.34 32.4315 Q2116.89 38.7509 2116.89 49.9314 Q2116.89 61.0714 2111.34 67.4314 Q2105.79 73.7508 2096.07 73.7508 Q2086.31 73.7508 2080.76 67.4314 Q2075.25 61.0714 2075.25 49.9314 Q2075.25 38.7509 2080.76 32.4315 Q2086.31 26.1121 2096.07 26.1121 Z" fill="#000000" fill-rule="nonzero" fill-opacity="1" /><path clip-path="url(#clip740)" d="M2166.96 45.1919 L2166.96 72.576 L2159.51 72.576 L2159.51 45.4349 Q2159.51 38.994 2156.99 35.7938 Q2154.48 32.5936 2149.46 32.5936 Q2143.42 32.5936 2139.94 36.4419 Q2136.46 40.2903 2136.46 46.9338 L2136.46 72.576 L2128.96 72.576 L2128.96 27.2059 L2136.46 27.2059 L2136.46 34.2544 Q2139.13 30.163 2142.74 28.1376 Q2146.38 26.1121 2151.12 26.1121 Q2158.94 26.1121 2162.95 30.9732 Q2166.96 35.7938 2166.96 45.1919 Z" fill="#000000" fill-rule="nonzero" fill-opacity="1" /><polyline clip-path="url(#clip742)" style="stroke:#0000ff; stroke-linecap:round; stroke-linejoin:round; stroke-width:4; stroke-opacity:1; fill:none" points="312.198,341.142 532.323,559.002 752.448,642.603 972.573,703.614 1192.7,757.73 1412.82,763.041 1632.95,824.929 1853.07,832.18 2073.2,875.794 2293.32,931.58 "/>
<path clip-path="url(#clip742)" d="M312.198 357.142 L300.886 352.454 L296.198 341.142 L300.886 329.83 L312.198 325.142 L323.51 329.83 L328.198 341.142 L323.51 352.454 Z" fill="#0000ff" fill-rule="evenodd" fill-opacity="1" stroke="#000000" stroke-opacity="1" stroke-width="3.2"/>
<path clip-path="url(#clip742)" d="M532.323 575.002 L521.011 570.314 L516.323 559.002 L521.011 547.69 L532.323 543.002 L543.635 547.69 L548.323 559.002 L543.635 570.314 Z" fill="#0000ff" fill-rule="evenodd" fill-opacity="1" stroke="#000000" stroke-opacity="1" stroke-width="3.2"/>
<path clip-path="url(#clip742)" d="M752.448 658.603 L741.136 653.915 L736.448 642.603 L741.136 631.291 L752.448 626.603 L763.76 631.291 L768.448 642.603 L763.76 653.915 Z" fill="#0000ff" fill-rule="evenodd" fill-opacity="1" stroke="#000000" stroke-opacity="1" stroke-width="3.2"/>
<path clip-path="url(#clip742)" d="M972.573 719.614 L961.261 714.926 L956.573 703.614 L961.261 692.302 L972.573 687.614 L983.885 692.302 L988.573 703.614 L983.885 714.926 Z" fill="#0000ff" fill-rule="evenodd" fill-opacity="1" stroke="#000000" stroke-opacity="1" stroke-width="3.2"/>
<path clip-path="url(#clip742)" d="M1192.7 773.73 L1181.39 769.042 L1176.7 757.73 L1181.39 746.418 L1192.7 741.73 L1204.01 746.418 L1208.7 757.73 L1204.01 769.042 Z" fill="#0000ff" fill-rule="evenodd" fill-opacity="1" stroke="#000000" stroke-opacity="1" stroke-width="3.2"/>
<path clip-path="url(#clip742)" d="M1412.82 779.041 L1401.51 774.353 L1396.82 763.041 L1401.51 751.729 L1412.82 747.041 L1424.13 751.729 L1428.82 763.041 L1424.13 774.353 Z" fill="#0000ff" fill-rule="evenodd" fill-opacity="1" stroke="#000000" stroke-opacity="1" stroke-width="3.2"/>
<path clip-path="url(#clip742)" d="M1632.95 840.929 L1621.64 836.241 L1616.95 824.929 L1621.64 813.617 L1632.95 808.929 L1644.26 813.617 L1648.95 824.929 L1644.26 836.241 Z" fill="#0000ff" fill-rule="evenodd" fill-opacity="1" stroke="#000000" stroke-opacity="1" stroke-width="3.2"/>
<path clip-path="url(#clip742)" d="M1853.07 848.18 L1841.76 843.492 L1837.07 832.18 L1841.76 820.868 L1853.07 816.18 L1864.38 820.868 L1869.07 832.18 L1864.38 843.492 Z" fill="#0000ff" fill-rule="evenodd" fill-opacity="1" stroke="#000000" stroke-opacity="1" stroke-width="3.2"/>
<path clip-path="url(#clip742)" d="M2073.2 891.794 L2061.89 887.106 L2057.2 875.794 L2061.89 864.482 L2073.2 859.794 L2084.51 864.482 L2089.2 875.794 L2084.51 887.106 Z" fill="#0000ff" fill-rule="evenodd" fill-opacity="1" stroke="#000000" stroke-opacity="1" stroke-width="3.2"/>
<path clip-path="url(#clip742)" d="M2293.32 947.58 L2282.01 942.892 L2277.32 931.58 L2282.01 920.268 L2293.32 915.58 L2304.63 920.268 L2309.32 931.58 L2304.63 942.892 Z" fill="#0000ff" fill-rule="evenodd" fill-opacity="1" stroke="#000000" stroke-opacity="1" stroke-width="3.2"/>
<polyline clip-path="url(#clip742)" style="stroke:#0000ff; stroke-linecap:round; stroke-linejoin:round; stroke-width:4; stroke-opacity:1; fill:none" points="312.198,329.545 532.323,539.596 752.448,641.437 972.573,703.556 1192.7,790.514 1412.82,927.968 1632.95,821.743 1853.07,847.915 2073.2,869.314 2293.32,907.08 "/>
<path clip-path="url(#clip742)" d="M312.198 313.545 L308.438 324.361 L296.982 324.601 L306.118 331.529 L302.79 342.489 L312.198 335.945 L321.606 342.489 L318.278 331.529 L327.414 324.601 L315.958 324.361 L312.198 313.545 Z" fill="#0000ff" fill-rule="evenodd" fill-opacity="1" stroke="#000000" stroke-opacity="1" stroke-width="3.2"/>
<path clip-path="url(#clip742)" d="M532.323 523.596 L528.563 534.412 L517.107 534.652 L526.243 541.58 L522.915 552.54 L532.323 545.996 L541.731 552.54 L538.403 541.58 L547.539 534.652 L536.083 534.412 L532.323 523.596 Z" fill="#0000ff" fill-rule="evenodd" fill-opacity="1" stroke="#000000" stroke-opacity="1" stroke-width="3.2"/>
<path clip-path="url(#clip742)" d="M752.448 625.437 L748.688 636.253 L737.232 636.493 L746.368 643.421 L743.04 654.381 L752.448 647.837 L761.856 654.381 L758.528 643.421 L767.664 636.493 L756.208 636.253 L752.448 625.437 Z" fill="#0000ff" fill-rule="evenodd" fill-opacity="1" stroke="#000000" stroke-opacity="1" stroke-width="3.2"/>
<path clip-path="url(#clip742)" d="M972.573 687.556 L968.813 698.372 L957.357 698.612 L966.493 705.54 L963.165 716.5 L972.573 709.956 L981.981 716.5 L978.653 705.54 L987.789 698.612 L976.333 698.372 L972.573 687.556 Z" fill="#0000ff" fill-rule="evenodd" fill-opacity="1" stroke="#000000" stroke-opacity="1" stroke-width="3.2"/>
<path clip-path="url(#clip742)" d="M1192.7 774.514 L1188.94 785.33 L1177.48 785.57 L1186.62 792.498 L1183.29 803.458 L1192.7 796.914 L1202.11 803.458 L1198.78 792.498 L1207.91 785.57 L1196.46 785.33 L1192.7 774.514 Z" fill="#0000ff" fill-rule="evenodd" fill-opacity="1" stroke="#000000" stroke-opacity="1" stroke-width="3.2"/>
<path clip-path="url(#clip742)" d="M1412.82 911.968 L1409.06 922.784 L1397.61 923.024 L1406.74 929.952 L1403.41 940.912 L1412.82 934.368 L1422.23 940.912 L1418.9 929.952 L1428.04 923.024 L1416.58 922.784 L1412.82 911.968 Z" fill="#0000ff" fill-rule="evenodd" fill-opacity="1" stroke="#000000" stroke-opacity="1" stroke-width="3.2"/>
<path clip-path="url(#clip742)" d="M1632.95 805.743 L1629.19 816.559 L1617.73 816.799 L1626.87 823.727 L1623.54 834.687 L1632.95 828.143 L1642.36 834.687 L1639.03 823.727 L1648.16 816.799 L1636.71 816.559 L1632.95 805.743 Z" fill="#0000ff" fill-rule="evenodd" fill-opacity="1" stroke="#000000" stroke-opacity="1" stroke-width="3.2"/>
<path clip-path="url(#clip742)" d="M1853.07 831.915 L1849.31 842.731 L1837.86 842.971 L1846.99 849.899 L1843.66 860.859 L1853.07 854.315 L1862.48 860.859 L1859.15 849.899 L1868.29 842.971 L1856.83 842.731 L1853.07 831.915 Z" fill="#0000ff" fill-rule="evenodd" fill-opacity="1" stroke="#000000" stroke-opacity="1" stroke-width="3.2"/>
<path clip-path="url(#clip742)" d="M2073.2 853.314 L2069.44 864.13 L2057.98 864.37 L2067.12 871.298 L2063.79 882.258 L2073.2 875.714 L2082.61 882.258 L2079.28 871.298 L2088.41 864.37 L2076.96 864.13 L2073.2 853.314 Z" fill="#0000ff" fill-rule="evenodd" fill-opacity="1" stroke="#000000" stroke-opacity="1" stroke-width="3.2"/>
<path clip-path="url(#clip742)" d="M2293.32 891.08 L2289.56 901.896 L2278.11 902.136 L2287.24 909.064 L2283.91 920.024 L2293.32 913.48 L2302.73 920.024 L2299.4 909.064 L2308.54 902.136 L2297.08 901.896 L2293.32 891.08 Z" fill="#0000ff" fill-rule="evenodd" fill-opacity="1" stroke="#000000" stroke-opacity="1" stroke-width="3.2"/>
<polyline clip-path="url(#clip742)" style="stroke:#ff0000; stroke-linecap:round; stroke-linejoin:round; stroke-width:4; stroke-opacity:1; fill:none" points="312.198,162.102 532.323,251.941 752.448,364.598 972.573,486.584 1192.7,619.436 1412.82,755.282 1632.95,913.959 1853.07,1065.66 2073.2,1233.38 2293.32,1383.69 "/>
<path clip-path="url(#clip742)" d="M312.198 178.102 L300.886 173.414 L296.198 162.102 L300.886 150.79 L312.198 146.102 L323.51 150.79 L328.198 162.102 L323.51 173.414 Z" fill="#ff0000" fill-rule="evenodd" fill-opacity="1" stroke="#000000" stroke-opacity="1" stroke-width="3.2"/>
<path clip-path="url(#clip742)" d="M532.323 267.941 L521.011 263.253 L516.323 251.941 L521.011 240.629 L532.323 235.941 L543.635 240.629 L548.323 251.941 L543.635 263.253 Z" fill="#ff0000" fill-rule="evenodd" fill-opacity="1" stroke="#000000" stroke-opacity="1" stroke-width="3.2"/>
<path clip-path="url(#clip742)" d="M752.448 380.598 L741.136 375.91 L736.448 364.598 L741.136 353.286 L752.448 348.598 L763.76 353.286 L768.448 364.598 L763.76 375.91 Z" fill="#ff0000" fill-rule="evenodd" fill-opacity="1" stroke="#000000" stroke-opacity="1" stroke-width="3.2"/>
<path clip-path="url(#clip742)" d="M972.573 502.584 L961.261 497.896 L956.573 486.584 L961.261 475.272 L972.573 470.584 L983.885 475.272 L988.573 486.584 L983.885 497.896 Z" fill="#ff0000" fill-rule="evenodd" fill-opacity="1" stroke="#000000" stroke-opacity="1" stroke-width="3.2"/>
<path clip-path="url(#clip742)" d="M1192.7 635.436 L1181.39 630.748 L1176.7 619.436 L1181.39 608.124 L1192.7 603.436 L1204.01 608.124 L1208.7 619.436 L1204.01 630.748 Z" fill="#ff0000" fill-rule="evenodd" fill-opacity="1" stroke="#000000" stroke-opacity="1" stroke-width="3.2"/>
<path clip-path="url(#clip742)" d="M1412.82 771.282 L1401.51 766.594 L1396.82 755.282 L1401.51 743.97 L1412.82 739.282 L1424.13 743.97 L1428.82 755.282 L1424.13 766.594 Z" fill="#ff0000" fill-rule="evenodd" fill-opacity="1" stroke="#000000" stroke-opacity="1" stroke-width="3.2"/>
<path clip-path="url(#clip742)" d="M1632.95 929.959 L1621.64 925.271 L1616.95 913.959 L1621.64 902.647 L1632.95 897.959 L1644.26 902.647 L1648.95 913.959 L1644.26 925.271 Z" fill="#ff0000" fill-rule="evenodd" fill-opacity="1" stroke="#000000" stroke-opacity="1" stroke-width="3.2"/>
<path clip-path="url(#clip742)" d="M1853.07 1081.66 L1841.76 1076.97 L1837.07 1065.66 L1841.76 1054.35 L1853.07 1049.66 L1864.38 1054.35 L1869.07 1065.66 L1864.38 1076.97 Z" fill="#ff0000" fill-rule="evenodd" fill-opacity="1" stroke="#000000" stroke-opacity="1" stroke-width="3.2"/>
<path clip-path="url(#clip742)" d="M2073.2 1249.38 L2061.89 1244.7 L2057.2 1233.38 L2061.89 1222.07 L2073.2 1217.38 L2084.51 1222.07 L2089.2 1233.38 L2084.51 1244.7 Z" fill="#ff0000" fill-rule="evenodd" fill-opacity="1" stroke="#000000" stroke-opacity="1" stroke-width="3.2"/>
<path clip-path="url(#clip742)" d="M2293.32 1399.69 L2282.01 1395 L2277.32 1383.69 L2282.01 1372.38 L2293.32 1367.69 L2304.63 1372.38 L2309.32 1383.69 L2304.63 1395 Z" fill="#ff0000" fill-rule="evenodd" fill-opacity="1" stroke="#000000" stroke-opacity="1" stroke-width="3.2"/>
<polyline clip-path="url(#clip742)" style="stroke:#ff0000; stroke-linecap:round; stroke-linejoin:round; stroke-width:4; stroke-opacity:1; fill:none" points="312.198,160.256 532.323,251.965 752.448,369.618 972.573,487.144 1192.7,628.297 1412.82,756.859 1632.95,917.576 1853.07,1065.78 2073.2,1239.25 2293.32,1386.4 "/>
<path clip-path="url(#clip742)" d="M312.198 144.256 L308.438 155.072 L296.982 155.312 L306.118 162.24 L302.79 173.2 L312.198 166.656 L321.606 173.2 L318.278 162.24 L327.414 155.312 L315.958 155.072 L312.198 144.256 Z" fill="#ff0000" fill-rule="evenodd" fill-opacity="1" stroke="#000000" stroke-opacity="1" stroke-width="3.2"/>
<path clip-path="url(#clip742)" d="M532.323 235.965 L528.563 246.781 L517.107 247.021 L526.243 253.949 L522.915 264.909 L532.323 258.365 L541.731 264.909 L538.403 253.949 L547.539 247.021 L536.083 246.781 L532.323 235.965 Z" fill="#ff0000" fill-rule="evenodd" fill-opacity="1" stroke="#000000" stroke-opacity="1" stroke-width="3.2"/>
<path clip-path="url(#clip742)" d="M752.448 353.618 L748.688 364.434 L737.232 364.674 L746.368 371.602 L743.04 382.562 L752.448 376.018 L761.856 382.562 L758.528 371.602 L767.664 364.674 L756.208 364.434 L752.448 353.618 Z" fill="#ff0000" fill-rule="evenodd" fill-opacity="1" stroke="#000000" stroke-opacity="1" stroke-width="3.2"/>
<path clip-path="url(#clip742)" d="M972.573 471.144 L968.813 481.96 L957.357 482.2 L966.493 489.128 L963.165 500.088 L972.573 493.544 L981.981 500.088 L978.653 489.128 L987.789 482.2 L976.333 481.96 L972.573 471.144 Z" fill="#ff0000" fill-rule="evenodd" fill-opacity="1" stroke="#000000" stroke-opacity="1" stroke-width="3.2"/>
<path clip-path="url(#clip742)" d="M1192.7 612.297 L1188.94 623.113 L1177.48 623.353 L1186.62 630.281 L1183.29 641.241 L1192.7 634.697 L1202.11 641.241 L1198.78 630.281 L1207.91 623.353 L1196.46 623.113 L1192.7 612.297 Z" fill="#ff0000" fill-rule="evenodd" fill-opacity="1" stroke="#000000" stroke-opacity="1" stroke-width="3.2"/>
<path clip-path="url(#clip742)" d="M1412.82 740.859 L1409.06 751.675 L1397.61 751.915 L1406.74 758.843 L1403.41 769.803 L1412.82 763.259 L1422.23 769.803 L1418.9 758.843 L1428.04 751.915 L1416.58 751.675 L1412.82 740.859 Z" fill="#ff0000" fill-rule="evenodd" fill-opacity="1" stroke="#000000" stroke-opacity="1" stroke-width="3.2"/>
<path clip-path="url(#clip742)" d="M1632.95 901.576 L1629.19 912.392 L1617.73 912.632 L1626.87 919.56 L1623.54 930.52 L1632.95 923.976 L1642.36 930.52 L1639.03 919.56 L1648.16 912.632 L1636.71 912.392 L1632.95 901.576 Z" fill="#ff0000" fill-rule="evenodd" fill-opacity="1" stroke="#000000" stroke-opacity="1" stroke-width="3.2"/>
<path clip-path="url(#clip742)" d="M1853.07 1049.78 L1849.31 1060.6 L1837.86 1060.84 L1846.99 1067.76 L1843.66 1078.72 L1853.07 1072.18 L1862.48 1078.72 L1859.15 1067.76 L1868.29 1060.84 L1856.83 1060.6 L1853.07 1049.78 Z" fill="#ff0000" fill-rule="evenodd" fill-opacity="1" stroke="#000000" stroke-opacity="1" stroke-width="3.2"/>
<path clip-path="url(#clip742)" d="M2073.2 1223.25 L2069.44 1234.07 L2057.98 1234.31 L2067.12 1241.23 L2063.79 1252.19 L2073.2 1245.65 L2082.61 1252.19 L2079.28 1241.23 L2088.41 1234.31 L2076.96 1234.07 L2073.2 1223.25 Z" fill="#ff0000" fill-rule="evenodd" fill-opacity="1" stroke="#000000" stroke-opacity="1" stroke-width="3.2"/>
<path clip-path="url(#clip742)" d="M2293.32 1370.4 L2289.56 1381.21 L2278.11 1381.45 L2287.24 1388.38 L2283.91 1399.34 L2293.32 1392.8 L2302.73 1399.34 L2299.4 1388.38 L2308.54 1381.45 L2297.08 1381.21 L2293.32 1370.4 Z" fill="#ff0000" fill-rule="evenodd" fill-opacity="1" stroke="#000000" stroke-opacity="1" stroke-width="3.2"/>
<path clip-path="url(#clip740)" d="M1460.84 425.996 L2282.76 425.996 L2282.76 166.796 L1460.84 166.796  Z" fill="#ffffff" fill-rule="evenodd" fill-opacity="1"/>
<polyline clip-path="url(#clip740)" style="stroke:#000000; stroke-linecap:round; stroke-linejoin:round; stroke-width:4; stroke-opacity:1; fill:none" points="1460.84,425.996 2282.76,425.996 2282.76,166.796 1460.84,166.796 1460.84,425.996 "/>
<polyline clip-path="url(#clip740)" style="stroke:#0000ff; stroke-linecap:round; stroke-linejoin:round; stroke-width:4; stroke-opacity:1; fill:none" points="1484.17,218.636 1624.17,218.636 "/>
<path clip-path="url(#clip740)" d="M1554.17 240.241 L1538.9 233.91 L1532.57 218.636 L1538.9 203.361 L1554.17 197.031 L1569.45 203.361 L1575.78 218.636 L1569.45 233.91 Z" fill="#0000ff" fill-rule="evenodd" fill-opacity="1" stroke="#000000" stroke-opacity="1" stroke-width="4.55111"/>
<path clip-path="url(#clip740)" d="M1652.18 219.411 L1652.18 232.073 L1659.68 232.073 Q1663.45 232.073 1665.26 230.522 Q1667.09 228.948 1667.09 225.731 Q1667.09 222.49 1665.26 220.962 Q1663.45 219.411 1659.68 219.411 L1652.18 219.411 M1652.18 205.198 L1652.18 215.615 L1659.1 215.615 Q1662.53 215.615 1664.19 214.342 Q1665.88 213.045 1665.88 210.407 Q1665.88 207.791 1664.19 206.495 Q1662.53 205.198 1659.1 205.198 L1652.18 205.198 M1647.5 201.356 L1659.45 201.356 Q1664.8 201.356 1667.69 203.578 Q1670.58 205.8 1670.58 209.897 Q1670.58 213.069 1669.1 214.944 Q1667.62 216.819 1664.75 217.282 Q1668.2 218.022 1670.1 220.383 Q1672.02 222.721 1672.02 226.24 Q1672.02 230.869 1668.87 233.393 Q1665.72 235.916 1659.91 235.916 L1647.5 235.916 L1647.5 201.356 Z" fill="#000000" fill-rule="nonzero" fill-opacity="1" /><path clip-path="url(#clip740)" d="M1675.24 201.356 L1704.47 201.356 L1704.47 205.291 L1692.2 205.291 L1692.2 235.916 L1687.5 235.916 L1687.5 205.291 L1675.24 205.291 L1675.24 201.356 Z" fill="#000000" fill-rule="nonzero" fill-opacity="1" /><path clip-path="url(#clip740)" d="M1703.36 201.356 L1732.6 201.356 L1732.6 205.291 L1720.33 205.291 L1720.33 235.916 L1715.63 235.916 L1715.63 205.291 L1703.36 205.291 L1703.36 201.356 Z" fill="#000000" fill-rule="nonzero" fill-opacity="1" /><path clip-path="url(#clip740)" d="M1737.11 201.356 L1743.41 201.356 L1758.73 230.268 L1758.73 201.356 L1763.27 201.356 L1763.27 235.916 L1756.97 235.916 L1741.65 207.004 L1741.65 235.916 L1737.11 235.916 L1737.11 201.356 Z" fill="#000000" fill-rule="nonzero" fill-opacity="1" /><polyline clip-path="url(#clip740)" style="stroke:#0000ff; stroke-linecap:round; stroke-linejoin:round; stroke-width:4; stroke-opacity:1; fill:none" points="1484.17,270.476 1624.17,270.476 "/>
<path clip-path="url(#clip740)" d="M1554.17 248.871 L1549.09 263.476 L1533.63 263.8 L1545.96 273.155 L1541.47 287.954 L1554.17 279.118 L1566.88 287.954 L1562.38 273.155 L1574.72 263.8 L1559.25 263.476 L1554.17 248.871 Z" fill="#0000ff" fill-rule="evenodd" fill-opacity="1" stroke="#000000" stroke-opacity="1" stroke-width="4.55111"/>
<path clip-path="url(#clip740)" d="M1652.18 271.251 L1652.18 283.913 L1659.68 283.913 Q1663.45 283.913 1665.26 282.362 Q1667.09 280.788 1667.09 277.571 Q1667.09 274.33 1665.26 272.802 Q1663.45 271.251 1659.68 271.251 L1652.18 271.251 M1652.18 257.038 L1652.18 267.455 L1659.1 267.455 Q1662.53 267.455 1664.19 266.182 Q1665.88 264.885 1665.88 262.247 Q1665.88 259.631 1664.19 258.335 Q1662.53 257.038 1659.1 257.038 L1652.18 257.038 M1647.5 253.196 L1659.45 253.196 Q1664.8 253.196 1667.69 255.418 Q1670.58 257.64 1670.58 261.737 Q1670.58 264.909 1669.1 266.784 Q1667.62 268.659 1664.75 269.122 Q1668.2 269.862 1670.1 272.223 Q1672.02 274.561 1672.02 278.08 Q1672.02 282.709 1668.87 285.233 Q1665.72 287.756 1659.91 287.756 L1647.5 287.756 L1647.5 253.196 Z" fill="#000000" fill-rule="nonzero" fill-opacity="1" /><path clip-path="url(#clip740)" d="M1675.24 253.196 L1704.47 253.196 L1704.47 257.131 L1692.2 257.131 L1692.2 287.756 L1687.5 287.756 L1687.5 257.131 L1675.24 257.131 L1675.24 253.196 Z" fill="#000000" fill-rule="nonzero" fill-opacity="1" /><path clip-path="url(#clip740)" d="M1703.36 253.196 L1732.6 253.196 L1732.6 257.131 L1720.33 257.131 L1720.33 287.756 L1715.63 287.756 L1715.63 257.131 L1703.36 257.131 L1703.36 253.196 Z" fill="#000000" fill-rule="nonzero" fill-opacity="1" /><path clip-path="url(#clip740)" d="M1737.11 253.196 L1743.41 253.196 L1758.73 282.108 L1758.73 253.196 L1763.27 253.196 L1763.27 287.756 L1756.97 287.756 L1741.65 258.844 L1741.65 287.756 L1737.11 287.756 L1737.11 253.196 Z" fill="#000000" fill-rule="nonzero" fill-opacity="1" /><path clip-path="url(#clip740)" d="M1792.09 295.626 L1792.09 298.936 L1767.46 298.936 L1767.46 295.626 L1792.09 295.626 Z" fill="#000000" fill-rule="nonzero" fill-opacity="1" /><path clip-path="url(#clip740)" d="M1793.62 261.83 L1797.87 261.83 L1803.2 282.061 L1808.5 261.83 L1813.52 261.83 L1818.85 282.061 L1824.15 261.83 L1828.41 261.83 L1821.62 287.756 L1816.6 287.756 L1811.02 266.506 L1805.42 287.756 L1800.4 287.756 L1793.62 261.83 Z" fill="#000000" fill-rule="nonzero" fill-opacity="1" /><path clip-path="url(#clip740)" d="M1834.87 261.83 L1839.12 261.83 L1839.12 287.756 L1834.87 287.756 L1834.87 261.83 M1834.87 251.737 L1839.12 251.737 L1839.12 257.131 L1834.87 257.131 L1834.87 251.737 Z" fill="#000000" fill-rule="nonzero" fill-opacity="1" /><path clip-path="url(#clip740)" d="M1852.25 254.469 L1852.25 261.83 L1861.02 261.83 L1861.02 265.14 L1852.25 265.14 L1852.25 279.214 Q1852.25 282.385 1853.11 283.288 Q1853.99 284.191 1856.65 284.191 L1861.02 284.191 L1861.02 287.756 L1856.65 287.756 Q1851.72 287.756 1849.84 285.927 Q1847.97 284.075 1847.97 279.214 L1847.97 265.14 L1844.84 265.14 L1844.84 261.83 L1847.97 261.83 L1847.97 254.469 L1852.25 254.469 Z" fill="#000000" fill-rule="nonzero" fill-opacity="1" /><path clip-path="url(#clip740)" d="M1888.17 272.108 L1888.17 287.756 L1883.92 287.756 L1883.92 272.247 Q1883.92 268.566 1882.48 266.737 Q1881.05 264.909 1878.17 264.909 Q1874.73 264.909 1872.74 267.108 Q1870.74 269.307 1870.74 273.103 L1870.74 287.756 L1866.46 287.756 L1866.46 251.737 L1870.74 251.737 L1870.74 265.858 Q1872.27 263.52 1874.33 262.362 Q1876.42 261.205 1879.12 261.205 Q1883.59 261.205 1885.88 263.983 Q1888.17 266.737 1888.17 272.108 Z" fill="#000000" fill-rule="nonzero" fill-opacity="1" /><path clip-path="url(#clip740)" d="M1916.37 295.626 L1916.37 298.936 L1891.74 298.936 L1891.74 295.626 L1916.37 295.626 Z" fill="#000000" fill-rule="nonzero" fill-opacity="1" /><path clip-path="url(#clip740)" d="M1937.43 274.492 Q1937.43 269.862 1935.51 267.316 Q1933.61 264.77 1930.17 264.77 Q1926.74 264.77 1924.82 267.316 Q1922.92 269.862 1922.92 274.492 Q1922.92 279.098 1924.82 281.645 Q1926.74 284.191 1930.17 284.191 Q1933.61 284.191 1935.51 281.645 Q1937.43 279.098 1937.43 274.492 M1941.69 284.538 Q1941.69 291.158 1938.75 294.376 Q1935.81 297.617 1929.75 297.617 Q1927.5 297.617 1925.51 297.27 Q1923.52 296.945 1921.65 296.251 L1921.65 292.108 Q1923.52 293.126 1925.35 293.612 Q1927.18 294.098 1929.08 294.098 Q1933.27 294.098 1935.35 291.899 Q1937.43 289.723 1937.43 285.302 L1937.43 283.196 Q1936.11 285.487 1934.05 286.621 Q1931.99 287.756 1929.12 287.756 Q1924.36 287.756 1921.44 284.121 Q1918.52 280.487 1918.52 274.492 Q1918.52 268.473 1921.44 264.839 Q1924.36 261.205 1929.12 261.205 Q1931.99 261.205 1934.05 262.339 Q1936.11 263.473 1937.43 265.765 L1937.43 261.83 L1941.69 261.83 L1941.69 284.538 Z" fill="#000000" fill-rule="nonzero" fill-opacity="1" /><path clip-path="url(#clip740)" d="M1950.47 251.737 L1954.73 251.737 L1954.73 287.756 L1950.47 287.756 L1950.47 251.737 Z" fill="#000000" fill-rule="nonzero" fill-opacity="1" /><path clip-path="url(#clip740)" d="M1973.68 264.816 Q1970.26 264.816 1968.27 267.501 Q1966.28 270.163 1966.28 274.816 Q1966.28 279.469 1968.24 282.154 Q1970.23 284.816 1973.68 284.816 Q1977.09 284.816 1979.08 282.131 Q1981.07 279.446 1981.07 274.816 Q1981.07 270.21 1979.08 267.524 Q1977.09 264.816 1973.68 264.816 M1973.68 261.205 Q1979.24 261.205 1982.41 264.816 Q1985.58 268.427 1985.58 274.816 Q1985.58 281.182 1982.41 284.816 Q1979.24 288.427 1973.68 288.427 Q1968.11 288.427 1964.93 284.816 Q1961.79 281.182 1961.79 274.816 Q1961.79 268.427 1964.93 264.816 Q1968.11 261.205 1973.68 261.205 Z" fill="#000000" fill-rule="nonzero" fill-opacity="1" /><path clip-path="url(#clip740)" d="M2011.25 274.816 Q2011.25 270.117 2009.31 267.455 Q2007.39 264.77 2004.01 264.77 Q2000.63 264.77 1998.68 267.455 Q1996.76 270.117 1996.76 274.816 Q1996.76 279.515 1998.68 282.2 Q2000.63 284.862 2004.01 284.862 Q2007.39 284.862 2009.31 282.2 Q2011.25 279.515 2011.25 274.816 M1996.76 265.765 Q1998.1 263.45 2000.14 262.339 Q2002.2 261.205 2005.05 261.205 Q2009.77 261.205 2012.71 264.955 Q2015.67 268.705 2015.67 274.816 Q2015.67 280.927 2012.71 284.677 Q2009.77 288.427 2005.05 288.427 Q2002.2 288.427 2000.14 287.316 Q1998.1 286.182 1996.76 283.867 L1996.76 287.756 L1992.48 287.756 L1992.48 251.737 L1996.76 251.737 L1996.76 265.765 Z" fill="#000000" fill-rule="nonzero" fill-opacity="1" /><path clip-path="url(#clip740)" d="M2034.52 274.723 Q2029.35 274.723 2027.36 275.904 Q2025.37 277.084 2025.37 279.932 Q2025.37 282.2 2026.85 283.543 Q2028.36 284.862 2030.93 284.862 Q2034.47 284.862 2036.6 282.362 Q2038.75 279.839 2038.75 275.672 L2038.75 274.723 L2034.52 274.723 M2043.01 272.964 L2043.01 287.756 L2038.75 287.756 L2038.75 283.821 Q2037.29 286.182 2035.12 287.316 Q2032.94 288.427 2029.79 288.427 Q2025.81 288.427 2023.45 286.205 Q2021.11 283.959 2021.11 280.209 Q2021.11 275.834 2024.03 273.612 Q2026.97 271.39 2032.78 271.39 L2038.75 271.39 L2038.75 270.973 Q2038.75 268.034 2036.81 266.436 Q2034.89 264.816 2031.39 264.816 Q2029.17 264.816 2027.06 265.348 Q2024.96 265.881 2023.01 266.946 L2023.01 263.01 Q2025.35 262.108 2027.55 261.668 Q2029.75 261.205 2031.83 261.205 Q2037.46 261.205 2040.23 264.122 Q2043.01 267.038 2043.01 272.964 Z" fill="#000000" fill-rule="nonzero" fill-opacity="1" /><path clip-path="url(#clip740)" d="M2051.79 251.737 L2056.04 251.737 L2056.04 287.756 L2051.79 287.756 L2051.79 251.737 Z" fill="#000000" fill-rule="nonzero" fill-opacity="1" /><path clip-path="url(#clip740)" d="M2069.08 283.867 L2069.08 297.617 L2064.79 297.617 L2064.79 261.83 L2069.08 261.83 L2069.08 265.765 Q2070.42 263.45 2072.46 262.339 Q2074.52 261.205 2077.36 261.205 Q2082.09 261.205 2085.03 264.955 Q2087.99 268.705 2087.99 274.816 Q2087.99 280.927 2085.03 284.677 Q2082.09 288.427 2077.36 288.427 Q2074.52 288.427 2072.46 287.316 Q2070.42 286.182 2069.08 283.867 M2083.57 274.816 Q2083.57 270.117 2081.62 267.455 Q2079.7 264.77 2076.32 264.77 Q2072.94 264.77 2071 267.455 Q2069.08 270.117 2069.08 274.816 Q2069.08 279.515 2071 282.2 Q2072.94 284.862 2076.32 284.862 Q2079.7 284.862 2081.62 282.2 Q2083.57 279.515 2083.57 274.816 Z" fill="#000000" fill-rule="nonzero" fill-opacity="1" /><path clip-path="url(#clip740)" d="M2095.05 261.83 L2099.31 261.83 L2099.31 287.756 L2095.05 287.756 L2095.05 261.83 M2095.05 251.737 L2099.31 251.737 L2099.31 257.131 L2095.05 257.131 L2095.05 251.737 Z" fill="#000000" fill-rule="nonzero" fill-opacity="1" /><path clip-path="url(#clip740)" d="M2105.16 261.83 L2109.68 261.83 L2117.78 283.589 L2125.88 261.83 L2130.4 261.83 L2120.67 287.756 L2114.89 287.756 L2105.16 261.83 Z" fill="#000000" fill-rule="nonzero" fill-opacity="1" /><path clip-path="url(#clip740)" d="M2146.32 264.816 Q2142.9 264.816 2140.91 267.501 Q2138.91 270.163 2138.91 274.816 Q2138.91 279.469 2140.88 282.154 Q2142.87 284.816 2146.32 284.816 Q2149.72 284.816 2151.72 282.131 Q2153.71 279.446 2153.71 274.816 Q2153.71 270.21 2151.72 267.524 Q2149.72 264.816 2146.32 264.816 M2146.32 261.205 Q2151.88 261.205 2155.05 264.816 Q2158.22 268.427 2158.22 274.816 Q2158.22 281.182 2155.05 284.816 Q2151.88 288.427 2146.32 288.427 Q2140.74 288.427 2137.57 284.816 Q2134.42 281.182 2134.42 274.816 Q2134.42 268.427 2137.57 264.816 Q2140.74 261.205 2146.32 261.205 Z" fill="#000000" fill-rule="nonzero" fill-opacity="1" /><path clip-path="url(#clip740)" d="M2169.49 254.469 L2169.49 261.83 L2178.27 261.83 L2178.27 265.14 L2169.49 265.14 L2169.49 279.214 Q2169.49 282.385 2170.35 283.288 Q2171.23 284.191 2173.89 284.191 L2178.27 284.191 L2178.27 287.756 L2173.89 287.756 Q2168.96 287.756 2167.09 285.927 Q2165.21 284.075 2165.21 279.214 L2165.21 265.14 L2162.09 265.14 L2162.09 261.83 L2165.21 261.83 L2165.21 254.469 L2169.49 254.469 Z" fill="#000000" fill-rule="nonzero" fill-opacity="1" /><path clip-path="url(#clip740)" d="M2200.4 262.594 L2200.4 266.622 Q2198.59 265.696 2196.65 265.233 Q2194.7 264.77 2192.62 264.77 Q2189.45 264.77 2187.85 265.742 Q2186.28 266.714 2186.28 268.659 Q2186.28 270.14 2187.41 270.997 Q2188.54 271.83 2191.97 272.594 L2193.43 272.918 Q2197.96 273.89 2199.86 275.672 Q2201.78 277.432 2201.78 280.603 Q2201.78 284.214 2198.91 286.321 Q2196.07 288.427 2191.07 288.427 Q2188.98 288.427 2186.71 288.01 Q2184.47 287.617 2181.97 286.807 L2181.97 282.409 Q2184.33 283.635 2186.62 284.26 Q2188.91 284.862 2191.16 284.862 Q2194.17 284.862 2195.79 283.844 Q2197.41 282.802 2197.41 280.927 Q2197.41 279.191 2196.23 278.265 Q2195.07 277.339 2191.11 276.483 L2189.63 276.135 Q2185.67 275.302 2183.91 273.589 Q2182.15 271.853 2182.15 268.844 Q2182.15 265.186 2184.75 263.196 Q2187.34 261.205 2192.11 261.205 Q2194.47 261.205 2196.55 261.552 Q2198.64 261.899 2200.4 262.594 Z" fill="#000000" fill-rule="nonzero" fill-opacity="1" /><polyline clip-path="url(#clip740)" style="stroke:#ff0000; stroke-linecap:round; stroke-linejoin:round; stroke-width:4; stroke-opacity:1; fill:none" points="1484.17,322.316 1624.17,322.316 "/>
<path clip-path="url(#clip740)" d="M1554.17 343.921 L1538.9 337.59 L1532.57 322.316 L1538.9 307.041 L1554.17 300.711 L1569.45 307.041 L1575.78 322.316 L1569.45 337.59 Z" fill="#ff0000" fill-rule="evenodd" fill-opacity="1" stroke="#000000" stroke-opacity="1" stroke-width="4.55111"/>
<path clip-path="url(#clip740)" d="M1663.52 308.207 Q1658.43 308.207 1655.42 312.003 Q1652.44 315.8 1652.44 322.35 Q1652.44 328.878 1655.42 332.674 Q1658.43 336.471 1663.52 336.471 Q1668.62 336.471 1671.58 332.674 Q1674.56 328.878 1674.56 322.35 Q1674.56 315.8 1671.58 312.003 Q1668.62 308.207 1663.52 308.207 M1670.07 338.971 L1676.23 345.707 L1670.58 345.707 L1665.47 340.174 Q1664.7 340.221 1664.29 340.244 Q1663.89 340.267 1663.52 340.267 Q1656.23 340.267 1651.86 335.406 Q1647.5 330.522 1647.5 322.35 Q1647.5 314.156 1651.86 309.295 Q1656.23 304.411 1663.52 304.411 Q1670.79 304.411 1675.14 309.295 Q1679.5 314.156 1679.5 322.35 Q1679.5 328.369 1677.06 332.651 Q1674.66 336.934 1670.07 338.971 Z" fill="#000000" fill-rule="nonzero" fill-opacity="1" /><path clip-path="url(#clip740)" d="M1682.02 305.036 L1711.25 305.036 L1711.25 308.971 L1698.99 308.971 L1698.99 339.596 L1694.29 339.596 L1694.29 308.971 L1682.02 308.971 L1682.02 305.036 Z" fill="#000000" fill-rule="nonzero" fill-opacity="1" /><path clip-path="url(#clip740)" d="M1710.14 305.036 L1739.38 305.036 L1739.38 308.971 L1727.11 308.971 L1727.11 339.596 L1722.41 339.596 L1722.41 308.971 L1710.14 308.971 L1710.14 305.036 Z" fill="#000000" fill-rule="nonzero" fill-opacity="1" /><path clip-path="url(#clip740)" d="M1763.41 347.466 L1763.41 350.776 L1738.78 350.776 L1738.78 347.466 L1763.41 347.466 Z" fill="#000000" fill-rule="nonzero" fill-opacity="1" /><path clip-path="url(#clip740)" d="M1767.6 305.036 L1772.27 305.036 L1772.27 339.596 L1767.6 339.596 L1767.6 305.036 Z" fill="#000000" fill-rule="nonzero" fill-opacity="1" /><path clip-path="url(#clip740)" d="M1802.94 323.948 L1802.94 339.596 L1798.68 339.596 L1798.68 324.087 Q1798.68 320.406 1797.25 318.577 Q1795.81 316.749 1792.94 316.749 Q1789.49 316.749 1787.5 318.948 Q1785.51 321.147 1785.51 324.943 L1785.51 339.596 L1781.23 339.596 L1781.23 313.67 L1785.51 313.67 L1785.51 317.698 Q1787.04 315.36 1789.1 314.202 Q1791.18 313.045 1793.89 313.045 Q1798.36 313.045 1800.65 315.823 Q1802.94 318.577 1802.94 323.948 Z" fill="#000000" fill-rule="nonzero" fill-opacity="1" /><path clip-path="url(#clip740)" d="M1815.65 306.309 L1815.65 313.67 L1824.43 313.67 L1824.43 316.98 L1815.65 316.98 L1815.65 331.054 Q1815.65 334.225 1816.51 335.128 Q1817.39 336.031 1820.05 336.031 L1824.43 336.031 L1824.43 339.596 L1820.05 339.596 Q1815.12 339.596 1813.24 337.767 Q1811.37 335.915 1811.37 331.054 L1811.37 316.98 L1808.24 316.98 L1808.24 313.67 L1811.37 313.67 L1811.37 306.309 L1815.65 306.309 Z" fill="#000000" fill-rule="nonzero" fill-opacity="1" /><polyline clip-path="url(#clip740)" style="stroke:#ff0000; stroke-linecap:round; stroke-linejoin:round; stroke-width:4; stroke-opacity:1; fill:none" points="1484.17,374.156 1624.17,374.156 "/>
<path clip-path="url(#clip740)" d="M1554.17 352.551 L1549.09 367.156 L1533.63 367.48 L1545.96 376.835 L1541.47 391.634 L1554.17 382.798 L1566.88 391.634 L1562.38 376.835 L1574.72 367.48 L1559.25 367.156 L1554.17 352.551 Z" fill="#ff0000" fill-rule="evenodd" fill-opacity="1" stroke="#000000" stroke-opacity="1" stroke-width="4.55111"/>
<path clip-path="url(#clip740)" d="M1663.52 360.047 Q1658.43 360.047 1655.42 363.843 Q1652.44 367.64 1652.44 374.19 Q1652.44 380.718 1655.42 384.514 Q1658.43 388.311 1663.52 388.311 Q1668.62 388.311 1671.58 384.514 Q1674.56 380.718 1674.56 374.19 Q1674.56 367.64 1671.58 363.843 Q1668.62 360.047 1663.52 360.047 M1670.07 390.811 L1676.23 397.547 L1670.58 397.547 L1665.47 392.014 Q1664.7 392.061 1664.29 392.084 Q1663.89 392.107 1663.52 392.107 Q1656.23 392.107 1651.86 387.246 Q1647.5 382.362 1647.5 374.19 Q1647.5 365.996 1651.86 361.135 Q1656.23 356.251 1663.52 356.251 Q1670.79 356.251 1675.14 361.135 Q1679.5 365.996 1679.5 374.19 Q1679.5 380.209 1677.06 384.491 Q1674.66 388.774 1670.07 390.811 Z" fill="#000000" fill-rule="nonzero" fill-opacity="1" /><path clip-path="url(#clip740)" d="M1682.02 356.876 L1711.25 356.876 L1711.25 360.811 L1698.99 360.811 L1698.99 391.436 L1694.29 391.436 L1694.29 360.811 L1682.02 360.811 L1682.02 356.876 Z" fill="#000000" fill-rule="nonzero" fill-opacity="1" /><path clip-path="url(#clip740)" d="M1710.14 356.876 L1739.38 356.876 L1739.38 360.811 L1727.11 360.811 L1727.11 391.436 L1722.41 391.436 L1722.41 360.811 L1710.14 360.811 L1710.14 356.876 Z" fill="#000000" fill-rule="nonzero" fill-opacity="1" /><path clip-path="url(#clip740)" d="M1763.41 399.306 L1763.41 402.616 L1738.78 402.616 L1738.78 399.306 L1763.41 399.306 Z" fill="#000000" fill-rule="nonzero" fill-opacity="1" /><path clip-path="url(#clip740)" d="M1767.6 356.876 L1772.27 356.876 L1772.27 391.436 L1767.6 391.436 L1767.6 356.876 Z" fill="#000000" fill-rule="nonzero" fill-opacity="1" /><path clip-path="url(#clip740)" d="M1802.94 375.788 L1802.94 391.436 L1798.68 391.436 L1798.68 375.927 Q1798.68 372.246 1797.25 370.417 Q1795.81 368.589 1792.94 368.589 Q1789.49 368.589 1787.5 370.788 Q1785.51 372.987 1785.51 376.783 L1785.51 391.436 L1781.23 391.436 L1781.23 365.51 L1785.51 365.51 L1785.51 369.538 Q1787.04 367.2 1789.1 366.042 Q1791.18 364.885 1793.89 364.885 Q1798.36 364.885 1800.65 367.663 Q1802.94 370.417 1802.94 375.788 Z" fill="#000000" fill-rule="nonzero" fill-opacity="1" /><path clip-path="url(#clip740)" d="M1815.65 358.149 L1815.65 365.51 L1824.43 365.51 L1824.43 368.82 L1815.65 368.82 L1815.65 382.894 Q1815.65 386.065 1816.51 386.968 Q1817.39 387.871 1820.05 387.871 L1824.43 387.871 L1824.43 391.436 L1820.05 391.436 Q1815.12 391.436 1813.24 389.607 Q1811.37 387.755 1811.37 382.894 L1811.37 368.82 L1808.24 368.82 L1808.24 365.51 L1811.37 365.51 L1811.37 358.149 L1815.65 358.149 Z" fill="#000000" fill-rule="nonzero" fill-opacity="1" /><path clip-path="url(#clip740)" d="M1849.73 399.306 L1849.73 402.616 L1825.1 402.616 L1825.1 399.306 L1849.73 399.306 Z" fill="#000000" fill-rule="nonzero" fill-opacity="1" /><path clip-path="url(#clip740)" d="M1851.25 365.51 L1855.51 365.51 L1860.84 385.741 L1866.14 365.51 L1871.16 365.51 L1876.49 385.741 L1881.79 365.51 L1886.05 365.51 L1879.26 391.436 L1874.24 391.436 L1868.66 370.186 L1863.06 391.436 L1858.04 391.436 L1851.25 365.51 Z" fill="#000000" fill-rule="nonzero" fill-opacity="1" /><path clip-path="url(#clip740)" d="M1892.5 365.51 L1896.76 365.51 L1896.76 391.436 L1892.5 391.436 L1892.5 365.51 M1892.5 355.417 L1896.76 355.417 L1896.76 360.811 L1892.5 360.811 L1892.5 355.417 Z" fill="#000000" fill-rule="nonzero" fill-opacity="1" /><path clip-path="url(#clip740)" d="M1909.89 358.149 L1909.89 365.51 L1918.66 365.51 L1918.66 368.82 L1909.89 368.82 L1909.89 382.894 Q1909.89 386.065 1910.74 386.968 Q1911.62 387.871 1914.29 387.871 L1918.66 387.871 L1918.66 391.436 L1914.29 391.436 Q1909.36 391.436 1907.48 389.607 Q1905.61 387.755 1905.61 382.894 L1905.61 368.82 L1902.48 368.82 L1902.48 365.51 L1905.61 365.51 L1905.61 358.149 L1909.89 358.149 Z" fill="#000000" fill-rule="nonzero" fill-opacity="1" /><path clip-path="url(#clip740)" d="M1945.81 375.788 L1945.81 391.436 L1941.55 391.436 L1941.55 375.927 Q1941.55 372.246 1940.12 370.417 Q1938.68 368.589 1935.81 368.589 Q1932.36 368.589 1930.37 370.788 Q1928.38 372.987 1928.38 376.783 L1928.38 391.436 L1924.1 391.436 L1924.1 355.417 L1928.38 355.417 L1928.38 369.538 Q1929.91 367.2 1931.97 366.042 Q1934.05 364.885 1936.76 364.885 Q1941.23 364.885 1943.52 367.663 Q1945.81 370.417 1945.81 375.788 Z" fill="#000000" fill-rule="nonzero" fill-opacity="1" /><path clip-path="url(#clip740)" d="M1974.01 399.306 L1974.01 402.616 L1949.38 402.616 L1949.38 399.306 L1974.01 399.306 Z" fill="#000000" fill-rule="nonzero" fill-opacity="1" /><path clip-path="url(#clip740)" d="M1995.07 378.172 Q1995.07 373.542 1993.15 370.996 Q1991.25 368.45 1987.8 368.45 Q1984.38 368.45 1982.46 370.996 Q1980.56 373.542 1980.56 378.172 Q1980.56 382.778 1982.46 385.325 Q1984.38 387.871 1987.8 387.871 Q1991.25 387.871 1993.15 385.325 Q1995.07 382.778 1995.07 378.172 M1999.33 388.218 Q1999.33 394.838 1996.39 398.056 Q1993.45 401.297 1987.39 401.297 Q1985.14 401.297 1983.15 400.95 Q1981.16 400.625 1979.29 399.931 L1979.29 395.788 Q1981.16 396.806 1982.99 397.292 Q1984.82 397.778 1986.72 397.778 Q1990.91 397.778 1992.99 395.579 Q1995.07 393.403 1995.07 388.982 L1995.07 386.876 Q1993.75 389.167 1991.69 390.301 Q1989.63 391.436 1986.76 391.436 Q1981.99 391.436 1979.08 387.801 Q1976.16 384.167 1976.16 378.172 Q1976.16 372.153 1979.08 368.519 Q1981.99 364.885 1986.76 364.885 Q1989.63 364.885 1991.69 366.019 Q1993.75 367.153 1995.07 369.445 L1995.07 365.51 L1999.33 365.51 L1999.33 388.218 Z" fill="#000000" fill-rule="nonzero" fill-opacity="1" /><path clip-path="url(#clip740)" d="M2008.1 355.417 L2012.36 355.417 L2012.36 391.436 L2008.1 391.436 L2008.1 355.417 Z" fill="#000000" fill-rule="nonzero" fill-opacity="1" /><path clip-path="url(#clip740)" d="M2031.32 368.496 Q2027.9 368.496 2025.91 371.181 Q2023.91 373.843 2023.91 378.496 Q2023.91 383.149 2025.88 385.834 Q2027.87 388.496 2031.32 388.496 Q2034.73 388.496 2036.72 385.811 Q2038.71 383.126 2038.71 378.496 Q2038.71 373.89 2036.72 371.204 Q2034.73 368.496 2031.32 368.496 M2031.32 364.885 Q2036.88 364.885 2040.05 368.496 Q2043.22 372.107 2043.22 378.496 Q2043.22 384.862 2040.05 388.496 Q2036.88 392.107 2031.32 392.107 Q2025.74 392.107 2022.57 388.496 Q2019.42 384.862 2019.42 378.496 Q2019.42 372.107 2022.57 368.496 Q2025.74 364.885 2031.32 364.885 Z" fill="#000000" fill-rule="nonzero" fill-opacity="1" /><path clip-path="url(#clip740)" d="M2068.89 378.496 Q2068.89 373.797 2066.95 371.135 Q2065.03 368.45 2061.65 368.45 Q2058.27 368.45 2056.32 371.135 Q2054.4 373.797 2054.4 378.496 Q2054.4 383.195 2056.32 385.88 Q2058.27 388.542 2061.65 388.542 Q2065.03 388.542 2066.95 385.88 Q2068.89 383.195 2068.89 378.496 M2054.4 369.445 Q2055.74 367.13 2057.78 366.019 Q2059.84 364.885 2062.69 364.885 Q2067.41 364.885 2070.35 368.635 Q2073.31 372.385 2073.31 378.496 Q2073.31 384.607 2070.35 388.357 Q2067.41 392.107 2062.69 392.107 Q2059.84 392.107 2057.78 390.996 Q2055.74 389.862 2054.4 387.547 L2054.4 391.436 L2050.12 391.436 L2050.12 355.417 L2054.4 355.417 L2054.4 369.445 Z" fill="#000000" fill-rule="nonzero" fill-opacity="1" /><path clip-path="url(#clip740)" d="M2092.16 378.403 Q2086.99 378.403 2085 379.584 Q2083.01 380.764 2083.01 383.612 Q2083.01 385.88 2084.49 387.223 Q2086 388.542 2088.57 388.542 Q2092.11 388.542 2094.24 386.042 Q2096.39 383.519 2096.39 379.352 L2096.39 378.403 L2092.16 378.403 M2100.65 376.644 L2100.65 391.436 L2096.39 391.436 L2096.39 387.501 Q2094.93 389.862 2092.76 390.996 Q2090.58 392.107 2087.43 392.107 Q2083.45 392.107 2081.09 389.885 Q2078.75 387.639 2078.75 383.889 Q2078.75 379.514 2081.67 377.292 Q2084.61 375.07 2090.42 375.07 L2096.39 375.07 L2096.39 374.653 Q2096.39 371.714 2094.45 370.116 Q2092.53 368.496 2089.03 368.496 Q2086.81 368.496 2084.7 369.028 Q2082.6 369.561 2080.65 370.626 L2080.65 366.69 Q2082.99 365.788 2085.19 365.348 Q2087.39 364.885 2089.47 364.885 Q2095.1 364.885 2097.87 367.802 Q2100.65 370.718 2100.65 376.644 Z" fill="#000000" fill-rule="nonzero" fill-opacity="1" /><path clip-path="url(#clip740)" d="M2109.42 355.417 L2113.68 355.417 L2113.68 391.436 L2109.42 391.436 L2109.42 355.417 Z" fill="#000000" fill-rule="nonzero" fill-opacity="1" /><path clip-path="url(#clip740)" d="M2126.72 387.547 L2126.72 401.297 L2122.43 401.297 L2122.43 365.51 L2126.72 365.51 L2126.72 369.445 Q2128.06 367.13 2130.09 366.019 Q2132.16 364.885 2135 364.885 Q2139.72 364.885 2142.66 368.635 Q2145.63 372.385 2145.63 378.496 Q2145.63 384.607 2142.66 388.357 Q2139.72 392.107 2135 392.107 Q2132.16 392.107 2130.09 390.996 Q2128.06 389.862 2126.72 387.547 M2141.21 378.496 Q2141.21 373.797 2139.26 371.135 Q2137.34 368.45 2133.96 368.45 Q2130.58 368.45 2128.64 371.135 Q2126.72 373.797 2126.72 378.496 Q2126.72 383.195 2128.64 385.88 Q2130.58 388.542 2133.96 388.542 Q2137.34 388.542 2139.26 385.88 Q2141.21 383.195 2141.21 378.496 Z" fill="#000000" fill-rule="nonzero" fill-opacity="1" /><path clip-path="url(#clip740)" d="M2152.69 365.51 L2156.95 365.51 L2156.95 391.436 L2152.69 391.436 L2152.69 365.51 M2152.69 355.417 L2156.95 355.417 L2156.95 360.811 L2152.69 360.811 L2152.69 355.417 Z" fill="#000000" fill-rule="nonzero" fill-opacity="1" /><path clip-path="url(#clip740)" d="M2162.8 365.51 L2167.32 365.51 L2175.42 387.269 L2183.52 365.51 L2188.03 365.51 L2178.31 391.436 L2172.53 391.436 L2162.8 365.51 Z" fill="#000000" fill-rule="nonzero" fill-opacity="1" /><path clip-path="url(#clip740)" d="M2203.96 368.496 Q2200.53 368.496 2198.54 371.181 Q2196.55 373.843 2196.55 378.496 Q2196.55 383.149 2198.52 385.834 Q2200.51 388.496 2203.96 388.496 Q2207.36 388.496 2209.35 385.811 Q2211.34 383.126 2211.34 378.496 Q2211.34 373.89 2209.35 371.204 Q2207.36 368.496 2203.96 368.496 M2203.96 364.885 Q2209.52 364.885 2212.69 368.496 Q2215.86 372.107 2215.86 378.496 Q2215.86 384.862 2212.69 388.496 Q2209.52 392.107 2203.96 392.107 Q2198.38 392.107 2195.21 388.496 Q2192.06 384.862 2192.06 378.496 Q2192.06 372.107 2195.21 368.496 Q2198.38 364.885 2203.96 364.885 Z" fill="#000000" fill-rule="nonzero" fill-opacity="1" /><path clip-path="url(#clip740)" d="M2227.13 358.149 L2227.13 365.51 L2235.9 365.51 L2235.9 368.82 L2227.13 368.82 L2227.13 382.894 Q2227.13 386.065 2227.99 386.968 Q2228.87 387.871 2231.53 387.871 L2235.9 387.871 L2235.9 391.436 L2231.53 391.436 Q2226.6 391.436 2224.72 389.607 Q2222.85 387.755 2222.85 382.894 L2222.85 368.82 L2219.72 368.82 L2219.72 365.51 L2222.85 365.51 L2222.85 358.149 L2227.13 358.149 Z" fill="#000000" fill-rule="nonzero" fill-opacity="1" /><path clip-path="url(#clip740)" d="M2258.03 366.274 L2258.03 370.302 Q2256.23 369.376 2254.28 368.913 Q2252.34 368.45 2250.26 368.45 Q2247.09 368.45 2245.49 369.422 Q2243.91 370.394 2243.91 372.339 Q2243.91 373.82 2245.05 374.677 Q2246.18 375.51 2249.61 376.274 L2251.07 376.598 Q2255.6 377.57 2257.5 379.352 Q2259.42 381.112 2259.42 384.283 Q2259.42 387.894 2256.55 390.001 Q2253.71 392.107 2248.71 392.107 Q2246.62 392.107 2244.35 391.69 Q2242.11 391.297 2239.61 390.487 L2239.61 386.089 Q2241.97 387.315 2244.26 387.94 Q2246.55 388.542 2248.8 388.542 Q2251.81 388.542 2253.43 387.524 Q2255.05 386.482 2255.05 384.607 Q2255.05 382.871 2253.87 381.945 Q2252.71 381.019 2248.75 380.163 L2247.27 379.815 Q2243.31 378.982 2241.55 377.269 Q2239.79 375.533 2239.79 372.524 Q2239.79 368.866 2242.39 366.876 Q2244.98 364.885 2249.75 364.885 Q2252.11 364.885 2254.19 365.232 Q2256.27 365.579 2258.03 366.274 Z" fill="#000000" fill-rule="nonzero" fill-opacity="1" /></svg>
