<?xml version="1.0" encoding="utf-8"?>
<svg xmlns="http://www.w3.org/2000/svg" xmlns:xlink="http://www.w3.org/1999/xlink" width="600" height="400" viewBox="0 0 2400 1600">
<defs>
  <clipPath id="clip660">
    <rect x="0" y="0" width="2400" height="1600"/>
  </clipPath>
</defs>
<path clip-path="url(#clip660)" d="M0 1600 L2400 1600 L2400 8.88178e-14 L0 8.88178e-14  Z" fill="#ffffff" fill-rule="evenodd" fill-opacity="1"/>
<defs>
  <clipPath id="clip661">
    <rect x="480" y="0" width="1681" height="1600"/>
  </clipPath>
</defs>
<path clip-path="url(#clip660)" d="M251.071 1423.18 L2352.76 1423.18 L2352.76 123.472 L251.071 123.472  Z" fill="#ffffff" fill-rule="evenodd" fill-opacity="1"/>
<defs>
  <clipPath id="clip662">
    <rect x="251" y="123" width="2103" height="1301"/>
  </clipPath>
</defs>
<polyline clip-path="url(#clip662)" style="stroke:#000000; stroke-linecap:round; stroke-linejoin:round; stroke-width:2; stroke-opacity:0.1; fill:none" points="457.421,1423.18 457.421,123.472 "/>
<polyline clip-path="url(#clip662)" style="stroke:#000000; stroke-linecap:round; stroke-linejoin:round; stroke-width:2; stroke-opacity:0.1; fill:none" points="824.592,1423.18 824.592,123.472 "/>
<polyline clip-path="url(#clip662)" style="stroke:#000000; stroke-linecap:round; stroke-linejoin:round; stroke-width:2; stroke-opacity:0.1; fill:none" points="1191.76,1423.18 1191.76,123.472 "/>
<polyline clip-path="url(#clip662)" style="stroke:#000000; stroke-linecap:round; stroke-linejoin:round; stroke-width:2; stroke-opacity:0.1; fill:none" points="1558.93,1423.18 1558.93,123.472 "/>
<polyline clip-path="url(#clip662)" style="stroke:#000000; stroke-linecap:round; stroke-linejoin:round; stroke-width:2; stroke-opacity:0.1; fill:none" points="1926.1,1423.18 1926.1,123.472 "/>
<polyline clip-path="url(#clip662)" style="stroke:#000000; stroke-linecap:round; stroke-linejoin:round; stroke-width:2; stroke-opacity:0.1; fill:none" points="2293.27,1423.18 2293.27,123.472 "/>
<polyline clip-path="url(#clip662)" style="stroke:#000000; stroke-linecap:round; stroke-linejoin:round; stroke-width:2; stroke-opacity:0.1; fill:none" points="251.071,1055.73 2352.76,1055.73 "/>
<polyline clip-path="url(#clip662)" style="stroke:#000000; stroke-linecap:round; stroke-linejoin:round; stroke-width:2; stroke-opacity:0.1; fill:none" points="251.071,339.764 2352.76,339.764 "/>
<polyline clip-path="url(#clip660)" style="stroke:#000000; stroke-linecap:round; stroke-linejoin:round; stroke-width:4; stroke-opacity:1; fill:none" points="251.071,1423.18 2352.76,1423.18 "/>
<polyline clip-path="url(#clip660)" style="stroke:#000000; stroke-linecap:round; stroke-linejoin:round; stroke-width:4; stroke-opacity:1; fill:none" points="457.421,1423.18 457.421,1404.28 "/>
<polyline clip-path="url(#clip660)" style="stroke:#000000; stroke-linecap:round; stroke-linejoin:round; stroke-width:4; stroke-opacity:1; fill:none" points="824.592,1423.18 824.592,1404.28 "/>
<polyline clip-path="url(#clip660)" style="stroke:#000000; stroke-linecap:round; stroke-linejoin:round; stroke-width:4; stroke-opacity:1; fill:none" points="1191.76,1423.18 1191.76,1404.28 "/>
<polyline clip-path="url(#clip660)" style="stroke:#000000; stroke-linecap:round; stroke-linejoin:round; stroke-width:4; stroke-opacity:1; fill:none" points="1558.93,1423.18 1558.93,1404.28 "/>
<polyline clip-path="url(#clip660)" style="stroke:#000000; stroke-linecap:round; stroke-linejoin:round; stroke-width:4; stroke-opacity:1; fill:none" points="1926.1,1423.18 1926.1,1404.28 "/>
<polyline clip-path="url(#clip660)" style="stroke:#000000; stroke-linecap:round; stroke-linejoin:round; stroke-width:4; stroke-opacity:1; fill:none" points="2293.27,1423.18 2293.27,1404.28 "/>
<path clip-path="url(#clip660)" d="M447.699 1451.02 L466.055 1451.02 L466.055 1454.96 L451.981 1454.96 L451.981 1463.43 Q453 1463.08 454.018 1462.92 Q455.037 1462.73 456.055 1462.73 Q461.842 1462.73 465.222 1465.9 Q468.602 1469.08 468.602 1474.49 Q468.602 1480.07 465.129 1483.17 Q461.657 1486.25 455.338 1486.25 Q453.162 1486.25 450.893 1485.88 Q448.648 1485.51 446.241 1484.77 L446.241 1480.07 Q448.324 1481.2 450.546 1481.76 Q452.768 1482.32 455.245 1482.32 Q459.25 1482.32 461.588 1480.21 Q463.926 1478.1 463.926 1474.49 Q463.926 1470.88 461.588 1468.77 Q459.25 1466.67 455.245 1466.67 Q453.37 1466.67 451.495 1467.08 Q449.643 1467.5 447.699 1468.38 L447.699 1451.02 Z" fill="#000000" fill-rule="nonzero" fill-opacity="1" /><path clip-path="url(#clip660)" d="M799.279 1481.64 L806.918 1481.64 L806.918 1455.28 L798.608 1456.95 L798.608 1452.69 L806.872 1451.02 L811.548 1451.02 L811.548 1481.64 L819.187 1481.64 L819.187 1485.58 L799.279 1485.58 L799.279 1481.64 Z" fill="#000000" fill-rule="nonzero" fill-opacity="1" /><path clip-path="url(#clip660)" d="M838.631 1454.1 Q835.02 1454.1 833.191 1457.66 Q831.386 1461.2 831.386 1468.33 Q831.386 1475.44 833.191 1479.01 Q835.02 1482.55 838.631 1482.55 Q842.265 1482.55 844.071 1479.01 Q845.9 1475.44 845.9 1468.33 Q845.9 1461.2 844.071 1457.66 Q842.265 1454.1 838.631 1454.1 M838.631 1450.39 Q844.441 1450.39 847.497 1455 Q850.575 1459.58 850.575 1468.33 Q850.575 1477.06 847.497 1481.67 Q844.441 1486.25 838.631 1486.25 Q832.821 1486.25 829.742 1481.67 Q826.687 1477.06 826.687 1468.33 Q826.687 1459.58 829.742 1455 Q832.821 1450.39 838.631 1450.39 Z" fill="#000000" fill-rule="nonzero" fill-opacity="1" /><path clip-path="url(#clip660)" d="M1166.95 1481.64 L1174.59 1481.64 L1174.59 1455.28 L1166.28 1456.95 L1166.28 1452.69 L1174.54 1451.02 L1179.22 1451.02 L1179.22 1481.64 L1186.86 1481.64 L1186.86 1485.58 L1166.95 1485.58 L1166.95 1481.64 Z" fill="#000000" fill-rule="nonzero" fill-opacity="1" /><path clip-path="url(#clip660)" d="M1196.35 1451.02 L1214.7 1451.02 L1214.7 1454.96 L1200.63 1454.96 L1200.63 1463.43 Q1201.65 1463.08 1202.67 1462.92 Q1203.68 1462.73 1204.7 1462.73 Q1210.49 1462.73 1213.87 1465.9 Q1217.25 1469.08 1217.25 1474.49 Q1217.25 1480.07 1213.78 1483.17 Q1210.3 1486.25 1203.98 1486.25 Q1201.81 1486.25 1199.54 1485.88 Q1197.29 1485.51 1194.89 1484.77 L1194.89 1480.07 Q1196.97 1481.2 1199.19 1481.76 Q1201.42 1482.32 1203.89 1482.32 Q1207.9 1482.32 1210.23 1480.21 Q1212.57 1478.1 1212.57 1474.49 Q1212.57 1470.88 1210.23 1468.77 Q1207.9 1466.67 1203.89 1466.67 Q1202.02 1466.67 1200.14 1467.08 Q1198.29 1467.5 1196.35 1468.38 L1196.35 1451.02 Z" fill="#000000" fill-rule="nonzero" fill-opacity="1" /><path clip-path="url(#clip660)" d="M1537.71 1481.64 L1554.03 1481.64 L1554.03 1485.58 L1532.08 1485.58 L1532.08 1481.64 Q1534.74 1478.89 1539.33 1474.26 Q1543.93 1469.61 1545.11 1468.27 Q1547.36 1465.74 1548.24 1464.01 Q1549.14 1462.25 1549.14 1460.56 Q1549.14 1457.8 1547.2 1456.07 Q1545.28 1454.33 1542.17 1454.33 Q1539.97 1454.33 1537.52 1455.09 Q1535.09 1455.86 1532.31 1457.41 L1532.31 1452.69 Q1535.14 1451.55 1537.59 1450.97 Q1540.04 1450.39 1542.08 1450.39 Q1547.45 1450.39 1550.65 1453.08 Q1553.84 1455.77 1553.84 1460.26 Q1553.84 1462.39 1553.03 1464.31 Q1552.24 1466.2 1550.14 1468.8 Q1549.56 1469.47 1546.46 1472.69 Q1543.35 1475.88 1537.71 1481.64 Z" fill="#000000" fill-rule="nonzero" fill-opacity="1" /><path clip-path="url(#clip660)" d="M1573.84 1454.1 Q1570.23 1454.1 1568.4 1457.66 Q1566.6 1461.2 1566.6 1468.33 Q1566.6 1475.44 1568.4 1479.01 Q1570.23 1482.55 1573.84 1482.55 Q1577.47 1482.55 1579.28 1479.01 Q1581.11 1475.44 1581.11 1468.33 Q1581.11 1461.2 1579.28 1457.66 Q1577.47 1454.1 1573.84 1454.1 M1573.84 1450.39 Q1579.65 1450.39 1582.71 1455 Q1585.78 1459.58 1585.78 1468.33 Q1585.78 1477.06 1582.71 1481.67 Q1579.65 1486.25 1573.84 1486.25 Q1568.03 1486.25 1564.95 1481.67 Q1561.9 1477.06 1561.9 1468.33 Q1561.9 1459.58 1564.95 1455 Q1568.03 1450.39 1573.84 1450.39 Z" fill="#000000" fill-rule="nonzero" fill-opacity="1" /><path clip-path="url(#clip660)" d="M1905.37 1481.64 L1921.69 1481.64 L1921.69 1485.58 L1899.75 1485.58 L1899.75 1481.64 Q1902.41 1478.89 1906.99 1474.26 Q1911.6 1469.61 1912.78 1468.27 Q1915.03 1465.74 1915.91 1464.01 Q1916.81 1462.25 1916.81 1460.56 Q1916.81 1457.8 1914.87 1456.07 Q1912.94 1454.33 1909.84 1454.33 Q1907.64 1454.33 1905.19 1455.09 Q1902.76 1455.86 1899.98 1457.41 L1899.98 1452.69 Q1902.81 1451.55 1905.26 1450.97 Q1907.71 1450.39 1909.75 1450.39 Q1915.12 1450.39 1918.31 1453.08 Q1921.51 1455.77 1921.51 1460.26 Q1921.51 1462.39 1920.7 1464.31 Q1919.91 1466.2 1917.81 1468.8 Q1917.23 1469.47 1914.12 1472.69 Q1911.02 1475.88 1905.37 1481.64 Z" fill="#000000" fill-rule="nonzero" fill-opacity="1" /><path clip-path="url(#clip660)" d="M1931.55 1451.02 L1949.91 1451.02 L1949.91 1454.96 L1935.84 1454.96 L1935.84 1463.43 Q1936.86 1463.08 1937.87 1462.92 Q1938.89 1462.73 1939.91 1462.73 Q1945.7 1462.73 1949.08 1465.9 Q1952.46 1469.08 1952.46 1474.49 Q1952.46 1480.07 1948.99 1483.17 Q1945.51 1486.25 1939.19 1486.25 Q1937.02 1486.25 1934.75 1485.88 Q1932.5 1485.51 1930.1 1484.77 L1930.1 1480.07 Q1932.18 1481.2 1934.4 1481.76 Q1936.62 1482.32 1939.1 1482.32 Q1943.11 1482.32 1945.44 1480.21 Q1947.78 1478.1 1947.78 1474.49 Q1947.78 1470.88 1945.44 1468.77 Q1943.11 1466.67 1939.1 1466.67 Q1937.23 1466.67 1935.35 1467.08 Q1933.5 1467.5 1931.55 1468.38 L1931.55 1451.02 Z" fill="#000000" fill-rule="nonzero" fill-opacity="1" /><path clip-path="url(#clip660)" d="M2282.12 1466.95 Q2285.47 1467.66 2287.35 1469.93 Q2289.25 1472.2 2289.25 1475.53 Q2289.25 1480.65 2285.73 1483.45 Q2282.21 1486.25 2275.73 1486.25 Q2273.55 1486.25 2271.24 1485.81 Q2268.95 1485.39 2266.49 1484.54 L2266.49 1480.02 Q2268.44 1481.16 2270.75 1481.74 Q2273.07 1482.32 2275.59 1482.32 Q2279.99 1482.32 2282.28 1480.58 Q2284.59 1478.84 2284.59 1475.53 Q2284.59 1472.48 2282.44 1470.77 Q2280.31 1469.03 2276.49 1469.03 L2272.46 1469.03 L2272.46 1465.19 L2276.68 1465.19 Q2280.13 1465.19 2281.95 1463.82 Q2283.78 1462.43 2283.78 1459.84 Q2283.78 1457.18 2281.89 1455.77 Q2280.01 1454.33 2276.49 1454.33 Q2274.57 1454.33 2272.37 1454.75 Q2270.17 1455.16 2267.53 1456.04 L2267.53 1451.88 Q2270.2 1451.14 2272.51 1450.77 Q2274.85 1450.39 2276.91 1450.39 Q2282.23 1450.39 2285.33 1452.83 Q2288.44 1455.23 2288.44 1459.35 Q2288.44 1462.22 2286.79 1464.21 Q2285.15 1466.18 2282.12 1466.95 Z" fill="#000000" fill-rule="nonzero" fill-opacity="1" /><path clip-path="url(#clip660)" d="M2308.11 1454.1 Q2304.5 1454.1 2302.67 1457.66 Q2300.87 1461.2 2300.87 1468.33 Q2300.87 1475.44 2302.67 1479.01 Q2304.5 1482.55 2308.11 1482.55 Q2311.75 1482.55 2313.55 1479.01 Q2315.38 1475.44 2315.38 1468.33 Q2315.38 1461.2 2313.55 1457.66 Q2311.75 1454.1 2308.11 1454.1 M2308.11 1450.39 Q2313.92 1450.39 2316.98 1455 Q2320.06 1459.58 2320.06 1468.33 Q2320.06 1477.06 2316.98 1481.67 Q2313.92 1486.25 2308.11 1486.25 Q2302.3 1486.25 2299.22 1481.67 Q2296.17 1477.06 2296.17 1468.33 Q2296.17 1459.58 2299.22 1455 Q2302.3 1450.39 2308.11 1450.39 Z" fill="#000000" fill-rule="nonzero" fill-opacity="1" /><path clip-path="url(#clip660)" d="M962.892 1520.52 L972.472 1520.52 L984.599 1552.86 L996.789 1520.52 L1006.37 1520.52 L1006.37 1568.04 L1000.1 1568.04 L1000.1 1526.32 L987.846 1558.91 L981.384 1558.91 L969.13 1526.32 L969.13 1568.04 L962.892 1568.04 L962.892 1520.52 Z" fill="#000000" fill-rule="nonzero" fill-opacity="1" /><path clip-path="url(#clip660)" d="M1035.08 1550.12 Q1027.98 1550.12 1025.24 1551.75 Q1022.51 1553.37 1022.51 1557.29 Q1022.51 1560.4 1024.54 1562.25 Q1026.61 1564.07 1030.15 1564.07 Q1035.02 1564.07 1037.94 1560.63 Q1040.9 1557.16 1040.9 1551.43 L1040.9 1550.12 L1035.08 1550.12 M1046.76 1547.71 L1046.76 1568.04 L1040.9 1568.04 L1040.9 1562.63 Q1038.9 1565.88 1035.91 1567.44 Q1032.91 1568.97 1028.59 1568.97 Q1023.11 1568.97 1019.87 1565.91 Q1016.65 1562.82 1016.65 1557.67 Q1016.65 1551.65 1020.66 1548.6 Q1024.7 1545.54 1032.69 1545.54 L1040.9 1545.54 L1040.9 1544.97 Q1040.9 1540.93 1038.23 1538.73 Q1035.59 1536.5 1030.78 1536.5 Q1027.73 1536.5 1024.83 1537.23 Q1021.93 1537.97 1019.26 1539.43 L1019.26 1534.02 Q1022.47 1532.78 1025.5 1532.17 Q1028.52 1531.54 1031.39 1531.54 Q1039.12 1531.54 1042.94 1535.55 Q1046.76 1539.56 1046.76 1547.71 Z" fill="#000000" fill-rule="nonzero" fill-opacity="1" /><path clip-path="url(#clip660)" d="M1088.46 1532.4 L1075.56 1549.74 L1089.12 1568.04 L1082.22 1568.04 L1071.84 1554.04 L1061.46 1568.04 L1054.56 1568.04 L1068.4 1549.39 L1055.74 1532.4 L1062.64 1532.4 L1072.1 1545.1 L1081.55 1532.4 L1088.46 1532.4 Z" fill="#000000" fill-rule="nonzero" fill-opacity="1" /><path clip-path="url(#clip660)" d="M1124.8 1545.35 L1124.8 1562.76 L1135.12 1562.76 Q1140.3 1562.76 1142.79 1560.63 Q1145.3 1558.46 1145.3 1554.04 Q1145.3 1549.58 1142.79 1547.48 Q1140.3 1545.35 1135.12 1545.35 L1124.8 1545.35 M1124.8 1525.81 L1124.8 1540.13 L1134.32 1540.13 Q1139.03 1540.13 1141.32 1538.38 Q1143.65 1536.6 1143.65 1532.97 Q1143.65 1529.37 1141.32 1527.59 Q1139.03 1525.81 1134.32 1525.81 L1124.8 1525.81 M1118.37 1520.52 L1134.8 1520.52 Q1142.15 1520.52 1146.13 1523.58 Q1150.11 1526.63 1150.11 1532.27 Q1150.11 1536.63 1148.07 1539.21 Q1146.03 1541.79 1142.09 1542.42 Q1146.83 1543.44 1149.44 1546.69 Q1152.08 1549.9 1152.08 1554.74 Q1152.08 1561.11 1147.75 1564.57 Q1143.42 1568.04 1135.43 1568.04 L1118.37 1568.04 L1118.37 1520.52 Z" fill="#000000" fill-rule="nonzero" fill-opacity="1" /><path clip-path="url(#clip660)" d="M1176.65 1536.5 Q1171.94 1536.5 1169.2 1540.19 Q1166.47 1543.85 1166.47 1550.25 Q1166.47 1556.65 1169.17 1560.34 Q1171.91 1564 1176.65 1564 Q1181.33 1564 1184.07 1560.31 Q1186.81 1556.62 1186.81 1550.25 Q1186.81 1543.92 1184.07 1540.23 Q1181.33 1536.5 1176.65 1536.5 M1176.65 1531.54 Q1184.29 1531.54 1188.65 1536.5 Q1193.01 1541.47 1193.01 1550.25 Q1193.01 1559 1188.65 1564 Q1184.29 1568.97 1176.65 1568.97 Q1168.98 1568.97 1164.62 1564 Q1160.29 1559 1160.29 1550.25 Q1160.29 1541.47 1164.62 1536.5 Q1168.98 1531.54 1176.65 1531.54 Z" fill="#000000" fill-rule="nonzero" fill-opacity="1" /><path clip-path="url(#clip660)" d="M1232.35 1546.53 L1232.35 1568.04 L1226.5 1568.04 L1226.5 1546.72 Q1226.5 1541.66 1224.52 1539.14 Q1222.55 1536.63 1218.6 1536.63 Q1213.86 1536.63 1211.12 1539.65 Q1208.39 1542.68 1208.39 1547.9 L1208.39 1568.04 L1202.5 1568.04 L1202.5 1532.4 L1208.39 1532.4 L1208.39 1537.93 Q1210.49 1534.72 1213.32 1533.13 Q1216.18 1531.54 1219.91 1531.54 Q1226.05 1531.54 1229.2 1535.36 Q1232.35 1539.14 1232.35 1546.53 Z" fill="#000000" fill-rule="nonzero" fill-opacity="1" /><path clip-path="url(#clip660)" d="M1267.49 1537.81 L1267.49 1518.52 L1273.35 1518.52 L1273.35 1568.04 L1267.49 1568.04 L1267.49 1562.7 Q1265.64 1565.88 1262.81 1567.44 Q1260.01 1568.97 1256.06 1568.97 Q1249.6 1568.97 1245.53 1563.81 Q1241.49 1558.65 1241.49 1550.25 Q1241.49 1541.85 1245.53 1536.69 Q1249.6 1531.54 1256.06 1531.54 Q1260.01 1531.54 1262.81 1533.1 Q1265.64 1534.62 1267.49 1537.81 M1247.53 1550.25 Q1247.53 1556.71 1250.18 1560.4 Q1252.85 1564.07 1257.5 1564.07 Q1262.14 1564.07 1264.82 1560.4 Q1267.49 1556.71 1267.49 1550.25 Q1267.49 1543.79 1264.82 1540.13 Q1262.14 1536.44 1257.5 1536.44 Q1252.85 1536.44 1250.18 1540.13 Q1247.53 1543.79 1247.53 1550.25 Z" fill="#000000" fill-rule="nonzero" fill-opacity="1" /><path clip-path="url(#clip660)" d="M1312.81 1525.81 L1312.81 1562.76 L1320.58 1562.76 Q1330.42 1562.76 1334.97 1558.3 Q1339.55 1553.85 1339.55 1544.24 Q1339.55 1534.69 1334.97 1530.26 Q1330.42 1525.81 1320.58 1525.81 L1312.81 1525.81 M1306.39 1520.52 L1319.59 1520.52 Q1333.41 1520.52 1339.87 1526.28 Q1346.33 1532.01 1346.33 1544.24 Q1346.33 1556.52 1339.84 1562.28 Q1333.34 1568.04 1319.59 1568.04 L1306.39 1568.04 L1306.39 1520.52 Z" fill="#000000" fill-rule="nonzero" fill-opacity="1" /><path clip-path="url(#clip660)" d="M1356.32 1532.4 L1362.18 1532.4 L1362.18 1568.04 L1356.32 1568.04 L1356.32 1532.4 M1356.32 1518.52 L1362.18 1518.52 L1362.18 1525.93 L1356.32 1525.93 L1356.32 1518.52 Z" fill="#000000" fill-rule="nonzero" fill-opacity="1" /><path clip-path="url(#clip660)" d="M1402.19 1539.24 Q1404.39 1535.29 1407.44 1533.41 Q1410.5 1531.54 1414.63 1531.54 Q1420.2 1531.54 1423.23 1535.45 Q1426.25 1539.33 1426.25 1546.53 L1426.25 1568.04 L1420.36 1568.04 L1420.36 1546.72 Q1420.36 1541.59 1418.55 1539.11 Q1416.74 1536.63 1413.01 1536.63 Q1408.46 1536.63 1405.82 1539.65 Q1403.18 1542.68 1403.18 1547.9 L1403.18 1568.04 L1397.29 1568.04 L1397.29 1546.72 Q1397.29 1541.56 1395.47 1539.11 Q1393.66 1536.63 1389.87 1536.63 Q1385.38 1536.63 1382.74 1539.68 Q1380.1 1542.71 1380.1 1547.9 L1380.1 1568.04 L1374.21 1568.04 L1374.21 1532.4 L1380.1 1532.4 L1380.1 1537.93 Q1382.11 1534.66 1384.91 1533.1 Q1387.71 1531.54 1391.56 1531.54 Q1395.44 1531.54 1398.15 1533.51 Q1400.88 1535.48 1402.19 1539.24 Z" fill="#000000" fill-rule="nonzero" fill-opacity="1" /><path clip-path="url(#clip660)" d="M1468.42 1548.76 L1468.42 1551.62 L1441.5 1551.62 Q1441.88 1557.67 1445.13 1560.85 Q1448.4 1564 1454.23 1564 Q1457.6 1564 1460.75 1563.17 Q1463.94 1562.35 1467.06 1560.69 L1467.06 1566.23 Q1463.9 1567.57 1460.59 1568.27 Q1457.28 1568.97 1453.88 1568.97 Q1445.35 1568.97 1440.35 1564 Q1435.39 1559.04 1435.39 1550.57 Q1435.39 1541.82 1440.1 1536.69 Q1444.84 1531.54 1452.86 1531.54 Q1460.05 1531.54 1464.22 1536.18 Q1468.42 1540.8 1468.42 1548.76 M1462.57 1547.04 Q1462.5 1542.23 1459.86 1539.37 Q1457.25 1536.5 1452.92 1536.5 Q1448.02 1536.5 1445.06 1539.27 Q1442.13 1542.04 1441.69 1547.07 L1462.57 1547.04 Z" fill="#000000" fill-rule="nonzero" fill-opacity="1" /><path clip-path="url(#clip660)" d="M1507.67 1546.53 L1507.67 1568.04 L1501.81 1568.04 L1501.81 1546.72 Q1501.81 1541.66 1499.84 1539.14 Q1497.87 1536.63 1493.92 1536.63 Q1489.18 1536.63 1486.44 1539.65 Q1483.7 1542.68 1483.7 1547.9 L1483.7 1568.04 L1477.81 1568.04 L1477.81 1532.4 L1483.7 1532.4 L1483.7 1537.93 Q1485.8 1534.72 1488.64 1533.13 Q1491.5 1531.54 1495.22 1531.54 Q1501.37 1531.54 1504.52 1535.36 Q1507.67 1539.14 1507.67 1546.53 Z" fill="#000000" fill-rule="nonzero" fill-opacity="1" /><path clip-path="url(#clip660)" d="M1542.08 1533.45 L1542.08 1538.98 Q1539.59 1537.71 1536.92 1537.07 Q1534.25 1536.44 1531.38 1536.44 Q1527.02 1536.44 1524.82 1537.77 Q1522.66 1539.11 1522.66 1541.79 Q1522.66 1543.82 1524.22 1545 Q1525.78 1546.15 1530.49 1547.2 L1532.5 1547.64 Q1538.73 1548.98 1541.34 1551.43 Q1543.99 1553.85 1543.99 1558.21 Q1543.99 1563.17 1540.04 1566.07 Q1536.12 1568.97 1529.25 1568.97 Q1526.38 1568.97 1523.27 1568.39 Q1520.18 1567.85 1516.74 1566.74 L1516.74 1560.69 Q1519.99 1562.38 1523.14 1563.24 Q1526.29 1564.07 1529.38 1564.07 Q1533.51 1564.07 1535.74 1562.66 Q1537.97 1561.23 1537.97 1558.65 Q1537.97 1556.27 1536.35 1554.99 Q1534.76 1553.72 1529.31 1552.54 L1527.28 1552.07 Q1521.83 1550.92 1519.41 1548.56 Q1516.99 1546.18 1516.99 1542.04 Q1516.99 1537.01 1520.56 1534.27 Q1524.12 1531.54 1530.68 1531.54 Q1533.93 1531.54 1536.79 1532.01 Q1539.66 1532.49 1542.08 1533.45 Z" fill="#000000" fill-rule="nonzero" fill-opacity="1" /><path clip-path="url(#clip660)" d="M1553.31 1532.4 L1559.17 1532.4 L1559.17 1568.04 L1553.31 1568.04 L1553.31 1532.4 M1553.31 1518.52 L1559.17 1518.52 L1559.17 1525.93 L1553.31 1525.93 L1553.31 1518.52 Z" fill="#000000" fill-rule="nonzero" fill-opacity="1" /><path clip-path="url(#clip660)" d="M1585.24 1536.5 Q1580.52 1536.5 1577.79 1540.19 Q1575.05 1543.85 1575.05 1550.25 Q1575.05 1556.65 1577.76 1560.34 Q1580.49 1564 1585.24 1564 Q1589.91 1564 1592.65 1560.31 Q1595.39 1556.62 1595.39 1550.25 Q1595.39 1543.92 1592.65 1540.23 Q1589.91 1536.5 1585.24 1536.5 M1585.24 1531.54 Q1592.87 1531.54 1597.23 1536.5 Q1601.6 1541.47 1601.6 1550.25 Q1601.6 1559 1597.23 1564 Q1592.87 1568.97 1585.24 1568.97 Q1577.56 1568.97 1573.2 1564 Q1568.88 1559 1568.88 1550.25 Q1568.88 1541.47 1573.2 1536.5 Q1577.56 1531.54 1585.24 1531.54 Z" fill="#000000" fill-rule="nonzero" fill-opacity="1" /><path clip-path="url(#clip660)" d="M1640.94 1546.53 L1640.94 1568.04 L1635.08 1568.04 L1635.08 1546.72 Q1635.08 1541.66 1633.11 1539.14 Q1631.13 1536.63 1627.19 1536.63 Q1622.44 1536.63 1619.71 1539.65 Q1616.97 1542.68 1616.97 1547.9 L1616.97 1568.04 L1611.08 1568.04 L1611.08 1532.4 L1616.97 1532.4 L1616.97 1537.93 Q1619.07 1534.72 1621.9 1533.13 Q1624.77 1531.54 1628.49 1531.54 Q1634.63 1531.54 1637.78 1535.36 Q1640.94 1539.14 1640.94 1546.53 Z" fill="#000000" fill-rule="nonzero" fill-opacity="1" /><polyline clip-path="url(#clip660)" style="stroke:#000000; stroke-linecap:round; stroke-linejoin:round; stroke-width:4; stroke-opacity:1; fill:none" points="251.071,1423.18 251.071,123.472 "/>
<polyline clip-path="url(#clip660)" style="stroke:#000000; stroke-linecap:round; stroke-linejoin:round; stroke-width:4; stroke-opacity:1; fill:none" points="251.071,1055.73 269.969,1055.73 "/>
<polyline clip-path="url(#clip660)" style="stroke:#000000; stroke-linecap:round; stroke-linejoin:round; stroke-width:4; stroke-opacity:1; fill:none" points="251.071,339.764 269.969,339.764 "/>
<path clip-path="url(#clip660)" d="M114.931 1075.52 L122.57 1075.52 L122.57 1049.15 L114.26 1050.82 L114.26 1046.56 L122.524 1044.89 L127.2 1044.89 L127.2 1075.52 L134.839 1075.52 L134.839 1079.45 L114.931 1079.45 L114.931 1075.52 Z" fill="#000000" fill-rule="nonzero" fill-opacity="1" /><path clip-path="url(#clip660)" d="M154.283 1047.97 Q150.672 1047.97 148.843 1051.54 Q147.038 1055.08 147.038 1062.21 Q147.038 1069.32 148.843 1072.88 Q150.672 1076.42 154.283 1076.42 Q157.917 1076.42 159.723 1072.88 Q161.552 1069.32 161.552 1062.21 Q161.552 1055.08 159.723 1051.54 Q157.917 1047.97 154.283 1047.97 M154.283 1044.27 Q160.093 1044.27 163.149 1048.88 Q166.227 1053.46 166.227 1062.21 Q166.227 1070.94 163.149 1075.54 Q160.093 1080.13 154.283 1080.13 Q148.473 1080.13 145.394 1075.54 Q142.339 1070.94 142.339 1062.21 Q142.339 1053.46 145.394 1048.88 Q148.473 1044.27 154.283 1044.27 Z" fill="#000000" fill-rule="nonzero" fill-opacity="1" /><path clip-path="url(#clip660)" d="M166.227 1038.37 L190.339 1038.37 L190.339 1041.57 L166.227 1041.57 L166.227 1038.37 Z" fill="#000000" fill-rule="nonzero" fill-opacity="1" /><path clip-path="url(#clip660)" d="M201.812 1048.85 L215.071 1048.85 L215.071 1052.04 L197.241 1052.04 L197.241 1048.85 Q199.404 1046.61 203.128 1042.85 Q206.871 1039.07 207.83 1037.98 Q209.655 1035.93 210.369 1034.52 Q211.103 1033.09 211.103 1031.71 Q211.103 1029.47 209.523 1028.06 Q207.962 1026.65 205.442 1026.65 Q203.655 1026.65 201.661 1027.27 Q199.686 1027.9 197.43 1029.16 L197.43 1025.32 Q199.724 1024.4 201.718 1023.93 Q203.711 1023.46 205.366 1023.46 Q209.73 1023.46 212.325 1025.64 Q214.921 1027.82 214.921 1031.47 Q214.921 1033.2 214.263 1034.76 Q213.623 1036.3 211.912 1038.41 Q211.441 1038.95 208.921 1041.57 Q206.401 1044.16 201.812 1048.85 Z" fill="#000000" fill-rule="nonzero" fill-opacity="1" /><path clip-path="url(#clip660)" d="M144.366 359.556 L152.004 359.556 L152.004 333.191 L143.694 334.858 L143.694 330.598 L151.958 328.932 L156.634 328.932 L156.634 359.556 L164.273 359.556 L164.273 363.492 L144.366 363.492 L144.366 359.556 Z" fill="#000000" fill-rule="nonzero" fill-opacity="1" /><path clip-path="url(#clip660)" d="M183.717 332.01 Q180.106 332.01 178.277 335.575 Q176.472 339.117 176.472 346.246 Q176.472 353.353 178.277 356.918 Q180.106 360.459 183.717 360.459 Q187.351 360.459 189.157 356.918 Q190.986 353.353 190.986 346.246 Q190.986 339.117 189.157 335.575 Q187.351 332.01 183.717 332.01 M183.717 328.307 Q189.527 328.307 192.583 332.913 Q195.662 337.496 195.662 346.246 Q195.662 354.973 192.583 359.58 Q189.527 364.163 183.717 364.163 Q177.907 364.163 174.828 359.58 Q171.773 354.973 171.773 346.246 Q171.773 337.496 174.828 332.913 Q177.907 328.307 183.717 328.307 Z" fill="#000000" fill-rule="nonzero" fill-opacity="1" /><path clip-path="url(#clip660)" d="M205.366 310.503 Q202.432 310.503 200.947 313.399 Q199.48 316.277 199.48 322.069 Q199.48 327.843 200.947 330.74 Q202.432 333.617 205.366 333.617 Q208.319 333.617 209.786 330.74 Q211.272 327.843 211.272 322.069 Q211.272 316.277 209.786 313.399 Q208.319 310.503 205.366 310.503 M205.366 307.493 Q210.087 307.493 212.57 311.236 Q215.071 314.96 215.071 322.069 Q215.071 329.16 212.57 332.903 Q210.087 336.627 205.366 336.627 Q200.646 336.627 198.144 332.903 Q195.662 329.16 195.662 322.069 Q195.662 314.96 198.144 311.236 Q200.646 307.493 205.366 307.493 Z" fill="#000000" fill-rule="nonzero" fill-opacity="1" /><path clip-path="url(#clip660)" d="M18.0438 1022.54 L24.314 1022.54 Q22.5634 1026.2 21.704 1029.45 Q20.8447 1032.7 20.8447 1035.72 Q20.8447 1040.97 22.8817 1043.84 Q24.9187 1046.67 28.6745 1046.67 Q31.8255 1046.67 33.4488 1044.79 Q35.0402 1042.88 36.0269 1037.6 L36.8226 1033.72 Q38.1912 1026.52 41.6605 1023.12 Q45.098 1019.68 50.8908 1019.68 Q57.7976 1019.68 61.3624 1024.33 Q64.9272 1028.94 64.9272 1037.88 Q64.9272 1041.26 64.1633 1045.08 Q63.3994 1048.87 61.9035 1052.94 L55.2831 1052.94 Q57.4793 1049.02 58.5933 1045.27 Q59.7073 1041.51 59.7073 1037.88 Q59.7073 1032.38 57.543 1029.39 Q55.3786 1026.39 51.3682 1026.39 Q47.8671 1026.39 45.8937 1028.56 Q43.9204 1030.69 42.9337 1035.59 L42.1698 1039.51 Q40.7375 1046.7 37.682 1049.92 Q34.6264 1053.13 29.1837 1053.13 Q22.8817 1053.13 19.2532 1048.71 Q15.6248 1044.25 15.6248 1036.45 Q15.6248 1033.11 16.2295 1029.64 Q16.8343 1026.17 18.0438 1022.54 Z" fill="#000000" fill-rule="nonzero" fill-opacity="1" /><path clip-path="url(#clip660)" d="M46.0847 993.707 Q46.0847 1000.8 47.7079 1003.54 Q49.3312 1006.28 53.2461 1006.28 Q56.3653 1006.28 58.2114 1004.24 Q60.0256 1002.17 60.0256 998.64 Q60.0256 993.77 56.5881 990.842 Q53.1188 987.882 47.3897 987.882 L46.0847 987.882 L46.0847 993.707 M43.6657 982.026 L64.0042 982.026 L64.0042 987.882 L58.5933 987.882 Q61.8398 989.887 63.3994 992.879 Q64.9272 995.871 64.9272 1000.2 Q64.9272 1005.67 61.8716 1008.92 Q58.7843 1012.14 53.6281 1012.14 Q47.6125 1012.14 44.5569 1008.13 Q41.5014 1004.08 41.5014 996.094 L41.5014 987.882 L40.9285 987.882 Q36.8862 987.882 34.6901 990.556 Q32.4621 993.197 32.4621 998.004 Q32.4621 1001.06 33.1941 1003.96 Q33.9262 1006.85 35.3903 1009.53 L29.9795 1009.53 Q28.7381 1006.31 28.1334 1003.29 Q27.4968 1000.26 27.4968 997.399 Q27.4968 989.665 31.5072 985.845 Q35.5176 982.026 43.6657 982.026 Z" fill="#000000" fill-rule="nonzero" fill-opacity="1" /><path clip-path="url(#clip660)" d="M35.1993 942.208 Q31.2526 940.012 29.3747 936.956 Q27.4968 933.901 27.4968 929.763 Q27.4968 924.193 31.4117 921.17 Q35.2948 918.146 42.4881 918.146 L64.0042 918.146 L64.0042 924.034 L42.679 924.034 Q37.5546 924.034 35.072 925.848 Q32.5894 927.663 32.5894 931.386 Q32.5894 935.938 35.6131 938.58 Q38.6368 941.221 43.8567 941.221 L64.0042 941.221 L64.0042 947.11 L42.679 947.11 Q37.5228 947.11 35.072 948.924 Q32.5894 950.738 32.5894 954.526 Q32.5894 959.014 35.6449 961.655 Q38.6686 964.297 43.8567 964.297 L64.0042 964.297 L64.0042 970.185 L28.3562 970.185 L28.3562 964.297 L33.8944 964.297 Q30.616 962.292 29.0564 959.491 Q27.4968 956.69 27.4968 952.839 Q27.4968 948.956 29.4702 946.25 Q31.4436 943.513 35.1993 942.208 Z" fill="#000000" fill-rule="nonzero" fill-opacity="1" /><path clip-path="url(#clip660)" d="M58.657 900.799 L77.5631 900.799 L77.5631 906.688 L28.3562 906.688 L28.3562 900.799 L33.7671 900.799 Q30.5842 898.953 29.0564 896.152 Q27.4968 893.32 27.4968 889.405 Q27.4968 882.912 32.6531 878.869 Q37.8093 874.795 46.212 874.795 Q54.6147 874.795 59.771 878.869 Q64.9272 882.912 64.9272 889.405 Q64.9272 893.32 63.3994 896.152 Q61.8398 898.953 58.657 900.799 M46.212 880.875 Q39.7508 880.875 36.0905 883.548 Q32.3984 886.19 32.3984 890.837 Q32.3984 895.484 36.0905 898.157 Q39.7508 900.799 46.212 900.799 Q52.6732 900.799 56.3653 898.157 Q60.0256 895.484 60.0256 890.837 Q60.0256 886.19 56.3653 883.548 Q52.6732 880.875 46.212 880.875 Z" fill="#000000" fill-rule="nonzero" fill-opacity="1" /><path clip-path="url(#clip660)" d="M14.479 865.088 L14.479 859.231 L64.0042 859.231 L64.0042 865.088 L14.479 865.088 Z" fill="#000000" fill-rule="nonzero" fill-opacity="1" /><path clip-path="url(#clip660)" d="M44.7161 816.485 L47.5806 816.485 L47.5806 843.412 Q53.6281 843.03 56.8109 839.784 Q59.9619 836.506 59.9619 830.681 Q59.9619 827.307 59.1344 824.156 Q58.3069 820.973 56.6518 817.854 L62.1899 817.854 Q63.5267 821.005 64.227 824.315 Q64.9272 827.625 64.9272 831.031 Q64.9272 839.561 59.9619 844.558 Q54.9967 849.523 46.5303 849.523 Q37.7774 849.523 32.6531 844.813 Q27.4968 840.07 27.4968 832.05 Q27.4968 824.856 32.1438 820.687 Q36.7589 816.485 44.7161 816.485 M42.9973 822.342 Q38.1912 822.406 35.3266 825.047 Q32.4621 827.657 32.4621 831.986 Q32.4621 836.888 35.2312 839.848 Q38.0002 842.776 43.0292 843.221 L42.9973 822.342 Z" fill="#000000" fill-rule="nonzero" fill-opacity="1" /><path clip-path="url(#clip660)" d="M33.7671 783.416 L14.479 783.416 L14.479 777.559 L64.0042 777.559 L64.0042 783.416 L58.657 783.416 Q61.8398 785.262 63.3994 788.094 Q64.9272 790.895 64.9272 794.842 Q64.9272 801.303 59.771 805.377 Q54.6147 809.42 46.212 809.42 Q37.8093 809.42 32.6531 805.377 Q27.4968 801.303 27.4968 794.842 Q27.4968 790.895 29.0564 788.094 Q30.5842 785.262 33.7671 783.416 M46.212 803.372 Q52.6732 803.372 56.3653 800.73 Q60.0256 798.057 60.0256 793.41 Q60.0256 788.763 56.3653 786.089 Q52.6732 783.416 46.212 783.416 Q39.7508 783.416 36.0905 786.089 Q32.3984 788.763 32.3984 793.41 Q32.3984 798.057 36.0905 800.73 Q39.7508 803.372 46.212 803.372 Z" fill="#000000" fill-rule="nonzero" fill-opacity="1" /><path clip-path="url(#clip660)" d="M16.4842 744.521 L16.4842 738.092 L58.5933 738.092 L58.5933 714.952 L64.0042 714.952 L64.0042 744.521 L16.4842 744.521 Z" fill="#000000" fill-rule="nonzero" fill-opacity="1" /><path clip-path="url(#clip660)" d="M58.5933 706.518 L58.5933 696.014 L22.3406 696.014 L24.6323 707.441 L18.7758 707.441 L16.4842 696.078 L16.4842 689.649 L58.5933 689.649 L58.5933 679.145 L64.0042 679.145 L64.0042 706.518 L58.5933 706.518 Z" fill="#000000" fill-rule="nonzero" fill-opacity="1" /><path clip-path="url(#clip660)" d="M16.4842 646.012 L16.4842 615.966 L21.895 615.966 L21.895 639.582 L35.9632 639.582 L35.9632 616.952 L41.3741 616.952 L41.3741 639.582 L58.5933 639.582 L58.5933 615.393 L64.0042 615.393 L64.0042 646.012 L16.4842 646.012 Z" fill="#000000" fill-rule="nonzero" fill-opacity="1" /><path clip-path="url(#clip660)" d="M33.8307 584.424 Q33.2578 585.41 33.0032 586.588 Q32.7167 587.734 32.7167 589.134 Q32.7167 594.1 35.9632 596.773 Q39.1779 599.415 45.2253 599.415 L64.0042 599.415 L64.0042 605.303 L28.3562 605.303 L28.3562 599.415 L33.8944 599.415 Q30.6479 597.569 29.0883 594.609 Q27.4968 591.649 27.4968 587.416 Q27.4968 586.811 27.5923 586.079 Q27.656 585.347 27.8151 584.455 L33.8307 584.424 Z" fill="#000000" fill-rule="nonzero" fill-opacity="1" /><path clip-path="url(#clip660)" d="M33.8307 558.77 Q33.2578 559.757 33.0032 560.934 Q32.7167 562.08 32.7167 563.48 Q32.7167 568.446 35.9632 571.119 Q39.1779 573.761 45.2253 573.761 L64.0042 573.761 L64.0042 579.649 L28.3562 579.649 L28.3562 573.761 L33.8944 573.761 Q30.6479 571.915 29.0883 568.955 Q27.4968 565.995 27.4968 561.762 Q27.4968 561.157 27.5923 560.425 Q27.656 559.693 27.8151 558.802 L33.8307 558.77 Z" fill="#000000" fill-rule="nonzero" fill-opacity="1" /><path clip-path="url(#clip660)" d="M32.4621 540.246 Q32.4621 544.956 36.1542 547.694 Q39.8145 550.431 46.212 550.431 Q52.6095 550.431 56.3017 547.725 Q59.9619 544.988 59.9619 540.246 Q59.9619 535.567 56.2698 532.83 Q52.5777 530.092 46.212 530.092 Q39.8781 530.092 36.186 532.83 Q32.4621 535.567 32.4621 540.246 M27.4968 540.246 Q27.4968 532.607 32.4621 528.246 Q37.4273 523.886 46.212 523.886 Q54.9649 523.886 59.9619 528.246 Q64.9272 532.607 64.9272 540.246 Q64.9272 547.916 59.9619 552.277 Q54.9649 556.606 46.212 556.606 Q37.4273 556.606 32.4621 552.277 Q27.4968 547.916 27.4968 540.246 Z" fill="#000000" fill-rule="nonzero" fill-opacity="1" /><path clip-path="url(#clip660)" d="M33.8307 493.521 Q33.2578 494.508 33.0032 495.686 Q32.7167 496.832 32.7167 498.232 Q32.7167 503.197 35.9632 505.871 Q39.1779 508.513 45.2253 508.513 L64.0042 508.513 L64.0042 514.401 L28.3562 514.401 L28.3562 508.513 L33.8944 508.513 Q30.6479 506.667 29.0883 503.706 Q27.4968 500.746 27.4968 496.513 Q27.4968 495.908 27.5923 495.176 Q27.656 494.444 27.8151 493.553 L33.8307 493.521 Z" fill="#000000" fill-rule="nonzero" fill-opacity="1" /><path clip-path="url(#clip660)" d="M476.643 14.0809 L476.643 22.0612 Q471.985 19.8332 467.853 18.7395 Q463.721 17.6457 459.872 17.6457 Q453.188 17.6457 449.543 20.2383 Q445.937 22.8309 445.937 27.611 Q445.937 31.6214 448.327 33.6873 Q450.758 35.7128 457.482 36.9686 L462.424 37.9813 Q471.579 39.7232 475.914 44.1387 Q480.289 48.5136 480.289 55.8863 Q480.289 64.6767 474.375 69.2137 Q468.501 73.7508 457.118 73.7508 Q452.824 73.7508 447.963 72.7785 Q443.142 71.8063 437.957 69.9024 L437.957 61.4765 Q442.94 64.2716 447.72 65.6895 Q452.5 67.1073 457.118 67.1073 Q464.126 67.1073 467.934 64.3527 Q471.742 61.598 471.742 56.4939 Q471.742 52.0379 468.987 49.5264 Q466.273 47.0148 460.034 45.759 L455.052 44.7868 Q445.897 42.9639 441.805 39.075 Q437.714 35.1862 437.714 28.2591 Q437.714 20.2383 443.345 15.6203 Q449.016 11.0023 458.941 11.0023 Q463.194 11.0023 467.61 11.7719 Q472.025 12.5416 476.643 14.0809 Z" fill="#000000" fill-rule="nonzero" fill-opacity="1" /><path clip-path="url(#clip660)" d="M513.344 49.7694 Q504.311 49.7694 500.827 51.8354 Q497.343 53.9013 497.343 58.8839 Q497.343 62.8538 499.936 65.2034 Q502.569 67.5124 507.065 67.5124 Q513.263 67.5124 516.99 63.1374 Q520.757 58.7219 520.757 51.4303 L520.757 49.7694 L513.344 49.7694 M528.211 46.6907 L528.211 72.576 L520.757 72.576 L520.757 65.6895 Q518.205 69.8214 514.398 71.8063 Q510.59 73.7508 505.08 73.7508 Q498.113 73.7508 493.981 69.8619 Q489.89 65.9325 489.89 59.3701 Q489.89 51.7138 494.994 47.825 Q500.138 43.9361 510.306 43.9361 L520.757 43.9361 L520.757 43.2069 Q520.757 38.0623 517.355 35.2672 Q513.992 32.4315 507.876 32.4315 Q503.987 32.4315 500.3 33.3632 Q496.614 34.295 493.211 36.1584 L493.211 29.2718 Q497.303 27.692 501.151 26.9223 Q504.999 26.1121 508.645 26.1121 Q518.489 26.1121 523.35 31.2163 Q528.211 36.3204 528.211 46.6907 Z" fill="#000000" fill-rule="nonzero" fill-opacity="1" /><path clip-path="url(#clip660)" d="M578.888 35.9153 Q581.683 30.8922 585.572 28.5022 Q589.461 26.1121 594.727 26.1121 Q601.816 26.1121 605.664 31.0947 Q609.513 36.0368 609.513 45.1919 L609.513 72.576 L602.019 72.576 L602.019 45.4349 Q602.019 38.913 599.71 35.7533 Q597.401 32.5936 592.661 32.5936 Q586.868 32.5936 583.506 36.4419 Q580.144 40.2903 580.144 46.9338 L580.144 72.576 L572.65 72.576 L572.65 45.4349 Q572.65 38.8725 570.341 35.7533 Q568.032 32.5936 563.211 32.5936 Q557.499 32.5936 554.137 36.4824 Q550.775 40.3308 550.775 46.9338 L550.775 72.576 L543.28 72.576 L543.28 27.2059 L550.775 27.2059 L550.775 34.2544 Q553.327 30.082 556.892 28.0971 Q560.456 26.1121 565.358 26.1121 Q570.3 26.1121 573.743 28.6237 Q577.227 31.1352 578.888 35.9153 Z" fill="#000000" fill-rule="nonzero" fill-opacity="1" /><path clip-path="url(#clip660)" d="M631.59 65.7705 L631.59 89.8329 L624.096 89.8329 L624.096 27.2059 L631.59 27.2059 L631.59 34.0924 Q633.94 30.0415 637.505 28.0971 Q641.11 26.1121 646.092 26.1121 Q654.356 26.1121 659.501 32.6746 Q664.686 39.2371 664.686 49.9314 Q664.686 60.6258 659.501 67.1883 Q654.356 73.7508 646.092 73.7508 Q641.11 73.7508 637.505 71.8063 Q633.94 69.8214 631.59 65.7705 M656.949 49.9314 Q656.949 41.7081 653.546 37.0496 Q650.184 32.3505 644.27 32.3505 Q638.355 32.3505 634.952 37.0496 Q631.59 41.7081 631.59 49.9314 Q631.59 58.1548 634.952 62.8538 Q638.355 67.5124 644.27 67.5124 Q650.184 67.5124 653.546 62.8538 Q656.949 58.1548 656.949 49.9314 Z" fill="#000000" fill-rule="nonzero" fill-opacity="1" /><path clip-path="url(#clip660)" d="M677.041 9.54393 L684.495 9.54393 L684.495 72.576 L677.041 72.576 L677.041 9.54393 Z" fill="#000000" fill-rule="nonzero" fill-opacity="1" /><path clip-path="url(#clip660)" d="M738.899 48.0275 L738.899 51.6733 L704.628 51.6733 Q705.114 59.3701 709.246 63.421 Q713.418 67.4314 720.832 67.4314 Q725.126 67.4314 729.136 66.3781 Q733.187 65.3249 737.157 63.2184 L737.157 70.267 Q733.146 71.9684 728.933 72.8596 Q724.72 73.7508 720.386 73.7508 Q709.53 73.7508 703.17 67.4314 Q696.85 61.1119 696.85 50.3365 Q696.85 39.1965 702.846 32.6746 Q708.881 26.1121 719.09 26.1121 Q728.245 26.1121 733.551 32.0264 Q738.899 37.9003 738.899 48.0275 M731.445 45.84 Q731.364 39.7232 728.002 36.0774 Q724.68 32.4315 719.171 32.4315 Q712.932 32.4315 709.165 35.9558 Q705.438 39.4801 704.871 45.8805 L731.445 45.84 Z" fill="#000000" fill-rule="nonzero" fill-opacity="1" /><path clip-path="url(#clip660)" d="M780.988 34.0924 L780.988 9.54393 L788.441 9.54393 L788.441 72.576 L780.988 72.576 L780.988 65.7705 Q778.638 69.8214 775.033 71.8063 Q771.468 73.7508 766.445 73.7508 Q758.221 73.7508 753.036 67.1883 Q747.892 60.6258 747.892 49.9314 Q747.892 39.2371 753.036 32.6746 Q758.221 26.1121 766.445 26.1121 Q771.468 26.1121 775.033 28.0971 Q778.638 30.0415 780.988 34.0924 M755.588 49.9314 Q755.588 58.1548 758.951 62.8538 Q762.353 67.5124 768.268 67.5124 Q774.182 67.5124 777.585 62.8538 Q780.988 58.1548 780.988 49.9314 Q780.988 41.7081 777.585 37.0496 Q774.182 32.3505 768.268 32.3505 Q762.353 32.3505 758.951 37.0496 Q755.588 41.7081 755.588 49.9314 Z" fill="#000000" fill-rule="nonzero" fill-opacity="1" /><path clip-path="url(#clip660)" d="M830.49 12.096 L838.672 12.096 L838.672 65.6895 L868.122 65.6895 L868.122 72.576 L830.49 72.576 L830.49 12.096 Z" fill="#000000" fill-rule="nonzero" fill-opacity="1" /><path clip-path="url(#clip660)" d="M878.857 65.6895 L892.225 65.6895 L892.225 19.5497 L877.683 22.4663 L877.683 15.0127 L892.144 12.096 L900.327 12.096 L900.327 65.6895 L913.695 65.6895 L913.695 72.576 L878.857 72.576 L878.857 65.6895 Z" fill="#000000" fill-rule="nonzero" fill-opacity="1" /><path clip-path="url(#clip660)" d="M955.865 12.096 L994.106 12.096 L994.106 18.9825 L964.048 18.9825 L964.048 36.8875 L992.85 36.8875 L992.85 43.7741 L964.048 43.7741 L964.048 65.6895 L994.835 65.6895 L994.835 72.576 L955.865 72.576 L955.865 12.096 Z" fill="#000000" fill-rule="nonzero" fill-opacity="1" /><path clip-path="url(#clip660)" d="M1034.25 34.1734 Q1032.99 33.4443 1031.5 33.1202 Q1030.04 32.7556 1028.25 32.7556 Q1021.94 32.7556 1018.53 36.8875 Q1015.17 40.9789 1015.17 48.6757 L1015.17 72.576 L1007.68 72.576 L1007.68 27.2059 L1015.17 27.2059 L1015.17 34.2544 Q1017.52 30.1225 1021.29 28.1376 Q1025.05 26.1121 1030.44 26.1121 Q1031.21 26.1121 1032.14 26.2337 Q1033.08 26.3147 1034.21 26.5172 L1034.25 34.1734 Z" fill="#000000" fill-rule="nonzero" fill-opacity="1" /><path clip-path="url(#clip660)" d="M1066.9 34.1734 Q1065.64 33.4443 1064.15 33.1202 Q1062.69 32.7556 1060.91 32.7556 Q1054.59 32.7556 1051.18 36.8875 Q1047.82 40.9789 1047.82 48.6757 L1047.82 72.576 L1040.33 72.576 L1040.33 27.2059 L1047.82 27.2059 L1047.82 34.2544 Q1050.17 30.1225 1053.94 28.1376 Q1057.7 26.1121 1063.09 26.1121 Q1063.86 26.1121 1064.79 26.2337 Q1065.73 26.3147 1066.86 26.5172 L1066.9 34.1734 Z" fill="#000000" fill-rule="nonzero" fill-opacity="1" /><path clip-path="url(#clip660)" d="M1090.48 32.4315 Q1084.48 32.4315 1081 37.1306 Q1077.51 41.7891 1077.51 49.9314 Q1077.51 58.0738 1080.96 62.7728 Q1084.44 67.4314 1090.48 67.4314 Q1096.43 67.4314 1099.92 62.7323 Q1103.4 58.0333 1103.4 49.9314 Q1103.4 41.8701 1099.92 37.1711 Q1096.43 32.4315 1090.48 32.4315 M1090.48 26.1121 Q1100.2 26.1121 1105.75 32.4315 Q1111.3 38.7509 1111.3 49.9314 Q1111.3 61.0714 1105.75 67.4314 Q1100.2 73.7508 1090.48 73.7508 Q1080.71 73.7508 1075.16 67.4314 Q1069.65 61.0714 1069.65 49.9314 Q1069.65 38.7509 1075.16 32.4315 Q1080.71 26.1121 1090.48 26.1121 Z" fill="#000000" fill-rule="nonzero" fill-opacity="1" /><path clip-path="url(#clip660)" d="M1149.94 34.1734 Q1148.69 33.4443 1147.19 33.1202 Q1145.73 32.7556 1143.95 32.7556 Q1137.63 32.7556 1134.23 36.8875 Q1130.86 40.9789 1130.86 48.6757 L1130.86 72.576 L1123.37 72.576 L1123.37 27.2059 L1130.86 27.2059 L1130.86 34.2544 Q1133.21 30.1225 1136.98 28.1376 Q1140.75 26.1121 1146.14 26.1121 Q1146.91 26.1121 1147.84 26.2337 Q1148.77 26.3147 1149.9 26.5172 L1149.94 34.1734 Z" fill="#000000" fill-rule="nonzero" fill-opacity="1" /><path clip-path="url(#clip660)" d="M1178.79 27.2059 L1186.69 27.2059 L1200.86 65.2844 L1215.04 27.2059 L1222.94 27.2059 L1205.93 72.576 L1195.8 72.576 L1178.79 27.2059 Z" fill="#000000" fill-rule="nonzero" fill-opacity="1" /><path clip-path="url(#clip660)" d="M1262.15 28.5427 L1262.15 35.5912 Q1258.99 33.9709 1255.59 33.1607 Q1252.19 32.3505 1248.54 32.3505 Q1242.99 32.3505 1240.2 34.0519 Q1237.44 35.7533 1237.44 39.156 Q1237.44 41.7486 1239.43 43.2475 Q1241.41 44.7058 1247.41 46.0426 L1249.96 46.6097 Q1257.9 48.3111 1261.22 51.4303 Q1264.58 54.509 1264.58 60.0587 Q1264.58 66.3781 1259.56 70.0644 Q1254.58 73.7508 1245.83 73.7508 Q1242.18 73.7508 1238.21 73.0216 Q1234.28 72.3329 1229.91 70.9151 L1229.91 63.2184 Q1234.04 65.3654 1238.05 66.4591 Q1242.06 67.5124 1245.99 67.5124 Q1251.26 67.5124 1254.09 65.73 Q1256.93 63.9071 1256.93 60.6258 Q1256.93 57.5877 1254.86 55.9673 Q1252.84 54.3469 1245.91 52.8481 L1243.32 52.2405 Q1236.39 50.7821 1233.31 47.7845 Q1230.23 44.7463 1230.23 39.4801 Q1230.23 33.0797 1234.77 29.5959 Q1239.31 26.1121 1247.65 26.1121 Q1251.78 26.1121 1255.43 26.7198 Q1259.08 27.3274 1262.15 28.5427 Z" fill="#000000" fill-rule="nonzero" fill-opacity="1" /><path clip-path="url(#clip660)" d="M1303.15 12.096 L1315.34 12.096 L1330.78 53.2532 L1346.29 12.096 L1358.48 12.096 L1358.48 72.576 L1350.5 72.576 L1350.5 19.4686 L1334.91 60.9499 L1326.68 60.9499 L1311.09 19.4686 L1311.09 72.576 L1303.15 72.576 L1303.15 12.096 Z" fill="#000000" fill-rule="nonzero" fill-opacity="1" /><path clip-path="url(#clip660)" d="M1395.02 49.7694 Q1385.99 49.7694 1382.51 51.8354 Q1379.02 53.9013 1379.02 58.8839 Q1379.02 62.8538 1381.62 65.2034 Q1384.25 67.5124 1388.74 67.5124 Q1394.94 67.5124 1398.67 63.1374 Q1402.44 58.7219 1402.44 51.4303 L1402.44 49.7694 L1395.02 49.7694 M1409.89 46.6907 L1409.89 72.576 L1402.44 72.576 L1402.44 65.6895 Q1399.88 69.8214 1396.08 71.8063 Q1392.27 73.7508 1386.76 73.7508 Q1379.79 73.7508 1375.66 69.8619 Q1371.57 65.9325 1371.57 59.3701 Q1371.57 51.7138 1376.67 47.825 Q1381.82 43.9361 1391.99 43.9361 L1402.44 43.9361 L1402.44 43.2069 Q1402.44 38.0623 1399.03 35.2672 Q1395.67 32.4315 1389.55 32.4315 Q1385.67 32.4315 1381.98 33.3632 Q1378.29 34.295 1374.89 36.1584 L1374.89 29.2718 Q1378.98 27.692 1382.83 26.9223 Q1386.68 26.1121 1390.32 26.1121 Q1400.17 26.1121 1405.03 31.2163 Q1409.89 36.3204 1409.89 46.6907 Z" fill="#000000" fill-rule="nonzero" fill-opacity="1" /><path clip-path="url(#clip660)" d="M1462.96 27.2059 L1446.55 49.2833 L1463.81 72.576 L1455.02 72.576 L1441.81 54.752 L1428.61 72.576 L1419.82 72.576 L1437.44 48.8377 L1421.31 27.2059 L1430.1 27.2059 L1442.14 43.369 L1454.17 27.2059 L1462.96 27.2059 Z" fill="#000000" fill-rule="nonzero" fill-opacity="1" /><path clip-path="url(#clip660)" d="M1509.22 43.6931 L1509.22 65.8515 L1522.34 65.8515 Q1528.95 65.8515 1532.11 63.1374 Q1535.31 60.3828 1535.31 54.752 Q1535.31 49.0808 1532.11 46.4072 Q1528.95 43.6931 1522.34 43.6931 L1509.22 43.6931 M1509.22 18.8205 L1509.22 37.0496 L1521.33 37.0496 Q1527.33 37.0496 1530.24 34.8216 Q1533.2 32.5531 1533.2 27.935 Q1533.2 23.3575 1530.24 21.089 Q1527.33 18.8205 1521.33 18.8205 L1509.22 18.8205 M1501.04 12.096 L1521.94 12.096 Q1531.3 12.096 1536.36 15.9849 Q1541.42 19.8737 1541.42 27.0438 Q1541.42 32.5936 1538.83 35.8748 Q1536.24 39.156 1531.22 39.9662 Q1537.25 41.2625 1540.57 45.3944 Q1543.93 49.4858 1543.93 55.6432 Q1543.93 63.745 1538.43 68.1605 Q1532.92 72.576 1522.75 72.576 L1501.04 72.576 L1501.04 12.096 Z" fill="#000000" fill-rule="nonzero" fill-opacity="1" /><path clip-path="url(#clip660)" d="M1575.21 32.4315 Q1569.21 32.4315 1565.73 37.1306 Q1562.24 41.7891 1562.24 49.9314 Q1562.24 58.0738 1565.69 62.7728 Q1569.17 67.4314 1575.21 67.4314 Q1581.16 67.4314 1584.65 62.7323 Q1588.13 58.0333 1588.13 49.9314 Q1588.13 41.8701 1584.65 37.1711 Q1581.16 32.4315 1575.21 32.4315 M1575.21 26.1121 Q1584.93 26.1121 1590.48 32.4315 Q1596.03 38.7509 1596.03 49.9314 Q1596.03 61.0714 1590.48 67.4314 Q1584.93 73.7508 1575.21 73.7508 Q1565.45 73.7508 1559.9 67.4314 Q1554.39 61.0714 1554.39 49.9314 Q1554.39 38.7509 1559.9 32.4315 Q1565.45 26.1121 1575.21 26.1121 Z" fill="#000000" fill-rule="nonzero" fill-opacity="1" /><path clip-path="url(#clip660)" d="M1646.1 45.1919 L1646.1 72.576 L1638.64 72.576 L1638.64 45.4349 Q1638.64 38.994 1636.13 35.7938 Q1633.62 32.5936 1628.6 32.5936 Q1622.56 32.5936 1619.08 36.4419 Q1615.6 40.2903 1615.6 46.9338 L1615.6 72.576 L1608.1 72.576 L1608.1 27.2059 L1615.6 27.2059 L1615.6 34.2544 Q1618.27 30.163 1621.87 28.1376 Q1625.52 26.1121 1630.26 26.1121 Q1638.08 26.1121 1642.09 30.9732 Q1646.1 35.7938 1646.1 45.1919 Z" fill="#000000" fill-rule="nonzero" fill-opacity="1" /><path clip-path="url(#clip660)" d="M1690.82 34.0924 L1690.82 9.54393 L1698.27 9.54393 L1698.27 72.576 L1690.82 72.576 L1690.82 65.7705 Q1688.47 69.8214 1684.87 71.8063 Q1681.3 73.7508 1676.28 73.7508 Q1668.05 73.7508 1662.87 67.1883 Q1657.72 60.6258 1657.72 49.9314 Q1657.72 39.2371 1662.87 32.6746 Q1668.05 26.1121 1676.28 26.1121 Q1681.3 26.1121 1684.87 28.0971 Q1688.47 30.0415 1690.82 34.0924 M1665.42 49.9314 Q1665.42 58.1548 1668.78 62.8538 Q1672.19 67.5124 1678.1 67.5124 Q1684.02 67.5124 1687.42 62.8538 Q1690.82 58.1548 1690.82 49.9314 Q1690.82 41.7081 1687.42 37.0496 Q1684.02 32.3505 1678.1 32.3505 Q1672.19 32.3505 1668.78 37.0496 Q1665.42 41.7081 1665.42 49.9314 Z" fill="#000000" fill-rule="nonzero" fill-opacity="1" /><path clip-path="url(#clip660)" d="M1748.51 18.8205 L1748.51 65.8515 L1758.39 65.8515 Q1770.91 65.8515 1776.7 60.1802 Q1782.53 54.509 1782.53 42.2752 Q1782.53 30.1225 1776.7 24.4918 Q1770.91 18.8205 1758.39 18.8205 L1748.51 18.8205 M1740.32 12.096 L1757.13 12.096 Q1774.71 12.096 1782.94 19.4281 Q1791.16 26.7198 1791.16 42.2752 Q1791.16 57.9117 1782.9 65.2439 Q1774.63 72.576 1757.13 72.576 L1740.32 72.576 L1740.32 12.096 Z" fill="#000000" fill-rule="nonzero" fill-opacity="1" /><path clip-path="url(#clip660)" d="M1803.88 27.2059 L1811.34 27.2059 L1811.34 72.576 L1803.88 72.576 L1803.88 27.2059 M1803.88 9.54393 L1811.34 9.54393 L1811.34 18.9825 L1803.88 18.9825 L1803.88 9.54393 Z" fill="#000000" fill-rule="nonzero" fill-opacity="1" /><path clip-path="url(#clip660)" d="M1862.25 35.9153 Q1865.05 30.8922 1868.94 28.5022 Q1872.83 26.1121 1878.09 26.1121 Q1885.18 26.1121 1889.03 31.0947 Q1892.88 36.0368 1892.88 45.1919 L1892.88 72.576 L1885.39 72.576 L1885.39 45.4349 Q1885.39 38.913 1883.08 35.7533 Q1880.77 32.5936 1876.03 32.5936 Q1870.24 32.5936 1866.87 36.4419 Q1863.51 40.2903 1863.51 46.9338 L1863.51 72.576 L1856.02 72.576 L1856.02 45.4349 Q1856.02 38.8725 1853.71 35.7533 Q1851.4 32.5936 1846.58 32.5936 Q1840.87 32.5936 1837.5 36.4824 Q1834.14 40.3308 1834.14 46.9338 L1834.14 72.576 L1826.65 72.576 L1826.65 27.2059 L1834.14 27.2059 L1834.14 34.2544 Q1836.69 30.082 1840.26 28.0971 Q1843.82 26.1121 1848.72 26.1121 Q1853.67 26.1121 1857.11 28.6237 Q1860.59 31.1352 1862.25 35.9153 Z" fill="#000000" fill-rule="nonzero" fill-opacity="1" /><path clip-path="url(#clip660)" d="M1946.55 48.0275 L1946.55 51.6733 L1912.28 51.6733 Q1912.77 59.3701 1916.9 63.421 Q1921.07 67.4314 1928.49 67.4314 Q1932.78 67.4314 1936.79 66.3781 Q1940.84 65.3249 1944.81 63.2184 L1944.81 70.267 Q1940.8 71.9684 1936.59 72.8596 Q1932.38 73.7508 1928.04 73.7508 Q1917.19 73.7508 1910.83 67.4314 Q1904.51 61.1119 1904.51 50.3365 Q1904.51 39.1965 1910.5 32.6746 Q1916.54 26.1121 1926.75 26.1121 Q1935.9 26.1121 1941.21 32.0264 Q1946.55 37.9003 1946.55 48.0275 M1939.1 45.84 Q1939.02 39.7232 1935.66 36.0774 Q1932.34 32.4315 1926.83 32.4315 Q1920.59 32.4315 1916.82 35.9558 Q1913.09 39.4801 1912.53 45.8805 L1939.1 45.84 Z" fill="#000000" fill-rule="nonzero" fill-opacity="1" /><path clip-path="url(#clip660)" d="M1996.5 45.1919 L1996.5 72.576 L1989.05 72.576 L1989.05 45.4349 Q1989.05 38.994 1986.54 35.7938 Q1984.03 32.5936 1979 32.5936 Q1972.97 32.5936 1969.48 36.4419 Q1966 40.2903 1966 46.9338 L1966 72.576 L1958.5 72.576 L1958.5 27.2059 L1966 27.2059 L1966 34.2544 Q1968.67 30.163 1972.28 28.1376 Q1975.92 26.1121 1980.66 26.1121 Q1988.48 26.1121 1992.49 30.9732 Q1996.5 35.7938 1996.5 45.1919 Z" fill="#000000" fill-rule="nonzero" fill-opacity="1" /><path clip-path="url(#clip660)" d="M2040.29 28.5427 L2040.29 35.5912 Q2037.13 33.9709 2033.73 33.1607 Q2030.33 32.3505 2026.68 32.3505 Q2021.13 32.3505 2018.34 34.0519 Q2015.58 35.7533 2015.58 39.156 Q2015.58 41.7486 2017.57 43.2475 Q2019.55 44.7058 2025.55 46.0426 L2028.1 46.6097 Q2036.04 48.3111 2039.36 51.4303 Q2042.72 54.509 2042.72 60.0587 Q2042.72 66.3781 2037.7 70.0644 Q2032.72 73.7508 2023.97 73.7508 Q2020.32 73.7508 2016.35 73.0216 Q2012.42 72.3329 2008.05 70.9151 L2008.05 63.2184 Q2012.18 65.3654 2016.19 66.4591 Q2020.2 67.5124 2024.13 67.5124 Q2029.4 67.5124 2032.23 65.73 Q2035.07 63.9071 2035.07 60.6258 Q2035.07 57.5877 2033 55.9673 Q2030.98 54.3469 2024.05 52.8481 L2021.46 52.2405 Q2014.53 50.7821 2011.45 47.7845 Q2008.37 44.7463 2008.37 39.4801 Q2008.37 33.0797 2012.91 29.5959 Q2017.45 26.1121 2025.79 26.1121 Q2029.92 26.1121 2033.57 26.7198 Q2037.21 27.3274 2040.29 28.5427 Z" fill="#000000" fill-rule="nonzero" fill-opacity="1" /><path clip-path="url(#clip660)" d="M2054.59 27.2059 L2062.05 27.2059 L2062.05 72.576 L2054.59 72.576 L2054.59 27.2059 M2054.59 9.54393 L2062.05 9.54393 L2062.05 18.9825 L2054.59 18.9825 L2054.59 9.54393 Z" fill="#000000" fill-rule="nonzero" fill-opacity="1" /><path clip-path="url(#clip660)" d="M2095.22 32.4315 Q2089.23 32.4315 2085.74 37.1306 Q2082.26 41.7891 2082.26 49.9314 Q2082.26 58.0738 2085.7 62.7728 Q2089.19 67.4314 2095.22 67.4314 Q2101.18 67.4314 2104.66 62.7323 Q2108.14 58.0333 2108.14 49.9314 Q2108.14 41.8701 2104.66 37.1711 Q2101.18 32.4315 2095.22 32.4315 M2095.22 26.1121 Q2104.94 26.1121 2110.49 32.4315 Q2116.04 38.7509 2116.04 49.9314 Q2116.04 61.0714 2110.49 67.4314 Q2104.94 73.7508 2095.22 73.7508 Q2085.46 73.7508 2079.91 67.4314 Q2074.4 61.0714 2074.4 49.9314 Q2074.4 38.7509 2079.91 32.4315 Q2085.46 26.1121 2095.22 26.1121 Z" fill="#000000" fill-rule="nonzero" fill-opacity="1" /><path clip-path="url(#clip660)" d="M2166.11 45.1919 L2166.11 72.576 L2158.66 72.576 L2158.66 45.4349 Q2158.66 38.994 2156.15 35.7938 Q2153.64 32.5936 2148.61 32.5936 Q2142.58 32.5936 2139.09 36.4419 Q2135.61 40.2903 2135.61 46.9338 L2135.61 72.576 L2128.12 72.576 L2128.12 27.2059 L2135.61 27.2059 L2135.61 34.2544 Q2138.28 30.163 2141.89 28.1376 Q2145.53 26.1121 2150.27 26.1121 Q2158.09 26.1121 2162.1 30.9732 Q2166.11 35.7938 2166.11 45.1919 Z" fill="#000000" fill-rule="nonzero" fill-opacity="1" /><polyline clip-path="url(#clip662)" style="stroke:#009af9; stroke-linecap:round; stroke-linejoin:round; stroke-width:4; stroke-opacity:1; fill:none" points="310.553,341.602 530.855,329.692 751.158,320.638 971.46,290.796 1191.76,302.917 1412.06,297.549 1632.37,280.255 1852.67,284.227 2072.97,280.761 2293.27,278.317 "/>
<path clip-path="url(#clip662)" d="M310.553 357.602 L299.241 352.914 L294.553 341.602 L299.241 330.29 L310.553 325.602 L321.865 330.29 L326.553 341.602 L321.865 352.914 Z" fill="#009af9" fill-rule="evenodd" fill-opacity="1" stroke="#000000" stroke-opacity="1" stroke-width="3.2"/>
<path clip-path="url(#clip662)" d="M530.855 345.692 L519.543 341.004 L514.855 329.692 L519.543 318.38 L530.855 313.692 L542.167 318.38 L546.855 329.692 L542.167 341.004 Z" fill="#009af9" fill-rule="evenodd" fill-opacity="1" stroke="#000000" stroke-opacity="1" stroke-width="3.2"/>
<path clip-path="url(#clip662)" d="M751.158 336.638 L739.846 331.95 L735.158 320.638 L739.846 309.326 L751.158 304.638 L762.47 309.326 L767.158 320.638 L762.47 331.95 Z" fill="#009af9" fill-rule="evenodd" fill-opacity="1" stroke="#000000" stroke-opacity="1" stroke-width="3.2"/>
<path clip-path="url(#clip662)" d="M971.46 306.796 L960.148 302.108 L955.46 290.796 L960.148 279.484 L971.46 274.796 L982.772 279.484 L987.46 290.796 L982.772 302.108 Z" fill="#009af9" fill-rule="evenodd" fill-opacity="1" stroke="#000000" stroke-opacity="1" stroke-width="3.2"/>
<path clip-path="url(#clip662)" d="M1191.76 318.917 L1180.45 314.229 L1175.76 302.917 L1180.45 291.605 L1191.76 286.917 L1203.07 291.605 L1207.76 302.917 L1203.07 314.229 Z" fill="#009af9" fill-rule="evenodd" fill-opacity="1" stroke="#000000" stroke-opacity="1" stroke-width="3.2"/>
<path clip-path="url(#clip662)" d="M1412.06 313.549 L1400.75 308.861 L1396.06 297.549 L1400.75 286.237 L1412.06 281.549 L1423.38 286.237 L1428.06 297.549 L1423.38 308.861 Z" fill="#009af9" fill-rule="evenodd" fill-opacity="1" stroke="#000000" stroke-opacity="1" stroke-width="3.2"/>
<path clip-path="url(#clip662)" d="M1632.37 296.255 L1621.06 291.567 L1616.37 280.255 L1621.06 268.943 L1632.37 264.255 L1643.68 268.943 L1648.37 280.255 L1643.68 291.567 Z" fill="#009af9" fill-rule="evenodd" fill-opacity="1" stroke="#000000" stroke-opacity="1" stroke-width="3.2"/>
<path clip-path="url(#clip662)" d="M1852.67 300.227 L1841.36 295.539 L1836.67 284.227 L1841.36 272.915 L1852.67 268.227 L1863.98 272.915 L1868.67 284.227 L1863.98 295.539 Z" fill="#009af9" fill-rule="evenodd" fill-opacity="1" stroke="#000000" stroke-opacity="1" stroke-width="3.2"/>
<path clip-path="url(#clip662)" d="M2072.97 296.761 L2061.66 292.073 L2056.97 280.761 L2061.66 269.449 L2072.97 264.761 L2084.28 269.449 L2088.97 280.761 L2084.28 292.073 Z" fill="#009af9" fill-rule="evenodd" fill-opacity="1" stroke="#000000" stroke-opacity="1" stroke-width="3.2"/>
<path clip-path="url(#clip662)" d="M2293.27 294.317 L2281.96 289.629 L2277.27 278.317 L2281.96 267.005 L2293.27 262.317 L2304.59 267.005 L2309.27 278.317 L2304.59 289.629 Z" fill="#009af9" fill-rule="evenodd" fill-opacity="1" stroke="#000000" stroke-opacity="1" stroke-width="3.2"/>
<polyline clip-path="url(#clip662)" style="stroke:#e26f46; stroke-linecap:round; stroke-linejoin:round; stroke-width:4; stroke-opacity:1; fill:none" points="310.553,353.156 530.855,375.911 751.158,509.303 971.46,584.049 1191.76,659.996 1412.06,766.909 1632.37,854.544 1852.67,907.649 2072.97,1027.95 2293.27,1157.85 "/>
<path clip-path="url(#clip662)" d="M310.553 369.156 L299.241 364.468 L294.553 353.156 L299.241 341.844 L310.553 337.156 L321.865 341.844 L326.553 353.156 L321.865 364.468 Z" fill="#e26f46" fill-rule="evenodd" fill-opacity="1" stroke="#000000" stroke-opacity="1" stroke-width="3.2"/>
<path clip-path="url(#clip662)" d="M530.855 391.911 L519.543 387.223 L514.855 375.911 L519.543 364.599 L530.855 359.911 L542.167 364.599 L546.855 375.911 L542.167 387.223 Z" fill="#e26f46" fill-rule="evenodd" fill-opacity="1" stroke="#000000" stroke-opacity="1" stroke-width="3.2"/>
<path clip-path="url(#clip662)" d="M751.158 525.303 L739.846 520.615 L735.158 509.303 L739.846 497.991 L751.158 493.303 L762.47 497.991 L767.158 509.303 L762.47 520.615 Z" fill="#e26f46" fill-rule="evenodd" fill-opacity="1" stroke="#000000" stroke-opacity="1" stroke-width="3.2"/>
<path clip-path="url(#clip662)" d="M971.46 600.049 L960.148 595.361 L955.46 584.049 L960.148 572.737 L971.46 568.049 L982.772 572.737 L987.46 584.049 L982.772 595.361 Z" fill="#e26f46" fill-rule="evenodd" fill-opacity="1" stroke="#000000" stroke-opacity="1" stroke-width="3.2"/>
<path clip-path="url(#clip662)" d="M1191.76 675.996 L1180.45 671.308 L1175.76 659.996 L1180.45 648.684 L1191.76 643.996 L1203.07 648.684 L1207.76 659.996 L1203.07 671.308 Z" fill="#e26f46" fill-rule="evenodd" fill-opacity="1" stroke="#000000" stroke-opacity="1" stroke-width="3.2"/>
<path clip-path="url(#clip662)" d="M1412.06 782.909 L1400.75 778.221 L1396.06 766.909 L1400.75 755.597 L1412.06 750.909 L1423.38 755.597 L1428.06 766.909 L1423.38 778.221 Z" fill="#e26f46" fill-rule="evenodd" fill-opacity="1" stroke="#000000" stroke-opacity="1" stroke-width="3.2"/>
<path clip-path="url(#clip662)" d="M1632.37 870.544 L1621.06 865.856 L1616.37 854.544 L1621.06 843.232 L1632.37 838.544 L1643.68 843.232 L1648.37 854.544 L1643.68 865.856 Z" fill="#e26f46" fill-rule="evenodd" fill-opacity="1" stroke="#000000" stroke-opacity="1" stroke-width="3.2"/>
<path clip-path="url(#clip662)" d="M1852.67 923.649 L1841.36 918.961 L1836.67 907.649 L1841.36 896.337 L1852.67 891.649 L1863.98 896.337 L1868.67 907.649 L1863.98 918.961 Z" fill="#e26f46" fill-rule="evenodd" fill-opacity="1" stroke="#000000" stroke-opacity="1" stroke-width="3.2"/>
<path clip-path="url(#clip662)" d="M2072.97 1043.95 L2061.66 1039.26 L2056.97 1027.95 L2061.66 1016.64 L2072.97 1011.95 L2084.28 1016.64 L2088.97 1027.95 L2084.28 1039.26 Z" fill="#e26f46" fill-rule="evenodd" fill-opacity="1" stroke="#000000" stroke-opacity="1" stroke-width="3.2"/>
<path clip-path="url(#clip662)" d="M2293.27 1173.85 L2281.96 1169.16 L2277.27 1157.85 L2281.96 1146.54 L2293.27 1141.85 L2304.59 1146.54 L2309.27 1157.85 L2304.59 1169.16 Z" fill="#e26f46" fill-rule="evenodd" fill-opacity="1" stroke="#000000" stroke-opacity="1" stroke-width="3.2"/>
<polyline clip-path="url(#clip662)" style="stroke:#3da44d; stroke-linecap:round; stroke-linejoin:round; stroke-width:4; stroke-opacity:1; fill:none" points="310.553,350.05 530.855,361.679 751.158,436.498 971.46,470.705 1191.76,660.14 1412.06,762.602 1632.37,960.604 1852.67,1104.17 2072.97,1302.8 2293.27,1386.4 "/>
<path clip-path="url(#clip662)" d="M310.553 366.05 L299.241 361.362 L294.553 350.05 L299.241 338.738 L310.553 334.05 L321.865 338.738 L326.553 350.05 L321.865 361.362 Z" fill="#3da44d" fill-rule="evenodd" fill-opacity="1" stroke="#000000" stroke-opacity="1" stroke-width="3.2"/>
<path clip-path="url(#clip662)" d="M530.855 377.679 L519.543 372.991 L514.855 361.679 L519.543 350.367 L530.855 345.679 L542.167 350.367 L546.855 361.679 L542.167 372.991 Z" fill="#3da44d" fill-rule="evenodd" fill-opacity="1" stroke="#000000" stroke-opacity="1" stroke-width="3.2"/>
<path clip-path="url(#clip662)" d="M751.158 452.498 L739.846 447.81 L735.158 436.498 L739.846 425.186 L751.158 420.498 L762.47 425.186 L767.158 436.498 L762.47 447.81 Z" fill="#3da44d" fill-rule="evenodd" fill-opacity="1" stroke="#000000" stroke-opacity="1" stroke-width="3.2"/>
<path clip-path="url(#clip662)" d="M971.46 486.705 L960.148 482.017 L955.46 470.705 L960.148 459.393 L971.46 454.705 L982.772 459.393 L987.46 470.705 L982.772 482.017 Z" fill="#3da44d" fill-rule="evenodd" fill-opacity="1" stroke="#000000" stroke-opacity="1" stroke-width="3.2"/>
<path clip-path="url(#clip662)" d="M1191.76 676.14 L1180.45 671.452 L1175.76 660.14 L1180.45 648.828 L1191.76 644.14 L1203.07 648.828 L1207.76 660.14 L1203.07 671.452 Z" fill="#3da44d" fill-rule="evenodd" fill-opacity="1" stroke="#000000" stroke-opacity="1" stroke-width="3.2"/>
<path clip-path="url(#clip662)" d="M1412.06 778.602 L1400.75 773.914 L1396.06 762.602 L1400.75 751.29 L1412.06 746.602 L1423.38 751.29 L1428.06 762.602 L1423.38 773.914 Z" fill="#3da44d" fill-rule="evenodd" fill-opacity="1" stroke="#000000" stroke-opacity="1" stroke-width="3.2"/>
<path clip-path="url(#clip662)" d="M1632.37 976.604 L1621.06 971.916 L1616.37 960.604 L1621.06 949.292 L1632.37 944.604 L1643.68 949.292 L1648.37 960.604 L1643.68 971.916 Z" fill="#3da44d" fill-rule="evenodd" fill-opacity="1" stroke="#000000" stroke-opacity="1" stroke-width="3.2"/>
<path clip-path="url(#clip662)" d="M1852.67 1120.17 L1841.36 1115.48 L1836.67 1104.17 L1841.36 1092.85 L1852.67 1088.17 L1863.98 1092.85 L1868.67 1104.17 L1863.98 1115.48 Z" fill="#3da44d" fill-rule="evenodd" fill-opacity="1" stroke="#000000" stroke-opacity="1" stroke-width="3.2"/>
<path clip-path="url(#clip662)" d="M2072.97 1318.8 L2061.66 1314.12 L2056.97 1302.8 L2061.66 1291.49 L2072.97 1286.8 L2084.28 1291.49 L2088.97 1302.8 L2084.28 1314.12 Z" fill="#3da44d" fill-rule="evenodd" fill-opacity="1" stroke="#000000" stroke-opacity="1" stroke-width="3.2"/>
<path clip-path="url(#clip662)" d="M2293.27 1402.4 L2281.96 1397.71 L2277.27 1386.4 L2281.96 1375.08 L2293.27 1370.4 L2304.59 1375.08 L2309.27 1386.4 L2304.59 1397.71 Z" fill="#3da44d" fill-rule="evenodd" fill-opacity="1" stroke="#000000" stroke-opacity="1" stroke-width="3.2"/>
<polyline clip-path="url(#clip662)" style="stroke:#c271d2; stroke-linecap:round; stroke-linejoin:round; stroke-width:4; stroke-opacity:1; fill:none" points="310.553,360.627 530.855,366.216 751.158,492.91 971.46,743.932 1191.76,927.256 1412.06,991.108 1632.37,1010.78 1852.67,1126.29 2072.97,1051.8 2293.27,1000.54 "/>
<path clip-path="url(#clip662)" d="M310.553 376.627 L299.241 371.939 L294.553 360.627 L299.241 349.315 L310.553 344.627 L321.865 349.315 L326.553 360.627 L321.865 371.939 Z" fill="#c271d2" fill-rule="evenodd" fill-opacity="1" stroke="#000000" stroke-opacity="1" stroke-width="3.2"/>
<path clip-path="url(#clip662)" d="M530.855 382.216 L519.543 377.528 L514.855 366.216 L519.543 354.904 L530.855 350.216 L542.167 354.904 L546.855 366.216 L542.167 377.528 Z" fill="#c271d2" fill-rule="evenodd" fill-opacity="1" stroke="#000000" stroke-opacity="1" stroke-width="3.2"/>
<path clip-path="url(#clip662)" d="M751.158 508.91 L739.846 504.222 L735.158 492.91 L739.846 481.598 L751.158 476.91 L762.47 481.598 L767.158 492.91 L762.47 504.222 Z" fill="#c271d2" fill-rule="evenodd" fill-opacity="1" stroke="#000000" stroke-opacity="1" stroke-width="3.2"/>
<path clip-path="url(#clip662)" d="M971.46 759.932 L960.148 755.244 L955.46 743.932 L960.148 732.62 L971.46 727.932 L982.772 732.62 L987.46 743.932 L982.772 755.244 Z" fill="#c271d2" fill-rule="evenodd" fill-opacity="1" stroke="#000000" stroke-opacity="1" stroke-width="3.2"/>
<path clip-path="url(#clip662)" d="M1191.76 943.256 L1180.45 938.568 L1175.76 927.256 L1180.45 915.944 L1191.76 911.256 L1203.07 915.944 L1207.76 927.256 L1203.07 938.568 Z" fill="#c271d2" fill-rule="evenodd" fill-opacity="1" stroke="#000000" stroke-opacity="1" stroke-width="3.2"/>
<path clip-path="url(#clip662)" d="M1412.06 1007.11 L1400.75 1002.42 L1396.06 991.108 L1400.75 979.796 L1412.06 975.108 L1423.38 979.796 L1428.06 991.108 L1423.38 1002.42 Z" fill="#c271d2" fill-rule="evenodd" fill-opacity="1" stroke="#000000" stroke-opacity="1" stroke-width="3.2"/>
<path clip-path="url(#clip662)" d="M1632.37 1026.78 L1621.06 1022.09 L1616.37 1010.78 L1621.06 999.466 L1632.37 994.778 L1643.68 999.466 L1648.37 1010.78 L1643.68 1022.09 Z" fill="#c271d2" fill-rule="evenodd" fill-opacity="1" stroke="#000000" stroke-opacity="1" stroke-width="3.2"/>
<path clip-path="url(#clip662)" d="M1852.67 1142.29 L1841.36 1137.6 L1836.67 1126.29 L1841.36 1114.98 L1852.67 1110.29 L1863.98 1114.98 L1868.67 1126.29 L1863.98 1137.6 Z" fill="#c271d2" fill-rule="evenodd" fill-opacity="1" stroke="#000000" stroke-opacity="1" stroke-width="3.2"/>
<path clip-path="url(#clip662)" d="M2072.97 1067.8 L2061.66 1063.11 L2056.97 1051.8 L2061.66 1040.48 L2072.97 1035.8 L2084.28 1040.48 L2088.97 1051.8 L2084.28 1063.11 Z" fill="#c271d2" fill-rule="evenodd" fill-opacity="1" stroke="#000000" stroke-opacity="1" stroke-width="3.2"/>
<path clip-path="url(#clip662)" d="M2293.27 1016.54 L2281.96 1011.85 L2277.27 1000.54 L2281.96 989.23 L2293.27 984.542 L2304.59 989.23 L2309.27 1000.54 L2304.59 1011.85 Z" fill="#c271d2" fill-rule="evenodd" fill-opacity="1" stroke="#000000" stroke-opacity="1" stroke-width="3.2"/>
<polyline clip-path="url(#clip662)" style="stroke:#ac8d18; stroke-linecap:round; stroke-linejoin:round; stroke-width:4; stroke-opacity:1; fill:none" points="310.553,335.869 530.855,309.158 751.158,226.569 971.46,212.001 1191.76,188.374 1412.06,201.984 1632.37,171.164 1852.67,160.256 2072.97,184.031 2293.27,169.278 "/>
<path clip-path="url(#clip662)" d="M310.553 351.869 L299.241 347.181 L294.553 335.869 L299.241 324.557 L310.553 319.869 L321.865 324.557 L326.553 335.869 L321.865 347.181 Z" fill="#ac8d18" fill-rule="evenodd" fill-opacity="1" stroke="#000000" stroke-opacity="1" stroke-width="3.2"/>
<path clip-path="url(#clip662)" d="M530.855 325.158 L519.543 320.47 L514.855 309.158 L519.543 297.846 L530.855 293.158 L542.167 297.846 L546.855 309.158 L542.167 320.47 Z" fill="#ac8d18" fill-rule="evenodd" fill-opacity="1" stroke="#000000" stroke-opacity="1" stroke-width="3.2"/>
<path clip-path="url(#clip662)" d="M751.158 242.569 L739.846 237.881 L735.158 226.569 L739.846 215.257 L751.158 210.569 L762.47 215.257 L767.158 226.569 L762.47 237.881 Z" fill="#ac8d18" fill-rule="evenodd" fill-opacity="1" stroke="#000000" stroke-opacity="1" stroke-width="3.2"/>
<path clip-path="url(#clip662)" d="M971.46 228.001 L960.148 223.313 L955.46 212.001 L960.148 200.689 L971.46 196.001 L982.772 200.689 L987.46 212.001 L982.772 223.313 Z" fill="#ac8d18" fill-rule="evenodd" fill-opacity="1" stroke="#000000" stroke-opacity="1" stroke-width="3.2"/>
<path clip-path="url(#clip662)" d="M1191.76 204.374 L1180.45 199.686 L1175.76 188.374 L1180.45 177.062 L1191.76 172.374 L1203.07 177.062 L1207.76 188.374 L1203.07 199.686 Z" fill="#ac8d18" fill-rule="evenodd" fill-opacity="1" stroke="#000000" stroke-opacity="1" stroke-width="3.2"/>
<path clip-path="url(#clip662)" d="M1412.06 217.984 L1400.75 213.296 L1396.06 201.984 L1400.75 190.672 L1412.06 185.984 L1423.38 190.672 L1428.06 201.984 L1423.38 213.296 Z" fill="#ac8d18" fill-rule="evenodd" fill-opacity="1" stroke="#000000" stroke-opacity="1" stroke-width="3.2"/>
<path clip-path="url(#clip662)" d="M1632.37 187.164 L1621.06 182.476 L1616.37 171.164 L1621.06 159.852 L1632.37 155.164 L1643.68 159.852 L1648.37 171.164 L1643.68 182.476 Z" fill="#ac8d18" fill-rule="evenodd" fill-opacity="1" stroke="#000000" stroke-opacity="1" stroke-width="3.2"/>
<path clip-path="url(#clip662)" d="M1852.67 176.256 L1841.36 171.568 L1836.67 160.256 L1841.36 148.944 L1852.67 144.256 L1863.98 148.944 L1868.67 160.256 L1863.98 171.568 Z" fill="#ac8d18" fill-rule="evenodd" fill-opacity="1" stroke="#000000" stroke-opacity="1" stroke-width="3.2"/>
<path clip-path="url(#clip662)" d="M2072.97 200.031 L2061.66 195.343 L2056.97 184.031 L2061.66 172.719 L2072.97 168.031 L2084.28 172.719 L2088.97 184.031 L2084.28 195.343 Z" fill="#ac8d18" fill-rule="evenodd" fill-opacity="1" stroke="#000000" stroke-opacity="1" stroke-width="3.2"/>
<path clip-path="url(#clip662)" d="M2293.27 185.278 L2281.96 180.59 L2277.27 169.278 L2281.96 157.966 L2293.27 153.278 L2304.59 157.966 L2309.27 169.278 L2304.59 180.59 Z" fill="#ac8d18" fill-rule="evenodd" fill-opacity="1" stroke="#000000" stroke-opacity="1" stroke-width="3.2"/>
<path clip-path="url(#clip660)" d="M321.127 477.836 L809.443 477.836 L809.443 166.796 L321.127 166.796  Z" fill="#ffffff" fill-rule="evenodd" fill-opacity="1"/>
<polyline clip-path="url(#clip660)" style="stroke:#000000; stroke-linecap:round; stroke-linejoin:round; stroke-width:4; stroke-opacity:1; fill:none" points="321.127,477.836 809.443,477.836 809.443,166.796 321.127,166.796 321.127,477.836 "/>
<polyline clip-path="url(#clip660)" style="stroke:#009af9; stroke-linecap:round; stroke-linejoin:round; stroke-width:4; stroke-opacity:1; fill:none" points="344.479,218.636 484.592,218.636 "/>
<path clip-path="url(#clip660)" d="M414.536 240.258 L399.249 233.923 L392.913 218.636 L399.249 203.349 L414.536 197.013 L429.823 203.349 L436.158 218.636 L429.823 233.923 Z" fill="#009af9" fill-rule="evenodd" fill-opacity="1" stroke="#000000" stroke-opacity="1" stroke-width="4.55111"/>
<path clip-path="url(#clip660)" d="M507.944 201.356 L527.805 201.356 L527.805 205.291 L512.62 205.291 L512.62 215.476 L526.323 215.476 L526.323 219.411 L512.62 219.411 L512.62 235.916 L507.944 235.916 L507.944 201.356 Z" fill="#000000" fill-rule="nonzero" fill-opacity="1" /><path clip-path="url(#clip660)" d="M531.995 225.684 L531.995 209.99 L536.254 209.99 L536.254 225.522 Q536.254 229.203 537.689 231.055 Q539.124 232.883 541.995 232.883 Q545.444 232.883 547.434 230.684 Q549.448 228.485 549.448 224.689 L549.448 209.99 L553.707 209.99 L553.707 235.916 L549.448 235.916 L549.448 231.934 Q547.897 234.295 545.837 235.453 Q543.8 236.587 541.092 236.587 Q536.624 236.587 534.309 233.809 Q531.995 231.031 531.995 225.684 M542.712 209.365 L542.712 209.365 Z" fill="#000000" fill-rule="nonzero" fill-opacity="1" /><path clip-path="url(#clip660)" d="M579.008 210.754 L579.008 214.782 Q577.203 213.856 575.258 213.393 Q573.314 212.93 571.231 212.93 Q568.059 212.93 566.462 213.902 Q564.888 214.874 564.888 216.819 Q564.888 218.3 566.022 219.157 Q567.156 219.99 570.582 220.754 L572.041 221.078 Q576.578 222.05 578.476 223.832 Q580.397 225.592 580.397 228.763 Q580.397 232.374 577.527 234.481 Q574.68 236.587 569.68 236.587 Q567.596 236.587 565.328 236.17 Q563.082 235.777 560.582 234.967 L560.582 230.569 Q562.944 231.795 565.235 232.42 Q567.527 233.022 569.772 233.022 Q572.781 233.022 574.402 232.004 Q576.022 230.962 576.022 229.087 Q576.022 227.351 574.842 226.425 Q573.684 225.499 569.726 224.643 L568.244 224.295 Q564.286 223.462 562.527 221.749 Q560.768 220.013 560.768 217.004 Q560.768 213.346 563.36 211.356 Q565.953 209.365 570.721 209.365 Q573.082 209.365 575.166 209.712 Q577.249 210.059 579.008 210.754 Z" fill="#000000" fill-rule="nonzero" fill-opacity="1" /><path clip-path="url(#clip660)" d="M609.355 221.888 L609.355 223.971 L589.772 223.971 Q590.05 228.369 592.411 230.684 Q594.795 232.976 599.031 232.976 Q601.485 232.976 603.777 232.374 Q606.091 231.772 608.36 230.569 L608.36 234.596 Q606.068 235.568 603.661 236.078 Q601.254 236.587 598.777 236.587 Q592.573 236.587 588.939 232.976 Q585.328 229.365 585.328 223.207 Q585.328 216.842 588.754 213.115 Q592.203 209.365 598.036 209.365 Q603.267 209.365 606.3 212.745 Q609.355 216.101 609.355 221.888 M605.096 220.638 Q605.05 217.143 603.128 215.059 Q601.23 212.976 598.082 212.976 Q594.517 212.976 592.365 214.99 Q590.235 217.004 589.911 220.661 L605.096 220.638 Z" fill="#000000" fill-rule="nonzero" fill-opacity="1" /><path clip-path="url(#clip660)" d="M633.406 213.925 L633.406 199.897 L637.665 199.897 L637.665 235.916 L633.406 235.916 L633.406 232.027 Q632.064 234.342 630.003 235.476 Q627.966 236.587 625.096 236.587 Q620.397 236.587 617.434 232.837 Q614.494 229.087 614.494 222.976 Q614.494 216.865 617.434 213.115 Q620.397 209.365 625.096 209.365 Q627.966 209.365 630.003 210.499 Q632.064 211.61 633.406 213.925 M618.892 222.976 Q618.892 227.675 620.814 230.36 Q622.758 233.022 626.138 233.022 Q629.517 233.022 631.462 230.36 Q633.406 227.675 633.406 222.976 Q633.406 218.277 631.462 215.615 Q629.517 212.93 626.138 212.93 Q622.758 212.93 620.814 215.615 Q618.892 218.277 618.892 222.976 Z" fill="#000000" fill-rule="nonzero" fill-opacity="1" /><path clip-path="url(#clip660)" d="M666.137 243.786 L666.137 247.096 L641.508 247.096 L641.508 243.786 L666.137 243.786 Z" fill="#000000" fill-rule="nonzero" fill-opacity="1" /><path clip-path="url(#clip660)" d="M675.003 219.411 L675.003 232.073 L682.503 232.073 Q686.276 232.073 688.082 230.522 Q689.91 228.948 689.91 225.731 Q689.91 222.49 688.082 220.962 Q686.276 219.411 682.503 219.411 L675.003 219.411 M675.003 205.198 L675.003 215.615 L681.924 215.615 Q685.35 215.615 687.017 214.342 Q688.707 213.045 688.707 210.407 Q688.707 207.791 687.017 206.495 Q685.35 205.198 681.924 205.198 L675.003 205.198 M670.327 201.356 L682.272 201.356 Q687.619 201.356 690.512 203.578 Q693.406 205.8 693.406 209.897 Q693.406 213.069 691.924 214.944 Q690.443 216.819 687.572 217.282 Q691.022 218.022 692.92 220.383 Q694.841 222.721 694.841 226.24 Q694.841 230.869 691.693 233.393 Q688.545 235.916 682.735 235.916 L670.327 235.916 L670.327 201.356 Z" fill="#000000" fill-rule="nonzero" fill-opacity="1" /><path clip-path="url(#clip660)" d="M698.059 201.356 L727.294 201.356 L727.294 205.291 L715.026 205.291 L715.026 235.916 L710.327 235.916 L710.327 205.291 L698.059 205.291 L698.059 201.356 Z" fill="#000000" fill-rule="nonzero" fill-opacity="1" /><path clip-path="url(#clip660)" d="M726.183 201.356 L755.419 201.356 L755.419 205.291 L743.151 205.291 L743.151 235.916 L738.452 235.916 L738.452 205.291 L726.183 205.291 L726.183 201.356 Z" fill="#000000" fill-rule="nonzero" fill-opacity="1" /><path clip-path="url(#clip660)" d="M759.933 201.356 L766.229 201.356 L781.553 230.268 L781.553 201.356 L786.09 201.356 L786.09 235.916 L779.794 235.916 L764.47 207.004 L764.47 235.916 L759.933 235.916 L759.933 201.356 Z" fill="#000000" fill-rule="nonzero" fill-opacity="1" /><polyline clip-path="url(#clip660)" style="stroke:#e26f46; stroke-linecap:round; stroke-linejoin:round; stroke-width:4; stroke-opacity:1; fill:none" points="344.479,270.476 484.592,270.476 "/>
<path clip-path="url(#clip660)" d="M414.536 292.098 L399.249 285.763 L392.913 270.476 L399.249 255.189 L414.536 248.853 L429.823 255.189 L436.158 270.476 L429.823 285.763 Z" fill="#e26f46" fill-rule="evenodd" fill-opacity="1" stroke="#000000" stroke-opacity="1" stroke-width="4.55111"/>
<path clip-path="url(#clip660)" d="M523.962 256.367 Q518.87 256.367 515.86 260.163 Q512.874 263.96 512.874 270.51 Q512.874 277.038 515.86 280.834 Q518.87 284.631 523.962 284.631 Q529.055 284.631 532.018 280.834 Q535.004 277.038 535.004 270.51 Q535.004 263.96 532.018 260.163 Q529.055 256.367 523.962 256.367 M530.513 287.131 L536.671 293.867 L531.022 293.867 L525.907 288.334 Q525.143 288.381 524.726 288.404 Q524.333 288.427 523.962 288.427 Q516.671 288.427 512.296 283.566 Q507.944 278.682 507.944 270.51 Q507.944 262.316 512.296 257.455 Q516.671 252.571 523.962 252.571 Q531.231 252.571 535.583 257.455 Q539.934 262.316 539.934 270.51 Q539.934 276.529 537.504 280.811 Q535.096 285.094 530.513 287.131 Z" fill="#000000" fill-rule="nonzero" fill-opacity="1" /><path clip-path="url(#clip660)" d="M542.458 253.196 L571.693 253.196 L571.693 257.131 L559.425 257.131 L559.425 287.756 L554.726 287.756 L554.726 257.131 L542.458 257.131 L542.458 253.196 Z" fill="#000000" fill-rule="nonzero" fill-opacity="1" /><path clip-path="url(#clip660)" d="M570.582 253.196 L599.818 253.196 L599.818 257.131 L587.55 257.131 L587.55 287.756 L582.851 287.756 L582.851 257.131 L570.582 257.131 L570.582 253.196 Z" fill="#000000" fill-rule="nonzero" fill-opacity="1" /><path clip-path="url(#clip660)" d="M623.846 295.626 L623.846 298.936 L599.216 298.936 L599.216 295.626 L623.846 295.626 Z" fill="#000000" fill-rule="nonzero" fill-opacity="1" /><path clip-path="url(#clip660)" d="M648.753 254.33 L648.753 258.89 Q646.091 257.617 643.73 256.992 Q641.369 256.367 639.17 256.367 Q635.351 256.367 633.267 257.848 Q631.207 259.33 631.207 262.061 Q631.207 264.353 632.573 265.534 Q633.962 266.691 637.804 267.409 L640.628 267.987 Q645.86 268.983 648.337 271.506 Q650.837 274.006 650.837 278.219 Q650.837 283.242 647.457 285.834 Q644.1 288.427 637.596 288.427 Q635.142 288.427 632.364 287.871 Q629.61 287.316 626.647 286.228 L626.647 281.413 Q629.494 283.01 632.226 283.821 Q634.957 284.631 637.596 284.631 Q641.601 284.631 643.776 283.057 Q645.952 281.483 645.952 278.566 Q645.952 276.02 644.378 274.584 Q642.827 273.149 639.263 272.432 L636.415 271.876 Q631.184 270.835 628.846 268.612 Q626.508 266.39 626.508 262.432 Q626.508 257.848 629.726 255.21 Q632.966 252.571 638.638 252.571 Q641.068 252.571 643.591 253.011 Q646.114 253.45 648.753 254.33 Z" fill="#000000" fill-rule="nonzero" fill-opacity="1" /><path clip-path="url(#clip660)" d="M680.119 273.728 L680.119 275.811 L660.536 275.811 Q660.813 280.209 663.174 282.524 Q665.559 284.816 669.795 284.816 Q672.248 284.816 674.54 284.214 Q676.855 283.612 679.123 282.409 L679.123 286.436 Q676.832 287.408 674.424 287.918 Q672.017 288.427 669.54 288.427 Q663.337 288.427 659.702 284.816 Q656.091 281.205 656.091 275.047 Q656.091 268.682 659.517 264.955 Q662.966 261.205 668.799 261.205 Q674.031 261.205 677.063 264.585 Q680.119 267.941 680.119 273.728 M675.86 272.478 Q675.813 268.983 673.892 266.899 Q671.994 264.816 668.846 264.816 Q665.281 264.816 663.128 266.83 Q660.999 268.844 660.674 272.501 L675.86 272.478 Z" fill="#000000" fill-rule="nonzero" fill-opacity="1" /><path clip-path="url(#clip660)" d="M689.656 274.816 Q689.656 279.515 691.577 282.2 Q693.522 284.862 696.901 284.862 Q700.281 284.862 702.225 282.2 Q704.17 279.515 704.17 274.816 Q704.17 270.117 702.225 267.455 Q700.281 264.77 696.901 264.77 Q693.522 264.77 691.577 267.455 Q689.656 270.117 689.656 274.816 M704.17 283.867 Q702.827 286.182 700.767 287.316 Q698.73 288.427 695.859 288.427 Q691.16 288.427 688.197 284.677 Q685.258 280.927 685.258 274.816 Q685.258 268.705 688.197 264.955 Q691.16 261.205 695.859 261.205 Q698.73 261.205 700.767 262.339 Q702.827 263.45 704.17 265.765 L704.17 261.83 L708.429 261.83 L708.429 297.617 L704.17 297.617 L704.17 283.867 Z" fill="#000000" fill-rule="nonzero" fill-opacity="1" /><polyline clip-path="url(#clip660)" style="stroke:#3da44d; stroke-linecap:round; stroke-linejoin:round; stroke-width:4; stroke-opacity:1; fill:none" points="344.479,322.316 484.592,322.316 "/>
<path clip-path="url(#clip660)" d="M414.536 343.938 L399.249 337.603 L392.913 322.316 L399.249 307.029 L414.536 300.693 L429.823 307.029 L436.158 322.316 L429.823 337.603 Z" fill="#3da44d" fill-rule="evenodd" fill-opacity="1" stroke="#000000" stroke-opacity="1" stroke-width="4.55111"/>
<path clip-path="url(#clip660)" d="M512.62 323.091 L512.62 335.753 L520.12 335.753 Q523.893 335.753 525.698 334.202 Q527.527 332.628 527.527 329.411 Q527.527 326.17 525.698 324.642 Q523.893 323.091 520.12 323.091 L512.62 323.091 M512.62 308.878 L512.62 319.295 L519.541 319.295 Q522.967 319.295 524.634 318.022 Q526.323 316.725 526.323 314.087 Q526.323 311.471 524.634 310.175 Q522.967 308.878 519.541 308.878 L512.62 308.878 M507.944 305.036 L519.888 305.036 Q525.235 305.036 528.129 307.258 Q531.022 309.48 531.022 313.577 Q531.022 316.749 529.541 318.624 Q528.059 320.499 525.189 320.962 Q528.638 321.702 530.536 324.063 Q532.458 326.401 532.458 329.92 Q532.458 334.549 529.309 337.073 Q526.161 339.596 520.351 339.596 L507.944 339.596 L507.944 305.036 Z" fill="#000000" fill-rule="nonzero" fill-opacity="1" /><path clip-path="url(#clip660)" d="M535.675 305.036 L564.911 305.036 L564.911 308.971 L552.643 308.971 L552.643 339.596 L547.944 339.596 L547.944 308.971 L535.675 308.971 L535.675 305.036 Z" fill="#000000" fill-rule="nonzero" fill-opacity="1" /><path clip-path="url(#clip660)" d="M563.8 305.036 L593.036 305.036 L593.036 308.971 L580.768 308.971 L580.768 339.596 L576.068 339.596 L576.068 308.971 L563.8 308.971 L563.8 305.036 Z" fill="#000000" fill-rule="nonzero" fill-opacity="1" /><path clip-path="url(#clip660)" d="M597.55 305.036 L603.846 305.036 L619.17 333.948 L619.17 305.036 L623.707 305.036 L623.707 339.596 L617.411 339.596 L602.087 310.684 L602.087 339.596 L597.55 339.596 L597.55 305.036 Z" fill="#000000" fill-rule="nonzero" fill-opacity="1" /><polyline clip-path="url(#clip660)" style="stroke:#c271d2; stroke-linecap:round; stroke-linejoin:round; stroke-width:4; stroke-opacity:1; fill:none" points="344.479,374.156 484.592,374.156 "/>
<path clip-path="url(#clip660)" d="M414.536 395.778 L399.249 389.443 L392.913 374.156 L399.249 358.869 L414.536 352.533 L429.823 358.869 L436.158 374.156 L429.823 389.443 Z" fill="#c271d2" fill-rule="evenodd" fill-opacity="1" stroke="#000000" stroke-opacity="1" stroke-width="4.55111"/>
<path clip-path="url(#clip660)" d="M535.814 359.538 L535.814 364.468 Q533.453 362.269 530.768 361.181 Q528.106 360.093 525.097 360.093 Q519.171 360.093 516.022 363.728 Q512.874 367.339 512.874 374.19 Q512.874 381.019 516.022 384.653 Q519.171 388.264 525.097 388.264 Q528.106 388.264 530.768 387.176 Q533.453 386.089 535.814 383.889 L535.814 388.774 Q533.36 390.44 530.606 391.274 Q527.874 392.107 524.819 392.107 Q516.972 392.107 512.458 387.315 Q507.944 382.501 507.944 374.19 Q507.944 365.857 512.458 361.066 Q516.972 356.251 524.819 356.251 Q527.921 356.251 530.652 357.084 Q533.407 357.894 535.814 359.538 Z" fill="#000000" fill-rule="nonzero" fill-opacity="1" /><path clip-path="url(#clip660)" d="M538.245 356.876 L567.481 356.876 L567.481 360.811 L555.212 360.811 L555.212 391.436 L550.513 391.436 L550.513 360.811 L538.245 360.811 L538.245 356.876 Z" fill="#000000" fill-rule="nonzero" fill-opacity="1" /><path clip-path="url(#clip660)" d="M566.369 356.876 L595.605 356.876 L595.605 360.811 L583.337 360.811 L583.337 391.436 L578.638 391.436 L578.638 360.811 L566.369 360.811 L566.369 356.876 Z" fill="#000000" fill-rule="nonzero" fill-opacity="1" /><path clip-path="url(#clip660)" d="M600.119 356.876 L606.416 356.876 L621.74 385.788 L621.74 356.876 L626.277 356.876 L626.277 391.436 L619.98 391.436 L604.656 362.524 L604.656 391.436 L600.119 391.436 L600.119 356.876 Z" fill="#000000" fill-rule="nonzero" fill-opacity="1" /><polyline clip-path="url(#clip660)" style="stroke:#ac8d18; stroke-linecap:round; stroke-linejoin:round; stroke-width:4; stroke-opacity:1; fill:none" points="344.479,425.996 484.592,425.996 "/>
<path clip-path="url(#clip660)" d="M414.536 447.618 L399.249 441.283 L392.913 425.996 L399.249 410.709 L414.536 404.373 L429.823 410.709 L436.158 425.996 L429.823 441.283 Z" fill="#ac8d18" fill-rule="evenodd" fill-opacity="1" stroke="#000000" stroke-opacity="1" stroke-width="4.55111"/>
<path clip-path="url(#clip660)" d="M523.962 411.887 Q518.87 411.887 515.86 415.683 Q512.874 419.48 512.874 426.03 Q512.874 432.558 515.86 436.354 Q518.87 440.151 523.962 440.151 Q529.055 440.151 532.018 436.354 Q535.004 432.558 535.004 426.03 Q535.004 419.48 532.018 415.683 Q529.055 411.887 523.962 411.887 M530.513 442.651 L536.671 449.387 L531.022 449.387 L525.907 443.854 Q525.143 443.901 524.726 443.924 Q524.333 443.947 523.962 443.947 Q516.671 443.947 512.296 439.086 Q507.944 434.202 507.944 426.03 Q507.944 417.836 512.296 412.975 Q516.671 408.091 523.962 408.091 Q531.231 408.091 535.583 412.975 Q539.934 417.836 539.934 426.03 Q539.934 432.049 537.504 436.331 Q535.096 440.614 530.513 442.651 Z" fill="#000000" fill-rule="nonzero" fill-opacity="1" /><path clip-path="url(#clip660)" d="M542.458 408.716 L571.693 408.716 L571.693 412.651 L559.425 412.651 L559.425 443.276 L554.726 443.276 L554.726 412.651 L542.458 412.651 L542.458 408.716 Z" fill="#000000" fill-rule="nonzero" fill-opacity="1" /><path clip-path="url(#clip660)" d="M570.582 408.716 L599.818 408.716 L599.818 412.651 L587.55 412.651 L587.55 443.276 L582.851 443.276 L582.851 412.651 L570.582 412.651 L570.582 408.716 Z" fill="#000000" fill-rule="nonzero" fill-opacity="1" /><path clip-path="url(#clip660)" d="M623.846 451.146 L623.846 454.456 L599.216 454.456 L599.216 451.146 L623.846 451.146 Z" fill="#000000" fill-rule="nonzero" fill-opacity="1" /><path clip-path="url(#clip660)" d="M628.036 408.716 L632.712 408.716 L632.712 443.276 L628.036 443.276 L628.036 408.716 Z" fill="#000000" fill-rule="nonzero" fill-opacity="1" /><path clip-path="url(#clip660)" d="M663.383 427.628 L663.383 443.276 L659.124 443.276 L659.124 427.767 Q659.124 424.086 657.688 422.257 Q656.253 420.429 653.383 420.429 Q649.934 420.429 647.943 422.628 Q645.952 424.827 645.952 428.623 L645.952 443.276 L641.67 443.276 L641.67 417.35 L645.952 417.35 L645.952 421.378 Q647.48 419.04 649.54 417.882 Q651.624 416.725 654.332 416.725 Q658.799 416.725 661.091 419.503 Q663.383 422.257 663.383 427.628 Z" fill="#000000" fill-rule="nonzero" fill-opacity="1" /><path clip-path="url(#clip660)" d="M676.091 409.989 L676.091 417.35 L684.864 417.35 L684.864 420.66 L676.091 420.66 L676.091 434.734 Q676.091 437.905 676.948 438.808 Q677.827 439.711 680.489 439.711 L684.864 439.711 L684.864 443.276 L680.489 443.276 Q675.559 443.276 673.684 441.447 Q671.809 439.595 671.809 434.734 L671.809 420.66 L668.684 420.66 L668.684 417.35 L671.809 417.35 L671.809 409.989 L676.091 409.989 Z" fill="#000000" fill-rule="nonzero" fill-opacity="1" /></svg>
