<?xml version="1.0" encoding="utf-8"?>
<svg xmlns="http://www.w3.org/2000/svg" xmlns:xlink="http://www.w3.org/1999/xlink" width="600" height="400" viewBox="0 0 2400 1600">
<defs>
  <clipPath id="clip540">
    <rect x="0" y="0" width="2400" height="1600"/>
  </clipPath>
</defs>
<path clip-path="url(#clip540)" d="M0 1600 L2400 1600 L2400 8.88178e-14 L0 8.88178e-14  Z" fill="#ffffff" fill-rule="evenodd" fill-opacity="1"/>
<defs>
  <clipPath id="clip541">
    <rect x="480" y="0" width="1681" height="1600"/>
  </clipPath>
</defs>
<path clip-path="url(#clip540)" d="M252.764 1423.18 L2352.76 1423.18 L2352.76 123.472 L252.764 123.472  Z" fill="#ffffff" fill-rule="evenodd" fill-opacity="1"/>
<defs>
  <clipPath id="clip542">
    <rect x="252" y="123" width="2101" height="1301"/>
  </clipPath>
</defs>
<polyline clip-path="url(#clip542)" style="stroke:#000000; stroke-linecap:round; stroke-linejoin:round; stroke-width:2; stroke-opacity:0.1; fill:none" points="458.948,1423.18 458.948,123.472 "/>
<polyline clip-path="url(#clip542)" style="stroke:#000000; stroke-linecap:round; stroke-linejoin:round; stroke-width:2; stroke-opacity:0.1; fill:none" points="825.823,1423.18 825.823,123.472 "/>
<polyline clip-path="url(#clip542)" style="stroke:#000000; stroke-linecap:round; stroke-linejoin:round; stroke-width:2; stroke-opacity:0.1; fill:none" points="1192.7,1423.18 1192.7,123.472 "/>
<polyline clip-path="url(#clip542)" style="stroke:#000000; stroke-linecap:round; stroke-linejoin:round; stroke-width:2; stroke-opacity:0.1; fill:none" points="1559.57,1423.18 1559.57,123.472 "/>
<polyline clip-path="url(#clip542)" style="stroke:#000000; stroke-linecap:round; stroke-linejoin:round; stroke-width:2; stroke-opacity:0.1; fill:none" points="1926.45,1423.18 1926.45,123.472 "/>
<polyline clip-path="url(#clip542)" style="stroke:#000000; stroke-linecap:round; stroke-linejoin:round; stroke-width:2; stroke-opacity:0.1; fill:none" points="2293.32,1423.18 2293.32,123.472 "/>
<polyline clip-path="url(#clip542)" style="stroke:#000000; stroke-linecap:round; stroke-linejoin:round; stroke-width:2; stroke-opacity:0.1; fill:none" points="252.764,1354.94 2352.76,1354.94 "/>
<polyline clip-path="url(#clip542)" style="stroke:#000000; stroke-linecap:round; stroke-linejoin:round; stroke-width:2; stroke-opacity:0.1; fill:none" points="252.764,694.08 2352.76,694.08 "/>
<polyline clip-path="url(#clip540)" style="stroke:#000000; stroke-linecap:round; stroke-linejoin:round; stroke-width:4; stroke-opacity:1; fill:none" points="252.764,1423.18 2352.76,1423.18 "/>
<polyline clip-path="url(#clip540)" style="stroke:#000000; stroke-linecap:round; stroke-linejoin:round; stroke-width:4; stroke-opacity:1; fill:none" points="458.948,1423.18 458.948,1404.28 "/>
<polyline clip-path="url(#clip540)" style="stroke:#000000; stroke-linecap:round; stroke-linejoin:round; stroke-width:4; stroke-opacity:1; fill:none" points="825.823,1423.18 825.823,1404.28 "/>
<polyline clip-path="url(#clip540)" style="stroke:#000000; stroke-linecap:round; stroke-linejoin:round; stroke-width:4; stroke-opacity:1; fill:none" points="1192.7,1423.18 1192.7,1404.28 "/>
<polyline clip-path="url(#clip540)" style="stroke:#000000; stroke-linecap:round; stroke-linejoin:round; stroke-width:4; stroke-opacity:1; fill:none" points="1559.57,1423.18 1559.57,1404.28 "/>
<polyline clip-path="url(#clip540)" style="stroke:#000000; stroke-linecap:round; stroke-linejoin:round; stroke-width:4; stroke-opacity:1; fill:none" points="1926.45,1423.18 1926.45,1404.28 "/>
<polyline clip-path="url(#clip540)" style="stroke:#000000; stroke-linecap:round; stroke-linejoin:round; stroke-width:4; stroke-opacity:1; fill:none" points="2293.32,1423.18 2293.32,1404.28 "/>
<path clip-path="url(#clip540)" d="M449.225 1451.02 L467.582 1451.02 L467.582 1454.96 L453.508 1454.96 L453.508 1463.43 Q454.526 1463.08 455.545 1462.92 Q456.563 1462.73 457.582 1462.73 Q463.369 1462.73 466.749 1465.9 Q470.128 1469.08 470.128 1474.49 Q470.128 1480.07 466.656 1483.17 Q463.184 1486.25 456.864 1486.25 Q454.688 1486.25 452.42 1485.88 Q450.175 1485.51 447.767 1484.77 L447.767 1480.07 Q449.85 1481.2 452.073 1481.76 Q454.295 1482.32 456.772 1482.32 Q460.776 1482.32 463.114 1480.21 Q465.452 1478.1 465.452 1474.49 Q465.452 1470.88 463.114 1468.77 Q460.776 1466.67 456.772 1466.67 Q454.897 1466.67 453.022 1467.08 Q451.17 1467.5 449.225 1468.38 L449.225 1451.02 Z" fill="#000000" fill-rule="nonzero" fill-opacity="1" /><path clip-path="url(#clip540)" d="M800.51 1481.64 L808.149 1481.64 L808.149 1455.28 L799.839 1456.95 L799.839 1452.69 L808.103 1451.02 L812.779 1451.02 L812.779 1481.64 L820.417 1481.64 L820.417 1485.58 L800.51 1485.58 L800.51 1481.64 Z" fill="#000000" fill-rule="nonzero" fill-opacity="1" /><path clip-path="url(#clip540)" d="M839.862 1454.1 Q836.251 1454.1 834.422 1457.66 Q832.616 1461.2 832.616 1468.33 Q832.616 1475.44 834.422 1479.01 Q836.251 1482.55 839.862 1482.55 Q843.496 1482.55 845.302 1479.01 Q847.13 1475.44 847.13 1468.33 Q847.13 1461.2 845.302 1457.66 Q843.496 1454.1 839.862 1454.1 M839.862 1450.39 Q845.672 1450.39 848.728 1455 Q851.806 1459.58 851.806 1468.33 Q851.806 1477.06 848.728 1481.67 Q845.672 1486.25 839.862 1486.25 Q834.052 1486.25 830.973 1481.67 Q827.917 1477.06 827.917 1468.33 Q827.917 1459.58 830.973 1455 Q834.052 1450.39 839.862 1450.39 Z" fill="#000000" fill-rule="nonzero" fill-opacity="1" /><path clip-path="url(#clip540)" d="M1167.88 1481.64 L1175.52 1481.64 L1175.52 1455.28 L1167.21 1456.95 L1167.21 1452.69 L1175.48 1451.02 L1180.15 1451.02 L1180.15 1481.64 L1187.79 1481.64 L1187.79 1485.58 L1167.88 1485.58 L1167.88 1481.64 Z" fill="#000000" fill-rule="nonzero" fill-opacity="1" /><path clip-path="url(#clip540)" d="M1197.28 1451.02 L1215.64 1451.02 L1215.64 1454.96 L1201.56 1454.96 L1201.56 1463.43 Q1202.58 1463.08 1203.6 1462.92 Q1204.62 1462.73 1205.64 1462.73 Q1211.42 1462.73 1214.8 1465.9 Q1218.18 1469.08 1218.18 1474.49 Q1218.18 1480.07 1214.71 1483.17 Q1211.24 1486.25 1204.92 1486.25 Q1202.74 1486.25 1200.48 1485.88 Q1198.23 1485.51 1195.82 1484.77 L1195.82 1480.07 Q1197.91 1481.2 1200.13 1481.76 Q1202.35 1482.32 1204.83 1482.32 Q1208.83 1482.32 1211.17 1480.21 Q1213.51 1478.1 1213.51 1474.49 Q1213.51 1470.88 1211.17 1468.77 Q1208.83 1466.67 1204.83 1466.67 Q1202.95 1466.67 1201.08 1467.08 Q1199.23 1467.5 1197.28 1468.38 L1197.28 1451.02 Z" fill="#000000" fill-rule="nonzero" fill-opacity="1" /><path clip-path="url(#clip540)" d="M1538.35 1481.64 L1554.66 1481.64 L1554.66 1485.58 L1532.72 1485.58 L1532.72 1481.64 Q1535.38 1478.89 1539.97 1474.26 Q1544.57 1469.61 1545.75 1468.27 Q1548 1465.74 1548.88 1464.01 Q1549.78 1462.25 1549.78 1460.56 Q1549.78 1457.8 1547.84 1456.07 Q1545.92 1454.33 1542.81 1454.33 Q1540.61 1454.33 1538.16 1455.09 Q1535.73 1455.86 1532.95 1457.41 L1532.95 1452.69 Q1535.78 1451.55 1538.23 1450.97 Q1540.68 1450.39 1542.72 1450.39 Q1548.09 1450.39 1551.29 1453.08 Q1554.48 1455.77 1554.48 1460.26 Q1554.48 1462.39 1553.67 1464.31 Q1552.88 1466.2 1550.78 1468.8 Q1550.2 1469.47 1547.1 1472.69 Q1543.99 1475.88 1538.35 1481.64 Z" fill="#000000" fill-rule="nonzero" fill-opacity="1" /><path clip-path="url(#clip540)" d="M1574.48 1454.1 Q1570.87 1454.1 1569.04 1457.66 Q1567.23 1461.2 1567.23 1468.33 Q1567.23 1475.44 1569.04 1479.01 Q1570.87 1482.55 1574.48 1482.55 Q1578.11 1482.55 1579.92 1479.01 Q1581.75 1475.44 1581.75 1468.33 Q1581.75 1461.2 1579.92 1457.66 Q1578.11 1454.1 1574.48 1454.1 M1574.48 1450.39 Q1580.29 1450.39 1583.35 1455 Q1586.42 1459.58 1586.42 1468.33 Q1586.42 1477.06 1583.35 1481.67 Q1580.29 1486.25 1574.48 1486.25 Q1568.67 1486.25 1565.59 1481.67 Q1562.54 1477.06 1562.54 1468.33 Q1562.54 1459.58 1565.59 1455 Q1568.67 1450.39 1574.48 1450.39 Z" fill="#000000" fill-rule="nonzero" fill-opacity="1" /><path clip-path="url(#clip540)" d="M1905.72 1481.64 L1922.04 1481.64 L1922.04 1485.58 L1900.09 1485.58 L1900.09 1481.64 Q1902.76 1478.89 1907.34 1474.26 Q1911.95 1469.61 1913.13 1468.27 Q1915.37 1465.74 1916.25 1464.01 Q1917.15 1462.25 1917.15 1460.56 Q1917.15 1457.8 1915.21 1456.07 Q1913.29 1454.33 1910.19 1454.33 Q1907.99 1454.33 1905.53 1455.09 Q1903.1 1455.86 1900.32 1457.41 L1900.32 1452.69 Q1903.15 1451.55 1905.6 1450.97 Q1908.06 1450.39 1910.09 1450.39 Q1915.46 1450.39 1918.66 1453.08 Q1921.85 1455.77 1921.85 1460.26 Q1921.85 1462.39 1921.04 1464.31 Q1920.26 1466.2 1918.15 1468.8 Q1917.57 1469.47 1914.47 1472.69 Q1911.37 1475.88 1905.72 1481.64 Z" fill="#000000" fill-rule="nonzero" fill-opacity="1" /><path clip-path="url(#clip540)" d="M1931.9 1451.02 L1950.26 1451.02 L1950.26 1454.96 L1936.18 1454.96 L1936.18 1463.43 Q1937.2 1463.08 1938.22 1462.92 Q1939.24 1462.73 1940.26 1462.73 Q1946.04 1462.73 1949.42 1465.9 Q1952.8 1469.08 1952.8 1474.49 Q1952.8 1480.07 1949.33 1483.17 Q1945.86 1486.25 1939.54 1486.25 Q1937.36 1486.25 1935.09 1485.88 Q1932.85 1485.51 1930.44 1484.77 L1930.44 1480.07 Q1932.52 1481.2 1934.75 1481.76 Q1936.97 1482.32 1939.44 1482.32 Q1943.45 1482.32 1945.79 1480.21 Q1948.13 1478.1 1948.13 1474.49 Q1948.13 1470.88 1945.79 1468.77 Q1943.45 1466.67 1939.44 1466.67 Q1937.57 1466.67 1935.69 1467.08 Q1933.84 1467.5 1931.9 1468.38 L1931.9 1451.02 Z" fill="#000000" fill-rule="nonzero" fill-opacity="1" /><path clip-path="url(#clip540)" d="M2282.16 1466.95 Q2285.52 1467.66 2287.4 1469.93 Q2289.29 1472.2 2289.29 1475.53 Q2289.29 1480.65 2285.78 1483.45 Q2282.26 1486.25 2275.78 1486.25 Q2273.6 1486.25 2271.29 1485.81 Q2268.99 1485.39 2266.54 1484.54 L2266.54 1480.02 Q2268.48 1481.16 2270.8 1481.74 Q2273.11 1482.32 2275.64 1482.32 Q2280.04 1482.32 2282.33 1480.58 Q2284.64 1478.84 2284.64 1475.53 Q2284.64 1472.48 2282.49 1470.77 Q2280.36 1469.03 2276.54 1469.03 L2272.51 1469.03 L2272.51 1465.19 L2276.73 1465.19 Q2280.17 1465.19 2282 1463.82 Q2283.83 1462.43 2283.83 1459.84 Q2283.83 1457.18 2281.93 1455.77 Q2280.06 1454.33 2276.54 1454.33 Q2274.62 1454.33 2272.42 1454.75 Q2270.22 1455.16 2267.58 1456.04 L2267.58 1451.88 Q2270.24 1451.14 2272.56 1450.77 Q2274.9 1450.39 2276.96 1450.39 Q2282.28 1450.39 2285.38 1452.83 Q2288.48 1455.23 2288.48 1459.35 Q2288.48 1462.22 2286.84 1464.21 Q2285.2 1466.18 2282.16 1466.95 Z" fill="#000000" fill-rule="nonzero" fill-opacity="1" /><path clip-path="url(#clip540)" d="M2308.16 1454.1 Q2304.55 1454.1 2302.72 1457.66 Q2300.91 1461.2 2300.91 1468.33 Q2300.91 1475.44 2302.72 1479.01 Q2304.55 1482.55 2308.16 1482.55 Q2311.79 1482.55 2313.6 1479.01 Q2315.43 1475.44 2315.43 1468.33 Q2315.43 1461.2 2313.6 1457.66 Q2311.79 1454.1 2308.16 1454.1 M2308.16 1450.39 Q2313.97 1450.39 2317.03 1455 Q2320.1 1459.58 2320.1 1468.33 Q2320.1 1477.06 2317.03 1481.67 Q2313.97 1486.25 2308.16 1486.25 Q2302.35 1486.25 2299.27 1481.67 Q2296.22 1477.06 2296.22 1468.33 Q2296.22 1459.58 2299.27 1455 Q2302.35 1450.39 2308.16 1450.39 Z" fill="#000000" fill-rule="nonzero" fill-opacity="1" /><path clip-path="url(#clip540)" d="M963.738 1520.52 L973.319 1520.52 L985.445 1552.86 L997.636 1520.52 L1007.22 1520.52 L1007.22 1568.04 L1000.95 1568.04 L1000.95 1526.32 L988.692 1558.91 L982.231 1558.91 L969.977 1526.32 L969.977 1568.04 L963.738 1568.04 L963.738 1520.52 Z" fill="#000000" fill-rule="nonzero" fill-opacity="1" /><path clip-path="url(#clip540)" d="M1035.93 1550.12 Q1028.83 1550.12 1026.09 1551.75 Q1023.35 1553.37 1023.35 1557.29 Q1023.35 1560.4 1025.39 1562.25 Q1027.46 1564.07 1030.99 1564.07 Q1035.86 1564.07 1038.79 1560.63 Q1041.75 1557.16 1041.75 1551.43 L1041.75 1550.12 L1035.93 1550.12 M1047.61 1547.71 L1047.61 1568.04 L1041.75 1568.04 L1041.75 1562.63 Q1039.74 1565.88 1036.75 1567.44 Q1033.76 1568.97 1029.43 1568.97 Q1023.96 1568.97 1020.71 1565.91 Q1017.5 1562.82 1017.5 1557.67 Q1017.5 1551.65 1021.51 1548.6 Q1025.55 1545.54 1033.54 1545.54 L1041.75 1545.54 L1041.75 1544.97 Q1041.75 1540.93 1039.08 1538.73 Q1036.43 1536.5 1031.63 1536.5 Q1028.57 1536.5 1025.68 1537.23 Q1022.78 1537.97 1020.11 1539.43 L1020.11 1534.02 Q1023.32 1532.78 1026.35 1532.17 Q1029.37 1531.54 1032.23 1531.54 Q1039.97 1531.54 1043.79 1535.55 Q1047.61 1539.56 1047.61 1547.71 Z" fill="#000000" fill-rule="nonzero" fill-opacity="1" /><path clip-path="url(#clip540)" d="M1089.3 1532.4 L1076.41 1549.74 L1089.97 1568.04 L1083.06 1568.04 L1072.69 1554.04 L1062.31 1568.04 L1055.4 1568.04 L1069.25 1549.39 L1056.58 1532.4 L1063.49 1532.4 L1072.94 1545.1 L1082.4 1532.4 L1089.3 1532.4 Z" fill="#000000" fill-rule="nonzero" fill-opacity="1" /><path clip-path="url(#clip540)" d="M1125.65 1545.35 L1125.65 1562.76 L1135.96 1562.76 Q1141.15 1562.76 1143.63 1560.63 Q1146.15 1558.46 1146.15 1554.04 Q1146.15 1549.58 1143.63 1547.48 Q1141.15 1545.35 1135.96 1545.35 L1125.65 1545.35 M1125.65 1525.81 L1125.65 1540.13 L1135.17 1540.13 Q1139.88 1540.13 1142.17 1538.38 Q1144.49 1536.6 1144.49 1532.97 Q1144.49 1529.37 1142.17 1527.59 Q1139.88 1525.81 1135.17 1525.81 L1125.65 1525.81 M1119.22 1520.52 L1135.64 1520.52 Q1143 1520.52 1146.98 1523.58 Q1150.95 1526.63 1150.95 1532.27 Q1150.95 1536.63 1148.92 1539.21 Q1146.88 1541.79 1142.93 1542.42 Q1147.68 1543.44 1150.29 1546.69 Q1152.93 1549.9 1152.93 1554.74 Q1152.93 1561.11 1148.6 1564.57 Q1144.27 1568.04 1136.28 1568.04 L1119.22 1568.04 L1119.22 1520.52 Z" fill="#000000" fill-rule="nonzero" fill-opacity="1" /><path clip-path="url(#clip540)" d="M1177.5 1536.5 Q1172.79 1536.5 1170.05 1540.19 Q1167.31 1543.85 1167.31 1550.25 Q1167.31 1556.65 1170.02 1560.34 Q1172.76 1564 1177.5 1564 Q1182.18 1564 1184.91 1560.31 Q1187.65 1556.62 1187.65 1550.25 Q1187.65 1543.92 1184.91 1540.23 Q1182.18 1536.5 1177.5 1536.5 M1177.5 1531.54 Q1185.14 1531.54 1189.5 1536.5 Q1193.86 1541.47 1193.86 1550.25 Q1193.86 1559 1189.5 1564 Q1185.14 1568.97 1177.5 1568.97 Q1169.83 1568.97 1165.47 1564 Q1161.14 1559 1161.14 1550.25 Q1161.14 1541.47 1165.47 1536.5 Q1169.83 1531.54 1177.5 1531.54 Z" fill="#000000" fill-rule="nonzero" fill-opacity="1" /><path clip-path="url(#clip540)" d="M1233.2 1546.53 L1233.2 1568.04 L1227.34 1568.04 L1227.34 1546.72 Q1227.34 1541.66 1225.37 1539.14 Q1223.4 1536.63 1219.45 1536.63 Q1214.71 1536.63 1211.97 1539.65 Q1209.23 1542.68 1209.23 1547.9 L1209.23 1568.04 L1203.34 1568.04 L1203.34 1532.4 L1209.23 1532.4 L1209.23 1537.93 Q1211.33 1534.72 1214.17 1533.13 Q1217.03 1531.54 1220.75 1531.54 Q1226.9 1531.54 1230.05 1535.36 Q1233.2 1539.14 1233.2 1546.53 Z" fill="#000000" fill-rule="nonzero" fill-opacity="1" /><path clip-path="url(#clip540)" d="M1268.34 1537.81 L1268.34 1518.52 L1274.19 1518.52 L1274.19 1568.04 L1268.34 1568.04 L1268.34 1562.7 Q1266.49 1565.88 1263.66 1567.44 Q1260.86 1568.97 1256.91 1568.97 Q1250.45 1568.97 1246.38 1563.81 Q1242.33 1558.65 1242.33 1550.25 Q1242.33 1541.85 1246.38 1536.69 Q1250.45 1531.54 1256.91 1531.54 Q1260.86 1531.54 1263.66 1533.1 Q1266.49 1534.62 1268.34 1537.81 M1248.38 1550.25 Q1248.38 1556.71 1251.02 1560.4 Q1253.7 1564.07 1258.34 1564.07 Q1262.99 1564.07 1265.66 1560.4 Q1268.34 1556.71 1268.34 1550.25 Q1268.34 1543.79 1265.66 1540.13 Q1262.99 1536.44 1258.34 1536.44 Q1253.7 1536.44 1251.02 1540.13 Q1248.38 1543.79 1248.38 1550.25 Z" fill="#000000" fill-rule="nonzero" fill-opacity="1" /><path clip-path="url(#clip540)" d="M1313.66 1525.81 L1313.66 1562.76 L1321.43 1562.76 Q1331.26 1562.76 1335.81 1558.3 Q1340.4 1553.85 1340.4 1544.24 Q1340.4 1534.69 1335.81 1530.26 Q1331.26 1525.81 1321.43 1525.81 L1313.66 1525.81 M1307.23 1520.52 L1320.44 1520.52 Q1334.25 1520.52 1340.72 1526.28 Q1347.18 1532.01 1347.18 1544.24 Q1347.18 1556.52 1340.68 1562.28 Q1334.19 1568.04 1320.44 1568.04 L1307.23 1568.04 L1307.23 1520.52 Z" fill="#000000" fill-rule="nonzero" fill-opacity="1" /><path clip-path="url(#clip540)" d="M1357.17 1532.4 L1363.03 1532.4 L1363.03 1568.04 L1357.17 1568.04 L1357.17 1532.4 M1357.17 1518.52 L1363.03 1518.52 L1363.03 1525.93 L1357.17 1525.93 L1357.17 1518.52 Z" fill="#000000" fill-rule="nonzero" fill-opacity="1" /><path clip-path="url(#clip540)" d="M1403.04 1539.24 Q1405.23 1535.29 1408.29 1533.41 Q1411.34 1531.54 1415.48 1531.54 Q1421.05 1531.54 1424.07 1535.45 Q1427.1 1539.33 1427.1 1546.53 L1427.1 1568.04 L1421.21 1568.04 L1421.21 1546.72 Q1421.21 1541.59 1419.4 1539.11 Q1417.58 1536.63 1413.86 1536.63 Q1409.31 1536.63 1406.66 1539.65 Q1404.02 1542.68 1404.02 1547.9 L1404.02 1568.04 L1398.13 1568.04 L1398.13 1546.72 Q1398.13 1541.56 1396.32 1539.11 Q1394.51 1536.63 1390.72 1536.63 Q1386.23 1536.63 1383.59 1539.68 Q1380.95 1542.71 1380.95 1547.9 L1380.95 1568.04 L1375.06 1568.04 L1375.06 1532.4 L1380.95 1532.4 L1380.95 1537.93 Q1382.95 1534.66 1385.75 1533.1 Q1388.55 1531.54 1392.4 1531.54 Q1396.29 1531.54 1398.99 1533.51 Q1401.73 1535.48 1403.04 1539.24 Z" fill="#000000" fill-rule="nonzero" fill-opacity="1" /><path clip-path="url(#clip540)" d="M1469.27 1548.76 L1469.27 1551.62 L1442.34 1551.62 Q1442.73 1557.67 1445.97 1560.85 Q1449.25 1564 1455.08 1564 Q1458.45 1564 1461.6 1563.17 Q1464.78 1562.35 1467.9 1560.69 L1467.9 1566.23 Q1464.75 1567.57 1461.44 1568.27 Q1458.13 1568.97 1454.73 1568.97 Q1446.2 1568.97 1441.2 1564 Q1436.23 1559.04 1436.23 1550.57 Q1436.23 1541.82 1440.94 1536.69 Q1445.69 1531.54 1453.71 1531.54 Q1460.9 1531.54 1465.07 1536.18 Q1469.27 1540.8 1469.27 1548.76 M1463.41 1547.04 Q1463.35 1542.23 1460.71 1539.37 Q1458.1 1536.5 1453.77 1536.5 Q1448.87 1536.5 1445.91 1539.27 Q1442.98 1542.04 1442.53 1547.07 L1463.41 1547.04 Z" fill="#000000" fill-rule="nonzero" fill-opacity="1" /><path clip-path="url(#clip540)" d="M1508.52 1546.53 L1508.52 1568.04 L1502.66 1568.04 L1502.66 1546.72 Q1502.66 1541.66 1500.69 1539.14 Q1498.71 1536.63 1494.77 1536.63 Q1490.02 1536.63 1487.29 1539.65 Q1484.55 1542.68 1484.55 1547.9 L1484.55 1568.04 L1478.66 1568.04 L1478.66 1532.4 L1484.55 1532.4 L1484.55 1537.93 Q1486.65 1534.72 1489.48 1533.13 Q1492.35 1531.54 1496.07 1531.54 Q1502.21 1531.54 1505.36 1535.36 Q1508.52 1539.14 1508.52 1546.53 Z" fill="#000000" fill-rule="nonzero" fill-opacity="1" /><path clip-path="url(#clip540)" d="M1542.92 1533.45 L1542.92 1538.98 Q1540.44 1537.71 1537.77 1537.07 Q1535.09 1536.44 1532.23 1536.44 Q1527.87 1536.44 1525.67 1537.77 Q1523.51 1539.11 1523.51 1541.79 Q1523.51 1543.82 1525.07 1545 Q1526.63 1546.15 1531.34 1547.2 L1533.34 1547.64 Q1539.58 1548.98 1542.19 1551.43 Q1544.83 1553.85 1544.83 1558.21 Q1544.83 1563.17 1540.89 1566.07 Q1536.97 1568.97 1530.1 1568.97 Q1527.23 1568.97 1524.11 1568.39 Q1521.02 1567.85 1517.59 1566.74 L1517.59 1560.69 Q1520.83 1562.38 1523.98 1563.24 Q1527.14 1564.07 1530.22 1564.07 Q1534.36 1564.07 1536.59 1562.66 Q1538.82 1561.23 1538.82 1558.65 Q1538.82 1556.27 1537.19 1554.99 Q1535.6 1553.72 1530.16 1552.54 L1528.12 1552.07 Q1522.68 1550.92 1520.26 1548.56 Q1517.84 1546.18 1517.84 1542.04 Q1517.84 1537.01 1521.41 1534.27 Q1524.97 1531.54 1531.53 1531.54 Q1534.77 1531.54 1537.64 1532.01 Q1540.5 1532.49 1542.92 1533.45 Z" fill="#000000" fill-rule="nonzero" fill-opacity="1" /><path clip-path="url(#clip540)" d="M1554.16 1532.4 L1560.01 1532.4 L1560.01 1568.04 L1554.16 1568.04 L1554.16 1532.4 M1554.16 1518.52 L1560.01 1518.52 L1560.01 1525.93 L1554.16 1525.93 L1554.16 1518.52 Z" fill="#000000" fill-rule="nonzero" fill-opacity="1" /><path clip-path="url(#clip540)" d="M1586.08 1536.5 Q1581.37 1536.5 1578.63 1540.19 Q1575.9 1543.85 1575.9 1550.25 Q1575.9 1556.65 1578.6 1560.34 Q1581.34 1564 1586.08 1564 Q1590.76 1564 1593.5 1560.31 Q1596.23 1556.62 1596.23 1550.25 Q1596.23 1543.92 1593.5 1540.23 Q1590.76 1536.5 1586.08 1536.5 M1586.08 1531.54 Q1593.72 1531.54 1598.08 1536.5 Q1602.44 1541.47 1602.44 1550.25 Q1602.44 1559 1598.08 1564 Q1593.72 1568.97 1586.08 1568.97 Q1578.41 1568.97 1574.05 1564 Q1569.72 1559 1569.72 1550.25 Q1569.72 1541.47 1574.05 1536.5 Q1578.41 1531.54 1586.08 1531.54 Z" fill="#000000" fill-rule="nonzero" fill-opacity="1" /><path clip-path="url(#clip540)" d="M1641.78 1546.53 L1641.78 1568.04 L1635.93 1568.04 L1635.93 1546.72 Q1635.93 1541.66 1633.95 1539.14 Q1631.98 1536.63 1628.03 1536.63 Q1623.29 1536.63 1620.55 1539.65 Q1617.81 1542.68 1617.81 1547.9 L1617.81 1568.04 L1611.93 1568.04 L1611.93 1532.4 L1617.81 1532.4 L1617.81 1537.93 Q1619.92 1534.72 1622.75 1533.13 Q1625.61 1531.54 1629.34 1531.54 Q1635.48 1531.54 1638.63 1535.36 Q1641.78 1539.14 1641.78 1546.53 Z" fill="#000000" fill-rule="nonzero" fill-opacity="1" /><polyline clip-path="url(#clip540)" style="stroke:#000000; stroke-linecap:round; stroke-linejoin:round; stroke-width:4; stroke-opacity:1; fill:none" points="252.764,1423.18 252.764,123.472 "/>
<polyline clip-path="url(#clip540)" style="stroke:#000000; stroke-linecap:round; stroke-linejoin:round; stroke-width:4; stroke-opacity:1; fill:none" points="252.764,1354.94 271.662,1354.94 "/>
<polyline clip-path="url(#clip540)" style="stroke:#000000; stroke-linecap:round; stroke-linejoin:round; stroke-width:4; stroke-opacity:1; fill:none" points="252.764,694.08 271.662,694.08 "/>
<path clip-path="url(#clip540)" d="M114.931 1374.74 L122.57 1374.74 L122.57 1348.37 L114.26 1350.04 L114.26 1345.78 L122.524 1344.11 L127.2 1344.11 L127.2 1374.74 L134.839 1374.74 L134.839 1378.67 L114.931 1378.67 L114.931 1374.74 Z" fill="#000000" fill-rule="nonzero" fill-opacity="1" /><path clip-path="url(#clip540)" d="M154.283 1347.19 Q150.672 1347.19 148.843 1350.75 Q147.038 1354.3 147.038 1361.43 Q147.038 1368.53 148.843 1372.1 Q150.672 1375.64 154.283 1375.64 Q157.917 1375.64 159.723 1372.1 Q161.552 1368.53 161.552 1361.43 Q161.552 1354.3 159.723 1350.75 Q157.917 1347.19 154.283 1347.19 M154.283 1343.49 Q160.093 1343.49 163.149 1348.09 Q166.227 1352.68 166.227 1361.43 Q166.227 1370.15 163.149 1374.76 Q160.093 1379.34 154.283 1379.34 Q148.473 1379.34 145.394 1374.76 Q142.339 1370.15 142.339 1361.43 Q142.339 1352.68 145.394 1348.09 Q148.473 1343.49 154.283 1343.49 Z" fill="#000000" fill-rule="nonzero" fill-opacity="1" /><path clip-path="url(#clip540)" d="M166.227 1337.59 L190.339 1337.59 L190.339 1340.78 L166.227 1340.78 L166.227 1337.59 Z" fill="#000000" fill-rule="nonzero" fill-opacity="1" /><path clip-path="url(#clip540)" d="M208.978 1326.49 L199.386 1341.48 L208.978 1341.48 L208.978 1326.49 M207.981 1323.18 L212.758 1323.18 L212.758 1341.48 L216.764 1341.48 L216.764 1344.64 L212.758 1344.64 L212.758 1351.26 L208.978 1351.26 L208.978 1344.64 L196.301 1344.64 L196.301 1340.97 L207.981 1323.18 Z" fill="#000000" fill-rule="nonzero" fill-opacity="1" /><path clip-path="url(#clip540)" d="M116.624 713.872 L124.263 713.872 L124.263 687.507 L115.953 689.173 L115.953 684.914 L124.217 683.247 L128.893 683.247 L128.893 713.872 L136.531 713.872 L136.531 717.807 L116.624 717.807 L116.624 713.872 Z" fill="#000000" fill-rule="nonzero" fill-opacity="1" /><path clip-path="url(#clip540)" d="M155.976 686.326 Q152.365 686.326 150.536 689.891 Q148.73 693.433 148.73 700.562 Q148.73 707.669 150.536 711.233 Q152.365 714.775 155.976 714.775 Q159.61 714.775 161.416 711.233 Q163.244 707.669 163.244 700.562 Q163.244 693.433 161.416 689.891 Q159.61 686.326 155.976 686.326 M155.976 682.622 Q161.786 682.622 164.841 687.229 Q167.92 691.812 167.92 700.562 Q167.92 709.289 164.841 713.895 Q161.786 718.479 155.976 718.479 Q150.166 718.479 147.087 713.895 Q144.031 709.289 144.031 700.562 Q144.031 691.812 147.087 687.229 Q150.166 682.622 155.976 682.622 Z" fill="#000000" fill-rule="nonzero" fill-opacity="1" /><path clip-path="url(#clip540)" d="M167.92 676.724 L192.032 676.724 L192.032 679.921 L167.92 679.921 L167.92 676.724 Z" fill="#000000" fill-rule="nonzero" fill-opacity="1" /><path clip-path="url(#clip540)" d="M203.504 687.2 L216.764 687.2 L216.764 690.397 L198.934 690.397 L198.934 687.2 Q201.097 684.962 204.821 681.2 Q208.564 677.42 209.523 676.329 Q211.347 674.279 212.062 672.868 Q212.796 671.439 212.796 670.066 Q212.796 667.828 211.216 666.417 Q209.655 665.007 207.134 665.007 Q205.348 665.007 203.354 665.627 Q201.379 666.248 199.122 667.508 L199.122 663.671 Q201.417 662.75 203.41 662.279 Q205.404 661.809 207.059 661.809 Q211.423 661.809 214.018 663.991 Q216.613 666.173 216.613 669.821 Q216.613 671.552 215.955 673.113 Q215.316 674.655 213.604 676.761 Q213.134 677.307 210.614 679.921 Q208.094 682.517 203.504 687.2 Z" fill="#000000" fill-rule="nonzero" fill-opacity="1" /><path clip-path="url(#clip540)" d="M18.0438 1022.54 L24.314 1022.54 Q22.5634 1026.2 21.704 1029.45 Q20.8447 1032.7 20.8447 1035.72 Q20.8447 1040.97 22.8817 1043.84 Q24.9187 1046.67 28.6745 1046.67 Q31.8255 1046.67 33.4488 1044.79 Q35.0402 1042.88 36.0269 1037.6 L36.8226 1033.72 Q38.1912 1026.52 41.6605 1023.12 Q45.098 1019.68 50.8908 1019.68 Q57.7976 1019.68 61.3624 1024.33 Q64.9272 1028.94 64.9272 1037.88 Q64.9272 1041.26 64.1633 1045.08 Q63.3994 1048.87 61.9035 1052.94 L55.2831 1052.94 Q57.4793 1049.02 58.5933 1045.27 Q59.7073 1041.51 59.7073 1037.88 Q59.7073 1032.38 57.543 1029.39 Q55.3786 1026.39 51.3682 1026.39 Q47.8671 1026.39 45.8937 1028.56 Q43.9204 1030.69 42.9337 1035.59 L42.1698 1039.51 Q40.7375 1046.7 37.682 1049.92 Q34.6264 1053.13 29.1837 1053.13 Q22.8817 1053.13 19.2532 1048.71 Q15.6248 1044.25 15.6248 1036.45 Q15.6248 1033.11 16.2295 1029.64 Q16.8343 1026.17 18.0438 1022.54 Z" fill="#000000" fill-rule="nonzero" fill-opacity="1" /><path clip-path="url(#clip540)" d="M46.0847 993.707 Q46.0847 1000.8 47.7079 1003.54 Q49.3312 1006.28 53.2461 1006.28 Q56.3653 1006.28 58.2114 1004.24 Q60.0256 1002.17 60.0256 998.64 Q60.0256 993.77 56.5881 990.842 Q53.1188 987.882 47.3897 987.882 L46.0847 987.882 L46.0847 993.707 M43.6657 982.026 L64.0042 982.026 L64.0042 987.882 L58.5933 987.882 Q61.8398 989.887 63.3994 992.879 Q64.9272 995.871 64.9272 1000.2 Q64.9272 1005.67 61.8716 1008.92 Q58.7843 1012.14 53.6281 1012.14 Q47.6125 1012.14 44.5569 1008.13 Q41.5014 1004.08 41.5014 996.094 L41.5014 987.882 L40.9285 987.882 Q36.8862 987.882 34.6901 990.556 Q32.4621 993.197 32.4621 998.004 Q32.4621 1001.06 33.1941 1003.96 Q33.9262 1006.85 35.3903 1009.53 L29.9795 1009.53 Q28.7381 1006.31 28.1334 1003.29 Q27.4968 1000.26 27.4968 997.399 Q27.4968 989.665 31.5072 985.845 Q35.5176 982.026 43.6657 982.026 Z" fill="#000000" fill-rule="nonzero" fill-opacity="1" /><path clip-path="url(#clip540)" d="M35.1993 942.208 Q31.2526 940.012 29.3747 936.956 Q27.4968 933.901 27.4968 929.763 Q27.4968 924.193 31.4117 921.17 Q35.2948 918.146 42.4881 918.146 L64.0042 918.146 L64.0042 924.034 L42.679 924.034 Q37.5546 924.034 35.072 925.848 Q32.5894 927.663 32.5894 931.386 Q32.5894 935.938 35.6131 938.58 Q38.6368 941.221 43.8567 941.221 L64.0042 941.221 L64.0042 947.11 L42.679 947.11 Q37.5228 947.11 35.072 948.924 Q32.5894 950.738 32.5894 954.526 Q32.5894 959.014 35.6449 961.655 Q38.6686 964.297 43.8567 964.297 L64.0042 964.297 L64.0042 970.185 L28.3562 970.185 L28.3562 964.297 L33.8944 964.297 Q30.616 962.292 29.0564 959.491 Q27.4968 956.69 27.4968 952.839 Q27.4968 948.956 29.4702 946.25 Q31.4436 943.513 35.1993 942.208 Z" fill="#000000" fill-rule="nonzero" fill-opacity="1" /><path clip-path="url(#clip540)" d="M58.657 900.799 L77.5631 900.799 L77.5631 906.688 L28.3562 906.688 L28.3562 900.799 L33.7671 900.799 Q30.5842 898.953 29.0564 896.152 Q27.4968 893.32 27.4968 889.405 Q27.4968 882.912 32.6531 878.869 Q37.8093 874.795 46.212 874.795 Q54.6147 874.795 59.771 878.869 Q64.9272 882.912 64.9272 889.405 Q64.9272 893.32 63.3994 896.152 Q61.8398 898.953 58.657 900.799 M46.212 880.875 Q39.7508 880.875 36.0905 883.548 Q32.3984 886.19 32.3984 890.837 Q32.3984 895.484 36.0905 898.157 Q39.7508 900.799 46.212 900.799 Q52.6732 900.799 56.3653 898.157 Q60.0256 895.484 60.0256 890.837 Q60.0256 886.19 56.3653 883.548 Q52.6732 880.875 46.212 880.875 Z" fill="#000000" fill-rule="nonzero" fill-opacity="1" /><path clip-path="url(#clip540)" d="M14.479 865.088 L14.479 859.231 L64.0042 859.231 L64.0042 865.088 L14.479 865.088 Z" fill="#000000" fill-rule="nonzero" fill-opacity="1" /><path clip-path="url(#clip540)" d="M44.7161 816.485 L47.5806 816.485 L47.5806 843.412 Q53.6281 843.03 56.8109 839.784 Q59.9619 836.506 59.9619 830.681 Q59.9619 827.307 59.1344 824.156 Q58.3069 820.973 56.6518 817.854 L62.1899 817.854 Q63.5267 821.005 64.227 824.315 Q64.9272 827.625 64.9272 831.031 Q64.9272 839.561 59.9619 844.558 Q54.9967 849.523 46.5303 849.523 Q37.7774 849.523 32.6531 844.813 Q27.4968 840.07 27.4968 832.05 Q27.4968 824.856 32.1438 820.687 Q36.7589 816.485 44.7161 816.485 M42.9973 822.342 Q38.1912 822.406 35.3266 825.047 Q32.4621 827.657 32.4621 831.986 Q32.4621 836.888 35.2312 839.848 Q38.0002 842.776 43.0292 843.221 L42.9973 822.342 Z" fill="#000000" fill-rule="nonzero" fill-opacity="1" /><path clip-path="url(#clip540)" d="M33.7671 783.416 L14.479 783.416 L14.479 777.559 L64.0042 777.559 L64.0042 783.416 L58.657 783.416 Q61.8398 785.262 63.3994 788.094 Q64.9272 790.895 64.9272 794.842 Q64.9272 801.303 59.771 805.377 Q54.6147 809.42 46.212 809.42 Q37.8093 809.42 32.6531 805.377 Q27.4968 801.303 27.4968 794.842 Q27.4968 790.895 29.0564 788.094 Q30.5842 785.262 33.7671 783.416 M46.212 803.372 Q52.6732 803.372 56.3653 800.73 Q60.0256 798.057 60.0256 793.41 Q60.0256 788.763 56.3653 786.089 Q52.6732 783.416 46.212 783.416 Q39.7508 783.416 36.0905 786.089 Q32.3984 788.763 32.3984 793.41 Q32.3984 798.057 36.0905 800.73 Q39.7508 803.372 46.212 803.372 Z" fill="#000000" fill-rule="nonzero" fill-opacity="1" /><path clip-path="url(#clip540)" d="M16.4842 744.521 L16.4842 738.092 L58.5933 738.092 L58.5933 714.952 L64.0042 714.952 L64.0042 744.521 L16.4842 744.521 Z" fill="#000000" fill-rule="nonzero" fill-opacity="1" /><path clip-path="url(#clip540)" d="M58.5933 706.518 L58.5933 696.014 L22.3406 696.014 L24.6323 707.441 L18.7758 707.441 L16.4842 696.078 L16.4842 689.649 L58.5933 689.649 L58.5933 679.145 L64.0042 679.145 L64.0042 706.518 L58.5933 706.518 Z" fill="#000000" fill-rule="nonzero" fill-opacity="1" /><path clip-path="url(#clip540)" d="M16.4842 646.012 L16.4842 615.966 L21.895 615.966 L21.895 639.582 L35.9632 639.582 L35.9632 616.952 L41.3741 616.952 L41.3741 639.582 L58.5933 639.582 L58.5933 615.393 L64.0042 615.393 L64.0042 646.012 L16.4842 646.012 Z" fill="#000000" fill-rule="nonzero" fill-opacity="1" /><path clip-path="url(#clip540)" d="M33.8307 584.424 Q33.2578 585.41 33.0032 586.588 Q32.7167 587.734 32.7167 589.134 Q32.7167 594.1 35.9632 596.773 Q39.1779 599.415 45.2253 599.415 L64.0042 599.415 L64.0042 605.303 L28.3562 605.303 L28.3562 599.415 L33.8944 599.415 Q30.6479 597.569 29.0883 594.609 Q27.4968 591.649 27.4968 587.416 Q27.4968 586.811 27.5923 586.079 Q27.656 585.347 27.8151 584.455 L33.8307 584.424 Z" fill="#000000" fill-rule="nonzero" fill-opacity="1" /><path clip-path="url(#clip540)" d="M33.8307 558.77 Q33.2578 559.757 33.0032 560.934 Q32.7167 562.08 32.7167 563.48 Q32.7167 568.446 35.9632 571.119 Q39.1779 573.761 45.2253 573.761 L64.0042 573.761 L64.0042 579.649 L28.3562 579.649 L28.3562 573.761 L33.8944 573.761 Q30.6479 571.915 29.0883 568.955 Q27.4968 565.995 27.4968 561.762 Q27.4968 561.157 27.5923 560.425 Q27.656 559.693 27.8151 558.802 L33.8307 558.77 Z" fill="#000000" fill-rule="nonzero" fill-opacity="1" /><path clip-path="url(#clip540)" d="M32.4621 540.246 Q32.4621 544.956 36.1542 547.694 Q39.8145 550.431 46.212 550.431 Q52.6095 550.431 56.3017 547.725 Q59.9619 544.988 59.9619 540.246 Q59.9619 535.567 56.2698 532.83 Q52.5777 530.092 46.212 530.092 Q39.8781 530.092 36.186 532.83 Q32.4621 535.567 32.4621 540.246 M27.4968 540.246 Q27.4968 532.607 32.4621 528.246 Q37.4273 523.886 46.212 523.886 Q54.9649 523.886 59.9619 528.246 Q64.9272 532.607 64.9272 540.246 Q64.9272 547.916 59.9619 552.277 Q54.9649 556.606 46.212 556.606 Q37.4273 556.606 32.4621 552.277 Q27.4968 547.916 27.4968 540.246 Z" fill="#000000" fill-rule="nonzero" fill-opacity="1" /><path clip-path="url(#clip540)" d="M33.8307 493.521 Q33.2578 494.508 33.0032 495.686 Q32.7167 496.832 32.7167 498.232 Q32.7167 503.197 35.9632 505.871 Q39.1779 508.513 45.2253 508.513 L64.0042 508.513 L64.0042 514.401 L28.3562 514.401 L28.3562 508.513 L33.8944 508.513 Q30.6479 506.667 29.0883 503.706 Q27.4968 500.746 27.4968 496.513 Q27.4968 495.908 27.5923 495.176 Q27.656 494.444 27.8151 493.553 L33.8307 493.521 Z" fill="#000000" fill-rule="nonzero" fill-opacity="1" /><path clip-path="url(#clip540)" d="M477.489 14.0809 L477.489 22.0612 Q472.831 19.8332 468.699 18.7395 Q464.567 17.6457 460.719 17.6457 Q454.035 17.6457 450.389 20.2383 Q446.784 22.8309 446.784 27.611 Q446.784 31.6214 449.174 33.6873 Q451.604 35.7128 458.329 36.9686 L463.271 37.9813 Q472.426 39.7232 476.76 44.1387 Q481.135 48.5136 481.135 55.8863 Q481.135 64.6767 475.221 69.2137 Q469.347 73.7508 457.964 73.7508 Q453.67 73.7508 448.809 72.7785 Q443.988 71.8063 438.803 69.9024 L438.803 61.4765 Q443.786 64.2716 448.566 65.6895 Q453.346 67.1073 457.964 67.1073 Q464.972 67.1073 468.78 64.3527 Q472.588 61.598 472.588 56.4939 Q472.588 52.0379 469.833 49.5264 Q467.119 47.0148 460.881 45.759 L455.898 44.7868 Q446.743 42.9639 442.652 39.075 Q438.56 35.1862 438.56 28.2591 Q438.56 20.2383 444.191 15.6203 Q449.862 11.0023 459.787 11.0023 Q464.04 11.0023 468.456 11.7719 Q472.871 12.5416 477.489 14.0809 Z" fill="#000000" fill-rule="nonzero" fill-opacity="1" /><path clip-path="url(#clip540)" d="M514.191 49.7694 Q505.157 49.7694 501.673 51.8354 Q498.19 53.9013 498.19 58.8839 Q498.19 62.8538 500.782 65.2034 Q503.415 67.5124 507.912 67.5124 Q514.11 67.5124 517.836 63.1374 Q521.604 58.7219 521.604 51.4303 L521.604 49.7694 L514.191 49.7694 M529.057 46.6907 L529.057 72.576 L521.604 72.576 L521.604 65.6895 Q519.052 69.8214 515.244 71.8063 Q511.436 73.7508 505.927 73.7508 Q498.959 73.7508 494.827 69.8619 Q490.736 65.9325 490.736 59.3701 Q490.736 51.7138 495.84 47.825 Q500.985 43.9361 511.152 43.9361 L521.604 43.9361 L521.604 43.2069 Q521.604 38.0623 518.201 35.2672 Q514.839 32.4315 508.722 32.4315 Q504.833 32.4315 501.147 33.3632 Q497.46 34.295 494.058 36.1584 L494.058 29.2718 Q498.149 27.692 501.997 26.9223 Q505.846 26.1121 509.492 26.1121 Q519.335 26.1121 524.196 31.2163 Q529.057 36.3204 529.057 46.6907 Z" fill="#000000" fill-rule="nonzero" fill-opacity="1" /><path clip-path="url(#clip540)" d="M579.734 35.9153 Q582.529 30.8922 586.418 28.5022 Q590.307 26.1121 595.573 26.1121 Q602.662 26.1121 606.511 31.0947 Q610.359 36.0368 610.359 45.1919 L610.359 72.576 L602.865 72.576 L602.865 45.4349 Q602.865 38.913 600.556 35.7533 Q598.247 32.5936 593.507 32.5936 Q587.715 32.5936 584.352 36.4419 Q580.99 40.2903 580.99 46.9338 L580.99 72.576 L573.496 72.576 L573.496 45.4349 Q573.496 38.8725 571.187 35.7533 Q568.878 32.5936 564.057 32.5936 Q558.346 32.5936 554.983 36.4824 Q551.621 40.3308 551.621 46.9338 L551.621 72.576 L544.127 72.576 L544.127 27.2059 L551.621 27.2059 L551.621 34.2544 Q554.173 30.082 557.738 28.0971 Q561.303 26.1121 566.204 26.1121 Q571.146 26.1121 574.59 28.6237 Q578.073 31.1352 579.734 35.9153 Z" fill="#000000" fill-rule="nonzero" fill-opacity="1" /><path clip-path="url(#clip540)" d="M632.437 65.7705 L632.437 89.8329 L624.942 89.8329 L624.942 27.2059 L632.437 27.2059 L632.437 34.0924 Q634.786 30.0415 638.351 28.0971 Q641.956 26.1121 646.939 26.1121 Q655.203 26.1121 660.347 32.6746 Q665.532 39.2371 665.532 49.9314 Q665.532 60.6258 660.347 67.1883 Q655.203 73.7508 646.939 73.7508 Q641.956 73.7508 638.351 71.8063 Q634.786 69.8214 632.437 65.7705 M657.795 49.9314 Q657.795 41.7081 654.392 37.0496 Q651.03 32.3505 645.116 32.3505 Q639.202 32.3505 635.799 37.0496 Q632.437 41.7081 632.437 49.9314 Q632.437 58.1548 635.799 62.8538 Q639.202 67.5124 645.116 67.5124 Q651.03 67.5124 654.392 62.8538 Q657.795 58.1548 657.795 49.9314 Z" fill="#000000" fill-rule="nonzero" fill-opacity="1" /><path clip-path="url(#clip540)" d="M677.888 9.54393 L685.341 9.54393 L685.341 72.576 L677.888 72.576 L677.888 9.54393 Z" fill="#000000" fill-rule="nonzero" fill-opacity="1" /><path clip-path="url(#clip540)" d="M739.745 48.0275 L739.745 51.6733 L705.474 51.6733 Q705.96 59.3701 710.092 63.421 Q714.265 67.4314 721.678 67.4314 Q725.972 67.4314 729.982 66.3781 Q734.033 65.3249 738.003 63.2184 L738.003 70.267 Q733.993 71.9684 729.78 72.8596 Q725.567 73.7508 721.232 73.7508 Q710.376 73.7508 704.016 67.4314 Q697.697 61.1119 697.697 50.3365 Q697.697 39.1965 703.692 32.6746 Q709.728 26.1121 719.936 26.1121 Q729.091 26.1121 734.398 32.0264 Q739.745 37.9003 739.745 48.0275 M732.291 45.84 Q732.21 39.7232 728.848 36.0774 Q725.526 32.4315 720.017 32.4315 Q713.779 32.4315 710.011 35.9558 Q706.285 39.4801 705.717 45.8805 L732.291 45.84 Z" fill="#000000" fill-rule="nonzero" fill-opacity="1" /><path clip-path="url(#clip540)" d="M781.834 34.0924 L781.834 9.54393 L789.288 9.54393 L789.288 72.576 L781.834 72.576 L781.834 65.7705 Q779.484 69.8214 775.879 71.8063 Q772.314 73.7508 767.291 73.7508 Q759.068 73.7508 753.883 67.1883 Q748.738 60.6258 748.738 49.9314 Q748.738 39.2371 753.883 32.6746 Q759.068 26.1121 767.291 26.1121 Q772.314 26.1121 775.879 28.0971 Q779.484 30.0415 781.834 34.0924 M756.435 49.9314 Q756.435 58.1548 759.797 62.8538 Q763.2 67.5124 769.114 67.5124 Q775.028 67.5124 778.431 62.8538 Q781.834 58.1548 781.834 49.9314 Q781.834 41.7081 778.431 37.0496 Q775.028 32.3505 769.114 32.3505 Q763.2 32.3505 759.797 37.0496 Q756.435 41.7081 756.435 49.9314 Z" fill="#000000" fill-rule="nonzero" fill-opacity="1" /><path clip-path="url(#clip540)" d="M831.336 12.096 L839.519 12.096 L839.519 65.6895 L868.969 65.6895 L868.969 72.576 L831.336 72.576 L831.336 12.096 Z" fill="#000000" fill-rule="nonzero" fill-opacity="1" /><path clip-path="url(#clip540)" d="M879.704 65.6895 L893.072 65.6895 L893.072 19.5497 L878.529 22.4663 L878.529 15.0127 L892.991 12.096 L901.174 12.096 L901.174 65.6895 L914.542 65.6895 L914.542 72.576 L879.704 72.576 L879.704 65.6895 Z" fill="#000000" fill-rule="nonzero" fill-opacity="1" /><path clip-path="url(#clip540)" d="M956.711 12.096 L994.952 12.096 L994.952 18.9825 L964.894 18.9825 L964.894 36.8875 L993.696 36.8875 L993.696 43.7741 L964.894 43.7741 L964.894 65.6895 L995.681 65.6895 L995.681 72.576 L956.711 72.576 L956.711 12.096 Z" fill="#000000" fill-rule="nonzero" fill-opacity="1" /><path clip-path="url(#clip540)" d="M1035.1 34.1734 Q1033.84 33.4443 1032.34 33.1202 Q1030.88 32.7556 1029.1 32.7556 Q1022.78 32.7556 1019.38 36.8875 Q1016.02 40.9789 1016.02 48.6757 L1016.02 72.576 L1008.52 72.576 L1008.52 27.2059 L1016.02 27.2059 L1016.02 34.2544 Q1018.37 30.1225 1022.13 28.1376 Q1025.9 26.1121 1031.29 26.1121 Q1032.06 26.1121 1032.99 26.2337 Q1033.92 26.3147 1035.06 26.5172 L1035.1 34.1734 Z" fill="#000000" fill-rule="nonzero" fill-opacity="1" /><path clip-path="url(#clip540)" d="M1067.75 34.1734 Q1066.49 33.4443 1064.99 33.1202 Q1063.53 32.7556 1061.75 32.7556 Q1055.43 32.7556 1052.03 36.8875 Q1048.67 40.9789 1048.67 48.6757 L1048.67 72.576 L1041.17 72.576 L1041.17 27.2059 L1048.67 27.2059 L1048.67 34.2544 Q1051.02 30.1225 1054.78 28.1376 Q1058.55 26.1121 1063.94 26.1121 Q1064.71 26.1121 1065.64 26.2337 Q1066.57 26.3147 1067.71 26.5172 L1067.75 34.1734 Z" fill="#000000" fill-rule="nonzero" fill-opacity="1" /><path clip-path="url(#clip540)" d="M1091.32 32.4315 Q1085.33 32.4315 1081.84 37.1306 Q1078.36 41.7891 1078.36 49.9314 Q1078.36 58.0738 1081.8 62.7728 Q1085.29 67.4314 1091.32 67.4314 Q1097.28 67.4314 1100.76 62.7323 Q1104.25 58.0333 1104.25 49.9314 Q1104.25 41.8701 1100.76 37.1711 Q1097.28 32.4315 1091.32 32.4315 M1091.32 26.1121 Q1101.05 26.1121 1106.59 32.4315 Q1112.14 38.7509 1112.14 49.9314 Q1112.14 61.0714 1106.59 67.4314 Q1101.05 73.7508 1091.32 73.7508 Q1081.56 73.7508 1076.01 67.4314 Q1070.5 61.0714 1070.5 49.9314 Q1070.5 38.7509 1076.01 32.4315 Q1081.56 26.1121 1091.32 26.1121 Z" fill="#000000" fill-rule="nonzero" fill-opacity="1" /><path clip-path="url(#clip540)" d="M1150.79 34.1734 Q1149.53 33.4443 1148.04 33.1202 Q1146.58 32.7556 1144.79 32.7556 Q1138.48 32.7556 1135.07 36.8875 Q1131.71 40.9789 1131.71 48.6757 L1131.71 72.576 L1124.22 72.576 L1124.22 27.2059 L1131.71 27.2059 L1131.71 34.2544 Q1134.06 30.1225 1137.83 28.1376 Q1141.59 26.1121 1146.98 26.1121 Q1147.75 26.1121 1148.68 26.2337 Q1149.62 26.3147 1150.75 26.5172 L1150.79 34.1734 Z" fill="#000000" fill-rule="nonzero" fill-opacity="1" /><path clip-path="url(#clip540)" d="M1179.63 27.2059 L1187.53 27.2059 L1201.71 65.2844 L1215.89 27.2059 L1223.79 27.2059 L1206.77 72.576 L1196.65 72.576 L1179.63 27.2059 Z" fill="#000000" fill-rule="nonzero" fill-opacity="1" /><path clip-path="url(#clip540)" d="M1263 28.5427 L1263 35.5912 Q1259.84 33.9709 1256.44 33.1607 Q1253.04 32.3505 1249.39 32.3505 Q1243.84 32.3505 1241.04 34.0519 Q1238.29 35.7533 1238.29 39.156 Q1238.29 41.7486 1240.27 43.2475 Q1242.26 44.7058 1248.26 46.0426 L1250.81 46.6097 Q1258.75 48.3111 1262.07 51.4303 Q1265.43 54.509 1265.43 60.0587 Q1265.43 66.3781 1260.41 70.0644 Q1255.43 73.7508 1246.68 73.7508 Q1243.03 73.7508 1239.06 73.0216 Q1235.13 72.3329 1230.76 70.9151 L1230.76 63.2184 Q1234.89 65.3654 1238.9 66.4591 Q1242.91 67.5124 1246.84 67.5124 Q1252.1 67.5124 1254.94 65.73 Q1257.77 63.9071 1257.77 60.6258 Q1257.77 57.5877 1255.71 55.9673 Q1253.68 54.3469 1246.76 52.8481 L1244.16 52.2405 Q1237.24 50.7821 1234.16 47.7845 Q1231.08 44.7463 1231.08 39.4801 Q1231.08 33.0797 1235.62 29.5959 Q1240.15 26.1121 1248.5 26.1121 Q1252.63 26.1121 1256.28 26.7198 Q1259.92 27.3274 1263 28.5427 Z" fill="#000000" fill-rule="nonzero" fill-opacity="1" /><path clip-path="url(#clip540)" d="M1304 12.096 L1316.19 12.096 L1331.62 53.2532 L1347.14 12.096 L1359.33 12.096 L1359.33 72.576 L1351.35 72.576 L1351.35 19.4686 L1335.75 60.9499 L1327.53 60.9499 L1311.94 19.4686 L1311.94 72.576 L1304 72.576 L1304 12.096 Z" fill="#000000" fill-rule="nonzero" fill-opacity="1" /><path clip-path="url(#clip540)" d="M1395.87 49.7694 Q1386.84 49.7694 1383.35 51.8354 Q1379.87 53.9013 1379.87 58.8839 Q1379.87 62.8538 1382.46 65.2034 Q1385.09 67.5124 1389.59 67.5124 Q1395.79 67.5124 1399.52 63.1374 Q1403.28 58.7219 1403.28 51.4303 L1403.28 49.7694 L1395.87 49.7694 M1410.74 46.6907 L1410.74 72.576 L1403.28 72.576 L1403.28 65.6895 Q1400.73 69.8214 1396.92 71.8063 Q1393.12 73.7508 1387.61 73.7508 Q1380.64 73.7508 1376.51 69.8619 Q1372.42 65.9325 1372.42 59.3701 Q1372.42 51.7138 1377.52 47.825 Q1382.66 43.9361 1392.83 43.9361 L1403.28 43.9361 L1403.28 43.2069 Q1403.28 38.0623 1399.88 35.2672 Q1396.52 32.4315 1390.4 32.4315 Q1386.51 32.4315 1382.83 33.3632 Q1379.14 34.295 1375.74 36.1584 L1375.74 29.2718 Q1379.83 27.692 1383.68 26.9223 Q1387.53 26.1121 1391.17 26.1121 Q1401.01 26.1121 1405.88 31.2163 Q1410.74 36.3204 1410.74 46.6907 Z" fill="#000000" fill-rule="nonzero" fill-opacity="1" /><path clip-path="url(#clip540)" d="M1463.8 27.2059 L1447.4 49.2833 L1464.65 72.576 L1455.86 72.576 L1442.66 54.752 L1429.45 72.576 L1420.66 72.576 L1438.28 48.8377 L1422.16 27.2059 L1430.95 27.2059 L1442.98 43.369 L1455.01 27.2059 L1463.8 27.2059 Z" fill="#000000" fill-rule="nonzero" fill-opacity="1" /><path clip-path="url(#clip540)" d="M1510.06 43.6931 L1510.06 65.8515 L1523.19 65.8515 Q1529.79 65.8515 1532.95 63.1374 Q1536.15 60.3828 1536.15 54.752 Q1536.15 49.0808 1532.95 46.4072 Q1529.79 43.6931 1523.19 43.6931 L1510.06 43.6931 M1510.06 18.8205 L1510.06 37.0496 L1522.18 37.0496 Q1528.17 37.0496 1531.09 34.8216 Q1534.05 32.5531 1534.05 27.935 Q1534.05 23.3575 1531.09 21.089 Q1528.17 18.8205 1522.18 18.8205 L1510.06 18.8205 M1501.88 12.096 L1522.78 12.096 Q1532.14 12.096 1537.21 15.9849 Q1542.27 19.8737 1542.27 27.0438 Q1542.27 32.5936 1539.68 35.8748 Q1537.08 39.156 1532.06 39.9662 Q1538.1 41.2625 1541.42 45.3944 Q1544.78 49.4858 1544.78 55.6432 Q1544.78 63.745 1539.27 68.1605 Q1533.76 72.576 1523.59 72.576 L1501.88 72.576 L1501.88 12.096 Z" fill="#000000" fill-rule="nonzero" fill-opacity="1" /><path clip-path="url(#clip540)" d="M1576.05 32.4315 Q1570.06 32.4315 1566.58 37.1306 Q1563.09 41.7891 1563.09 49.9314 Q1563.09 58.0738 1566.53 62.7728 Q1570.02 67.4314 1576.05 67.4314 Q1582.01 67.4314 1585.49 62.7323 Q1588.98 58.0333 1588.98 49.9314 Q1588.98 41.8701 1585.49 37.1711 Q1582.01 32.4315 1576.05 32.4315 M1576.05 26.1121 Q1585.78 26.1121 1591.33 32.4315 Q1596.88 38.7509 1596.88 49.9314 Q1596.88 61.0714 1591.33 67.4314 Q1585.78 73.7508 1576.05 73.7508 Q1566.29 73.7508 1560.74 67.4314 Q1555.23 61.0714 1555.23 49.9314 Q1555.23 38.7509 1560.74 32.4315 Q1566.29 26.1121 1576.05 26.1121 Z" fill="#000000" fill-rule="nonzero" fill-opacity="1" /><path clip-path="url(#clip540)" d="M1646.95 45.1919 L1646.95 72.576 L1639.49 72.576 L1639.49 45.4349 Q1639.49 38.994 1636.98 35.7938 Q1634.47 32.5936 1629.45 32.5936 Q1623.41 32.5936 1619.93 36.4419 Q1616.44 40.2903 1616.44 46.9338 L1616.44 72.576 L1608.95 72.576 L1608.95 27.2059 L1616.44 27.2059 L1616.44 34.2544 Q1619.12 30.163 1622.72 28.1376 Q1626.37 26.1121 1631.11 26.1121 Q1638.92 26.1121 1642.93 30.9732 Q1646.95 35.7938 1646.95 45.1919 Z" fill="#000000" fill-rule="nonzero" fill-opacity="1" /><path clip-path="url(#clip540)" d="M1691.67 34.0924 L1691.67 9.54393 L1699.12 9.54393 L1699.12 72.576 L1691.67 72.576 L1691.67 65.7705 Q1689.32 69.8214 1685.71 71.8063 Q1682.15 73.7508 1677.12 73.7508 Q1668.9 73.7508 1663.72 67.1883 Q1658.57 60.6258 1658.57 49.9314 Q1658.57 39.2371 1663.72 32.6746 Q1668.9 26.1121 1677.12 26.1121 Q1682.15 26.1121 1685.71 28.0971 Q1689.32 30.0415 1691.67 34.0924 M1666.27 49.9314 Q1666.27 58.1548 1669.63 62.8538 Q1673.03 67.5124 1678.95 67.5124 Q1684.86 67.5124 1688.26 62.8538 Q1691.67 58.1548 1691.67 49.9314 Q1691.67 41.7081 1688.26 37.0496 Q1684.86 32.3505 1678.95 32.3505 Q1673.03 32.3505 1669.63 37.0496 Q1666.27 41.7081 1666.27 49.9314 Z" fill="#000000" fill-rule="nonzero" fill-opacity="1" /><path clip-path="url(#clip540)" d="M1749.35 18.8205 L1749.35 65.8515 L1759.24 65.8515 Q1771.75 65.8515 1777.55 60.1802 Q1783.38 54.509 1783.38 42.2752 Q1783.38 30.1225 1777.55 24.4918 Q1771.75 18.8205 1759.24 18.8205 L1749.35 18.8205 M1741.17 12.096 L1757.98 12.096 Q1775.56 12.096 1783.78 19.4281 Q1792.01 26.7198 1792.01 42.2752 Q1792.01 57.9117 1783.74 65.2439 Q1775.48 72.576 1757.98 72.576 L1741.17 72.576 L1741.17 12.096 Z" fill="#000000" fill-rule="nonzero" fill-opacity="1" /><path clip-path="url(#clip540)" d="M1804.73 27.2059 L1812.18 27.2059 L1812.18 72.576 L1804.73 72.576 L1804.73 27.2059 M1804.73 9.54393 L1812.18 9.54393 L1812.18 18.9825 L1804.73 18.9825 L1804.73 9.54393 Z" fill="#000000" fill-rule="nonzero" fill-opacity="1" /><path clip-path="url(#clip540)" d="M1863.1 35.9153 Q1865.9 30.8922 1869.79 28.5022 Q1873.67 26.1121 1878.94 26.1121 Q1886.03 26.1121 1889.88 31.0947 Q1893.73 36.0368 1893.73 45.1919 L1893.73 72.576 L1886.23 72.576 L1886.23 45.4349 Q1886.23 38.913 1883.92 35.7533 Q1881.61 32.5936 1876.87 32.5936 Q1871.08 32.5936 1867.72 36.4419 Q1864.36 40.2903 1864.36 46.9338 L1864.36 72.576 L1856.86 72.576 L1856.86 45.4349 Q1856.86 38.8725 1854.55 35.7533 Q1852.24 32.5936 1847.42 32.5936 Q1841.71 32.5936 1838.35 36.4824 Q1834.99 40.3308 1834.99 46.9338 L1834.99 72.576 L1827.49 72.576 L1827.49 27.2059 L1834.99 27.2059 L1834.99 34.2544 Q1837.54 30.082 1841.1 28.0971 Q1844.67 26.1121 1849.57 26.1121 Q1854.51 26.1121 1857.96 28.6237 Q1861.44 31.1352 1863.1 35.9153 Z" fill="#000000" fill-rule="nonzero" fill-opacity="1" /><path clip-path="url(#clip540)" d="M1947.4 48.0275 L1947.4 51.6733 L1913.13 51.6733 Q1913.62 59.3701 1917.75 63.421 Q1921.92 67.4314 1929.33 67.4314 Q1933.63 67.4314 1937.64 66.3781 Q1941.69 65.3249 1945.66 63.2184 L1945.66 70.267 Q1941.65 71.9684 1937.44 72.8596 Q1933.22 73.7508 1928.89 73.7508 Q1918.03 73.7508 1911.67 67.4314 Q1905.35 61.1119 1905.35 50.3365 Q1905.35 39.1965 1911.35 32.6746 Q1917.38 26.1121 1927.59 26.1121 Q1936.75 26.1121 1942.05 32.0264 Q1947.4 37.9003 1947.4 48.0275 M1939.95 45.84 Q1939.87 39.7232 1936.5 36.0774 Q1933.18 32.4315 1927.67 32.4315 Q1921.43 32.4315 1917.67 35.9558 Q1913.94 39.4801 1913.37 45.8805 L1939.95 45.84 Z" fill="#000000" fill-rule="nonzero" fill-opacity="1" /><path clip-path="url(#clip540)" d="M1997.35 45.1919 L1997.35 72.576 L1989.89 72.576 L1989.89 45.4349 Q1989.89 38.994 1987.38 35.7938 Q1984.87 32.5936 1979.85 32.5936 Q1973.81 32.5936 1970.33 36.4419 Q1966.84 40.2903 1966.84 46.9338 L1966.84 72.576 L1959.35 72.576 L1959.35 27.2059 L1966.84 27.2059 L1966.84 34.2544 Q1969.52 30.163 1973.12 28.1376 Q1976.77 26.1121 1981.51 26.1121 Q1989.33 26.1121 1993.34 30.9732 Q1997.35 35.7938 1997.35 45.1919 Z" fill="#000000" fill-rule="nonzero" fill-opacity="1" /><path clip-path="url(#clip540)" d="M2041.14 28.5427 L2041.14 35.5912 Q2037.98 33.9709 2034.58 33.1607 Q2031.17 32.3505 2027.53 32.3505 Q2021.98 32.3505 2019.18 34.0519 Q2016.43 35.7533 2016.43 39.156 Q2016.43 41.7486 2018.41 43.2475 Q2020.4 44.7058 2026.39 46.0426 L2028.95 46.6097 Q2036.89 48.3111 2040.21 51.4303 Q2043.57 54.509 2043.57 60.0587 Q2043.57 66.3781 2038.55 70.0644 Q2033.56 73.7508 2024.81 73.7508 Q2021.17 73.7508 2017.2 73.0216 Q2013.27 72.3329 2008.89 70.9151 L2008.89 63.2184 Q2013.03 65.3654 2017.04 66.4591 Q2021.05 67.5124 2024.98 67.5124 Q2030.24 67.5124 2033.08 65.73 Q2035.91 63.9071 2035.91 60.6258 Q2035.91 57.5877 2033.85 55.9673 Q2031.82 54.3469 2024.89 52.8481 L2022.3 52.2405 Q2015.37 50.7821 2012.3 47.7845 Q2009.22 44.7463 2009.22 39.4801 Q2009.22 33.0797 2013.75 29.5959 Q2018.29 26.1121 2026.64 26.1121 Q2030.77 26.1121 2034.41 26.7198 Q2038.06 27.3274 2041.14 28.5427 Z" fill="#000000" fill-rule="nonzero" fill-opacity="1" /><path clip-path="url(#clip540)" d="M2055.44 27.2059 L2062.89 27.2059 L2062.89 72.576 L2055.44 72.576 L2055.44 27.2059 M2055.44 9.54393 L2062.89 9.54393 L2062.89 18.9825 L2055.44 18.9825 L2055.44 9.54393 Z" fill="#000000" fill-rule="nonzero" fill-opacity="1" /><path clip-path="url(#clip540)" d="M2096.07 32.4315 Q2090.07 32.4315 2086.59 37.1306 Q2083.11 41.7891 2083.11 49.9314 Q2083.11 58.0738 2086.55 62.7728 Q2090.03 67.4314 2096.07 67.4314 Q2102.02 67.4314 2105.51 62.7323 Q2108.99 58.0333 2108.99 49.9314 Q2108.99 41.8701 2105.51 37.1711 Q2102.02 32.4315 2096.07 32.4315 M2096.07 26.1121 Q2105.79 26.1121 2111.34 32.4315 Q2116.89 38.7509 2116.89 49.9314 Q2116.89 61.0714 2111.34 67.4314 Q2105.79 73.7508 2096.07 73.7508 Q2086.31 73.7508 2080.76 67.4314 Q2075.25 61.0714 2075.25 49.9314 Q2075.25 38.7509 2080.76 32.4315 Q2086.31 26.1121 2096.07 26.1121 Z" fill="#000000" fill-rule="nonzero" fill-opacity="1" /><path clip-path="url(#clip540)" d="M2166.96 45.1919 L2166.96 72.576 L2159.51 72.576 L2159.51 45.4349 Q2159.51 38.994 2156.99 35.7938 Q2154.48 32.5936 2149.46 32.5936 Q2143.42 32.5936 2139.94 36.4419 Q2136.46 40.2903 2136.46 46.9338 L2136.46 72.576 L2128.96 72.576 L2128.96 27.2059 L2136.46 27.2059 L2136.46 34.2544 Q2139.13 30.163 2142.74 28.1376 Q2146.38 26.1121 2151.12 26.1121 Q2158.94 26.1121 2162.95 30.9732 Q2166.96 35.7938 2166.96 45.1919 Z" fill="#000000" fill-rule="nonzero" fill-opacity="1" /><polyline clip-path="url(#clip542)" style="stroke:#009af9; stroke-linecap:round; stroke-linejoin:round; stroke-width:4; stroke-opacity:1; fill:none" points="312.198,160.256 532.323,267.855 752.448,375.543 972.573,459.32 1192.7,519.65 1412.82,599.271 1632.95,624.337 1853.07,736.495 2073.2,793.568 2293.32,895.034 "/>
<path clip-path="url(#clip542)" d="M312.198 176.256 L300.886 171.568 L296.198 160.256 L300.886 148.944 L312.198 144.256 L323.51 148.944 L328.198 160.256 L323.51 171.568 Z" fill="#009af9" fill-rule="evenodd" fill-opacity="1" stroke="#000000" stroke-opacity="1" stroke-width="3.2"/>
<path clip-path="url(#clip542)" d="M532.323 283.855 L521.011 279.167 L516.323 267.855 L521.011 256.543 L532.323 251.855 L543.635 256.543 L548.323 267.855 L543.635 279.167 Z" fill="#009af9" fill-rule="evenodd" fill-opacity="1" stroke="#000000" stroke-opacity="1" stroke-width="3.2"/>
<path clip-path="url(#clip542)" d="M752.448 391.543 L741.136 386.855 L736.448 375.543 L741.136 364.231 L752.448 359.543 L763.76 364.231 L768.448 375.543 L763.76 386.855 Z" fill="#009af9" fill-rule="evenodd" fill-opacity="1" stroke="#000000" stroke-opacity="1" stroke-width="3.2"/>
<path clip-path="url(#clip542)" d="M972.573 475.32 L961.261 470.632 L956.573 459.32 L961.261 448.008 L972.573 443.32 L983.885 448.008 L988.573 459.32 L983.885 470.632 Z" fill="#009af9" fill-rule="evenodd" fill-opacity="1" stroke="#000000" stroke-opacity="1" stroke-width="3.2"/>
<path clip-path="url(#clip542)" d="M1192.7 535.65 L1181.39 530.962 L1176.7 519.65 L1181.39 508.338 L1192.7 503.65 L1204.01 508.338 L1208.7 519.65 L1204.01 530.962 Z" fill="#009af9" fill-rule="evenodd" fill-opacity="1" stroke="#000000" stroke-opacity="1" stroke-width="3.2"/>
<path clip-path="url(#clip542)" d="M1412.82 615.271 L1401.51 610.583 L1396.82 599.271 L1401.51 587.959 L1412.82 583.271 L1424.13 587.959 L1428.82 599.271 L1424.13 610.583 Z" fill="#009af9" fill-rule="evenodd" fill-opacity="1" stroke="#000000" stroke-opacity="1" stroke-width="3.2"/>
<path clip-path="url(#clip542)" d="M1632.95 640.337 L1621.64 635.649 L1616.95 624.337 L1621.64 613.025 L1632.95 608.337 L1644.26 613.025 L1648.95 624.337 L1644.26 635.649 Z" fill="#009af9" fill-rule="evenodd" fill-opacity="1" stroke="#000000" stroke-opacity="1" stroke-width="3.2"/>
<path clip-path="url(#clip542)" d="M1853.07 752.495 L1841.76 747.807 L1837.07 736.495 L1841.76 725.183 L1853.07 720.495 L1864.38 725.183 L1869.07 736.495 L1864.38 747.807 Z" fill="#009af9" fill-rule="evenodd" fill-opacity="1" stroke="#000000" stroke-opacity="1" stroke-width="3.2"/>
<path clip-path="url(#clip542)" d="M2073.2 809.568 L2061.89 804.88 L2057.2 793.568 L2061.89 782.256 L2073.2 777.568 L2084.51 782.256 L2089.2 793.568 L2084.51 804.88 Z" fill="#009af9" fill-rule="evenodd" fill-opacity="1" stroke="#000000" stroke-opacity="1" stroke-width="3.2"/>
<path clip-path="url(#clip542)" d="M2293.32 911.034 L2282.01 906.346 L2277.32 895.034 L2282.01 883.722 L2293.32 879.034 L2304.63 883.722 L2309.32 895.034 L2304.63 906.346 Z" fill="#009af9" fill-rule="evenodd" fill-opacity="1" stroke="#000000" stroke-opacity="1" stroke-width="3.2"/>
<polyline clip-path="url(#clip542)" style="stroke:#e26f46; stroke-linecap:round; stroke-linejoin:round; stroke-width:4; stroke-opacity:1; fill:none" points="312.198,215.306 532.323,339.245 752.448,495.21 972.573,540.684 1192.7,548.195 1412.82,604.221 1632.95,602.244 1853.07,633.986 2073.2,642.81 2293.32,624.01 "/>
<path clip-path="url(#clip542)" d="M312.198 231.306 L300.886 226.618 L296.198 215.306 L300.886 203.994 L312.198 199.306 L323.51 203.994 L328.198 215.306 L323.51 226.618 Z" fill="#e26f46" fill-rule="evenodd" fill-opacity="1" stroke="#000000" stroke-opacity="1" stroke-width="3.2"/>
<path clip-path="url(#clip542)" d="M532.323 355.245 L521.011 350.557 L516.323 339.245 L521.011 327.933 L532.323 323.245 L543.635 327.933 L548.323 339.245 L543.635 350.557 Z" fill="#e26f46" fill-rule="evenodd" fill-opacity="1" stroke="#000000" stroke-opacity="1" stroke-width="3.2"/>
<path clip-path="url(#clip542)" d="M752.448 511.21 L741.136 506.522 L736.448 495.21 L741.136 483.898 L752.448 479.21 L763.76 483.898 L768.448 495.21 L763.76 506.522 Z" fill="#e26f46" fill-rule="evenodd" fill-opacity="1" stroke="#000000" stroke-opacity="1" stroke-width="3.2"/>
<path clip-path="url(#clip542)" d="M972.573 556.684 L961.261 551.996 L956.573 540.684 L961.261 529.372 L972.573 524.684 L983.885 529.372 L988.573 540.684 L983.885 551.996 Z" fill="#e26f46" fill-rule="evenodd" fill-opacity="1" stroke="#000000" stroke-opacity="1" stroke-width="3.2"/>
<path clip-path="url(#clip542)" d="M1192.7 564.195 L1181.39 559.507 L1176.7 548.195 L1181.39 536.883 L1192.7 532.195 L1204.01 536.883 L1208.7 548.195 L1204.01 559.507 Z" fill="#e26f46" fill-rule="evenodd" fill-opacity="1" stroke="#000000" stroke-opacity="1" stroke-width="3.2"/>
<path clip-path="url(#clip542)" d="M1412.82 620.221 L1401.51 615.533 L1396.82 604.221 L1401.51 592.909 L1412.82 588.221 L1424.13 592.909 L1428.82 604.221 L1424.13 615.533 Z" fill="#e26f46" fill-rule="evenodd" fill-opacity="1" stroke="#000000" stroke-opacity="1" stroke-width="3.2"/>
<path clip-path="url(#clip542)" d="M1632.95 618.244 L1621.64 613.556 L1616.95 602.244 L1621.64 590.932 L1632.95 586.244 L1644.26 590.932 L1648.95 602.244 L1644.26 613.556 Z" fill="#e26f46" fill-rule="evenodd" fill-opacity="1" stroke="#000000" stroke-opacity="1" stroke-width="3.2"/>
<path clip-path="url(#clip542)" d="M1853.07 649.986 L1841.76 645.298 L1837.07 633.986 L1841.76 622.674 L1853.07 617.986 L1864.38 622.674 L1869.07 633.986 L1864.38 645.298 Z" fill="#e26f46" fill-rule="evenodd" fill-opacity="1" stroke="#000000" stroke-opacity="1" stroke-width="3.2"/>
<path clip-path="url(#clip542)" d="M2073.2 658.81 L2061.89 654.122 L2057.2 642.81 L2061.89 631.498 L2073.2 626.81 L2084.51 631.498 L2089.2 642.81 L2084.51 654.122 Z" fill="#e26f46" fill-rule="evenodd" fill-opacity="1" stroke="#000000" stroke-opacity="1" stroke-width="3.2"/>
<path clip-path="url(#clip542)" d="M2293.32 640.01 L2282.01 635.322 L2277.32 624.01 L2282.01 612.698 L2293.32 608.01 L2304.63 612.698 L2309.32 624.01 L2304.63 635.322 Z" fill="#e26f46" fill-rule="evenodd" fill-opacity="1" stroke="#000000" stroke-opacity="1" stroke-width="3.2"/>
<polyline clip-path="url(#clip542)" style="stroke:#3da44d; stroke-linecap:round; stroke-linejoin:round; stroke-width:4; stroke-opacity:1; fill:none" points="312.198,304.924 532.323,565.778 752.448,711.104 972.573,745.104 1192.7,845.232 1412.82,971.181 1632.95,984.375 1853.07,962.108 2073.2,1056.43 2293.32,1073.25 "/>
<path clip-path="url(#clip542)" d="M312.198 320.924 L300.886 316.236 L296.198 304.924 L300.886 293.612 L312.198 288.924 L323.51 293.612 L328.198 304.924 L323.51 316.236 Z" fill="#3da44d" fill-rule="evenodd" fill-opacity="1" stroke="#000000" stroke-opacity="1" stroke-width="3.2"/>
<path clip-path="url(#clip542)" d="M532.323 581.778 L521.011 577.09 L516.323 565.778 L521.011 554.466 L532.323 549.778 L543.635 554.466 L548.323 565.778 L543.635 577.09 Z" fill="#3da44d" fill-rule="evenodd" fill-opacity="1" stroke="#000000" stroke-opacity="1" stroke-width="3.2"/>
<path clip-path="url(#clip542)" d="M752.448 727.104 L741.136 722.416 L736.448 711.104 L741.136 699.792 L752.448 695.104 L763.76 699.792 L768.448 711.104 L763.76 722.416 Z" fill="#3da44d" fill-rule="evenodd" fill-opacity="1" stroke="#000000" stroke-opacity="1" stroke-width="3.2"/>
<path clip-path="url(#clip542)" d="M972.573 761.104 L961.261 756.416 L956.573 745.104 L961.261 733.792 L972.573 729.104 L983.885 733.792 L988.573 745.104 L983.885 756.416 Z" fill="#3da44d" fill-rule="evenodd" fill-opacity="1" stroke="#000000" stroke-opacity="1" stroke-width="3.2"/>
<path clip-path="url(#clip542)" d="M1192.7 861.232 L1181.39 856.544 L1176.7 845.232 L1181.39 833.92 L1192.7 829.232 L1204.01 833.92 L1208.7 845.232 L1204.01 856.544 Z" fill="#3da44d" fill-rule="evenodd" fill-opacity="1" stroke="#000000" stroke-opacity="1" stroke-width="3.2"/>
<path clip-path="url(#clip542)" d="M1412.82 987.181 L1401.51 982.493 L1396.82 971.181 L1401.51 959.869 L1412.82 955.181 L1424.13 959.869 L1428.82 971.181 L1424.13 982.493 Z" fill="#3da44d" fill-rule="evenodd" fill-opacity="1" stroke="#000000" stroke-opacity="1" stroke-width="3.2"/>
<path clip-path="url(#clip542)" d="M1632.95 1000.38 L1621.64 995.687 L1616.95 984.375 L1621.64 973.063 L1632.95 968.375 L1644.26 973.063 L1648.95 984.375 L1644.26 995.687 Z" fill="#3da44d" fill-rule="evenodd" fill-opacity="1" stroke="#000000" stroke-opacity="1" stroke-width="3.2"/>
<path clip-path="url(#clip542)" d="M1853.07 978.108 L1841.76 973.42 L1837.07 962.108 L1841.76 950.796 L1853.07 946.108 L1864.38 950.796 L1869.07 962.108 L1864.38 973.42 Z" fill="#3da44d" fill-rule="evenodd" fill-opacity="1" stroke="#000000" stroke-opacity="1" stroke-width="3.2"/>
<path clip-path="url(#clip542)" d="M2073.2 1072.43 L2061.89 1067.74 L2057.2 1056.43 L2061.89 1045.11 L2073.2 1040.43 L2084.51 1045.11 L2089.2 1056.43 L2084.51 1067.74 Z" fill="#3da44d" fill-rule="evenodd" fill-opacity="1" stroke="#000000" stroke-opacity="1" stroke-width="3.2"/>
<path clip-path="url(#clip542)" d="M2293.32 1089.25 L2282.01 1084.56 L2277.32 1073.25 L2282.01 1061.93 L2293.32 1057.25 L2304.63 1061.93 L2309.32 1073.25 L2304.63 1084.56 Z" fill="#3da44d" fill-rule="evenodd" fill-opacity="1" stroke="#000000" stroke-opacity="1" stroke-width="3.2"/>
<polyline clip-path="url(#clip542)" style="stroke:#c271d2; stroke-linecap:round; stroke-linejoin:round; stroke-width:4; stroke-opacity:1; fill:none" points="312.198,262.463 532.323,497.803 752.448,625.324 972.573,768.439 1192.7,811.447 1412.82,922.814 1632.95,995.734 1853.07,983.248 2073.2,1025 2293.32,1039.36 "/>
<path clip-path="url(#clip542)" d="M312.198 278.463 L300.886 273.775 L296.198 262.463 L300.886 251.151 L312.198 246.463 L323.51 251.151 L328.198 262.463 L323.51 273.775 Z" fill="#c271d2" fill-rule="evenodd" fill-opacity="1" stroke="#000000" stroke-opacity="1" stroke-width="3.2"/>
<path clip-path="url(#clip542)" d="M532.323 513.803 L521.011 509.115 L516.323 497.803 L521.011 486.491 L532.323 481.803 L543.635 486.491 L548.323 497.803 L543.635 509.115 Z" fill="#c271d2" fill-rule="evenodd" fill-opacity="1" stroke="#000000" stroke-opacity="1" stroke-width="3.2"/>
<path clip-path="url(#clip542)" d="M752.448 641.324 L741.136 636.636 L736.448 625.324 L741.136 614.012 L752.448 609.324 L763.76 614.012 L768.448 625.324 L763.76 636.636 Z" fill="#c271d2" fill-rule="evenodd" fill-opacity="1" stroke="#000000" stroke-opacity="1" stroke-width="3.2"/>
<path clip-path="url(#clip542)" d="M972.573 784.439 L961.261 779.751 L956.573 768.439 L961.261 757.127 L972.573 752.439 L983.885 757.127 L988.573 768.439 L983.885 779.751 Z" fill="#c271d2" fill-rule="evenodd" fill-opacity="1" stroke="#000000" stroke-opacity="1" stroke-width="3.2"/>
<path clip-path="url(#clip542)" d="M1192.7 827.447 L1181.39 822.759 L1176.7 811.447 L1181.39 800.135 L1192.7 795.447 L1204.01 800.135 L1208.7 811.447 L1204.01 822.759 Z" fill="#c271d2" fill-rule="evenodd" fill-opacity="1" stroke="#000000" stroke-opacity="1" stroke-width="3.2"/>
<path clip-path="url(#clip542)" d="M1412.82 938.814 L1401.51 934.126 L1396.82 922.814 L1401.51 911.502 L1412.82 906.814 L1424.13 911.502 L1428.82 922.814 L1424.13 934.126 Z" fill="#c271d2" fill-rule="evenodd" fill-opacity="1" stroke="#000000" stroke-opacity="1" stroke-width="3.2"/>
<path clip-path="url(#clip542)" d="M1632.95 1011.73 L1621.64 1007.05 L1616.95 995.734 L1621.64 984.422 L1632.95 979.734 L1644.26 984.422 L1648.95 995.734 L1644.26 1007.05 Z" fill="#c271d2" fill-rule="evenodd" fill-opacity="1" stroke="#000000" stroke-opacity="1" stroke-width="3.2"/>
<path clip-path="url(#clip542)" d="M1853.07 999.248 L1841.76 994.56 L1837.07 983.248 L1841.76 971.936 L1853.07 967.248 L1864.38 971.936 L1869.07 983.248 L1864.38 994.56 Z" fill="#c271d2" fill-rule="evenodd" fill-opacity="1" stroke="#000000" stroke-opacity="1" stroke-width="3.2"/>
<path clip-path="url(#clip542)" d="M2073.2 1041 L2061.89 1036.31 L2057.2 1025 L2061.89 1013.69 L2073.2 1009 L2084.51 1013.69 L2089.2 1025 L2084.51 1036.31 Z" fill="#c271d2" fill-rule="evenodd" fill-opacity="1" stroke="#000000" stroke-opacity="1" stroke-width="3.2"/>
<path clip-path="url(#clip542)" d="M2293.32 1055.36 L2282.01 1050.67 L2277.32 1039.36 L2282.01 1028.05 L2293.32 1023.36 L2304.63 1028.05 L2309.32 1039.36 L2304.63 1050.67 Z" fill="#c271d2" fill-rule="evenodd" fill-opacity="1" stroke="#000000" stroke-opacity="1" stroke-width="3.2"/>
<polyline clip-path="url(#clip542)" style="stroke:#ac8d18; stroke-linecap:round; stroke-linejoin:round; stroke-width:4; stroke-opacity:1; fill:none" points="312.198,205.465 532.323,253.849 752.448,355.423 972.573,505.038 1192.7,695.828 1412.82,797.115 1632.95,945.39 1853.07,1110.03 2073.2,1239.54 2293.32,1386.4 "/>
<path clip-path="url(#clip542)" d="M312.198 221.465 L300.886 216.777 L296.198 205.465 L300.886 194.153 L312.198 189.465 L323.51 194.153 L328.198 205.465 L323.51 216.777 Z" fill="#ac8d18" fill-rule="evenodd" fill-opacity="1" stroke="#000000" stroke-opacity="1" stroke-width="3.2"/>
<path clip-path="url(#clip542)" d="M532.323 269.849 L521.011 265.161 L516.323 253.849 L521.011 242.537 L532.323 237.849 L543.635 242.537 L548.323 253.849 L543.635 265.161 Z" fill="#ac8d18" fill-rule="evenodd" fill-opacity="1" stroke="#000000" stroke-opacity="1" stroke-width="3.2"/>
<path clip-path="url(#clip542)" d="M752.448 371.423 L741.136 366.735 L736.448 355.423 L741.136 344.111 L752.448 339.423 L763.76 344.111 L768.448 355.423 L763.76 366.735 Z" fill="#ac8d18" fill-rule="evenodd" fill-opacity="1" stroke="#000000" stroke-opacity="1" stroke-width="3.2"/>
<path clip-path="url(#clip542)" d="M972.573 521.038 L961.261 516.35 L956.573 505.038 L961.261 493.726 L972.573 489.038 L983.885 493.726 L988.573 505.038 L983.885 516.35 Z" fill="#ac8d18" fill-rule="evenodd" fill-opacity="1" stroke="#000000" stroke-opacity="1" stroke-width="3.2"/>
<path clip-path="url(#clip542)" d="M1192.7 711.828 L1181.39 707.14 L1176.7 695.828 L1181.39 684.516 L1192.7 679.828 L1204.01 684.516 L1208.7 695.828 L1204.01 707.14 Z" fill="#ac8d18" fill-rule="evenodd" fill-opacity="1" stroke="#000000" stroke-opacity="1" stroke-width="3.2"/>
<path clip-path="url(#clip542)" d="M1412.82 813.115 L1401.51 808.427 L1396.82 797.115 L1401.51 785.803 L1412.82 781.115 L1424.13 785.803 L1428.82 797.115 L1424.13 808.427 Z" fill="#ac8d18" fill-rule="evenodd" fill-opacity="1" stroke="#000000" stroke-opacity="1" stroke-width="3.2"/>
<path clip-path="url(#clip542)" d="M1632.95 961.39 L1621.64 956.702 L1616.95 945.39 L1621.64 934.078 L1632.95 929.39 L1644.26 934.078 L1648.95 945.39 L1644.26 956.702 Z" fill="#ac8d18" fill-rule="evenodd" fill-opacity="1" stroke="#000000" stroke-opacity="1" stroke-width="3.2"/>
<path clip-path="url(#clip542)" d="M1853.07 1126.03 L1841.76 1121.34 L1837.07 1110.03 L1841.76 1098.72 L1853.07 1094.03 L1864.38 1098.72 L1869.07 1110.03 L1864.38 1121.34 Z" fill="#ac8d18" fill-rule="evenodd" fill-opacity="1" stroke="#000000" stroke-opacity="1" stroke-width="3.2"/>
<path clip-path="url(#clip542)" d="M2073.2 1255.54 L2061.89 1250.85 L2057.2 1239.54 L2061.89 1228.23 L2073.2 1223.54 L2084.51 1228.23 L2089.2 1239.54 L2084.51 1250.85 Z" fill="#ac8d18" fill-rule="evenodd" fill-opacity="1" stroke="#000000" stroke-opacity="1" stroke-width="3.2"/>
<path clip-path="url(#clip542)" d="M2293.32 1402.4 L2282.01 1397.71 L2277.32 1386.4 L2282.01 1375.08 L2293.32 1370.4 L2304.63 1375.08 L2309.32 1386.4 L2304.63 1397.71 Z" fill="#ac8d18" fill-rule="evenodd" fill-opacity="1" stroke="#000000" stroke-opacity="1" stroke-width="3.2"/>
<path clip-path="url(#clip540)" d="M1794.61 477.836 L2282.76 477.836 L2282.76 166.796 L1794.61 166.796  Z" fill="#ffffff" fill-rule="evenodd" fill-opacity="1"/>
<polyline clip-path="url(#clip540)" style="stroke:#000000; stroke-linecap:round; stroke-linejoin:round; stroke-width:4; stroke-opacity:1; fill:none" points="1794.61,477.836 2282.76,477.836 2282.76,166.796 1794.61,166.796 1794.61,477.836 "/>
<polyline clip-path="url(#clip540)" style="stroke:#009af9; stroke-linecap:round; stroke-linejoin:round; stroke-width:4; stroke-opacity:1; fill:none" points="1817.94,218.636 1957.94,218.636 "/>
<path clip-path="url(#clip540)" d="M1887.94 240.241 L1872.67 233.91 L1866.34 218.636 L1872.67 203.361 L1887.94 197.031 L1903.22 203.361 L1909.55 218.636 L1903.22 233.91 Z" fill="#009af9" fill-rule="evenodd" fill-opacity="1" stroke="#000000" stroke-opacity="1" stroke-width="4.55111"/>
<path clip-path="url(#clip540)" d="M1981.28 201.356 L2001.14 201.356 L2001.14 205.291 L1985.95 205.291 L1985.95 215.476 L1999.66 215.476 L1999.66 219.411 L1985.95 219.411 L1985.95 235.916 L1981.28 235.916 L1981.28 201.356 Z" fill="#000000" fill-rule="nonzero" fill-opacity="1" /><path clip-path="url(#clip540)" d="M2005.33 225.684 L2005.33 209.99 L2009.59 209.99 L2009.59 225.522 Q2009.59 229.203 2011.02 231.055 Q2012.46 232.883 2015.33 232.883 Q2018.78 232.883 2020.77 230.684 Q2022.78 228.485 2022.78 224.689 L2022.78 209.99 L2027.04 209.99 L2027.04 235.916 L2022.78 235.916 L2022.78 231.934 Q2021.23 234.295 2019.17 235.453 Q2017.13 236.587 2014.42 236.587 Q2009.96 236.587 2007.64 233.809 Q2005.33 231.031 2005.33 225.684 M2016.04 209.365 L2016.04 209.365 Z" fill="#000000" fill-rule="nonzero" fill-opacity="1" /><path clip-path="url(#clip540)" d="M2052.34 210.754 L2052.34 214.782 Q2050.54 213.856 2048.59 213.393 Q2046.65 212.93 2044.56 212.93 Q2041.39 212.93 2039.79 213.902 Q2038.22 214.874 2038.22 216.819 Q2038.22 218.3 2039.35 219.157 Q2040.49 219.99 2043.91 220.754 L2045.37 221.078 Q2049.91 222.05 2051.81 223.832 Q2053.73 225.592 2053.73 228.763 Q2053.73 232.374 2050.86 234.481 Q2048.01 236.587 2043.01 236.587 Q2040.93 236.587 2038.66 236.17 Q2036.41 235.777 2033.91 234.967 L2033.91 230.569 Q2036.28 231.795 2038.57 232.42 Q2040.86 233.022 2043.1 233.022 Q2046.11 233.022 2047.73 232.004 Q2049.35 230.962 2049.35 229.087 Q2049.35 227.351 2048.17 226.425 Q2047.02 225.499 2043.06 224.643 L2041.58 224.295 Q2037.62 223.462 2035.86 221.749 Q2034.1 220.013 2034.1 217.004 Q2034.1 213.346 2036.69 211.356 Q2039.29 209.365 2044.05 209.365 Q2046.41 209.365 2048.5 209.712 Q2050.58 210.059 2052.34 210.754 Z" fill="#000000" fill-rule="nonzero" fill-opacity="1" /><path clip-path="url(#clip540)" d="M2082.69 221.888 L2082.69 223.971 L2063.1 223.971 Q2063.38 228.369 2065.74 230.684 Q2068.13 232.976 2072.36 232.976 Q2074.82 232.976 2077.11 232.374 Q2079.42 231.772 2081.69 230.569 L2081.69 234.596 Q2079.4 235.568 2076.99 236.078 Q2074.59 236.587 2072.11 236.587 Q2065.91 236.587 2062.27 232.976 Q2058.66 229.365 2058.66 223.207 Q2058.66 216.842 2062.09 213.115 Q2065.54 209.365 2071.37 209.365 Q2076.6 209.365 2079.63 212.745 Q2082.69 216.101 2082.69 221.888 M2078.43 220.638 Q2078.38 217.143 2076.46 215.059 Q2074.56 212.976 2071.41 212.976 Q2067.85 212.976 2065.7 214.99 Q2063.57 217.004 2063.24 220.661 L2078.43 220.638 Z" fill="#000000" fill-rule="nonzero" fill-opacity="1" /><path clip-path="url(#clip540)" d="M2106.74 213.925 L2106.74 199.897 L2111 199.897 L2111 235.916 L2106.74 235.916 L2106.74 232.027 Q2105.4 234.342 2103.34 235.476 Q2101.3 236.587 2098.43 236.587 Q2093.73 236.587 2090.77 232.837 Q2087.83 229.087 2087.83 222.976 Q2087.83 216.865 2090.77 213.115 Q2093.73 209.365 2098.43 209.365 Q2101.3 209.365 2103.34 210.499 Q2105.4 211.61 2106.74 213.925 M2092.22 222.976 Q2092.22 227.675 2094.15 230.36 Q2096.09 233.022 2099.47 233.022 Q2102.85 233.022 2104.79 230.36 Q2106.74 227.675 2106.74 222.976 Q2106.74 218.277 2104.79 215.615 Q2102.85 212.93 2099.47 212.93 Q2096.09 212.93 2094.15 215.615 Q2092.22 218.277 2092.22 222.976 Z" fill="#000000" fill-rule="nonzero" fill-opacity="1" /><path clip-path="url(#clip540)" d="M2139.47 243.786 L2139.47 247.096 L2114.84 247.096 L2114.84 243.786 L2139.47 243.786 Z" fill="#000000" fill-rule="nonzero" fill-opacity="1" /><path clip-path="url(#clip540)" d="M2148.34 219.411 L2148.34 232.073 L2155.84 232.073 Q2159.61 232.073 2161.41 230.522 Q2163.24 228.948 2163.24 225.731 Q2163.24 222.49 2161.41 220.962 Q2159.61 219.411 2155.84 219.411 L2148.34 219.411 M2148.34 205.198 L2148.34 215.615 L2155.26 215.615 Q2158.68 215.615 2160.35 214.342 Q2162.04 213.045 2162.04 210.407 Q2162.04 207.791 2160.35 206.495 Q2158.68 205.198 2155.26 205.198 L2148.34 205.198 M2143.66 201.356 L2155.6 201.356 Q2160.95 201.356 2163.84 203.578 Q2166.74 205.8 2166.74 209.897 Q2166.74 213.069 2165.26 214.944 Q2163.78 216.819 2160.9 217.282 Q2164.35 218.022 2166.25 220.383 Q2168.17 222.721 2168.17 226.24 Q2168.17 230.869 2165.03 233.393 Q2161.88 235.916 2156.07 235.916 L2143.66 235.916 L2143.66 201.356 Z" fill="#000000" fill-rule="nonzero" fill-opacity="1" /><path clip-path="url(#clip540)" d="M2171.39 201.356 L2200.63 201.356 L2200.63 205.291 L2188.36 205.291 L2188.36 235.916 L2183.66 235.916 L2183.66 205.291 L2171.39 205.291 L2171.39 201.356 Z" fill="#000000" fill-rule="nonzero" fill-opacity="1" /><path clip-path="url(#clip540)" d="M2199.52 201.356 L2228.75 201.356 L2228.75 205.291 L2216.48 205.291 L2216.48 235.916 L2211.78 235.916 L2211.78 205.291 L2199.52 205.291 L2199.52 201.356 Z" fill="#000000" fill-rule="nonzero" fill-opacity="1" /><path clip-path="url(#clip540)" d="M2233.27 201.356 L2239.56 201.356 L2254.89 230.268 L2254.89 201.356 L2259.42 201.356 L2259.42 235.916 L2253.13 235.916 L2237.8 207.004 L2237.8 235.916 L2233.27 235.916 L2233.27 201.356 Z" fill="#000000" fill-rule="nonzero" fill-opacity="1" /><polyline clip-path="url(#clip540)" style="stroke:#e26f46; stroke-linecap:round; stroke-linejoin:round; stroke-width:4; stroke-opacity:1; fill:none" points="1817.94,270.476 1957.94,270.476 "/>
<path clip-path="url(#clip540)" d="M1887.94 292.081 L1872.67 285.75 L1866.34 270.476 L1872.67 255.201 L1887.94 248.871 L1903.22 255.201 L1909.55 270.476 L1903.22 285.75 Z" fill="#e26f46" fill-rule="evenodd" fill-opacity="1" stroke="#000000" stroke-opacity="1" stroke-width="4.55111"/>
<path clip-path="url(#clip540)" d="M1997.29 256.367 Q1992.2 256.367 1989.19 260.163 Q1986.21 263.96 1986.21 270.51 Q1986.21 277.038 1989.19 280.834 Q1992.2 284.631 1997.29 284.631 Q2002.39 284.631 2005.35 280.834 Q2008.34 277.038 2008.34 270.51 Q2008.34 263.96 2005.35 260.163 Q2002.39 256.367 1997.29 256.367 M2003.85 287.131 L2010 293.867 L2004.35 293.867 L1999.24 288.334 Q1998.48 288.381 1998.06 288.404 Q1997.67 288.427 1997.29 288.427 Q1990 288.427 1985.63 283.566 Q1981.28 278.682 1981.28 270.51 Q1981.28 262.316 1985.63 257.455 Q1990 252.571 1997.29 252.571 Q2004.56 252.571 2008.92 257.455 Q2013.27 262.316 2013.27 270.51 Q2013.27 276.529 2010.84 280.811 Q2008.43 285.094 2003.85 287.131 Z" fill="#000000" fill-rule="nonzero" fill-opacity="1" /><path clip-path="url(#clip540)" d="M2015.79 253.196 L2045.03 253.196 L2045.03 257.131 L2032.76 257.131 L2032.76 287.756 L2028.06 287.756 L2028.06 257.131 L2015.79 257.131 L2015.79 253.196 Z" fill="#000000" fill-rule="nonzero" fill-opacity="1" /><path clip-path="url(#clip540)" d="M2043.91 253.196 L2073.15 253.196 L2073.15 257.131 L2060.88 257.131 L2060.88 287.756 L2056.18 287.756 L2056.18 257.131 L2043.91 257.131 L2043.91 253.196 Z" fill="#000000" fill-rule="nonzero" fill-opacity="1" /><path clip-path="url(#clip540)" d="M2097.18 295.626 L2097.18 298.936 L2072.55 298.936 L2072.55 295.626 L2097.18 295.626 Z" fill="#000000" fill-rule="nonzero" fill-opacity="1" /><path clip-path="url(#clip540)" d="M2122.09 254.33 L2122.09 258.89 Q2119.42 257.617 2117.06 256.992 Q2114.7 256.367 2112.5 256.367 Q2108.68 256.367 2106.6 257.848 Q2104.54 259.33 2104.54 262.061 Q2104.54 264.353 2105.91 265.534 Q2107.29 266.691 2111.14 267.409 L2113.96 267.987 Q2119.19 268.983 2121.67 271.506 Q2124.17 274.006 2124.17 278.219 Q2124.17 283.242 2120.79 285.834 Q2117.43 288.427 2110.93 288.427 Q2108.47 288.427 2105.7 287.871 Q2102.94 287.316 2099.98 286.228 L2099.98 281.413 Q2102.83 283.01 2105.56 283.821 Q2108.29 284.631 2110.93 284.631 Q2114.93 284.631 2117.11 283.057 Q2119.28 281.483 2119.28 278.566 Q2119.28 276.02 2117.71 274.584 Q2116.16 273.149 2112.6 272.432 L2109.75 271.876 Q2104.52 270.835 2102.18 268.612 Q2099.84 266.39 2099.84 262.432 Q2099.84 257.848 2103.06 255.21 Q2106.3 252.571 2111.97 252.571 Q2114.4 252.571 2116.92 253.011 Q2119.45 253.45 2122.09 254.33 Z" fill="#000000" fill-rule="nonzero" fill-opacity="1" /><path clip-path="url(#clip540)" d="M2153.45 273.728 L2153.45 275.811 L2133.87 275.811 Q2134.15 280.209 2136.51 282.524 Q2138.89 284.816 2143.13 284.816 Q2145.58 284.816 2147.87 284.214 Q2150.19 283.612 2152.46 282.409 L2152.46 286.436 Q2150.16 287.408 2147.76 287.918 Q2145.35 288.427 2142.87 288.427 Q2136.67 288.427 2133.03 284.816 Q2129.42 281.205 2129.42 275.047 Q2129.42 268.682 2132.85 264.955 Q2136.3 261.205 2142.13 261.205 Q2147.36 261.205 2150.4 264.585 Q2153.45 267.941 2153.45 273.728 M2149.19 272.478 Q2149.15 268.983 2147.22 266.899 Q2145.33 264.816 2142.18 264.816 Q2138.61 264.816 2136.46 266.83 Q2134.33 268.844 2134.01 272.501 L2149.19 272.478 Z" fill="#000000" fill-rule="nonzero" fill-opacity="1" /><path clip-path="url(#clip540)" d="M2162.99 274.816 Q2162.99 279.515 2164.91 282.2 Q2166.85 284.862 2170.23 284.862 Q2173.61 284.862 2175.56 282.2 Q2177.5 279.515 2177.5 274.816 Q2177.5 270.117 2175.56 267.455 Q2173.61 264.77 2170.23 264.77 Q2166.85 264.77 2164.91 267.455 Q2162.99 270.117 2162.99 274.816 M2177.5 283.867 Q2176.16 286.182 2174.1 287.316 Q2172.06 288.427 2169.19 288.427 Q2164.49 288.427 2161.53 284.677 Q2158.59 280.927 2158.59 274.816 Q2158.59 268.705 2161.53 264.955 Q2164.49 261.205 2169.19 261.205 Q2172.06 261.205 2174.1 262.339 Q2176.16 263.45 2177.5 265.765 L2177.5 261.83 L2181.76 261.83 L2181.76 297.617 L2177.5 297.617 L2177.5 283.867 Z" fill="#000000" fill-rule="nonzero" fill-opacity="1" /><polyline clip-path="url(#clip540)" style="stroke:#3da44d; stroke-linecap:round; stroke-linejoin:round; stroke-width:4; stroke-opacity:1; fill:none" points="1817.94,322.316 1957.94,322.316 "/>
<path clip-path="url(#clip540)" d="M1887.94 343.921 L1872.67 337.59 L1866.34 322.316 L1872.67 307.041 L1887.94 300.711 L1903.22 307.041 L1909.55 322.316 L1903.22 337.59 Z" fill="#3da44d" fill-rule="evenodd" fill-opacity="1" stroke="#000000" stroke-opacity="1" stroke-width="4.55111"/>
<path clip-path="url(#clip540)" d="M1985.95 323.091 L1985.95 335.753 L1993.45 335.753 Q1997.23 335.753 1999.03 334.202 Q2000.86 332.628 2000.86 329.411 Q2000.86 326.17 1999.03 324.642 Q1997.23 323.091 1993.45 323.091 L1985.95 323.091 M1985.95 308.878 L1985.95 319.295 L1992.87 319.295 Q1996.3 319.295 1997.97 318.022 Q1999.66 316.725 1999.66 314.087 Q1999.66 311.471 1997.97 310.175 Q1996.3 308.878 1992.87 308.878 L1985.95 308.878 M1981.28 305.036 L1993.22 305.036 Q1998.57 305.036 2001.46 307.258 Q2004.35 309.48 2004.35 313.577 Q2004.35 316.749 2002.87 318.624 Q2001.39 320.499 1998.52 320.962 Q2001.97 321.702 2003.87 324.063 Q2005.79 326.401 2005.79 329.92 Q2005.79 334.549 2002.64 337.073 Q1999.49 339.596 1993.68 339.596 L1981.28 339.596 L1981.28 305.036 Z" fill="#000000" fill-rule="nonzero" fill-opacity="1" /><path clip-path="url(#clip540)" d="M2009.01 305.036 L2038.24 305.036 L2038.24 308.971 L2025.98 308.971 L2025.98 339.596 L2021.28 339.596 L2021.28 308.971 L2009.01 308.971 L2009.01 305.036 Z" fill="#000000" fill-rule="nonzero" fill-opacity="1" /><path clip-path="url(#clip540)" d="M2037.13 305.036 L2066.37 305.036 L2066.37 308.971 L2054.1 308.971 L2054.1 339.596 L2049.4 339.596 L2049.4 308.971 L2037.13 308.971 L2037.13 305.036 Z" fill="#000000" fill-rule="nonzero" fill-opacity="1" /><path clip-path="url(#clip540)" d="M2070.88 305.036 L2077.18 305.036 L2092.5 333.948 L2092.5 305.036 L2097.04 305.036 L2097.04 339.596 L2090.74 339.596 L2075.42 310.684 L2075.42 339.596 L2070.88 339.596 L2070.88 305.036 Z" fill="#000000" fill-rule="nonzero" fill-opacity="1" /><polyline clip-path="url(#clip540)" style="stroke:#c271d2; stroke-linecap:round; stroke-linejoin:round; stroke-width:4; stroke-opacity:1; fill:none" points="1817.94,374.156 1957.94,374.156 "/>
<path clip-path="url(#clip540)" d="M1887.94 395.761 L1872.67 389.43 L1866.34 374.156 L1872.67 358.881 L1887.94 352.551 L1903.22 358.881 L1909.55 374.156 L1903.22 389.43 Z" fill="#c271d2" fill-rule="evenodd" fill-opacity="1" stroke="#000000" stroke-opacity="1" stroke-width="4.55111"/>
<path clip-path="url(#clip540)" d="M2009.15 359.538 L2009.15 364.468 Q2006.79 362.269 2004.1 361.181 Q2001.44 360.093 1998.43 360.093 Q1992.5 360.093 1989.35 363.728 Q1986.21 367.339 1986.21 374.19 Q1986.21 381.019 1989.35 384.653 Q1992.5 388.264 1998.43 388.264 Q2001.44 388.264 2004.1 387.176 Q2006.79 386.089 2009.15 383.889 L2009.15 388.774 Q2006.69 390.44 2003.94 391.274 Q2001.21 392.107 1998.15 392.107 Q1990.3 392.107 1985.79 387.315 Q1981.28 382.501 1981.28 374.19 Q1981.28 365.857 1985.79 361.066 Q1990.3 356.251 1998.15 356.251 Q2001.25 356.251 2003.98 357.084 Q2006.74 357.894 2009.15 359.538 Z" fill="#000000" fill-rule="nonzero" fill-opacity="1" /><path clip-path="url(#clip540)" d="M2011.58 356.876 L2040.81 356.876 L2040.81 360.811 L2028.54 360.811 L2028.54 391.436 L2023.85 391.436 L2023.85 360.811 L2011.58 360.811 L2011.58 356.876 Z" fill="#000000" fill-rule="nonzero" fill-opacity="1" /><path clip-path="url(#clip540)" d="M2039.7 356.876 L2068.94 356.876 L2068.94 360.811 L2056.67 360.811 L2056.67 391.436 L2051.97 391.436 L2051.97 360.811 L2039.7 360.811 L2039.7 356.876 Z" fill="#000000" fill-rule="nonzero" fill-opacity="1" /><path clip-path="url(#clip540)" d="M2073.45 356.876 L2079.75 356.876 L2095.07 385.788 L2095.07 356.876 L2099.61 356.876 L2099.61 391.436 L2093.31 391.436 L2077.99 362.524 L2077.99 391.436 L2073.45 391.436 L2073.45 356.876 Z" fill="#000000" fill-rule="nonzero" fill-opacity="1" /><polyline clip-path="url(#clip540)" style="stroke:#ac8d18; stroke-linecap:round; stroke-linejoin:round; stroke-width:4; stroke-opacity:1; fill:none" points="1817.94,425.996 1957.94,425.996 "/>
<path clip-path="url(#clip540)" d="M1887.94 447.601 L1872.67 441.27 L1866.34 425.996 L1872.67 410.721 L1887.94 404.391 L1903.22 410.721 L1909.55 425.996 L1903.22 441.27 Z" fill="#ac8d18" fill-rule="evenodd" fill-opacity="1" stroke="#000000" stroke-opacity="1" stroke-width="4.55111"/>
<path clip-path="url(#clip540)" d="M1997.29 411.887 Q1992.2 411.887 1989.19 415.683 Q1986.21 419.48 1986.21 426.03 Q1986.21 432.558 1989.19 436.354 Q1992.2 440.151 1997.29 440.151 Q2002.39 440.151 2005.35 436.354 Q2008.34 432.558 2008.34 426.03 Q2008.34 419.48 2005.35 415.683 Q2002.39 411.887 1997.29 411.887 M2003.85 442.651 L2010 449.387 L2004.35 449.387 L1999.24 443.854 Q1998.48 443.901 1998.06 443.924 Q1997.67 443.947 1997.29 443.947 Q1990 443.947 1985.63 439.086 Q1981.28 434.202 1981.28 426.03 Q1981.28 417.836 1985.63 412.975 Q1990 408.091 1997.29 408.091 Q2004.56 408.091 2008.92 412.975 Q2013.27 417.836 2013.27 426.03 Q2013.27 432.049 2010.84 436.331 Q2008.43 440.614 2003.85 442.651 Z" fill="#000000" fill-rule="nonzero" fill-opacity="1" /><path clip-path="url(#clip540)" d="M2015.79 408.716 L2045.03 408.716 L2045.03 412.651 L2032.76 412.651 L2032.76 443.276 L2028.06 443.276 L2028.06 412.651 L2015.79 412.651 L2015.79 408.716 Z" fill="#000000" fill-rule="nonzero" fill-opacity="1" /><path clip-path="url(#clip540)" d="M2043.91 408.716 L2073.15 408.716 L2073.15 412.651 L2060.88 412.651 L2060.88 443.276 L2056.18 443.276 L2056.18 412.651 L2043.91 412.651 L2043.91 408.716 Z" fill="#000000" fill-rule="nonzero" fill-opacity="1" /><path clip-path="url(#clip540)" d="M2097.18 451.146 L2097.18 454.456 L2072.55 454.456 L2072.55 451.146 L2097.18 451.146 Z" fill="#000000" fill-rule="nonzero" fill-opacity="1" /><path clip-path="url(#clip540)" d="M2101.37 408.716 L2106.04 408.716 L2106.04 443.276 L2101.37 443.276 L2101.37 408.716 Z" fill="#000000" fill-rule="nonzero" fill-opacity="1" /><path clip-path="url(#clip540)" d="M2136.72 427.628 L2136.72 443.276 L2132.46 443.276 L2132.46 427.767 Q2132.46 424.086 2131.02 422.257 Q2129.59 420.429 2126.72 420.429 Q2123.27 420.429 2121.28 422.628 Q2119.28 424.827 2119.28 428.623 L2119.28 443.276 L2115 443.276 L2115 417.35 L2119.28 417.35 L2119.28 421.378 Q2120.81 419.04 2122.87 417.882 Q2124.96 416.725 2127.66 416.725 Q2132.13 416.725 2134.42 419.503 Q2136.72 422.257 2136.72 427.628 Z" fill="#000000" fill-rule="nonzero" fill-opacity="1" /><path clip-path="url(#clip540)" d="M2149.42 409.989 L2149.42 417.35 L2158.2 417.35 L2158.2 420.66 L2149.42 420.66 L2149.42 434.734 Q2149.42 437.905 2150.28 438.808 Q2151.16 439.711 2153.82 439.711 L2158.2 439.711 L2158.2 443.276 L2153.82 443.276 Q2148.89 443.276 2147.02 441.447 Q2145.14 439.595 2145.14 434.734 L2145.14 420.66 L2142.02 420.66 L2142.02 417.35 L2145.14 417.35 L2145.14 409.989 L2149.42 409.989 Z" fill="#000000" fill-rule="nonzero" fill-opacity="1" /></svg>
