<?xml version="1.0" encoding="utf-8"?>
<svg xmlns="http://www.w3.org/2000/svg" xmlns:xlink="http://www.w3.org/1999/xlink" width="600" height="400" viewBox="0 0 2400 1600">
<defs>
  <clipPath id="clip690">
    <rect x="0" y="0" width="2400" height="1600"/>
  </clipPath>
</defs>
<path clip-path="url(#clip690)" d="M0 1600 L2400 1600 L2400 8.88178e-14 L0 8.88178e-14  Z" fill="#ffffff" fill-rule="evenodd" fill-opacity="1"/>
<defs>
  <clipPath id="clip691">
    <rect x="480" y="0" width="1681" height="1600"/>
  </clipPath>
</defs>
<path clip-path="url(#clip690)" d="M251.372 1423.18 L2352.76 1423.18 L2352.76 123.472 L251.372 123.472  Z" fill="#ffffff" fill-rule="evenodd" fill-opacity="1"/>
<defs>
  <clipPath id="clip692">
    <rect x="251" y="123" width="2102" height="1301"/>
  </clipPath>
</defs>
<polyline clip-path="url(#clip692)" style="stroke:#000000; stroke-linecap:round; stroke-linejoin:round; stroke-width:2; stroke-opacity:0.1; fill:none" points="457.693,1423.18 457.693,123.472 "/>
<polyline clip-path="url(#clip692)" style="stroke:#000000; stroke-linecap:round; stroke-linejoin:round; stroke-width:2; stroke-opacity:0.1; fill:none" points="824.811,1423.18 824.811,123.472 "/>
<polyline clip-path="url(#clip692)" style="stroke:#000000; stroke-linecap:round; stroke-linejoin:round; stroke-width:2; stroke-opacity:0.1; fill:none" points="1191.93,1423.18 1191.93,123.472 "/>
<polyline clip-path="url(#clip692)" style="stroke:#000000; stroke-linecap:round; stroke-linejoin:round; stroke-width:2; stroke-opacity:0.1; fill:none" points="1559.05,1423.18 1559.05,123.472 "/>
<polyline clip-path="url(#clip692)" style="stroke:#000000; stroke-linecap:round; stroke-linejoin:round; stroke-width:2; stroke-opacity:0.1; fill:none" points="1926.16,1423.18 1926.16,123.472 "/>
<polyline clip-path="url(#clip692)" style="stroke:#000000; stroke-linecap:round; stroke-linejoin:round; stroke-width:2; stroke-opacity:0.1; fill:none" points="2293.28,1423.18 2293.28,123.472 "/>
<polyline clip-path="url(#clip692)" style="stroke:#000000; stroke-linecap:round; stroke-linejoin:round; stroke-width:2; stroke-opacity:0.1; fill:none" points="251.372,1102.67 2352.76,1102.67 "/>
<polyline clip-path="url(#clip692)" style="stroke:#000000; stroke-linecap:round; stroke-linejoin:round; stroke-width:2; stroke-opacity:0.1; fill:none" points="251.372,668.291 2352.76,668.291 "/>
<polyline clip-path="url(#clip692)" style="stroke:#000000; stroke-linecap:round; stroke-linejoin:round; stroke-width:2; stroke-opacity:0.1; fill:none" points="251.372,233.91 2352.76,233.91 "/>
<polyline clip-path="url(#clip690)" style="stroke:#000000; stroke-linecap:round; stroke-linejoin:round; stroke-width:4; stroke-opacity:1; fill:none" points="251.372,1423.18 2352.76,1423.18 "/>
<polyline clip-path="url(#clip690)" style="stroke:#000000; stroke-linecap:round; stroke-linejoin:round; stroke-width:4; stroke-opacity:1; fill:none" points="457.693,1423.18 457.693,1404.28 "/>
<polyline clip-path="url(#clip690)" style="stroke:#000000; stroke-linecap:round; stroke-linejoin:round; stroke-width:4; stroke-opacity:1; fill:none" points="824.811,1423.18 824.811,1404.28 "/>
<polyline clip-path="url(#clip690)" style="stroke:#000000; stroke-linecap:round; stroke-linejoin:round; stroke-width:4; stroke-opacity:1; fill:none" points="1191.93,1423.18 1191.93,1404.28 "/>
<polyline clip-path="url(#clip690)" style="stroke:#000000; stroke-linecap:round; stroke-linejoin:round; stroke-width:4; stroke-opacity:1; fill:none" points="1559.05,1423.18 1559.05,1404.28 "/>
<polyline clip-path="url(#clip690)" style="stroke:#000000; stroke-linecap:round; stroke-linejoin:round; stroke-width:4; stroke-opacity:1; fill:none" points="1926.16,1423.18 1926.16,1404.28 "/>
<polyline clip-path="url(#clip690)" style="stroke:#000000; stroke-linecap:round; stroke-linejoin:round; stroke-width:4; stroke-opacity:1; fill:none" points="2293.28,1423.18 2293.28,1404.28 "/>
<path clip-path="url(#clip690)" d="M447.97 1451.02 L466.327 1451.02 L466.327 1454.96 L452.253 1454.96 L452.253 1463.43 Q453.271 1463.08 454.29 1462.92 Q455.308 1462.73 456.327 1462.73 Q462.114 1462.73 465.493 1465.9 Q468.873 1469.08 468.873 1474.49 Q468.873 1480.07 465.401 1483.17 Q461.929 1486.25 455.609 1486.25 Q453.433 1486.25 451.165 1485.88 Q448.919 1485.51 446.512 1484.77 L446.512 1480.07 Q448.595 1481.2 450.818 1481.76 Q453.04 1482.32 455.517 1482.32 Q459.521 1482.32 461.859 1480.21 Q464.197 1478.1 464.197 1474.49 Q464.197 1470.88 461.859 1468.77 Q459.521 1466.67 455.517 1466.67 Q453.642 1466.67 451.767 1467.08 Q449.915 1467.5 447.97 1468.38 L447.97 1451.02 Z" fill="#000000" fill-rule="nonzero" fill-opacity="1" /><path clip-path="url(#clip690)" d="M799.498 1481.64 L807.137 1481.64 L807.137 1455.28 L798.827 1456.95 L798.827 1452.69 L807.091 1451.02 L811.767 1451.02 L811.767 1481.64 L819.406 1481.64 L819.406 1485.58 L799.498 1485.58 L799.498 1481.64 Z" fill="#000000" fill-rule="nonzero" fill-opacity="1" /><path clip-path="url(#clip690)" d="M838.85 1454.1 Q835.239 1454.1 833.41 1457.66 Q831.605 1461.2 831.605 1468.33 Q831.605 1475.44 833.41 1479.01 Q835.239 1482.55 838.85 1482.55 Q842.484 1482.55 844.29 1479.01 Q846.118 1475.44 846.118 1468.33 Q846.118 1461.2 844.29 1457.66 Q842.484 1454.1 838.85 1454.1 M838.85 1450.39 Q844.66 1450.39 847.716 1455 Q850.794 1459.58 850.794 1468.33 Q850.794 1477.06 847.716 1481.67 Q844.66 1486.25 838.85 1486.25 Q833.04 1486.25 829.961 1481.67 Q826.905 1477.06 826.905 1468.33 Q826.905 1459.58 829.961 1455 Q833.04 1450.39 838.85 1450.39 Z" fill="#000000" fill-rule="nonzero" fill-opacity="1" /><path clip-path="url(#clip690)" d="M1167.11 1481.64 L1174.75 1481.64 L1174.75 1455.28 L1166.44 1456.95 L1166.44 1452.69 L1174.71 1451.02 L1179.38 1451.02 L1179.38 1481.64 L1187.02 1481.64 L1187.02 1485.58 L1167.11 1485.58 L1167.11 1481.64 Z" fill="#000000" fill-rule="nonzero" fill-opacity="1" /><path clip-path="url(#clip690)" d="M1196.51 1451.02 L1214.87 1451.02 L1214.87 1454.96 L1200.79 1454.96 L1200.79 1463.43 Q1201.81 1463.08 1202.83 1462.92 Q1203.85 1462.73 1204.87 1462.73 Q1210.66 1462.73 1214.03 1465.9 Q1217.41 1469.08 1217.41 1474.49 Q1217.41 1480.07 1213.94 1483.17 Q1210.47 1486.25 1204.15 1486.25 Q1201.97 1486.25 1199.71 1485.88 Q1197.46 1485.51 1195.05 1484.77 L1195.05 1480.07 Q1197.14 1481.2 1199.36 1481.76 Q1201.58 1482.32 1204.06 1482.32 Q1208.06 1482.32 1210.4 1480.21 Q1212.74 1478.1 1212.74 1474.49 Q1212.74 1470.88 1210.4 1468.77 Q1208.06 1466.67 1204.06 1466.67 Q1202.18 1466.67 1200.31 1467.08 Q1198.46 1467.5 1196.51 1468.38 L1196.51 1451.02 Z" fill="#000000" fill-rule="nonzero" fill-opacity="1" /><path clip-path="url(#clip690)" d="M1537.82 1481.64 L1554.14 1481.64 L1554.14 1485.58 L1532.19 1485.58 L1532.19 1481.64 Q1534.86 1478.89 1539.44 1474.26 Q1544.05 1469.61 1545.23 1468.27 Q1547.47 1465.74 1548.35 1464.01 Q1549.26 1462.25 1549.26 1460.56 Q1549.26 1457.8 1547.31 1456.07 Q1545.39 1454.33 1542.29 1454.33 Q1540.09 1454.33 1537.63 1455.09 Q1535.2 1455.86 1532.43 1457.41 L1532.43 1452.69 Q1535.25 1451.55 1537.7 1450.97 Q1540.16 1450.39 1542.19 1450.39 Q1547.57 1450.39 1550.76 1453.08 Q1553.95 1455.77 1553.95 1460.26 Q1553.95 1462.39 1553.14 1464.31 Q1552.36 1466.2 1550.25 1468.8 Q1549.67 1469.47 1546.57 1472.69 Q1543.47 1475.88 1537.82 1481.64 Z" fill="#000000" fill-rule="nonzero" fill-opacity="1" /><path clip-path="url(#clip690)" d="M1573.95 1454.1 Q1570.34 1454.1 1568.51 1457.66 Q1566.71 1461.2 1566.71 1468.33 Q1566.71 1475.44 1568.51 1479.01 Q1570.34 1482.55 1573.95 1482.55 Q1577.59 1482.55 1579.39 1479.01 Q1581.22 1475.44 1581.22 1468.33 Q1581.22 1461.2 1579.39 1457.66 Q1577.59 1454.1 1573.95 1454.1 M1573.95 1450.39 Q1579.76 1450.39 1582.82 1455 Q1585.9 1459.58 1585.9 1468.33 Q1585.9 1477.06 1582.82 1481.67 Q1579.76 1486.25 1573.95 1486.25 Q1568.14 1486.25 1565.07 1481.67 Q1562.01 1477.06 1562.01 1468.33 Q1562.01 1459.58 1565.07 1455 Q1568.14 1450.39 1573.95 1450.39 Z" fill="#000000" fill-rule="nonzero" fill-opacity="1" /><path clip-path="url(#clip690)" d="M1905.44 1481.64 L1921.76 1481.64 L1921.76 1485.58 L1899.81 1485.58 L1899.81 1481.64 Q1902.47 1478.89 1907.06 1474.26 Q1911.66 1469.61 1912.84 1468.27 Q1915.09 1465.74 1915.97 1464.01 Q1916.87 1462.25 1916.87 1460.56 Q1916.87 1457.8 1914.93 1456.07 Q1913.01 1454.33 1909.9 1454.33 Q1907.7 1454.33 1905.25 1455.09 Q1902.82 1455.86 1900.04 1457.41 L1900.04 1452.69 Q1902.87 1451.55 1905.32 1450.97 Q1907.77 1450.39 1909.81 1450.39 Q1915.18 1450.39 1918.38 1453.08 Q1921.57 1455.77 1921.57 1460.26 Q1921.57 1462.39 1920.76 1464.31 Q1919.97 1466.2 1917.87 1468.8 Q1917.29 1469.47 1914.19 1472.69 Q1911.08 1475.88 1905.44 1481.64 Z" fill="#000000" fill-rule="nonzero" fill-opacity="1" /><path clip-path="url(#clip690)" d="M1931.62 1451.02 L1949.97 1451.02 L1949.97 1454.96 L1935.9 1454.96 L1935.9 1463.43 Q1936.92 1463.08 1937.94 1462.92 Q1938.95 1462.73 1939.97 1462.73 Q1945.76 1462.73 1949.14 1465.9 Q1952.52 1469.08 1952.52 1474.49 Q1952.52 1480.07 1949.05 1483.17 Q1945.57 1486.25 1939.25 1486.25 Q1937.08 1486.25 1934.81 1485.88 Q1932.57 1485.51 1930.16 1484.77 L1930.16 1480.07 Q1932.24 1481.2 1934.46 1481.76 Q1936.69 1482.32 1939.16 1482.32 Q1943.17 1482.32 1945.5 1480.21 Q1947.84 1478.1 1947.84 1474.49 Q1947.84 1470.88 1945.5 1468.77 Q1943.17 1466.67 1939.16 1466.67 Q1937.29 1466.67 1935.41 1467.08 Q1933.56 1467.5 1931.62 1468.38 L1931.62 1451.02 Z" fill="#000000" fill-rule="nonzero" fill-opacity="1" /><path clip-path="url(#clip690)" d="M2282.13 1466.95 Q2285.48 1467.66 2287.36 1469.93 Q2289.26 1472.2 2289.26 1475.53 Q2289.26 1480.65 2285.74 1483.45 Q2282.22 1486.25 2275.74 1486.25 Q2273.56 1486.25 2271.25 1485.81 Q2268.95 1485.39 2266.5 1484.54 L2266.5 1480.02 Q2268.44 1481.16 2270.76 1481.74 Q2273.07 1482.32 2275.6 1482.32 Q2280 1482.32 2282.29 1480.58 Q2284.6 1478.84 2284.6 1475.53 Q2284.6 1472.48 2282.45 1470.77 Q2280.32 1469.03 2276.5 1469.03 L2272.47 1469.03 L2272.47 1465.19 L2276.69 1465.19 Q2280.13 1465.19 2281.96 1463.82 Q2283.79 1462.43 2283.79 1459.84 Q2283.79 1457.18 2281.89 1455.77 Q2280.02 1454.33 2276.5 1454.33 Q2274.58 1454.33 2272.38 1454.75 Q2270.18 1455.16 2267.54 1456.04 L2267.54 1451.88 Q2270.2 1451.14 2272.52 1450.77 Q2274.86 1450.39 2276.92 1450.39 Q2282.24 1450.39 2285.34 1452.83 Q2288.44 1455.23 2288.44 1459.35 Q2288.44 1462.22 2286.8 1464.21 Q2285.16 1466.18 2282.13 1466.95 Z" fill="#000000" fill-rule="nonzero" fill-opacity="1" /><path clip-path="url(#clip690)" d="M2308.12 1454.1 Q2304.51 1454.1 2302.68 1457.66 Q2300.88 1461.2 2300.88 1468.33 Q2300.88 1475.44 2302.68 1479.01 Q2304.51 1482.55 2308.12 1482.55 Q2311.75 1482.55 2313.56 1479.01 Q2315.39 1475.44 2315.39 1468.33 Q2315.39 1461.2 2313.56 1457.66 Q2311.75 1454.1 2308.12 1454.1 M2308.12 1450.39 Q2313.93 1450.39 2316.99 1455 Q2320.07 1459.58 2320.07 1468.33 Q2320.07 1477.06 2316.99 1481.67 Q2313.93 1486.25 2308.12 1486.25 Q2302.31 1486.25 2299.23 1481.67 Q2296.18 1477.06 2296.18 1468.33 Q2296.18 1459.58 2299.23 1455 Q2302.31 1450.39 2308.12 1450.39 Z" fill="#000000" fill-rule="nonzero" fill-opacity="1" /><path clip-path="url(#clip690)" d="M963.042 1520.52 L972.623 1520.52 L984.749 1552.86 L996.94 1520.52 L1006.52 1520.52 L1006.52 1568.04 L1000.25 1568.04 L1000.25 1526.32 L987.996 1558.91 L981.535 1558.91 L969.281 1526.32 L969.281 1568.04 L963.042 1568.04 L963.042 1520.52 Z" fill="#000000" fill-rule="nonzero" fill-opacity="1" /><path clip-path="url(#clip690)" d="M1035.23 1550.12 Q1028.13 1550.12 1025.39 1551.75 Q1022.66 1553.37 1022.66 1557.29 Q1022.66 1560.4 1024.69 1562.25 Q1026.76 1564.07 1030.3 1564.07 Q1035.17 1564.07 1038.09 1560.63 Q1041.05 1557.16 1041.05 1551.43 L1041.05 1550.12 L1035.23 1550.12 M1046.91 1547.71 L1046.91 1568.04 L1041.05 1568.04 L1041.05 1562.63 Q1039.05 1565.88 1036.06 1567.44 Q1033.07 1568.97 1028.74 1568.97 Q1023.26 1568.97 1020.02 1565.91 Q1016.8 1562.82 1016.8 1557.67 Q1016.8 1551.65 1020.81 1548.6 Q1024.85 1545.54 1032.84 1545.54 L1041.05 1545.54 L1041.05 1544.97 Q1041.05 1540.93 1038.38 1538.73 Q1035.74 1536.5 1030.93 1536.5 Q1027.88 1536.5 1024.98 1537.23 Q1022.08 1537.97 1019.41 1539.43 L1019.41 1534.02 Q1022.63 1532.78 1025.65 1532.17 Q1028.67 1531.54 1031.54 1531.54 Q1039.27 1531.54 1043.09 1535.55 Q1046.91 1539.56 1046.91 1547.71 Z" fill="#000000" fill-rule="nonzero" fill-opacity="1" /><path clip-path="url(#clip690)" d="M1088.61 1532.4 L1075.72 1549.74 L1089.27 1568.04 L1082.37 1568.04 L1071.99 1554.04 L1061.62 1568.04 L1054.71 1568.04 L1068.55 1549.39 L1055.89 1532.4 L1062.79 1532.4 L1072.25 1545.1 L1081.7 1532.4 L1088.61 1532.4 Z" fill="#000000" fill-rule="nonzero" fill-opacity="1" /><path clip-path="url(#clip690)" d="M1124.95 1545.35 L1124.95 1562.76 L1135.27 1562.76 Q1140.45 1562.76 1142.94 1560.63 Q1145.45 1558.46 1145.45 1554.04 Q1145.45 1549.58 1142.94 1547.48 Q1140.45 1545.35 1135.27 1545.35 L1124.95 1545.35 M1124.95 1525.81 L1124.95 1540.13 L1134.47 1540.13 Q1139.18 1540.13 1141.47 1538.38 Q1143.8 1536.6 1143.8 1532.97 Q1143.8 1529.37 1141.47 1527.59 Q1139.18 1525.81 1134.47 1525.81 L1124.95 1525.81 M1118.52 1520.52 L1134.95 1520.52 Q1142.3 1520.52 1146.28 1523.58 Q1150.26 1526.63 1150.26 1532.27 Q1150.26 1536.63 1148.22 1539.21 Q1146.18 1541.79 1142.24 1542.42 Q1146.98 1543.44 1149.59 1546.69 Q1152.23 1549.9 1152.23 1554.74 Q1152.23 1561.11 1147.9 1564.57 Q1143.57 1568.04 1135.58 1568.04 L1118.52 1568.04 L1118.52 1520.52 Z" fill="#000000" fill-rule="nonzero" fill-opacity="1" /><path clip-path="url(#clip690)" d="M1176.8 1536.5 Q1172.09 1536.5 1169.35 1540.19 Q1166.62 1543.85 1166.62 1550.25 Q1166.62 1556.65 1169.32 1560.34 Q1172.06 1564 1176.8 1564 Q1181.48 1564 1184.22 1560.31 Q1186.96 1556.62 1186.96 1550.25 Q1186.96 1543.92 1184.22 1540.23 Q1181.48 1536.5 1176.8 1536.5 M1176.8 1531.54 Q1184.44 1531.54 1188.8 1536.5 Q1193.16 1541.47 1193.16 1550.25 Q1193.16 1559 1188.8 1564 Q1184.44 1568.97 1176.8 1568.97 Q1169.13 1568.97 1164.77 1564 Q1160.44 1559 1160.44 1550.25 Q1160.44 1541.47 1164.77 1536.5 Q1169.13 1531.54 1176.8 1531.54 Z" fill="#000000" fill-rule="nonzero" fill-opacity="1" /><path clip-path="url(#clip690)" d="M1232.5 1546.53 L1232.5 1568.04 L1226.65 1568.04 L1226.65 1546.72 Q1226.65 1541.66 1224.67 1539.14 Q1222.7 1536.63 1218.75 1536.63 Q1214.01 1536.63 1211.27 1539.65 Q1208.54 1542.68 1208.54 1547.9 L1208.54 1568.04 L1202.65 1568.04 L1202.65 1532.4 L1208.54 1532.4 L1208.54 1537.93 Q1210.64 1534.72 1213.47 1533.13 Q1216.33 1531.54 1220.06 1531.54 Q1226.2 1531.54 1229.35 1535.36 Q1232.5 1539.14 1232.5 1546.53 Z" fill="#000000" fill-rule="nonzero" fill-opacity="1" /><path clip-path="url(#clip690)" d="M1267.64 1537.81 L1267.64 1518.52 L1273.5 1518.52 L1273.5 1568.04 L1267.64 1568.04 L1267.64 1562.7 Q1265.8 1565.88 1262.96 1567.44 Q1260.16 1568.97 1256.22 1568.97 Q1249.75 1568.97 1245.68 1563.81 Q1241.64 1558.65 1241.64 1550.25 Q1241.64 1541.85 1245.68 1536.69 Q1249.75 1531.54 1256.22 1531.54 Q1260.16 1531.54 1262.96 1533.1 Q1265.8 1534.62 1267.64 1537.81 M1247.68 1550.25 Q1247.68 1556.71 1250.33 1560.4 Q1253 1564.07 1257.65 1564.07 Q1262.29 1564.07 1264.97 1560.4 Q1267.64 1556.71 1267.64 1550.25 Q1267.64 1543.79 1264.97 1540.13 Q1262.29 1536.44 1257.65 1536.44 Q1253 1536.44 1250.33 1540.13 Q1247.68 1543.79 1247.68 1550.25 Z" fill="#000000" fill-rule="nonzero" fill-opacity="1" /><path clip-path="url(#clip690)" d="M1312.97 1525.81 L1312.97 1562.76 L1320.73 1562.76 Q1330.57 1562.76 1335.12 1558.3 Q1339.7 1553.85 1339.7 1544.24 Q1339.7 1534.69 1335.12 1530.26 Q1330.57 1525.81 1320.73 1525.81 L1312.97 1525.81 M1306.54 1520.52 L1319.74 1520.52 Q1333.56 1520.52 1340.02 1526.28 Q1346.48 1532.01 1346.48 1544.24 Q1346.48 1556.52 1339.99 1562.28 Q1333.49 1568.04 1319.74 1568.04 L1306.54 1568.04 L1306.54 1520.52 Z" fill="#000000" fill-rule="nonzero" fill-opacity="1" /><path clip-path="url(#clip690)" d="M1356.47 1532.4 L1362.33 1532.4 L1362.33 1568.04 L1356.47 1568.04 L1356.47 1532.4 M1356.47 1518.52 L1362.33 1518.52 L1362.33 1525.93 L1356.47 1525.93 L1356.47 1518.52 Z" fill="#000000" fill-rule="nonzero" fill-opacity="1" /><path clip-path="url(#clip690)" d="M1402.34 1539.24 Q1404.54 1535.29 1407.59 1533.41 Q1410.65 1531.54 1414.78 1531.54 Q1420.35 1531.54 1423.38 1535.45 Q1426.4 1539.33 1426.4 1546.53 L1426.4 1568.04 L1420.51 1568.04 L1420.51 1546.72 Q1420.51 1541.59 1418.7 1539.11 Q1416.89 1536.63 1413.16 1536.63 Q1408.61 1536.63 1405.97 1539.65 Q1403.33 1542.68 1403.33 1547.9 L1403.33 1568.04 L1397.44 1568.04 L1397.44 1546.72 Q1397.44 1541.56 1395.62 1539.11 Q1393.81 1536.63 1390.02 1536.63 Q1385.53 1536.63 1382.89 1539.68 Q1380.25 1542.71 1380.25 1547.9 L1380.25 1568.04 L1374.36 1568.04 L1374.36 1532.4 L1380.25 1532.4 L1380.25 1537.93 Q1382.26 1534.66 1385.06 1533.1 Q1387.86 1531.54 1391.71 1531.54 Q1395.59 1531.54 1398.3 1533.51 Q1401.03 1535.48 1402.34 1539.24 Z" fill="#000000" fill-rule="nonzero" fill-opacity="1" /><path clip-path="url(#clip690)" d="M1468.58 1548.76 L1468.58 1551.62 L1441.65 1551.62 Q1442.03 1557.67 1445.28 1560.85 Q1448.55 1564 1454.38 1564 Q1457.75 1564 1460.9 1563.17 Q1464.09 1562.35 1467.21 1560.69 L1467.21 1566.23 Q1464.06 1567.57 1460.75 1568.27 Q1457.44 1568.97 1454.03 1568.97 Q1445.5 1568.97 1440.5 1564 Q1435.54 1559.04 1435.54 1550.57 Q1435.54 1541.82 1440.25 1536.69 Q1444.99 1531.54 1453.01 1531.54 Q1460.2 1531.54 1464.37 1536.18 Q1468.58 1540.8 1468.58 1548.76 M1462.72 1547.04 Q1462.65 1542.23 1460.01 1539.37 Q1457.4 1536.5 1453.07 1536.5 Q1448.17 1536.5 1445.21 1539.27 Q1442.28 1542.04 1441.84 1547.07 L1462.72 1547.04 Z" fill="#000000" fill-rule="nonzero" fill-opacity="1" /><path clip-path="url(#clip690)" d="M1507.82 1546.53 L1507.82 1568.04 L1501.96 1568.04 L1501.96 1546.72 Q1501.96 1541.66 1499.99 1539.14 Q1498.02 1536.63 1494.07 1536.63 Q1489.33 1536.63 1486.59 1539.65 Q1483.85 1542.68 1483.85 1547.9 L1483.85 1568.04 L1477.96 1568.04 L1477.96 1532.4 L1483.85 1532.4 L1483.85 1537.93 Q1485.95 1534.72 1488.79 1533.13 Q1491.65 1531.54 1495.37 1531.54 Q1501.52 1531.54 1504.67 1535.36 Q1507.82 1539.14 1507.82 1546.53 Z" fill="#000000" fill-rule="nonzero" fill-opacity="1" /><path clip-path="url(#clip690)" d="M1542.23 1533.45 L1542.23 1538.98 Q1539.74 1537.71 1537.07 1537.07 Q1534.4 1536.44 1531.53 1536.44 Q1527.17 1536.44 1524.98 1537.77 Q1522.81 1539.11 1522.81 1541.79 Q1522.81 1543.82 1524.37 1545 Q1525.93 1546.15 1530.64 1547.2 L1532.65 1547.64 Q1538.88 1548.98 1541.49 1551.43 Q1544.14 1553.85 1544.14 1558.21 Q1544.14 1563.17 1540.19 1566.07 Q1536.27 1568.97 1529.4 1568.97 Q1526.53 1568.97 1523.42 1568.39 Q1520.33 1567.85 1516.89 1566.74 L1516.89 1560.69 Q1520.14 1562.38 1523.29 1563.24 Q1526.44 1564.07 1529.53 1564.07 Q1533.66 1564.07 1535.89 1562.66 Q1538.12 1561.23 1538.12 1558.65 Q1538.12 1556.27 1536.5 1554.99 Q1534.91 1553.72 1529.46 1552.54 L1527.43 1552.07 Q1521.98 1550.92 1519.56 1548.56 Q1517.15 1546.18 1517.15 1542.04 Q1517.15 1537.01 1520.71 1534.27 Q1524.27 1531.54 1530.83 1531.54 Q1534.08 1531.54 1536.94 1532.01 Q1539.81 1532.49 1542.23 1533.45 Z" fill="#000000" fill-rule="nonzero" fill-opacity="1" /><path clip-path="url(#clip690)" d="M1553.46 1532.4 L1559.32 1532.4 L1559.32 1568.04 L1553.46 1568.04 L1553.46 1532.4 M1553.46 1518.52 L1559.32 1518.52 L1559.32 1525.93 L1553.46 1525.93 L1553.46 1518.52 Z" fill="#000000" fill-rule="nonzero" fill-opacity="1" /><path clip-path="url(#clip690)" d="M1585.39 1536.5 Q1580.68 1536.5 1577.94 1540.19 Q1575.2 1543.85 1575.2 1550.25 Q1575.2 1556.65 1577.91 1560.34 Q1580.64 1564 1585.39 1564 Q1590.06 1564 1592.8 1560.31 Q1595.54 1556.62 1595.54 1550.25 Q1595.54 1543.92 1592.8 1540.23 Q1590.06 1536.5 1585.39 1536.5 M1585.39 1531.54 Q1593.02 1531.54 1597.39 1536.5 Q1601.75 1541.47 1601.75 1550.25 Q1601.75 1559 1597.39 1564 Q1593.02 1568.97 1585.39 1568.97 Q1577.72 1568.97 1573.35 1564 Q1569.03 1559 1569.03 1550.25 Q1569.03 1541.47 1573.35 1536.5 Q1577.72 1531.54 1585.39 1531.54 Z" fill="#000000" fill-rule="nonzero" fill-opacity="1" /><path clip-path="url(#clip690)" d="M1641.09 1546.53 L1641.09 1568.04 L1635.23 1568.04 L1635.23 1546.72 Q1635.23 1541.66 1633.26 1539.14 Q1631.28 1536.63 1627.34 1536.63 Q1622.59 1536.63 1619.86 1539.65 Q1617.12 1542.68 1617.12 1547.9 L1617.12 1568.04 L1611.23 1568.04 L1611.23 1532.4 L1617.12 1532.4 L1617.12 1537.93 Q1619.22 1534.72 1622.05 1533.13 Q1624.92 1531.54 1628.64 1531.54 Q1634.78 1531.54 1637.93 1535.36 Q1641.09 1539.14 1641.09 1546.53 Z" fill="#000000" fill-rule="nonzero" fill-opacity="1" /><polyline clip-path="url(#clip690)" style="stroke:#000000; stroke-linecap:round; stroke-linejoin:round; stroke-width:4; stroke-opacity:1; fill:none" points="251.372,1423.18 251.372,123.472 "/>
<polyline clip-path="url(#clip690)" style="stroke:#000000; stroke-linecap:round; stroke-linejoin:round; stroke-width:4; stroke-opacity:1; fill:none" points="251.372,1102.67 270.27,1102.67 "/>
<polyline clip-path="url(#clip690)" style="stroke:#000000; stroke-linecap:round; stroke-linejoin:round; stroke-width:4; stroke-opacity:1; fill:none" points="251.372,668.291 270.27,668.291 "/>
<polyline clip-path="url(#clip690)" style="stroke:#000000; stroke-linecap:round; stroke-linejoin:round; stroke-width:4; stroke-opacity:1; fill:none" points="251.372,233.91 270.27,233.91 "/>
<path clip-path="url(#clip690)" d="M115.232 1122.46 L122.871 1122.46 L122.871 1096.1 L114.561 1097.76 L114.561 1093.51 L122.825 1091.84 L127.501 1091.84 L127.501 1122.46 L135.14 1122.46 L135.14 1126.4 L115.232 1126.4 L115.232 1122.46 Z" fill="#000000" fill-rule="nonzero" fill-opacity="1" /><path clip-path="url(#clip690)" d="M154.584 1094.92 Q150.973 1094.92 149.144 1098.48 Q147.339 1102.02 147.339 1109.15 Q147.339 1116.26 149.144 1119.82 Q150.973 1123.37 154.584 1123.37 Q158.218 1123.37 160.024 1119.82 Q161.852 1116.26 161.852 1109.15 Q161.852 1102.02 160.024 1098.48 Q158.218 1094.92 154.584 1094.92 M154.584 1091.21 Q160.394 1091.21 163.45 1095.82 Q166.528 1100.4 166.528 1109.15 Q166.528 1117.88 163.45 1122.49 Q160.394 1127.07 154.584 1127.07 Q148.774 1127.07 145.695 1122.49 Q142.64 1117.88 142.64 1109.15 Q142.64 1100.4 145.695 1095.82 Q148.774 1091.21 154.584 1091.21 Z" fill="#000000" fill-rule="nonzero" fill-opacity="1" /><path clip-path="url(#clip690)" d="M166.528 1085.31 L190.64 1085.31 L190.64 1088.51 L166.528 1088.51 L166.528 1085.31 Z" fill="#000000" fill-rule="nonzero" fill-opacity="1" /><path clip-path="url(#clip690)" d="M202.113 1095.79 L215.372 1095.79 L215.372 1098.99 L197.542 1098.99 L197.542 1095.79 Q199.705 1093.55 203.429 1089.79 Q207.172 1086.01 208.131 1084.92 Q209.956 1082.87 210.67 1081.46 Q211.404 1080.03 211.404 1078.66 Q211.404 1076.42 209.824 1075.01 Q208.263 1073.6 205.743 1073.6 Q203.956 1073.6 201.962 1074.22 Q199.987 1074.84 197.73 1076.1 L197.73 1072.26 Q200.025 1071.34 202.019 1070.87 Q204.012 1070.4 205.667 1070.4 Q210.031 1070.4 212.626 1072.58 Q215.222 1074.76 215.222 1078.41 Q215.222 1080.14 214.563 1081.7 Q213.924 1083.25 212.212 1085.35 Q211.742 1085.9 209.222 1088.51 Q206.702 1091.11 202.113 1095.79 Z" fill="#000000" fill-rule="nonzero" fill-opacity="1" /><path clip-path="url(#clip690)" d="M114.931 688.083 L122.57 688.083 L122.57 661.718 L114.26 663.384 L114.26 659.125 L122.524 657.458 L127.2 657.458 L127.2 688.083 L134.839 688.083 L134.839 692.018 L114.931 692.018 L114.931 688.083 Z" fill="#000000" fill-rule="nonzero" fill-opacity="1" /><path clip-path="url(#clip690)" d="M154.283 660.537 Q150.672 660.537 148.843 664.102 Q147.038 667.643 147.038 674.773 Q147.038 681.879 148.843 685.444 Q150.672 688.986 154.283 688.986 Q157.917 688.986 159.723 685.444 Q161.552 681.879 161.552 674.773 Q161.552 667.643 159.723 664.102 Q157.917 660.537 154.283 660.537 M154.283 656.833 Q160.093 656.833 163.149 661.44 Q166.227 666.023 166.227 674.773 Q166.227 683.5 163.149 688.106 Q160.093 692.69 154.283 692.69 Q148.473 692.69 145.394 688.106 Q142.339 683.5 142.339 674.773 Q142.339 666.023 145.394 661.44 Q148.473 656.833 154.283 656.833 Z" fill="#000000" fill-rule="nonzero" fill-opacity="1" /><path clip-path="url(#clip690)" d="M166.227 650.935 L190.339 650.935 L190.339 654.132 L166.227 654.132 L166.227 650.935 Z" fill="#000000" fill-rule="nonzero" fill-opacity="1" /><path clip-path="url(#clip690)" d="M199.197 661.411 L205.404 661.411 L205.404 639.989 L198.652 641.343 L198.652 637.882 L205.366 636.528 L209.166 636.528 L209.166 661.411 L215.372 661.411 L215.372 664.608 L199.197 664.608 L199.197 661.411 Z" fill="#000000" fill-rule="nonzero" fill-opacity="1" /><path clip-path="url(#clip690)" d="M144.667 253.703 L152.305 253.703 L152.305 227.337 L143.995 229.004 L143.995 224.745 L152.259 223.078 L156.935 223.078 L156.935 253.703 L164.574 253.703 L164.574 257.638 L144.667 257.638 L144.667 253.703 Z" fill="#000000" fill-rule="nonzero" fill-opacity="1" /><path clip-path="url(#clip690)" d="M184.018 226.157 Q180.407 226.157 178.578 229.721 Q176.773 233.263 176.773 240.393 Q176.773 247.499 178.578 251.064 Q180.407 254.606 184.018 254.606 Q187.652 254.606 189.458 251.064 Q191.287 247.499 191.287 240.393 Q191.287 233.263 189.458 229.721 Q187.652 226.157 184.018 226.157 M184.018 222.453 Q189.828 222.453 192.884 227.059 Q195.963 231.643 195.963 240.393 Q195.963 249.12 192.884 253.726 Q189.828 258.309 184.018 258.309 Q178.208 258.309 175.129 253.726 Q172.074 249.12 172.074 240.393 Q172.074 231.643 175.129 227.059 Q178.208 222.453 184.018 222.453 Z" fill="#000000" fill-rule="nonzero" fill-opacity="1" /><path clip-path="url(#clip690)" d="M205.667 204.649 Q202.733 204.649 201.248 207.545 Q199.781 210.423 199.781 216.216 Q199.781 221.99 201.248 224.886 Q202.733 227.764 205.667 227.764 Q208.62 227.764 210.087 224.886 Q211.573 221.99 211.573 216.216 Q211.573 210.423 210.087 207.545 Q208.62 204.649 205.667 204.649 M205.667 201.64 Q210.388 201.64 212.871 205.383 Q215.372 209.106 215.372 216.216 Q215.372 223.306 212.871 227.049 Q210.388 230.773 205.667 230.773 Q200.947 230.773 198.445 227.049 Q195.963 223.306 195.963 216.216 Q195.963 209.106 198.445 205.383 Q200.947 201.64 205.667 201.64 Z" fill="#000000" fill-rule="nonzero" fill-opacity="1" /><path clip-path="url(#clip690)" d="M18.0438 1022.54 L24.314 1022.54 Q22.5634 1026.2 21.704 1029.45 Q20.8447 1032.7 20.8447 1035.72 Q20.8447 1040.97 22.8817 1043.84 Q24.9187 1046.67 28.6745 1046.67 Q31.8255 1046.67 33.4488 1044.79 Q35.0402 1042.88 36.0269 1037.6 L36.8226 1033.72 Q38.1912 1026.52 41.6605 1023.12 Q45.098 1019.68 50.8908 1019.68 Q57.7976 1019.68 61.3624 1024.33 Q64.9272 1028.94 64.9272 1037.88 Q64.9272 1041.26 64.1633 1045.08 Q63.3994 1048.87 61.9035 1052.94 L55.2831 1052.94 Q57.4793 1049.02 58.5933 1045.27 Q59.7073 1041.51 59.7073 1037.88 Q59.7073 1032.38 57.543 1029.39 Q55.3786 1026.39 51.3682 1026.39 Q47.8671 1026.39 45.8937 1028.56 Q43.9204 1030.69 42.9337 1035.59 L42.1698 1039.51 Q40.7375 1046.7 37.682 1049.92 Q34.6264 1053.13 29.1837 1053.13 Q22.8817 1053.13 19.2532 1048.71 Q15.6248 1044.25 15.6248 1036.45 Q15.6248 1033.11 16.2295 1029.64 Q16.8343 1026.17 18.0438 1022.54 Z" fill="#000000" fill-rule="nonzero" fill-opacity="1" /><path clip-path="url(#clip690)" d="M46.0847 993.707 Q46.0847 1000.8 47.7079 1003.54 Q49.3312 1006.28 53.2461 1006.28 Q56.3653 1006.28 58.2114 1004.24 Q60.0256 1002.17 60.0256 998.64 Q60.0256 993.77 56.5881 990.842 Q53.1188 987.882 47.3897 987.882 L46.0847 987.882 L46.0847 993.707 M43.6657 982.026 L64.0042 982.026 L64.0042 987.882 L58.5933 987.882 Q61.8398 989.887 63.3994 992.879 Q64.9272 995.871 64.9272 1000.2 Q64.9272 1005.67 61.8716 1008.92 Q58.7843 1012.14 53.6281 1012.14 Q47.6125 1012.14 44.5569 1008.13 Q41.5014 1004.08 41.5014 996.094 L41.5014 987.882 L40.9285 987.882 Q36.8862 987.882 34.6901 990.556 Q32.4621 993.197 32.4621 998.004 Q32.4621 1001.06 33.1941 1003.96 Q33.9262 1006.85 35.3903 1009.53 L29.9795 1009.53 Q28.7381 1006.31 28.1334 1003.29 Q27.4968 1000.26 27.4968 997.399 Q27.4968 989.665 31.5072 985.845 Q35.5176 982.026 43.6657 982.026 Z" fill="#000000" fill-rule="nonzero" fill-opacity="1" /><path clip-path="url(#clip690)" d="M35.1993 942.208 Q31.2526 940.012 29.3747 936.956 Q27.4968 933.901 27.4968 929.763 Q27.4968 924.193 31.4117 921.17 Q35.2948 918.146 42.4881 918.146 L64.0042 918.146 L64.0042 924.034 L42.679 924.034 Q37.5546 924.034 35.072 925.848 Q32.5894 927.663 32.5894 931.386 Q32.5894 935.938 35.6131 938.58 Q38.6368 941.221 43.8567 941.221 L64.0042 941.221 L64.0042 947.11 L42.679 947.11 Q37.5228 947.11 35.072 948.924 Q32.5894 950.738 32.5894 954.526 Q32.5894 959.014 35.6449 961.655 Q38.6686 964.297 43.8567 964.297 L64.0042 964.297 L64.0042 970.185 L28.3562 970.185 L28.3562 964.297 L33.8944 964.297 Q30.616 962.292 29.0564 959.491 Q27.4968 956.69 27.4968 952.839 Q27.4968 948.956 29.4702 946.25 Q31.4436 943.513 35.1993 942.208 Z" fill="#000000" fill-rule="nonzero" fill-opacity="1" /><path clip-path="url(#clip690)" d="M58.657 900.799 L77.5631 900.799 L77.5631 906.688 L28.3562 906.688 L28.3562 900.799 L33.7671 900.799 Q30.5842 898.953 29.0564 896.152 Q27.4968 893.32 27.4968 889.405 Q27.4968 882.912 32.6531 878.869 Q37.8093 874.795 46.212 874.795 Q54.6147 874.795 59.771 878.869 Q64.9272 882.912 64.9272 889.405 Q64.9272 893.32 63.3994 896.152 Q61.8398 898.953 58.657 900.799 M46.212 880.875 Q39.7508 880.875 36.0905 883.548 Q32.3984 886.19 32.3984 890.837 Q32.3984 895.484 36.0905 898.157 Q39.7508 900.799 46.212 900.799 Q52.6732 900.799 56.3653 898.157 Q60.0256 895.484 60.0256 890.837 Q60.0256 886.19 56.3653 883.548 Q52.6732 880.875 46.212 880.875 Z" fill="#000000" fill-rule="nonzero" fill-opacity="1" /><path clip-path="url(#clip690)" d="M14.479 865.088 L14.479 859.231 L64.0042 859.231 L64.0042 865.088 L14.479 865.088 Z" fill="#000000" fill-rule="nonzero" fill-opacity="1" /><path clip-path="url(#clip690)" d="M44.7161 816.485 L47.5806 816.485 L47.5806 843.412 Q53.6281 843.03 56.8109 839.784 Q59.9619 836.506 59.9619 830.681 Q59.9619 827.307 59.1344 824.156 Q58.3069 820.973 56.6518 817.854 L62.1899 817.854 Q63.5267 821.005 64.227 824.315 Q64.9272 827.625 64.9272 831.031 Q64.9272 839.561 59.9619 844.558 Q54.9967 849.523 46.5303 849.523 Q37.7774 849.523 32.6531 844.813 Q27.4968 840.07 27.4968 832.05 Q27.4968 824.856 32.1438 820.687 Q36.7589 816.485 44.7161 816.485 M42.9973 822.342 Q38.1912 822.406 35.3266 825.047 Q32.4621 827.657 32.4621 831.986 Q32.4621 836.888 35.2312 839.848 Q38.0002 842.776 43.0292 843.221 L42.9973 822.342 Z" fill="#000000" fill-rule="nonzero" fill-opacity="1" /><path clip-path="url(#clip690)" d="M33.7671 783.416 L14.479 783.416 L14.479 777.559 L64.0042 777.559 L64.0042 783.416 L58.657 783.416 Q61.8398 785.262 63.3994 788.094 Q64.9272 790.895 64.9272 794.842 Q64.9272 801.303 59.771 805.377 Q54.6147 809.42 46.212 809.42 Q37.8093 809.42 32.6531 805.377 Q27.4968 801.303 27.4968 794.842 Q27.4968 790.895 29.0564 788.094 Q30.5842 785.262 33.7671 783.416 M46.212 803.372 Q52.6732 803.372 56.3653 800.73 Q60.0256 798.057 60.0256 793.41 Q60.0256 788.763 56.3653 786.089 Q52.6732 783.416 46.212 783.416 Q39.7508 783.416 36.0905 786.089 Q32.3984 788.763 32.3984 793.41 Q32.3984 798.057 36.0905 800.73 Q39.7508 803.372 46.212 803.372 Z" fill="#000000" fill-rule="nonzero" fill-opacity="1" /><path clip-path="url(#clip690)" d="M16.4842 744.521 L16.4842 738.092 L58.5933 738.092 L58.5933 714.952 L64.0042 714.952 L64.0042 744.521 L16.4842 744.521 Z" fill="#000000" fill-rule="nonzero" fill-opacity="1" /><path clip-path="url(#clip690)" d="M58.5933 706.518 L58.5933 696.014 L22.3406 696.014 L24.6323 707.441 L18.7758 707.441 L16.4842 696.078 L16.4842 689.649 L58.5933 689.649 L58.5933 679.145 L64.0042 679.145 L64.0042 706.518 L58.5933 706.518 Z" fill="#000000" fill-rule="nonzero" fill-opacity="1" /><path clip-path="url(#clip690)" d="M16.4842 646.012 L16.4842 615.966 L21.895 615.966 L21.895 639.582 L35.9632 639.582 L35.9632 616.952 L41.3741 616.952 L41.3741 639.582 L58.5933 639.582 L58.5933 615.393 L64.0042 615.393 L64.0042 646.012 L16.4842 646.012 Z" fill="#000000" fill-rule="nonzero" fill-opacity="1" /><path clip-path="url(#clip690)" d="M33.8307 584.424 Q33.2578 585.41 33.0032 586.588 Q32.7167 587.734 32.7167 589.134 Q32.7167 594.1 35.9632 596.773 Q39.1779 599.415 45.2253 599.415 L64.0042 599.415 L64.0042 605.303 L28.3562 605.303 L28.3562 599.415 L33.8944 599.415 Q30.6479 597.569 29.0883 594.609 Q27.4968 591.649 27.4968 587.416 Q27.4968 586.811 27.5923 586.079 Q27.656 585.347 27.8151 584.455 L33.8307 584.424 Z" fill="#000000" fill-rule="nonzero" fill-opacity="1" /><path clip-path="url(#clip690)" d="M33.8307 558.77 Q33.2578 559.757 33.0032 560.934 Q32.7167 562.08 32.7167 563.48 Q32.7167 568.446 35.9632 571.119 Q39.1779 573.761 45.2253 573.761 L64.0042 573.761 L64.0042 579.649 L28.3562 579.649 L28.3562 573.761 L33.8944 573.761 Q30.6479 571.915 29.0883 568.955 Q27.4968 565.995 27.4968 561.762 Q27.4968 561.157 27.5923 560.425 Q27.656 559.693 27.8151 558.802 L33.8307 558.77 Z" fill="#000000" fill-rule="nonzero" fill-opacity="1" /><path clip-path="url(#clip690)" d="M32.4621 540.246 Q32.4621 544.956 36.1542 547.694 Q39.8145 550.431 46.212 550.431 Q52.6095 550.431 56.3017 547.725 Q59.9619 544.988 59.9619 540.246 Q59.9619 535.567 56.2698 532.83 Q52.5777 530.092 46.212 530.092 Q39.8781 530.092 36.186 532.83 Q32.4621 535.567 32.4621 540.246 M27.4968 540.246 Q27.4968 532.607 32.4621 528.246 Q37.4273 523.886 46.212 523.886 Q54.9649 523.886 59.9619 528.246 Q64.9272 532.607 64.9272 540.246 Q64.9272 547.916 59.9619 552.277 Q54.9649 556.606 46.212 556.606 Q37.4273 556.606 32.4621 552.277 Q27.4968 547.916 27.4968 540.246 Z" fill="#000000" fill-rule="nonzero" fill-opacity="1" /><path clip-path="url(#clip690)" d="M33.8307 493.521 Q33.2578 494.508 33.0032 495.686 Q32.7167 496.832 32.7167 498.232 Q32.7167 503.197 35.9632 505.871 Q39.1779 508.513 45.2253 508.513 L64.0042 508.513 L64.0042 514.401 L28.3562 514.401 L28.3562 508.513 L33.8944 508.513 Q30.6479 506.667 29.0883 503.706 Q27.4968 500.746 27.4968 496.513 Q27.4968 495.908 27.5923 495.176 Q27.656 494.444 27.8151 493.553 L33.8307 493.521 Z" fill="#000000" fill-rule="nonzero" fill-opacity="1" /><path clip-path="url(#clip690)" d="M476.794 14.0809 L476.794 22.0612 Q472.135 19.8332 468.003 18.7395 Q463.871 17.6457 460.023 17.6457 Q453.339 17.6457 449.693 20.2383 Q446.088 22.8309 446.088 27.611 Q446.088 31.6214 448.478 33.6873 Q450.908 35.7128 457.633 36.9686 L462.575 37.9813 Q471.73 39.7232 476.064 44.1387 Q480.439 48.5136 480.439 55.8863 Q480.439 64.6767 474.525 69.2137 Q468.651 73.7508 457.268 73.7508 Q452.974 73.7508 448.113 72.7785 Q443.293 71.8063 438.107 69.9024 L438.107 61.4765 Q443.09 64.2716 447.87 65.6895 Q452.65 67.1073 457.268 67.1073 Q464.276 67.1073 468.084 64.3527 Q471.892 61.598 471.892 56.4939 Q471.892 52.0379 469.137 49.5264 Q466.423 47.0148 460.185 45.759 L455.202 44.7868 Q446.047 42.9639 441.956 39.075 Q437.864 35.1862 437.864 28.2591 Q437.864 20.2383 443.495 15.6203 Q449.166 11.0023 459.091 11.0023 Q463.345 11.0023 467.76 11.7719 Q472.176 12.5416 476.794 14.0809 Z" fill="#000000" fill-rule="nonzero" fill-opacity="1" /><path clip-path="url(#clip690)" d="M513.495 49.7694 Q504.461 49.7694 500.977 51.8354 Q497.494 53.9013 497.494 58.8839 Q497.494 62.8538 500.086 65.2034 Q502.719 67.5124 507.216 67.5124 Q513.414 67.5124 517.141 63.1374 Q520.908 58.7219 520.908 51.4303 L520.908 49.7694 L513.495 49.7694 M528.362 46.6907 L528.362 72.576 L520.908 72.576 L520.908 65.6895 Q518.356 69.8214 514.548 71.8063 Q510.74 73.7508 505.231 73.7508 Q498.263 73.7508 494.131 69.8619 Q490.04 65.9325 490.04 59.3701 Q490.04 51.7138 495.144 47.825 Q500.289 43.9361 510.457 43.9361 L520.908 43.9361 L520.908 43.2069 Q520.908 38.0623 517.505 35.2672 Q514.143 32.4315 508.026 32.4315 Q504.137 32.4315 500.451 33.3632 Q496.765 34.295 493.362 36.1584 L493.362 29.2718 Q497.453 27.692 501.302 26.9223 Q505.15 26.1121 508.796 26.1121 Q518.639 26.1121 523.501 31.2163 Q528.362 36.3204 528.362 46.6907 Z" fill="#000000" fill-rule="nonzero" fill-opacity="1" /><path clip-path="url(#clip690)" d="M579.038 35.9153 Q581.834 30.8922 585.722 28.5022 Q589.611 26.1121 594.877 26.1121 Q601.967 26.1121 605.815 31.0947 Q609.663 36.0368 609.663 45.1919 L609.663 72.576 L602.169 72.576 L602.169 45.4349 Q602.169 38.913 599.86 35.7533 Q597.551 32.5936 592.811 32.5936 Q587.019 32.5936 583.656 36.4419 Q580.294 40.2903 580.294 46.9338 L580.294 72.576 L572.8 72.576 L572.8 45.4349 Q572.8 38.8725 570.491 35.7533 Q568.182 32.5936 563.361 32.5936 Q557.65 32.5936 554.287 36.4824 Q550.925 40.3308 550.925 46.9338 L550.925 72.576 L543.431 72.576 L543.431 27.2059 L550.925 27.2059 L550.925 34.2544 Q553.477 30.082 557.042 28.0971 Q560.607 26.1121 565.508 26.1121 Q570.45 26.1121 573.894 28.6237 Q577.378 31.1352 579.038 35.9153 Z" fill="#000000" fill-rule="nonzero" fill-opacity="1" /><path clip-path="url(#clip690)" d="M631.741 65.7705 L631.741 89.8329 L624.246 89.8329 L624.246 27.2059 L631.741 27.2059 L631.741 34.0924 Q634.09 30.0415 637.655 28.0971 Q641.26 26.1121 646.243 26.1121 Q654.507 26.1121 659.651 32.6746 Q664.837 39.2371 664.837 49.9314 Q664.837 60.6258 659.651 67.1883 Q654.507 73.7508 646.243 73.7508 Q641.26 73.7508 637.655 71.8063 Q634.09 69.8214 631.741 65.7705 M657.099 49.9314 Q657.099 41.7081 653.697 37.0496 Q650.334 32.3505 644.42 32.3505 Q638.506 32.3505 635.103 37.0496 Q631.741 41.7081 631.741 49.9314 Q631.741 58.1548 635.103 62.8538 Q638.506 67.5124 644.42 67.5124 Q650.334 67.5124 653.697 62.8538 Q657.099 58.1548 657.099 49.9314 Z" fill="#000000" fill-rule="nonzero" fill-opacity="1" /><path clip-path="url(#clip690)" d="M677.192 9.54393 L684.645 9.54393 L684.645 72.576 L677.192 72.576 L677.192 9.54393 Z" fill="#000000" fill-rule="nonzero" fill-opacity="1" /><path clip-path="url(#clip690)" d="M739.049 48.0275 L739.049 51.6733 L704.778 51.6733 Q705.265 59.3701 709.396 63.421 Q713.569 67.4314 720.982 67.4314 Q725.276 67.4314 729.286 66.3781 Q733.337 65.3249 737.307 63.2184 L737.307 70.267 Q733.297 71.9684 729.084 72.8596 Q724.871 73.7508 720.536 73.7508 Q709.68 73.7508 703.32 67.4314 Q697.001 61.1119 697.001 50.3365 Q697.001 39.1965 702.996 32.6746 Q709.032 26.1121 719.24 26.1121 Q728.395 26.1121 733.702 32.0264 Q739.049 37.9003 739.049 48.0275 M731.595 45.84 Q731.514 39.7232 728.152 36.0774 Q724.83 32.4315 719.321 32.4315 Q713.083 32.4315 709.315 35.9558 Q705.589 39.4801 705.022 45.8805 L731.595 45.84 Z" fill="#000000" fill-rule="nonzero" fill-opacity="1" /><path clip-path="url(#clip690)" d="M781.138 34.0924 L781.138 9.54393 L788.592 9.54393 L788.592 72.576 L781.138 72.576 L781.138 65.7705 Q778.788 69.8214 775.183 71.8063 Q771.618 73.7508 766.595 73.7508 Q758.372 73.7508 753.187 67.1883 Q748.042 60.6258 748.042 49.9314 Q748.042 39.2371 753.187 32.6746 Q758.372 26.1121 766.595 26.1121 Q771.618 26.1121 775.183 28.0971 Q778.788 30.0415 781.138 34.0924 M755.739 49.9314 Q755.739 58.1548 759.101 62.8538 Q762.504 67.5124 768.418 67.5124 Q774.332 67.5124 777.735 62.8538 Q781.138 58.1548 781.138 49.9314 Q781.138 41.7081 777.735 37.0496 Q774.332 32.3505 768.418 32.3505 Q762.504 32.3505 759.101 37.0496 Q755.739 41.7081 755.739 49.9314 Z" fill="#000000" fill-rule="nonzero" fill-opacity="1" /><path clip-path="url(#clip690)" d="M830.64 12.096 L838.823 12.096 L838.823 65.6895 L868.273 65.6895 L868.273 72.576 L830.64 72.576 L830.64 12.096 Z" fill="#000000" fill-rule="nonzero" fill-opacity="1" /><path clip-path="url(#clip690)" d="M879.008 65.6895 L892.376 65.6895 L892.376 19.5497 L877.833 22.4663 L877.833 15.0127 L892.295 12.096 L900.478 12.096 L900.478 65.6895 L913.846 65.6895 L913.846 72.576 L879.008 72.576 L879.008 65.6895 Z" fill="#000000" fill-rule="nonzero" fill-opacity="1" /><path clip-path="url(#clip690)" d="M956.016 12.096 L994.256 12.096 L994.256 18.9825 L964.198 18.9825 L964.198 36.8875 L993 36.8875 L993 43.7741 L964.198 43.7741 L964.198 65.6895 L994.985 65.6895 L994.985 72.576 L956.016 72.576 L956.016 12.096 Z" fill="#000000" fill-rule="nonzero" fill-opacity="1" /><path clip-path="url(#clip690)" d="M1034.4 34.1734 Q1033.14 33.4443 1031.65 33.1202 Q1030.19 32.7556 1028.41 32.7556 Q1022.09 32.7556 1018.68 36.8875 Q1015.32 40.9789 1015.32 48.6757 L1015.32 72.576 L1007.83 72.576 L1007.83 27.2059 L1015.32 27.2059 L1015.32 34.2544 Q1017.67 30.1225 1021.44 28.1376 Q1025.2 26.1121 1030.59 26.1121 Q1031.36 26.1121 1032.29 26.2337 Q1033.23 26.3147 1034.36 26.5172 L1034.4 34.1734 Z" fill="#000000" fill-rule="nonzero" fill-opacity="1" /><path clip-path="url(#clip690)" d="M1067.05 34.1734 Q1065.8 33.4443 1064.3 33.1202 Q1062.84 32.7556 1061.06 32.7556 Q1054.74 32.7556 1051.33 36.8875 Q1047.97 40.9789 1047.97 48.6757 L1047.97 72.576 L1040.48 72.576 L1040.48 27.2059 L1047.97 27.2059 L1047.97 34.2544 Q1050.32 30.1225 1054.09 28.1376 Q1057.86 26.1121 1063.24 26.1121 Q1064.01 26.1121 1064.94 26.2337 Q1065.88 26.3147 1067.01 26.5172 L1067.05 34.1734 Z" fill="#000000" fill-rule="nonzero" fill-opacity="1" /><path clip-path="url(#clip690)" d="M1090.63 32.4315 Q1084.63 32.4315 1081.15 37.1306 Q1077.66 41.7891 1077.66 49.9314 Q1077.66 58.0738 1081.11 62.7728 Q1084.59 67.4314 1090.63 67.4314 Q1096.58 67.4314 1100.07 62.7323 Q1103.55 58.0333 1103.55 49.9314 Q1103.55 41.8701 1100.07 37.1711 Q1096.58 32.4315 1090.63 32.4315 M1090.63 26.1121 Q1100.35 26.1121 1105.9 32.4315 Q1111.45 38.7509 1111.45 49.9314 Q1111.45 61.0714 1105.9 67.4314 Q1100.35 73.7508 1090.63 73.7508 Q1080.86 73.7508 1075.31 67.4314 Q1069.81 61.0714 1069.81 49.9314 Q1069.81 38.7509 1075.31 32.4315 Q1080.86 26.1121 1090.63 26.1121 Z" fill="#000000" fill-rule="nonzero" fill-opacity="1" /><path clip-path="url(#clip690)" d="M1150.09 34.1734 Q1148.84 33.4443 1147.34 33.1202 Q1145.88 32.7556 1144.1 32.7556 Q1137.78 32.7556 1134.38 36.8875 Q1131.01 40.9789 1131.01 48.6757 L1131.01 72.576 L1123.52 72.576 L1123.52 27.2059 L1131.01 27.2059 L1131.01 34.2544 Q1133.36 30.1225 1137.13 28.1376 Q1140.9 26.1121 1146.29 26.1121 Q1147.06 26.1121 1147.99 26.2337 Q1148.92 26.3147 1150.05 26.5172 L1150.09 34.1734 Z" fill="#000000" fill-rule="nonzero" fill-opacity="1" /><path clip-path="url(#clip690)" d="M1178.94 27.2059 L1186.84 27.2059 L1201.01 65.2844 L1215.19 27.2059 L1223.09 27.2059 L1206.08 72.576 L1195.95 72.576 L1178.94 27.2059 Z" fill="#000000" fill-rule="nonzero" fill-opacity="1" /><path clip-path="url(#clip690)" d="M1262.3 28.5427 L1262.3 35.5912 Q1259.14 33.9709 1255.74 33.1607 Q1252.34 32.3505 1248.69 32.3505 Q1243.14 32.3505 1240.35 34.0519 Q1237.59 35.7533 1237.59 39.156 Q1237.59 41.7486 1239.58 43.2475 Q1241.56 44.7058 1247.56 46.0426 L1250.11 46.6097 Q1258.05 48.3111 1261.37 51.4303 Q1264.73 54.509 1264.73 60.0587 Q1264.73 66.3781 1259.71 70.0644 Q1254.73 73.7508 1245.98 73.7508 Q1242.33 73.7508 1238.36 73.0216 Q1234.43 72.3329 1230.06 70.9151 L1230.06 63.2184 Q1234.19 65.3654 1238.2 66.4591 Q1242.21 67.5124 1246.14 67.5124 Q1251.41 67.5124 1254.24 65.73 Q1257.08 63.9071 1257.08 60.6258 Q1257.08 57.5877 1255.01 55.9673 Q1252.99 54.3469 1246.06 52.8481 L1243.47 52.2405 Q1236.54 50.7821 1233.46 47.7845 Q1230.38 44.7463 1230.38 39.4801 Q1230.38 33.0797 1234.92 29.5959 Q1239.46 26.1121 1247.8 26.1121 Q1251.93 26.1121 1255.58 26.7198 Q1259.23 27.3274 1262.3 28.5427 Z" fill="#000000" fill-rule="nonzero" fill-opacity="1" /><path clip-path="url(#clip690)" d="M1303.3 12.096 L1315.49 12.096 L1330.93 53.2532 L1346.44 12.096 L1358.63 12.096 L1358.63 72.576 L1350.65 72.576 L1350.65 19.4686 L1335.06 60.9499 L1326.84 60.9499 L1311.24 19.4686 L1311.24 72.576 L1303.3 72.576 L1303.3 12.096 Z" fill="#000000" fill-rule="nonzero" fill-opacity="1" /><path clip-path="url(#clip690)" d="M1395.17 49.7694 Q1386.14 49.7694 1382.66 51.8354 Q1379.17 53.9013 1379.17 58.8839 Q1379.17 62.8538 1381.77 65.2034 Q1384.4 67.5124 1388.9 67.5124 Q1395.09 67.5124 1398.82 63.1374 Q1402.59 58.7219 1402.59 51.4303 L1402.59 49.7694 L1395.17 49.7694 M1410.04 46.6907 L1410.04 72.576 L1402.59 72.576 L1402.59 65.6895 Q1400.04 69.8214 1396.23 71.8063 Q1392.42 73.7508 1386.91 73.7508 Q1379.94 73.7508 1375.81 69.8619 Q1371.72 65.9325 1371.72 59.3701 Q1371.72 51.7138 1376.82 47.825 Q1381.97 43.9361 1392.14 43.9361 L1402.59 43.9361 L1402.59 43.2069 Q1402.59 38.0623 1399.18 35.2672 Q1395.82 32.4315 1389.71 32.4315 Q1385.82 32.4315 1382.13 33.3632 Q1378.44 34.295 1375.04 36.1584 L1375.04 29.2718 Q1379.13 27.692 1382.98 26.9223 Q1386.83 26.1121 1390.48 26.1121 Q1400.32 26.1121 1405.18 31.2163 Q1410.04 36.3204 1410.04 46.6907 Z" fill="#000000" fill-rule="nonzero" fill-opacity="1" /><path clip-path="url(#clip690)" d="M1463.11 27.2059 L1446.7 49.2833 L1463.96 72.576 L1455.17 72.576 L1441.96 54.752 L1428.76 72.576 L1419.97 72.576 L1437.59 48.8377 L1421.46 27.2059 L1430.25 27.2059 L1442.29 43.369 L1454.32 27.2059 L1463.11 27.2059 Z" fill="#000000" fill-rule="nonzero" fill-opacity="1" /><path clip-path="url(#clip690)" d="M1509.37 43.6931 L1509.37 65.8515 L1522.49 65.8515 Q1529.1 65.8515 1532.26 63.1374 Q1535.46 60.3828 1535.46 54.752 Q1535.46 49.0808 1532.26 46.4072 Q1529.1 43.6931 1522.49 43.6931 L1509.37 43.6931 M1509.37 18.8205 L1509.37 37.0496 L1521.48 37.0496 Q1527.48 37.0496 1530.39 34.8216 Q1533.35 32.5531 1533.35 27.935 Q1533.35 23.3575 1530.39 21.089 Q1527.48 18.8205 1521.48 18.8205 L1509.37 18.8205 M1501.19 12.096 L1522.09 12.096 Q1531.45 12.096 1536.51 15.9849 Q1541.57 19.8737 1541.57 27.0438 Q1541.57 32.5936 1538.98 35.8748 Q1536.39 39.156 1531.37 39.9662 Q1537.4 41.2625 1540.72 45.3944 Q1544.09 49.4858 1544.09 55.6432 Q1544.09 63.745 1538.58 68.1605 Q1533.07 72.576 1522.9 72.576 L1501.19 72.576 L1501.19 12.096 Z" fill="#000000" fill-rule="nonzero" fill-opacity="1" /><path clip-path="url(#clip690)" d="M1575.36 32.4315 Q1569.36 32.4315 1565.88 37.1306 Q1562.4 41.7891 1562.4 49.9314 Q1562.4 58.0738 1565.84 62.7728 Q1569.32 67.4314 1575.36 67.4314 Q1581.31 67.4314 1584.8 62.7323 Q1588.28 58.0333 1588.28 49.9314 Q1588.28 41.8701 1584.8 37.1711 Q1581.31 32.4315 1575.36 32.4315 M1575.36 26.1121 Q1585.08 26.1121 1590.63 32.4315 Q1596.18 38.7509 1596.18 49.9314 Q1596.18 61.0714 1590.63 67.4314 Q1585.08 73.7508 1575.36 73.7508 Q1565.6 73.7508 1560.05 67.4314 Q1554.54 61.0714 1554.54 49.9314 Q1554.54 38.7509 1560.05 32.4315 Q1565.6 26.1121 1575.36 26.1121 Z" fill="#000000" fill-rule="nonzero" fill-opacity="1" /><path clip-path="url(#clip690)" d="M1646.25 45.1919 L1646.25 72.576 L1638.8 72.576 L1638.8 45.4349 Q1638.8 38.994 1636.28 35.7938 Q1633.77 32.5936 1628.75 32.5936 Q1622.71 32.5936 1619.23 36.4419 Q1615.75 40.2903 1615.75 46.9338 L1615.75 72.576 L1608.25 72.576 L1608.25 27.2059 L1615.75 27.2059 L1615.75 34.2544 Q1618.42 30.163 1622.02 28.1376 Q1625.67 26.1121 1630.41 26.1121 Q1638.23 26.1121 1642.24 30.9732 Q1646.25 35.7938 1646.25 45.1919 Z" fill="#000000" fill-rule="nonzero" fill-opacity="1" /><path clip-path="url(#clip690)" d="M1690.97 34.0924 L1690.97 9.54393 L1698.42 9.54393 L1698.42 72.576 L1690.97 72.576 L1690.97 65.7705 Q1688.62 69.8214 1685.02 71.8063 Q1681.45 73.7508 1676.43 73.7508 Q1668.21 73.7508 1663.02 67.1883 Q1657.88 60.6258 1657.88 49.9314 Q1657.88 39.2371 1663.02 32.6746 Q1668.21 26.1121 1676.43 26.1121 Q1681.45 26.1121 1685.02 28.0971 Q1688.62 30.0415 1690.97 34.0924 M1665.57 49.9314 Q1665.57 58.1548 1668.93 62.8538 Q1672.34 67.5124 1678.25 67.5124 Q1684.17 67.5124 1687.57 62.8538 Q1690.97 58.1548 1690.97 49.9314 Q1690.97 41.7081 1687.57 37.0496 Q1684.17 32.3505 1678.25 32.3505 Q1672.34 32.3505 1668.93 37.0496 Q1665.57 41.7081 1665.57 49.9314 Z" fill="#000000" fill-rule="nonzero" fill-opacity="1" /><path clip-path="url(#clip690)" d="M1748.66 18.8205 L1748.66 65.8515 L1758.54 65.8515 Q1771.06 65.8515 1776.85 60.1802 Q1782.68 54.509 1782.68 42.2752 Q1782.68 30.1225 1776.85 24.4918 Q1771.06 18.8205 1758.54 18.8205 L1748.66 18.8205 M1740.47 12.096 L1757.28 12.096 Q1774.87 12.096 1783.09 19.4281 Q1791.31 26.7198 1791.31 42.2752 Q1791.31 57.9117 1783.05 65.2439 Q1774.78 72.576 1757.28 72.576 L1740.47 72.576 L1740.47 12.096 Z" fill="#000000" fill-rule="nonzero" fill-opacity="1" /><path clip-path="url(#clip690)" d="M1804.03 27.2059 L1811.49 27.2059 L1811.49 72.576 L1804.03 72.576 L1804.03 27.2059 M1804.03 9.54393 L1811.49 9.54393 L1811.49 18.9825 L1804.03 18.9825 L1804.03 9.54393 Z" fill="#000000" fill-rule="nonzero" fill-opacity="1" /><path clip-path="url(#clip690)" d="M1862.41 35.9153 Q1865.2 30.8922 1869.09 28.5022 Q1872.98 26.1121 1878.24 26.1121 Q1885.33 26.1121 1889.18 31.0947 Q1893.03 36.0368 1893.03 45.1919 L1893.03 72.576 L1885.54 72.576 L1885.54 45.4349 Q1885.54 38.913 1883.23 35.7533 Q1880.92 32.5936 1876.18 32.5936 Q1870.39 32.5936 1867.02 36.4419 Q1863.66 40.2903 1863.66 46.9338 L1863.66 72.576 L1856.17 72.576 L1856.17 45.4349 Q1856.17 38.8725 1853.86 35.7533 Q1851.55 32.5936 1846.73 32.5936 Q1841.02 32.5936 1837.65 36.4824 Q1834.29 40.3308 1834.29 46.9338 L1834.29 72.576 L1826.8 72.576 L1826.8 27.2059 L1834.29 27.2059 L1834.29 34.2544 Q1836.84 30.082 1840.41 28.0971 Q1843.97 26.1121 1848.88 26.1121 Q1853.82 26.1121 1857.26 28.6237 Q1860.74 31.1352 1862.41 35.9153 Z" fill="#000000" fill-rule="nonzero" fill-opacity="1" /><path clip-path="url(#clip690)" d="M1946.7 48.0275 L1946.7 51.6733 L1912.43 51.6733 Q1912.92 59.3701 1917.05 63.421 Q1921.22 67.4314 1928.64 67.4314 Q1932.93 67.4314 1936.94 66.3781 Q1940.99 65.3249 1944.96 63.2184 L1944.96 70.267 Q1940.95 71.9684 1936.74 72.8596 Q1932.53 73.7508 1928.19 73.7508 Q1917.34 73.7508 1910.98 67.4314 Q1904.66 61.1119 1904.66 50.3365 Q1904.66 39.1965 1910.65 32.6746 Q1916.69 26.1121 1926.9 26.1121 Q1936.05 26.1121 1941.36 32.0264 Q1946.7 37.9003 1946.7 48.0275 M1939.25 45.84 Q1939.17 39.7232 1935.81 36.0774 Q1932.49 32.4315 1926.98 32.4315 Q1920.74 32.4315 1916.97 35.9558 Q1913.24 39.4801 1912.68 45.8805 L1939.25 45.84 Z" fill="#000000" fill-rule="nonzero" fill-opacity="1" /><path clip-path="url(#clip690)" d="M1996.65 45.1919 L1996.65 72.576 L1989.2 72.576 L1989.2 45.4349 Q1989.2 38.994 1986.69 35.7938 Q1984.18 32.5936 1979.15 32.5936 Q1973.12 32.5936 1969.63 36.4419 Q1966.15 40.2903 1966.15 46.9338 L1966.15 72.576 L1958.65 72.576 L1958.65 27.2059 L1966.15 27.2059 L1966.15 34.2544 Q1968.82 30.163 1972.43 28.1376 Q1976.07 26.1121 1980.81 26.1121 Q1988.63 26.1121 1992.64 30.9732 Q1996.65 35.7938 1996.65 45.1919 Z" fill="#000000" fill-rule="nonzero" fill-opacity="1" /><path clip-path="url(#clip690)" d="M2040.44 28.5427 L2040.44 35.5912 Q2037.28 33.9709 2033.88 33.1607 Q2030.48 32.3505 2026.83 32.3505 Q2021.28 32.3505 2018.49 34.0519 Q2015.73 35.7533 2015.73 39.156 Q2015.73 41.7486 2017.72 43.2475 Q2019.7 44.7058 2025.7 46.0426 L2028.25 46.6097 Q2036.19 48.3111 2039.51 51.4303 Q2042.87 54.509 2042.87 60.0587 Q2042.87 66.3781 2037.85 70.0644 Q2032.87 73.7508 2024.12 73.7508 Q2020.47 73.7508 2016.5 73.0216 Q2012.57 72.3329 2008.2 70.9151 L2008.2 63.2184 Q2012.33 65.3654 2016.34 66.4591 Q2020.35 67.5124 2024.28 67.5124 Q2029.55 67.5124 2032.38 65.73 Q2035.22 63.9071 2035.22 60.6258 Q2035.22 57.5877 2033.15 55.9673 Q2031.13 54.3469 2024.2 52.8481 L2021.61 52.2405 Q2014.68 50.7821 2011.6 47.7845 Q2008.52 44.7463 2008.52 39.4801 Q2008.52 33.0797 2013.06 29.5959 Q2017.6 26.1121 2025.94 26.1121 Q2030.07 26.1121 2033.72 26.7198 Q2037.36 27.3274 2040.44 28.5427 Z" fill="#000000" fill-rule="nonzero" fill-opacity="1" /><path clip-path="url(#clip690)" d="M2054.74 27.2059 L2062.2 27.2059 L2062.2 72.576 L2054.74 72.576 L2054.74 27.2059 M2054.74 9.54393 L2062.2 9.54393 L2062.2 18.9825 L2054.74 18.9825 L2054.74 9.54393 Z" fill="#000000" fill-rule="nonzero" fill-opacity="1" /><path clip-path="url(#clip690)" d="M2095.37 32.4315 Q2089.38 32.4315 2085.89 37.1306 Q2082.41 41.7891 2082.41 49.9314 Q2082.41 58.0738 2085.85 62.7728 Q2089.34 67.4314 2095.37 67.4314 Q2101.33 67.4314 2104.81 62.7323 Q2108.3 58.0333 2108.3 49.9314 Q2108.3 41.8701 2104.81 37.1711 Q2101.33 32.4315 2095.37 32.4315 M2095.37 26.1121 Q2105.1 26.1121 2110.64 32.4315 Q2116.19 38.7509 2116.19 49.9314 Q2116.19 61.0714 2110.64 67.4314 Q2105.1 73.7508 2095.37 73.7508 Q2085.61 73.7508 2080.06 67.4314 Q2074.55 61.0714 2074.55 49.9314 Q2074.55 38.7509 2080.06 32.4315 Q2085.61 26.1121 2095.37 26.1121 Z" fill="#000000" fill-rule="nonzero" fill-opacity="1" /><path clip-path="url(#clip690)" d="M2166.26 45.1919 L2166.26 72.576 L2158.81 72.576 L2158.81 45.4349 Q2158.81 38.994 2156.3 35.7938 Q2153.79 32.5936 2148.76 32.5936 Q2142.73 32.5936 2139.24 36.4419 Q2135.76 40.2903 2135.76 46.9338 L2135.76 72.576 L2128.27 72.576 L2128.27 27.2059 L2135.76 27.2059 L2135.76 34.2544 Q2138.43 30.163 2142.04 28.1376 Q2145.69 26.1121 2150.42 26.1121 Q2158.24 26.1121 2162.25 30.9732 Q2166.26 35.7938 2166.26 45.1919 Z" fill="#000000" fill-rule="nonzero" fill-opacity="1" /><polyline clip-path="url(#clip692)" style="stroke:#009af9; stroke-linecap:round; stroke-linejoin:round; stroke-width:4; stroke-opacity:1; fill:none" points="310.845,345.591 531.116,318.903 751.387,311.531 971.658,305.561 1191.93,303.564 1412.2,295.79 1632.47,303.022 1852.74,282.039 2073.01,270.277 2293.28,282.511 "/>
<path clip-path="url(#clip692)" d="M310.845 361.591 L299.533 356.903 L294.845 345.591 L299.533 334.279 L310.845 329.591 L322.157 334.279 L326.845 345.591 L322.157 356.903 Z" fill="#009af9" fill-rule="evenodd" fill-opacity="1" stroke="#000000" stroke-opacity="1" stroke-width="3.2"/>
<path clip-path="url(#clip692)" d="M531.116 334.903 L519.804 330.215 L515.116 318.903 L519.804 307.591 L531.116 302.903 L542.428 307.591 L547.116 318.903 L542.428 330.215 Z" fill="#009af9" fill-rule="evenodd" fill-opacity="1" stroke="#000000" stroke-opacity="1" stroke-width="3.2"/>
<path clip-path="url(#clip692)" d="M751.387 327.531 L740.075 322.843 L735.387 311.531 L740.075 300.219 L751.387 295.531 L762.699 300.219 L767.387 311.531 L762.699 322.843 Z" fill="#009af9" fill-rule="evenodd" fill-opacity="1" stroke="#000000" stroke-opacity="1" stroke-width="3.2"/>
<path clip-path="url(#clip692)" d="M971.658 321.561 L960.346 316.873 L955.658 305.561 L960.346 294.249 L971.658 289.561 L982.97 294.249 L987.658 305.561 L982.97 316.873 Z" fill="#009af9" fill-rule="evenodd" fill-opacity="1" stroke="#000000" stroke-opacity="1" stroke-width="3.2"/>
<path clip-path="url(#clip692)" d="M1191.93 319.564 L1180.62 314.876 L1175.93 303.564 L1180.62 292.252 L1191.93 287.564 L1203.24 292.252 L1207.93 303.564 L1203.24 314.876 Z" fill="#009af9" fill-rule="evenodd" fill-opacity="1" stroke="#000000" stroke-opacity="1" stroke-width="3.2"/>
<path clip-path="url(#clip692)" d="M1412.2 311.79 L1400.89 307.102 L1396.2 295.79 L1400.89 284.478 L1412.2 279.79 L1423.51 284.478 L1428.2 295.79 L1423.51 307.102 Z" fill="#009af9" fill-rule="evenodd" fill-opacity="1" stroke="#000000" stroke-opacity="1" stroke-width="3.2"/>
<path clip-path="url(#clip692)" d="M1632.47 319.022 L1621.16 314.334 L1616.47 303.022 L1621.16 291.71 L1632.47 287.022 L1643.78 291.71 L1648.47 303.022 L1643.78 314.334 Z" fill="#009af9" fill-rule="evenodd" fill-opacity="1" stroke="#000000" stroke-opacity="1" stroke-width="3.2"/>
<path clip-path="url(#clip692)" d="M1852.74 298.039 L1841.43 293.351 L1836.74 282.039 L1841.43 270.727 L1852.74 266.039 L1864.05 270.727 L1868.74 282.039 L1864.05 293.351 Z" fill="#009af9" fill-rule="evenodd" fill-opacity="1" stroke="#000000" stroke-opacity="1" stroke-width="3.2"/>
<path clip-path="url(#clip692)" d="M2073.01 286.277 L2061.7 281.589 L2057.01 270.277 L2061.7 258.965 L2073.01 254.277 L2084.32 258.965 L2089.01 270.277 L2084.32 281.589 Z" fill="#009af9" fill-rule="evenodd" fill-opacity="1" stroke="#000000" stroke-opacity="1" stroke-width="3.2"/>
<path clip-path="url(#clip692)" d="M2293.28 298.511 L2281.97 293.823 L2277.28 282.511 L2281.97 271.199 L2293.28 266.511 L2304.59 271.199 L2309.28 282.511 L2304.59 293.823 Z" fill="#009af9" fill-rule="evenodd" fill-opacity="1" stroke="#000000" stroke-opacity="1" stroke-width="3.2"/>
<polyline clip-path="url(#clip692)" style="stroke:#e26f46; stroke-linecap:round; stroke-linejoin:round; stroke-width:4; stroke-opacity:1; fill:none" points="310.845,376.717 531.116,388.278 751.387,440.421 971.658,521.839 1191.93,583.922 1412.2,681.852 1632.47,749.283 1852.74,873.625 2073.01,959.295 2293.28,1064.44 "/>
<path clip-path="url(#clip692)" d="M310.845 392.717 L299.533 388.029 L294.845 376.717 L299.533 365.405 L310.845 360.717 L322.157 365.405 L326.845 376.717 L322.157 388.029 Z" fill="#e26f46" fill-rule="evenodd" fill-opacity="1" stroke="#000000" stroke-opacity="1" stroke-width="3.2"/>
<path clip-path="url(#clip692)" d="M531.116 404.278 L519.804 399.59 L515.116 388.278 L519.804 376.966 L531.116 372.278 L542.428 376.966 L547.116 388.278 L542.428 399.59 Z" fill="#e26f46" fill-rule="evenodd" fill-opacity="1" stroke="#000000" stroke-opacity="1" stroke-width="3.2"/>
<path clip-path="url(#clip692)" d="M751.387 456.421 L740.075 451.733 L735.387 440.421 L740.075 429.109 L751.387 424.421 L762.699 429.109 L767.387 440.421 L762.699 451.733 Z" fill="#e26f46" fill-rule="evenodd" fill-opacity="1" stroke="#000000" stroke-opacity="1" stroke-width="3.2"/>
<path clip-path="url(#clip692)" d="M971.658 537.839 L960.346 533.151 L955.658 521.839 L960.346 510.527 L971.658 505.839 L982.97 510.527 L987.658 521.839 L982.97 533.151 Z" fill="#e26f46" fill-rule="evenodd" fill-opacity="1" stroke="#000000" stroke-opacity="1" stroke-width="3.2"/>
<path clip-path="url(#clip692)" d="M1191.93 599.922 L1180.62 595.234 L1175.93 583.922 L1180.62 572.61 L1191.93 567.922 L1203.24 572.61 L1207.93 583.922 L1203.24 595.234 Z" fill="#e26f46" fill-rule="evenodd" fill-opacity="1" stroke="#000000" stroke-opacity="1" stroke-width="3.2"/>
<path clip-path="url(#clip692)" d="M1412.2 697.852 L1400.89 693.164 L1396.2 681.852 L1400.89 670.54 L1412.2 665.852 L1423.51 670.54 L1428.2 681.852 L1423.51 693.164 Z" fill="#e26f46" fill-rule="evenodd" fill-opacity="1" stroke="#000000" stroke-opacity="1" stroke-width="3.2"/>
<path clip-path="url(#clip692)" d="M1632.47 765.283 L1621.16 760.595 L1616.47 749.283 L1621.16 737.971 L1632.47 733.283 L1643.78 737.971 L1648.47 749.283 L1643.78 760.595 Z" fill="#e26f46" fill-rule="evenodd" fill-opacity="1" stroke="#000000" stroke-opacity="1" stroke-width="3.2"/>
<path clip-path="url(#clip692)" d="M1852.74 889.625 L1841.43 884.937 L1836.74 873.625 L1841.43 862.313 L1852.74 857.625 L1864.05 862.313 L1868.74 873.625 L1864.05 884.937 Z" fill="#e26f46" fill-rule="evenodd" fill-opacity="1" stroke="#000000" stroke-opacity="1" stroke-width="3.2"/>
<path clip-path="url(#clip692)" d="M2073.01 975.295 L2061.7 970.607 L2057.01 959.295 L2061.7 947.983 L2073.01 943.295 L2084.32 947.983 L2089.01 959.295 L2084.32 970.607 Z" fill="#e26f46" fill-rule="evenodd" fill-opacity="1" stroke="#000000" stroke-opacity="1" stroke-width="3.2"/>
<path clip-path="url(#clip692)" d="M2293.28 1080.44 L2281.97 1075.75 L2277.28 1064.44 L2281.97 1053.13 L2293.28 1048.44 L2304.59 1053.13 L2309.28 1064.44 L2304.59 1075.75 Z" fill="#e26f46" fill-rule="evenodd" fill-opacity="1" stroke="#000000" stroke-opacity="1" stroke-width="3.2"/>
<polyline clip-path="url(#clip692)" style="stroke:#3da44d; stroke-linecap:round; stroke-linejoin:round; stroke-width:4; stroke-opacity:1; fill:none" points="310.845,371.27 531.116,384.638 751.387,440.196 971.658,458.293 1191.93,550.883 1412.2,726.365 1632.47,890.138 1852.74,1156.47 2073.01,1340.6 2293.28,1386.4 "/>
<path clip-path="url(#clip692)" d="M310.845 387.27 L299.533 382.582 L294.845 371.27 L299.533 359.958 L310.845 355.27 L322.157 359.958 L326.845 371.27 L322.157 382.582 Z" fill="#3da44d" fill-rule="evenodd" fill-opacity="1" stroke="#000000" stroke-opacity="1" stroke-width="3.2"/>
<path clip-path="url(#clip692)" d="M531.116 400.638 L519.804 395.95 L515.116 384.638 L519.804 373.326 L531.116 368.638 L542.428 373.326 L547.116 384.638 L542.428 395.95 Z" fill="#3da44d" fill-rule="evenodd" fill-opacity="1" stroke="#000000" stroke-opacity="1" stroke-width="3.2"/>
<path clip-path="url(#clip692)" d="M751.387 456.196 L740.075 451.508 L735.387 440.196 L740.075 428.884 L751.387 424.196 L762.699 428.884 L767.387 440.196 L762.699 451.508 Z" fill="#3da44d" fill-rule="evenodd" fill-opacity="1" stroke="#000000" stroke-opacity="1" stroke-width="3.2"/>
<path clip-path="url(#clip692)" d="M971.658 474.293 L960.346 469.605 L955.658 458.293 L960.346 446.981 L971.658 442.293 L982.97 446.981 L987.658 458.293 L982.97 469.605 Z" fill="#3da44d" fill-rule="evenodd" fill-opacity="1" stroke="#000000" stroke-opacity="1" stroke-width="3.2"/>
<path clip-path="url(#clip692)" d="M1191.93 566.883 L1180.62 562.195 L1175.93 550.883 L1180.62 539.571 L1191.93 534.883 L1203.24 539.571 L1207.93 550.883 L1203.24 562.195 Z" fill="#3da44d" fill-rule="evenodd" fill-opacity="1" stroke="#000000" stroke-opacity="1" stroke-width="3.2"/>
<path clip-path="url(#clip692)" d="M1412.2 742.365 L1400.89 737.677 L1396.2 726.365 L1400.89 715.053 L1412.2 710.365 L1423.51 715.053 L1428.2 726.365 L1423.51 737.677 Z" fill="#3da44d" fill-rule="evenodd" fill-opacity="1" stroke="#000000" stroke-opacity="1" stroke-width="3.2"/>
<path clip-path="url(#clip692)" d="M1632.47 906.138 L1621.16 901.45 L1616.47 890.138 L1621.16 878.826 L1632.47 874.138 L1643.78 878.826 L1648.47 890.138 L1643.78 901.45 Z" fill="#3da44d" fill-rule="evenodd" fill-opacity="1" stroke="#000000" stroke-opacity="1" stroke-width="3.2"/>
<path clip-path="url(#clip692)" d="M1852.74 1172.47 L1841.43 1167.78 L1836.74 1156.47 L1841.43 1145.16 L1852.74 1140.47 L1864.05 1145.16 L1868.74 1156.47 L1864.05 1167.78 Z" fill="#3da44d" fill-rule="evenodd" fill-opacity="1" stroke="#000000" stroke-opacity="1" stroke-width="3.2"/>
<path clip-path="url(#clip692)" d="M2073.01 1356.6 L2061.7 1351.91 L2057.01 1340.6 L2061.7 1329.29 L2073.01 1324.6 L2084.32 1329.29 L2089.01 1340.6 L2084.32 1351.91 Z" fill="#3da44d" fill-rule="evenodd" fill-opacity="1" stroke="#000000" stroke-opacity="1" stroke-width="3.2"/>
<path clip-path="url(#clip692)" d="M2293.28 1402.4 L2281.97 1397.71 L2277.28 1386.4 L2281.97 1375.08 L2293.28 1370.4 L2304.59 1375.08 L2309.28 1386.4 L2304.59 1397.71 Z" fill="#3da44d" fill-rule="evenodd" fill-opacity="1" stroke="#000000" stroke-opacity="1" stroke-width="3.2"/>
<polyline clip-path="url(#clip692)" style="stroke:#c271d2; stroke-linecap:round; stroke-linejoin:round; stroke-width:4; stroke-opacity:1; fill:none" points="310.845,346.732 531.116,377.523 751.387,534.33 971.658,728.798 1191.93,814.773 1412.2,892.217 1632.47,872.677 1852.74,934.85 2073.01,924.482 2293.28,902.764 "/>
<path clip-path="url(#clip692)" d="M310.845 362.732 L299.533 358.044 L294.845 346.732 L299.533 335.42 L310.845 330.732 L322.157 335.42 L326.845 346.732 L322.157 358.044 Z" fill="#c271d2" fill-rule="evenodd" fill-opacity="1" stroke="#000000" stroke-opacity="1" stroke-width="3.2"/>
<path clip-path="url(#clip692)" d="M531.116 393.523 L519.804 388.835 L515.116 377.523 L519.804 366.211 L531.116 361.523 L542.428 366.211 L547.116 377.523 L542.428 388.835 Z" fill="#c271d2" fill-rule="evenodd" fill-opacity="1" stroke="#000000" stroke-opacity="1" stroke-width="3.2"/>
<path clip-path="url(#clip692)" d="M751.387 550.33 L740.075 545.642 L735.387 534.33 L740.075 523.018 L751.387 518.33 L762.699 523.018 L767.387 534.33 L762.699 545.642 Z" fill="#c271d2" fill-rule="evenodd" fill-opacity="1" stroke="#000000" stroke-opacity="1" stroke-width="3.2"/>
<path clip-path="url(#clip692)" d="M971.658 744.798 L960.346 740.11 L955.658 728.798 L960.346 717.486 L971.658 712.798 L982.97 717.486 L987.658 728.798 L982.97 740.11 Z" fill="#c271d2" fill-rule="evenodd" fill-opacity="1" stroke="#000000" stroke-opacity="1" stroke-width="3.2"/>
<path clip-path="url(#clip692)" d="M1191.93 830.773 L1180.62 826.085 L1175.93 814.773 L1180.62 803.461 L1191.93 798.773 L1203.24 803.461 L1207.93 814.773 L1203.24 826.085 Z" fill="#c271d2" fill-rule="evenodd" fill-opacity="1" stroke="#000000" stroke-opacity="1" stroke-width="3.2"/>
<path clip-path="url(#clip692)" d="M1412.2 908.217 L1400.89 903.529 L1396.2 892.217 L1400.89 880.905 L1412.2 876.217 L1423.51 880.905 L1428.2 892.217 L1423.51 903.529 Z" fill="#c271d2" fill-rule="evenodd" fill-opacity="1" stroke="#000000" stroke-opacity="1" stroke-width="3.2"/>
<path clip-path="url(#clip692)" d="M1632.47 888.677 L1621.16 883.989 L1616.47 872.677 L1621.16 861.365 L1632.47 856.677 L1643.78 861.365 L1648.47 872.677 L1643.78 883.989 Z" fill="#c271d2" fill-rule="evenodd" fill-opacity="1" stroke="#000000" stroke-opacity="1" stroke-width="3.2"/>
<path clip-path="url(#clip692)" d="M1852.74 950.85 L1841.43 946.162 L1836.74 934.85 L1841.43 923.538 L1852.74 918.85 L1864.05 923.538 L1868.74 934.85 L1864.05 946.162 Z" fill="#c271d2" fill-rule="evenodd" fill-opacity="1" stroke="#000000" stroke-opacity="1" stroke-width="3.2"/>
<path clip-path="url(#clip692)" d="M2073.01 940.482 L2061.7 935.794 L2057.01 924.482 L2061.7 913.17 L2073.01 908.482 L2084.32 913.17 L2089.01 924.482 L2084.32 935.794 Z" fill="#c271d2" fill-rule="evenodd" fill-opacity="1" stroke="#000000" stroke-opacity="1" stroke-width="3.2"/>
<path clip-path="url(#clip692)" d="M2293.28 918.764 L2281.97 914.076 L2277.28 902.764 L2281.97 891.452 L2293.28 886.764 L2304.59 891.452 L2309.28 902.764 L2304.59 914.076 Z" fill="#c271d2" fill-rule="evenodd" fill-opacity="1" stroke="#000000" stroke-opacity="1" stroke-width="3.2"/>
<polyline clip-path="url(#clip692)" style="stroke:#ac8d18; stroke-linecap:round; stroke-linejoin:round; stroke-width:4; stroke-opacity:1; fill:none" points="310.845,341.799 531.116,283.626 751.387,234.847 971.658,216.104 1191.93,208.137 1412.2,177.401 1632.47,179.044 1852.74,208.136 2073.01,160.256 2293.28,198.251 "/>
<path clip-path="url(#clip692)" d="M310.845 357.799 L299.533 353.111 L294.845 341.799 L299.533 330.487 L310.845 325.799 L322.157 330.487 L326.845 341.799 L322.157 353.111 Z" fill="#ac8d18" fill-rule="evenodd" fill-opacity="1" stroke="#000000" stroke-opacity="1" stroke-width="3.2"/>
<path clip-path="url(#clip692)" d="M531.116 299.626 L519.804 294.938 L515.116 283.626 L519.804 272.314 L531.116 267.626 L542.428 272.314 L547.116 283.626 L542.428 294.938 Z" fill="#ac8d18" fill-rule="evenodd" fill-opacity="1" stroke="#000000" stroke-opacity="1" stroke-width="3.2"/>
<path clip-path="url(#clip692)" d="M751.387 250.847 L740.075 246.159 L735.387 234.847 L740.075 223.535 L751.387 218.847 L762.699 223.535 L767.387 234.847 L762.699 246.159 Z" fill="#ac8d18" fill-rule="evenodd" fill-opacity="1" stroke="#000000" stroke-opacity="1" stroke-width="3.2"/>
<path clip-path="url(#clip692)" d="M971.658 232.104 L960.346 227.416 L955.658 216.104 L960.346 204.792 L971.658 200.104 L982.97 204.792 L987.658 216.104 L982.97 227.416 Z" fill="#ac8d18" fill-rule="evenodd" fill-opacity="1" stroke="#000000" stroke-opacity="1" stroke-width="3.2"/>
<path clip-path="url(#clip692)" d="M1191.93 224.137 L1180.62 219.449 L1175.93 208.137 L1180.62 196.825 L1191.93 192.137 L1203.24 196.825 L1207.93 208.137 L1203.24 219.449 Z" fill="#ac8d18" fill-rule="evenodd" fill-opacity="1" stroke="#000000" stroke-opacity="1" stroke-width="3.2"/>
<path clip-path="url(#clip692)" d="M1412.2 193.401 L1400.89 188.713 L1396.2 177.401 L1400.89 166.089 L1412.2 161.401 L1423.51 166.089 L1428.2 177.401 L1423.51 188.713 Z" fill="#ac8d18" fill-rule="evenodd" fill-opacity="1" stroke="#000000" stroke-opacity="1" stroke-width="3.2"/>
<path clip-path="url(#clip692)" d="M1632.47 195.044 L1621.16 190.356 L1616.47 179.044 L1621.16 167.732 L1632.47 163.044 L1643.78 167.732 L1648.47 179.044 L1643.78 190.356 Z" fill="#ac8d18" fill-rule="evenodd" fill-opacity="1" stroke="#000000" stroke-opacity="1" stroke-width="3.2"/>
<path clip-path="url(#clip692)" d="M1852.74 224.136 L1841.43 219.448 L1836.74 208.136 L1841.43 196.824 L1852.74 192.136 L1864.05 196.824 L1868.74 208.136 L1864.05 219.448 Z" fill="#ac8d18" fill-rule="evenodd" fill-opacity="1" stroke="#000000" stroke-opacity="1" stroke-width="3.2"/>
<path clip-path="url(#clip692)" d="M2073.01 176.256 L2061.7 171.568 L2057.01 160.256 L2061.7 148.944 L2073.01 144.256 L2084.32 148.944 L2089.01 160.256 L2084.32 171.568 Z" fill="#ac8d18" fill-rule="evenodd" fill-opacity="1" stroke="#000000" stroke-opacity="1" stroke-width="3.2"/>
<path clip-path="url(#clip692)" d="M2293.28 214.251 L2281.97 209.563 L2277.28 198.251 L2281.97 186.939 L2293.28 182.251 L2304.59 186.939 L2309.28 198.251 L2304.59 209.563 Z" fill="#ac8d18" fill-rule="evenodd" fill-opacity="1" stroke="#000000" stroke-opacity="1" stroke-width="3.2"/>
<path clip-path="url(#clip690)" d="M321.418 477.836 L809.703 477.836 L809.703 166.796 L321.418 166.796  Z" fill="#ffffff" fill-rule="evenodd" fill-opacity="1"/>
<polyline clip-path="url(#clip690)" style="stroke:#000000; stroke-linecap:round; stroke-linejoin:round; stroke-width:4; stroke-opacity:1; fill:none" points="321.418,477.836 809.703,477.836 809.703,166.796 321.418,166.796 321.418,477.836 "/>
<polyline clip-path="url(#clip690)" style="stroke:#009af9; stroke-linecap:round; stroke-linejoin:round; stroke-width:4; stroke-opacity:1; fill:none" points="344.767,218.636 484.859,218.636 "/>
<path clip-path="url(#clip690)" d="M414.813 240.255 L399.528 233.92 L393.194 218.636 L399.528 203.351 L414.813 197.017 L430.098 203.351 L436.432 218.636 L430.098 233.92 Z" fill="#009af9" fill-rule="evenodd" fill-opacity="1" stroke="#000000" stroke-opacity="1" stroke-width="4.55111"/>
<path clip-path="url(#clip690)" d="M508.208 201.356 L528.069 201.356 L528.069 205.291 L512.884 205.291 L512.884 215.476 L526.587 215.476 L526.587 219.411 L512.884 219.411 L512.884 235.916 L508.208 235.916 L508.208 201.356 Z" fill="#000000" fill-rule="nonzero" fill-opacity="1" /><path clip-path="url(#clip690)" d="M532.259 225.684 L532.259 209.99 L536.518 209.99 L536.518 225.522 Q536.518 229.203 537.953 231.055 Q539.388 232.883 542.259 232.883 Q545.708 232.883 547.698 230.684 Q549.712 228.485 549.712 224.689 L549.712 209.99 L553.972 209.99 L553.972 235.916 L549.712 235.916 L549.712 231.934 Q548.161 234.295 546.101 235.453 Q544.064 236.587 541.356 236.587 Q536.888 236.587 534.574 233.809 Q532.259 231.031 532.259 225.684 M542.976 209.365 L542.976 209.365 Z" fill="#000000" fill-rule="nonzero" fill-opacity="1" /><path clip-path="url(#clip690)" d="M579.272 210.754 L579.272 214.782 Q577.467 213.856 575.522 213.393 Q573.578 212.93 571.495 212.93 Q568.323 212.93 566.726 213.902 Q565.152 214.874 565.152 216.819 Q565.152 218.3 566.286 219.157 Q567.421 219.99 570.847 220.754 L572.305 221.078 Q576.842 222.05 578.74 223.832 Q580.661 225.592 580.661 228.763 Q580.661 232.374 577.791 234.481 Q574.944 236.587 569.944 236.587 Q567.86 236.587 565.592 236.17 Q563.347 235.777 560.847 234.967 L560.847 230.569 Q563.208 231.795 565.499 232.42 Q567.791 233.022 570.036 233.022 Q573.046 233.022 574.666 232.004 Q576.286 230.962 576.286 229.087 Q576.286 227.351 575.106 226.425 Q573.948 225.499 569.99 224.643 L568.509 224.295 Q564.55 223.462 562.791 221.749 Q561.032 220.013 561.032 217.004 Q561.032 213.346 563.624 211.356 Q566.217 209.365 570.985 209.365 Q573.347 209.365 575.43 209.712 Q577.513 210.059 579.272 210.754 Z" fill="#000000" fill-rule="nonzero" fill-opacity="1" /><path clip-path="url(#clip690)" d="M609.619 221.888 L609.619 223.971 L590.036 223.971 Q590.314 228.369 592.675 230.684 Q595.059 232.976 599.295 232.976 Q601.749 232.976 604.041 232.374 Q606.356 231.772 608.624 230.569 L608.624 234.596 Q606.332 235.568 603.925 236.078 Q601.518 236.587 599.041 236.587 Q592.837 236.587 589.203 232.976 Q585.592 229.365 585.592 223.207 Q585.592 216.842 589.018 213.115 Q592.467 209.365 598.3 209.365 Q603.532 209.365 606.564 212.745 Q609.619 216.101 609.619 221.888 M605.36 220.638 Q605.314 217.143 603.393 215.059 Q601.495 212.976 598.346 212.976 Q594.782 212.976 592.629 214.99 Q590.499 217.004 590.175 220.661 L605.36 220.638 Z" fill="#000000" fill-rule="nonzero" fill-opacity="1" /><path clip-path="url(#clip690)" d="M633.67 213.925 L633.67 199.897 L637.929 199.897 L637.929 235.916 L633.67 235.916 L633.67 232.027 Q632.328 234.342 630.267 235.476 Q628.23 236.587 625.36 236.587 Q620.661 236.587 617.698 232.837 Q614.758 229.087 614.758 222.976 Q614.758 216.865 617.698 213.115 Q620.661 209.365 625.36 209.365 Q628.23 209.365 630.267 210.499 Q632.328 211.61 633.67 213.925 M619.156 222.976 Q619.156 227.675 621.078 230.36 Q623.022 233.022 626.402 233.022 Q629.781 233.022 631.726 230.36 Q633.67 227.675 633.67 222.976 Q633.67 218.277 631.726 215.615 Q629.781 212.93 626.402 212.93 Q623.022 212.93 621.078 215.615 Q619.156 218.277 619.156 222.976 Z" fill="#000000" fill-rule="nonzero" fill-opacity="1" /><path clip-path="url(#clip690)" d="M666.402 243.786 L666.402 247.096 L641.772 247.096 L641.772 243.786 L666.402 243.786 Z" fill="#000000" fill-rule="nonzero" fill-opacity="1" /><path clip-path="url(#clip690)" d="M675.267 219.411 L675.267 232.073 L682.767 232.073 Q686.54 232.073 688.346 230.522 Q690.175 228.948 690.175 225.731 Q690.175 222.49 688.346 220.962 Q686.54 219.411 682.767 219.411 L675.267 219.411 M675.267 205.198 L675.267 215.615 L682.189 215.615 Q685.614 215.615 687.281 214.342 Q688.971 213.045 688.971 210.407 Q688.971 207.791 687.281 206.495 Q685.614 205.198 682.189 205.198 L675.267 205.198 M670.591 201.356 L682.536 201.356 Q687.883 201.356 690.776 203.578 Q693.67 205.8 693.67 209.897 Q693.67 213.069 692.188 214.944 Q690.707 216.819 687.837 217.282 Q691.286 218.022 693.184 220.383 Q695.105 222.721 695.105 226.24 Q695.105 230.869 691.957 233.393 Q688.809 235.916 682.999 235.916 L670.591 235.916 L670.591 201.356 Z" fill="#000000" fill-rule="nonzero" fill-opacity="1" /><path clip-path="url(#clip690)" d="M698.323 201.356 L727.559 201.356 L727.559 205.291 L715.29 205.291 L715.29 235.916 L710.591 235.916 L710.591 205.291 L698.323 205.291 L698.323 201.356 Z" fill="#000000" fill-rule="nonzero" fill-opacity="1" /><path clip-path="url(#clip690)" d="M726.448 201.356 L755.683 201.356 L755.683 205.291 L743.415 205.291 L743.415 235.916 L738.716 235.916 L738.716 205.291 L726.448 205.291 L726.448 201.356 Z" fill="#000000" fill-rule="nonzero" fill-opacity="1" /><path clip-path="url(#clip690)" d="M760.197 201.356 L766.494 201.356 L781.818 230.268 L781.818 201.356 L786.355 201.356 L786.355 235.916 L780.058 235.916 L764.734 207.004 L764.734 235.916 L760.197 235.916 L760.197 201.356 Z" fill="#000000" fill-rule="nonzero" fill-opacity="1" /><polyline clip-path="url(#clip690)" style="stroke:#e26f46; stroke-linecap:round; stroke-linejoin:round; stroke-width:4; stroke-opacity:1; fill:none" points="344.767,270.476 484.859,270.476 "/>
<path clip-path="url(#clip690)" d="M414.813 292.095 L399.528 285.76 L393.194 270.476 L399.528 255.191 L414.813 248.857 L430.098 255.191 L436.432 270.476 L430.098 285.76 Z" fill="#e26f46" fill-rule="evenodd" fill-opacity="1" stroke="#000000" stroke-opacity="1" stroke-width="4.55111"/>
<path clip-path="url(#clip690)" d="M524.226 256.367 Q519.134 256.367 516.125 260.163 Q513.138 263.96 513.138 270.51 Q513.138 277.038 516.125 280.834 Q519.134 284.631 524.226 284.631 Q529.319 284.631 532.282 280.834 Q535.268 277.038 535.268 270.51 Q535.268 263.96 532.282 260.163 Q529.319 256.367 524.226 256.367 M530.777 287.131 L536.935 293.867 L531.287 293.867 L526.171 288.334 Q525.407 288.381 524.99 288.404 Q524.597 288.427 524.226 288.427 Q516.935 288.427 512.56 283.566 Q508.208 278.682 508.208 270.51 Q508.208 262.316 512.56 257.455 Q516.935 252.571 524.226 252.571 Q531.495 252.571 535.847 257.455 Q540.199 262.316 540.199 270.51 Q540.199 276.529 537.768 280.811 Q535.361 285.094 530.777 287.131 Z" fill="#000000" fill-rule="nonzero" fill-opacity="1" /><path clip-path="url(#clip690)" d="M542.722 253.196 L571.958 253.196 L571.958 257.131 L559.689 257.131 L559.689 287.756 L554.99 287.756 L554.99 257.131 L542.722 257.131 L542.722 253.196 Z" fill="#000000" fill-rule="nonzero" fill-opacity="1" /><path clip-path="url(#clip690)" d="M570.847 253.196 L600.082 253.196 L600.082 257.131 L587.814 257.131 L587.814 287.756 L583.115 287.756 L583.115 257.131 L570.847 257.131 L570.847 253.196 Z" fill="#000000" fill-rule="nonzero" fill-opacity="1" /><path clip-path="url(#clip690)" d="M624.11 295.626 L624.11 298.936 L599.481 298.936 L599.481 295.626 L624.11 295.626 Z" fill="#000000" fill-rule="nonzero" fill-opacity="1" /><path clip-path="url(#clip690)" d="M649.017 254.33 L649.017 258.89 Q646.355 257.617 643.994 256.992 Q641.633 256.367 639.434 256.367 Q635.615 256.367 633.531 257.848 Q631.471 259.33 631.471 262.061 Q631.471 264.353 632.837 265.534 Q634.226 266.691 638.068 267.409 L640.892 267.987 Q646.124 268.983 648.601 271.506 Q651.101 274.006 651.101 278.219 Q651.101 283.242 647.721 285.834 Q644.365 288.427 637.86 288.427 Q635.406 288.427 632.629 287.871 Q629.874 287.316 626.911 286.228 L626.911 281.413 Q629.758 283.01 632.49 283.821 Q635.221 284.631 637.86 284.631 Q641.865 284.631 644.041 283.057 Q646.216 281.483 646.216 278.566 Q646.216 276.02 644.642 274.584 Q643.091 273.149 639.527 272.432 L636.679 271.876 Q631.448 270.835 629.11 268.612 Q626.772 266.39 626.772 262.432 Q626.772 257.848 629.99 255.21 Q633.23 252.571 638.902 252.571 Q641.332 252.571 643.855 253.011 Q646.379 253.45 649.017 254.33 Z" fill="#000000" fill-rule="nonzero" fill-opacity="1" /><path clip-path="url(#clip690)" d="M680.383 273.728 L680.383 275.811 L660.8 275.811 Q661.078 280.209 663.439 282.524 Q665.823 284.816 670.059 284.816 Q672.513 284.816 674.804 284.214 Q677.119 283.612 679.388 282.409 L679.388 286.436 Q677.096 287.408 674.689 287.918 Q672.281 288.427 669.804 288.427 Q663.601 288.427 659.966 284.816 Q656.355 281.205 656.355 275.047 Q656.355 268.682 659.781 264.955 Q663.23 261.205 669.064 261.205 Q674.295 261.205 677.327 264.585 Q680.383 267.941 680.383 273.728 M676.124 272.478 Q676.077 268.983 674.156 266.899 Q672.258 264.816 669.11 264.816 Q665.545 264.816 663.392 266.83 Q661.263 268.844 660.939 272.501 L676.124 272.478 Z" fill="#000000" fill-rule="nonzero" fill-opacity="1" /><path clip-path="url(#clip690)" d="M689.92 274.816 Q689.92 279.515 691.841 282.2 Q693.786 284.862 697.165 284.862 Q700.545 284.862 702.489 282.2 Q704.434 279.515 704.434 274.816 Q704.434 270.117 702.489 267.455 Q700.545 264.77 697.165 264.77 Q693.786 264.77 691.841 267.455 Q689.92 270.117 689.92 274.816 M704.434 283.867 Q703.091 286.182 701.031 287.316 Q698.994 288.427 696.124 288.427 Q691.425 288.427 688.462 284.677 Q685.522 280.927 685.522 274.816 Q685.522 268.705 688.462 264.955 Q691.425 261.205 696.124 261.205 Q698.994 261.205 701.031 262.339 Q703.091 263.45 704.434 265.765 L704.434 261.83 L708.693 261.83 L708.693 297.617 L704.434 297.617 L704.434 283.867 Z" fill="#000000" fill-rule="nonzero" fill-opacity="1" /><polyline clip-path="url(#clip690)" style="stroke:#3da44d; stroke-linecap:round; stroke-linejoin:round; stroke-width:4; stroke-opacity:1; fill:none" points="344.767,322.316 484.859,322.316 "/>
<path clip-path="url(#clip690)" d="M414.813 343.935 L399.528 337.6 L393.194 322.316 L399.528 307.031 L414.813 300.697 L430.098 307.031 L436.432 322.316 L430.098 337.6 Z" fill="#3da44d" fill-rule="evenodd" fill-opacity="1" stroke="#000000" stroke-opacity="1" stroke-width="4.55111"/>
<path clip-path="url(#clip690)" d="M512.884 323.091 L512.884 335.753 L520.384 335.753 Q524.157 335.753 525.962 334.202 Q527.791 332.628 527.791 329.411 Q527.791 326.17 525.962 324.642 Q524.157 323.091 520.384 323.091 L512.884 323.091 M512.884 308.878 L512.884 319.295 L519.805 319.295 Q523.231 319.295 524.898 318.022 Q526.587 316.725 526.587 314.087 Q526.587 311.471 524.898 310.175 Q523.231 308.878 519.805 308.878 L512.884 308.878 M508.208 305.036 L520.152 305.036 Q525.5 305.036 528.393 307.258 Q531.287 309.48 531.287 313.577 Q531.287 316.749 529.805 318.624 Q528.324 320.499 525.453 320.962 Q528.902 321.702 530.8 324.063 Q532.722 326.401 532.722 329.92 Q532.722 334.549 529.574 337.073 Q526.425 339.596 520.615 339.596 L508.208 339.596 L508.208 305.036 Z" fill="#000000" fill-rule="nonzero" fill-opacity="1" /><path clip-path="url(#clip690)" d="M535.939 305.036 L565.175 305.036 L565.175 308.971 L552.907 308.971 L552.907 339.596 L548.208 339.596 L548.208 308.971 L535.939 308.971 L535.939 305.036 Z" fill="#000000" fill-rule="nonzero" fill-opacity="1" /><path clip-path="url(#clip690)" d="M564.064 305.036 L593.3 305.036 L593.3 308.971 L581.032 308.971 L581.032 339.596 L576.333 339.596 L576.333 308.971 L564.064 308.971 L564.064 305.036 Z" fill="#000000" fill-rule="nonzero" fill-opacity="1" /><path clip-path="url(#clip690)" d="M597.814 305.036 L604.11 305.036 L619.434 333.948 L619.434 305.036 L623.971 305.036 L623.971 339.596 L617.675 339.596 L602.351 310.684 L602.351 339.596 L597.814 339.596 L597.814 305.036 Z" fill="#000000" fill-rule="nonzero" fill-opacity="1" /><polyline clip-path="url(#clip690)" style="stroke:#c271d2; stroke-linecap:round; stroke-linejoin:round; stroke-width:4; stroke-opacity:1; fill:none" points="344.767,374.156 484.859,374.156 "/>
<path clip-path="url(#clip690)" d="M414.813 395.775 L399.528 389.44 L393.194 374.156 L399.528 358.871 L414.813 352.537 L430.098 358.871 L436.432 374.156 L430.098 389.44 Z" fill="#c271d2" fill-rule="evenodd" fill-opacity="1" stroke="#000000" stroke-opacity="1" stroke-width="4.55111"/>
<path clip-path="url(#clip690)" d="M536.078 359.538 L536.078 364.468 Q533.717 362.269 531.032 361.181 Q528.37 360.093 525.361 360.093 Q519.435 360.093 516.287 363.728 Q513.138 367.339 513.138 374.19 Q513.138 381.019 516.287 384.653 Q519.435 388.264 525.361 388.264 Q528.37 388.264 531.032 387.176 Q533.717 386.089 536.078 383.889 L536.078 388.774 Q533.624 390.44 530.87 391.274 Q528.138 392.107 525.083 392.107 Q517.236 392.107 512.722 387.315 Q508.208 382.501 508.208 374.19 Q508.208 365.857 512.722 361.066 Q517.236 356.251 525.083 356.251 Q528.185 356.251 530.916 357.084 Q533.671 357.894 536.078 359.538 Z" fill="#000000" fill-rule="nonzero" fill-opacity="1" /><path clip-path="url(#clip690)" d="M538.509 356.876 L567.745 356.876 L567.745 360.811 L555.476 360.811 L555.476 391.436 L550.777 391.436 L550.777 360.811 L538.509 360.811 L538.509 356.876 Z" fill="#000000" fill-rule="nonzero" fill-opacity="1" /><path clip-path="url(#clip690)" d="M566.634 356.876 L595.87 356.876 L595.87 360.811 L583.601 360.811 L583.601 391.436 L578.902 391.436 L578.902 360.811 L566.634 360.811 L566.634 356.876 Z" fill="#000000" fill-rule="nonzero" fill-opacity="1" /><path clip-path="url(#clip690)" d="M600.383 356.876 L606.68 356.876 L622.004 385.788 L622.004 356.876 L626.541 356.876 L626.541 391.436 L620.244 391.436 L604.92 362.524 L604.92 391.436 L600.383 391.436 L600.383 356.876 Z" fill="#000000" fill-rule="nonzero" fill-opacity="1" /><polyline clip-path="url(#clip690)" style="stroke:#ac8d18; stroke-linecap:round; stroke-linejoin:round; stroke-width:4; stroke-opacity:1; fill:none" points="344.767,425.996 484.859,425.996 "/>
<path clip-path="url(#clip690)" d="M414.813 447.615 L399.528 441.28 L393.194 425.996 L399.528 410.711 L414.813 404.377 L430.098 410.711 L436.432 425.996 L430.098 441.28 Z" fill="#ac8d18" fill-rule="evenodd" fill-opacity="1" stroke="#000000" stroke-opacity="1" stroke-width="4.55111"/>
<path clip-path="url(#clip690)" d="M524.226 411.887 Q519.134 411.887 516.125 415.683 Q513.138 419.48 513.138 426.03 Q513.138 432.558 516.125 436.354 Q519.134 440.151 524.226 440.151 Q529.319 440.151 532.282 436.354 Q535.268 432.558 535.268 426.03 Q535.268 419.48 532.282 415.683 Q529.319 411.887 524.226 411.887 M530.777 442.651 L536.935 449.387 L531.287 449.387 L526.171 443.854 Q525.407 443.901 524.99 443.924 Q524.597 443.947 524.226 443.947 Q516.935 443.947 512.56 439.086 Q508.208 434.202 508.208 426.03 Q508.208 417.836 512.56 412.975 Q516.935 408.091 524.226 408.091 Q531.495 408.091 535.847 412.975 Q540.199 417.836 540.199 426.03 Q540.199 432.049 537.768 436.331 Q535.361 440.614 530.777 442.651 Z" fill="#000000" fill-rule="nonzero" fill-opacity="1" /><path clip-path="url(#clip690)" d="M542.722 408.716 L571.958 408.716 L571.958 412.651 L559.689 412.651 L559.689 443.276 L554.99 443.276 L554.99 412.651 L542.722 412.651 L542.722 408.716 Z" fill="#000000" fill-rule="nonzero" fill-opacity="1" /><path clip-path="url(#clip690)" d="M570.847 408.716 L600.082 408.716 L600.082 412.651 L587.814 412.651 L587.814 443.276 L583.115 443.276 L583.115 412.651 L570.847 412.651 L570.847 408.716 Z" fill="#000000" fill-rule="nonzero" fill-opacity="1" /><path clip-path="url(#clip690)" d="M624.11 451.146 L624.11 454.456 L599.481 454.456 L599.481 451.146 L624.11 451.146 Z" fill="#000000" fill-rule="nonzero" fill-opacity="1" /><path clip-path="url(#clip690)" d="M628.3 408.716 L632.976 408.716 L632.976 443.276 L628.3 443.276 L628.3 408.716 Z" fill="#000000" fill-rule="nonzero" fill-opacity="1" /><path clip-path="url(#clip690)" d="M663.647 427.628 L663.647 443.276 L659.388 443.276 L659.388 427.767 Q659.388 424.086 657.953 422.257 Q656.517 420.429 653.647 420.429 Q650.198 420.429 648.207 422.628 Q646.216 424.827 646.216 428.623 L646.216 443.276 L641.934 443.276 L641.934 417.35 L646.216 417.35 L646.216 421.378 Q647.744 419.04 649.804 417.882 Q651.888 416.725 654.596 416.725 Q659.064 416.725 661.355 419.503 Q663.647 422.257 663.647 427.628 Z" fill="#000000" fill-rule="nonzero" fill-opacity="1" /><path clip-path="url(#clip690)" d="M676.355 409.989 L676.355 417.35 L685.128 417.35 L685.128 420.66 L676.355 420.66 L676.355 434.734 Q676.355 437.905 677.212 438.808 Q678.091 439.711 680.753 439.711 L685.128 439.711 L685.128 443.276 L680.753 443.276 Q675.823 443.276 673.948 441.447 Q672.073 439.595 672.073 434.734 L672.073 420.66 L668.948 420.66 L668.948 417.35 L672.073 417.35 L672.073 409.989 L676.355 409.989 Z" fill="#000000" fill-rule="nonzero" fill-opacity="1" /></svg>
