<?xml version="1.0" encoding="utf-8"?>
<svg xmlns="http://www.w3.org/2000/svg" xmlns:xlink="http://www.w3.org/1999/xlink" width="600" height="400" viewBox="0 0 2400 1600">
<defs>
  <clipPath id="clip450">
    <rect x="0" y="0" width="2400" height="1600"/>
  </clipPath>
</defs>
<path clip-path="url(#clip450)" d="M0 1600 L2400 1600 L2400 8.88178e-14 L0 8.88178e-14  Z" fill="#ffffff" fill-rule="evenodd" fill-opacity="1"/>
<defs>
  <clipPath id="clip451">
    <rect x="480" y="0" width="1681" height="1600"/>
  </clipPath>
</defs>
<path clip-path="url(#clip450)" d="M251.842 1423.18 L2352.76 1423.18 L2352.76 123.472 L251.842 123.472  Z" fill="#ffffff" fill-rule="evenodd" fill-opacity="1"/>
<defs>
  <clipPath id="clip452">
    <rect x="251" y="123" width="2102" height="1301"/>
  </clipPath>
</defs>
<polyline clip-path="url(#clip452)" style="stroke:#000000; stroke-linecap:round; stroke-linejoin:round; stroke-width:2; stroke-opacity:0.1; fill:none" points="458.117,1423.18 458.117,123.472 "/>
<polyline clip-path="url(#clip452)" style="stroke:#000000; stroke-linecap:round; stroke-linejoin:round; stroke-width:2; stroke-opacity:0.1; fill:none" points="825.152,1423.18 825.152,123.472 "/>
<polyline clip-path="url(#clip452)" style="stroke:#000000; stroke-linecap:round; stroke-linejoin:round; stroke-width:2; stroke-opacity:0.1; fill:none" points="1192.19,1423.18 1192.19,123.472 "/>
<polyline clip-path="url(#clip452)" style="stroke:#000000; stroke-linecap:round; stroke-linejoin:round; stroke-width:2; stroke-opacity:0.1; fill:none" points="1559.22,1423.18 1559.22,123.472 "/>
<polyline clip-path="url(#clip452)" style="stroke:#000000; stroke-linecap:round; stroke-linejoin:round; stroke-width:2; stroke-opacity:0.1; fill:none" points="1926.26,1423.18 1926.26,123.472 "/>
<polyline clip-path="url(#clip452)" style="stroke:#000000; stroke-linecap:round; stroke-linejoin:round; stroke-width:2; stroke-opacity:0.1; fill:none" points="2293.3,1423.18 2293.3,123.472 "/>
<polyline clip-path="url(#clip452)" style="stroke:#000000; stroke-linecap:round; stroke-linejoin:round; stroke-width:2; stroke-opacity:0.1; fill:none" points="251.842,1332.5 2352.76,1332.5 "/>
<polyline clip-path="url(#clip452)" style="stroke:#000000; stroke-linecap:round; stroke-linejoin:round; stroke-width:2; stroke-opacity:0.1; fill:none" points="251.842,923.048 2352.76,923.048 "/>
<polyline clip-path="url(#clip452)" style="stroke:#000000; stroke-linecap:round; stroke-linejoin:round; stroke-width:2; stroke-opacity:0.1; fill:none" points="251.842,513.601 2352.76,513.601 "/>
<polyline clip-path="url(#clip450)" style="stroke:#000000; stroke-linecap:round; stroke-linejoin:round; stroke-width:4; stroke-opacity:1; fill:none" points="251.842,1423.18 2352.76,1423.18 "/>
<polyline clip-path="url(#clip450)" style="stroke:#000000; stroke-linecap:round; stroke-linejoin:round; stroke-width:4; stroke-opacity:1; fill:none" points="458.117,1423.18 458.117,1404.28 "/>
<polyline clip-path="url(#clip450)" style="stroke:#000000; stroke-linecap:round; stroke-linejoin:round; stroke-width:4; stroke-opacity:1; fill:none" points="825.152,1423.18 825.152,1404.28 "/>
<polyline clip-path="url(#clip450)" style="stroke:#000000; stroke-linecap:round; stroke-linejoin:round; stroke-width:4; stroke-opacity:1; fill:none" points="1192.19,1423.18 1192.19,1404.28 "/>
<polyline clip-path="url(#clip450)" style="stroke:#000000; stroke-linecap:round; stroke-linejoin:round; stroke-width:4; stroke-opacity:1; fill:none" points="1559.22,1423.18 1559.22,1404.28 "/>
<polyline clip-path="url(#clip450)" style="stroke:#000000; stroke-linecap:round; stroke-linejoin:round; stroke-width:4; stroke-opacity:1; fill:none" points="1926.26,1423.18 1926.26,1404.28 "/>
<polyline clip-path="url(#clip450)" style="stroke:#000000; stroke-linecap:round; stroke-linejoin:round; stroke-width:4; stroke-opacity:1; fill:none" points="2293.3,1423.18 2293.3,1404.28 "/>
<path clip-path="url(#clip450)" d="M448.394 1451.02 L466.751 1451.02 L466.751 1454.96 L452.677 1454.96 L452.677 1463.43 Q453.695 1463.08 454.714 1462.92 Q455.732 1462.73 456.751 1462.73 Q462.538 1462.73 465.917 1465.9 Q469.297 1469.08 469.297 1474.49 Q469.297 1480.07 465.825 1483.17 Q462.353 1486.25 456.033 1486.25 Q453.857 1486.25 451.589 1485.88 Q449.343 1485.51 446.936 1484.77 L446.936 1480.07 Q449.019 1481.2 451.242 1481.76 Q453.464 1482.32 455.941 1482.32 Q459.945 1482.32 462.283 1480.21 Q464.621 1478.1 464.621 1474.49 Q464.621 1470.88 462.283 1468.77 Q459.945 1466.67 455.941 1466.67 Q454.066 1466.67 452.191 1467.08 Q450.339 1467.5 448.394 1468.38 L448.394 1451.02 Z" fill="#000000" fill-rule="nonzero" fill-opacity="1" /><path clip-path="url(#clip450)" d="M799.84 1481.64 L807.479 1481.64 L807.479 1455.28 L799.169 1456.95 L799.169 1452.69 L807.433 1451.02 L812.109 1451.02 L812.109 1481.64 L819.747 1481.64 L819.747 1485.58 L799.84 1485.58 L799.84 1481.64 Z" fill="#000000" fill-rule="nonzero" fill-opacity="1" /><path clip-path="url(#clip450)" d="M839.192 1454.1 Q835.581 1454.1 833.752 1457.66 Q831.946 1461.2 831.946 1468.33 Q831.946 1475.44 833.752 1479.01 Q835.581 1482.55 839.192 1482.55 Q842.826 1482.55 844.632 1479.01 Q846.46 1475.44 846.46 1468.33 Q846.46 1461.2 844.632 1457.66 Q842.826 1454.1 839.192 1454.1 M839.192 1450.39 Q845.002 1450.39 848.057 1455 Q851.136 1459.58 851.136 1468.33 Q851.136 1477.06 848.057 1481.67 Q845.002 1486.25 839.192 1486.25 Q833.382 1486.25 830.303 1481.67 Q827.247 1477.06 827.247 1468.33 Q827.247 1459.58 830.303 1455 Q833.382 1450.39 839.192 1450.39 Z" fill="#000000" fill-rule="nonzero" fill-opacity="1" /><path clip-path="url(#clip450)" d="M1167.37 1481.64 L1175.01 1481.64 L1175.01 1455.28 L1166.7 1456.95 L1166.7 1452.69 L1174.97 1451.02 L1179.64 1451.02 L1179.64 1481.64 L1187.28 1481.64 L1187.28 1485.58 L1167.37 1485.58 L1167.37 1481.64 Z" fill="#000000" fill-rule="nonzero" fill-opacity="1" /><path clip-path="url(#clip450)" d="M1196.77 1451.02 L1215.13 1451.02 L1215.13 1454.96 L1201.05 1454.96 L1201.05 1463.43 Q1202.07 1463.08 1203.09 1462.92 Q1204.11 1462.73 1205.13 1462.73 Q1210.92 1462.73 1214.29 1465.9 Q1217.67 1469.08 1217.67 1474.49 Q1217.67 1480.07 1214.2 1483.17 Q1210.73 1486.25 1204.41 1486.25 Q1202.23 1486.25 1199.97 1485.88 Q1197.72 1485.51 1195.31 1484.77 L1195.31 1480.07 Q1197.4 1481.2 1199.62 1481.76 Q1201.84 1482.32 1204.32 1482.32 Q1208.32 1482.32 1210.66 1480.21 Q1213 1478.1 1213 1474.49 Q1213 1470.88 1210.66 1468.77 Q1208.32 1466.67 1204.32 1466.67 Q1202.44 1466.67 1200.57 1467.08 Q1198.72 1467.5 1196.77 1468.38 L1196.77 1451.02 Z" fill="#000000" fill-rule="nonzero" fill-opacity="1" /><path clip-path="url(#clip450)" d="M1538 1481.64 L1554.32 1481.64 L1554.32 1485.58 L1532.37 1485.58 L1532.37 1481.64 Q1535.03 1478.89 1539.62 1474.26 Q1544.22 1469.61 1545.4 1468.27 Q1547.65 1465.74 1548.53 1464.01 Q1549.43 1462.25 1549.43 1460.56 Q1549.43 1457.8 1547.49 1456.07 Q1545.57 1454.33 1542.47 1454.33 Q1540.27 1454.33 1537.81 1455.09 Q1535.38 1455.86 1532.6 1457.41 L1532.6 1452.69 Q1535.43 1451.55 1537.88 1450.97 Q1540.34 1450.39 1542.37 1450.39 Q1547.74 1450.39 1550.94 1453.08 Q1554.13 1455.77 1554.13 1460.26 Q1554.13 1462.39 1553.32 1464.31 Q1552.53 1466.2 1550.43 1468.8 Q1549.85 1469.47 1546.75 1472.69 Q1543.65 1475.88 1538 1481.64 Z" fill="#000000" fill-rule="nonzero" fill-opacity="1" /><path clip-path="url(#clip450)" d="M1574.13 1454.1 Q1570.52 1454.1 1568.69 1457.66 Q1566.89 1461.2 1566.89 1468.33 Q1566.89 1475.44 1568.69 1479.01 Q1570.52 1482.55 1574.13 1482.55 Q1577.77 1482.55 1579.57 1479.01 Q1581.4 1475.44 1581.4 1468.33 Q1581.4 1461.2 1579.57 1457.66 Q1577.77 1454.1 1574.13 1454.1 M1574.13 1450.39 Q1579.94 1450.39 1583 1455 Q1586.08 1459.58 1586.08 1468.33 Q1586.08 1477.06 1583 1481.67 Q1579.94 1486.25 1574.13 1486.25 Q1568.32 1486.25 1565.24 1481.67 Q1562.19 1477.06 1562.19 1468.33 Q1562.19 1459.58 1565.24 1455 Q1568.32 1450.39 1574.13 1450.39 Z" fill="#000000" fill-rule="nonzero" fill-opacity="1" /><path clip-path="url(#clip450)" d="M1905.53 1481.64 L1921.85 1481.64 L1921.85 1485.58 L1899.91 1485.58 L1899.91 1481.64 Q1902.57 1478.89 1907.15 1474.26 Q1911.76 1469.61 1912.94 1468.27 Q1915.18 1465.74 1916.06 1464.01 Q1916.97 1462.25 1916.97 1460.56 Q1916.97 1457.8 1915.02 1456.07 Q1913.1 1454.33 1910 1454.33 Q1907.8 1454.33 1905.35 1455.09 Q1902.92 1455.86 1900.14 1457.41 L1900.14 1452.69 Q1902.96 1451.55 1905.42 1450.97 Q1907.87 1450.39 1909.91 1450.39 Q1915.28 1450.39 1918.47 1453.08 Q1921.67 1455.77 1921.67 1460.26 Q1921.67 1462.39 1920.86 1464.31 Q1920.07 1466.2 1917.96 1468.8 Q1917.38 1469.47 1914.28 1472.69 Q1911.18 1475.88 1905.53 1481.64 Z" fill="#000000" fill-rule="nonzero" fill-opacity="1" /><path clip-path="url(#clip450)" d="M1931.71 1451.02 L1950.07 1451.02 L1950.07 1454.96 L1935.99 1454.96 L1935.99 1463.43 Q1937.01 1463.08 1938.03 1462.92 Q1939.05 1462.73 1940.07 1462.73 Q1945.85 1462.73 1949.23 1465.9 Q1952.61 1469.08 1952.61 1474.49 Q1952.61 1480.07 1949.14 1483.17 Q1945.67 1486.25 1939.35 1486.25 Q1937.17 1486.25 1934.91 1485.88 Q1932.66 1485.51 1930.25 1484.77 L1930.25 1480.07 Q1932.34 1481.2 1934.56 1481.76 Q1936.78 1482.32 1939.26 1482.32 Q1943.26 1482.32 1945.6 1480.21 Q1947.94 1478.1 1947.94 1474.49 Q1947.94 1470.88 1945.6 1468.77 Q1943.26 1466.67 1939.26 1466.67 Q1937.38 1466.67 1935.51 1467.08 Q1933.66 1467.5 1931.71 1468.38 L1931.71 1451.02 Z" fill="#000000" fill-rule="nonzero" fill-opacity="1" /><path clip-path="url(#clip450)" d="M2282.14 1466.95 Q2285.5 1467.66 2287.37 1469.93 Q2289.27 1472.2 2289.27 1475.53 Q2289.27 1480.65 2285.75 1483.45 Q2282.23 1486.25 2275.75 1486.25 Q2273.57 1486.25 2271.26 1485.81 Q2268.97 1485.39 2266.51 1484.54 L2266.51 1480.02 Q2268.46 1481.16 2270.77 1481.74 Q2273.09 1482.32 2275.61 1482.32 Q2280.01 1482.32 2282.3 1480.58 Q2284.62 1478.84 2284.62 1475.53 Q2284.62 1472.48 2282.46 1470.77 Q2280.33 1469.03 2276.51 1469.03 L2272.49 1469.03 L2272.49 1465.19 L2276.7 1465.19 Q2280.15 1465.19 2281.98 1463.82 Q2283.81 1462.43 2283.81 1459.84 Q2283.81 1457.18 2281.91 1455.77 Q2280.03 1454.33 2276.51 1454.33 Q2274.59 1454.33 2272.39 1454.75 Q2270.19 1455.16 2267.56 1456.04 L2267.56 1451.88 Q2270.22 1451.14 2272.53 1450.77 Q2274.87 1450.39 2276.93 1450.39 Q2282.25 1450.39 2285.36 1452.83 Q2288.46 1455.23 2288.46 1459.35 Q2288.46 1462.22 2286.81 1464.21 Q2285.17 1466.18 2282.14 1466.95 Z" fill="#000000" fill-rule="nonzero" fill-opacity="1" /><path clip-path="url(#clip450)" d="M2308.13 1454.1 Q2304.52 1454.1 2302.69 1457.66 Q2300.89 1461.2 2300.89 1468.33 Q2300.89 1475.44 2302.69 1479.01 Q2304.52 1482.55 2308.13 1482.55 Q2311.77 1482.55 2313.57 1479.01 Q2315.4 1475.44 2315.4 1468.33 Q2315.4 1461.2 2313.57 1457.66 Q2311.77 1454.1 2308.13 1454.1 M2308.13 1450.39 Q2313.94 1450.39 2317 1455 Q2320.08 1459.58 2320.08 1468.33 Q2320.08 1477.06 2317 1481.67 Q2313.94 1486.25 2308.13 1486.25 Q2302.32 1486.25 2299.25 1481.67 Q2296.19 1477.06 2296.19 1468.33 Q2296.19 1459.58 2299.25 1455 Q2302.32 1450.39 2308.13 1450.39 Z" fill="#000000" fill-rule="nonzero" fill-opacity="1" /><path clip-path="url(#clip450)" d="M963.278 1520.52 L972.858 1520.52 L984.985 1552.86 L997.175 1520.52 L1006.76 1520.52 L1006.76 1568.04 L1000.49 1568.04 L1000.49 1526.32 L988.231 1558.91 L981.77 1558.91 L969.516 1526.32 L969.516 1568.04 L963.278 1568.04 L963.278 1520.52 Z" fill="#000000" fill-rule="nonzero" fill-opacity="1" /><path clip-path="url(#clip450)" d="M1035.46 1550.12 Q1028.37 1550.12 1025.63 1551.75 Q1022.89 1553.37 1022.89 1557.29 Q1022.89 1560.4 1024.93 1562.25 Q1027 1564.07 1030.53 1564.07 Q1035.4 1564.07 1038.33 1560.63 Q1041.29 1557.16 1041.29 1551.43 L1041.29 1550.12 L1035.46 1550.12 M1047.15 1547.71 L1047.15 1568.04 L1041.29 1568.04 L1041.29 1562.63 Q1039.28 1565.88 1036.29 1567.44 Q1033.3 1568.97 1028.97 1568.97 Q1023.5 1568.97 1020.25 1565.91 Q1017.04 1562.82 1017.04 1557.67 Q1017.04 1551.65 1021.05 1548.6 Q1025.09 1545.54 1033.08 1545.54 L1041.29 1545.54 L1041.29 1544.97 Q1041.29 1540.93 1038.62 1538.73 Q1035.97 1536.5 1031.17 1536.5 Q1028.11 1536.5 1025.22 1537.23 Q1022.32 1537.97 1019.65 1539.43 L1019.65 1534.02 Q1022.86 1532.78 1025.88 1532.17 Q1028.91 1531.54 1031.77 1531.54 Q1039.51 1531.54 1043.33 1535.55 Q1047.15 1539.56 1047.15 1547.71 Z" fill="#000000" fill-rule="nonzero" fill-opacity="1" /><path clip-path="url(#clip450)" d="M1088.84 1532.4 L1075.95 1549.74 L1089.51 1568.04 L1082.6 1568.04 L1072.23 1554.04 L1061.85 1568.04 L1054.94 1568.04 L1068.79 1549.39 L1056.12 1532.4 L1063.03 1532.4 L1072.48 1545.1 L1081.93 1532.4 L1088.84 1532.4 Z" fill="#000000" fill-rule="nonzero" fill-opacity="1" /><path clip-path="url(#clip450)" d="M1125.19 1545.35 L1125.19 1562.76 L1135.5 1562.76 Q1140.69 1562.76 1143.17 1560.63 Q1145.69 1558.46 1145.69 1554.04 Q1145.69 1549.58 1143.17 1547.48 Q1140.69 1545.35 1135.5 1545.35 L1125.19 1545.35 M1125.19 1525.81 L1125.19 1540.13 L1134.71 1540.13 Q1139.42 1540.13 1141.71 1538.38 Q1144.03 1536.6 1144.03 1532.97 Q1144.03 1529.37 1141.71 1527.59 Q1139.42 1525.81 1134.71 1525.81 L1125.19 1525.81 M1118.76 1520.52 L1135.18 1520.52 Q1142.54 1520.52 1146.51 1523.58 Q1150.49 1526.63 1150.49 1532.27 Q1150.49 1536.63 1148.46 1539.21 Q1146.42 1541.79 1142.47 1542.42 Q1147.21 1543.44 1149.82 1546.69 Q1152.47 1549.9 1152.47 1554.74 Q1152.47 1561.11 1148.14 1564.57 Q1143.81 1568.04 1135.82 1568.04 L1118.76 1568.04 L1118.76 1520.52 Z" fill="#000000" fill-rule="nonzero" fill-opacity="1" /><path clip-path="url(#clip450)" d="M1177.04 1536.5 Q1172.33 1536.5 1169.59 1540.19 Q1166.85 1543.85 1166.85 1550.25 Q1166.85 1556.65 1169.56 1560.34 Q1172.3 1564 1177.04 1564 Q1181.72 1564 1184.45 1560.31 Q1187.19 1556.62 1187.19 1550.25 Q1187.19 1543.92 1184.45 1540.23 Q1181.72 1536.5 1177.04 1536.5 M1177.04 1531.54 Q1184.68 1531.54 1189.04 1536.5 Q1193.4 1541.47 1193.4 1550.25 Q1193.4 1559 1189.04 1564 Q1184.68 1568.97 1177.04 1568.97 Q1169.37 1568.97 1165.01 1564 Q1160.68 1559 1160.68 1550.25 Q1160.68 1541.47 1165.01 1536.5 Q1169.37 1531.54 1177.04 1531.54 Z" fill="#000000" fill-rule="nonzero" fill-opacity="1" /><path clip-path="url(#clip450)" d="M1232.74 1546.53 L1232.74 1568.04 L1226.88 1568.04 L1226.88 1546.72 Q1226.88 1541.66 1224.91 1539.14 Q1222.93 1536.63 1218.99 1536.63 Q1214.25 1536.63 1211.51 1539.65 Q1208.77 1542.68 1208.77 1547.9 L1208.77 1568.04 L1202.88 1568.04 L1202.88 1532.4 L1208.77 1532.4 L1208.77 1537.93 Q1210.87 1534.72 1213.7 1533.13 Q1216.57 1531.54 1220.29 1531.54 Q1226.44 1531.54 1229.59 1535.36 Q1232.74 1539.14 1232.74 1546.53 Z" fill="#000000" fill-rule="nonzero" fill-opacity="1" /><path clip-path="url(#clip450)" d="M1267.88 1537.81 L1267.88 1518.52 L1273.73 1518.52 L1273.73 1568.04 L1267.88 1568.04 L1267.88 1562.7 Q1266.03 1565.88 1263.2 1567.44 Q1260.4 1568.97 1256.45 1568.97 Q1249.99 1568.97 1245.91 1563.81 Q1241.87 1558.65 1241.87 1550.25 Q1241.87 1541.85 1245.91 1536.69 Q1249.99 1531.54 1256.45 1531.54 Q1260.4 1531.54 1263.2 1533.1 Q1266.03 1534.62 1267.88 1537.81 M1247.92 1550.25 Q1247.92 1556.71 1250.56 1560.4 Q1253.24 1564.07 1257.88 1564.07 Q1262.53 1564.07 1265.2 1560.4 Q1267.88 1556.71 1267.88 1550.25 Q1267.88 1543.79 1265.2 1540.13 Q1262.53 1536.44 1257.88 1536.44 Q1253.24 1536.44 1250.56 1540.13 Q1247.92 1543.79 1247.92 1550.25 Z" fill="#000000" fill-rule="nonzero" fill-opacity="1" /><path clip-path="url(#clip450)" d="M1313.2 1525.81 L1313.2 1562.76 L1320.97 1562.76 Q1330.8 1562.76 1335.35 1558.3 Q1339.94 1553.85 1339.94 1544.24 Q1339.94 1534.69 1335.35 1530.26 Q1330.8 1525.81 1320.97 1525.81 L1313.2 1525.81 M1306.77 1520.52 L1319.98 1520.52 Q1333.79 1520.52 1340.25 1526.28 Q1346.72 1532.01 1346.72 1544.24 Q1346.72 1556.52 1340.22 1562.28 Q1333.73 1568.04 1319.98 1568.04 L1306.77 1568.04 L1306.77 1520.52 Z" fill="#000000" fill-rule="nonzero" fill-opacity="1" /><path clip-path="url(#clip450)" d="M1356.71 1532.4 L1362.57 1532.4 L1362.57 1568.04 L1356.71 1568.04 L1356.71 1532.4 M1356.71 1518.52 L1362.57 1518.52 L1362.57 1525.93 L1356.71 1525.93 L1356.71 1518.52 Z" fill="#000000" fill-rule="nonzero" fill-opacity="1" /><path clip-path="url(#clip450)" d="M1402.57 1539.24 Q1404.77 1535.29 1407.83 1533.41 Q1410.88 1531.54 1415.02 1531.54 Q1420.59 1531.54 1423.61 1535.45 Q1426.64 1539.33 1426.64 1546.53 L1426.64 1568.04 L1420.75 1568.04 L1420.75 1546.72 Q1420.75 1541.59 1418.93 1539.11 Q1417.12 1536.63 1413.4 1536.63 Q1408.85 1536.63 1406.2 1539.65 Q1403.56 1542.68 1403.56 1547.9 L1403.56 1568.04 L1397.67 1568.04 L1397.67 1546.72 Q1397.67 1541.56 1395.86 1539.11 Q1394.04 1536.63 1390.26 1536.63 Q1385.77 1536.63 1383.13 1539.68 Q1380.49 1542.71 1380.49 1547.9 L1380.49 1568.04 L1374.6 1568.04 L1374.6 1532.4 L1380.49 1532.4 L1380.49 1537.93 Q1382.49 1534.66 1385.29 1533.1 Q1388.09 1531.54 1391.94 1531.54 Q1395.83 1531.54 1398.53 1533.51 Q1401.27 1535.48 1402.57 1539.24 Z" fill="#000000" fill-rule="nonzero" fill-opacity="1" /><path clip-path="url(#clip450)" d="M1468.81 1548.76 L1468.81 1551.62 L1441.88 1551.62 Q1442.27 1557.67 1445.51 1560.85 Q1448.79 1564 1454.61 1564 Q1457.99 1564 1461.14 1563.17 Q1464.32 1562.35 1467.44 1560.69 L1467.44 1566.23 Q1464.29 1567.57 1460.98 1568.27 Q1457.67 1568.97 1454.26 1568.97 Q1445.73 1568.97 1440.74 1564 Q1435.77 1559.04 1435.77 1550.57 Q1435.77 1541.82 1440.48 1536.69 Q1445.23 1531.54 1453.25 1531.54 Q1460.44 1531.54 1464.61 1536.18 Q1468.81 1540.8 1468.81 1548.76 M1462.95 1547.04 Q1462.89 1542.23 1460.25 1539.37 Q1457.64 1536.5 1453.31 1536.5 Q1448.41 1536.5 1445.45 1539.27 Q1442.52 1542.04 1442.07 1547.07 L1462.95 1547.04 Z" fill="#000000" fill-rule="nonzero" fill-opacity="1" /><path clip-path="url(#clip450)" d="M1508.05 1546.53 L1508.05 1568.04 L1502.2 1568.04 L1502.2 1546.72 Q1502.2 1541.66 1500.22 1539.14 Q1498.25 1536.63 1494.3 1536.63 Q1489.56 1536.63 1486.83 1539.65 Q1484.09 1542.68 1484.09 1547.9 L1484.09 1568.04 L1478.2 1568.04 L1478.2 1532.4 L1484.09 1532.4 L1484.09 1537.93 Q1486.19 1534.72 1489.02 1533.13 Q1491.89 1531.54 1495.61 1531.54 Q1501.75 1531.54 1504.9 1535.36 Q1508.05 1539.14 1508.05 1546.53 Z" fill="#000000" fill-rule="nonzero" fill-opacity="1" /><path clip-path="url(#clip450)" d="M1542.46 1533.45 L1542.46 1538.98 Q1539.98 1537.71 1537.31 1537.07 Q1534.63 1536.44 1531.77 1536.44 Q1527.41 1536.44 1525.21 1537.77 Q1523.05 1539.11 1523.05 1541.79 Q1523.05 1543.82 1524.61 1545 Q1526.17 1546.15 1530.88 1547.2 L1532.88 1547.64 Q1539.12 1548.98 1541.73 1551.43 Q1544.37 1553.85 1544.37 1558.21 Q1544.37 1563.17 1540.42 1566.07 Q1536.51 1568.97 1529.63 1568.97 Q1526.77 1568.97 1523.65 1568.39 Q1520.56 1567.85 1517.13 1566.74 L1517.13 1560.69 Q1520.37 1562.38 1523.52 1563.24 Q1526.67 1564.07 1529.76 1564.07 Q1533.9 1564.07 1536.13 1562.66 Q1538.36 1561.23 1538.36 1558.65 Q1538.36 1556.27 1536.73 1554.99 Q1535.14 1553.72 1529.7 1552.54 L1527.66 1552.07 Q1522.22 1550.92 1519.8 1548.56 Q1517.38 1546.18 1517.38 1542.04 Q1517.38 1537.01 1520.95 1534.27 Q1524.51 1531.54 1531.07 1531.54 Q1534.31 1531.54 1537.18 1532.01 Q1540.04 1532.49 1542.46 1533.45 Z" fill="#000000" fill-rule="nonzero" fill-opacity="1" /><path clip-path="url(#clip450)" d="M1553.7 1532.4 L1559.55 1532.4 L1559.55 1568.04 L1553.7 1568.04 L1553.7 1532.4 M1553.7 1518.52 L1559.55 1518.52 L1559.55 1525.93 L1553.7 1525.93 L1553.7 1518.52 Z" fill="#000000" fill-rule="nonzero" fill-opacity="1" /><path clip-path="url(#clip450)" d="M1585.62 1536.5 Q1580.91 1536.5 1578.17 1540.19 Q1575.44 1543.85 1575.44 1550.25 Q1575.44 1556.65 1578.14 1560.34 Q1580.88 1564 1585.62 1564 Q1590.3 1564 1593.04 1560.31 Q1595.77 1556.62 1595.77 1550.25 Q1595.77 1543.92 1593.04 1540.23 Q1590.3 1536.5 1585.62 1536.5 M1585.62 1531.54 Q1593.26 1531.54 1597.62 1536.5 Q1601.98 1541.47 1601.98 1550.25 Q1601.98 1559 1597.62 1564 Q1593.26 1568.97 1585.62 1568.97 Q1577.95 1568.97 1573.59 1564 Q1569.26 1559 1569.26 1550.25 Q1569.26 1541.47 1573.59 1536.5 Q1577.95 1531.54 1585.62 1531.54 Z" fill="#000000" fill-rule="nonzero" fill-opacity="1" /><path clip-path="url(#clip450)" d="M1641.32 1546.53 L1641.32 1568.04 L1635.46 1568.04 L1635.46 1546.72 Q1635.46 1541.66 1633.49 1539.14 Q1631.52 1536.63 1627.57 1536.63 Q1622.83 1536.63 1620.09 1539.65 Q1617.35 1542.68 1617.35 1547.9 L1617.35 1568.04 L1611.47 1568.04 L1611.47 1532.4 L1617.35 1532.4 L1617.35 1537.93 Q1619.45 1534.72 1622.29 1533.13 Q1625.15 1531.54 1628.88 1531.54 Q1635.02 1531.54 1638.17 1535.36 Q1641.32 1539.14 1641.32 1546.53 Z" fill="#000000" fill-rule="nonzero" fill-opacity="1" /><polyline clip-path="url(#clip450)" style="stroke:#000000; stroke-linecap:round; stroke-linejoin:round; stroke-width:4; stroke-opacity:1; fill:none" points="251.842,1423.18 251.842,123.472 "/>
<polyline clip-path="url(#clip450)" style="stroke:#000000; stroke-linecap:round; stroke-linejoin:round; stroke-width:4; stroke-opacity:1; fill:none" points="251.842,1332.5 270.74,1332.5 "/>
<polyline clip-path="url(#clip450)" style="stroke:#000000; stroke-linecap:round; stroke-linejoin:round; stroke-width:4; stroke-opacity:1; fill:none" points="251.842,923.048 270.74,923.048 "/>
<polyline clip-path="url(#clip450)" style="stroke:#000000; stroke-linecap:round; stroke-linejoin:round; stroke-width:4; stroke-opacity:1; fill:none" points="251.842,513.601 270.74,513.601 "/>
<path clip-path="url(#clip450)" d="M114.931 1352.29 L122.57 1352.29 L122.57 1325.92 L114.26 1327.59 L114.26 1323.33 L122.524 1321.66 L127.2 1321.66 L127.2 1352.29 L134.839 1352.29 L134.839 1356.22 L114.931 1356.22 L114.931 1352.29 Z" fill="#000000" fill-rule="nonzero" fill-opacity="1" /><path clip-path="url(#clip450)" d="M154.283 1324.74 Q150.672 1324.74 148.843 1328.31 Q147.038 1331.85 147.038 1338.98 Q147.038 1346.08 148.843 1349.65 Q150.672 1353.19 154.283 1353.19 Q157.917 1353.19 159.723 1349.65 Q161.552 1346.08 161.552 1338.98 Q161.552 1331.85 159.723 1328.31 Q157.917 1324.74 154.283 1324.74 M154.283 1321.04 Q160.093 1321.04 163.149 1325.64 Q166.227 1330.23 166.227 1338.98 Q166.227 1347.7 163.149 1352.31 Q160.093 1356.89 154.283 1356.89 Q148.473 1356.89 145.394 1352.31 Q142.339 1347.7 142.339 1338.98 Q142.339 1330.23 145.394 1325.64 Q148.473 1321.04 154.283 1321.04 Z" fill="#000000" fill-rule="nonzero" fill-opacity="1" /><path clip-path="url(#clip450)" d="M166.227 1315.14 L190.339 1315.14 L190.339 1318.34 L166.227 1318.34 L166.227 1315.14 Z" fill="#000000" fill-rule="nonzero" fill-opacity="1" /><path clip-path="url(#clip450)" d="M210.05 1313.67 Q212.777 1314.26 214.3 1316.1 Q215.842 1317.94 215.842 1320.65 Q215.842 1324.81 212.984 1327.08 Q210.125 1329.36 204.859 1329.36 Q203.091 1329.36 201.21 1329 Q199.348 1328.66 197.354 1327.97 L197.354 1324.3 Q198.934 1325.22 200.815 1325.69 Q202.696 1326.16 204.746 1326.16 Q208.319 1326.16 210.181 1324.75 Q212.062 1323.34 212.062 1320.65 Q212.062 1318.17 210.313 1316.78 Q208.583 1315.36 205.479 1315.36 L202.207 1315.36 L202.207 1312.24 L205.63 1312.24 Q208.432 1312.24 209.918 1311.13 Q211.404 1310 211.404 1307.9 Q211.404 1305.74 209.861 1304.59 Q208.338 1303.42 205.479 1303.42 Q203.918 1303.42 202.132 1303.76 Q200.345 1304.1 198.201 1304.81 L198.201 1301.43 Q200.364 1300.83 202.244 1300.53 Q204.144 1300.22 205.818 1300.22 Q210.144 1300.22 212.664 1302.2 Q215.184 1304.16 215.184 1307.5 Q215.184 1309.84 213.849 1311.45 Q212.513 1313.05 210.05 1313.67 Z" fill="#000000" fill-rule="nonzero" fill-opacity="1" /><path clip-path="url(#clip450)" d="M115.703 942.84 L123.341 942.84 L123.341 916.475 L115.031 918.141 L115.031 913.882 L123.295 912.216 L127.971 912.216 L127.971 942.84 L135.61 942.84 L135.61 946.776 L115.703 946.776 L115.703 942.84 Z" fill="#000000" fill-rule="nonzero" fill-opacity="1" /><path clip-path="url(#clip450)" d="M155.054 915.294 Q151.443 915.294 149.614 918.859 Q147.809 922.401 147.809 929.53 Q147.809 936.637 149.614 940.202 Q151.443 943.743 155.054 943.743 Q158.688 943.743 160.494 940.202 Q162.323 936.637 162.323 929.53 Q162.323 922.401 160.494 918.859 Q158.688 915.294 155.054 915.294 M155.054 911.591 Q160.864 911.591 163.92 916.197 Q166.999 920.78 166.999 929.53 Q166.999 938.257 163.92 942.864 Q160.864 947.447 155.054 947.447 Q149.244 947.447 146.165 942.864 Q143.11 938.257 143.11 929.53 Q143.11 920.78 146.165 916.197 Q149.244 911.591 155.054 911.591 Z" fill="#000000" fill-rule="nonzero" fill-opacity="1" /><path clip-path="url(#clip450)" d="M166.999 905.692 L191.11 905.692 L191.11 908.889 L166.999 908.889 L166.999 905.692 Z" fill="#000000" fill-rule="nonzero" fill-opacity="1" /><path clip-path="url(#clip450)" d="M202.583 916.168 L215.842 916.168 L215.842 919.365 L198.013 919.365 L198.013 916.168 Q200.175 913.93 203.899 910.168 Q207.642 906.388 208.601 905.297 Q210.426 903.247 211.14 901.836 Q211.874 900.407 211.874 899.034 Q211.874 896.796 210.294 895.385 Q208.733 893.975 206.213 893.975 Q204.426 893.975 202.432 894.595 Q200.458 895.216 198.201 896.476 L198.201 892.639 Q200.495 891.718 202.489 891.248 Q204.482 890.777 206.138 890.777 Q210.501 890.777 213.096 892.959 Q215.692 895.141 215.692 898.789 Q215.692 900.52 215.034 902.081 Q214.394 903.623 212.683 905.73 Q212.212 906.275 209.692 908.889 Q207.172 911.485 202.583 916.168 Z" fill="#000000" fill-rule="nonzero" fill-opacity="1" /><path clip-path="url(#clip450)" d="M115.402 533.393 L123.04 533.393 L123.04 507.028 L114.73 508.694 L114.73 504.435 L122.994 502.768 L127.67 502.768 L127.67 533.393 L135.309 533.393 L135.309 537.328 L115.402 537.328 L115.402 533.393 Z" fill="#000000" fill-rule="nonzero" fill-opacity="1" /><path clip-path="url(#clip450)" d="M154.753 505.847 Q151.142 505.847 149.313 509.412 Q147.508 512.954 147.508 520.083 Q147.508 527.19 149.313 530.754 Q151.142 534.296 154.753 534.296 Q158.388 534.296 160.193 530.754 Q162.022 527.19 162.022 520.083 Q162.022 512.954 160.193 509.412 Q158.388 505.847 154.753 505.847 M154.753 502.143 Q160.563 502.143 163.619 506.75 Q166.698 511.333 166.698 520.083 Q166.698 528.81 163.619 533.416 Q160.563 538 154.753 538 Q148.943 538 145.864 533.416 Q142.809 528.81 142.809 520.083 Q142.809 511.333 145.864 506.75 Q148.943 502.143 154.753 502.143 Z" fill="#000000" fill-rule="nonzero" fill-opacity="1" /><path clip-path="url(#clip450)" d="M166.698 496.245 L190.809 496.245 L190.809 499.442 L166.698 499.442 L166.698 496.245 Z" fill="#000000" fill-rule="nonzero" fill-opacity="1" /><path clip-path="url(#clip450)" d="M199.668 506.721 L205.874 506.721 L205.874 485.299 L199.122 486.653 L199.122 483.192 L205.837 481.838 L209.636 481.838 L209.636 506.721 L215.842 506.721 L215.842 509.918 L199.668 509.918 L199.668 506.721 Z" fill="#000000" fill-rule="nonzero" fill-opacity="1" /><path clip-path="url(#clip450)" d="M18.0438 1022.54 L24.314 1022.54 Q22.5634 1026.2 21.704 1029.45 Q20.8447 1032.7 20.8447 1035.72 Q20.8447 1040.97 22.8817 1043.84 Q24.9187 1046.67 28.6745 1046.67 Q31.8255 1046.67 33.4488 1044.79 Q35.0402 1042.88 36.0269 1037.6 L36.8226 1033.72 Q38.1912 1026.52 41.6605 1023.12 Q45.098 1019.68 50.8908 1019.68 Q57.7976 1019.68 61.3624 1024.33 Q64.9272 1028.94 64.9272 1037.88 Q64.9272 1041.26 64.1633 1045.08 Q63.3994 1048.87 61.9035 1052.94 L55.2831 1052.94 Q57.4793 1049.02 58.5933 1045.27 Q59.7073 1041.51 59.7073 1037.88 Q59.7073 1032.38 57.543 1029.39 Q55.3786 1026.39 51.3682 1026.39 Q47.8671 1026.39 45.8937 1028.56 Q43.9204 1030.69 42.9337 1035.59 L42.1698 1039.51 Q40.7375 1046.7 37.682 1049.92 Q34.6264 1053.13 29.1837 1053.13 Q22.8817 1053.13 19.2532 1048.71 Q15.6248 1044.25 15.6248 1036.45 Q15.6248 1033.11 16.2295 1029.64 Q16.8343 1026.17 18.0438 1022.54 Z" fill="#000000" fill-rule="nonzero" fill-opacity="1" /><path clip-path="url(#clip450)" d="M46.0847 993.707 Q46.0847 1000.8 47.7079 1003.54 Q49.3312 1006.28 53.2461 1006.28 Q56.3653 1006.28 58.2114 1004.24 Q60.0256 1002.17 60.0256 998.64 Q60.0256 993.77 56.5881 990.842 Q53.1188 987.882 47.3897 987.882 L46.0847 987.882 L46.0847 993.707 M43.6657 982.026 L64.0042 982.026 L64.0042 987.882 L58.5933 987.882 Q61.8398 989.887 63.3994 992.879 Q64.9272 995.871 64.9272 1000.2 Q64.9272 1005.67 61.8716 1008.92 Q58.7843 1012.14 53.6281 1012.14 Q47.6125 1012.14 44.5569 1008.13 Q41.5014 1004.08 41.5014 996.094 L41.5014 987.882 L40.9285 987.882 Q36.8862 987.882 34.6901 990.556 Q32.4621 993.197 32.4621 998.004 Q32.4621 1001.06 33.1941 1003.96 Q33.9262 1006.85 35.3903 1009.53 L29.9795 1009.53 Q28.7381 1006.31 28.1334 1003.29 Q27.4968 1000.26 27.4968 997.399 Q27.4968 989.665 31.5072 985.845 Q35.5176 982.026 43.6657 982.026 Z" fill="#000000" fill-rule="nonzero" fill-opacity="1" /><path clip-path="url(#clip450)" d="M35.1993 942.208 Q31.2526 940.012 29.3747 936.956 Q27.4968 933.901 27.4968 929.763 Q27.4968 924.193 31.4117 921.17 Q35.2948 918.146 42.4881 918.146 L64.0042 918.146 L64.0042 924.034 L42.679 924.034 Q37.5546 924.034 35.072 925.848 Q32.5894 927.663 32.5894 931.386 Q32.5894 935.938 35.6131 938.58 Q38.6368 941.221 43.8567 941.221 L64.0042 941.221 L64.0042 947.11 L42.679 947.11 Q37.5228 947.11 35.072 948.924 Q32.5894 950.738 32.5894 954.526 Q32.5894 959.014 35.6449 961.655 Q38.6686 964.297 43.8567 964.297 L64.0042 964.297 L64.0042 970.185 L28.3562 970.185 L28.3562 964.297 L33.8944 964.297 Q30.616 962.292 29.0564 959.491 Q27.4968 956.69 27.4968 952.839 Q27.4968 948.956 29.4702 946.25 Q31.4436 943.513 35.1993 942.208 Z" fill="#000000" fill-rule="nonzero" fill-opacity="1" /><path clip-path="url(#clip450)" d="M58.657 900.799 L77.5631 900.799 L77.5631 906.688 L28.3562 906.688 L28.3562 900.799 L33.7671 900.799 Q30.5842 898.953 29.0564 896.152 Q27.4968 893.32 27.4968 889.405 Q27.4968 882.912 32.6531 878.869 Q37.8093 874.795 46.212 874.795 Q54.6147 874.795 59.771 878.869 Q64.9272 882.912 64.9272 889.405 Q64.9272 893.32 63.3994 896.152 Q61.8398 898.953 58.657 900.799 M46.212 880.875 Q39.7508 880.875 36.0905 883.548 Q32.3984 886.19 32.3984 890.837 Q32.3984 895.484 36.0905 898.157 Q39.7508 900.799 46.212 900.799 Q52.6732 900.799 56.3653 898.157 Q60.0256 895.484 60.0256 890.837 Q60.0256 886.19 56.3653 883.548 Q52.6732 880.875 46.212 880.875 Z" fill="#000000" fill-rule="nonzero" fill-opacity="1" /><path clip-path="url(#clip450)" d="M14.479 865.088 L14.479 859.231 L64.0042 859.231 L64.0042 865.088 L14.479 865.088 Z" fill="#000000" fill-rule="nonzero" fill-opacity="1" /><path clip-path="url(#clip450)" d="M44.7161 816.485 L47.5806 816.485 L47.5806 843.412 Q53.6281 843.03 56.8109 839.784 Q59.9619 836.506 59.9619 830.681 Q59.9619 827.307 59.1344 824.156 Q58.3069 820.973 56.6518 817.854 L62.1899 817.854 Q63.5267 821.005 64.227 824.315 Q64.9272 827.625 64.9272 831.031 Q64.9272 839.561 59.9619 844.558 Q54.9967 849.523 46.5303 849.523 Q37.7774 849.523 32.6531 844.813 Q27.4968 840.07 27.4968 832.05 Q27.4968 824.856 32.1438 820.687 Q36.7589 816.485 44.7161 816.485 M42.9973 822.342 Q38.1912 822.406 35.3266 825.047 Q32.4621 827.657 32.4621 831.986 Q32.4621 836.888 35.2312 839.848 Q38.0002 842.776 43.0292 843.221 L42.9973 822.342 Z" fill="#000000" fill-rule="nonzero" fill-opacity="1" /><path clip-path="url(#clip450)" d="M33.7671 783.416 L14.479 783.416 L14.479 777.559 L64.0042 777.559 L64.0042 783.416 L58.657 783.416 Q61.8398 785.262 63.3994 788.094 Q64.9272 790.895 64.9272 794.842 Q64.9272 801.303 59.771 805.377 Q54.6147 809.42 46.212 809.42 Q37.8093 809.42 32.6531 805.377 Q27.4968 801.303 27.4968 794.842 Q27.4968 790.895 29.0564 788.094 Q30.5842 785.262 33.7671 783.416 M46.212 803.372 Q52.6732 803.372 56.3653 800.73 Q60.0256 798.057 60.0256 793.41 Q60.0256 788.763 56.3653 786.089 Q52.6732 783.416 46.212 783.416 Q39.7508 783.416 36.0905 786.089 Q32.3984 788.763 32.3984 793.41 Q32.3984 798.057 36.0905 800.73 Q39.7508 803.372 46.212 803.372 Z" fill="#000000" fill-rule="nonzero" fill-opacity="1" /><path clip-path="url(#clip450)" d="M16.4842 744.521 L16.4842 738.092 L58.5933 738.092 L58.5933 714.952 L64.0042 714.952 L64.0042 744.521 L16.4842 744.521 Z" fill="#000000" fill-rule="nonzero" fill-opacity="1" /><path clip-path="url(#clip450)" d="M58.5933 706.518 L58.5933 696.014 L22.3406 696.014 L24.6323 707.441 L18.7758 707.441 L16.4842 696.078 L16.4842 689.649 L58.5933 689.649 L58.5933 679.145 L64.0042 679.145 L64.0042 706.518 L58.5933 706.518 Z" fill="#000000" fill-rule="nonzero" fill-opacity="1" /><path clip-path="url(#clip450)" d="M16.4842 646.012 L16.4842 615.966 L21.895 615.966 L21.895 639.582 L35.9632 639.582 L35.9632 616.952 L41.3741 616.952 L41.3741 639.582 L58.5933 639.582 L58.5933 615.393 L64.0042 615.393 L64.0042 646.012 L16.4842 646.012 Z" fill="#000000" fill-rule="nonzero" fill-opacity="1" /><path clip-path="url(#clip450)" d="M33.8307 584.424 Q33.2578 585.41 33.0032 586.588 Q32.7167 587.734 32.7167 589.134 Q32.7167 594.1 35.9632 596.773 Q39.1779 599.415 45.2253 599.415 L64.0042 599.415 L64.0042 605.303 L28.3562 605.303 L28.3562 599.415 L33.8944 599.415 Q30.6479 597.569 29.0883 594.609 Q27.4968 591.649 27.4968 587.416 Q27.4968 586.811 27.5923 586.079 Q27.656 585.347 27.8151 584.455 L33.8307 584.424 Z" fill="#000000" fill-rule="nonzero" fill-opacity="1" /><path clip-path="url(#clip450)" d="M33.8307 558.77 Q33.2578 559.757 33.0032 560.934 Q32.7167 562.08 32.7167 563.48 Q32.7167 568.446 35.9632 571.119 Q39.1779 573.761 45.2253 573.761 L64.0042 573.761 L64.0042 579.649 L28.3562 579.649 L28.3562 573.761 L33.8944 573.761 Q30.6479 571.915 29.0883 568.955 Q27.4968 565.995 27.4968 561.762 Q27.4968 561.157 27.5923 560.425 Q27.656 559.693 27.8151 558.802 L33.8307 558.77 Z" fill="#000000" fill-rule="nonzero" fill-opacity="1" /><path clip-path="url(#clip450)" d="M32.4621 540.246 Q32.4621 544.956 36.1542 547.694 Q39.8145 550.431 46.212 550.431 Q52.6095 550.431 56.3017 547.725 Q59.9619 544.988 59.9619 540.246 Q59.9619 535.567 56.2698 532.83 Q52.5777 530.092 46.212 530.092 Q39.8781 530.092 36.186 532.83 Q32.4621 535.567 32.4621 540.246 M27.4968 540.246 Q27.4968 532.607 32.4621 528.246 Q37.4273 523.886 46.212 523.886 Q54.9649 523.886 59.9619 528.246 Q64.9272 532.607 64.9272 540.246 Q64.9272 547.916 59.9619 552.277 Q54.9649 556.606 46.212 556.606 Q37.4273 556.606 32.4621 552.277 Q27.4968 547.916 27.4968 540.246 Z" fill="#000000" fill-rule="nonzero" fill-opacity="1" /><path clip-path="url(#clip450)" d="M33.8307 493.521 Q33.2578 494.508 33.0032 495.686 Q32.7167 496.832 32.7167 498.232 Q32.7167 503.197 35.9632 505.871 Q39.1779 508.513 45.2253 508.513 L64.0042 508.513 L64.0042 514.401 L28.3562 514.401 L28.3562 508.513 L33.8944 508.513 Q30.6479 506.667 29.0883 503.706 Q27.4968 500.746 27.4968 496.513 Q27.4968 495.908 27.5923 495.176 Q27.656 494.444 27.8151 493.553 L33.8307 493.521 Z" fill="#000000" fill-rule="nonzero" fill-opacity="1" /><path clip-path="url(#clip450)" d="M477.029 14.0809 L477.029 22.0612 Q472.37 19.8332 468.238 18.7395 Q464.106 17.6457 460.258 17.6457 Q453.574 17.6457 449.928 20.2383 Q446.323 22.8309 446.323 27.611 Q446.323 31.6214 448.713 33.6873 Q451.143 35.7128 457.868 36.9686 L462.81 37.9813 Q471.965 39.7232 476.3 44.1387 Q480.674 48.5136 480.674 55.8863 Q480.674 64.6767 474.76 69.2137 Q468.886 73.7508 457.503 73.7508 Q453.209 73.7508 448.348 72.7785 Q443.528 71.8063 438.343 69.9024 L438.343 61.4765 Q443.325 64.2716 448.105 65.6895 Q452.885 67.1073 457.503 67.1073 Q464.511 67.1073 468.319 64.3527 Q472.127 61.598 472.127 56.4939 Q472.127 52.0379 469.372 49.5264 Q466.658 47.0148 460.42 45.759 L455.437 44.7868 Q446.282 42.9639 442.191 39.075 Q438.099 35.1862 438.099 28.2591 Q438.099 20.2383 443.73 15.6203 Q449.402 11.0023 459.326 11.0023 Q463.58 11.0023 467.995 11.7719 Q472.411 12.5416 477.029 14.0809 Z" fill="#000000" fill-rule="nonzero" fill-opacity="1" /><path clip-path="url(#clip450)" d="M513.73 49.7694 Q504.696 49.7694 501.213 51.8354 Q497.729 53.9013 497.729 58.8839 Q497.729 62.8538 500.321 65.2034 Q502.954 67.5124 507.451 67.5124 Q513.649 67.5124 517.376 63.1374 Q521.143 58.7219 521.143 51.4303 L521.143 49.7694 L513.73 49.7694 M528.597 46.6907 L528.597 72.576 L521.143 72.576 L521.143 65.6895 Q518.591 69.8214 514.783 71.8063 Q510.975 73.7508 505.466 73.7508 Q498.498 73.7508 494.367 69.8619 Q490.275 65.9325 490.275 59.3701 Q490.275 51.7138 495.379 47.825 Q500.524 43.9361 510.692 43.9361 L521.143 43.9361 L521.143 43.2069 Q521.143 38.0623 517.74 35.2672 Q514.378 32.4315 508.261 32.4315 Q504.372 32.4315 500.686 33.3632 Q497 34.295 493.597 36.1584 L493.597 29.2718 Q497.688 27.692 501.537 26.9223 Q505.385 26.1121 509.031 26.1121 Q518.875 26.1121 523.736 31.2163 Q528.597 36.3204 528.597 46.6907 Z" fill="#000000" fill-rule="nonzero" fill-opacity="1" /><path clip-path="url(#clip450)" d="M579.273 35.9153 Q582.069 30.8922 585.957 28.5022 Q589.846 26.1121 595.113 26.1121 Q602.202 26.1121 606.05 31.0947 Q609.898 36.0368 609.898 45.1919 L609.898 72.576 L602.404 72.576 L602.404 45.4349 Q602.404 38.913 600.095 35.7533 Q597.786 32.5936 593.047 32.5936 Q587.254 32.5936 583.892 36.4419 Q580.529 40.2903 580.529 46.9338 L580.529 72.576 L573.035 72.576 L573.035 45.4349 Q573.035 38.8725 570.726 35.7533 Q568.417 32.5936 563.596 32.5936 Q557.885 32.5936 554.522 36.4824 Q551.16 40.3308 551.16 46.9338 L551.16 72.576 L543.666 72.576 L543.666 27.2059 L551.16 27.2059 L551.16 34.2544 Q553.712 30.082 557.277 28.0971 Q560.842 26.1121 565.743 26.1121 Q570.686 26.1121 574.129 28.6237 Q577.613 31.1352 579.273 35.9153 Z" fill="#000000" fill-rule="nonzero" fill-opacity="1" /><path clip-path="url(#clip450)" d="M631.976 65.7705 L631.976 89.8329 L624.482 89.8329 L624.482 27.2059 L631.976 27.2059 L631.976 34.0924 Q634.325 30.0415 637.89 28.0971 Q641.495 26.1121 646.478 26.1121 Q654.742 26.1121 659.886 32.6746 Q665.072 39.2371 665.072 49.9314 Q665.072 60.6258 659.886 67.1883 Q654.742 73.7508 646.478 73.7508 Q641.495 73.7508 637.89 71.8063 Q634.325 69.8214 631.976 65.7705 M657.334 49.9314 Q657.334 41.7081 653.932 37.0496 Q650.569 32.3505 644.655 32.3505 Q638.741 32.3505 635.338 37.0496 Q631.976 41.7081 631.976 49.9314 Q631.976 58.1548 635.338 62.8538 Q638.741 67.5124 644.655 67.5124 Q650.569 67.5124 653.932 62.8538 Q657.334 58.1548 657.334 49.9314 Z" fill="#000000" fill-rule="nonzero" fill-opacity="1" /><path clip-path="url(#clip450)" d="M677.427 9.54393 L684.881 9.54393 L684.881 72.576 L677.427 72.576 L677.427 9.54393 Z" fill="#000000" fill-rule="nonzero" fill-opacity="1" /><path clip-path="url(#clip450)" d="M739.284 48.0275 L739.284 51.6733 L705.014 51.6733 Q705.5 59.3701 709.632 63.421 Q713.804 67.4314 721.217 67.4314 Q725.511 67.4314 729.522 66.3781 Q733.572 65.3249 737.542 63.2184 L737.542 70.267 Q733.532 71.9684 729.319 72.8596 Q725.106 73.7508 720.772 73.7508 Q709.915 73.7508 703.555 67.4314 Q697.236 61.1119 697.236 50.3365 Q697.236 39.1965 703.231 32.6746 Q709.267 26.1121 719.475 26.1121 Q728.63 26.1121 733.937 32.0264 Q739.284 37.9003 739.284 48.0275 M731.831 45.84 Q731.75 39.7232 728.387 36.0774 Q725.066 32.4315 719.556 32.4315 Q713.318 32.4315 709.551 35.9558 Q705.824 39.4801 705.257 45.8805 L731.831 45.84 Z" fill="#000000" fill-rule="nonzero" fill-opacity="1" /><path clip-path="url(#clip450)" d="M781.373 34.0924 L781.373 9.54393 L788.827 9.54393 L788.827 72.576 L781.373 72.576 L781.373 65.7705 Q779.024 69.8214 775.418 71.8063 Q771.853 73.7508 766.83 73.7508 Q758.607 73.7508 753.422 67.1883 Q748.277 60.6258 748.277 49.9314 Q748.277 39.2371 753.422 32.6746 Q758.607 26.1121 766.83 26.1121 Q771.853 26.1121 775.418 28.0971 Q779.024 30.0415 781.373 34.0924 M755.974 49.9314 Q755.974 58.1548 759.336 62.8538 Q762.739 67.5124 768.653 67.5124 Q774.568 67.5124 777.97 62.8538 Q781.373 58.1548 781.373 49.9314 Q781.373 41.7081 777.97 37.0496 Q774.568 32.3505 768.653 32.3505 Q762.739 32.3505 759.336 37.0496 Q755.974 41.7081 755.974 49.9314 Z" fill="#000000" fill-rule="nonzero" fill-opacity="1" /><path clip-path="url(#clip450)" d="M830.875 12.096 L839.058 12.096 L839.058 65.6895 L868.508 65.6895 L868.508 72.576 L830.875 72.576 L830.875 12.096 Z" fill="#000000" fill-rule="nonzero" fill-opacity="1" /><path clip-path="url(#clip450)" d="M879.243 65.6895 L892.611 65.6895 L892.611 19.5497 L878.068 22.4663 L878.068 15.0127 L892.53 12.096 L900.713 12.096 L900.713 65.6895 L914.081 65.6895 L914.081 72.576 L879.243 72.576 L879.243 65.6895 Z" fill="#000000" fill-rule="nonzero" fill-opacity="1" /><path clip-path="url(#clip450)" d="M956.251 12.096 L994.491 12.096 L994.491 18.9825 L964.433 18.9825 L964.433 36.8875 L993.235 36.8875 L993.235 43.7741 L964.433 43.7741 L964.433 65.6895 L995.22 65.6895 L995.22 72.576 L956.251 72.576 L956.251 12.096 Z" fill="#000000" fill-rule="nonzero" fill-opacity="1" /><path clip-path="url(#clip450)" d="M1034.64 34.1734 Q1033.38 33.4443 1031.88 33.1202 Q1030.42 32.7556 1028.64 32.7556 Q1022.32 32.7556 1018.92 36.8875 Q1015.56 40.9789 1015.56 48.6757 L1015.56 72.576 L1008.06 72.576 L1008.06 27.2059 L1015.56 27.2059 L1015.56 34.2544 Q1017.91 30.1225 1021.67 28.1376 Q1025.44 26.1121 1030.83 26.1121 Q1031.6 26.1121 1032.53 26.2337 Q1033.46 26.3147 1034.6 26.5172 L1034.64 34.1734 Z" fill="#000000" fill-rule="nonzero" fill-opacity="1" /><path clip-path="url(#clip450)" d="M1067.29 34.1734 Q1066.03 33.4443 1064.53 33.1202 Q1063.07 32.7556 1061.29 32.7556 Q1054.97 32.7556 1051.57 36.8875 Q1048.21 40.9789 1048.21 48.6757 L1048.21 72.576 L1040.71 72.576 L1040.71 27.2059 L1048.21 27.2059 L1048.21 34.2544 Q1050.56 30.1225 1054.32 28.1376 Q1058.09 26.1121 1063.48 26.1121 Q1064.25 26.1121 1065.18 26.2337 Q1066.11 26.3147 1067.25 26.5172 L1067.29 34.1734 Z" fill="#000000" fill-rule="nonzero" fill-opacity="1" /><path clip-path="url(#clip450)" d="M1090.86 32.4315 Q1084.87 32.4315 1081.38 37.1306 Q1077.9 41.7891 1077.9 49.9314 Q1077.9 58.0738 1081.34 62.7728 Q1084.83 67.4314 1090.86 67.4314 Q1096.82 67.4314 1100.3 62.7323 Q1103.78 58.0333 1103.78 49.9314 Q1103.78 41.8701 1100.3 37.1711 Q1096.82 32.4315 1090.86 32.4315 M1090.86 26.1121 Q1100.58 26.1121 1106.13 32.4315 Q1111.68 38.7509 1111.68 49.9314 Q1111.68 61.0714 1106.13 67.4314 Q1100.58 73.7508 1090.86 73.7508 Q1081.1 73.7508 1075.55 67.4314 Q1070.04 61.0714 1070.04 49.9314 Q1070.04 38.7509 1075.55 32.4315 Q1081.1 26.1121 1090.86 26.1121 Z" fill="#000000" fill-rule="nonzero" fill-opacity="1" /><path clip-path="url(#clip450)" d="M1150.33 34.1734 Q1149.07 33.4443 1147.57 33.1202 Q1146.12 32.7556 1144.33 32.7556 Q1138.01 32.7556 1134.61 36.8875 Q1131.25 40.9789 1131.25 48.6757 L1131.25 72.576 L1123.76 72.576 L1123.76 27.2059 L1131.25 27.2059 L1131.25 34.2544 Q1133.6 30.1225 1137.37 28.1376 Q1141.13 26.1121 1146.52 26.1121 Q1147.29 26.1121 1148.22 26.2337 Q1149.15 26.3147 1150.29 26.5172 L1150.33 34.1734 Z" fill="#000000" fill-rule="nonzero" fill-opacity="1" /><path clip-path="url(#clip450)" d="M1179.17 27.2059 L1187.07 27.2059 L1201.25 65.2844 L1215.43 27.2059 L1223.33 27.2059 L1206.31 72.576 L1196.19 72.576 L1179.17 27.2059 Z" fill="#000000" fill-rule="nonzero" fill-opacity="1" /><path clip-path="url(#clip450)" d="M1262.54 28.5427 L1262.54 35.5912 Q1259.38 33.9709 1255.98 33.1607 Q1252.57 32.3505 1248.93 32.3505 Q1243.38 32.3505 1240.58 34.0519 Q1237.83 35.7533 1237.83 39.156 Q1237.83 41.7486 1239.81 43.2475 Q1241.8 44.7058 1247.79 46.0426 L1250.35 46.6097 Q1258.29 48.3111 1261.61 51.4303 Q1264.97 54.509 1264.97 60.0587 Q1264.97 66.3781 1259.95 70.0644 Q1254.96 73.7508 1246.21 73.7508 Q1242.57 73.7508 1238.6 73.0216 Q1234.67 72.3329 1230.29 70.9151 L1230.29 63.2184 Q1234.43 65.3654 1238.44 66.4591 Q1242.45 67.5124 1246.38 67.5124 Q1251.64 67.5124 1254.48 65.73 Q1257.31 63.9071 1257.31 60.6258 Q1257.31 57.5877 1255.25 55.9673 Q1253.22 54.3469 1246.3 52.8481 L1243.7 52.2405 Q1236.78 50.7821 1233.7 47.7845 Q1230.62 44.7463 1230.62 39.4801 Q1230.62 33.0797 1235.16 29.5959 Q1239.69 26.1121 1248.04 26.1121 Q1252.17 26.1121 1255.82 26.7198 Q1259.46 27.3274 1262.54 28.5427 Z" fill="#000000" fill-rule="nonzero" fill-opacity="1" /><path clip-path="url(#clip450)" d="M1303.53 12.096 L1315.73 12.096 L1331.16 53.2532 L1346.68 12.096 L1358.87 12.096 L1358.87 72.576 L1350.89 72.576 L1350.89 19.4686 L1335.29 60.9499 L1327.07 60.9499 L1311.47 19.4686 L1311.47 72.576 L1303.53 72.576 L1303.53 12.096 Z" fill="#000000" fill-rule="nonzero" fill-opacity="1" /><path clip-path="url(#clip450)" d="M1395.41 49.7694 Q1386.38 49.7694 1382.89 51.8354 Q1379.41 53.9013 1379.41 58.8839 Q1379.41 62.8538 1382 65.2034 Q1384.63 67.5124 1389.13 67.5124 Q1395.33 67.5124 1399.05 63.1374 Q1402.82 58.7219 1402.82 51.4303 L1402.82 49.7694 L1395.41 49.7694 M1410.28 46.6907 L1410.28 72.576 L1402.82 72.576 L1402.82 65.6895 Q1400.27 69.8214 1396.46 71.8063 Q1392.65 73.7508 1387.15 73.7508 Q1380.18 73.7508 1376.05 69.8619 Q1371.95 65.9325 1371.95 59.3701 Q1371.95 51.7138 1377.06 47.825 Q1382.2 43.9361 1392.37 43.9361 L1402.82 43.9361 L1402.82 43.2069 Q1402.82 38.0623 1399.42 35.2672 Q1396.06 32.4315 1389.94 32.4315 Q1386.05 32.4315 1382.37 33.3632 Q1378.68 34.295 1375.28 36.1584 L1375.28 29.2718 Q1379.37 27.692 1383.22 26.9223 Q1387.06 26.1121 1390.71 26.1121 Q1400.55 26.1121 1405.41 31.2163 Q1410.28 36.3204 1410.28 46.6907 Z" fill="#000000" fill-rule="nonzero" fill-opacity="1" /><path clip-path="url(#clip450)" d="M1463.34 27.2059 L1446.94 49.2833 L1464.19 72.576 L1455.4 72.576 L1442.2 54.752 L1428.99 72.576 L1420.2 72.576 L1437.82 48.8377 L1421.7 27.2059 L1430.49 27.2059 L1442.52 43.369 L1454.55 27.2059 L1463.34 27.2059 Z" fill="#000000" fill-rule="nonzero" fill-opacity="1" /><path clip-path="url(#clip450)" d="M1509.6 43.6931 L1509.6 65.8515 L1522.73 65.8515 Q1529.33 65.8515 1532.49 63.1374 Q1535.69 60.3828 1535.69 54.752 Q1535.69 49.0808 1532.49 46.4072 Q1529.33 43.6931 1522.73 43.6931 L1509.6 43.6931 M1509.6 18.8205 L1509.6 37.0496 L1521.72 37.0496 Q1527.71 37.0496 1530.63 34.8216 Q1533.59 32.5531 1533.59 27.935 Q1533.59 23.3575 1530.63 21.089 Q1527.71 18.8205 1521.72 18.8205 L1509.6 18.8205 M1501.42 12.096 L1522.32 12.096 Q1531.68 12.096 1536.75 15.9849 Q1541.81 19.8737 1541.81 27.0438 Q1541.81 32.5936 1539.22 35.8748 Q1536.62 39.156 1531.6 39.9662 Q1537.64 41.2625 1540.96 45.3944 Q1544.32 49.4858 1544.32 55.6432 Q1544.32 63.745 1538.81 68.1605 Q1533.3 72.576 1523.13 72.576 L1501.42 72.576 L1501.42 12.096 Z" fill="#000000" fill-rule="nonzero" fill-opacity="1" /><path clip-path="url(#clip450)" d="M1575.59 32.4315 Q1569.6 32.4315 1566.11 37.1306 Q1562.63 41.7891 1562.63 49.9314 Q1562.63 58.0738 1566.07 62.7728 Q1569.56 67.4314 1575.59 67.4314 Q1581.55 67.4314 1585.03 62.7323 Q1588.52 58.0333 1588.52 49.9314 Q1588.52 41.8701 1585.03 37.1711 Q1581.55 32.4315 1575.59 32.4315 M1575.59 26.1121 Q1585.32 26.1121 1590.87 32.4315 Q1596.42 38.7509 1596.42 49.9314 Q1596.42 61.0714 1590.87 67.4314 Q1585.32 73.7508 1575.59 73.7508 Q1565.83 73.7508 1560.28 67.4314 Q1554.77 61.0714 1554.77 49.9314 Q1554.77 38.7509 1560.28 32.4315 Q1565.83 26.1121 1575.59 26.1121 Z" fill="#000000" fill-rule="nonzero" fill-opacity="1" /><path clip-path="url(#clip450)" d="M1646.48 45.1919 L1646.48 72.576 L1639.03 72.576 L1639.03 45.4349 Q1639.03 38.994 1636.52 35.7938 Q1634.01 32.5936 1628.98 32.5936 Q1622.95 32.5936 1619.46 36.4419 Q1615.98 40.2903 1615.98 46.9338 L1615.98 72.576 L1608.49 72.576 L1608.49 27.2059 L1615.98 27.2059 L1615.98 34.2544 Q1618.65 30.163 1622.26 28.1376 Q1625.91 26.1121 1630.65 26.1121 Q1638.46 26.1121 1642.47 30.9732 Q1646.48 35.7938 1646.48 45.1919 Z" fill="#000000" fill-rule="nonzero" fill-opacity="1" /><path clip-path="url(#clip450)" d="M1691.21 34.0924 L1691.21 9.54393 L1698.66 9.54393 L1698.66 72.576 L1691.21 72.576 L1691.21 65.7705 Q1688.86 69.8214 1685.25 71.8063 Q1681.69 73.7508 1676.66 73.7508 Q1668.44 73.7508 1663.25 67.1883 Q1658.11 60.6258 1658.11 49.9314 Q1658.11 39.2371 1663.25 32.6746 Q1668.44 26.1121 1676.66 26.1121 Q1681.69 26.1121 1685.25 28.0971 Q1688.86 30.0415 1691.21 34.0924 M1665.81 49.9314 Q1665.81 58.1548 1669.17 62.8538 Q1672.57 67.5124 1678.49 67.5124 Q1684.4 67.5124 1687.8 62.8538 Q1691.21 58.1548 1691.21 49.9314 Q1691.21 41.7081 1687.8 37.0496 Q1684.4 32.3505 1678.49 32.3505 Q1672.57 32.3505 1669.17 37.0496 Q1665.81 41.7081 1665.81 49.9314 Z" fill="#000000" fill-rule="nonzero" fill-opacity="1" /><path clip-path="url(#clip450)" d="M1748.89 18.8205 L1748.89 65.8515 L1758.78 65.8515 Q1771.29 65.8515 1777.09 60.1802 Q1782.92 54.509 1782.92 42.2752 Q1782.92 30.1225 1777.09 24.4918 Q1771.29 18.8205 1758.78 18.8205 L1748.89 18.8205 M1740.71 12.096 L1757.52 12.096 Q1775.1 12.096 1783.32 19.4281 Q1791.55 26.7198 1791.55 42.2752 Q1791.55 57.9117 1783.28 65.2439 Q1775.02 72.576 1757.52 72.576 L1740.71 72.576 L1740.71 12.096 Z" fill="#000000" fill-rule="nonzero" fill-opacity="1" /><path clip-path="url(#clip450)" d="M1804.27 27.2059 L1811.72 27.2059 L1811.72 72.576 L1804.27 72.576 L1804.27 27.2059 M1804.27 9.54393 L1811.72 9.54393 L1811.72 18.9825 L1804.27 18.9825 L1804.27 9.54393 Z" fill="#000000" fill-rule="nonzero" fill-opacity="1" /><path clip-path="url(#clip450)" d="M1862.64 35.9153 Q1865.44 30.8922 1869.32 28.5022 Q1873.21 26.1121 1878.48 26.1121 Q1885.57 26.1121 1889.42 31.0947 Q1893.27 36.0368 1893.27 45.1919 L1893.27 72.576 L1885.77 72.576 L1885.77 45.4349 Q1885.77 38.913 1883.46 35.7533 Q1881.15 32.5936 1876.41 32.5936 Q1870.62 32.5936 1867.26 36.4419 Q1863.9 40.2903 1863.9 46.9338 L1863.9 72.576 L1856.4 72.576 L1856.4 45.4349 Q1856.4 38.8725 1854.09 35.7533 Q1851.78 32.5936 1846.96 32.5936 Q1841.25 32.5936 1837.89 36.4824 Q1834.53 40.3308 1834.53 46.9338 L1834.53 72.576 L1827.03 72.576 L1827.03 27.2059 L1834.53 27.2059 L1834.53 34.2544 Q1837.08 30.082 1840.64 28.0971 Q1844.21 26.1121 1849.11 26.1121 Q1854.05 26.1121 1857.5 28.6237 Q1860.98 31.1352 1862.64 35.9153 Z" fill="#000000" fill-rule="nonzero" fill-opacity="1" /><path clip-path="url(#clip450)" d="M1946.94 48.0275 L1946.94 51.6733 L1912.67 51.6733 Q1913.16 59.3701 1917.29 63.421 Q1921.46 67.4314 1928.87 67.4314 Q1933.17 67.4314 1937.18 66.3781 Q1941.23 65.3249 1945.2 63.2184 L1945.2 70.267 Q1941.19 71.9684 1936.97 72.8596 Q1932.76 73.7508 1928.43 73.7508 Q1917.57 73.7508 1911.21 67.4314 Q1904.89 61.1119 1904.89 50.3365 Q1904.89 39.1965 1910.89 32.6746 Q1916.92 26.1121 1927.13 26.1121 Q1936.29 26.1121 1941.59 32.0264 Q1946.94 37.9003 1946.94 48.0275 M1939.49 45.84 Q1939.41 39.7232 1936.04 36.0774 Q1932.72 32.4315 1927.21 32.4315 Q1920.97 32.4315 1917.21 35.9558 Q1913.48 39.4801 1912.91 45.8805 L1939.49 45.84 Z" fill="#000000" fill-rule="nonzero" fill-opacity="1" /><path clip-path="url(#clip450)" d="M1996.89 45.1919 L1996.89 72.576 L1989.43 72.576 L1989.43 45.4349 Q1989.43 38.994 1986.92 35.7938 Q1984.41 32.5936 1979.39 32.5936 Q1973.35 32.5936 1969.87 36.4419 Q1966.38 40.2903 1966.38 46.9338 L1966.38 72.576 L1958.89 72.576 L1958.89 27.2059 L1966.38 27.2059 L1966.38 34.2544 Q1969.06 30.163 1972.66 28.1376 Q1976.31 26.1121 1981.05 26.1121 Q1988.87 26.1121 1992.88 30.9732 Q1996.89 35.7938 1996.89 45.1919 Z" fill="#000000" fill-rule="nonzero" fill-opacity="1" /><path clip-path="url(#clip450)" d="M2040.68 28.5427 L2040.68 35.5912 Q2037.52 33.9709 2034.12 33.1607 Q2030.71 32.3505 2027.07 32.3505 Q2021.52 32.3505 2018.72 34.0519 Q2015.97 35.7533 2015.97 39.156 Q2015.97 41.7486 2017.95 43.2475 Q2019.94 44.7058 2025.93 46.0426 L2028.48 46.6097 Q2036.42 48.3111 2039.75 51.4303 Q2043.11 54.509 2043.11 60.0587 Q2043.11 66.3781 2038.09 70.0644 Q2033.1 73.7508 2024.35 73.7508 Q2020.71 73.7508 2016.74 73.0216 Q2012.81 72.3329 2008.43 70.9151 L2008.43 63.2184 Q2012.56 65.3654 2016.57 66.4591 Q2020.59 67.5124 2024.51 67.5124 Q2029.78 67.5124 2032.62 65.73 Q2035.45 63.9071 2035.45 60.6258 Q2035.45 57.5877 2033.39 55.9673 Q2031.36 54.3469 2024.43 52.8481 L2021.84 52.2405 Q2014.91 50.7821 2011.84 47.7845 Q2008.76 44.7463 2008.76 39.4801 Q2008.76 33.0797 2013.29 29.5959 Q2017.83 26.1121 2026.18 26.1121 Q2030.31 26.1121 2033.95 26.7198 Q2037.6 27.3274 2040.68 28.5427 Z" fill="#000000" fill-rule="nonzero" fill-opacity="1" /><path clip-path="url(#clip450)" d="M2054.98 27.2059 L2062.43 27.2059 L2062.43 72.576 L2054.98 72.576 L2054.98 27.2059 M2054.98 9.54393 L2062.43 9.54393 L2062.43 18.9825 L2054.98 18.9825 L2054.98 9.54393 Z" fill="#000000" fill-rule="nonzero" fill-opacity="1" /><path clip-path="url(#clip450)" d="M2095.61 32.4315 Q2089.61 32.4315 2086.13 37.1306 Q2082.65 41.7891 2082.65 49.9314 Q2082.65 58.0738 2086.09 62.7728 Q2089.57 67.4314 2095.61 67.4314 Q2101.56 67.4314 2105.05 62.7323 Q2108.53 58.0333 2108.53 49.9314 Q2108.53 41.8701 2105.05 37.1711 Q2101.56 32.4315 2095.61 32.4315 M2095.61 26.1121 Q2105.33 26.1121 2110.88 32.4315 Q2116.43 38.7509 2116.43 49.9314 Q2116.43 61.0714 2110.88 67.4314 Q2105.33 73.7508 2095.61 73.7508 Q2085.85 73.7508 2080.3 67.4314 Q2074.79 61.0714 2074.79 49.9314 Q2074.79 38.7509 2080.3 32.4315 Q2085.85 26.1121 2095.61 26.1121 Z" fill="#000000" fill-rule="nonzero" fill-opacity="1" /><path clip-path="url(#clip450)" d="M2166.5 45.1919 L2166.5 72.576 L2159.05 72.576 L2159.05 45.4349 Q2159.05 38.994 2156.53 35.7938 Q2154.02 32.5936 2149 32.5936 Q2142.96 32.5936 2139.48 36.4419 Q2136 40.2903 2136 46.9338 L2136 72.576 L2128.5 72.576 L2128.5 27.2059 L2136 27.2059 L2136 34.2544 Q2138.67 30.163 2142.27 28.1376 Q2145.92 26.1121 2150.66 26.1121 Q2158.48 26.1121 2162.49 30.9732 Q2166.5 35.7938 2166.5 45.1919 Z" fill="#000000" fill-rule="nonzero" fill-opacity="1" /><polyline clip-path="url(#clip452)" style="stroke:#009af9; stroke-linecap:round; stroke-linejoin:round; stroke-width:4; stroke-opacity:1; fill:none" points="311.302,206.444 531.524,224.721 751.745,239.903 971.967,247.137 1192.19,247.518 1412.41,264.54 1632.63,278.766 1852.85,281.806 2073.07,303.5 2293.3,327.022 "/>
<path clip-path="url(#clip452)" d="M311.302 222.444 L299.99 217.756 L295.302 206.444 L299.99 195.132 L311.302 190.444 L322.614 195.132 L327.302 206.444 L322.614 217.756 Z" fill="#009af9" fill-rule="evenodd" fill-opacity="1" stroke="#000000" stroke-opacity="1" stroke-width="3.2"/>
<path clip-path="url(#clip452)" d="M531.524 240.721 L520.212 236.033 L515.524 224.721 L520.212 213.409 L531.524 208.721 L542.836 213.409 L547.524 224.721 L542.836 236.033 Z" fill="#009af9" fill-rule="evenodd" fill-opacity="1" stroke="#000000" stroke-opacity="1" stroke-width="3.2"/>
<path clip-path="url(#clip452)" d="M751.745 255.903 L740.433 251.215 L735.745 239.903 L740.433 228.591 L751.745 223.903 L763.057 228.591 L767.745 239.903 L763.057 251.215 Z" fill="#009af9" fill-rule="evenodd" fill-opacity="1" stroke="#000000" stroke-opacity="1" stroke-width="3.2"/>
<path clip-path="url(#clip452)" d="M971.967 263.137 L960.655 258.449 L955.967 247.137 L960.655 235.825 L971.967 231.137 L983.279 235.825 L987.967 247.137 L983.279 258.449 Z" fill="#009af9" fill-rule="evenodd" fill-opacity="1" stroke="#000000" stroke-opacity="1" stroke-width="3.2"/>
<path clip-path="url(#clip452)" d="M1192.19 263.518 L1180.88 258.83 L1176.19 247.518 L1180.88 236.206 L1192.19 231.518 L1203.5 236.206 L1208.19 247.518 L1203.5 258.83 Z" fill="#009af9" fill-rule="evenodd" fill-opacity="1" stroke="#000000" stroke-opacity="1" stroke-width="3.2"/>
<path clip-path="url(#clip452)" d="M1412.41 280.54 L1401.1 275.852 L1396.41 264.54 L1401.1 253.228 L1412.41 248.54 L1423.72 253.228 L1428.41 264.54 L1423.72 275.852 Z" fill="#009af9" fill-rule="evenodd" fill-opacity="1" stroke="#000000" stroke-opacity="1" stroke-width="3.2"/>
<path clip-path="url(#clip452)" d="M1632.63 294.766 L1621.32 290.078 L1616.63 278.766 L1621.32 267.454 L1632.63 262.766 L1643.94 267.454 L1648.63 278.766 L1643.94 290.078 Z" fill="#009af9" fill-rule="evenodd" fill-opacity="1" stroke="#000000" stroke-opacity="1" stroke-width="3.2"/>
<path clip-path="url(#clip452)" d="M1852.85 297.806 L1841.54 293.118 L1836.85 281.806 L1841.54 270.494 L1852.85 265.806 L1864.16 270.494 L1868.85 281.806 L1864.16 293.118 Z" fill="#009af9" fill-rule="evenodd" fill-opacity="1" stroke="#000000" stroke-opacity="1" stroke-width="3.2"/>
<path clip-path="url(#clip452)" d="M2073.07 319.5 L2061.76 314.812 L2057.07 303.5 L2061.76 292.188 L2073.07 287.5 L2084.39 292.188 L2089.07 303.5 L2084.39 314.812 Z" fill="#009af9" fill-rule="evenodd" fill-opacity="1" stroke="#000000" stroke-opacity="1" stroke-width="3.2"/>
<path clip-path="url(#clip452)" d="M2293.3 343.022 L2281.98 338.334 L2277.3 327.022 L2281.98 315.71 L2293.3 311.022 L2304.61 315.71 L2309.3 327.022 L2304.61 338.334 Z" fill="#009af9" fill-rule="evenodd" fill-opacity="1" stroke="#000000" stroke-opacity="1" stroke-width="3.2"/>
<polyline clip-path="url(#clip452)" style="stroke:#e26f46; stroke-linecap:round; stroke-linejoin:round; stroke-width:4; stroke-opacity:1; fill:none" points="311.302,253.166 531.524,373.139 751.745,462.34 971.967,641.089 1192.19,694.81 1412.41,857.948 1632.63,888.617 1852.85,952.871 2073.07,984.585 2293.3,992.78 "/>
<path clip-path="url(#clip452)" d="M311.302 269.166 L299.99 264.478 L295.302 253.166 L299.99 241.854 L311.302 237.166 L322.614 241.854 L327.302 253.166 L322.614 264.478 Z" fill="#e26f46" fill-rule="evenodd" fill-opacity="1" stroke="#000000" stroke-opacity="1" stroke-width="3.2"/>
<path clip-path="url(#clip452)" d="M531.524 389.139 L520.212 384.451 L515.524 373.139 L520.212 361.827 L531.524 357.139 L542.836 361.827 L547.524 373.139 L542.836 384.451 Z" fill="#e26f46" fill-rule="evenodd" fill-opacity="1" stroke="#000000" stroke-opacity="1" stroke-width="3.2"/>
<path clip-path="url(#clip452)" d="M751.745 478.34 L740.433 473.652 L735.745 462.34 L740.433 451.028 L751.745 446.34 L763.057 451.028 L767.745 462.34 L763.057 473.652 Z" fill="#e26f46" fill-rule="evenodd" fill-opacity="1" stroke="#000000" stroke-opacity="1" stroke-width="3.2"/>
<path clip-path="url(#clip452)" d="M971.967 657.089 L960.655 652.401 L955.967 641.089 L960.655 629.777 L971.967 625.089 L983.279 629.777 L987.967 641.089 L983.279 652.401 Z" fill="#e26f46" fill-rule="evenodd" fill-opacity="1" stroke="#000000" stroke-opacity="1" stroke-width="3.2"/>
<path clip-path="url(#clip452)" d="M1192.19 710.81 L1180.88 706.122 L1176.19 694.81 L1180.88 683.498 L1192.19 678.81 L1203.5 683.498 L1208.19 694.81 L1203.5 706.122 Z" fill="#e26f46" fill-rule="evenodd" fill-opacity="1" stroke="#000000" stroke-opacity="1" stroke-width="3.2"/>
<path clip-path="url(#clip452)" d="M1412.41 873.948 L1401.1 869.26 L1396.41 857.948 L1401.1 846.636 L1412.41 841.948 L1423.72 846.636 L1428.41 857.948 L1423.72 869.26 Z" fill="#e26f46" fill-rule="evenodd" fill-opacity="1" stroke="#000000" stroke-opacity="1" stroke-width="3.2"/>
<path clip-path="url(#clip452)" d="M1632.63 904.617 L1621.32 899.929 L1616.63 888.617 L1621.32 877.305 L1632.63 872.617 L1643.94 877.305 L1648.63 888.617 L1643.94 899.929 Z" fill="#e26f46" fill-rule="evenodd" fill-opacity="1" stroke="#000000" stroke-opacity="1" stroke-width="3.2"/>
<path clip-path="url(#clip452)" d="M1852.85 968.871 L1841.54 964.183 L1836.85 952.871 L1841.54 941.559 L1852.85 936.871 L1864.16 941.559 L1868.85 952.871 L1864.16 964.183 Z" fill="#e26f46" fill-rule="evenodd" fill-opacity="1" stroke="#000000" stroke-opacity="1" stroke-width="3.2"/>
<path clip-path="url(#clip452)" d="M2073.07 1000.58 L2061.76 995.897 L2057.07 984.585 L2061.76 973.273 L2073.07 968.585 L2084.39 973.273 L2089.07 984.585 L2084.39 995.897 Z" fill="#e26f46" fill-rule="evenodd" fill-opacity="1" stroke="#000000" stroke-opacity="1" stroke-width="3.2"/>
<path clip-path="url(#clip452)" d="M2293.3 1008.78 L2281.98 1004.09 L2277.3 992.78 L2281.98 981.468 L2293.3 976.78 L2304.61 981.468 L2309.3 992.78 L2304.61 1004.09 Z" fill="#e26f46" fill-rule="evenodd" fill-opacity="1" stroke="#000000" stroke-opacity="1" stroke-width="3.2"/>
<polyline clip-path="url(#clip452)" style="stroke:#3da44d; stroke-linecap:round; stroke-linejoin:round; stroke-width:4; stroke-opacity:1; fill:none" points="311.302,247.877 531.524,392.197 751.745,577.717 971.967,810.643 1192.19,1009.89 1412.41,1179.02 1632.63,1214.32 1852.85,1286.58 2073.07,1353.44 2293.3,1386.4 "/>
<path clip-path="url(#clip452)" d="M311.302 263.877 L299.99 259.189 L295.302 247.877 L299.99 236.565 L311.302 231.877 L322.614 236.565 L327.302 247.877 L322.614 259.189 Z" fill="#3da44d" fill-rule="evenodd" fill-opacity="1" stroke="#000000" stroke-opacity="1" stroke-width="3.2"/>
<path clip-path="url(#clip452)" d="M531.524 408.197 L520.212 403.509 L515.524 392.197 L520.212 380.885 L531.524 376.197 L542.836 380.885 L547.524 392.197 L542.836 403.509 Z" fill="#3da44d" fill-rule="evenodd" fill-opacity="1" stroke="#000000" stroke-opacity="1" stroke-width="3.2"/>
<path clip-path="url(#clip452)" d="M751.745 593.717 L740.433 589.029 L735.745 577.717 L740.433 566.405 L751.745 561.717 L763.057 566.405 L767.745 577.717 L763.057 589.029 Z" fill="#3da44d" fill-rule="evenodd" fill-opacity="1" stroke="#000000" stroke-opacity="1" stroke-width="3.2"/>
<path clip-path="url(#clip452)" d="M971.967 826.643 L960.655 821.955 L955.967 810.643 L960.655 799.331 L971.967 794.643 L983.279 799.331 L987.967 810.643 L983.279 821.955 Z" fill="#3da44d" fill-rule="evenodd" fill-opacity="1" stroke="#000000" stroke-opacity="1" stroke-width="3.2"/>
<path clip-path="url(#clip452)" d="M1192.19 1025.89 L1180.88 1021.21 L1176.19 1009.89 L1180.88 998.582 L1192.19 993.894 L1203.5 998.582 L1208.19 1009.89 L1203.5 1021.21 Z" fill="#3da44d" fill-rule="evenodd" fill-opacity="1" stroke="#000000" stroke-opacity="1" stroke-width="3.2"/>
<path clip-path="url(#clip452)" d="M1412.41 1195.02 L1401.1 1190.33 L1396.41 1179.02 L1401.1 1167.71 L1412.41 1163.02 L1423.72 1167.71 L1428.41 1179.02 L1423.72 1190.33 Z" fill="#3da44d" fill-rule="evenodd" fill-opacity="1" stroke="#000000" stroke-opacity="1" stroke-width="3.2"/>
<path clip-path="url(#clip452)" d="M1632.63 1230.32 L1621.32 1225.63 L1616.63 1214.32 L1621.32 1203.01 L1632.63 1198.32 L1643.94 1203.01 L1648.63 1214.32 L1643.94 1225.63 Z" fill="#3da44d" fill-rule="evenodd" fill-opacity="1" stroke="#000000" stroke-opacity="1" stroke-width="3.2"/>
<path clip-path="url(#clip452)" d="M1852.85 1302.58 L1841.54 1297.9 L1836.85 1286.58 L1841.54 1275.27 L1852.85 1270.58 L1864.16 1275.27 L1868.85 1286.58 L1864.16 1297.9 Z" fill="#3da44d" fill-rule="evenodd" fill-opacity="1" stroke="#000000" stroke-opacity="1" stroke-width="3.2"/>
<path clip-path="url(#clip452)" d="M2073.07 1369.44 L2061.76 1364.75 L2057.07 1353.44 L2061.76 1342.13 L2073.07 1337.44 L2084.39 1342.13 L2089.07 1353.44 L2084.39 1364.75 Z" fill="#3da44d" fill-rule="evenodd" fill-opacity="1" stroke="#000000" stroke-opacity="1" stroke-width="3.2"/>
<path clip-path="url(#clip452)" d="M2293.3 1402.4 L2281.98 1397.71 L2277.3 1386.4 L2281.98 1375.08 L2293.3 1370.4 L2304.61 1375.08 L2309.3 1386.4 L2304.61 1397.71 Z" fill="#3da44d" fill-rule="evenodd" fill-opacity="1" stroke="#000000" stroke-opacity="1" stroke-width="3.2"/>
<polyline clip-path="url(#clip452)" style="stroke:#c271d2; stroke-linecap:round; stroke-linejoin:round; stroke-width:4; stroke-opacity:1; fill:none" points="311.302,243.993 531.524,459.982 751.745,628.45 971.967,783.925 1192.19,739.23 1412.41,1013.72 1632.63,1065.48 1852.85,1154.4 2073.07,1158.24 2293.3,1175.17 "/>
<path clip-path="url(#clip452)" d="M311.302 259.993 L299.99 255.305 L295.302 243.993 L299.99 232.681 L311.302 227.993 L322.614 232.681 L327.302 243.993 L322.614 255.305 Z" fill="#c271d2" fill-rule="evenodd" fill-opacity="1" stroke="#000000" stroke-opacity="1" stroke-width="3.2"/>
<path clip-path="url(#clip452)" d="M531.524 475.982 L520.212 471.294 L515.524 459.982 L520.212 448.67 L531.524 443.982 L542.836 448.67 L547.524 459.982 L542.836 471.294 Z" fill="#c271d2" fill-rule="evenodd" fill-opacity="1" stroke="#000000" stroke-opacity="1" stroke-width="3.2"/>
<path clip-path="url(#clip452)" d="M751.745 644.45 L740.433 639.762 L735.745 628.45 L740.433 617.138 L751.745 612.45 L763.057 617.138 L767.745 628.45 L763.057 639.762 Z" fill="#c271d2" fill-rule="evenodd" fill-opacity="1" stroke="#000000" stroke-opacity="1" stroke-width="3.2"/>
<path clip-path="url(#clip452)" d="M971.967 799.925 L960.655 795.237 L955.967 783.925 L960.655 772.613 L971.967 767.925 L983.279 772.613 L987.967 783.925 L983.279 795.237 Z" fill="#c271d2" fill-rule="evenodd" fill-opacity="1" stroke="#000000" stroke-opacity="1" stroke-width="3.2"/>
<path clip-path="url(#clip452)" d="M1192.19 755.23 L1180.88 750.542 L1176.19 739.23 L1180.88 727.918 L1192.19 723.23 L1203.5 727.918 L1208.19 739.23 L1203.5 750.542 Z" fill="#c271d2" fill-rule="evenodd" fill-opacity="1" stroke="#000000" stroke-opacity="1" stroke-width="3.2"/>
<path clip-path="url(#clip452)" d="M1412.41 1029.72 L1401.1 1025.03 L1396.41 1013.72 L1401.1 1002.41 L1412.41 997.721 L1423.72 1002.41 L1428.41 1013.72 L1423.72 1025.03 Z" fill="#c271d2" fill-rule="evenodd" fill-opacity="1" stroke="#000000" stroke-opacity="1" stroke-width="3.2"/>
<path clip-path="url(#clip452)" d="M1632.63 1081.48 L1621.32 1076.8 L1616.63 1065.48 L1621.32 1054.17 L1632.63 1049.48 L1643.94 1054.17 L1648.63 1065.48 L1643.94 1076.8 Z" fill="#c271d2" fill-rule="evenodd" fill-opacity="1" stroke="#000000" stroke-opacity="1" stroke-width="3.2"/>
<path clip-path="url(#clip452)" d="M1852.85 1170.4 L1841.54 1165.71 L1836.85 1154.4 L1841.54 1143.08 L1852.85 1138.4 L1864.16 1143.08 L1868.85 1154.4 L1864.16 1165.71 Z" fill="#c271d2" fill-rule="evenodd" fill-opacity="1" stroke="#000000" stroke-opacity="1" stroke-width="3.2"/>
<path clip-path="url(#clip452)" d="M2073.07 1174.24 L2061.76 1169.56 L2057.07 1158.24 L2061.76 1146.93 L2073.07 1142.24 L2084.39 1146.93 L2089.07 1158.24 L2084.39 1169.56 Z" fill="#c271d2" fill-rule="evenodd" fill-opacity="1" stroke="#000000" stroke-opacity="1" stroke-width="3.2"/>
<path clip-path="url(#clip452)" d="M2293.3 1191.17 L2281.98 1186.48 L2277.3 1175.17 L2281.98 1163.86 L2293.3 1159.17 L2304.61 1163.86 L2309.3 1175.17 L2304.61 1186.48 Z" fill="#c271d2" fill-rule="evenodd" fill-opacity="1" stroke="#000000" stroke-opacity="1" stroke-width="3.2"/>
<polyline clip-path="url(#clip452)" style="stroke:#ac8d18; stroke-linecap:round; stroke-linejoin:round; stroke-width:4; stroke-opacity:1; fill:none" points="311.302,206.775 531.524,168.053 751.745,203.682 971.967,160.256 1192.19,213.431 1412.41,259.358 1632.63,312.901 1852.85,418.149 2073.07,473.27 2293.3,519.04 "/>
<path clip-path="url(#clip452)" d="M311.302 222.775 L299.99 218.087 L295.302 206.775 L299.99 195.463 L311.302 190.775 L322.614 195.463 L327.302 206.775 L322.614 218.087 Z" fill="#ac8d18" fill-rule="evenodd" fill-opacity="1" stroke="#000000" stroke-opacity="1" stroke-width="3.2"/>
<path clip-path="url(#clip452)" d="M531.524 184.053 L520.212 179.365 L515.524 168.053 L520.212 156.741 L531.524 152.053 L542.836 156.741 L547.524 168.053 L542.836 179.365 Z" fill="#ac8d18" fill-rule="evenodd" fill-opacity="1" stroke="#000000" stroke-opacity="1" stroke-width="3.2"/>
<path clip-path="url(#clip452)" d="M751.745 219.682 L740.433 214.994 L735.745 203.682 L740.433 192.37 L751.745 187.682 L763.057 192.37 L767.745 203.682 L763.057 214.994 Z" fill="#ac8d18" fill-rule="evenodd" fill-opacity="1" stroke="#000000" stroke-opacity="1" stroke-width="3.2"/>
<path clip-path="url(#clip452)" d="M971.967 176.256 L960.655 171.568 L955.967 160.256 L960.655 148.944 L971.967 144.256 L983.279 148.944 L987.967 160.256 L983.279 171.568 Z" fill="#ac8d18" fill-rule="evenodd" fill-opacity="1" stroke="#000000" stroke-opacity="1" stroke-width="3.2"/>
<path clip-path="url(#clip452)" d="M1192.19 229.431 L1180.88 224.743 L1176.19 213.431 L1180.88 202.119 L1192.19 197.431 L1203.5 202.119 L1208.19 213.431 L1203.5 224.743 Z" fill="#ac8d18" fill-rule="evenodd" fill-opacity="1" stroke="#000000" stroke-opacity="1" stroke-width="3.2"/>
<path clip-path="url(#clip452)" d="M1412.41 275.358 L1401.1 270.67 L1396.41 259.358 L1401.1 248.046 L1412.41 243.358 L1423.72 248.046 L1428.41 259.358 L1423.72 270.67 Z" fill="#ac8d18" fill-rule="evenodd" fill-opacity="1" stroke="#000000" stroke-opacity="1" stroke-width="3.2"/>
<path clip-path="url(#clip452)" d="M1632.63 328.901 L1621.32 324.213 L1616.63 312.901 L1621.32 301.589 L1632.63 296.901 L1643.94 301.589 L1648.63 312.901 L1643.94 324.213 Z" fill="#ac8d18" fill-rule="evenodd" fill-opacity="1" stroke="#000000" stroke-opacity="1" stroke-width="3.2"/>
<path clip-path="url(#clip452)" d="M1852.85 434.149 L1841.54 429.461 L1836.85 418.149 L1841.54 406.837 L1852.85 402.149 L1864.16 406.837 L1868.85 418.149 L1864.16 429.461 Z" fill="#ac8d18" fill-rule="evenodd" fill-opacity="1" stroke="#000000" stroke-opacity="1" stroke-width="3.2"/>
<path clip-path="url(#clip452)" d="M2073.07 489.27 L2061.76 484.582 L2057.07 473.27 L2061.76 461.958 L2073.07 457.27 L2084.39 461.958 L2089.07 473.27 L2084.39 484.582 Z" fill="#ac8d18" fill-rule="evenodd" fill-opacity="1" stroke="#000000" stroke-opacity="1" stroke-width="3.2"/>
<path clip-path="url(#clip452)" d="M2293.3 535.04 L2281.98 530.352 L2277.3 519.04 L2281.98 507.728 L2293.3 503.04 L2304.61 507.728 L2309.3 519.04 L2304.61 530.352 Z" fill="#ac8d18" fill-rule="evenodd" fill-opacity="1" stroke="#000000" stroke-opacity="1" stroke-width="3.2"/>
<path clip-path="url(#clip450)" d="M1794.49 477.836 L2282.73 477.836 L2282.73 166.796 L1794.49 166.796  Z" fill="#ffffff" fill-rule="evenodd" fill-opacity="1"/>
<polyline clip-path="url(#clip450)" style="stroke:#000000; stroke-linecap:round; stroke-linejoin:round; stroke-width:4; stroke-opacity:1; fill:none" points="1794.49,477.836 2282.73,477.836 2282.73,166.796 1794.49,166.796 1794.49,477.836 "/>
<polyline clip-path="url(#clip450)" style="stroke:#009af9; stroke-linecap:round; stroke-linejoin:round; stroke-width:4; stroke-opacity:1; fill:none" points="1817.83,218.636 1957.89,218.636 "/>
<path clip-path="url(#clip450)" d="M1887.86 240.25 L1872.58 233.917 L1866.25 218.636 L1872.58 203.354 L1887.86 197.021 L1903.14 203.354 L1909.48 218.636 L1903.14 233.917 Z" fill="#009af9" fill-rule="evenodd" fill-opacity="1" stroke="#000000" stroke-opacity="1" stroke-width="4.55111"/>
<path clip-path="url(#clip450)" d="M1981.24 201.356 L2001.1 201.356 L2001.1 205.291 L1985.91 205.291 L1985.91 215.476 L1999.61 215.476 L1999.61 219.411 L1985.91 219.411 L1985.91 235.916 L1981.24 235.916 L1981.24 201.356 Z" fill="#000000" fill-rule="nonzero" fill-opacity="1" /><path clip-path="url(#clip450)" d="M2005.29 225.684 L2005.29 209.99 L2009.55 209.99 L2009.55 225.522 Q2009.55 229.203 2010.98 231.055 Q2012.42 232.883 2015.29 232.883 Q2018.74 232.883 2020.73 230.684 Q2022.74 228.485 2022.74 224.689 L2022.74 209.99 L2027 209.99 L2027 235.916 L2022.74 235.916 L2022.74 231.934 Q2021.19 234.295 2019.13 235.453 Q2017.09 236.587 2014.38 236.587 Q2009.92 236.587 2007.6 233.809 Q2005.29 231.031 2005.29 225.684 M2016 209.365 L2016 209.365 Z" fill="#000000" fill-rule="nonzero" fill-opacity="1" /><path clip-path="url(#clip450)" d="M2052.3 210.754 L2052.3 214.782 Q2050.49 213.856 2048.55 213.393 Q2046.61 212.93 2044.52 212.93 Q2041.35 212.93 2039.75 213.902 Q2038.18 214.874 2038.18 216.819 Q2038.18 218.3 2039.31 219.157 Q2040.45 219.99 2043.87 220.754 L2045.33 221.078 Q2049.87 222.05 2051.77 223.832 Q2053.69 225.592 2053.69 228.763 Q2053.69 232.374 2050.82 234.481 Q2047.97 236.587 2042.97 236.587 Q2040.89 236.587 2038.62 236.17 Q2036.37 235.777 2033.87 234.967 L2033.87 230.569 Q2036.24 231.795 2038.53 232.42 Q2040.82 233.022 2043.06 233.022 Q2046.07 233.022 2047.69 232.004 Q2049.31 230.962 2049.31 229.087 Q2049.31 227.351 2048.13 226.425 Q2046.98 225.499 2043.02 224.643 L2041.54 224.295 Q2037.58 223.462 2035.82 221.749 Q2034.06 220.013 2034.06 217.004 Q2034.06 213.346 2036.65 211.356 Q2039.24 209.365 2044.01 209.365 Q2046.37 209.365 2048.46 209.712 Q2050.54 210.059 2052.3 210.754 Z" fill="#000000" fill-rule="nonzero" fill-opacity="1" /><path clip-path="url(#clip450)" d="M2082.65 221.888 L2082.65 223.971 L2063.06 223.971 Q2063.34 228.369 2065.7 230.684 Q2068.09 232.976 2072.32 232.976 Q2074.78 232.976 2077.07 232.374 Q2079.38 231.772 2081.65 230.569 L2081.65 234.596 Q2079.36 235.568 2076.95 236.078 Q2074.54 236.587 2072.07 236.587 Q2065.86 236.587 2062.23 232.976 Q2058.62 229.365 2058.62 223.207 Q2058.62 216.842 2062.05 213.115 Q2065.49 209.365 2071.33 209.365 Q2076.56 209.365 2079.59 212.745 Q2082.65 216.101 2082.65 221.888 M2078.39 220.638 Q2078.34 217.143 2076.42 215.059 Q2074.52 212.976 2071.37 212.976 Q2067.81 212.976 2065.66 214.99 Q2063.53 217.004 2063.2 220.661 L2078.39 220.638 Z" fill="#000000" fill-rule="nonzero" fill-opacity="1" /><path clip-path="url(#clip450)" d="M2106.7 213.925 L2106.7 199.897 L2110.96 199.897 L2110.96 235.916 L2106.7 235.916 L2106.7 232.027 Q2105.36 234.342 2103.29 235.476 Q2101.26 236.587 2098.39 236.587 Q2093.69 236.587 2090.73 232.837 Q2087.79 229.087 2087.79 222.976 Q2087.79 216.865 2090.73 213.115 Q2093.69 209.365 2098.39 209.365 Q2101.26 209.365 2103.29 210.499 Q2105.36 211.61 2106.7 213.925 M2092.18 222.976 Q2092.18 227.675 2094.11 230.36 Q2096.05 233.022 2099.43 233.022 Q2102.81 233.022 2104.75 230.36 Q2106.7 227.675 2106.7 222.976 Q2106.7 218.277 2104.75 215.615 Q2102.81 212.93 2099.43 212.93 Q2096.05 212.93 2094.11 215.615 Q2092.18 218.277 2092.18 222.976 Z" fill="#000000" fill-rule="nonzero" fill-opacity="1" /><path clip-path="url(#clip450)" d="M2139.43 243.786 L2139.43 247.096 L2114.8 247.096 L2114.8 243.786 L2139.43 243.786 Z" fill="#000000" fill-rule="nonzero" fill-opacity="1" /><path clip-path="url(#clip450)" d="M2148.29 219.411 L2148.29 232.073 L2155.79 232.073 Q2159.57 232.073 2161.37 230.522 Q2163.2 228.948 2163.2 225.731 Q2163.2 222.49 2161.37 220.962 Q2159.57 219.411 2155.79 219.411 L2148.29 219.411 M2148.29 205.198 L2148.29 215.615 L2155.22 215.615 Q2158.64 215.615 2160.31 214.342 Q2162 213.045 2162 210.407 Q2162 207.791 2160.31 206.495 Q2158.64 205.198 2155.22 205.198 L2148.29 205.198 M2143.62 201.356 L2155.56 201.356 Q2160.91 201.356 2163.8 203.578 Q2166.7 205.8 2166.7 209.897 Q2166.7 213.069 2165.22 214.944 Q2163.73 216.819 2160.86 217.282 Q2164.31 218.022 2166.21 220.383 Q2168.13 222.721 2168.13 226.24 Q2168.13 230.869 2164.98 233.393 Q2161.84 235.916 2156.03 235.916 L2143.62 235.916 L2143.62 201.356 Z" fill="#000000" fill-rule="nonzero" fill-opacity="1" /><path clip-path="url(#clip450)" d="M2171.35 201.356 L2200.59 201.356 L2200.59 205.291 L2188.32 205.291 L2188.32 235.916 L2183.62 235.916 L2183.62 205.291 L2171.35 205.291 L2171.35 201.356 Z" fill="#000000" fill-rule="nonzero" fill-opacity="1" /><path clip-path="url(#clip450)" d="M2199.47 201.356 L2228.71 201.356 L2228.71 205.291 L2216.44 205.291 L2216.44 235.916 L2211.74 235.916 L2211.74 205.291 L2199.47 205.291 L2199.47 201.356 Z" fill="#000000" fill-rule="nonzero" fill-opacity="1" /><path clip-path="url(#clip450)" d="M2233.22 201.356 L2239.52 201.356 L2254.84 230.268 L2254.84 201.356 L2259.38 201.356 L2259.38 235.916 L2253.09 235.916 L2237.76 207.004 L2237.76 235.916 L2233.22 235.916 L2233.22 201.356 Z" fill="#000000" fill-rule="nonzero" fill-opacity="1" /><polyline clip-path="url(#clip450)" style="stroke:#e26f46; stroke-linecap:round; stroke-linejoin:round; stroke-width:4; stroke-opacity:1; fill:none" points="1817.83,270.476 1957.89,270.476 "/>
<path clip-path="url(#clip450)" d="M1887.86 292.09 L1872.58 285.757 L1866.25 270.476 L1872.58 255.194 L1887.86 248.861 L1903.14 255.194 L1909.48 270.476 L1903.14 285.757 Z" fill="#e26f46" fill-rule="evenodd" fill-opacity="1" stroke="#000000" stroke-opacity="1" stroke-width="4.55111"/>
<path clip-path="url(#clip450)" d="M1997.25 256.367 Q1992.16 256.367 1989.15 260.163 Q1986.17 263.96 1986.17 270.51 Q1986.17 277.038 1989.15 280.834 Q1992.16 284.631 1997.25 284.631 Q2002.35 284.631 2005.31 280.834 Q2008.3 277.038 2008.3 270.51 Q2008.3 263.96 2005.31 260.163 Q2002.35 256.367 1997.25 256.367 M2003.8 287.131 L2009.96 293.867 L2004.31 293.867 L1999.2 288.334 Q1998.43 288.381 1998.02 288.404 Q1997.62 288.427 1997.25 288.427 Q1989.96 288.427 1985.59 283.566 Q1981.24 278.682 1981.24 270.51 Q1981.24 262.316 1985.59 257.455 Q1989.96 252.571 1997.25 252.571 Q2004.52 252.571 2008.87 257.455 Q2013.23 262.316 2013.23 270.51 Q2013.23 276.529 2010.8 280.811 Q2008.39 285.094 2003.8 287.131 Z" fill="#000000" fill-rule="nonzero" fill-opacity="1" /><path clip-path="url(#clip450)" d="M2015.75 253.196 L2044.98 253.196 L2044.98 257.131 L2032.72 257.131 L2032.72 287.756 L2028.02 287.756 L2028.02 257.131 L2015.75 257.131 L2015.75 253.196 Z" fill="#000000" fill-rule="nonzero" fill-opacity="1" /><path clip-path="url(#clip450)" d="M2043.87 253.196 L2073.11 253.196 L2073.11 257.131 L2060.84 257.131 L2060.84 287.756 L2056.14 287.756 L2056.14 257.131 L2043.87 257.131 L2043.87 253.196 Z" fill="#000000" fill-rule="nonzero" fill-opacity="1" /><path clip-path="url(#clip450)" d="M2097.14 295.626 L2097.14 298.936 L2072.51 298.936 L2072.51 295.626 L2097.14 295.626 Z" fill="#000000" fill-rule="nonzero" fill-opacity="1" /><path clip-path="url(#clip450)" d="M2122.04 254.33 L2122.04 258.89 Q2119.38 257.617 2117.02 256.992 Q2114.66 256.367 2112.46 256.367 Q2108.64 256.367 2106.56 257.848 Q2104.5 259.33 2104.5 262.061 Q2104.5 264.353 2105.86 265.534 Q2107.25 266.691 2111.1 267.409 L2113.92 267.987 Q2119.15 268.983 2121.63 271.506 Q2124.13 274.006 2124.13 278.219 Q2124.13 283.242 2120.75 285.834 Q2117.39 288.427 2110.89 288.427 Q2108.43 288.427 2105.66 287.871 Q2102.9 287.316 2099.94 286.228 L2099.94 281.413 Q2102.79 283.01 2105.52 283.821 Q2108.25 284.631 2110.89 284.631 Q2114.89 284.631 2117.07 283.057 Q2119.24 281.483 2119.24 278.566 Q2119.24 276.02 2117.67 274.584 Q2116.12 273.149 2112.55 272.432 L2109.71 271.876 Q2104.48 270.835 2102.14 268.612 Q2099.8 266.39 2099.8 262.432 Q2099.8 257.848 2103.02 255.21 Q2106.26 252.571 2111.93 252.571 Q2114.36 252.571 2116.88 253.011 Q2119.41 253.45 2122.04 254.33 Z" fill="#000000" fill-rule="nonzero" fill-opacity="1" /><path clip-path="url(#clip450)" d="M2153.41 273.728 L2153.41 275.811 L2133.83 275.811 Q2134.1 280.209 2136.47 282.524 Q2138.85 284.816 2143.09 284.816 Q2145.54 284.816 2147.83 284.214 Q2150.15 283.612 2152.41 282.409 L2152.41 286.436 Q2150.12 287.408 2147.72 287.918 Q2145.31 288.427 2142.83 288.427 Q2136.63 288.427 2132.99 284.816 Q2129.38 281.205 2129.38 275.047 Q2129.38 268.682 2132.81 264.955 Q2136.26 261.205 2142.09 261.205 Q2147.32 261.205 2150.35 264.585 Q2153.41 267.941 2153.41 273.728 M2149.15 272.478 Q2149.1 268.983 2147.18 266.899 Q2145.29 264.816 2142.14 264.816 Q2138.57 264.816 2136.42 266.83 Q2134.29 268.844 2133.97 272.501 L2149.15 272.478 Z" fill="#000000" fill-rule="nonzero" fill-opacity="1" /><path clip-path="url(#clip450)" d="M2162.95 274.816 Q2162.95 279.515 2164.87 282.2 Q2166.81 284.862 2170.19 284.862 Q2173.57 284.862 2175.52 282.2 Q2177.46 279.515 2177.46 274.816 Q2177.46 270.117 2175.52 267.455 Q2173.57 264.77 2170.19 264.77 Q2166.81 264.77 2164.87 267.455 Q2162.95 270.117 2162.95 274.816 M2177.46 283.867 Q2176.12 286.182 2174.06 287.316 Q2172.02 288.427 2169.15 288.427 Q2164.45 288.427 2161.49 284.677 Q2158.55 280.927 2158.55 274.816 Q2158.55 268.705 2161.49 264.955 Q2164.45 261.205 2169.15 261.205 Q2172.02 261.205 2174.06 262.339 Q2176.12 263.45 2177.46 265.765 L2177.46 261.83 L2181.72 261.83 L2181.72 297.617 L2177.46 297.617 L2177.46 283.867 Z" fill="#000000" fill-rule="nonzero" fill-opacity="1" /><polyline clip-path="url(#clip450)" style="stroke:#3da44d; stroke-linecap:round; stroke-linejoin:round; stroke-width:4; stroke-opacity:1; fill:none" points="1817.83,322.316 1957.89,322.316 "/>
<path clip-path="url(#clip450)" d="M1887.86 343.93 L1872.58 337.597 L1866.25 322.316 L1872.58 307.034 L1887.86 300.701 L1903.14 307.034 L1909.48 322.316 L1903.14 337.597 Z" fill="#3da44d" fill-rule="evenodd" fill-opacity="1" stroke="#000000" stroke-opacity="1" stroke-width="4.55111"/>
<path clip-path="url(#clip450)" d="M1985.91 323.091 L1985.91 335.753 L1993.41 335.753 Q1997.18 335.753 1998.99 334.202 Q2000.82 332.628 2000.82 329.411 Q2000.82 326.17 1998.99 324.642 Q1997.18 323.091 1993.41 323.091 L1985.91 323.091 M1985.91 308.878 L1985.91 319.295 L1992.83 319.295 Q1996.26 319.295 1997.93 318.022 Q1999.61 316.725 1999.61 314.087 Q1999.61 311.471 1997.93 310.175 Q1996.26 308.878 1992.83 308.878 L1985.91 308.878 M1981.24 305.036 L1993.18 305.036 Q1998.53 305.036 2001.42 307.258 Q2004.31 309.48 2004.31 313.577 Q2004.31 316.749 2002.83 318.624 Q2001.35 320.499 1998.48 320.962 Q2001.93 321.702 2003.83 324.063 Q2005.75 326.401 2005.75 329.92 Q2005.75 334.549 2002.6 337.073 Q1999.45 339.596 1993.64 339.596 L1981.24 339.596 L1981.24 305.036 Z" fill="#000000" fill-rule="nonzero" fill-opacity="1" /><path clip-path="url(#clip450)" d="M2008.97 305.036 L2038.2 305.036 L2038.2 308.971 L2025.93 308.971 L2025.93 339.596 L2021.24 339.596 L2021.24 308.971 L2008.97 308.971 L2008.97 305.036 Z" fill="#000000" fill-rule="nonzero" fill-opacity="1" /><path clip-path="url(#clip450)" d="M2037.09 305.036 L2066.33 305.036 L2066.33 308.971 L2054.06 308.971 L2054.06 339.596 L2049.36 339.596 L2049.36 308.971 L2037.09 308.971 L2037.09 305.036 Z" fill="#000000" fill-rule="nonzero" fill-opacity="1" /><path clip-path="url(#clip450)" d="M2070.84 305.036 L2077.14 305.036 L2092.46 333.948 L2092.46 305.036 L2097 305.036 L2097 339.596 L2090.7 339.596 L2075.38 310.684 L2075.38 339.596 L2070.84 339.596 L2070.84 305.036 Z" fill="#000000" fill-rule="nonzero" fill-opacity="1" /><polyline clip-path="url(#clip450)" style="stroke:#c271d2; stroke-linecap:round; stroke-linejoin:round; stroke-width:4; stroke-opacity:1; fill:none" points="1817.83,374.156 1957.89,374.156 "/>
<path clip-path="url(#clip450)" d="M1887.86 395.77 L1872.58 389.437 L1866.25 374.156 L1872.58 358.874 L1887.86 352.541 L1903.14 358.874 L1909.48 374.156 L1903.14 389.437 Z" fill="#c271d2" fill-rule="evenodd" fill-opacity="1" stroke="#000000" stroke-opacity="1" stroke-width="4.55111"/>
<path clip-path="url(#clip450)" d="M2009.11 359.538 L2009.11 364.468 Q2006.74 362.269 2004.06 361.181 Q2001.4 360.093 1998.39 360.093 Q1992.46 360.093 1989.31 363.728 Q1986.17 367.339 1986.17 374.19 Q1986.17 381.019 1989.31 384.653 Q1992.46 388.264 1998.39 388.264 Q2001.4 388.264 2004.06 387.176 Q2006.74 386.089 2009.11 383.889 L2009.11 388.774 Q2006.65 390.44 2003.9 391.274 Q2001.17 392.107 1998.11 392.107 Q1990.26 392.107 1985.75 387.315 Q1981.24 382.501 1981.24 374.19 Q1981.24 365.857 1985.75 361.066 Q1990.26 356.251 1998.11 356.251 Q2001.21 356.251 2003.94 357.084 Q2006.7 357.894 2009.11 359.538 Z" fill="#000000" fill-rule="nonzero" fill-opacity="1" /><path clip-path="url(#clip450)" d="M2011.54 356.876 L2040.77 356.876 L2040.77 360.811 L2028.5 360.811 L2028.5 391.436 L2023.8 391.436 L2023.8 360.811 L2011.54 360.811 L2011.54 356.876 Z" fill="#000000" fill-rule="nonzero" fill-opacity="1" /><path clip-path="url(#clip450)" d="M2039.66 356.876 L2068.9 356.876 L2068.9 360.811 L2056.63 360.811 L2056.63 391.436 L2051.93 391.436 L2051.93 360.811 L2039.66 360.811 L2039.66 356.876 Z" fill="#000000" fill-rule="nonzero" fill-opacity="1" /><path clip-path="url(#clip450)" d="M2073.41 356.876 L2079.71 356.876 L2095.03 385.788 L2095.03 356.876 L2099.57 356.876 L2099.57 391.436 L2093.27 391.436 L2077.95 362.524 L2077.95 391.436 L2073.41 391.436 L2073.41 356.876 Z" fill="#000000" fill-rule="nonzero" fill-opacity="1" /><polyline clip-path="url(#clip450)" style="stroke:#ac8d18; stroke-linecap:round; stroke-linejoin:round; stroke-width:4; stroke-opacity:1; fill:none" points="1817.83,425.996 1957.89,425.996 "/>
<path clip-path="url(#clip450)" d="M1887.86 447.61 L1872.58 441.277 L1866.25 425.996 L1872.58 410.714 L1887.86 404.381 L1903.14 410.714 L1909.48 425.996 L1903.14 441.277 Z" fill="#ac8d18" fill-rule="evenodd" fill-opacity="1" stroke="#000000" stroke-opacity="1" stroke-width="4.55111"/>
<path clip-path="url(#clip450)" d="M1997.25 411.887 Q1992.16 411.887 1989.15 415.683 Q1986.17 419.48 1986.17 426.03 Q1986.17 432.558 1989.15 436.354 Q1992.16 440.151 1997.25 440.151 Q2002.35 440.151 2005.31 436.354 Q2008.3 432.558 2008.3 426.03 Q2008.3 419.48 2005.31 415.683 Q2002.35 411.887 1997.25 411.887 M2003.8 442.651 L2009.96 449.387 L2004.31 449.387 L1999.2 443.854 Q1998.43 443.901 1998.02 443.924 Q1997.62 443.947 1997.25 443.947 Q1989.96 443.947 1985.59 439.086 Q1981.24 434.202 1981.24 426.03 Q1981.24 417.836 1985.59 412.975 Q1989.96 408.091 1997.25 408.091 Q2004.52 408.091 2008.87 412.975 Q2013.23 417.836 2013.23 426.03 Q2013.23 432.049 2010.8 436.331 Q2008.39 440.614 2003.8 442.651 Z" fill="#000000" fill-rule="nonzero" fill-opacity="1" /><path clip-path="url(#clip450)" d="M2015.75 408.716 L2044.98 408.716 L2044.98 412.651 L2032.72 412.651 L2032.72 443.276 L2028.02 443.276 L2028.02 412.651 L2015.75 412.651 L2015.75 408.716 Z" fill="#000000" fill-rule="nonzero" fill-opacity="1" /><path clip-path="url(#clip450)" d="M2043.87 408.716 L2073.11 408.716 L2073.11 412.651 L2060.84 412.651 L2060.84 443.276 L2056.14 443.276 L2056.14 412.651 L2043.87 412.651 L2043.87 408.716 Z" fill="#000000" fill-rule="nonzero" fill-opacity="1" /><path clip-path="url(#clip450)" d="M2097.14 451.146 L2097.14 454.456 L2072.51 454.456 L2072.51 451.146 L2097.14 451.146 Z" fill="#000000" fill-rule="nonzero" fill-opacity="1" /><path clip-path="url(#clip450)" d="M2101.33 408.716 L2106 408.716 L2106 443.276 L2101.33 443.276 L2101.33 408.716 Z" fill="#000000" fill-rule="nonzero" fill-opacity="1" /><path clip-path="url(#clip450)" d="M2136.67 427.628 L2136.67 443.276 L2132.42 443.276 L2132.42 427.767 Q2132.42 424.086 2130.98 422.257 Q2129.54 420.429 2126.67 420.429 Q2123.23 420.429 2121.23 422.628 Q2119.24 424.827 2119.24 428.623 L2119.24 443.276 L2114.96 443.276 L2114.96 417.35 L2119.24 417.35 L2119.24 421.378 Q2120.77 419.04 2122.83 417.882 Q2124.92 416.725 2127.62 416.725 Q2132.09 416.725 2134.38 419.503 Q2136.67 422.257 2136.67 427.628 Z" fill="#000000" fill-rule="nonzero" fill-opacity="1" /><path clip-path="url(#clip450)" d="M2149.38 409.989 L2149.38 417.35 L2158.16 417.35 L2158.16 420.66 L2149.38 420.66 L2149.38 434.734 Q2149.38 437.905 2150.24 438.808 Q2151.12 439.711 2153.78 439.711 L2158.16 439.711 L2158.16 443.276 L2153.78 443.276 Q2148.85 443.276 2146.98 441.447 Q2145.1 439.595 2145.1 434.734 L2145.1 420.66 L2141.98 420.66 L2141.98 417.35 L2145.1 417.35 L2145.1 409.989 L2149.38 409.989 Z" fill="#000000" fill-rule="nonzero" fill-opacity="1" /></svg>
