<?xml version="1.0" encoding="utf-8"?>
<svg xmlns="http://www.w3.org/2000/svg" xmlns:xlink="http://www.w3.org/1999/xlink" width="600" height="400" viewBox="0 0 2400 1600">
<defs>
  <clipPath id="clip600">
    <rect x="0" y="0" width="2400" height="1600"/>
  </clipPath>
</defs>
<path clip-path="url(#clip600)" d="M0 1600 L2400 1600 L2400 8.88178e-14 L0 8.88178e-14  Z" fill="#ffffff" fill-rule="evenodd" fill-opacity="1"/>
<defs>
  <clipPath id="clip601">
    <rect x="480" y="0" width="1681" height="1600"/>
  </clipPath>
</defs>
<path clip-path="url(#clip600)" d="M276.876 1423.18 L2352.76 1423.18 L2352.76 123.472 L276.876 123.472  Z" fill="#ffffff" fill-rule="evenodd" fill-opacity="1"/>
<defs>
  <clipPath id="clip602">
    <rect x="276" y="123" width="2077" height="1301"/>
  </clipPath>
</defs>
<polyline clip-path="url(#clip602)" style="stroke:#000000; stroke-linecap:round; stroke-linejoin:round; stroke-width:2; stroke-opacity:0.1; fill:none" points="480.692,1423.18 480.692,123.472 "/>
<polyline clip-path="url(#clip602)" style="stroke:#000000; stroke-linecap:round; stroke-linejoin:round; stroke-width:2; stroke-opacity:0.1; fill:none" points="843.354,1423.18 843.354,123.472 "/>
<polyline clip-path="url(#clip602)" style="stroke:#000000; stroke-linecap:round; stroke-linejoin:round; stroke-width:2; stroke-opacity:0.1; fill:none" points="1206.02,1423.18 1206.02,123.472 "/>
<polyline clip-path="url(#clip602)" style="stroke:#000000; stroke-linecap:round; stroke-linejoin:round; stroke-width:2; stroke-opacity:0.1; fill:none" points="1568.68,1423.18 1568.68,123.472 "/>
<polyline clip-path="url(#clip602)" style="stroke:#000000; stroke-linecap:round; stroke-linejoin:round; stroke-width:2; stroke-opacity:0.1; fill:none" points="1931.34,1423.18 1931.34,123.472 "/>
<polyline clip-path="url(#clip602)" style="stroke:#000000; stroke-linecap:round; stroke-linejoin:round; stroke-width:2; stroke-opacity:0.1; fill:none" points="2294,1423.18 2294,123.472 "/>
<polyline clip-path="url(#clip602)" style="stroke:#000000; stroke-linecap:round; stroke-linejoin:round; stroke-width:2; stroke-opacity:0.1; fill:none" points="276.876,991.7 2352.76,991.7 "/>
<polyline clip-path="url(#clip602)" style="stroke:#000000; stroke-linecap:round; stroke-linejoin:round; stroke-width:2; stroke-opacity:0.1; fill:none" points="276.876,158.322 2352.76,158.322 "/>
<polyline clip-path="url(#clip600)" style="stroke:#000000; stroke-linecap:round; stroke-linejoin:round; stroke-width:4; stroke-opacity:1; fill:none" points="276.876,1423.18 2352.76,1423.18 "/>
<polyline clip-path="url(#clip600)" style="stroke:#000000; stroke-linecap:round; stroke-linejoin:round; stroke-width:4; stroke-opacity:1; fill:none" points="480.692,1423.18 480.692,1404.28 "/>
<polyline clip-path="url(#clip600)" style="stroke:#000000; stroke-linecap:round; stroke-linejoin:round; stroke-width:4; stroke-opacity:1; fill:none" points="843.354,1423.18 843.354,1404.28 "/>
<polyline clip-path="url(#clip600)" style="stroke:#000000; stroke-linecap:round; stroke-linejoin:round; stroke-width:4; stroke-opacity:1; fill:none" points="1206.02,1423.18 1206.02,1404.28 "/>
<polyline clip-path="url(#clip600)" style="stroke:#000000; stroke-linecap:round; stroke-linejoin:round; stroke-width:4; stroke-opacity:1; fill:none" points="1568.68,1423.18 1568.68,1404.28 "/>
<polyline clip-path="url(#clip600)" style="stroke:#000000; stroke-linecap:round; stroke-linejoin:round; stroke-width:4; stroke-opacity:1; fill:none" points="1931.34,1423.18 1931.34,1404.28 "/>
<polyline clip-path="url(#clip600)" style="stroke:#000000; stroke-linecap:round; stroke-linejoin:round; stroke-width:4; stroke-opacity:1; fill:none" points="2294,1423.18 2294,1404.28 "/>
<path clip-path="url(#clip600)" d="M470.97 1451.02 L489.326 1451.02 L489.326 1454.96 L475.252 1454.96 L475.252 1463.43 Q476.271 1463.08 477.289 1462.92 Q478.308 1462.73 479.326 1462.73 Q485.113 1462.73 488.493 1465.9 Q491.872 1469.08 491.872 1474.49 Q491.872 1480.07 488.4 1483.17 Q484.928 1486.25 478.609 1486.25 Q476.433 1486.25 474.164 1485.88 Q471.919 1485.51 469.511 1484.77 L469.511 1480.07 Q471.595 1481.2 473.817 1481.76 Q476.039 1482.32 478.516 1482.32 Q482.521 1482.32 484.859 1480.21 Q487.196 1478.1 487.196 1474.49 Q487.196 1470.88 484.859 1468.77 Q482.521 1466.67 478.516 1466.67 Q476.641 1466.67 474.766 1467.08 Q472.914 1467.5 470.97 1468.38 L470.97 1451.02 Z" fill="#000000" fill-rule="nonzero" fill-opacity="1" /><path clip-path="url(#clip600)" d="M818.042 1481.64 L825.681 1481.64 L825.681 1455.28 L817.371 1456.95 L817.371 1452.69 L825.635 1451.02 L830.31 1451.02 L830.31 1481.64 L837.949 1481.64 L837.949 1485.58 L818.042 1485.58 L818.042 1481.64 Z" fill="#000000" fill-rule="nonzero" fill-opacity="1" /><path clip-path="url(#clip600)" d="M857.394 1454.1 Q853.783 1454.1 851.954 1457.66 Q850.148 1461.2 850.148 1468.33 Q850.148 1475.44 851.954 1479.01 Q853.783 1482.55 857.394 1482.55 Q861.028 1482.55 862.833 1479.01 Q864.662 1475.44 864.662 1468.33 Q864.662 1461.2 862.833 1457.66 Q861.028 1454.1 857.394 1454.1 M857.394 1450.39 Q863.204 1450.39 866.259 1455 Q869.338 1459.58 869.338 1468.33 Q869.338 1477.06 866.259 1481.67 Q863.204 1486.25 857.394 1486.25 Q851.584 1486.25 848.505 1481.67 Q845.449 1477.06 845.449 1468.33 Q845.449 1459.58 848.505 1455 Q851.584 1450.39 857.394 1450.39 Z" fill="#000000" fill-rule="nonzero" fill-opacity="1" /><path clip-path="url(#clip600)" d="M1181.2 1481.64 L1188.84 1481.64 L1188.84 1455.28 L1180.53 1456.95 L1180.53 1452.69 L1188.79 1451.02 L1193.47 1451.02 L1193.47 1481.64 L1201.11 1481.64 L1201.11 1485.58 L1181.2 1485.58 L1181.2 1481.64 Z" fill="#000000" fill-rule="nonzero" fill-opacity="1" /><path clip-path="url(#clip600)" d="M1210.6 1451.02 L1228.96 1451.02 L1228.96 1454.96 L1214.88 1454.96 L1214.88 1463.43 Q1215.9 1463.08 1216.92 1462.92 Q1217.94 1462.73 1218.96 1462.73 Q1224.74 1462.73 1228.12 1465.9 Q1231.5 1469.08 1231.5 1474.49 Q1231.5 1480.07 1228.03 1483.17 Q1224.56 1486.25 1218.24 1486.25 Q1216.06 1486.25 1213.79 1485.88 Q1211.55 1485.51 1209.14 1484.77 L1209.14 1480.07 Q1211.23 1481.2 1213.45 1481.76 Q1215.67 1482.32 1218.15 1482.32 Q1222.15 1482.32 1224.49 1480.21 Q1226.83 1478.1 1226.83 1474.49 Q1226.83 1470.88 1224.49 1468.77 Q1222.15 1466.67 1218.15 1466.67 Q1216.27 1466.67 1214.4 1467.08 Q1212.54 1467.5 1210.6 1468.38 L1210.6 1451.02 Z" fill="#000000" fill-rule="nonzero" fill-opacity="1" /><path clip-path="url(#clip600)" d="M1547.45 1481.64 L1563.77 1481.64 L1563.77 1485.58 L1541.83 1485.58 L1541.83 1481.64 Q1544.49 1478.89 1549.07 1474.26 Q1553.68 1469.61 1554.86 1468.27 Q1557.11 1465.74 1557.99 1464.01 Q1558.89 1462.25 1558.89 1460.56 Q1558.89 1457.8 1556.94 1456.07 Q1555.02 1454.33 1551.92 1454.33 Q1549.72 1454.33 1547.27 1455.09 Q1544.84 1455.86 1542.06 1457.41 L1542.06 1452.69 Q1544.88 1451.55 1547.34 1450.97 Q1549.79 1450.39 1551.83 1450.39 Q1557.2 1450.39 1560.39 1453.08 Q1563.59 1455.77 1563.59 1460.26 Q1563.59 1462.39 1562.78 1464.31 Q1561.99 1466.2 1559.88 1468.8 Q1559.3 1469.47 1556.2 1472.69 Q1553.1 1475.88 1547.45 1481.64 Z" fill="#000000" fill-rule="nonzero" fill-opacity="1" /><path clip-path="url(#clip600)" d="M1583.59 1454.1 Q1579.98 1454.1 1578.15 1457.66 Q1576.34 1461.2 1576.34 1468.33 Q1576.34 1475.44 1578.15 1479.01 Q1579.98 1482.55 1583.59 1482.55 Q1587.22 1482.55 1589.03 1479.01 Q1590.86 1475.44 1590.86 1468.33 Q1590.86 1461.2 1589.03 1457.66 Q1587.22 1454.1 1583.59 1454.1 M1583.59 1450.39 Q1589.4 1450.39 1592.45 1455 Q1595.53 1459.58 1595.53 1468.33 Q1595.53 1477.06 1592.45 1481.67 Q1589.4 1486.25 1583.59 1486.25 Q1577.78 1486.25 1574.7 1481.67 Q1571.64 1477.06 1571.64 1468.33 Q1571.64 1459.58 1574.7 1455 Q1577.78 1450.39 1583.59 1450.39 Z" fill="#000000" fill-rule="nonzero" fill-opacity="1" /><path clip-path="url(#clip600)" d="M1910.61 1481.64 L1926.93 1481.64 L1926.93 1485.58 L1904.99 1485.58 L1904.99 1481.64 Q1907.65 1478.89 1912.23 1474.26 Q1916.84 1469.61 1918.02 1468.27 Q1920.27 1465.74 1921.15 1464.01 Q1922.05 1462.25 1922.05 1460.56 Q1922.05 1457.8 1920.1 1456.07 Q1918.18 1454.33 1915.08 1454.33 Q1912.88 1454.33 1910.43 1455.09 Q1908 1455.86 1905.22 1457.41 L1905.22 1452.69 Q1908.04 1451.55 1910.5 1450.97 Q1912.95 1450.39 1914.99 1450.39 Q1920.36 1450.39 1923.55 1453.08 Q1926.75 1455.77 1926.75 1460.26 Q1926.75 1462.39 1925.94 1464.31 Q1925.15 1466.2 1923.04 1468.8 Q1922.46 1469.47 1919.36 1472.69 Q1916.26 1475.88 1910.61 1481.64 Z" fill="#000000" fill-rule="nonzero" fill-opacity="1" /><path clip-path="url(#clip600)" d="M1936.79 1451.02 L1955.15 1451.02 L1955.15 1454.96 L1941.08 1454.96 L1941.08 1463.43 Q1942.09 1463.08 1943.11 1462.92 Q1944.13 1462.73 1945.15 1462.73 Q1950.94 1462.73 1954.32 1465.9 Q1957.7 1469.08 1957.7 1474.49 Q1957.7 1480.07 1954.22 1483.17 Q1950.75 1486.25 1944.43 1486.25 Q1942.26 1486.25 1939.99 1485.88 Q1937.74 1485.51 1935.34 1484.77 L1935.34 1480.07 Q1937.42 1481.2 1939.64 1481.76 Q1941.86 1482.32 1944.34 1482.32 Q1948.34 1482.32 1950.68 1480.21 Q1953.02 1478.1 1953.02 1474.49 Q1953.02 1470.88 1950.68 1468.77 Q1948.34 1466.67 1944.34 1466.67 Q1942.46 1466.67 1940.59 1467.08 Q1938.74 1467.5 1936.79 1468.38 L1936.79 1451.02 Z" fill="#000000" fill-rule="nonzero" fill-opacity="1" /><path clip-path="url(#clip600)" d="M2282.85 1466.95 Q2286.2 1467.66 2288.08 1469.93 Q2289.98 1472.2 2289.98 1475.53 Q2289.98 1480.65 2286.46 1483.45 Q2282.94 1486.25 2276.46 1486.25 Q2274.28 1486.25 2271.97 1485.81 Q2269.68 1485.39 2267.22 1484.54 L2267.22 1480.02 Q2269.17 1481.16 2271.48 1481.74 Q2273.8 1482.32 2276.32 1482.32 Q2280.72 1482.32 2283.01 1480.58 Q2285.32 1478.84 2285.32 1475.53 Q2285.32 1472.48 2283.17 1470.77 Q2281.04 1469.03 2277.22 1469.03 L2273.19 1469.03 L2273.19 1465.19 L2277.41 1465.19 Q2280.86 1465.19 2282.69 1463.82 Q2284.51 1462.43 2284.51 1459.84 Q2284.51 1457.18 2282.62 1455.77 Q2280.74 1454.33 2277.22 1454.33 Q2275.3 1454.33 2273.1 1454.75 Q2270.9 1455.16 2268.26 1456.04 L2268.26 1451.88 Q2270.93 1451.14 2273.24 1450.77 Q2275.58 1450.39 2277.64 1450.39 Q2282.96 1450.39 2286.06 1452.83 Q2289.17 1455.23 2289.17 1459.35 Q2289.17 1462.22 2287.52 1464.21 Q2285.88 1466.18 2282.85 1466.95 Z" fill="#000000" fill-rule="nonzero" fill-opacity="1" /><path clip-path="url(#clip600)" d="M2308.84 1454.1 Q2305.23 1454.1 2303.4 1457.66 Q2301.6 1461.2 2301.6 1468.33 Q2301.6 1475.44 2303.4 1479.01 Q2305.23 1482.55 2308.84 1482.55 Q2312.48 1482.55 2314.28 1479.01 Q2316.11 1475.44 2316.11 1468.33 Q2316.11 1461.2 2314.28 1457.66 Q2312.48 1454.1 2308.84 1454.1 M2308.84 1450.39 Q2314.65 1450.39 2317.71 1455 Q2320.79 1459.58 2320.79 1468.33 Q2320.79 1477.06 2317.71 1481.67 Q2314.65 1486.25 2308.84 1486.25 Q2303.03 1486.25 2299.95 1481.67 Q2296.9 1477.06 2296.9 1468.33 Q2296.9 1459.58 2299.95 1455 Q2303.03 1450.39 2308.84 1450.39 Z" fill="#000000" fill-rule="nonzero" fill-opacity="1" /><path clip-path="url(#clip600)" d="M975.794 1520.52 L985.374 1520.52 L997.501 1552.86 L1009.69 1520.52 L1019.27 1520.52 L1019.27 1568.04 L1013 1568.04 L1013 1526.32 L1000.75 1558.91 L994.286 1558.91 L982.032 1526.32 L982.032 1568.04 L975.794 1568.04 L975.794 1520.52 Z" fill="#000000" fill-rule="nonzero" fill-opacity="1" /><path clip-path="url(#clip600)" d="M1047.98 1550.12 Q1040.88 1550.12 1038.15 1551.75 Q1035.41 1553.37 1035.41 1557.29 Q1035.41 1560.4 1037.45 1562.25 Q1039.51 1564.07 1043.05 1564.07 Q1047.92 1564.07 1050.85 1560.63 Q1053.81 1557.16 1053.81 1551.43 L1053.81 1550.12 L1047.98 1550.12 M1059.66 1547.71 L1059.66 1568.04 L1053.81 1568.04 L1053.81 1562.63 Q1051.8 1565.88 1048.81 1567.44 Q1045.82 1568.97 1041.49 1568.97 Q1036.01 1568.97 1032.77 1565.91 Q1029.55 1562.82 1029.55 1557.67 Q1029.55 1551.65 1033.56 1548.6 Q1037.61 1545.54 1045.59 1545.54 L1053.81 1545.54 L1053.81 1544.97 Q1053.81 1540.93 1051.13 1538.73 Q1048.49 1536.5 1043.68 1536.5 Q1040.63 1536.5 1037.73 1537.23 Q1034.84 1537.97 1032.16 1539.43 L1032.16 1534.02 Q1035.38 1532.78 1038.4 1532.17 Q1041.42 1531.54 1044.29 1531.54 Q1052.02 1531.54 1055.84 1535.55 Q1059.66 1539.56 1059.66 1547.71 Z" fill="#000000" fill-rule="nonzero" fill-opacity="1" /><path clip-path="url(#clip600)" d="M1101.36 1532.4 L1088.47 1549.74 L1102.03 1568.04 L1095.12 1568.04 L1084.74 1554.04 L1074.37 1568.04 L1067.46 1568.04 L1081.31 1549.39 L1068.64 1532.4 L1075.54 1532.4 L1085 1545.1 L1094.45 1532.4 L1101.36 1532.4 Z" fill="#000000" fill-rule="nonzero" fill-opacity="1" /><path clip-path="url(#clip600)" d="M1137.71 1545.35 L1137.71 1562.76 L1148.02 1562.76 Q1153.21 1562.76 1155.69 1560.63 Q1158.2 1558.46 1158.2 1554.04 Q1158.2 1549.58 1155.69 1547.48 Q1153.21 1545.35 1148.02 1545.35 L1137.71 1545.35 M1137.71 1525.81 L1137.71 1540.13 L1147.22 1540.13 Q1151.93 1540.13 1154.22 1538.38 Q1156.55 1536.6 1156.55 1532.97 Q1156.55 1529.37 1154.22 1527.59 Q1151.93 1525.81 1147.22 1525.81 L1137.71 1525.81 M1131.28 1520.52 L1147.7 1520.52 Q1155.05 1520.52 1159.03 1523.58 Q1163.01 1526.63 1163.01 1532.27 Q1163.01 1536.63 1160.97 1539.21 Q1158.94 1541.79 1154.99 1542.42 Q1159.73 1543.44 1162.34 1546.69 Q1164.98 1549.9 1164.98 1554.74 Q1164.98 1561.11 1160.65 1564.57 Q1156.33 1568.04 1148.34 1568.04 L1131.28 1568.04 L1131.28 1520.52 Z" fill="#000000" fill-rule="nonzero" fill-opacity="1" /><path clip-path="url(#clip600)" d="M1189.55 1536.5 Q1184.84 1536.5 1182.11 1540.19 Q1179.37 1543.85 1179.37 1550.25 Q1179.37 1556.65 1182.07 1560.34 Q1184.81 1564 1189.55 1564 Q1194.23 1564 1196.97 1560.31 Q1199.71 1556.62 1199.71 1550.25 Q1199.71 1543.92 1196.97 1540.23 Q1194.23 1536.5 1189.55 1536.5 M1189.55 1531.54 Q1197.19 1531.54 1201.55 1536.5 Q1205.91 1541.47 1205.91 1550.25 Q1205.91 1559 1201.55 1564 Q1197.19 1568.97 1189.55 1568.97 Q1181.88 1568.97 1177.52 1564 Q1173.19 1559 1173.19 1550.25 Q1173.19 1541.47 1177.52 1536.5 Q1181.88 1531.54 1189.55 1531.54 Z" fill="#000000" fill-rule="nonzero" fill-opacity="1" /><path clip-path="url(#clip600)" d="M1245.25 1546.53 L1245.25 1568.04 L1239.4 1568.04 L1239.4 1546.72 Q1239.4 1541.66 1237.42 1539.14 Q1235.45 1536.63 1231.5 1536.63 Q1226.76 1536.63 1224.02 1539.65 Q1221.29 1542.68 1221.29 1547.9 L1221.29 1568.04 L1215.4 1568.04 L1215.4 1532.4 L1221.29 1532.4 L1221.29 1537.93 Q1223.39 1534.72 1226.22 1533.13 Q1229.09 1531.54 1232.81 1531.54 Q1238.95 1531.54 1242.1 1535.36 Q1245.25 1539.14 1245.25 1546.53 Z" fill="#000000" fill-rule="nonzero" fill-opacity="1" /><path clip-path="url(#clip600)" d="M1280.39 1537.81 L1280.39 1518.52 L1286.25 1518.52 L1286.25 1568.04 L1280.39 1568.04 L1280.39 1562.7 Q1278.55 1565.88 1275.71 1567.44 Q1272.91 1568.97 1268.97 1568.97 Q1262.51 1568.97 1258.43 1563.81 Q1254.39 1558.65 1254.39 1550.25 Q1254.39 1541.85 1258.43 1536.69 Q1262.51 1531.54 1268.97 1531.54 Q1272.91 1531.54 1275.71 1533.1 Q1278.55 1534.62 1280.39 1537.81 M1260.44 1550.25 Q1260.44 1556.71 1263.08 1560.4 Q1265.75 1564.07 1270.4 1564.07 Q1275.05 1564.07 1277.72 1560.4 Q1280.39 1556.71 1280.39 1550.25 Q1280.39 1543.79 1277.72 1540.13 Q1275.05 1536.44 1270.4 1536.44 Q1265.75 1536.44 1263.08 1540.13 Q1260.44 1543.79 1260.44 1550.25 Z" fill="#000000" fill-rule="nonzero" fill-opacity="1" /><path clip-path="url(#clip600)" d="M1325.72 1525.81 L1325.72 1562.76 L1333.48 1562.76 Q1343.32 1562.76 1347.87 1558.3 Q1352.45 1553.85 1352.45 1544.24 Q1352.45 1534.69 1347.87 1530.26 Q1343.32 1525.81 1333.48 1525.81 L1325.72 1525.81 M1319.29 1520.52 L1332.5 1520.52 Q1346.31 1520.52 1352.77 1526.28 Q1359.23 1532.01 1359.23 1544.24 Q1359.23 1556.52 1352.74 1562.28 Q1346.25 1568.04 1332.5 1568.04 L1319.29 1568.04 L1319.29 1520.52 Z" fill="#000000" fill-rule="nonzero" fill-opacity="1" /><path clip-path="url(#clip600)" d="M1369.23 1532.4 L1375.08 1532.4 L1375.08 1568.04 L1369.23 1568.04 L1369.23 1532.4 M1369.23 1518.52 L1375.08 1518.52 L1375.08 1525.93 L1369.23 1525.93 L1369.23 1518.52 Z" fill="#000000" fill-rule="nonzero" fill-opacity="1" /><path clip-path="url(#clip600)" d="M1415.09 1539.24 Q1417.29 1535.29 1420.34 1533.41 Q1423.4 1531.54 1427.54 1531.54 Q1433.11 1531.54 1436.13 1535.45 Q1439.15 1539.33 1439.15 1546.53 L1439.15 1568.04 L1433.27 1568.04 L1433.27 1546.72 Q1433.27 1541.59 1431.45 1539.11 Q1429.64 1536.63 1425.91 1536.63 Q1421.36 1536.63 1418.72 1539.65 Q1416.08 1542.68 1416.08 1547.9 L1416.08 1568.04 L1410.19 1568.04 L1410.19 1546.72 Q1410.19 1541.56 1408.38 1539.11 Q1406.56 1536.63 1402.77 1536.63 Q1398.29 1536.63 1395.64 1539.68 Q1393 1542.71 1393 1547.9 L1393 1568.04 L1387.11 1568.04 L1387.11 1532.4 L1393 1532.4 L1393 1537.93 Q1395.01 1534.66 1397.81 1533.1 Q1400.61 1531.54 1404.46 1531.54 Q1408.34 1531.54 1411.05 1533.51 Q1413.79 1535.48 1415.09 1539.24 Z" fill="#000000" fill-rule="nonzero" fill-opacity="1" /><path clip-path="url(#clip600)" d="M1481.33 1548.76 L1481.33 1551.62 L1454.4 1551.62 Q1454.78 1557.67 1458.03 1560.85 Q1461.31 1564 1467.13 1564 Q1470.5 1564 1473.66 1563.17 Q1476.84 1562.35 1479.96 1560.69 L1479.96 1566.23 Q1476.81 1567.57 1473.5 1568.27 Q1470.19 1568.97 1466.78 1568.97 Q1458.25 1568.97 1453.25 1564 Q1448.29 1559.04 1448.29 1550.57 Q1448.29 1541.82 1453 1536.69 Q1457.74 1531.54 1465.76 1531.54 Q1472.96 1531.54 1477.13 1536.18 Q1481.33 1540.8 1481.33 1548.76 M1475.47 1547.04 Q1475.41 1542.23 1472.76 1539.37 Q1470.15 1536.5 1465.83 1536.5 Q1460.92 1536.5 1457.96 1539.27 Q1455.04 1542.04 1454.59 1547.07 L1475.47 1547.04 Z" fill="#000000" fill-rule="nonzero" fill-opacity="1" /><path clip-path="url(#clip600)" d="M1520.57 1546.53 L1520.57 1568.04 L1514.71 1568.04 L1514.71 1546.72 Q1514.71 1541.66 1512.74 1539.14 Q1510.77 1536.63 1506.82 1536.63 Q1502.08 1536.63 1499.34 1539.65 Q1496.6 1542.68 1496.6 1547.9 L1496.6 1568.04 L1490.72 1568.04 L1490.72 1532.4 L1496.6 1532.4 L1496.6 1537.93 Q1498.71 1534.72 1501.54 1533.13 Q1504.4 1531.54 1508.13 1531.54 Q1514.27 1531.54 1517.42 1535.36 Q1520.57 1539.14 1520.57 1546.53 Z" fill="#000000" fill-rule="nonzero" fill-opacity="1" /><path clip-path="url(#clip600)" d="M1554.98 1533.45 L1554.98 1538.98 Q1552.5 1537.71 1549.82 1537.07 Q1547.15 1536.44 1544.28 1536.44 Q1539.92 1536.44 1537.73 1537.77 Q1535.56 1539.11 1535.56 1541.79 Q1535.56 1543.82 1537.12 1545 Q1538.68 1546.15 1543.39 1547.2 L1545.4 1547.64 Q1551.64 1548.98 1554.25 1551.43 Q1556.89 1553.85 1556.89 1558.21 Q1556.89 1563.17 1552.94 1566.07 Q1549.03 1568.97 1542.15 1568.97 Q1539.29 1568.97 1536.17 1568.39 Q1533.08 1567.85 1529.64 1566.74 L1529.64 1560.69 Q1532.89 1562.38 1536.04 1563.24 Q1539.19 1564.07 1542.28 1564.07 Q1546.42 1564.07 1548.64 1562.66 Q1550.87 1561.23 1550.87 1558.65 Q1550.87 1556.27 1549.25 1554.99 Q1547.66 1553.72 1542.21 1552.54 L1540.18 1552.07 Q1534.73 1550.92 1532.32 1548.56 Q1529.9 1546.18 1529.9 1542.04 Q1529.9 1537.01 1533.46 1534.27 Q1537.03 1531.54 1543.58 1531.54 Q1546.83 1531.54 1549.69 1532.01 Q1552.56 1532.49 1554.98 1533.45 Z" fill="#000000" fill-rule="nonzero" fill-opacity="1" /><path clip-path="url(#clip600)" d="M1566.21 1532.4 L1572.07 1532.4 L1572.07 1568.04 L1566.21 1568.04 L1566.21 1532.4 M1566.21 1518.52 L1572.07 1518.52 L1572.07 1525.93 L1566.21 1525.93 L1566.21 1518.52 Z" fill="#000000" fill-rule="nonzero" fill-opacity="1" /><path clip-path="url(#clip600)" d="M1598.14 1536.5 Q1593.43 1536.5 1590.69 1540.19 Q1587.95 1543.85 1587.95 1550.25 Q1587.95 1556.65 1590.66 1560.34 Q1593.39 1564 1598.14 1564 Q1602.82 1564 1605.55 1560.31 Q1608.29 1556.62 1608.29 1550.25 Q1608.29 1543.92 1605.55 1540.23 Q1602.82 1536.5 1598.14 1536.5 M1598.14 1531.54 Q1605.78 1531.54 1610.14 1536.5 Q1614.5 1541.47 1614.5 1550.25 Q1614.5 1559 1610.14 1564 Q1605.78 1568.97 1598.14 1568.97 Q1590.47 1568.97 1586.11 1564 Q1581.78 1559 1581.78 1550.25 Q1581.78 1541.47 1586.11 1536.5 Q1590.47 1531.54 1598.14 1531.54 Z" fill="#000000" fill-rule="nonzero" fill-opacity="1" /><path clip-path="url(#clip600)" d="M1653.84 1546.53 L1653.84 1568.04 L1647.98 1568.04 L1647.98 1546.72 Q1647.98 1541.66 1646.01 1539.14 Q1644.03 1536.63 1640.09 1536.63 Q1635.34 1536.63 1632.61 1539.65 Q1629.87 1542.68 1629.87 1547.9 L1629.87 1568.04 L1623.98 1568.04 L1623.98 1532.4 L1629.87 1532.4 L1629.87 1537.93 Q1631.97 1534.72 1634.8 1533.13 Q1637.67 1531.54 1641.39 1531.54 Q1647.54 1531.54 1650.69 1535.36 Q1653.84 1539.14 1653.84 1546.53 Z" fill="#000000" fill-rule="nonzero" fill-opacity="1" /><polyline clip-path="url(#clip600)" style="stroke:#000000; stroke-linecap:round; stroke-linejoin:round; stroke-width:4; stroke-opacity:1; fill:none" points="276.876,1423.18 276.876,123.472 "/>
<polyline clip-path="url(#clip600)" style="stroke:#000000; stroke-linecap:round; stroke-linejoin:round; stroke-width:4; stroke-opacity:1; fill:none" points="276.876,991.7 295.773,991.7 "/>
<polyline clip-path="url(#clip600)" style="stroke:#000000; stroke-linecap:round; stroke-linejoin:round; stroke-width:4; stroke-opacity:1; fill:none" points="276.876,158.322 295.773,158.322 "/>
<path clip-path="url(#clip600)" d="M114.931 1011.49 L122.57 1011.49 L122.57 985.126 L114.26 986.793 L114.26 982.534 L122.524 980.867 L127.2 980.867 L127.2 1011.49 L134.839 1011.49 L134.839 1015.43 L114.931 1015.43 L114.931 1011.49 Z" fill="#000000" fill-rule="nonzero" fill-opacity="1" /><path clip-path="url(#clip600)" d="M154.283 983.946 Q150.672 983.946 148.843 987.511 Q147.038 991.052 147.038 998.182 Q147.038 1005.29 148.843 1008.85 Q150.672 1012.39 154.283 1012.39 Q157.917 1012.39 159.723 1008.85 Q161.552 1005.29 161.552 998.182 Q161.552 991.052 159.723 987.511 Q157.917 983.946 154.283 983.946 M154.283 980.242 Q160.093 980.242 163.149 984.849 Q166.227 989.432 166.227 998.182 Q166.227 1006.91 163.149 1011.52 Q160.093 1016.1 154.283 1016.1 Q148.473 1016.1 145.394 1011.52 Q142.339 1006.91 142.339 998.182 Q142.339 989.432 145.394 984.849 Q148.473 980.242 154.283 980.242 Z" fill="#000000" fill-rule="nonzero" fill-opacity="1" /><path clip-path="url(#clip600)" d="M166.227 974.344 L190.339 974.344 L190.339 977.541 L166.227 977.541 L166.227 974.344 Z" fill="#000000" fill-rule="nonzero" fill-opacity="1" /><path clip-path="url(#clip600)" d="M199.197 984.819 L205.404 984.819 L205.404 963.397 L198.652 964.752 L198.652 961.291 L205.366 959.937 L209.166 959.937 L209.166 984.819 L215.372 984.819 L215.372 988.017 L199.197 988.017 L199.197 984.819 Z" fill="#000000" fill-rule="nonzero" fill-opacity="1" /><path clip-path="url(#clip600)" d="M231.171 962.438 Q228.237 962.438 226.751 965.335 Q225.284 968.212 225.284 974.005 Q225.284 979.779 226.751 982.675 Q228.237 985.553 231.171 985.553 Q234.124 985.553 235.591 982.675 Q237.076 979.779 237.076 974.005 Q237.076 968.212 235.591 965.335 Q234.124 962.438 231.171 962.438 M231.171 959.429 Q235.891 959.429 238.374 963.172 Q240.876 966.896 240.876 974.005 Q240.876 981.096 238.374 984.838 Q235.891 988.562 231.171 988.562 Q226.45 988.562 223.949 984.838 Q221.466 981.096 221.466 974.005 Q221.466 966.896 223.949 963.172 Q226.45 959.429 231.171 959.429 Z" fill="#000000" fill-rule="nonzero" fill-opacity="1" /><path clip-path="url(#clip600)" d="M170.17 178.114 L177.809 178.114 L177.809 151.749 L169.499 153.415 L169.499 149.156 L177.762 147.489 L182.438 147.489 L182.438 178.114 L190.077 178.114 L190.077 182.049 L170.17 182.049 L170.17 178.114 Z" fill="#000000" fill-rule="nonzero" fill-opacity="1" /><path clip-path="url(#clip600)" d="M209.522 150.568 Q205.91 150.568 204.082 154.133 Q202.276 157.674 202.276 164.804 Q202.276 171.91 204.082 175.475 Q205.91 179.017 209.522 179.017 Q213.156 179.017 214.961 175.475 Q216.79 171.91 216.79 164.804 Q216.79 157.674 214.961 154.133 Q213.156 150.568 209.522 150.568 M209.522 146.864 Q215.332 146.864 218.387 151.471 Q221.466 156.054 221.466 164.804 Q221.466 173.531 218.387 178.137 Q215.332 182.721 209.522 182.721 Q203.711 182.721 200.633 178.137 Q197.577 173.531 197.577 164.804 Q197.577 156.054 200.633 151.471 Q203.711 146.864 209.522 146.864 Z" fill="#000000" fill-rule="nonzero" fill-opacity="1" /><path clip-path="url(#clip600)" d="M231.171 129.06 Q228.237 129.06 226.751 131.957 Q225.284 134.834 225.284 140.627 Q225.284 146.401 226.751 149.298 Q228.237 152.175 231.171 152.175 Q234.124 152.175 235.591 149.298 Q237.076 146.401 237.076 140.627 Q237.076 134.834 235.591 131.957 Q234.124 129.06 231.171 129.06 M231.171 126.051 Q235.891 126.051 238.374 129.794 Q240.876 133.518 240.876 140.627 Q240.876 147.718 238.374 151.46 Q235.891 155.184 231.171 155.184 Q226.45 155.184 223.949 151.46 Q221.466 147.718 221.466 140.627 Q221.466 133.518 223.949 129.794 Q226.45 126.051 231.171 126.051 Z" fill="#000000" fill-rule="nonzero" fill-opacity="1" /><path clip-path="url(#clip600)" d="M18.0438 1022.54 L24.314 1022.54 Q22.5634 1026.2 21.704 1029.45 Q20.8447 1032.7 20.8447 1035.72 Q20.8447 1040.97 22.8817 1043.84 Q24.9187 1046.67 28.6745 1046.67 Q31.8255 1046.67 33.4488 1044.79 Q35.0402 1042.88 36.0269 1037.6 L36.8226 1033.72 Q38.1912 1026.52 41.6605 1023.12 Q45.098 1019.68 50.8908 1019.68 Q57.7976 1019.68 61.3624 1024.33 Q64.9272 1028.94 64.9272 1037.88 Q64.9272 1041.26 64.1633 1045.08 Q63.3994 1048.87 61.9035 1052.94 L55.2831 1052.94 Q57.4793 1049.02 58.5933 1045.27 Q59.7073 1041.51 59.7073 1037.88 Q59.7073 1032.38 57.543 1029.39 Q55.3786 1026.39 51.3682 1026.39 Q47.8671 1026.39 45.8937 1028.56 Q43.9204 1030.69 42.9337 1035.59 L42.1698 1039.51 Q40.7375 1046.7 37.682 1049.92 Q34.6264 1053.13 29.1837 1053.13 Q22.8817 1053.13 19.2532 1048.71 Q15.6248 1044.25 15.6248 1036.45 Q15.6248 1033.11 16.2295 1029.64 Q16.8343 1026.17 18.0438 1022.54 Z" fill="#000000" fill-rule="nonzero" fill-opacity="1" /><path clip-path="url(#clip600)" d="M46.0847 993.707 Q46.0847 1000.8 47.7079 1003.54 Q49.3312 1006.28 53.2461 1006.28 Q56.3653 1006.28 58.2114 1004.24 Q60.0256 1002.17 60.0256 998.64 Q60.0256 993.77 56.5881 990.842 Q53.1188 987.882 47.3897 987.882 L46.0847 987.882 L46.0847 993.707 M43.6657 982.026 L64.0042 982.026 L64.0042 987.882 L58.5933 987.882 Q61.8398 989.887 63.3994 992.879 Q64.9272 995.871 64.9272 1000.2 Q64.9272 1005.67 61.8716 1008.92 Q58.7843 1012.14 53.6281 1012.14 Q47.6125 1012.14 44.5569 1008.13 Q41.5014 1004.08 41.5014 996.094 L41.5014 987.882 L40.9285 987.882 Q36.8862 987.882 34.6901 990.556 Q32.4621 993.197 32.4621 998.004 Q32.4621 1001.06 33.1941 1003.96 Q33.9262 1006.85 35.3903 1009.53 L29.9795 1009.53 Q28.7381 1006.31 28.1334 1003.29 Q27.4968 1000.26 27.4968 997.399 Q27.4968 989.665 31.5072 985.845 Q35.5176 982.026 43.6657 982.026 Z" fill="#000000" fill-rule="nonzero" fill-opacity="1" /><path clip-path="url(#clip600)" d="M35.1993 942.208 Q31.2526 940.012 29.3747 936.956 Q27.4968 933.901 27.4968 929.763 Q27.4968 924.193 31.4117 921.17 Q35.2948 918.146 42.4881 918.146 L64.0042 918.146 L64.0042 924.034 L42.679 924.034 Q37.5546 924.034 35.072 925.848 Q32.5894 927.663 32.5894 931.386 Q32.5894 935.938 35.6131 938.58 Q38.6368 941.221 43.8567 941.221 L64.0042 941.221 L64.0042 947.11 L42.679 947.11 Q37.5228 947.11 35.072 948.924 Q32.5894 950.738 32.5894 954.526 Q32.5894 959.014 35.6449 961.655 Q38.6686 964.297 43.8567 964.297 L64.0042 964.297 L64.0042 970.185 L28.3562 970.185 L28.3562 964.297 L33.8944 964.297 Q30.616 962.292 29.0564 959.491 Q27.4968 956.69 27.4968 952.839 Q27.4968 948.956 29.4702 946.25 Q31.4436 943.513 35.1993 942.208 Z" fill="#000000" fill-rule="nonzero" fill-opacity="1" /><path clip-path="url(#clip600)" d="M58.657 900.799 L77.5631 900.799 L77.5631 906.688 L28.3562 906.688 L28.3562 900.799 L33.7671 900.799 Q30.5842 898.953 29.0564 896.152 Q27.4968 893.32 27.4968 889.405 Q27.4968 882.912 32.6531 878.869 Q37.8093 874.795 46.212 874.795 Q54.6147 874.795 59.771 878.869 Q64.9272 882.912 64.9272 889.405 Q64.9272 893.32 63.3994 896.152 Q61.8398 898.953 58.657 900.799 M46.212 880.875 Q39.7508 880.875 36.0905 883.548 Q32.3984 886.19 32.3984 890.837 Q32.3984 895.484 36.0905 898.157 Q39.7508 900.799 46.212 900.799 Q52.6732 900.799 56.3653 898.157 Q60.0256 895.484 60.0256 890.837 Q60.0256 886.19 56.3653 883.548 Q52.6732 880.875 46.212 880.875 Z" fill="#000000" fill-rule="nonzero" fill-opacity="1" /><path clip-path="url(#clip600)" d="M14.479 865.088 L14.479 859.231 L64.0042 859.231 L64.0042 865.088 L14.479 865.088 Z" fill="#000000" fill-rule="nonzero" fill-opacity="1" /><path clip-path="url(#clip600)" d="M44.7161 816.485 L47.5806 816.485 L47.5806 843.412 Q53.6281 843.03 56.8109 839.784 Q59.9619 836.506 59.9619 830.681 Q59.9619 827.307 59.1344 824.156 Q58.3069 820.973 56.6518 817.854 L62.1899 817.854 Q63.5267 821.005 64.227 824.315 Q64.9272 827.625 64.9272 831.031 Q64.9272 839.561 59.9619 844.558 Q54.9967 849.523 46.5303 849.523 Q37.7774 849.523 32.6531 844.813 Q27.4968 840.07 27.4968 832.05 Q27.4968 824.856 32.1438 820.687 Q36.7589 816.485 44.7161 816.485 M42.9973 822.342 Q38.1912 822.406 35.3266 825.047 Q32.4621 827.657 32.4621 831.986 Q32.4621 836.888 35.2312 839.848 Q38.0002 842.776 43.0292 843.221 L42.9973 822.342 Z" fill="#000000" fill-rule="nonzero" fill-opacity="1" /><path clip-path="url(#clip600)" d="M33.7671 783.416 L14.479 783.416 L14.479 777.559 L64.0042 777.559 L64.0042 783.416 L58.657 783.416 Q61.8398 785.262 63.3994 788.094 Q64.9272 790.895 64.9272 794.842 Q64.9272 801.303 59.771 805.377 Q54.6147 809.42 46.212 809.42 Q37.8093 809.42 32.6531 805.377 Q27.4968 801.303 27.4968 794.842 Q27.4968 790.895 29.0564 788.094 Q30.5842 785.262 33.7671 783.416 M46.212 803.372 Q52.6732 803.372 56.3653 800.73 Q60.0256 798.057 60.0256 793.41 Q60.0256 788.763 56.3653 786.089 Q52.6732 783.416 46.212 783.416 Q39.7508 783.416 36.0905 786.089 Q32.3984 788.763 32.3984 793.41 Q32.3984 798.057 36.0905 800.73 Q39.7508 803.372 46.212 803.372 Z" fill="#000000" fill-rule="nonzero" fill-opacity="1" /><path clip-path="url(#clip600)" d="M16.4842 744.521 L16.4842 738.092 L58.5933 738.092 L58.5933 714.952 L64.0042 714.952 L64.0042 744.521 L16.4842 744.521 Z" fill="#000000" fill-rule="nonzero" fill-opacity="1" /><path clip-path="url(#clip600)" d="M58.5933 706.518 L58.5933 696.014 L22.3406 696.014 L24.6323 707.441 L18.7758 707.441 L16.4842 696.078 L16.4842 689.649 L58.5933 689.649 L58.5933 679.145 L64.0042 679.145 L64.0042 706.518 L58.5933 706.518 Z" fill="#000000" fill-rule="nonzero" fill-opacity="1" /><path clip-path="url(#clip600)" d="M16.4842 646.012 L16.4842 615.966 L21.895 615.966 L21.895 639.582 L35.9632 639.582 L35.9632 616.952 L41.3741 616.952 L41.3741 639.582 L58.5933 639.582 L58.5933 615.393 L64.0042 615.393 L64.0042 646.012 L16.4842 646.012 Z" fill="#000000" fill-rule="nonzero" fill-opacity="1" /><path clip-path="url(#clip600)" d="M33.8307 584.424 Q33.2578 585.41 33.0032 586.588 Q32.7167 587.734 32.7167 589.134 Q32.7167 594.1 35.9632 596.773 Q39.1779 599.415 45.2253 599.415 L64.0042 599.415 L64.0042 605.303 L28.3562 605.303 L28.3562 599.415 L33.8944 599.415 Q30.6479 597.569 29.0883 594.609 Q27.4968 591.649 27.4968 587.416 Q27.4968 586.811 27.5923 586.079 Q27.656 585.347 27.8151 584.455 L33.8307 584.424 Z" fill="#000000" fill-rule="nonzero" fill-opacity="1" /><path clip-path="url(#clip600)" d="M33.8307 558.77 Q33.2578 559.757 33.0032 560.934 Q32.7167 562.08 32.7167 563.48 Q32.7167 568.446 35.9632 571.119 Q39.1779 573.761 45.2253 573.761 L64.0042 573.761 L64.0042 579.649 L28.3562 579.649 L28.3562 573.761 L33.8944 573.761 Q30.6479 571.915 29.0883 568.955 Q27.4968 565.995 27.4968 561.762 Q27.4968 561.157 27.5923 560.425 Q27.656 559.693 27.8151 558.802 L33.8307 558.77 Z" fill="#000000" fill-rule="nonzero" fill-opacity="1" /><path clip-path="url(#clip600)" d="M32.4621 540.246 Q32.4621 544.956 36.1542 547.694 Q39.8145 550.431 46.212 550.431 Q52.6095 550.431 56.3017 547.725 Q59.9619 544.988 59.9619 540.246 Q59.9619 535.567 56.2698 532.83 Q52.5777 530.092 46.212 530.092 Q39.8781 530.092 36.186 532.83 Q32.4621 535.567 32.4621 540.246 M27.4968 540.246 Q27.4968 532.607 32.4621 528.246 Q37.4273 523.886 46.212 523.886 Q54.9649 523.886 59.9619 528.246 Q64.9272 532.607 64.9272 540.246 Q64.9272 547.916 59.9619 552.277 Q54.9649 556.606 46.212 556.606 Q37.4273 556.606 32.4621 552.277 Q27.4968 547.916 27.4968 540.246 Z" fill="#000000" fill-rule="nonzero" fill-opacity="1" /><path clip-path="url(#clip600)" d="M33.8307 493.521 Q33.2578 494.508 33.0032 495.686 Q32.7167 496.832 32.7167 498.232 Q32.7167 503.197 35.9632 505.871 Q39.1779 508.513 45.2253 508.513 L64.0042 508.513 L64.0042 514.401 L28.3562 514.401 L28.3562 508.513 L33.8944 508.513 Q30.6479 506.667 29.0883 503.706 Q27.4968 500.746 27.4968 496.513 Q27.4968 495.908 27.5923 495.176 Q27.656 494.444 27.8151 493.553 L33.8307 493.521 Z" fill="#000000" fill-rule="nonzero" fill-opacity="1" /><path clip-path="url(#clip600)" d="M489.545 14.0809 L489.545 22.0612 Q484.887 19.8332 480.755 18.7395 Q476.623 17.6457 472.775 17.6457 Q466.091 17.6457 462.445 20.2383 Q458.839 22.8309 458.839 27.611 Q458.839 31.6214 461.229 33.6873 Q463.66 35.7128 470.384 36.9686 L475.327 37.9813 Q484.482 39.7232 488.816 44.1387 Q493.191 48.5136 493.191 55.8863 Q493.191 64.6767 487.277 69.2137 Q481.403 73.7508 470.02 73.7508 Q465.726 73.7508 460.865 72.7785 Q456.044 71.8063 450.859 69.9024 L450.859 61.4765 Q455.842 64.2716 460.622 65.6895 Q465.402 67.1073 470.02 67.1073 Q477.028 67.1073 480.836 64.3527 Q484.644 61.598 484.644 56.4939 Q484.644 52.0379 481.889 49.5264 Q479.175 47.0148 472.937 45.759 L467.954 44.7868 Q458.799 42.9639 454.707 39.075 Q450.616 35.1862 450.616 28.2591 Q450.616 20.2383 456.247 15.6203 Q461.918 11.0023 471.843 11.0023 Q476.096 11.0023 480.512 11.7719 Q484.927 12.5416 489.545 14.0809 Z" fill="#000000" fill-rule="nonzero" fill-opacity="1" /><path clip-path="url(#clip600)" d="M526.246 49.7694 Q517.213 49.7694 513.729 51.8354 Q510.245 53.9013 510.245 58.8839 Q510.245 62.8538 512.838 65.2034 Q515.471 67.5124 519.968 67.5124 Q526.165 67.5124 529.892 63.1374 Q533.66 58.7219 533.66 51.4303 L533.66 49.7694 L526.246 49.7694 M541.113 46.6907 L541.113 72.576 L533.66 72.576 L533.66 65.6895 Q531.108 69.8214 527.3 71.8063 Q523.492 73.7508 517.983 73.7508 Q511.015 73.7508 506.883 69.8619 Q502.792 65.9325 502.792 59.3701 Q502.792 51.7138 507.896 47.825 Q513.04 43.9361 523.208 43.9361 L533.66 43.9361 L533.66 43.2069 Q533.66 38.0623 530.257 35.2672 Q526.895 32.4315 520.778 32.4315 Q516.889 32.4315 513.203 33.3632 Q509.516 34.295 506.113 36.1584 L506.113 29.2718 Q510.205 27.692 514.053 26.9223 Q517.902 26.1121 521.547 26.1121 Q531.391 26.1121 536.252 31.2163 Q541.113 36.3204 541.113 46.6907 Z" fill="#000000" fill-rule="nonzero" fill-opacity="1" /><path clip-path="url(#clip600)" d="M591.79 35.9153 Q594.585 30.8922 598.474 28.5022 Q602.363 26.1121 607.629 26.1121 Q614.718 26.1121 618.567 31.0947 Q622.415 36.0368 622.415 45.1919 L622.415 72.576 L614.921 72.576 L614.921 45.4349 Q614.921 38.913 612.612 35.7533 Q610.303 32.5936 605.563 32.5936 Q599.77 32.5936 596.408 36.4419 Q593.046 40.2903 593.046 46.9338 L593.046 72.576 L585.552 72.576 L585.552 45.4349 Q585.552 38.8725 583.243 35.7533 Q580.934 32.5936 576.113 32.5936 Q570.401 32.5936 567.039 36.4824 Q563.677 40.3308 563.677 46.9338 L563.677 72.576 L556.183 72.576 L556.183 27.2059 L563.677 27.2059 L563.677 34.2544 Q566.229 30.082 569.794 28.0971 Q573.358 26.1121 578.26 26.1121 Q583.202 26.1121 586.645 28.6237 Q590.129 31.1352 591.79 35.9153 Z" fill="#000000" fill-rule="nonzero" fill-opacity="1" /><path clip-path="url(#clip600)" d="M644.492 65.7705 L644.492 89.8329 L636.998 89.8329 L636.998 27.2059 L644.492 27.2059 L644.492 34.0924 Q646.842 30.0415 650.407 28.0971 Q654.012 26.1121 658.995 26.1121 Q667.258 26.1121 672.403 32.6746 Q677.588 39.2371 677.588 49.9314 Q677.588 60.6258 672.403 67.1883 Q667.258 73.7508 658.995 73.7508 Q654.012 73.7508 650.407 71.8063 Q646.842 69.8214 644.492 65.7705 M669.851 49.9314 Q669.851 41.7081 666.448 37.0496 Q663.086 32.3505 657.172 32.3505 Q651.257 32.3505 647.855 37.0496 Q644.492 41.7081 644.492 49.9314 Q644.492 58.1548 647.855 62.8538 Q651.257 67.5124 657.172 67.5124 Q663.086 67.5124 666.448 62.8538 Q669.851 58.1548 669.851 49.9314 Z" fill="#000000" fill-rule="nonzero" fill-opacity="1" /><path clip-path="url(#clip600)" d="M689.943 9.54393 L697.397 9.54393 L697.397 72.576 L689.943 72.576 L689.943 9.54393 Z" fill="#000000" fill-rule="nonzero" fill-opacity="1" /><path clip-path="url(#clip600)" d="M751.801 48.0275 L751.801 51.6733 L717.53 51.6733 Q718.016 59.3701 722.148 63.421 Q726.321 67.4314 733.734 67.4314 Q738.028 67.4314 742.038 66.3781 Q746.089 65.3249 750.059 63.2184 L750.059 70.267 Q746.049 71.9684 741.836 72.8596 Q737.623 73.7508 733.288 73.7508 Q722.432 73.7508 716.072 67.4314 Q709.752 61.1119 709.752 50.3365 Q709.752 39.1965 715.748 32.6746 Q721.784 26.1121 731.992 26.1121 Q741.147 26.1121 746.454 32.0264 Q751.801 37.9003 751.801 48.0275 M744.347 45.84 Q744.266 39.7232 740.904 36.0774 Q737.582 32.4315 732.073 32.4315 Q725.834 32.4315 722.067 35.9558 Q718.34 39.4801 717.773 45.8805 L744.347 45.84 Z" fill="#000000" fill-rule="nonzero" fill-opacity="1" /><path clip-path="url(#clip600)" d="M793.89 34.0924 L793.89 9.54393 L801.343 9.54393 L801.343 72.576 L793.89 72.576 L793.89 65.7705 Q791.54 69.8214 787.935 71.8063 Q784.37 73.7508 779.347 73.7508 Q771.124 73.7508 765.938 67.1883 Q760.794 60.6258 760.794 49.9314 Q760.794 39.2371 765.938 32.6746 Q771.124 26.1121 779.347 26.1121 Q784.37 26.1121 787.935 28.0971 Q791.54 30.0415 793.89 34.0924 M768.491 49.9314 Q768.491 58.1548 771.853 62.8538 Q775.256 67.5124 781.17 67.5124 Q787.084 67.5124 790.487 62.8538 Q793.89 58.1548 793.89 49.9314 Q793.89 41.7081 790.487 37.0496 Q787.084 32.3505 781.17 32.3505 Q775.256 32.3505 771.853 37.0496 Q768.491 41.7081 768.491 49.9314 Z" fill="#000000" fill-rule="nonzero" fill-opacity="1" /><path clip-path="url(#clip600)" d="M843.392 12.096 L851.575 12.096 L851.575 65.6895 L881.025 65.6895 L881.025 72.576 L843.392 72.576 L843.392 12.096 Z" fill="#000000" fill-rule="nonzero" fill-opacity="1" /><path clip-path="url(#clip600)" d="M891.76 65.6895 L905.128 65.6895 L905.128 19.5497 L890.585 22.4663 L890.585 15.0127 L905.046 12.096 L913.229 12.096 L913.229 65.6895 L926.597 65.6895 L926.597 72.576 L891.76 72.576 L891.76 65.6895 Z" fill="#000000" fill-rule="nonzero" fill-opacity="1" /><path clip-path="url(#clip600)" d="M968.767 12.096 L1007.01 12.096 L1007.01 18.9825 L976.95 18.9825 L976.95 36.8875 L1005.75 36.8875 L1005.75 43.7741 L976.95 43.7741 L976.95 65.6895 L1007.74 65.6895 L1007.74 72.576 L968.767 72.576 L968.767 12.096 Z" fill="#000000" fill-rule="nonzero" fill-opacity="1" /><path clip-path="url(#clip600)" d="M1047.15 34.1734 Q1045.9 33.4443 1044.4 33.1202 Q1042.94 32.7556 1041.16 32.7556 Q1034.84 32.7556 1031.43 36.8875 Q1028.07 40.9789 1028.07 48.6757 L1028.07 72.576 L1020.58 72.576 L1020.58 27.2059 L1028.07 27.2059 L1028.07 34.2544 Q1030.42 30.1225 1034.19 28.1376 Q1037.96 26.1121 1043.34 26.1121 Q1044.11 26.1121 1045.05 26.2337 Q1045.98 26.3147 1047.11 26.5172 L1047.15 34.1734 Z" fill="#000000" fill-rule="nonzero" fill-opacity="1" /><path clip-path="url(#clip600)" d="M1079.8 34.1734 Q1078.55 33.4443 1077.05 33.1202 Q1075.59 32.7556 1073.81 32.7556 Q1067.49 32.7556 1064.08 36.8875 Q1060.72 40.9789 1060.72 48.6757 L1060.72 72.576 L1053.23 72.576 L1053.23 27.2059 L1060.72 27.2059 L1060.72 34.2544 Q1063.07 30.1225 1066.84 28.1376 Q1070.61 26.1121 1075.99 26.1121 Q1076.76 26.1121 1077.7 26.2337 Q1078.63 26.3147 1079.76 26.5172 L1079.8 34.1734 Z" fill="#000000" fill-rule="nonzero" fill-opacity="1" /><path clip-path="url(#clip600)" d="M1103.38 32.4315 Q1097.38 32.4315 1093.9 37.1306 Q1090.42 41.7891 1090.42 49.9314 Q1090.42 58.0738 1093.86 62.7728 Q1097.34 67.4314 1103.38 67.4314 Q1109.33 67.4314 1112.82 62.7323 Q1116.3 58.0333 1116.3 49.9314 Q1116.3 41.8701 1112.82 37.1711 Q1109.33 32.4315 1103.38 32.4315 M1103.38 26.1121 Q1113.1 26.1121 1118.65 32.4315 Q1124.2 38.7509 1124.2 49.9314 Q1124.2 61.0714 1118.65 67.4314 Q1113.1 73.7508 1103.38 73.7508 Q1093.62 73.7508 1088.07 67.4314 Q1082.56 61.0714 1082.56 49.9314 Q1082.56 38.7509 1088.07 32.4315 Q1093.62 26.1121 1103.38 26.1121 Z" fill="#000000" fill-rule="nonzero" fill-opacity="1" /><path clip-path="url(#clip600)" d="M1162.85 34.1734 Q1161.59 33.4443 1160.09 33.1202 Q1158.63 32.7556 1156.85 32.7556 Q1150.53 32.7556 1147.13 36.8875 Q1143.77 40.9789 1143.77 48.6757 L1143.77 72.576 L1136.27 72.576 L1136.27 27.2059 L1143.77 27.2059 L1143.77 34.2544 Q1146.12 30.1225 1149.88 28.1376 Q1153.65 26.1121 1159.04 26.1121 Q1159.81 26.1121 1160.74 26.2337 Q1161.67 26.3147 1162.81 26.5172 L1162.85 34.1734 Z" fill="#000000" fill-rule="nonzero" fill-opacity="1" /><path clip-path="url(#clip600)" d="M1191.69 27.2059 L1199.59 27.2059 L1213.77 65.2844 L1227.94 27.2059 L1235.84 27.2059 L1218.83 72.576 L1208.7 72.576 L1191.69 27.2059 Z" fill="#000000" fill-rule="nonzero" fill-opacity="1" /><path clip-path="url(#clip600)" d="M1275.06 28.5427 L1275.06 35.5912 Q1271.9 33.9709 1268.49 33.1607 Q1265.09 32.3505 1261.45 32.3505 Q1255.9 32.3505 1253.1 34.0519 Q1250.35 35.7533 1250.35 39.156 Q1250.35 41.7486 1252.33 43.2475 Q1254.32 44.7058 1260.31 46.0426 L1262.86 46.6097 Q1270.8 48.3111 1274.12 51.4303 Q1277.49 54.509 1277.49 60.0587 Q1277.49 66.3781 1272.46 70.0644 Q1267.48 73.7508 1258.73 73.7508 Q1255.09 73.7508 1251.12 73.0216 Q1247.19 72.3329 1242.81 70.9151 L1242.81 63.2184 Q1246.94 65.3654 1250.95 66.4591 Q1254.96 67.5124 1258.89 67.5124 Q1264.16 67.5124 1266.99 65.73 Q1269.83 63.9071 1269.83 60.6258 Q1269.83 57.5877 1267.76 55.9673 Q1265.74 54.3469 1258.81 52.8481 L1256.22 52.2405 Q1249.29 50.7821 1246.21 47.7845 Q1243.13 44.7463 1243.13 39.4801 Q1243.13 33.0797 1247.67 29.5959 Q1252.21 26.1121 1260.55 26.1121 Q1264.69 26.1121 1268.33 26.7198 Q1271.98 27.3274 1275.06 28.5427 Z" fill="#000000" fill-rule="nonzero" fill-opacity="1" /><path clip-path="url(#clip600)" d="M1316.05 12.096 L1328.24 12.096 L1343.68 53.2532 L1359.19 12.096 L1371.39 12.096 L1371.39 72.576 L1363.41 72.576 L1363.41 19.4686 L1347.81 60.9499 L1339.59 60.9499 L1323.99 19.4686 L1323.99 72.576 L1316.05 72.576 L1316.05 12.096 Z" fill="#000000" fill-rule="nonzero" fill-opacity="1" /><path clip-path="url(#clip600)" d="M1407.93 49.7694 Q1398.89 49.7694 1395.41 51.8354 Q1391.92 53.9013 1391.92 58.8839 Q1391.92 62.8538 1394.52 65.2034 Q1397.15 67.5124 1401.65 67.5124 Q1407.84 67.5124 1411.57 63.1374 Q1415.34 58.7219 1415.34 51.4303 L1415.34 49.7694 L1407.93 49.7694 M1422.79 46.6907 L1422.79 72.576 L1415.34 72.576 L1415.34 65.6895 Q1412.79 69.8214 1408.98 71.8063 Q1405.17 73.7508 1399.66 73.7508 Q1392.69 73.7508 1388.56 69.8619 Q1384.47 65.9325 1384.47 59.3701 Q1384.47 51.7138 1389.58 47.825 Q1394.72 43.9361 1404.89 43.9361 L1415.34 43.9361 L1415.34 43.2069 Q1415.34 38.0623 1411.94 35.2672 Q1408.57 32.4315 1402.46 32.4315 Q1398.57 32.4315 1394.88 33.3632 Q1391.2 34.295 1387.79 36.1584 L1387.79 29.2718 Q1391.88 27.692 1395.73 26.9223 Q1399.58 26.1121 1403.23 26.1121 Q1413.07 26.1121 1417.93 31.2163 Q1422.79 36.3204 1422.79 46.6907 Z" fill="#000000" fill-rule="nonzero" fill-opacity="1" /><path clip-path="url(#clip600)" d="M1475.86 27.2059 L1459.45 49.2833 L1476.71 72.576 L1467.92 72.576 L1454.71 54.752 L1441.51 72.576 L1432.72 72.576 L1450.34 48.8377 L1434.22 27.2059 L1443.01 27.2059 L1455.04 43.369 L1467.07 27.2059 L1475.86 27.2059 Z" fill="#000000" fill-rule="nonzero" fill-opacity="1" /><path clip-path="url(#clip600)" d="M1522.12 43.6931 L1522.12 65.8515 L1535.25 65.8515 Q1541.85 65.8515 1545.01 63.1374 Q1548.21 60.3828 1548.21 54.752 Q1548.21 49.0808 1545.01 46.4072 Q1541.85 43.6931 1535.25 43.6931 L1522.12 43.6931 M1522.12 18.8205 L1522.12 37.0496 L1534.23 37.0496 Q1540.23 37.0496 1543.14 34.8216 Q1546.1 32.5531 1546.1 27.935 Q1546.1 23.3575 1543.14 21.089 Q1540.23 18.8205 1534.23 18.8205 L1522.12 18.8205 M1513.94 12.096 L1534.84 12.096 Q1544.2 12.096 1549.26 15.9849 Q1554.33 19.8737 1554.33 27.0438 Q1554.33 32.5936 1551.73 35.8748 Q1549.14 39.156 1544.12 39.9662 Q1550.15 41.2625 1553.47 45.3944 Q1556.84 49.4858 1556.84 55.6432 Q1556.84 63.745 1551.33 68.1605 Q1545.82 72.576 1535.65 72.576 L1513.94 72.576 L1513.94 12.096 Z" fill="#000000" fill-rule="nonzero" fill-opacity="1" /><path clip-path="url(#clip600)" d="M1588.11 32.4315 Q1582.11 32.4315 1578.63 37.1306 Q1575.15 41.7891 1575.15 49.9314 Q1575.15 58.0738 1578.59 62.7728 Q1582.07 67.4314 1588.11 67.4314 Q1594.06 67.4314 1597.55 62.7323 Q1601.03 58.0333 1601.03 49.9314 Q1601.03 41.8701 1597.55 37.1711 Q1594.06 32.4315 1588.11 32.4315 M1588.11 26.1121 Q1597.83 26.1121 1603.38 32.4315 Q1608.93 38.7509 1608.93 49.9314 Q1608.93 61.0714 1603.38 67.4314 Q1597.83 73.7508 1588.11 73.7508 Q1578.35 73.7508 1572.8 67.4314 Q1567.29 61.0714 1567.29 49.9314 Q1567.29 38.7509 1572.8 32.4315 Q1578.35 26.1121 1588.11 26.1121 Z" fill="#000000" fill-rule="nonzero" fill-opacity="1" /><path clip-path="url(#clip600)" d="M1659 45.1919 L1659 72.576 L1651.55 72.576 L1651.55 45.4349 Q1651.55 38.994 1649.04 35.7938 Q1646.52 32.5936 1641.5 32.5936 Q1635.47 32.5936 1631.98 36.4419 Q1628.5 40.2903 1628.5 46.9338 L1628.5 72.576 L1621 72.576 L1621 27.2059 L1628.5 27.2059 L1628.5 34.2544 Q1631.17 30.163 1634.78 28.1376 Q1638.42 26.1121 1643.16 26.1121 Q1650.98 26.1121 1654.99 30.9732 Q1659 35.7938 1659 45.1919 Z" fill="#000000" fill-rule="nonzero" fill-opacity="1" /><path clip-path="url(#clip600)" d="M1703.72 34.0924 L1703.72 9.54393 L1711.18 9.54393 L1711.18 72.576 L1703.72 72.576 L1703.72 65.7705 Q1701.37 69.8214 1697.77 71.8063 Q1694.2 73.7508 1689.18 73.7508 Q1680.96 73.7508 1675.77 67.1883 Q1670.63 60.6258 1670.63 49.9314 Q1670.63 39.2371 1675.77 32.6746 Q1680.96 26.1121 1689.18 26.1121 Q1694.2 26.1121 1697.77 28.0971 Q1701.37 30.0415 1703.72 34.0924 M1678.32 49.9314 Q1678.32 58.1548 1681.69 62.8538 Q1685.09 67.5124 1691 67.5124 Q1696.92 67.5124 1700.32 62.8538 Q1703.72 58.1548 1703.72 49.9314 Q1703.72 41.7081 1700.32 37.0496 Q1696.92 32.3505 1691 32.3505 Q1685.09 32.3505 1681.69 37.0496 Q1678.32 41.7081 1678.32 49.9314 Z" fill="#000000" fill-rule="nonzero" fill-opacity="1" /><path clip-path="url(#clip600)" d="M1761.41 18.8205 L1761.41 65.8515 L1771.29 65.8515 Q1783.81 65.8515 1789.6 60.1802 Q1795.44 54.509 1795.44 42.2752 Q1795.44 30.1225 1789.6 24.4918 Q1783.81 18.8205 1771.29 18.8205 L1761.41 18.8205 M1753.22 12.096 L1770.04 12.096 Q1787.62 12.096 1795.84 19.4281 Q1804.06 26.7198 1804.06 42.2752 Q1804.06 57.9117 1795.8 65.2439 Q1787.54 72.576 1770.04 72.576 L1753.22 72.576 L1753.22 12.096 Z" fill="#000000" fill-rule="nonzero" fill-opacity="1" /><path clip-path="url(#clip600)" d="M1816.78 27.2059 L1824.24 27.2059 L1824.24 72.576 L1816.78 72.576 L1816.78 27.2059 M1816.78 9.54393 L1824.24 9.54393 L1824.24 18.9825 L1816.78 18.9825 L1816.78 9.54393 Z" fill="#000000" fill-rule="nonzero" fill-opacity="1" /><path clip-path="url(#clip600)" d="M1875.16 35.9153 Q1877.95 30.8922 1881.84 28.5022 Q1885.73 26.1121 1891 26.1121 Q1898.09 26.1121 1901.93 31.0947 Q1905.78 36.0368 1905.78 45.1919 L1905.78 72.576 L1898.29 72.576 L1898.29 45.4349 Q1898.29 38.913 1895.98 35.7533 Q1893.67 32.5936 1888.93 32.5936 Q1883.14 32.5936 1879.78 36.4419 Q1876.41 40.2903 1876.41 46.9338 L1876.41 72.576 L1868.92 72.576 L1868.92 45.4349 Q1868.92 38.8725 1866.61 35.7533 Q1864.3 32.5936 1859.48 32.5936 Q1853.77 32.5936 1850.41 36.4824 Q1847.04 40.3308 1847.04 46.9338 L1847.04 72.576 L1839.55 72.576 L1839.55 27.2059 L1847.04 27.2059 L1847.04 34.2544 Q1849.6 30.082 1853.16 28.0971 Q1856.73 26.1121 1861.63 26.1121 Q1866.57 26.1121 1870.01 28.6237 Q1873.5 31.1352 1875.16 35.9153 Z" fill="#000000" fill-rule="nonzero" fill-opacity="1" /><path clip-path="url(#clip600)" d="M1959.46 48.0275 L1959.46 51.6733 L1925.19 51.6733 Q1925.67 59.3701 1929.8 63.421 Q1933.98 67.4314 1941.39 67.4314 Q1945.68 67.4314 1949.69 66.3781 Q1953.74 65.3249 1957.71 63.2184 L1957.71 70.267 Q1953.7 71.9684 1949.49 72.8596 Q1945.28 73.7508 1940.94 73.7508 Q1930.09 73.7508 1923.73 67.4314 Q1917.41 61.1119 1917.41 50.3365 Q1917.41 39.1965 1923.4 32.6746 Q1929.44 26.1121 1939.65 26.1121 Q1948.8 26.1121 1954.11 32.0264 Q1959.46 37.9003 1959.46 48.0275 M1952 45.84 Q1951.92 39.7232 1948.56 36.0774 Q1945.24 32.4315 1939.73 32.4315 Q1933.49 32.4315 1929.72 35.9558 Q1926 39.4801 1925.43 45.8805 L1952 45.84 Z" fill="#000000" fill-rule="nonzero" fill-opacity="1" /><path clip-path="url(#clip600)" d="M2009.4 45.1919 L2009.4 72.576 L2001.95 72.576 L2001.95 45.4349 Q2001.95 38.994 1999.44 35.7938 Q1996.93 32.5936 1991.9 32.5936 Q1985.87 32.5936 1982.38 36.4419 Q1978.9 40.2903 1978.9 46.9338 L1978.9 72.576 L1971.41 72.576 L1971.41 27.2059 L1978.9 27.2059 L1978.9 34.2544 Q1981.57 30.163 1985.18 28.1376 Q1988.83 26.1121 1993.56 26.1121 Q2001.38 26.1121 2005.39 30.9732 Q2009.4 35.7938 2009.4 45.1919 Z" fill="#000000" fill-rule="nonzero" fill-opacity="1" /><path clip-path="url(#clip600)" d="M2053.19 28.5427 L2053.19 35.5912 Q2050.03 33.9709 2046.63 33.1607 Q2043.23 32.3505 2039.58 32.3505 Q2034.03 32.3505 2031.24 34.0519 Q2028.48 35.7533 2028.48 39.156 Q2028.48 41.7486 2030.47 43.2475 Q2032.45 44.7058 2038.45 46.0426 L2041 46.6097 Q2048.94 48.3111 2052.26 51.4303 Q2055.62 54.509 2055.62 60.0587 Q2055.62 66.3781 2050.6 70.0644 Q2045.62 73.7508 2036.87 73.7508 Q2033.22 73.7508 2029.25 73.0216 Q2025.32 72.3329 2020.95 70.9151 L2020.95 63.2184 Q2025.08 65.3654 2029.09 66.4591 Q2033.1 67.5124 2037.03 67.5124 Q2042.3 67.5124 2045.13 65.73 Q2047.97 63.9071 2047.97 60.6258 Q2047.97 57.5877 2045.9 55.9673 Q2043.88 54.3469 2036.95 52.8481 L2034.36 52.2405 Q2027.43 50.7821 2024.35 47.7845 Q2021.27 44.7463 2021.27 39.4801 Q2021.27 33.0797 2025.81 29.5959 Q2030.35 26.1121 2038.69 26.1121 Q2042.82 26.1121 2046.47 26.7198 Q2050.12 27.3274 2053.19 28.5427 Z" fill="#000000" fill-rule="nonzero" fill-opacity="1" /><path clip-path="url(#clip600)" d="M2067.49 27.2059 L2074.95 27.2059 L2074.95 72.576 L2067.49 72.576 L2067.49 27.2059 M2067.49 9.54393 L2074.95 9.54393 L2074.95 18.9825 L2067.49 18.9825 L2067.49 9.54393 Z" fill="#000000" fill-rule="nonzero" fill-opacity="1" /><path clip-path="url(#clip600)" d="M2108.12 32.4315 Q2102.13 32.4315 2098.65 37.1306 Q2095.16 41.7891 2095.16 49.9314 Q2095.16 58.0738 2098.6 62.7728 Q2102.09 67.4314 2108.12 67.4314 Q2114.08 67.4314 2117.56 62.7323 Q2121.05 58.0333 2121.05 49.9314 Q2121.05 41.8701 2117.56 37.1711 Q2114.08 32.4315 2108.12 32.4315 M2108.12 26.1121 Q2117.85 26.1121 2123.4 32.4315 Q2128.95 38.7509 2128.95 49.9314 Q2128.95 61.0714 2123.4 67.4314 Q2117.85 73.7508 2108.12 73.7508 Q2098.36 73.7508 2092.81 67.4314 Q2087.3 61.0714 2087.3 49.9314 Q2087.3 38.7509 2092.81 32.4315 Q2098.36 26.1121 2108.12 26.1121 Z" fill="#000000" fill-rule="nonzero" fill-opacity="1" /><path clip-path="url(#clip600)" d="M2179.02 45.1919 L2179.02 72.576 L2171.56 72.576 L2171.56 45.4349 Q2171.56 38.994 2169.05 35.7938 Q2166.54 32.5936 2161.52 32.5936 Q2155.48 32.5936 2152 36.4419 Q2148.51 40.2903 2148.51 46.9338 L2148.51 72.576 L2141.02 72.576 L2141.02 27.2059 L2148.51 27.2059 L2148.51 34.2544 Q2151.19 30.163 2154.79 28.1376 Q2158.44 26.1121 2163.18 26.1121 Q2170.99 26.1121 2175 30.9732 Q2179.02 35.7938 2179.02 45.1919 Z" fill="#000000" fill-rule="nonzero" fill-opacity="1" /><polyline clip-path="url(#clip602)" style="stroke:#009af9; stroke-linecap:round; stroke-linejoin:round; stroke-width:4; stroke-opacity:1; fill:none" points="335.627,160.256 553.224,208.241 770.822,236.206 988.419,259.363 1206.02,279.177 1423.61,305.134 1641.21,327.743 1858.81,342.043 2076.41,382.75 2294,415.633 "/>
<path clip-path="url(#clip602)" d="M335.627 176.256 L324.315 171.568 L319.627 160.256 L324.315 148.944 L335.627 144.256 L346.939 148.944 L351.627 160.256 L346.939 171.568 Z" fill="#009af9" fill-rule="evenodd" fill-opacity="1" stroke="#000000" stroke-opacity="1" stroke-width="3.2"/>
<path clip-path="url(#clip602)" d="M553.224 224.241 L541.912 219.553 L537.224 208.241 L541.912 196.929 L553.224 192.241 L564.536 196.929 L569.224 208.241 L564.536 219.553 Z" fill="#009af9" fill-rule="evenodd" fill-opacity="1" stroke="#000000" stroke-opacity="1" stroke-width="3.2"/>
<path clip-path="url(#clip602)" d="M770.822 252.206 L759.51 247.518 L754.822 236.206 L759.51 224.894 L770.822 220.206 L782.134 224.894 L786.822 236.206 L782.134 247.518 Z" fill="#009af9" fill-rule="evenodd" fill-opacity="1" stroke="#000000" stroke-opacity="1" stroke-width="3.2"/>
<path clip-path="url(#clip602)" d="M988.419 275.363 L977.107 270.675 L972.419 259.363 L977.107 248.051 L988.419 243.363 L999.731 248.051 L1004.42 259.363 L999.731 270.675 Z" fill="#009af9" fill-rule="evenodd" fill-opacity="1" stroke="#000000" stroke-opacity="1" stroke-width="3.2"/>
<path clip-path="url(#clip602)" d="M1206.02 295.177 L1194.7 290.489 L1190.02 279.177 L1194.7 267.865 L1206.02 263.177 L1217.33 267.865 L1222.02 279.177 L1217.33 290.489 Z" fill="#009af9" fill-rule="evenodd" fill-opacity="1" stroke="#000000" stroke-opacity="1" stroke-width="3.2"/>
<path clip-path="url(#clip602)" d="M1423.61 321.134 L1412.3 316.446 L1407.61 305.134 L1412.3 293.822 L1423.61 289.134 L1434.93 293.822 L1439.61 305.134 L1434.93 316.446 Z" fill="#009af9" fill-rule="evenodd" fill-opacity="1" stroke="#000000" stroke-opacity="1" stroke-width="3.2"/>
<path clip-path="url(#clip602)" d="M1641.21 343.743 L1629.9 339.055 L1625.21 327.743 L1629.9 316.431 L1641.21 311.743 L1652.52 316.431 L1657.21 327.743 L1652.52 339.055 Z" fill="#009af9" fill-rule="evenodd" fill-opacity="1" stroke="#000000" stroke-opacity="1" stroke-width="3.2"/>
<path clip-path="url(#clip602)" d="M1858.81 358.043 L1847.5 353.355 L1842.81 342.043 L1847.5 330.731 L1858.81 326.043 L1870.12 330.731 L1874.81 342.043 L1870.12 353.355 Z" fill="#009af9" fill-rule="evenodd" fill-opacity="1" stroke="#000000" stroke-opacity="1" stroke-width="3.2"/>
<path clip-path="url(#clip602)" d="M2076.41 398.75 L2065.1 394.062 L2060.41 382.75 L2065.1 371.438 L2076.41 366.75 L2087.72 371.438 L2092.41 382.75 L2087.72 394.062 Z" fill="#009af9" fill-rule="evenodd" fill-opacity="1" stroke="#000000" stroke-opacity="1" stroke-width="3.2"/>
<path clip-path="url(#clip602)" d="M2294 431.633 L2282.69 426.945 L2278 415.633 L2282.69 404.321 L2294 399.633 L2305.32 404.321 L2310 415.633 L2305.32 426.945 Z" fill="#009af9" fill-rule="evenodd" fill-opacity="1" stroke="#000000" stroke-opacity="1" stroke-width="3.2"/>
<polyline clip-path="url(#clip602)" style="stroke:#e26f46; stroke-linecap:round; stroke-linejoin:round; stroke-width:4; stroke-opacity:1; fill:none" points="335.627,222.273 553.224,583.354 770.822,957.883 988.419,1328.15 1206.02,1383.6 1423.61,1383.5 1641.21,1384.05 1858.81,1383.72 2076.41,1383.45 2294,1383.51 "/>
<path clip-path="url(#clip602)" d="M335.627 238.273 L324.315 233.585 L319.627 222.273 L324.315 210.961 L335.627 206.273 L346.939 210.961 L351.627 222.273 L346.939 233.585 Z" fill="#e26f46" fill-rule="evenodd" fill-opacity="1" stroke="#000000" stroke-opacity="1" stroke-width="3.2"/>
<path clip-path="url(#clip602)" d="M553.224 599.354 L541.912 594.666 L537.224 583.354 L541.912 572.042 L553.224 567.354 L564.536 572.042 L569.224 583.354 L564.536 594.666 Z" fill="#e26f46" fill-rule="evenodd" fill-opacity="1" stroke="#000000" stroke-opacity="1" stroke-width="3.2"/>
<path clip-path="url(#clip602)" d="M770.822 973.883 L759.51 969.195 L754.822 957.883 L759.51 946.571 L770.822 941.883 L782.134 946.571 L786.822 957.883 L782.134 969.195 Z" fill="#e26f46" fill-rule="evenodd" fill-opacity="1" stroke="#000000" stroke-opacity="1" stroke-width="3.2"/>
<path clip-path="url(#clip602)" d="M988.419 1344.15 L977.107 1339.46 L972.419 1328.15 L977.107 1316.84 L988.419 1312.15 L999.731 1316.84 L1004.42 1328.15 L999.731 1339.46 Z" fill="#e26f46" fill-rule="evenodd" fill-opacity="1" stroke="#000000" stroke-opacity="1" stroke-width="3.2"/>
<path clip-path="url(#clip602)" d="M1206.02 1399.6 L1194.7 1394.91 L1190.02 1383.6 L1194.7 1372.29 L1206.02 1367.6 L1217.33 1372.29 L1222.02 1383.6 L1217.33 1394.91 Z" fill="#e26f46" fill-rule="evenodd" fill-opacity="1" stroke="#000000" stroke-opacity="1" stroke-width="3.2"/>
<path clip-path="url(#clip602)" d="M1423.61 1399.5 L1412.3 1394.81 L1407.61 1383.5 L1412.3 1372.19 L1423.61 1367.5 L1434.93 1372.19 L1439.61 1383.5 L1434.93 1394.81 Z" fill="#e26f46" fill-rule="evenodd" fill-opacity="1" stroke="#000000" stroke-opacity="1" stroke-width="3.2"/>
<path clip-path="url(#clip602)" d="M1641.21 1400.05 L1629.9 1395.36 L1625.21 1384.05 L1629.9 1372.74 L1641.21 1368.05 L1652.52 1372.74 L1657.21 1384.05 L1652.52 1395.36 Z" fill="#e26f46" fill-rule="evenodd" fill-opacity="1" stroke="#000000" stroke-opacity="1" stroke-width="3.2"/>
<path clip-path="url(#clip602)" d="M1858.81 1399.72 L1847.5 1395.03 L1842.81 1383.72 L1847.5 1372.4 L1858.81 1367.72 L1870.12 1372.4 L1874.81 1383.72 L1870.12 1395.03 Z" fill="#e26f46" fill-rule="evenodd" fill-opacity="1" stroke="#000000" stroke-opacity="1" stroke-width="3.2"/>
<path clip-path="url(#clip602)" d="M2076.41 1399.45 L2065.1 1394.76 L2060.41 1383.45 L2065.1 1372.13 L2076.41 1367.45 L2087.72 1372.13 L2092.41 1383.45 L2087.72 1394.76 Z" fill="#e26f46" fill-rule="evenodd" fill-opacity="1" stroke="#000000" stroke-opacity="1" stroke-width="3.2"/>
<path clip-path="url(#clip602)" d="M2294 1399.51 L2282.69 1394.82 L2278 1383.51 L2282.69 1372.2 L2294 1367.51 L2305.32 1372.2 L2310 1383.51 L2305.32 1394.82 Z" fill="#e26f46" fill-rule="evenodd" fill-opacity="1" stroke="#000000" stroke-opacity="1" stroke-width="3.2"/>
<polyline clip-path="url(#clip602)" style="stroke:#3da44d; stroke-linecap:round; stroke-linejoin:round; stroke-width:4; stroke-opacity:1; fill:none" points="335.627,241.999 553.224,465.55 770.822,688.755 988.419,973.433 1206.02,1196.12 1423.61,1386.4 1641.21,1384.67 1858.81,1385.24 2076.41,1385.17 2294,1384.16 "/>
<path clip-path="url(#clip602)" d="M335.627 257.999 L324.315 253.311 L319.627 241.999 L324.315 230.687 L335.627 225.999 L346.939 230.687 L351.627 241.999 L346.939 253.311 Z" fill="#3da44d" fill-rule="evenodd" fill-opacity="1" stroke="#000000" stroke-opacity="1" stroke-width="3.2"/>
<path clip-path="url(#clip602)" d="M553.224 481.55 L541.912 476.862 L537.224 465.55 L541.912 454.238 L553.224 449.55 L564.536 454.238 L569.224 465.55 L564.536 476.862 Z" fill="#3da44d" fill-rule="evenodd" fill-opacity="1" stroke="#000000" stroke-opacity="1" stroke-width="3.2"/>
<path clip-path="url(#clip602)" d="M770.822 704.755 L759.51 700.067 L754.822 688.755 L759.51 677.443 L770.822 672.755 L782.134 677.443 L786.822 688.755 L782.134 700.067 Z" fill="#3da44d" fill-rule="evenodd" fill-opacity="1" stroke="#000000" stroke-opacity="1" stroke-width="3.2"/>
<path clip-path="url(#clip602)" d="M988.419 989.433 L977.107 984.745 L972.419 973.433 L977.107 962.121 L988.419 957.433 L999.731 962.121 L1004.42 973.433 L999.731 984.745 Z" fill="#3da44d" fill-rule="evenodd" fill-opacity="1" stroke="#000000" stroke-opacity="1" stroke-width="3.2"/>
<path clip-path="url(#clip602)" d="M1206.02 1212.12 L1194.7 1207.43 L1190.02 1196.12 L1194.7 1184.81 L1206.02 1180.12 L1217.33 1184.81 L1222.02 1196.12 L1217.33 1207.43 Z" fill="#3da44d" fill-rule="evenodd" fill-opacity="1" stroke="#000000" stroke-opacity="1" stroke-width="3.2"/>
<path clip-path="url(#clip602)" d="M1423.61 1402.4 L1412.3 1397.71 L1407.61 1386.4 L1412.3 1375.08 L1423.61 1370.4 L1434.93 1375.08 L1439.61 1386.4 L1434.93 1397.71 Z" fill="#3da44d" fill-rule="evenodd" fill-opacity="1" stroke="#000000" stroke-opacity="1" stroke-width="3.2"/>
<path clip-path="url(#clip602)" d="M1641.21 1400.67 L1629.9 1395.98 L1625.21 1384.67 L1629.9 1373.36 L1641.21 1368.67 L1652.52 1373.36 L1657.21 1384.67 L1652.52 1395.98 Z" fill="#3da44d" fill-rule="evenodd" fill-opacity="1" stroke="#000000" stroke-opacity="1" stroke-width="3.2"/>
<path clip-path="url(#clip602)" d="M1858.81 1401.24 L1847.5 1396.55 L1842.81 1385.24 L1847.5 1373.93 L1858.81 1369.24 L1870.12 1373.93 L1874.81 1385.24 L1870.12 1396.55 Z" fill="#3da44d" fill-rule="evenodd" fill-opacity="1" stroke="#000000" stroke-opacity="1" stroke-width="3.2"/>
<path clip-path="url(#clip602)" d="M2076.41 1401.17 L2065.1 1396.48 L2060.41 1385.17 L2065.1 1373.86 L2076.41 1369.17 L2087.72 1373.86 L2092.41 1385.17 L2087.72 1396.48 Z" fill="#3da44d" fill-rule="evenodd" fill-opacity="1" stroke="#000000" stroke-opacity="1" stroke-width="3.2"/>
<path clip-path="url(#clip602)" d="M2294 1400.16 L2282.69 1395.47 L2278 1384.16 L2282.69 1372.84 L2294 1368.16 L2305.32 1372.84 L2310 1384.16 L2305.32 1395.47 Z" fill="#3da44d" fill-rule="evenodd" fill-opacity="1" stroke="#000000" stroke-opacity="1" stroke-width="3.2"/>
<polyline clip-path="url(#clip602)" style="stroke:#c271d2; stroke-linecap:round; stroke-linejoin:round; stroke-width:4; stroke-opacity:1; fill:none" points="335.627,225.904 553.224,582.393 770.822,960.693 988.419,1323.57 1206.02,1378.86 1423.61,1378.9 1641.21,1377.6 1858.81,1378.32 2076.41,1377.32 2294,1378.73 "/>
<path clip-path="url(#clip602)" d="M335.627 241.904 L324.315 237.216 L319.627 225.904 L324.315 214.592 L335.627 209.904 L346.939 214.592 L351.627 225.904 L346.939 237.216 Z" fill="#c271d2" fill-rule="evenodd" fill-opacity="1" stroke="#000000" stroke-opacity="1" stroke-width="3.2"/>
<path clip-path="url(#clip602)" d="M553.224 598.393 L541.912 593.705 L537.224 582.393 L541.912 571.081 L553.224 566.393 L564.536 571.081 L569.224 582.393 L564.536 593.705 Z" fill="#c271d2" fill-rule="evenodd" fill-opacity="1" stroke="#000000" stroke-opacity="1" stroke-width="3.2"/>
<path clip-path="url(#clip602)" d="M770.822 976.693 L759.51 972.005 L754.822 960.693 L759.51 949.381 L770.822 944.693 L782.134 949.381 L786.822 960.693 L782.134 972.005 Z" fill="#c271d2" fill-rule="evenodd" fill-opacity="1" stroke="#000000" stroke-opacity="1" stroke-width="3.2"/>
<path clip-path="url(#clip602)" d="M988.419 1339.57 L977.107 1334.89 L972.419 1323.57 L977.107 1312.26 L988.419 1307.57 L999.731 1312.26 L1004.42 1323.57 L999.731 1334.89 Z" fill="#c271d2" fill-rule="evenodd" fill-opacity="1" stroke="#000000" stroke-opacity="1" stroke-width="3.2"/>
<path clip-path="url(#clip602)" d="M1206.02 1394.86 L1194.7 1390.17 L1190.02 1378.86 L1194.7 1367.55 L1206.02 1362.86 L1217.33 1367.55 L1222.02 1378.86 L1217.33 1390.17 Z" fill="#c271d2" fill-rule="evenodd" fill-opacity="1" stroke="#000000" stroke-opacity="1" stroke-width="3.2"/>
<path clip-path="url(#clip602)" d="M1423.61 1394.9 L1412.3 1390.21 L1407.61 1378.9 L1412.3 1367.59 L1423.61 1362.9 L1434.93 1367.59 L1439.61 1378.9 L1434.93 1390.21 Z" fill="#c271d2" fill-rule="evenodd" fill-opacity="1" stroke="#000000" stroke-opacity="1" stroke-width="3.2"/>
<path clip-path="url(#clip602)" d="M1641.21 1393.6 L1629.9 1388.92 L1625.21 1377.6 L1629.9 1366.29 L1641.21 1361.6 L1652.52 1366.29 L1657.21 1377.6 L1652.52 1388.92 Z" fill="#c271d2" fill-rule="evenodd" fill-opacity="1" stroke="#000000" stroke-opacity="1" stroke-width="3.2"/>
<path clip-path="url(#clip602)" d="M1858.81 1394.32 L1847.5 1389.63 L1842.81 1378.32 L1847.5 1367.01 L1858.81 1362.32 L1870.12 1367.01 L1874.81 1378.32 L1870.12 1389.63 Z" fill="#c271d2" fill-rule="evenodd" fill-opacity="1" stroke="#000000" stroke-opacity="1" stroke-width="3.2"/>
<path clip-path="url(#clip602)" d="M2076.41 1393.32 L2065.1 1388.63 L2060.41 1377.32 L2065.1 1366.01 L2076.41 1361.32 L2087.72 1366.01 L2092.41 1377.32 L2087.72 1388.63 Z" fill="#c271d2" fill-rule="evenodd" fill-opacity="1" stroke="#000000" stroke-opacity="1" stroke-width="3.2"/>
<path clip-path="url(#clip602)" d="M2294 1394.73 L2282.69 1390.04 L2278 1378.73 L2282.69 1367.42 L2294 1362.73 L2305.32 1367.42 L2310 1378.73 L2305.32 1390.04 Z" fill="#c271d2" fill-rule="evenodd" fill-opacity="1" stroke="#000000" stroke-opacity="1" stroke-width="3.2"/>
<polyline clip-path="url(#clip602)" style="stroke:#ac8d18; stroke-linecap:round; stroke-linejoin:round; stroke-width:4; stroke-opacity:1; fill:none" points="335.627,161.231 553.224,178.471 770.822,222.109 988.419,254.268 1206.02,324.524 1423.61,366.664 1641.21,447.155 1858.81,499.738 2076.41,536.353 2294,572.159 "/>
<path clip-path="url(#clip602)" d="M335.627 177.231 L324.315 172.543 L319.627 161.231 L324.315 149.919 L335.627 145.231 L346.939 149.919 L351.627 161.231 L346.939 172.543 Z" fill="#ac8d18" fill-rule="evenodd" fill-opacity="1" stroke="#000000" stroke-opacity="1" stroke-width="3.2"/>
<path clip-path="url(#clip602)" d="M553.224 194.471 L541.912 189.783 L537.224 178.471 L541.912 167.159 L553.224 162.471 L564.536 167.159 L569.224 178.471 L564.536 189.783 Z" fill="#ac8d18" fill-rule="evenodd" fill-opacity="1" stroke="#000000" stroke-opacity="1" stroke-width="3.2"/>
<path clip-path="url(#clip602)" d="M770.822 238.109 L759.51 233.421 L754.822 222.109 L759.51 210.797 L770.822 206.109 L782.134 210.797 L786.822 222.109 L782.134 233.421 Z" fill="#ac8d18" fill-rule="evenodd" fill-opacity="1" stroke="#000000" stroke-opacity="1" stroke-width="3.2"/>
<path clip-path="url(#clip602)" d="M988.419 270.268 L977.107 265.58 L972.419 254.268 L977.107 242.956 L988.419 238.268 L999.731 242.956 L1004.42 254.268 L999.731 265.58 Z" fill="#ac8d18" fill-rule="evenodd" fill-opacity="1" stroke="#000000" stroke-opacity="1" stroke-width="3.2"/>
<path clip-path="url(#clip602)" d="M1206.02 340.524 L1194.7 335.836 L1190.02 324.524 L1194.7 313.212 L1206.02 308.524 L1217.33 313.212 L1222.02 324.524 L1217.33 335.836 Z" fill="#ac8d18" fill-rule="evenodd" fill-opacity="1" stroke="#000000" stroke-opacity="1" stroke-width="3.2"/>
<path clip-path="url(#clip602)" d="M1423.61 382.664 L1412.3 377.976 L1407.61 366.664 L1412.3 355.352 L1423.61 350.664 L1434.93 355.352 L1439.61 366.664 L1434.93 377.976 Z" fill="#ac8d18" fill-rule="evenodd" fill-opacity="1" stroke="#000000" stroke-opacity="1" stroke-width="3.2"/>
<path clip-path="url(#clip602)" d="M1641.21 463.155 L1629.9 458.467 L1625.21 447.155 L1629.9 435.843 L1641.21 431.155 L1652.52 435.843 L1657.21 447.155 L1652.52 458.467 Z" fill="#ac8d18" fill-rule="evenodd" fill-opacity="1" stroke="#000000" stroke-opacity="1" stroke-width="3.2"/>
<path clip-path="url(#clip602)" d="M1858.81 515.738 L1847.5 511.05 L1842.81 499.738 L1847.5 488.426 L1858.81 483.738 L1870.12 488.426 L1874.81 499.738 L1870.12 511.05 Z" fill="#ac8d18" fill-rule="evenodd" fill-opacity="1" stroke="#000000" stroke-opacity="1" stroke-width="3.2"/>
<path clip-path="url(#clip602)" d="M2076.41 552.353 L2065.1 547.665 L2060.41 536.353 L2065.1 525.041 L2076.41 520.353 L2087.72 525.041 L2092.41 536.353 L2087.72 547.665 Z" fill="#ac8d18" fill-rule="evenodd" fill-opacity="1" stroke="#000000" stroke-opacity="1" stroke-width="3.2"/>
<path clip-path="url(#clip602)" d="M2294 588.159 L2282.69 583.471 L2278 572.159 L2282.69 560.847 L2294 556.159 L2305.32 560.847 L2310 572.159 L2305.32 583.471 Z" fill="#ac8d18" fill-rule="evenodd" fill-opacity="1" stroke="#000000" stroke-opacity="1" stroke-width="3.2"/>
<path clip-path="url(#clip600)" d="M1797.83 477.836 L2283.56 477.836 L2283.56 166.796 L1797.83 166.796  Z" fill="#ffffff" fill-rule="evenodd" fill-opacity="1"/>
<polyline clip-path="url(#clip600)" style="stroke:#000000; stroke-linecap:round; stroke-linejoin:round; stroke-width:4; stroke-opacity:1; fill:none" points="1797.83,477.836 2283.56,477.836 2283.56,166.796 1797.83,166.796 1797.83,477.836 "/>
<polyline clip-path="url(#clip600)" style="stroke:#009af9; stroke-linecap:round; stroke-linejoin:round; stroke-width:4; stroke-opacity:1; fill:none" points="1820.89,218.636 1959.28,218.636 "/>
<path clip-path="url(#clip600)" d="M1890.09 239.993 L1874.99 233.735 L1868.73 218.636 L1874.99 203.536 L1890.09 197.279 L1905.19 203.536 L1911.44 218.636 L1905.19 233.735 Z" fill="#009af9" fill-rule="evenodd" fill-opacity="1" stroke="#000000" stroke-opacity="1" stroke-width="4.55111"/>
<path clip-path="url(#clip600)" d="M1982.35 201.356 L2002.21 201.356 L2002.21 205.291 L1987.02 205.291 L1987.02 215.476 L2000.73 215.476 L2000.73 219.411 L1987.02 219.411 L1987.02 235.916 L1982.35 235.916 L1982.35 201.356 Z" fill="#000000" fill-rule="nonzero" fill-opacity="1" /><path clip-path="url(#clip600)" d="M2006.4 225.684 L2006.4 209.99 L2010.66 209.99 L2010.66 225.522 Q2010.66 229.203 2012.09 231.055 Q2013.53 232.883 2016.4 232.883 Q2019.85 232.883 2021.84 230.684 Q2023.85 228.485 2023.85 224.689 L2023.85 209.99 L2028.11 209.99 L2028.11 235.916 L2023.85 235.916 L2023.85 231.934 Q2022.3 234.295 2020.24 235.453 Q2018.2 236.587 2015.5 236.587 Q2011.03 236.587 2008.71 233.809 Q2006.4 231.031 2006.4 225.684 M2017.12 209.365 L2017.12 209.365 Z" fill="#000000" fill-rule="nonzero" fill-opacity="1" /><path clip-path="url(#clip600)" d="M2053.41 210.754 L2053.41 214.782 Q2051.61 213.856 2049.66 213.393 Q2047.72 212.93 2045.63 212.93 Q2042.46 212.93 2040.87 213.902 Q2039.29 214.874 2039.29 216.819 Q2039.29 218.3 2040.43 219.157 Q2041.56 219.99 2044.99 220.754 L2046.44 221.078 Q2050.98 222.05 2052.88 223.832 Q2054.8 225.592 2054.8 228.763 Q2054.8 232.374 2051.93 234.481 Q2049.08 236.587 2044.08 236.587 Q2042 236.587 2039.73 236.17 Q2037.49 235.777 2034.99 234.967 L2034.99 230.569 Q2037.35 231.795 2039.64 232.42 Q2041.93 233.022 2044.18 233.022 Q2047.19 233.022 2048.81 232.004 Q2050.43 230.962 2050.43 229.087 Q2050.43 227.351 2049.25 226.425 Q2048.09 225.499 2044.13 224.643 L2042.65 224.295 Q2038.69 223.462 2036.93 221.749 Q2035.17 220.013 2035.17 217.004 Q2035.17 213.346 2037.76 211.356 Q2040.36 209.365 2045.13 209.365 Q2047.49 209.365 2049.57 209.712 Q2051.65 210.059 2053.41 210.754 Z" fill="#000000" fill-rule="nonzero" fill-opacity="1" /><path clip-path="url(#clip600)" d="M2083.76 221.888 L2083.76 223.971 L2064.18 223.971 Q2064.45 228.369 2066.82 230.684 Q2069.2 232.976 2073.44 232.976 Q2075.89 232.976 2078.18 232.374 Q2080.5 231.772 2082.76 230.569 L2082.76 234.596 Q2080.47 235.568 2078.06 236.078 Q2075.66 236.587 2073.18 236.587 Q2066.98 236.587 2063.34 232.976 Q2059.73 229.365 2059.73 223.207 Q2059.73 216.842 2063.16 213.115 Q2066.61 209.365 2072.44 209.365 Q2077.67 209.365 2080.7 212.745 Q2083.76 216.101 2083.76 221.888 M2079.5 220.638 Q2079.45 217.143 2077.53 215.059 Q2075.63 212.976 2072.49 212.976 Q2068.92 212.976 2066.77 214.99 Q2064.64 217.004 2064.32 220.661 L2079.5 220.638 Z" fill="#000000" fill-rule="nonzero" fill-opacity="1" /><path clip-path="url(#clip600)" d="M2107.81 213.925 L2107.81 199.897 L2112.07 199.897 L2112.07 235.916 L2107.81 235.916 L2107.81 232.027 Q2106.47 234.342 2104.41 235.476 Q2102.37 236.587 2099.5 236.587 Q2094.8 236.587 2091.84 232.837 Q2088.9 229.087 2088.9 222.976 Q2088.9 216.865 2091.84 213.115 Q2094.8 209.365 2099.5 209.365 Q2102.37 209.365 2104.41 210.499 Q2106.47 211.61 2107.81 213.925 M2093.3 222.976 Q2093.3 227.675 2095.22 230.36 Q2097.16 233.022 2100.54 233.022 Q2103.92 233.022 2105.87 230.36 Q2107.81 227.675 2107.81 222.976 Q2107.81 218.277 2105.87 215.615 Q2103.92 212.93 2100.54 212.93 Q2097.16 212.93 2095.22 215.615 Q2093.3 218.277 2093.3 222.976 Z" fill="#000000" fill-rule="nonzero" fill-opacity="1" /><path clip-path="url(#clip600)" d="M2140.54 243.786 L2140.54 247.096 L2115.91 247.096 L2115.91 243.786 L2140.54 243.786 Z" fill="#000000" fill-rule="nonzero" fill-opacity="1" /><path clip-path="url(#clip600)" d="M2149.41 219.411 L2149.41 232.073 L2156.91 232.073 Q2160.68 232.073 2162.49 230.522 Q2164.31 228.948 2164.31 225.731 Q2164.31 222.49 2162.49 220.962 Q2160.68 219.411 2156.91 219.411 L2149.41 219.411 M2149.41 205.198 L2149.41 215.615 L2156.33 215.615 Q2159.75 215.615 2161.42 214.342 Q2163.11 213.045 2163.11 210.407 Q2163.11 207.791 2161.42 206.495 Q2159.75 205.198 2156.33 205.198 L2149.41 205.198 M2144.73 201.356 L2156.68 201.356 Q2162.02 201.356 2164.92 203.578 Q2167.81 205.8 2167.81 209.897 Q2167.81 213.069 2166.33 214.944 Q2164.85 216.819 2161.98 217.282 Q2165.43 218.022 2167.32 220.383 Q2169.25 222.721 2169.25 226.24 Q2169.25 230.869 2166.1 233.393 Q2162.95 235.916 2157.14 235.916 L2144.73 235.916 L2144.73 201.356 Z" fill="#000000" fill-rule="nonzero" fill-opacity="1" /><path clip-path="url(#clip600)" d="M2172.46 201.356 L2201.7 201.356 L2201.7 205.291 L2189.43 205.291 L2189.43 235.916 L2184.73 235.916 L2184.73 205.291 L2172.46 205.291 L2172.46 201.356 Z" fill="#000000" fill-rule="nonzero" fill-opacity="1" /><path clip-path="url(#clip600)" d="M2200.59 201.356 L2229.82 201.356 L2229.82 205.291 L2217.55 205.291 L2217.55 235.916 L2212.86 235.916 L2212.86 205.291 L2200.59 205.291 L2200.59 201.356 Z" fill="#000000" fill-rule="nonzero" fill-opacity="1" /><path clip-path="url(#clip600)" d="M2234.34 201.356 L2240.63 201.356 L2255.96 230.268 L2255.96 201.356 L2260.49 201.356 L2260.49 235.916 L2254.2 235.916 L2238.87 207.004 L2238.87 235.916 L2234.34 235.916 L2234.34 201.356 Z" fill="#000000" fill-rule="nonzero" fill-opacity="1" /><polyline clip-path="url(#clip600)" style="stroke:#e26f46; stroke-linecap:round; stroke-linejoin:round; stroke-width:4; stroke-opacity:1; fill:none" points="1820.89,270.476 1959.28,270.476 "/>
<path clip-path="url(#clip600)" d="M1890.09 291.833 L1874.99 285.575 L1868.73 270.476 L1874.99 255.376 L1890.09 249.119 L1905.19 255.376 L1911.44 270.476 L1905.19 285.575 Z" fill="#e26f46" fill-rule="evenodd" fill-opacity="1" stroke="#000000" stroke-opacity="1" stroke-width="4.55111"/>
<path clip-path="url(#clip600)" d="M1998.37 256.367 Q1993.27 256.367 1990.26 260.163 Q1987.28 263.96 1987.28 270.51 Q1987.28 277.038 1990.26 280.834 Q1993.27 284.631 1998.37 284.631 Q2003.46 284.631 2006.42 280.834 Q2009.41 277.038 2009.41 270.51 Q2009.41 263.96 2006.42 260.163 Q2003.46 256.367 1998.37 256.367 M2004.92 287.131 L2011.07 293.867 L2005.43 293.867 L2000.31 288.334 Q1999.55 288.381 1999.13 288.404 Q1998.74 288.427 1998.37 288.427 Q1991.07 288.427 1986.7 283.566 Q1982.35 278.682 1982.35 270.51 Q1982.35 262.316 1986.7 257.455 Q1991.07 252.571 1998.37 252.571 Q2005.63 252.571 2009.99 257.455 Q2014.34 262.316 2014.34 270.51 Q2014.34 276.529 2011.91 280.811 Q2009.5 285.094 2004.92 287.131 Z" fill="#000000" fill-rule="nonzero" fill-opacity="1" /><path clip-path="url(#clip600)" d="M2016.86 253.196 L2046.1 253.196 L2046.1 257.131 L2033.83 257.131 L2033.83 287.756 L2029.13 287.756 L2029.13 257.131 L2016.86 257.131 L2016.86 253.196 Z" fill="#000000" fill-rule="nonzero" fill-opacity="1" /><path clip-path="url(#clip600)" d="M2044.99 253.196 L2074.22 253.196 L2074.22 257.131 L2061.95 257.131 L2061.95 287.756 L2057.25 287.756 L2057.25 257.131 L2044.99 257.131 L2044.99 253.196 Z" fill="#000000" fill-rule="nonzero" fill-opacity="1" /><path clip-path="url(#clip600)" d="M2098.25 295.626 L2098.25 298.936 L2073.62 298.936 L2073.62 295.626 L2098.25 295.626 Z" fill="#000000" fill-rule="nonzero" fill-opacity="1" /><path clip-path="url(#clip600)" d="M2123.16 254.33 L2123.16 258.89 Q2120.5 257.617 2118.13 256.992 Q2115.77 256.367 2113.57 256.367 Q2109.75 256.367 2107.67 257.848 Q2105.61 259.33 2105.61 262.061 Q2105.61 264.353 2106.98 265.534 Q2108.37 266.691 2112.21 267.409 L2115.03 267.987 Q2120.26 268.983 2122.74 271.506 Q2125.24 274.006 2125.24 278.219 Q2125.24 283.242 2121.86 285.834 Q2118.5 288.427 2112 288.427 Q2109.55 288.427 2106.77 287.871 Q2104.01 287.316 2101.05 286.228 L2101.05 281.413 Q2103.9 283.01 2106.63 283.821 Q2109.36 284.631 2112 284.631 Q2116 284.631 2118.18 283.057 Q2120.36 281.483 2120.36 278.566 Q2120.36 276.02 2118.78 274.584 Q2117.23 273.149 2113.67 272.432 L2110.82 271.876 Q2105.59 270.835 2103.25 268.612 Q2100.91 266.39 2100.91 262.432 Q2100.91 257.848 2104.13 255.21 Q2107.37 252.571 2113.04 252.571 Q2115.47 252.571 2118 253.011 Q2120.52 253.45 2123.16 254.33 Z" fill="#000000" fill-rule="nonzero" fill-opacity="1" /><path clip-path="url(#clip600)" d="M2154.52 273.728 L2154.52 275.811 L2134.94 275.811 Q2135.22 280.209 2137.58 282.524 Q2139.96 284.816 2144.2 284.816 Q2146.65 284.816 2148.94 284.214 Q2151.26 283.612 2153.53 282.409 L2153.53 286.436 Q2151.24 287.408 2148.83 287.918 Q2146.42 288.427 2143.94 288.427 Q2137.74 288.427 2134.11 284.816 Q2130.5 281.205 2130.5 275.047 Q2130.5 268.682 2133.92 264.955 Q2137.37 261.205 2143.2 261.205 Q2148.43 261.205 2151.47 264.585 Q2154.52 267.941 2154.52 273.728 M2150.26 272.478 Q2150.22 268.983 2148.3 266.899 Q2146.4 264.816 2143.25 264.816 Q2139.69 264.816 2137.53 266.83 Q2135.4 268.844 2135.08 272.501 L2150.26 272.478 Z" fill="#000000" fill-rule="nonzero" fill-opacity="1" /><path clip-path="url(#clip600)" d="M2164.06 274.816 Q2164.06 279.515 2165.98 282.2 Q2167.93 284.862 2171.31 284.862 Q2174.68 284.862 2176.63 282.2 Q2178.57 279.515 2178.57 274.816 Q2178.57 270.117 2176.63 267.455 Q2174.68 264.77 2171.31 264.77 Q2167.93 264.77 2165.98 267.455 Q2164.06 270.117 2164.06 274.816 M2178.57 283.867 Q2177.23 286.182 2175.17 287.316 Q2173.13 288.427 2170.26 288.427 Q2165.56 288.427 2162.6 284.677 Q2159.66 280.927 2159.66 274.816 Q2159.66 268.705 2162.6 264.955 Q2165.56 261.205 2170.26 261.205 Q2173.13 261.205 2175.17 262.339 Q2177.23 263.45 2178.57 265.765 L2178.57 261.83 L2182.83 261.83 L2182.83 297.617 L2178.57 297.617 L2178.57 283.867 Z" fill="#000000" fill-rule="nonzero" fill-opacity="1" /><polyline clip-path="url(#clip600)" style="stroke:#3da44d; stroke-linecap:round; stroke-linejoin:round; stroke-width:4; stroke-opacity:1; fill:none" points="1820.89,322.316 1959.28,322.316 "/>
<path clip-path="url(#clip600)" d="M1890.09 343.673 L1874.99 337.415 L1868.73 322.316 L1874.99 307.216 L1890.09 300.959 L1905.19 307.216 L1911.44 322.316 L1905.19 337.415 Z" fill="#3da44d" fill-rule="evenodd" fill-opacity="1" stroke="#000000" stroke-opacity="1" stroke-width="4.55111"/>
<path clip-path="url(#clip600)" d="M1987.02 323.091 L1987.02 335.753 L1994.52 335.753 Q1998.3 335.753 2000.1 334.202 Q2001.93 332.628 2001.93 329.411 Q2001.93 326.17 2000.1 324.642 Q1998.3 323.091 1994.52 323.091 L1987.02 323.091 M1987.02 308.878 L1987.02 319.295 L1993.95 319.295 Q1997.37 319.295 1999.04 318.022 Q2000.73 316.725 2000.73 314.087 Q2000.73 311.471 1999.04 310.175 Q1997.37 308.878 1993.95 308.878 L1987.02 308.878 M1982.35 305.036 L1994.29 305.036 Q1999.64 305.036 2002.53 307.258 Q2005.43 309.48 2005.43 313.577 Q2005.43 316.749 2003.95 318.624 Q2002.46 320.499 1999.59 320.962 Q2003.04 321.702 2004.94 324.063 Q2006.86 326.401 2006.86 329.92 Q2006.86 334.549 2003.71 337.073 Q2000.57 339.596 1994.76 339.596 L1982.35 339.596 L1982.35 305.036 Z" fill="#000000" fill-rule="nonzero" fill-opacity="1" /><path clip-path="url(#clip600)" d="M2010.08 305.036 L2039.32 305.036 L2039.32 308.971 L2027.05 308.971 L2027.05 339.596 L2022.35 339.596 L2022.35 308.971 L2010.08 308.971 L2010.08 305.036 Z" fill="#000000" fill-rule="nonzero" fill-opacity="1" /><path clip-path="url(#clip600)" d="M2038.2 305.036 L2067.44 305.036 L2067.44 308.971 L2055.17 308.971 L2055.17 339.596 L2050.47 339.596 L2050.47 308.971 L2038.2 308.971 L2038.2 305.036 Z" fill="#000000" fill-rule="nonzero" fill-opacity="1" /><path clip-path="url(#clip600)" d="M2071.95 305.036 L2078.25 305.036 L2093.57 333.948 L2093.57 305.036 L2098.11 305.036 L2098.11 339.596 L2091.81 339.596 L2076.49 310.684 L2076.49 339.596 L2071.95 339.596 L2071.95 305.036 Z" fill="#000000" fill-rule="nonzero" fill-opacity="1" /><polyline clip-path="url(#clip600)" style="stroke:#c271d2; stroke-linecap:round; stroke-linejoin:round; stroke-width:4; stroke-opacity:1; fill:none" points="1820.89,374.156 1959.28,374.156 "/>
<path clip-path="url(#clip600)" d="M1890.09 395.513 L1874.99 389.255 L1868.73 374.156 L1874.99 359.056 L1890.09 352.799 L1905.19 359.056 L1911.44 374.156 L1905.19 389.255 Z" fill="#c271d2" fill-rule="evenodd" fill-opacity="1" stroke="#000000" stroke-opacity="1" stroke-width="4.55111"/>
<path clip-path="url(#clip600)" d="M2010.22 359.538 L2010.22 364.468 Q2007.86 362.269 2005.17 361.181 Q2002.51 360.093 1999.5 360.093 Q1993.57 360.093 1990.43 363.728 Q1987.28 367.339 1987.28 374.19 Q1987.28 381.019 1990.43 384.653 Q1993.57 388.264 1999.5 388.264 Q2002.51 388.264 2005.17 387.176 Q2007.86 386.089 2010.22 383.889 L2010.22 388.774 Q2007.76 390.44 2005.01 391.274 Q2002.28 392.107 1999.22 392.107 Q1991.38 392.107 1986.86 387.315 Q1982.35 382.501 1982.35 374.19 Q1982.35 365.857 1986.86 361.066 Q1991.38 356.251 1999.22 356.251 Q2002.32 356.251 2005.06 357.084 Q2007.81 357.894 2010.22 359.538 Z" fill="#000000" fill-rule="nonzero" fill-opacity="1" /><path clip-path="url(#clip600)" d="M2012.65 356.876 L2041.88 356.876 L2041.88 360.811 L2029.62 360.811 L2029.62 391.436 L2024.92 391.436 L2024.92 360.811 L2012.65 360.811 L2012.65 356.876 Z" fill="#000000" fill-rule="nonzero" fill-opacity="1" /><path clip-path="url(#clip600)" d="M2040.77 356.876 L2070.01 356.876 L2070.01 360.811 L2057.74 360.811 L2057.74 391.436 L2053.04 391.436 L2053.04 360.811 L2040.77 360.811 L2040.77 356.876 Z" fill="#000000" fill-rule="nonzero" fill-opacity="1" /><path clip-path="url(#clip600)" d="M2074.52 356.876 L2080.82 356.876 L2096.14 385.788 L2096.14 356.876 L2100.68 356.876 L2100.68 391.436 L2094.38 391.436 L2079.06 362.524 L2079.06 391.436 L2074.52 391.436 L2074.52 356.876 Z" fill="#000000" fill-rule="nonzero" fill-opacity="1" /><polyline clip-path="url(#clip600)" style="stroke:#ac8d18; stroke-linecap:round; stroke-linejoin:round; stroke-width:4; stroke-opacity:1; fill:none" points="1820.89,425.996 1959.28,425.996 "/>
<path clip-path="url(#clip600)" d="M1890.09 447.353 L1874.99 441.095 L1868.73 425.996 L1874.99 410.896 L1890.09 404.639 L1905.19 410.896 L1911.44 425.996 L1905.19 441.095 Z" fill="#ac8d18" fill-rule="evenodd" fill-opacity="1" stroke="#000000" stroke-opacity="1" stroke-width="4.55111"/>
<path clip-path="url(#clip600)" d="M1998.37 411.887 Q1993.27 411.887 1990.26 415.683 Q1987.28 419.48 1987.28 426.03 Q1987.28 432.558 1990.26 436.354 Q1993.27 440.151 1998.37 440.151 Q2003.46 440.151 2006.42 436.354 Q2009.41 432.558 2009.41 426.03 Q2009.41 419.48 2006.42 415.683 Q2003.46 411.887 1998.37 411.887 M2004.92 442.651 L2011.07 449.387 L2005.43 449.387 L2000.31 443.854 Q1999.55 443.901 1999.13 443.924 Q1998.74 443.947 1998.37 443.947 Q1991.07 443.947 1986.7 439.086 Q1982.35 434.202 1982.35 426.03 Q1982.35 417.836 1986.7 412.975 Q1991.07 408.091 1998.37 408.091 Q2005.63 408.091 2009.99 412.975 Q2014.34 417.836 2014.34 426.03 Q2014.34 432.049 2011.91 436.331 Q2009.5 440.614 2004.92 442.651 Z" fill="#000000" fill-rule="nonzero" fill-opacity="1" /><path clip-path="url(#clip600)" d="M2016.86 408.716 L2046.1 408.716 L2046.1 412.651 L2033.83 412.651 L2033.83 443.276 L2029.13 443.276 L2029.13 412.651 L2016.86 412.651 L2016.86 408.716 Z" fill="#000000" fill-rule="nonzero" fill-opacity="1" /><path clip-path="url(#clip600)" d="M2044.99 408.716 L2074.22 408.716 L2074.22 412.651 L2061.95 412.651 L2061.95 443.276 L2057.25 443.276 L2057.25 412.651 L2044.99 412.651 L2044.99 408.716 Z" fill="#000000" fill-rule="nonzero" fill-opacity="1" /><path clip-path="url(#clip600)" d="M2098.25 451.146 L2098.25 454.456 L2073.62 454.456 L2073.62 451.146 L2098.25 451.146 Z" fill="#000000" fill-rule="nonzero" fill-opacity="1" /><path clip-path="url(#clip600)" d="M2102.44 408.716 L2107.12 408.716 L2107.12 443.276 L2102.44 443.276 L2102.44 408.716 Z" fill="#000000" fill-rule="nonzero" fill-opacity="1" /><path clip-path="url(#clip600)" d="M2137.79 427.628 L2137.79 443.276 L2133.53 443.276 L2133.53 427.767 Q2133.53 424.086 2132.09 422.257 Q2130.66 420.429 2127.79 420.429 Q2124.34 420.429 2122.35 422.628 Q2120.36 424.827 2120.36 428.623 L2120.36 443.276 L2116.07 443.276 L2116.07 417.35 L2120.36 417.35 L2120.36 421.378 Q2121.88 419.04 2123.94 417.882 Q2126.03 416.725 2128.74 416.725 Q2133.2 416.725 2135.5 419.503 Q2137.79 422.257 2137.79 427.628 Z" fill="#000000" fill-rule="nonzero" fill-opacity="1" /><path clip-path="url(#clip600)" d="M2150.5 409.989 L2150.5 417.35 L2159.27 417.35 L2159.27 420.66 L2150.5 420.66 L2150.5 434.734 Q2150.5 437.905 2151.35 438.808 Q2152.23 439.711 2154.89 439.711 L2159.27 439.711 L2159.27 443.276 L2154.89 443.276 Q2149.96 443.276 2148.09 441.447 Q2146.21 439.595 2146.21 434.734 L2146.21 420.66 L2143.09 420.66 L2143.09 417.35 L2146.21 417.35 L2146.21 409.989 L2150.5 409.989 Z" fill="#000000" fill-rule="nonzero" fill-opacity="1" /></svg>
