<?xml version="1.0" encoding="UTF-8" standalone="no"?>
<!DOCTYPE svg PUBLIC "-//W3C//DTD SVG 1.1//EN"
 "http://www.w3.org/Graphics/SVG/1.1/DTD/svg11.dtd">
<!-- Generated by graphviz version 14.0.2 (20251019.1705)
 -->
<!-- Title: maxdeg3 Pages: 1 -->
<svg width="736pt" height="1861pt"
 viewBox="0.00 0.00 736.00 1861.00" xmlns="http://www.w3.org/2000/svg" xmlns:xlink="http://www.w3.org/1999/xlink">
<g id="graph0" class="graph" transform="scale(1 1) rotate(0) translate(4 1857.1)">
<title>maxdeg3</title>
<polygon fill="white" stroke="none" points="-4,4 -4,-1857.1 732.4,-1857.1 732.4,4 -4,4"/>
<!-- 1 -->
<g id="node1" class="node">
<title>1</title>
<ellipse fill="#3b78d8" stroke="black" cx="21.6" cy="-1830.6" rx="21.6" ry="21.6"/>
<text xml:space="preserve" text-anchor="middle" x="21.6" y="-1825.57" font-family="Helvetica,sans-Serif" font-size="12.00" fill="#ffffff">1</text>
</g>
<!-- 17 -->
<g id="node17" class="node">
<title>17</title>
<g id="a_node17"><a xlink:title="17">
<ellipse fill="#d9534f" stroke="black" cx="132.55" cy="-1830.6" rx="21.6" ry="21.6"/>
<text xml:space="preserve" text-anchor="middle" x="132.55" y="-1825.57" font-family="Helvetica,sans-Serif" font-size="12.00" fill="#ffffff">1</text>
</a>
</g>
</g>
<!-- 1&#45;&#45;17 -->
<g id="edge1" class="edge">
<title>1&#45;&#45;17</title>
<path fill="none" stroke="#666666" stroke-width="1.8" d="M43.61,-1830.6C62.9,-1830.6 91.34,-1830.6 110.61,-1830.6"/>
<text xml:space="preserve" text-anchor="middle" x="77.08" y="-1834.1" font-family="Times,serif" font-size="20.00" fill="#333333">2</text>
</g>
<!-- 2 -->
<g id="node2" class="node">
<title>2</title>
<ellipse fill="#3b78d8" stroke="black" cx="132.55" cy="-1630.6" rx="21.6" ry="21.6"/>
<text xml:space="preserve" text-anchor="middle" x="132.55" y="-1625.57" font-family="Helvetica,sans-Serif" font-size="12.00" fill="#ffffff">2</text>
</g>
<!-- 18 -->
<g id="node18" class="node">
<title>18</title>
<g id="a_node18"><a xlink:title="18">
<ellipse fill="#d9534f" stroke="black" cx="253.25" cy="-1605.6" rx="21.6" ry="21.6"/>
<text xml:space="preserve" text-anchor="middle" x="253.25" y="-1600.57" font-family="Helvetica,sans-Serif" font-size="12.00" fill="#ffffff">2</text>
</a>
</g>
</g>
<!-- 2&#45;&#45;18 -->
<g id="edge2" class="edge">
<title>2&#45;&#45;18</title>
<path fill="none" stroke="#666666" stroke-width="1.8" d="M153.75,-1625.18C162.72,-1622.86 173.43,-1620.2 183.15,-1618.1 199.36,-1614.6 217.84,-1611.29 231.62,-1608.96"/>
<text xml:space="preserve" text-anchor="middle" x="192.9" y="-1621.6" font-family="Times,serif" font-size="20.00" fill="#333333">2</text>
</g>
<!-- 3 -->
<g id="node3" class="node">
<title>3</title>
<ellipse fill="#3b78d8" stroke="black" cx="132.55" cy="-1330.6" rx="21.6" ry="21.6"/>
<text xml:space="preserve" text-anchor="middle" x="132.55" y="-1325.57" font-family="Helvetica,sans-Serif" font-size="12.00" fill="#ffffff">3</text>
</g>
<!-- 19 -->
<g id="node19" class="node">
<title>19</title>
<g id="a_node19"><a xlink:title="19">
<ellipse fill="#d9534f" stroke="black" cx="253.25" cy="-1395.6" rx="21.6" ry="21.6"/>
<text xml:space="preserve" text-anchor="middle" x="253.25" y="-1390.57" font-family="Helvetica,sans-Serif" font-size="12.00" fill="#ffffff">3</text>
</a>
</g>
</g>
<!-- 3&#45;&#45;19 -->
<g id="edge3" class="edge">
<title>3&#45;&#45;19</title>
<path fill="none" stroke="#666666" stroke-width="1.8" d="M152.21,-1320.93C166.76,-1314.82 187.04,-1309.56 202.65,-1318.1 224.65,-1330.14 238.32,-1356.56 245.6,-1375.2"/>
<text xml:space="preserve" text-anchor="middle" x="192.9" y="-1321.6" font-family="Times,serif" font-size="20.00" fill="#333333">2</text>
</g>
<!-- 4 -->
<g id="node4" class="node">
<title>4</title>
<ellipse fill="#3b78d8" stroke="black" cx="132.55" cy="-1480.6" rx="21.6" ry="21.6"/>
<text xml:space="preserve" text-anchor="middle" x="132.55" y="-1475.57" font-family="Helvetica,sans-Serif" font-size="12.00" fill="#ffffff">4</text>
</g>
<!-- 4&#45;&#45;18 -->
<g id="edge4" class="edge">
<title>4&#45;&#45;18</title>
<path fill="none" stroke="#666666" stroke-width="2.4" d="M148.1,-1495.93C170.89,-1519.92 214.72,-1566.08 237.58,-1590.15"/>
<text xml:space="preserve" text-anchor="middle" x="192.9" y="-1554.08" font-family="Times,serif" font-size="20.00" fill="#333333">3</text>
</g>
<!-- 4&#45;&#45;19 -->
<g id="edge5" class="edge">
<title>4&#45;&#45;19</title>
<path fill="none" stroke="#666666" stroke-width="2.4" d="M144.14,-1462C152.93,-1448.09 166.66,-1429.56 183.15,-1418.1 197.65,-1408.02 216.96,-1402.24 231.48,-1399.06"/>
<text xml:space="preserve" text-anchor="middle" x="192.9" y="-1421.6" font-family="Times,serif" font-size="20.00" fill="#333333">3</text>
</g>
<!-- 20 -->
<g id="node20" class="node">
<title>20</title>
<g id="a_node20"><a xlink:title="20">
<ellipse fill="#d9534f" stroke="black" cx="253.25" cy="-1755.6" rx="21.6" ry="21.6"/>
<text xml:space="preserve" text-anchor="middle" x="253.25" y="-1750.57" font-family="Helvetica,sans-Serif" font-size="12.00" fill="#ffffff">4</text>
</a>
</g>
</g>
<!-- 4&#45;&#45;20 -->
<g id="edge6" class="edge">
<title>4&#45;&#45;20</title>
<path fill="none" stroke="#666666" stroke-width="4.2" d="M138.67,-1501.73C148.51,-1541.76 170.24,-1627.09 183.15,-1654.6 198.32,-1686.91 223.34,-1720.31 238.74,-1739.46"/>
<text xml:space="preserve" text-anchor="middle" x="192.9" y="-1690.38" font-family="Times,serif" font-size="20.00" fill="#333333">6</text>
</g>
<!-- 21 -->
<g id="node21" class="node">
<title>21</title>
<g id="a_node21"><a xlink:title="21">
<ellipse fill="#d9534f" stroke="black" cx="253.25" cy="-1130.6" rx="21.6" ry="21.6"/>
<text xml:space="preserve" text-anchor="middle" x="253.25" y="-1125.57" font-family="Helvetica,sans-Serif" font-size="12.00" fill="#ffffff">5</text>
</a>
</g>
</g>
<!-- 4&#45;&#45;21 -->
<g id="edge7" class="edge">
<title>4&#45;&#45;21</title>
<path fill="none" stroke="#666666" stroke-width="9" d="M138.32,-1459.51C149.48,-1410.31 176.84,-1290.76 183.15,-1273.1 199.71,-1226.75 226.89,-1175.55 241.75,-1148.94"/>
<text xml:space="preserve" text-anchor="middle" x="192.9" y="-1276.6" font-family="Times,serif" font-size="20.00" fill="#333333">14</text>
</g>
<!-- 5 -->
<g id="node5" class="node">
<title>5</title>
<ellipse fill="#3b78d8" stroke="black" cx="132.55" cy="-1015.6" rx="21.6" ry="21.6"/>
<text xml:space="preserve" text-anchor="middle" x="132.55" y="-1010.57" font-family="Helvetica,sans-Serif" font-size="12.00" fill="#ffffff">5</text>
</g>
<!-- 5&#45;&#45;21 -->
<g id="edge8" class="edge">
<title>5&#45;&#45;21</title>
<path fill="none" stroke="#666666" stroke-width="1.8" d="M149.58,-1029.1C163.85,-1041.29 185.1,-1059.9 202.65,-1077.1 215.13,-1089.33 228.57,-1103.92 238.31,-1114.78"/>
<text xml:space="preserve" text-anchor="middle" x="192.9" y="-1080.6" font-family="Times,serif" font-size="20.00" fill="#333333">2</text>
</g>
<!-- 6 -->
<g id="node6" class="node">
<title>6</title>
<ellipse fill="#3b78d8" stroke="black" cx="132.55" cy="-1130.6" rx="21.6" ry="21.6"/>
<text xml:space="preserve" text-anchor="middle" x="132.55" y="-1125.57" font-family="Helvetica,sans-Serif" font-size="12.00" fill="#ffffff">6</text>
</g>
<!-- 6&#45;&#45;21 -->
<g id="edge9" class="edge">
<title>6&#45;&#45;21</title>
<path fill="none" stroke="#666666" stroke-width="1.8" d="M153.42,-1123.76C167.18,-1119.82 185.95,-1116.03 202.65,-1118.1 212.52,-1119.32 223.25,-1121.87 232.19,-1124.35"/>
<text xml:space="preserve" text-anchor="middle" x="192.9" y="-1121.6" font-family="Times,serif" font-size="20.00" fill="#333333">2</text>
</g>
<!-- 7 -->
<g id="node7" class="node">
<title>7</title>
<ellipse fill="#3b78d8" stroke="black" cx="253.25" cy="-1245.6" rx="21.6" ry="21.6"/>
<text xml:space="preserve" text-anchor="middle" x="253.25" y="-1240.57" font-family="Helvetica,sans-Serif" font-size="12.00" fill="#ffffff">7</text>
</g>
<!-- 22 -->
<g id="node22" class="node">
<title>22</title>
<g id="a_node22"><a xlink:title="22">
<ellipse fill="#d9534f" stroke="black" cx="373.95" cy="-1192.6" rx="21.6" ry="21.6"/>
<text xml:space="preserve" text-anchor="middle" x="373.95" y="-1187.57" font-family="Helvetica,sans-Serif" font-size="12.00" fill="#ffffff">6</text>
</a>
</g>
</g>
<!-- 7&#45;&#45;22 -->
<g id="edge10" class="edge">
<title>7&#45;&#45;22</title>
<path fill="none" stroke="#666666" stroke-width="1.8" d="M273.59,-1236.97C295.66,-1227.11 331.55,-1211.08 353.62,-1201.23"/>
<text xml:space="preserve" text-anchor="middle" x="313.6" y="-1225.77" font-family="Times,serif" font-size="20.00" fill="#333333">2</text>
</g>
<!-- 8 -->
<g id="node8" class="node">
<title>8</title>
<ellipse fill="#3b78d8" stroke="black" cx="373.95" cy="-920.6" rx="21.6" ry="21.6"/>
<text xml:space="preserve" text-anchor="middle" x="373.95" y="-915.57" font-family="Helvetica,sans-Serif" font-size="12.00" fill="#ffffff">8</text>
</g>
<!-- 24 -->
<g id="node24" class="node">
<title>24</title>
<g id="a_node24"><a xlink:title="24">
<ellipse fill="#d9534f" stroke="black" cx="484.9" cy="-1027.6" rx="21.6" ry="21.6"/>
<text xml:space="preserve" text-anchor="middle" x="484.9" y="-1022.57" font-family="Helvetica,sans-Serif" font-size="12.00" fill="#ffffff">8</text>
</a>
</g>
</g>
<!-- 8&#45;&#45;24 -->
<g id="edge11" class="edge">
<title>8&#45;&#45;24</title>
<path fill="none" stroke="#666666" stroke-width="1.8" d="M390.1,-935.48C410.91,-955.92 448.13,-992.47 468.88,-1012.85"/>
<text xml:space="preserve" text-anchor="middle" x="429.43" y="-980.81" font-family="Times,serif" font-size="20.00" fill="#333333">2</text>
</g>
<!-- 9 -->
<g id="node9" class="node">
<title>9</title>
<ellipse fill="#3b78d8" stroke="black" cx="373.95" cy="-1035.6" rx="21.6" ry="21.6"/>
<text xml:space="preserve" text-anchor="middle" x="373.95" y="-1030.57" font-family="Helvetica,sans-Serif" font-size="12.00" fill="#ffffff">9</text>
</g>
<!-- 9&#45;&#45;24 -->
<g id="edge12" class="edge">
<title>9&#45;&#45;24</title>
<path fill="none" stroke="#666666" stroke-width="1.8" d="M395.96,-1034.06C415.25,-1032.64 443.69,-1030.55 462.96,-1029.14"/>
<text xml:space="preserve" text-anchor="middle" x="429.43" y="-1035.34" font-family="Times,serif" font-size="20.00" fill="#333333">2</text>
</g>
<!-- 10 -->
<g id="node10" class="node">
<title>10</title>
<ellipse fill="#3b78d8" stroke="black" cx="484.9" cy="-1142.6" rx="21.6" ry="21.6"/>
<text xml:space="preserve" text-anchor="middle" x="484.9" y="-1137.57" font-family="Helvetica,sans-Serif" font-size="12.00" fill="#ffffff">10</text>
</g>
<!-- 25 -->
<g id="node25" class="node">
<title>25</title>
<g id="a_node25"><a xlink:title="25">
<ellipse fill="#d9534f" stroke="black" cx="595.85" cy="-1035.6" rx="21.6" ry="21.6"/>
<text xml:space="preserve" text-anchor="middle" x="595.85" y="-1030.57" font-family="Helvetica,sans-Serif" font-size="12.00" fill="#ffffff">9</text>
</a>
</g>
</g>
<!-- 10&#45;&#45;25 -->
<g id="edge13" class="edge">
<title>10&#45;&#45;25</title>
<path fill="none" stroke="#666666" stroke-width="1.8" d="M501.05,-1127.72C521.86,-1107.28 559.08,-1070.73 579.83,-1050.35"/>
<text xml:space="preserve" text-anchor="middle" x="540.38" y="-1095.81" font-family="Times,serif" font-size="20.00" fill="#333333">2</text>
</g>
<!-- 11 -->
<g id="node11" class="node">
<title>11</title>
<ellipse fill="#3b78d8" stroke="black" cx="484.9" cy="-782.6" rx="21.6" ry="21.6"/>
<text xml:space="preserve" text-anchor="middle" x="484.9" y="-777.57" font-family="Helvetica,sans-Serif" font-size="12.00" fill="#ffffff">11</text>
</g>
<!-- 12 -->
<g id="node12" class="node">
<title>12</title>
<ellipse fill="#3b78d8" stroke="black" cx="595.85" cy="-839.6" rx="21.6" ry="21.6"/>
<text xml:space="preserve" text-anchor="middle" x="595.85" y="-834.57" font-family="Helvetica,sans-Serif" font-size="12.00" fill="#ffffff">12</text>
</g>
<!-- 11&#45;&#45;12 -->
<g id="edge14" class="edge">
<title>11&#45;&#45;12</title>
<path fill="none" stroke="#666666" stroke-width="1.8" d="M504.38,-792.27C524.42,-802.75 556.21,-819.38 576.28,-829.88"/>
<text xml:space="preserve" text-anchor="middle" x="540.38" y="-816.31" font-family="Times,serif" font-size="20.00" fill="#333333">2</text>
</g>
<!-- 11&#45;&#45;25 -->
<g id="edge15" class="edge">
<title>11&#45;&#45;25</title>
<path fill="none" stroke="#666666" stroke-width="4.2" d="M494.45,-802.45C514.82,-849.75 566.01,-968.64 586.34,-1015.84"/>
<text xml:space="preserve" text-anchor="middle" x="540.38" y="-920.19" font-family="Times,serif" font-size="20.00" fill="#333333">6</text>
</g>
<!-- 27 -->
<g id="node27" class="node">
<title>27</title>
<g id="a_node27"><a xlink:title="27">
<ellipse fill="#d9534f" stroke="black" cx="595.85" cy="-724.6" rx="21.6" ry="21.6"/>
<text xml:space="preserve" text-anchor="middle" x="595.85" y="-719.57" font-family="Helvetica,sans-Serif" font-size="12.00" fill="#ffffff">11</text>
</a>
</g>
</g>
<!-- 11&#45;&#45;27 -->
<g id="edge16" class="edge">
<title>11&#45;&#45;27</title>
<path fill="none" stroke="#666666" stroke-width="1.8" d="M504.38,-772.76C524.42,-762.1 556.21,-745.17 576.28,-734.49"/>
<text xml:space="preserve" text-anchor="middle" x="540.38" y="-758.84" font-family="Times,serif" font-size="20.00" fill="#333333">2</text>
</g>
<!-- 28 -->
<g id="node28" class="node">
<title>28</title>
<g id="a_node28"><a xlink:title="28">
<ellipse fill="#d9534f" stroke="black" cx="595.85" cy="-528.6" rx="21.6" ry="21.6"/>
<text xml:space="preserve" text-anchor="middle" x="595.85" y="-523.57" font-family="Helvetica,sans-Serif" font-size="12.00" fill="#ffffff">12</text>
</a>
</g>
</g>
<!-- 11&#45;&#45;28 -->
<g id="edge17" class="edge">
<title>11&#45;&#45;28</title>
<path fill="none" stroke="#666666" stroke-width="4.2" d="M494.27,-763.09C514.5,-715.93 565.89,-596.11 586.3,-548.53"/>
<text xml:space="preserve" text-anchor="middle" x="540.38" y="-666.72" font-family="Times,serif" font-size="20.00" fill="#333333">6</text>
</g>
<!-- 13 -->
<g id="node13" class="node">
<title>13</title>
<ellipse fill="#3b78d8" stroke="black" cx="484.9" cy="-528.6" rx="21.6" ry="21.6"/>
<text xml:space="preserve" text-anchor="middle" x="484.9" y="-523.57" font-family="Helvetica,sans-Serif" font-size="12.00" fill="#ffffff">13</text>
</g>
<!-- 13&#45;&#45;28 -->
<g id="edge18" class="edge">
<title>13&#45;&#45;28</title>
<path fill="none" stroke="#666666" stroke-width="1.8" d="M505.54,-521.11C517.04,-517.57 531.87,-514.44 545.25,-516.1 555.12,-517.32 565.85,-519.87 574.79,-522.35"/>
<text xml:space="preserve" text-anchor="middle" x="540.38" y="-519.6" font-family="Times,serif" font-size="20.00" fill="#333333">2</text>
</g>
<!-- 14 -->
<g id="node14" class="node">
<title>14</title>
<ellipse fill="#3b78d8" stroke="black" cx="484.9" cy="-275.6" rx="21.6" ry="21.6"/>
<text xml:space="preserve" text-anchor="middle" x="484.9" y="-270.57" font-family="Helvetica,sans-Serif" font-size="12.00" fill="#ffffff">14</text>
</g>
<!-- 15 -->
<g id="node15" class="node">
<title>15</title>
<ellipse fill="#3b78d8" stroke="black" cx="595.85" cy="-332.6" rx="21.6" ry="21.6"/>
<text xml:space="preserve" text-anchor="middle" x="595.85" y="-327.57" font-family="Helvetica,sans-Serif" font-size="12.00" fill="#ffffff">15</text>
</g>
<!-- 14&#45;&#45;15 -->
<g id="edge19" class="edge">
<title>14&#45;&#45;15</title>
<path fill="none" stroke="#666666" stroke-width="1.8" d="M504.38,-285.27C524.42,-295.75 556.21,-312.38 576.28,-322.88"/>
<text xml:space="preserve" text-anchor="middle" x="540.38" y="-309.31" font-family="Times,serif" font-size="20.00" fill="#333333">2</text>
</g>
<!-- 14&#45;&#45;28 -->
<g id="edge20" class="edge">
<title>14&#45;&#45;28</title>
<path fill="none" stroke="#666666" stroke-width="3.6" d="M494.45,-295.45C514.82,-342.75 566.01,-461.64 586.34,-508.84"/>
<text xml:space="preserve" text-anchor="middle" x="540.38" y="-413.19" font-family="Times,serif" font-size="20.00" fill="#333333">5</text>
</g>
<!-- 30 -->
<g id="node30" class="node">
<title>30</title>
<g id="a_node30"><a xlink:title="30">
<ellipse fill="#d9534f" stroke="black" cx="595.85" cy="-217.6" rx="21.6" ry="21.6"/>
<text xml:space="preserve" text-anchor="middle" x="595.85" y="-212.57" font-family="Helvetica,sans-Serif" font-size="12.00" fill="#ffffff">14</text>
</a>
</g>
</g>
<!-- 14&#45;&#45;30 -->
<g id="edge21" class="edge">
<title>14&#45;&#45;30</title>
<path fill="none" stroke="#666666" stroke-width="1.8" d="M504.38,-265.76C524.42,-255.1 556.21,-238.17 576.28,-227.49"/>
<text xml:space="preserve" text-anchor="middle" x="540.38" y="-251.84" font-family="Times,serif" font-size="20.00" fill="#333333">2</text>
</g>
<!-- 31 -->
<g id="node31" class="node">
<title>31</title>
<g id="a_node31"><a xlink:title="31">
<ellipse fill="#d9534f" stroke="black" cx="595.85" cy="-60.6" rx="21.6" ry="21.6"/>
<text xml:space="preserve" text-anchor="middle" x="595.85" y="-55.57" font-family="Helvetica,sans-Serif" font-size="12.00" fill="#ffffff">15</text>
</a>
</g>
</g>
<!-- 14&#45;&#45;31 -->
<g id="edge22" class="edge">
<title>14&#45;&#45;31</title>
<path fill="none" stroke="#666666" stroke-width="3.6" d="M495.57,-256.52C516.24,-215.72 564.55,-120.4 585.2,-79.64"/>
<text xml:space="preserve" text-anchor="middle" x="540.38" y="-178.05" font-family="Times,serif" font-size="20.00" fill="#333333">5</text>
</g>
<!-- 16 -->
<g id="node16" class="node">
<title>16</title>
<ellipse fill="#3b78d8" stroke="black" cx="484.9" cy="-21.6" rx="21.6" ry="21.6"/>
<text xml:space="preserve" text-anchor="middle" x="484.9" y="-16.57" font-family="Helvetica,sans-Serif" font-size="12.00" fill="#ffffff">16</text>
</g>
<!-- 16&#45;&#45;31 -->
<g id="edge23" class="edge">
<title>16&#45;&#45;31</title>
<path fill="none" stroke="#666666" stroke-width="1.8" d="M504.64,-12.03C516.61,-7.26 532.27,-3.58 545.25,-9.1 561.24,-15.9 574.58,-30.67 583.38,-42.65"/>
<text xml:space="preserve" text-anchor="middle" x="540.38" y="-12.6" font-family="Times,serif" font-size="20.00" fill="#333333">2</text>
</g>
<!-- 17&#45;&#45;20 -->
<g id="edge24" class="edge">
<title>17&#45;&#45;20</title>
<path fill="none" stroke="#666666" stroke-width="2.4" d="M151.32,-1819.37C173.7,-1805.23 211.92,-1781.08 234.36,-1766.91"/>
<text xml:space="preserve" text-anchor="middle" x="192.9" y="-1801.09" font-family="Times,serif" font-size="20.00" fill="#333333">3</text>
</g>
<!-- 21&#45;&#45;22 -->
<g id="edge25" class="edge">
<title>21&#45;&#45;22</title>
<path fill="none" stroke="#666666" stroke-width="7.8" d="M272.8,-1140.29C295.1,-1151.94 332.29,-1171.36 354.53,-1182.98"/>
<text xml:space="preserve" text-anchor="middle" x="313.6" y="-1168.81" font-family="Times,serif" font-size="20.00" fill="#333333">12</text>
</g>
<!-- 23 -->
<g id="node23" class="node">
<title>23</title>
<g id="a_node23"><a xlink:title="23">
<ellipse fill="#d9534f" stroke="black" cx="484.9" cy="-1257.6" rx="21.6" ry="21.6"/>
<text xml:space="preserve" text-anchor="middle" x="484.9" y="-1252.57" font-family="Helvetica,sans-Serif" font-size="12.00" fill="#ffffff">7</text>
</a>
</g>
</g>
<!-- 22&#45;&#45;23 -->
<g id="edge26" class="edge">
<title>22&#45;&#45;23</title>
<path fill="none" stroke="#666666" stroke-width="1.8" d="M392.94,-1203.33C413.13,-1215.38 445.68,-1234.8 465.88,-1246.85"/>
<text xml:space="preserve" text-anchor="middle" x="429.43" y="-1230.55" font-family="Times,serif" font-size="20.00" fill="#333333">2</text>
</g>
<!-- 22&#45;&#45;24 -->
<g id="edge27" class="edge">
<title>22&#45;&#45;24</title>
<path fill="none" stroke="#666666" stroke-width="5.4" d="M386.61,-1174.94C407.52,-1143.27 451.19,-1077.14 472.16,-1045.38"/>
<text xml:space="preserve" text-anchor="middle" x="429.43" y="-1118.55" font-family="Times,serif" font-size="20.00" fill="#333333">8</text>
</g>
<!-- 24&#45;&#45;25 -->
<g id="edge28" class="edge">
<title>24&#45;&#45;25</title>
<path fill="none" stroke="#666666" stroke-width="5.4" d="M506.8,-1028.13C518.18,-1028.51 532.5,-1029.13 545.25,-1030.1 554.75,-1030.83 565.25,-1031.94 574.13,-1032.98"/>
<text xml:space="preserve" text-anchor="middle" x="540.38" y="-1033.6" font-family="Times,serif" font-size="20.00" fill="#333333">8</text>
</g>
<!-- 26 -->
<g id="node26" class="node">
<title>26</title>
<g id="a_node26"><a xlink:title="26">
<ellipse fill="#d9534f" stroke="black" cx="706.8" cy="-1035.6" rx="21.6" ry="21.6"/>
<text xml:space="preserve" text-anchor="middle" x="706.8" y="-1030.57" font-family="Helvetica,sans-Serif" font-size="12.00" fill="#ffffff">10</text>
</a>
</g>
</g>
<!-- 25&#45;&#45;26 -->
<g id="edge29" class="edge">
<title>25&#45;&#45;26</title>
<path fill="none" stroke="#666666" stroke-width="1.8" d="M617.86,-1035.6C637.15,-1035.6 665.59,-1035.6 684.86,-1035.6"/>
<text xml:space="preserve" text-anchor="middle" x="651.33" y="-1039.1" font-family="Times,serif" font-size="20.00" fill="#333333">2</text>
</g>
<!-- 29 -->
<g id="node29" class="node">
<title>29</title>
<g id="a_node29"><a xlink:title="29">
<ellipse fill="#d9534f" stroke="black" cx="706.8" cy="-528.6" rx="21.6" ry="21.6"/>
<text xml:space="preserve" text-anchor="middle" x="706.8" y="-523.57" font-family="Helvetica,sans-Serif" font-size="12.00" fill="#ffffff">13</text>
</a>
</g>
</g>
<!-- 28&#45;&#45;29 -->
<g id="edge30" class="edge">
<title>28&#45;&#45;29</title>
<path fill="none" stroke="#666666" stroke-width="1.8" d="M617.86,-528.6C637.15,-528.6 665.59,-528.6 684.86,-528.6"/>
<text xml:space="preserve" text-anchor="middle" x="651.33" y="-532.1" font-family="Times,serif" font-size="20.00" fill="#333333">2</text>
</g>
<!-- 32 -->
<g id="node32" class="node">
<title>32</title>
<g id="a_node32"><a xlink:title="32">
<ellipse fill="#d9534f" stroke="black" cx="706.8" cy="-60.6" rx="21.6" ry="21.6"/>
<text xml:space="preserve" text-anchor="middle" x="706.8" y="-55.57" font-family="Helvetica,sans-Serif" font-size="12.00" fill="#ffffff">16</text>
</a>
</g>
</g>
<!-- 31&#45;&#45;32 -->
<g id="edge31" class="edge">
<title>31&#45;&#45;32</title>
<path fill="none" stroke="#666666" stroke-width="1.8" d="M617.86,-60.6C637.15,-60.6 665.59,-60.6 684.86,-60.6"/>
<text xml:space="preserve" text-anchor="middle" x="651.33" y="-64.1" font-family="Times,serif" font-size="20.00" fill="#333333">2</text>
</g>
</g>
</svg>
