<?xml version="1.0" encoding="UTF-8" standalone="no"?>
<!DOCTYPE svg PUBLIC "-//W3C//DTD SVG 1.1//EN"
 "http://www.w3.org/Graphics/SVG/1.1/DTD/svg11.dtd">
<!-- Generated by graphviz version 14.0.2 (20251019.1705)
 -->
<!-- Title: maxdeg2 Pages: 1 -->
<svg width="1060pt" height="1260pt"
 viewBox="0.00 0.00 1060.00 1260.00" xmlns="http://www.w3.org/2000/svg" xmlns:xlink="http://www.w3.org/1999/xlink">
<g id="graph0" class="graph" transform="scale(1 1) rotate(0) translate(4 1256.2)">
<title>maxdeg2</title>
<polygon fill="white" stroke="none" points="-4,4 -4,-1256.2 1055.5,-1256.2 1055.5,4 -4,4"/>
<!-- 1 -->
<g id="node1" class="node">
<title>1</title>
<ellipse fill="#3b78d8" stroke="black" cx="132.55" cy="-1230.6" rx="21.6" ry="21.6"/>
<text xml:space="preserve" text-anchor="middle" x="132.55" y="-1225.57" font-family="Helvetica,sans-Serif" font-size="12.00" fill="#ffffff">1</text>
</g>
<!-- 17 -->
<g id="node17" class="node">
<title>17</title>
<g id="a_node17"><a xlink:title="17">
<ellipse fill="#d9534f" stroke="black" cx="253.25" cy="-1180.6" rx="21.6" ry="21.6"/>
<text xml:space="preserve" text-anchor="middle" x="253.25" y="-1175.57" font-family="Helvetica,sans-Serif" font-size="12.00" fill="#ffffff">1</text>
</a>
</g>
</g>
<!-- 1&#45;&#45;17 -->
<g id="edge1" class="edge">
<title>1&#45;&#45;17</title>
<path fill="none" stroke="#666666" stroke-width="1.8" d="M152.89,-1222.46C174.96,-1213.16 210.85,-1198.04 232.92,-1188.74"/>
<text xml:space="preserve" text-anchor="middle" x="192.9" y="-1212.09" font-family="Times,serif" font-size="20.00" fill="#333333">2</text>
</g>
<!-- 2 -->
<g id="node2" class="node">
<title>2</title>
<ellipse fill="#3b78d8" stroke="black" cx="21.6" cy="-930.6" rx="21.6" ry="21.6"/>
<text xml:space="preserve" text-anchor="middle" x="21.6" y="-925.58" font-family="Helvetica,sans-Serif" font-size="12.00" fill="#ffffff">2</text>
</g>
<!-- 18 -->
<g id="node18" class="node">
<title>18</title>
<g id="a_node18"><a xlink:title="18">
<ellipse fill="#d9534f" stroke="black" cx="132.55" cy="-930.6" rx="21.6" ry="21.6"/>
<text xml:space="preserve" text-anchor="middle" x="132.55" y="-925.58" font-family="Helvetica,sans-Serif" font-size="12.00" fill="#ffffff">2</text>
</a>
</g>
</g>
<!-- 2&#45;&#45;18 -->
<g id="edge2" class="edge">
<title>2&#45;&#45;18</title>
<path fill="none" stroke="#666666" stroke-width="1.8" d="M43.61,-930.6C62.9,-930.6 91.34,-930.6 110.61,-930.6"/>
<text xml:space="preserve" text-anchor="middle" x="77.07" y="-934.1" font-family="Times,serif" font-size="20.00" fill="#333333">2</text>
</g>
<!-- 3 -->
<g id="node3" class="node">
<title>3</title>
<ellipse fill="#3b78d8" stroke="black" cx="132.55" cy="-1080.6" rx="21.6" ry="21.6"/>
<text xml:space="preserve" text-anchor="middle" x="132.55" y="-1075.57" font-family="Helvetica,sans-Serif" font-size="12.00" fill="#ffffff">3</text>
</g>
<!-- 3&#45;&#45;17 -->
<g id="edge3" class="edge">
<title>3&#45;&#45;17</title>
<path fill="none" stroke="#666666" stroke-width="2.4" d="M149.56,-1094.09C172.21,-1113.17 213.39,-1147.86 236.12,-1167.01"/>
<text xml:space="preserve" text-anchor="middle" x="192.9" y="-1140.09" font-family="Times,serif" font-size="20.00" fill="#333333">3</text>
</g>
<!-- 19 -->
<g id="node19" class="node">
<title>19</title>
<g id="a_node19"><a xlink:title="19">
<ellipse fill="#d9534f" stroke="black" cx="253.25" cy="-930.6" rx="21.6" ry="21.6"/>
<text xml:space="preserve" text-anchor="middle" x="253.25" y="-925.58" font-family="Helvetica,sans-Serif" font-size="12.00" fill="#ffffff">3</text>
</a>
</g>
</g>
<!-- 3&#45;&#45;19 -->
<g id="edge4" class="edge">
<title>3&#45;&#45;19</title>
<path fill="none" stroke="#666666" stroke-width="4.2" d="M146.71,-1063.97C169.52,-1035.14 216.18,-976.19 239.03,-947.3"/>
<text xml:space="preserve" text-anchor="middle" x="192.9" y="-1018.08" font-family="Times,serif" font-size="20.00" fill="#333333">6</text>
</g>
<!-- 4 -->
<g id="node4" class="node">
<title>4</title>
<ellipse fill="#3b78d8" stroke="black" cx="132.55" cy="-730.6" rx="21.6" ry="21.6"/>
<text xml:space="preserve" text-anchor="middle" x="132.55" y="-725.58" font-family="Helvetica,sans-Serif" font-size="12.00" fill="#ffffff">4</text>
</g>
<!-- 4&#45;&#45;19 -->
<g id="edge5" class="edge">
<title>4&#45;&#45;19</title>
<path fill="none" stroke="#666666" stroke-width="9.6" d="M144.5,-749.06C167.12,-787.16 218.73,-874.12 241.32,-912.19"/>
<text xml:space="preserve" text-anchor="middle" x="192.9" y="-846.07" font-family="Times,serif" font-size="20.00" fill="#333333">15</text>
</g>
<!-- 20 -->
<g id="node20" class="node">
<title>20</title>
<g id="a_node20"><a xlink:title="20">
<ellipse fill="#d9534f" stroke="black" cx="253.25" cy="-730.6" rx="21.6" ry="21.6"/>
<text xml:space="preserve" text-anchor="middle" x="253.25" y="-725.58" font-family="Helvetica,sans-Serif" font-size="12.00" fill="#ffffff">4</text>
</a>
</g>
</g>
<!-- 4&#45;&#45;20 -->
<g id="edge6" class="edge">
<title>4&#45;&#45;20</title>
<path fill="none" stroke="#666666" stroke-width="1.8" d="M153.42,-723.76C167.18,-719.82 185.95,-716.03 202.65,-718.1 212.52,-719.32 223.25,-721.87 232.19,-724.35"/>
<text xml:space="preserve" text-anchor="middle" x="192.9" y="-721.6" font-family="Times,serif" font-size="20.00" fill="#333333">2</text>
</g>
<!-- 21 -->
<g id="node21" class="node">
<title>21</title>
<g id="a_node21"><a xlink:title="21">
<ellipse fill="#d9534f" stroke="black" cx="253.25" cy="-530.6" rx="21.6" ry="21.6"/>
<text xml:space="preserve" text-anchor="middle" x="253.25" y="-525.58" font-family="Helvetica,sans-Serif" font-size="12.00" fill="#ffffff">5</text>
</a>
</g>
</g>
<!-- 4&#45;&#45;21 -->
<g id="edge7" class="edge">
<title>4&#45;&#45;21</title>
<path fill="none" stroke="#666666" stroke-width="8.4" d="M144.5,-712.14C167.12,-674.04 218.73,-587.08 241.32,-549.01"/>
<text xml:space="preserve" text-anchor="middle" x="192.9" y="-646.07" font-family="Times,serif" font-size="20.00" fill="#333333">13</text>
</g>
<!-- 5 -->
<g id="node5" class="node">
<title>5</title>
<ellipse fill="#3b78d8" stroke="black" cx="132.55" cy="-530.6" rx="21.6" ry="21.6"/>
<text xml:space="preserve" text-anchor="middle" x="132.55" y="-525.58" font-family="Helvetica,sans-Serif" font-size="12.00" fill="#ffffff">5</text>
</g>
<!-- 5&#45;&#45;21 -->
<g id="edge8" class="edge">
<title>5&#45;&#45;21</title>
<path fill="none" stroke="#666666" stroke-width="1.8" d="M153.42,-523.76C167.18,-519.82 185.95,-516.03 202.65,-518.1 212.52,-519.32 223.25,-521.87 232.19,-524.35"/>
<text xml:space="preserve" text-anchor="middle" x="192.9" y="-521.6" font-family="Times,serif" font-size="20.00" fill="#333333">2</text>
</g>
<!-- 6 -->
<g id="node6" class="node">
<title>6</title>
<ellipse fill="#3b78d8" stroke="black" cx="132.55" cy="-330.6" rx="21.6" ry="21.6"/>
<text xml:space="preserve" text-anchor="middle" x="132.55" y="-325.58" font-family="Helvetica,sans-Serif" font-size="12.00" fill="#ffffff">6</text>
</g>
<!-- 7 -->
<g id="node7" class="node">
<title>7</title>
<ellipse fill="#3b78d8" stroke="black" cx="253.25" cy="-373.6" rx="21.6" ry="21.6"/>
<text xml:space="preserve" text-anchor="middle" x="253.25" y="-368.58" font-family="Helvetica,sans-Serif" font-size="12.00" fill="#ffffff">7</text>
</g>
<!-- 6&#45;&#45;7 -->
<g id="edge9" class="edge">
<title>6&#45;&#45;7</title>
<path fill="none" stroke="#666666" stroke-width="6" d="M152.45,-321.4C166.77,-315.78 186.63,-310.93 202.65,-318.1 219.52,-325.65 233.02,-342.08 241.65,-355.12"/>
<text xml:space="preserve" text-anchor="middle" x="192.9" y="-321.6" font-family="Times,serif" font-size="20.00" fill="#333333">9</text>
</g>
<!-- 6&#45;&#45;21 -->
<g id="edge10" class="edge">
<title>6&#45;&#45;21</title>
<path fill="none" stroke="#666666" stroke-width="7.2" d="M144.5,-349.06C167.12,-387.16 218.73,-474.12 241.32,-512.19"/>
<text xml:space="preserve" text-anchor="middle" x="192.9" y="-446.07" font-family="Times,serif" font-size="20.00" fill="#333333">11</text>
</g>
<!-- 22 -->
<g id="node22" class="node">
<title>22</title>
<g id="a_node22"><a xlink:title="22">
<ellipse fill="#d9534f" stroke="black" cx="253.25" cy="-143.6" rx="21.6" ry="21.6"/>
<text xml:space="preserve" text-anchor="middle" x="253.25" y="-138.58" font-family="Helvetica,sans-Serif" font-size="12.00" fill="#ffffff">6</text>
</a>
</g>
</g>
<!-- 6&#45;&#45;22 -->
<g id="edge11" class="edge">
<title>6&#45;&#45;22</title>
<path fill="none" stroke="#666666" stroke-width="1.8" d="M144.93,-312.67C167.56,-277.02 217.98,-197.58 240.73,-161.75"/>
<text xml:space="preserve" text-anchor="middle" x="192.9" y="-251.8" font-family="Times,serif" font-size="20.00" fill="#333333">2</text>
</g>
<!-- 23 -->
<g id="node23" class="node">
<title>23</title>
<g id="a_node23"><a xlink:title="23">
<ellipse fill="#d9534f" stroke="black" cx="364.2" cy="-488.6" rx="21.6" ry="21.6"/>
<text xml:space="preserve" text-anchor="middle" x="364.2" y="-483.58" font-family="Helvetica,sans-Serif" font-size="12.00" fill="#ffffff">7</text>
</a>
</g>
</g>
<!-- 7&#45;&#45;23 -->
<g id="edge12" class="edge">
<title>7&#45;&#45;23</title>
<path fill="none" stroke="#666666" stroke-width="1.8" d="M268.94,-389.11C289.85,-411.18 327.96,-451.4 348.74,-473.34"/>
<text xml:space="preserve" text-anchor="middle" x="308.72" y="-438.05" font-family="Times,serif" font-size="20.00" fill="#333333">2</text>
</g>
<!-- 24 -->
<g id="node24" class="node">
<title>24</title>
<g id="a_node24"><a xlink:title="24">
<ellipse fill="#d9534f" stroke="black" cx="364.2" cy="-258.6" rx="21.6" ry="21.6"/>
<text xml:space="preserve" text-anchor="middle" x="364.2" y="-253.58" font-family="Helvetica,sans-Serif" font-size="12.00" fill="#ffffff">8</text>
</a>
</g>
</g>
<!-- 7&#45;&#45;24 -->
<g id="edge13" class="edge">
<title>7&#45;&#45;24</title>
<path fill="none" stroke="#666666" stroke-width="5.4" d="M268.94,-358.09C289.85,-336.02 327.96,-295.8 348.74,-273.86"/>
<text xml:space="preserve" text-anchor="middle" x="308.72" y="-323.05" font-family="Times,serif" font-size="20.00" fill="#333333">8</text>
</g>
<!-- 8 -->
<g id="node8" class="node">
<title>8</title>
<ellipse fill="#3b78d8" stroke="black" cx="253.25" cy="-258.6" rx="21.6" ry="21.6"/>
<text xml:space="preserve" text-anchor="middle" x="253.25" y="-253.58" font-family="Helvetica,sans-Serif" font-size="12.00" fill="#ffffff">8</text>
</g>
<!-- 8&#45;&#45;24 -->
<g id="edge14" class="edge">
<title>8&#45;&#45;24</title>
<path fill="none" stroke="#666666" stroke-width="1.8" d="M275.11,-255.78C286.48,-254.56 300.8,-253.52 313.6,-254.1 323.1,-254.53 333.6,-255.42 342.47,-256.3"/>
<text xml:space="preserve" text-anchor="middle" x="308.72" y="-257.6" font-family="Times,serif" font-size="20.00" fill="#333333">2</text>
</g>
<!-- 9 -->
<g id="node9" class="node">
<title>9</title>
<ellipse fill="#3b78d8" stroke="black" cx="364.2" cy="-373.6" rx="21.6" ry="21.6"/>
<text xml:space="preserve" text-anchor="middle" x="364.2" y="-368.58" font-family="Helvetica,sans-Serif" font-size="12.00" fill="#ffffff">9</text>
</g>
<!-- 25 -->
<g id="node25" class="node">
<title>25</title>
<g id="a_node25"><a xlink:title="25">
<ellipse fill="#d9534f" stroke="black" cx="475.15" cy="-320.6" rx="21.6" ry="21.6"/>
<text xml:space="preserve" text-anchor="middle" x="475.15" y="-315.58" font-family="Helvetica,sans-Serif" font-size="12.00" fill="#ffffff">9</text>
</a>
</g>
</g>
<!-- 9&#45;&#45;25 -->
<g id="edge15" class="edge">
<title>9&#45;&#45;25</title>
<path fill="none" stroke="#666666" stroke-width="1.8" d="M384.18,-364.37C404.17,-354.64 435.48,-339.41 455.39,-329.73"/>
<text xml:space="preserve" text-anchor="middle" x="419.67" y="-352.19" font-family="Times,serif" font-size="20.00" fill="#333333">2</text>
</g>
<!-- 10 -->
<g id="node10" class="node">
<title>10</title>
<ellipse fill="#3b78d8" stroke="black" cx="475.15" cy="-435.6" rx="21.6" ry="21.6"/>
<text xml:space="preserve" text-anchor="middle" x="475.15" y="-430.58" font-family="Helvetica,sans-Serif" font-size="12.00" fill="#ffffff">10</text>
</g>
<!-- 26 -->
<g id="node26" class="node">
<title>26</title>
<g id="a_node26"><a xlink:title="26">
<ellipse fill="#d9534f" stroke="black" cx="586.1" cy="-328.6" rx="21.6" ry="21.6"/>
<text xml:space="preserve" text-anchor="middle" x="586.1" y="-323.58" font-family="Helvetica,sans-Serif" font-size="12.00" fill="#ffffff">10</text>
</a>
</g>
</g>
<!-- 10&#45;&#45;26 -->
<g id="edge16" class="edge">
<title>10&#45;&#45;26</title>
<path fill="none" stroke="#666666" stroke-width="1.8" d="M491.3,-420.72C512.11,-400.28 549.33,-363.73 570.08,-343.35"/>
<text xml:space="preserve" text-anchor="middle" x="530.62" y="-388.81" font-family="Times,serif" font-size="20.00" fill="#333333">2</text>
</g>
<!-- 11 -->
<g id="node11" class="node">
<title>11</title>
<ellipse fill="#3b78d8" stroke="black" cx="475.15" cy="-128.6" rx="21.6" ry="21.6"/>
<text xml:space="preserve" text-anchor="middle" x="475.15" y="-123.58" font-family="Helvetica,sans-Serif" font-size="12.00" fill="#ffffff">11</text>
</g>
<!-- 12 -->
<g id="node12" class="node">
<title>12</title>
<ellipse fill="#3b78d8" stroke="black" cx="586.1" cy="-136.6" rx="21.6" ry="21.6"/>
<text xml:space="preserve" text-anchor="middle" x="586.1" y="-131.58" font-family="Helvetica,sans-Serif" font-size="12.00" fill="#ffffff">12</text>
</g>
<!-- 11&#45;&#45;12 -->
<g id="edge17" class="edge">
<title>11&#45;&#45;12</title>
<path fill="none" stroke="#666666" stroke-width="3.6" d="M495.64,-120.47C507.21,-116.65 522.18,-113.46 535.5,-116.1 546.1,-118.2 557.28,-122.61 566.33,-126.8"/>
<text xml:space="preserve" text-anchor="middle" x="530.62" y="-119.6" font-family="Times,serif" font-size="20.00" fill="#333333">5</text>
</g>
<!-- 11&#45;&#45;26 -->
<g id="edge18" class="edge">
<title>11&#45;&#45;26</title>
<path fill="none" stroke="#666666" stroke-width="4.2" d="M486.4,-147.42C507.16,-185.53 553.99,-271.49 574.8,-309.69"/>
<text xml:space="preserve" text-anchor="middle" x="530.62" y="-238.1" font-family="Times,serif" font-size="20.00" fill="#333333">6</text>
</g>
<!-- 27 -->
<g id="node27" class="node">
<title>27</title>
<g id="a_node27"><a xlink:title="27">
<ellipse fill="#d9534f" stroke="black" cx="586.1" cy="-21.6" rx="21.6" ry="21.6"/>
<text xml:space="preserve" text-anchor="middle" x="586.1" y="-16.58" font-family="Helvetica,sans-Serif" font-size="12.00" fill="#ffffff">11</text>
</a>
</g>
</g>
<!-- 11&#45;&#45;27 -->
<g id="edge19" class="edge">
<title>11&#45;&#45;27</title>
<path fill="none" stroke="#666666" stroke-width="1.8" d="M490.12,-112.8C499.86,-101.96 513.3,-87.37 525.75,-75.1 539.97,-61.07 556.97,-45.9 569.13,-35.31"/>
<text xml:space="preserve" text-anchor="middle" x="530.62" y="-78.6" font-family="Times,serif" font-size="20.00" fill="#333333">2</text>
</g>
<!-- 13 -->
<g id="node13" class="node">
<title>13</title>
<ellipse fill="#3b78d8" stroke="black" cx="697.05" cy="-197.6" rx="21.6" ry="21.6"/>
<text xml:space="preserve" text-anchor="middle" x="697.05" y="-192.58" font-family="Helvetica,sans-Serif" font-size="12.00" fill="#ffffff">13</text>
</g>
<!-- 12&#45;&#45;13 -->
<g id="edge20" class="edge">
<title>12&#45;&#45;13</title>
<path fill="none" stroke="#666666" stroke-width="3.6" d="M605.58,-146.95C625.74,-158.23 657.79,-176.18 677.84,-187.41"/>
<text xml:space="preserve" text-anchor="middle" x="641.58" y="-172.43" font-family="Times,serif" font-size="20.00" fill="#333333">5</text>
</g>
<!-- 28 -->
<g id="node28" class="node">
<title>28</title>
<g id="a_node28"><a xlink:title="28">
<ellipse fill="#d9534f" stroke="black" cx="697.05" cy="-82.6" rx="21.6" ry="21.6"/>
<text xml:space="preserve" text-anchor="middle" x="697.05" y="-77.58" font-family="Helvetica,sans-Serif" font-size="12.00" fill="#ffffff">12</text>
</a>
</g>
</g>
<!-- 12&#45;&#45;28 -->
<g id="edge21" class="edge">
<title>12&#45;&#45;28</title>
<path fill="none" stroke="#666666" stroke-width="1.8" d="M597.03,-117.41C605.47,-103.36 619.04,-85.37 636.7,-77.1 648.98,-71.35 664.23,-72.93 676.2,-75.83"/>
<text xml:space="preserve" text-anchor="middle" x="641.58" y="-80.6" font-family="Times,serif" font-size="20.00" fill="#333333">2</text>
</g>
<!-- 14 -->
<g id="node14" class="node">
<title>14</title>
<ellipse fill="#3b78d8" stroke="black" cx="808" cy="-258.6" rx="21.6" ry="21.6"/>
<text xml:space="preserve" text-anchor="middle" x="808" y="-253.58" font-family="Helvetica,sans-Serif" font-size="12.00" fill="#ffffff">14</text>
</g>
<!-- 13&#45;&#45;14 -->
<g id="edge22" class="edge">
<title>13&#45;&#45;14</title>
<path fill="none" stroke="#666666" stroke-width="3.6" d="M716.53,-207.95C736.69,-219.23 768.74,-237.18 788.79,-248.41"/>
<text xml:space="preserve" text-anchor="middle" x="752.53" y="-233.43" font-family="Times,serif" font-size="20.00" fill="#333333">5</text>
</g>
<!-- 29 -->
<g id="node29" class="node">
<title>29</title>
<g id="a_node29"><a xlink:title="29">
<ellipse fill="#d9534f" stroke="black" cx="808" cy="-143.6" rx="21.6" ry="21.6"/>
<text xml:space="preserve" text-anchor="middle" x="808" y="-138.58" font-family="Helvetica,sans-Serif" font-size="12.00" fill="#ffffff">13</text>
</a>
</g>
</g>
<!-- 13&#45;&#45;29 -->
<g id="edge23" class="edge">
<title>13&#45;&#45;29</title>
<path fill="none" stroke="#666666" stroke-width="1.8" d="M707.98,-178.41C716.42,-164.36 729.99,-146.37 747.65,-138.1 759.93,-132.35 775.18,-133.93 787.15,-136.83"/>
<text xml:space="preserve" text-anchor="middle" x="752.53" y="-141.6" font-family="Times,serif" font-size="20.00" fill="#333333">2</text>
</g>
<!-- 15 -->
<g id="node15" class="node">
<title>15</title>
<ellipse fill="#3b78d8" stroke="black" cx="918.95" cy="-405.6" rx="21.6" ry="21.6"/>
<text xml:space="preserve" text-anchor="middle" x="918.95" y="-400.58" font-family="Helvetica,sans-Serif" font-size="12.00" fill="#ffffff">15</text>
</g>
<!-- 14&#45;&#45;15 -->
<g id="edge24" class="edge">
<title>14&#45;&#45;15</title>
<path fill="none" stroke="#666666" stroke-width="3.6" d="M821.71,-275.75C842.7,-304.08 884.38,-360.31 905.32,-388.56"/>
<text xml:space="preserve" text-anchor="middle" x="863.48" y="-340.01" font-family="Times,serif" font-size="20.00" fill="#333333">5</text>
</g>
<!-- 30 -->
<g id="node30" class="node">
<title>30</title>
<g id="a_node30"><a xlink:title="30">
<ellipse fill="#d9534f" stroke="black" cx="918.95" cy="-175.6" rx="21.6" ry="21.6"/>
<text xml:space="preserve" text-anchor="middle" x="918.95" y="-170.58" font-family="Helvetica,sans-Serif" font-size="12.00" fill="#ffffff">14</text>
</a>
</g>
</g>
<!-- 14&#45;&#45;30 -->
<g id="edge25" class="edge">
<title>14&#45;&#45;30</title>
<path fill="none" stroke="#666666" stroke-width="1.8" d="M825.55,-245.99C846.02,-230.39 880.7,-203.98 901.25,-188.32"/>
<text xml:space="preserve" text-anchor="middle" x="863.48" y="-223.09" font-family="Times,serif" font-size="20.00" fill="#333333">2</text>
</g>
<!-- 31 -->
<g id="node31" class="node">
<title>31</title>
<g id="a_node31"><a xlink:title="31">
<ellipse fill="#d9534f" stroke="black" cx="1029.9" cy="-490.6" rx="21.6" ry="21.6"/>
<text xml:space="preserve" text-anchor="middle" x="1029.9" y="-485.58" font-family="Helvetica,sans-Serif" font-size="12.00" fill="#ffffff">15</text>
</a>
</g>
</g>
<!-- 15&#45;&#45;31 -->
<g id="edge26" class="edge">
<title>15&#45;&#45;31</title>
<path fill="none" stroke="#666666" stroke-width="1.8" d="M936.5,-418.51C956.97,-434.49 991.65,-461.54 1012.2,-477.57"/>
<text xml:space="preserve" text-anchor="middle" x="974.42" y="-454.15" font-family="Times,serif" font-size="20.00" fill="#333333">2</text>
</g>
<!-- 32 -->
<g id="node32" class="node">
<title>32</title>
<g id="a_node32"><a xlink:title="32">
<ellipse fill="#d9534f" stroke="black" cx="1029.9" cy="-333.6" rx="21.6" ry="21.6"/>
<text xml:space="preserve" text-anchor="middle" x="1029.9" y="-328.58" font-family="Helvetica,sans-Serif" font-size="12.00" fill="#ffffff">16</text>
</a>
</g>
</g>
<!-- 15&#45;&#45;32 -->
<g id="edge27" class="edge">
<title>15&#45;&#45;32</title>
<path fill="none" stroke="#666666" stroke-width="2.4" d="M937.45,-394.03C957.79,-380.6 991.13,-358.56 1011.44,-345.14"/>
<text xml:space="preserve" text-anchor="middle" x="974.42" y="-375.26" font-family="Times,serif" font-size="20.00" fill="#333333">3</text>
</g>
<!-- 16 -->
<g id="node16" class="node">
<title>16</title>
<ellipse fill="#3b78d8" stroke="black" cx="918.95" cy="-290.6" rx="21.6" ry="21.6"/>
<text xml:space="preserve" text-anchor="middle" x="918.95" y="-285.58" font-family="Helvetica,sans-Serif" font-size="12.00" fill="#ffffff">16</text>
</g>
<!-- 16&#45;&#45;32 -->
<g id="edge28" class="edge">
<title>16&#45;&#45;32</title>
<path fill="none" stroke="#666666" stroke-width="1.8" d="M938.76,-280.86C950.76,-276.03 966.42,-272.34 979.3,-278.1 996.17,-285.65 1009.67,-302.08 1018.3,-315.12"/>
<text xml:space="preserve" text-anchor="middle" x="974.42" y="-281.6" font-family="Times,serif" font-size="20.00" fill="#333333">2</text>
</g>
<!-- 18&#45;&#45;19 -->
<g id="edge29" class="edge">
<title>18&#45;&#45;19</title>
<path fill="none" stroke="#666666" stroke-width="2.4" d="M153.42,-923.76C167.18,-919.82 185.95,-916.03 202.65,-918.1 212.52,-919.32 223.25,-921.87 232.19,-924.35"/>
<text xml:space="preserve" text-anchor="middle" x="192.9" y="-921.6" font-family="Times,serif" font-size="20.00" fill="#333333">3</text>
</g>
<!-- 24&#45;&#45;25 -->
<g id="edge30" class="edge">
<title>24&#45;&#45;25</title>
<path fill="none" stroke="#666666" stroke-width="4.8" d="M383.19,-268.84C403.26,-280.26 435.55,-298.63 455.77,-310.14"/>
<text xml:space="preserve" text-anchor="middle" x="419.67" y="-294.96" font-family="Times,serif" font-size="20.00" fill="#333333">7</text>
</g>
<!-- 25&#45;&#45;26 -->
<g id="edge31" class="edge">
<title>25&#45;&#45;26</title>
<path fill="none" stroke="#666666" stroke-width="4.8" d="M497.05,-321.13C508.43,-321.51 522.75,-322.13 535.5,-323.1 545,-323.83 555.5,-324.94 564.38,-325.98"/>
<text xml:space="preserve" text-anchor="middle" x="530.62" y="-326.6" font-family="Times,serif" font-size="20.00" fill="#333333">7</text>
</g>
</g>
</svg>
