<?xml version="1.0" encoding="utf-8"?>
<svg xmlns="http://www.w3.org/2000/svg" xmlns:xlink="http://www.w3.org/1999/xlink" width="600" height="400" viewBox="0 0 2400 1600">
<defs>
  <clipPath id="clip690">
    <rect x="0" y="0" width="2400" height="1600"/>
  </clipPath>
</defs>
<path clip-path="url(#clip690)" d="M0 1600 L2400 1600 L2400 8.88178e-14 L0 8.88178e-14  Z" fill="#ffffff" fill-rule="evenodd" fill-opacity="1"/>
<defs>
  <clipPath id="clip691">
    <rect x="480" y="0" width="1681" height="1600"/>
  </clipPath>
</defs>
<path clip-path="url(#clip690)" d="M252.501 1423.18 L2352.76 1423.18 L2352.76 123.472 L252.501 123.472  Z" fill="#ffffff" fill-rule="evenodd" fill-opacity="1"/>
<defs>
  <clipPath id="clip692">
    <rect x="252" y="123" width="2101" height="1301"/>
  </clipPath>
</defs>
<polyline clip-path="url(#clip692)" style="stroke:#000000; stroke-linecap:round; stroke-linejoin:round; stroke-width:2; stroke-opacity:0.1; fill:none" points="458.71,1423.18 458.71,123.472 "/>
<polyline clip-path="url(#clip692)" style="stroke:#000000; stroke-linecap:round; stroke-linejoin:round; stroke-width:2; stroke-opacity:0.1; fill:none" points="825.631,1423.18 825.631,123.472 "/>
<polyline clip-path="url(#clip692)" style="stroke:#000000; stroke-linecap:round; stroke-linejoin:round; stroke-width:2; stroke-opacity:0.1; fill:none" points="1192.55,1423.18 1192.55,123.472 "/>
<polyline clip-path="url(#clip692)" style="stroke:#000000; stroke-linecap:round; stroke-linejoin:round; stroke-width:2; stroke-opacity:0.1; fill:none" points="1559.47,1423.18 1559.47,123.472 "/>
<polyline clip-path="url(#clip692)" style="stroke:#000000; stroke-linecap:round; stroke-linejoin:round; stroke-width:2; stroke-opacity:0.1; fill:none" points="1926.39,1423.18 1926.39,123.472 "/>
<polyline clip-path="url(#clip692)" style="stroke:#000000; stroke-linecap:round; stroke-linejoin:round; stroke-width:2; stroke-opacity:0.1; fill:none" points="2293.31,1423.18 2293.31,123.472 "/>
<polyline clip-path="url(#clip692)" style="stroke:#000000; stroke-linecap:round; stroke-linejoin:round; stroke-width:2; stroke-opacity:0.1; fill:none" points="252.501,1312.58 2352.76,1312.58 "/>
<polyline clip-path="url(#clip692)" style="stroke:#000000; stroke-linecap:round; stroke-linejoin:round; stroke-width:2; stroke-opacity:0.1; fill:none" points="252.501,629.558 2352.76,629.558 "/>
<polyline clip-path="url(#clip690)" style="stroke:#000000; stroke-linecap:round; stroke-linejoin:round; stroke-width:4; stroke-opacity:1; fill:none" points="252.501,1423.18 2352.76,1423.18 "/>
<polyline clip-path="url(#clip690)" style="stroke:#000000; stroke-linecap:round; stroke-linejoin:round; stroke-width:4; stroke-opacity:1; fill:none" points="458.71,1423.18 458.71,1404.28 "/>
<polyline clip-path="url(#clip690)" style="stroke:#000000; stroke-linecap:round; stroke-linejoin:round; stroke-width:4; stroke-opacity:1; fill:none" points="825.631,1423.18 825.631,1404.28 "/>
<polyline clip-path="url(#clip690)" style="stroke:#000000; stroke-linecap:round; stroke-linejoin:round; stroke-width:4; stroke-opacity:1; fill:none" points="1192.55,1423.18 1192.55,1404.28 "/>
<polyline clip-path="url(#clip690)" style="stroke:#000000; stroke-linecap:round; stroke-linejoin:round; stroke-width:4; stroke-opacity:1; fill:none" points="1559.47,1423.18 1559.47,1404.28 "/>
<polyline clip-path="url(#clip690)" style="stroke:#000000; stroke-linecap:round; stroke-linejoin:round; stroke-width:4; stroke-opacity:1; fill:none" points="1926.39,1423.18 1926.39,1404.28 "/>
<polyline clip-path="url(#clip690)" style="stroke:#000000; stroke-linecap:round; stroke-linejoin:round; stroke-width:4; stroke-opacity:1; fill:none" points="2293.31,1423.18 2293.31,1404.28 "/>
<path clip-path="url(#clip690)" d="M448.988 1451.02 L467.344 1451.02 L467.344 1454.96 L453.27 1454.96 L453.27 1463.43 Q454.289 1463.08 455.307 1462.92 Q456.326 1462.73 457.344 1462.73 Q463.131 1462.73 466.511 1465.9 Q469.891 1469.08 469.891 1474.49 Q469.891 1480.07 466.418 1483.17 Q462.946 1486.25 456.627 1486.25 Q454.451 1486.25 452.182 1485.88 Q449.937 1485.51 447.53 1484.77 L447.53 1480.07 Q449.613 1481.2 451.835 1481.76 Q454.057 1482.32 456.534 1482.32 Q460.539 1482.32 462.877 1480.21 Q465.215 1478.1 465.215 1474.49 Q465.215 1470.88 462.877 1468.77 Q460.539 1466.67 456.534 1466.67 Q454.659 1466.67 452.784 1467.08 Q450.932 1467.5 448.988 1468.38 L448.988 1451.02 Z" fill="#000000" fill-rule="nonzero" fill-opacity="1" /><path clip-path="url(#clip690)" d="M800.319 1481.64 L807.958 1481.64 L807.958 1455.28 L799.647 1456.95 L799.647 1452.69 L807.911 1451.02 L812.587 1451.02 L812.587 1481.64 L820.226 1481.64 L820.226 1485.58 L800.319 1485.58 L800.319 1481.64 Z" fill="#000000" fill-rule="nonzero" fill-opacity="1" /><path clip-path="url(#clip690)" d="M839.67 1454.1 Q836.059 1454.1 834.231 1457.66 Q832.425 1461.2 832.425 1468.33 Q832.425 1475.44 834.231 1479.01 Q836.059 1482.55 839.67 1482.55 Q843.305 1482.55 845.11 1479.01 Q846.939 1475.44 846.939 1468.33 Q846.939 1461.2 845.11 1457.66 Q843.305 1454.1 839.67 1454.1 M839.67 1450.39 Q845.481 1450.39 848.536 1455 Q851.615 1459.58 851.615 1468.33 Q851.615 1477.06 848.536 1481.67 Q845.481 1486.25 839.67 1486.25 Q833.86 1486.25 830.782 1481.67 Q827.726 1477.06 827.726 1468.33 Q827.726 1459.58 830.782 1455 Q833.86 1450.39 839.67 1450.39 Z" fill="#000000" fill-rule="nonzero" fill-opacity="1" /><path clip-path="url(#clip690)" d="M1167.74 1481.64 L1175.38 1481.64 L1175.38 1455.28 L1167.07 1456.95 L1167.07 1452.69 L1175.33 1451.02 L1180.01 1451.02 L1180.01 1481.64 L1187.64 1481.64 L1187.64 1485.58 L1167.74 1485.58 L1167.74 1481.64 Z" fill="#000000" fill-rule="nonzero" fill-opacity="1" /><path clip-path="url(#clip690)" d="M1197.14 1451.02 L1215.49 1451.02 L1215.49 1454.96 L1201.42 1454.96 L1201.42 1463.43 Q1202.44 1463.08 1203.45 1462.92 Q1204.47 1462.73 1205.49 1462.73 Q1211.28 1462.73 1214.66 1465.9 Q1218.04 1469.08 1218.04 1474.49 Q1218.04 1480.07 1214.57 1483.17 Q1211.09 1486.25 1204.77 1486.25 Q1202.6 1486.25 1200.33 1485.88 Q1198.08 1485.51 1195.68 1484.77 L1195.68 1480.07 Q1197.76 1481.2 1199.98 1481.76 Q1202.2 1482.32 1204.68 1482.32 Q1208.69 1482.32 1211.02 1480.21 Q1213.36 1478.1 1213.36 1474.49 Q1213.36 1470.88 1211.02 1468.77 Q1208.69 1466.67 1204.68 1466.67 Q1202.81 1466.67 1200.93 1467.08 Q1199.08 1467.5 1197.14 1468.38 L1197.14 1451.02 Z" fill="#000000" fill-rule="nonzero" fill-opacity="1" /><path clip-path="url(#clip690)" d="M1538.25 1481.64 L1554.57 1481.64 L1554.57 1485.58 L1532.62 1485.58 L1532.62 1481.64 Q1535.28 1478.89 1539.87 1474.26 Q1544.47 1469.61 1545.65 1468.27 Q1547.9 1465.74 1548.78 1464.01 Q1549.68 1462.25 1549.68 1460.56 Q1549.68 1457.8 1547.74 1456.07 Q1545.82 1454.33 1542.71 1454.33 Q1540.51 1454.33 1538.06 1455.09 Q1535.63 1455.86 1532.85 1457.41 L1532.85 1452.69 Q1535.68 1451.55 1538.13 1450.97 Q1540.58 1450.39 1542.62 1450.39 Q1547.99 1450.39 1551.19 1453.08 Q1554.38 1455.77 1554.38 1460.26 Q1554.38 1462.39 1553.57 1464.31 Q1552.78 1466.2 1550.68 1468.8 Q1550.1 1469.47 1547 1472.69 Q1543.89 1475.88 1538.25 1481.64 Z" fill="#000000" fill-rule="nonzero" fill-opacity="1" /><path clip-path="url(#clip690)" d="M1574.38 1454.1 Q1570.77 1454.1 1568.94 1457.66 Q1567.13 1461.2 1567.13 1468.33 Q1567.13 1475.44 1568.94 1479.01 Q1570.77 1482.55 1574.38 1482.55 Q1578.01 1482.55 1579.82 1479.01 Q1581.65 1475.44 1581.65 1468.33 Q1581.65 1461.2 1579.82 1457.66 Q1578.01 1454.1 1574.38 1454.1 M1574.38 1450.39 Q1580.19 1450.39 1583.25 1455 Q1586.32 1459.58 1586.32 1468.33 Q1586.32 1477.06 1583.25 1481.67 Q1580.19 1486.25 1574.38 1486.25 Q1568.57 1486.25 1565.49 1481.67 Q1562.44 1477.06 1562.44 1468.33 Q1562.44 1459.58 1565.49 1455 Q1568.57 1450.39 1574.38 1450.39 Z" fill="#000000" fill-rule="nonzero" fill-opacity="1" /><path clip-path="url(#clip690)" d="M1905.66 1481.64 L1921.98 1481.64 L1921.98 1485.58 L1900.04 1485.58 L1900.04 1481.64 Q1902.7 1478.89 1907.29 1474.26 Q1911.89 1469.61 1913.07 1468.27 Q1915.32 1465.74 1916.2 1464.01 Q1917.1 1462.25 1917.1 1460.56 Q1917.1 1457.8 1915.16 1456.07 Q1913.23 1454.33 1910.13 1454.33 Q1907.93 1454.33 1905.48 1455.09 Q1903.05 1455.86 1900.27 1457.41 L1900.27 1452.69 Q1903.1 1451.55 1905.55 1450.97 Q1908 1450.39 1910.04 1450.39 Q1915.41 1450.39 1918.6 1453.08 Q1921.8 1455.77 1921.8 1460.26 Q1921.8 1462.39 1920.99 1464.31 Q1920.2 1466.2 1918.1 1468.8 Q1917.52 1469.47 1914.41 1472.69 Q1911.31 1475.88 1905.66 1481.64 Z" fill="#000000" fill-rule="nonzero" fill-opacity="1" /><path clip-path="url(#clip690)" d="M1931.85 1451.02 L1950.2 1451.02 L1950.2 1454.96 L1936.13 1454.96 L1936.13 1463.43 Q1937.15 1463.08 1938.16 1462.92 Q1939.18 1462.73 1940.2 1462.73 Q1945.99 1462.73 1949.37 1465.9 Q1952.75 1469.08 1952.75 1474.49 Q1952.75 1480.07 1949.28 1483.17 Q1945.8 1486.25 1939.48 1486.25 Q1937.31 1486.25 1935.04 1485.88 Q1932.79 1485.51 1930.39 1484.77 L1930.39 1480.07 Q1932.47 1481.2 1934.69 1481.76 Q1936.91 1482.32 1939.39 1482.32 Q1943.4 1482.32 1945.73 1480.21 Q1948.07 1478.1 1948.07 1474.49 Q1948.07 1470.88 1945.73 1468.77 Q1943.4 1466.67 1939.39 1466.67 Q1937.52 1466.67 1935.64 1467.08 Q1933.79 1467.5 1931.85 1468.38 L1931.85 1451.02 Z" fill="#000000" fill-rule="nonzero" fill-opacity="1" /><path clip-path="url(#clip690)" d="M2282.16 1466.95 Q2285.51 1467.66 2287.39 1469.93 Q2289.29 1472.2 2289.29 1475.53 Q2289.29 1480.65 2285.77 1483.45 Q2282.25 1486.25 2275.77 1486.25 Q2273.59 1486.25 2271.28 1485.81 Q2268.99 1485.39 2266.53 1484.54 L2266.53 1480.02 Q2268.48 1481.16 2270.79 1481.74 Q2273.11 1482.32 2275.63 1482.32 Q2280.03 1482.32 2282.32 1480.58 Q2284.63 1478.84 2284.63 1475.53 Q2284.63 1472.48 2282.48 1470.77 Q2280.35 1469.03 2276.53 1469.03 L2272.5 1469.03 L2272.5 1465.19 L2276.72 1465.19 Q2280.17 1465.19 2282 1463.82 Q2283.82 1462.43 2283.82 1459.84 Q2283.82 1457.18 2281.93 1455.77 Q2280.05 1454.33 2276.53 1454.33 Q2274.61 1454.33 2272.41 1454.75 Q2270.21 1455.16 2267.57 1456.04 L2267.57 1451.88 Q2270.24 1451.14 2272.55 1450.77 Q2274.89 1450.39 2276.95 1450.39 Q2282.27 1450.39 2285.37 1452.83 Q2288.48 1455.23 2288.48 1459.35 Q2288.48 1462.22 2286.83 1464.21 Q2285.19 1466.18 2282.16 1466.95 Z" fill="#000000" fill-rule="nonzero" fill-opacity="1" /><path clip-path="url(#clip690)" d="M2308.15 1454.1 Q2304.54 1454.1 2302.71 1457.66 Q2300.91 1461.2 2300.91 1468.33 Q2300.91 1475.44 2302.71 1479.01 Q2304.54 1482.55 2308.15 1482.55 Q2311.79 1482.55 2313.59 1479.01 Q2315.42 1475.44 2315.42 1468.33 Q2315.42 1461.2 2313.59 1457.66 Q2311.79 1454.1 2308.15 1454.1 M2308.15 1450.39 Q2313.96 1450.39 2317.02 1455 Q2320.1 1459.58 2320.1 1468.33 Q2320.1 1477.06 2317.02 1481.67 Q2313.96 1486.25 2308.15 1486.25 Q2302.34 1486.25 2299.26 1481.67 Q2296.21 1477.06 2296.21 1468.33 Q2296.21 1459.58 2299.26 1455 Q2302.34 1450.39 2308.15 1450.39 Z" fill="#000000" fill-rule="nonzero" fill-opacity="1" /><path clip-path="url(#clip690)" d="M963.607 1520.52 L973.187 1520.52 L985.314 1552.86 L997.504 1520.52 L1007.08 1520.52 L1007.08 1568.04 L1000.81 1568.04 L1000.81 1526.32 L988.56 1558.91 L982.099 1558.91 L969.845 1526.32 L969.845 1568.04 L963.607 1568.04 L963.607 1520.52 Z" fill="#000000" fill-rule="nonzero" fill-opacity="1" /><path clip-path="url(#clip690)" d="M1035.79 1550.12 Q1028.7 1550.12 1025.96 1551.75 Q1023.22 1553.37 1023.22 1557.29 Q1023.22 1560.4 1025.26 1562.25 Q1027.33 1564.07 1030.86 1564.07 Q1035.73 1564.07 1038.66 1560.63 Q1041.62 1557.16 1041.62 1551.43 L1041.62 1550.12 L1035.79 1550.12 M1047.47 1547.71 L1047.47 1568.04 L1041.62 1568.04 L1041.62 1562.63 Q1039.61 1565.88 1036.62 1567.44 Q1033.63 1568.97 1029.3 1568.97 Q1023.83 1568.97 1020.58 1565.91 Q1017.37 1562.82 1017.37 1557.67 Q1017.37 1551.65 1021.38 1548.6 Q1025.42 1545.54 1033.41 1545.54 L1041.62 1545.54 L1041.62 1544.97 Q1041.62 1540.93 1038.94 1538.73 Q1036.3 1536.5 1031.5 1536.5 Q1028.44 1536.5 1025.54 1537.23 Q1022.65 1537.97 1019.97 1539.43 L1019.97 1534.02 Q1023.19 1532.78 1026.21 1532.17 Q1029.24 1531.54 1032.1 1531.54 Q1039.84 1531.54 1043.66 1535.55 Q1047.47 1539.56 1047.47 1547.71 Z" fill="#000000" fill-rule="nonzero" fill-opacity="1" /><path clip-path="url(#clip690)" d="M1089.17 1532.4 L1076.28 1549.74 L1089.84 1568.04 L1082.93 1568.04 L1072.56 1554.04 L1062.18 1568.04 L1055.27 1568.04 L1069.12 1549.39 L1056.45 1532.4 L1063.36 1532.4 L1072.81 1545.1 L1082.26 1532.4 L1089.17 1532.4 Z" fill="#000000" fill-rule="nonzero" fill-opacity="1" /><path clip-path="url(#clip690)" d="M1125.52 1545.35 L1125.52 1562.76 L1135.83 1562.76 Q1141.02 1562.76 1143.5 1560.63 Q1146.02 1558.46 1146.02 1554.04 Q1146.02 1549.58 1143.5 1547.48 Q1141.02 1545.35 1135.83 1545.35 L1125.52 1545.35 M1125.52 1525.81 L1125.52 1540.13 L1135.04 1540.13 Q1139.75 1540.13 1142.04 1538.38 Q1144.36 1536.6 1144.36 1532.97 Q1144.36 1529.37 1142.04 1527.59 Q1139.75 1525.81 1135.04 1525.81 L1125.52 1525.81 M1119.09 1520.52 L1135.51 1520.52 Q1142.86 1520.52 1146.84 1523.58 Q1150.82 1526.63 1150.82 1532.27 Q1150.82 1536.63 1148.79 1539.21 Q1146.75 1541.79 1142.8 1542.42 Q1147.54 1543.44 1150.15 1546.69 Q1152.8 1549.9 1152.8 1554.74 Q1152.8 1561.11 1148.47 1564.57 Q1144.14 1568.04 1136.15 1568.04 L1119.09 1568.04 L1119.09 1520.52 Z" fill="#000000" fill-rule="nonzero" fill-opacity="1" /><path clip-path="url(#clip690)" d="M1177.37 1536.5 Q1172.66 1536.5 1169.92 1540.19 Q1167.18 1543.85 1167.18 1550.25 Q1167.18 1556.65 1169.89 1560.34 Q1172.62 1564 1177.37 1564 Q1182.05 1564 1184.78 1560.31 Q1187.52 1556.62 1187.52 1550.25 Q1187.52 1543.92 1184.78 1540.23 Q1182.05 1536.5 1177.37 1536.5 M1177.37 1531.54 Q1185.01 1531.54 1189.37 1536.5 Q1193.73 1541.47 1193.73 1550.25 Q1193.73 1559 1189.37 1564 Q1185.01 1568.97 1177.37 1568.97 Q1169.7 1568.97 1165.34 1564 Q1161.01 1559 1161.01 1550.25 Q1161.01 1541.47 1165.34 1536.5 Q1169.7 1531.54 1177.37 1531.54 Z" fill="#000000" fill-rule="nonzero" fill-opacity="1" /><path clip-path="url(#clip690)" d="M1233.07 1546.53 L1233.07 1568.04 L1227.21 1568.04 L1227.21 1546.72 Q1227.21 1541.66 1225.24 1539.14 Q1223.26 1536.63 1219.32 1536.63 Q1214.57 1536.63 1211.84 1539.65 Q1209.1 1542.68 1209.1 1547.9 L1209.1 1568.04 L1203.21 1568.04 L1203.21 1532.4 L1209.1 1532.4 L1209.1 1537.93 Q1211.2 1534.72 1214.03 1533.13 Q1216.9 1531.54 1220.62 1531.54 Q1226.76 1531.54 1229.92 1535.36 Q1233.07 1539.14 1233.07 1546.53 Z" fill="#000000" fill-rule="nonzero" fill-opacity="1" /><path clip-path="url(#clip690)" d="M1268.21 1537.81 L1268.21 1518.52 L1274.06 1518.52 L1274.06 1568.04 L1268.21 1568.04 L1268.21 1562.7 Q1266.36 1565.88 1263.53 1567.44 Q1260.73 1568.97 1256.78 1568.97 Q1250.32 1568.97 1246.24 1563.81 Q1242.2 1558.65 1242.2 1550.25 Q1242.2 1541.85 1246.24 1536.69 Q1250.32 1531.54 1256.78 1531.54 Q1260.73 1531.54 1263.53 1533.1 Q1266.36 1534.62 1268.21 1537.81 M1248.25 1550.25 Q1248.25 1556.71 1250.89 1560.4 Q1253.56 1564.07 1258.21 1564.07 Q1262.86 1564.07 1265.53 1560.4 Q1268.21 1556.71 1268.21 1550.25 Q1268.21 1543.79 1265.53 1540.13 Q1262.86 1536.44 1258.21 1536.44 Q1253.56 1536.44 1250.89 1540.13 Q1248.25 1543.79 1248.25 1550.25 Z" fill="#000000" fill-rule="nonzero" fill-opacity="1" /><path clip-path="url(#clip690)" d="M1313.53 1525.81 L1313.53 1562.76 L1321.3 1562.76 Q1331.13 1562.76 1335.68 1558.3 Q1340.27 1553.85 1340.27 1544.24 Q1340.27 1534.69 1335.68 1530.26 Q1331.13 1525.81 1321.3 1525.81 L1313.53 1525.81 M1307.1 1520.52 L1320.31 1520.52 Q1334.12 1520.52 1340.58 1526.28 Q1347.04 1532.01 1347.04 1544.24 Q1347.04 1556.52 1340.55 1562.28 Q1334.06 1568.04 1320.31 1568.04 L1307.1 1568.04 L1307.1 1520.52 Z" fill="#000000" fill-rule="nonzero" fill-opacity="1" /><path clip-path="url(#clip690)" d="M1357.04 1532.4 L1362.9 1532.4 L1362.9 1568.04 L1357.04 1568.04 L1357.04 1532.4 M1357.04 1518.52 L1362.9 1518.52 L1362.9 1525.93 L1357.04 1525.93 L1357.04 1518.52 Z" fill="#000000" fill-rule="nonzero" fill-opacity="1" /><path clip-path="url(#clip690)" d="M1402.9 1539.24 Q1405.1 1535.29 1408.16 1533.41 Q1411.21 1531.54 1415.35 1531.54 Q1420.92 1531.54 1423.94 1535.45 Q1426.97 1539.33 1426.97 1546.53 L1426.97 1568.04 L1421.08 1568.04 L1421.08 1546.72 Q1421.08 1541.59 1419.26 1539.11 Q1417.45 1536.63 1413.73 1536.63 Q1409.17 1536.63 1406.53 1539.65 Q1403.89 1542.68 1403.89 1547.9 L1403.89 1568.04 L1398 1568.04 L1398 1546.72 Q1398 1541.56 1396.19 1539.11 Q1394.37 1536.63 1390.59 1536.63 Q1386.1 1536.63 1383.46 1539.68 Q1380.82 1542.71 1380.82 1547.9 L1380.82 1568.04 L1374.93 1568.04 L1374.93 1532.4 L1380.82 1532.4 L1380.82 1537.93 Q1382.82 1534.66 1385.62 1533.1 Q1388.42 1531.54 1392.27 1531.54 Q1396.16 1531.54 1398.86 1533.51 Q1401.6 1535.48 1402.9 1539.24 Z" fill="#000000" fill-rule="nonzero" fill-opacity="1" /><path clip-path="url(#clip690)" d="M1469.14 1548.76 L1469.14 1551.62 L1442.21 1551.62 Q1442.59 1557.67 1445.84 1560.85 Q1449.12 1564 1454.94 1564 Q1458.32 1564 1461.47 1563.17 Q1464.65 1562.35 1467.77 1560.69 L1467.77 1566.23 Q1464.62 1567.57 1461.31 1568.27 Q1458 1568.97 1454.59 1568.97 Q1446.06 1568.97 1441.07 1564 Q1436.1 1559.04 1436.1 1550.57 Q1436.1 1541.82 1440.81 1536.69 Q1445.55 1531.54 1453.58 1531.54 Q1460.77 1531.54 1464.94 1536.18 Q1469.14 1540.8 1469.14 1548.76 M1463.28 1547.04 Q1463.22 1542.23 1460.58 1539.37 Q1457.97 1536.5 1453.64 1536.5 Q1448.74 1536.5 1445.78 1539.27 Q1442.85 1542.04 1442.4 1547.07 L1463.28 1547.04 Z" fill="#000000" fill-rule="nonzero" fill-opacity="1" /><path clip-path="url(#clip690)" d="M1508.38 1546.53 L1508.38 1568.04 L1502.53 1568.04 L1502.53 1546.72 Q1502.53 1541.66 1500.55 1539.14 Q1498.58 1536.63 1494.63 1536.63 Q1489.89 1536.63 1487.15 1539.65 Q1484.42 1542.68 1484.42 1547.9 L1484.42 1568.04 L1478.53 1568.04 L1478.53 1532.4 L1484.42 1532.4 L1484.42 1537.93 Q1486.52 1534.72 1489.35 1533.13 Q1492.21 1531.54 1495.94 1531.54 Q1502.08 1531.54 1505.23 1535.36 Q1508.38 1539.14 1508.38 1546.53 Z" fill="#000000" fill-rule="nonzero" fill-opacity="1" /><path clip-path="url(#clip690)" d="M1542.79 1533.45 L1542.79 1538.98 Q1540.31 1537.71 1537.63 1537.07 Q1534.96 1536.44 1532.1 1536.44 Q1527.74 1536.44 1525.54 1537.77 Q1523.38 1539.11 1523.38 1541.79 Q1523.38 1543.82 1524.93 1545 Q1526.49 1546.15 1531.2 1547.2 L1533.21 1547.64 Q1539.45 1548.98 1542.06 1551.43 Q1544.7 1553.85 1544.7 1558.21 Q1544.7 1563.17 1540.75 1566.07 Q1536.84 1568.97 1529.96 1568.97 Q1527.1 1568.97 1523.98 1568.39 Q1520.89 1567.85 1517.45 1566.74 L1517.45 1560.69 Q1520.7 1562.38 1523.85 1563.24 Q1527 1564.07 1530.09 1564.07 Q1534.23 1564.07 1536.46 1562.66 Q1538.68 1561.23 1538.68 1558.65 Q1538.68 1556.27 1537.06 1554.99 Q1535.47 1553.72 1530.03 1552.54 L1527.99 1552.07 Q1522.55 1550.92 1520.13 1548.56 Q1517.71 1546.18 1517.71 1542.04 Q1517.71 1537.01 1521.27 1534.27 Q1524.84 1531.54 1531.4 1531.54 Q1534.64 1531.54 1537.51 1532.01 Q1540.37 1532.49 1542.79 1533.45 Z" fill="#000000" fill-rule="nonzero" fill-opacity="1" /><path clip-path="url(#clip690)" d="M1554.03 1532.4 L1559.88 1532.4 L1559.88 1568.04 L1554.03 1568.04 L1554.03 1532.4 M1554.03 1518.52 L1559.88 1518.52 L1559.88 1525.93 L1554.03 1525.93 L1554.03 1518.52 Z" fill="#000000" fill-rule="nonzero" fill-opacity="1" /><path clip-path="url(#clip690)" d="M1585.95 1536.5 Q1581.24 1536.5 1578.5 1540.19 Q1575.76 1543.85 1575.76 1550.25 Q1575.76 1556.65 1578.47 1560.34 Q1581.21 1564 1585.95 1564 Q1590.63 1564 1593.37 1560.31 Q1596.1 1556.62 1596.1 1550.25 Q1596.1 1543.92 1593.37 1540.23 Q1590.63 1536.5 1585.95 1536.5 M1585.95 1531.54 Q1593.59 1531.54 1597.95 1536.5 Q1602.31 1541.47 1602.31 1550.25 Q1602.31 1559 1597.95 1564 Q1593.59 1568.97 1585.95 1568.97 Q1578.28 1568.97 1573.92 1564 Q1569.59 1559 1569.59 1550.25 Q1569.59 1541.47 1573.92 1536.5 Q1578.28 1531.54 1585.95 1531.54 Z" fill="#000000" fill-rule="nonzero" fill-opacity="1" /><path clip-path="url(#clip690)" d="M1641.65 1546.53 L1641.65 1568.04 L1635.79 1568.04 L1635.79 1546.72 Q1635.79 1541.66 1633.82 1539.14 Q1631.85 1536.63 1627.9 1536.63 Q1623.16 1536.63 1620.42 1539.65 Q1617.68 1542.68 1617.68 1547.9 L1617.68 1568.04 L1611.79 1568.04 L1611.79 1532.4 L1617.68 1532.4 L1617.68 1537.93 Q1619.78 1534.72 1622.62 1533.13 Q1625.48 1531.54 1629.2 1531.54 Q1635.35 1531.54 1638.5 1535.36 Q1641.65 1539.14 1641.65 1546.53 Z" fill="#000000" fill-rule="nonzero" fill-opacity="1" /><polyline clip-path="url(#clip690)" style="stroke:#000000; stroke-linecap:round; stroke-linejoin:round; stroke-width:4; stroke-opacity:1; fill:none" points="252.501,1423.18 252.501,123.472 "/>
<polyline clip-path="url(#clip690)" style="stroke:#000000; stroke-linecap:round; stroke-linejoin:round; stroke-width:4; stroke-opacity:1; fill:none" points="252.501,1312.58 271.398,1312.58 "/>
<polyline clip-path="url(#clip690)" style="stroke:#000000; stroke-linecap:round; stroke-linejoin:round; stroke-width:4; stroke-opacity:1; fill:none" points="252.501,629.558 271.398,629.558 "/>
<path clip-path="url(#clip690)" d="M114.931 1332.37 L122.57 1332.37 L122.57 1306.01 L114.26 1307.68 L114.26 1303.42 L122.524 1301.75 L127.2 1301.75 L127.2 1332.37 L134.839 1332.37 L134.839 1336.31 L114.931 1336.31 L114.931 1332.37 Z" fill="#000000" fill-rule="nonzero" fill-opacity="1" /><path clip-path="url(#clip690)" d="M154.283 1304.83 Q150.672 1304.83 148.843 1308.39 Q147.038 1311.93 147.038 1319.06 Q147.038 1326.17 148.843 1329.74 Q150.672 1333.28 154.283 1333.28 Q157.917 1333.28 159.723 1329.74 Q161.552 1326.17 161.552 1319.06 Q161.552 1311.93 159.723 1308.39 Q157.917 1304.83 154.283 1304.83 M154.283 1301.12 Q160.093 1301.12 163.149 1305.73 Q166.227 1310.31 166.227 1319.06 Q166.227 1327.79 163.149 1332.4 Q160.093 1336.98 154.283 1336.98 Q148.473 1336.98 145.394 1332.4 Q142.339 1327.79 142.339 1319.06 Q142.339 1310.31 145.394 1305.73 Q148.473 1301.12 154.283 1301.12 Z" fill="#000000" fill-rule="nonzero" fill-opacity="1" /><path clip-path="url(#clip690)" d="M166.227 1295.23 L190.339 1295.23 L190.339 1298.42 L166.227 1298.42 L166.227 1295.23 Z" fill="#000000" fill-rule="nonzero" fill-opacity="1" /><path clip-path="url(#clip690)" d="M207.134 1293.35 Q204.577 1293.35 203.072 1295.09 Q201.586 1296.84 201.586 1299.89 Q201.586 1302.92 203.072 1304.69 Q204.577 1306.44 207.134 1306.44 Q209.692 1306.44 211.178 1304.69 Q212.683 1302.92 212.683 1299.89 Q212.683 1296.84 211.178 1295.09 Q209.692 1293.35 207.134 1293.35 M214.676 1281.44 L214.676 1284.9 Q213.247 1284.22 211.78 1283.87 Q210.332 1283.51 208.902 1283.51 Q205.141 1283.51 203.147 1286.05 Q201.172 1288.59 200.89 1293.72 Q202 1292.09 203.674 1291.22 Q205.348 1290.34 207.36 1290.34 Q211.592 1290.34 214.037 1292.91 Q216.501 1295.47 216.501 1299.89 Q216.501 1304.22 213.943 1306.83 Q211.385 1309.44 207.134 1309.44 Q202.263 1309.44 199.686 1305.72 Q197.11 1301.98 197.11 1294.89 Q197.11 1288.23 200.27 1284.28 Q203.429 1280.31 208.752 1280.31 Q210.181 1280.31 211.629 1280.59 Q213.096 1280.88 214.676 1281.44 Z" fill="#000000" fill-rule="nonzero" fill-opacity="1" /><path clip-path="url(#clip690)" d="M115.59 649.351 L123.229 649.351 L123.229 622.985 L114.918 624.652 L114.918 620.393 L123.182 618.726 L127.858 618.726 L127.858 649.351 L135.497 649.351 L135.497 653.286 L115.59 653.286 L115.59 649.351 Z" fill="#000000" fill-rule="nonzero" fill-opacity="1" /><path clip-path="url(#clip690)" d="M154.941 621.805 Q151.33 621.805 149.502 625.369 Q147.696 628.911 147.696 636.041 Q147.696 643.147 149.502 646.712 Q151.33 650.254 154.941 650.254 Q158.576 650.254 160.381 646.712 Q162.21 643.147 162.21 636.041 Q162.21 628.911 160.381 625.369 Q158.576 621.805 154.941 621.805 M154.941 618.101 Q160.752 618.101 163.807 622.707 Q166.886 627.291 166.886 636.041 Q166.886 644.767 163.807 649.374 Q160.752 653.957 154.941 653.957 Q149.131 653.957 146.053 649.374 Q142.997 644.767 142.997 636.041 Q142.997 627.291 146.053 622.707 Q149.131 618.101 154.941 618.101 Z" fill="#000000" fill-rule="nonzero" fill-opacity="1" /><path clip-path="url(#clip690)" d="M166.886 612.202 L190.997 612.202 L190.997 615.4 L166.886 615.4 L166.886 612.202 Z" fill="#000000" fill-rule="nonzero" fill-opacity="1" /><path clip-path="url(#clip690)" d="M210.708 610.735 Q213.435 611.318 214.958 613.161 Q216.501 615.005 216.501 617.713 Q216.501 621.869 213.642 624.145 Q210.783 626.421 205.517 626.421 Q203.749 626.421 201.868 626.064 Q200.006 625.725 198.013 625.029 L198.013 621.362 Q199.592 622.283 201.473 622.753 Q203.354 623.224 205.404 623.224 Q208.978 623.224 210.84 621.813 Q212.72 620.402 212.72 617.713 Q212.72 615.23 210.971 613.839 Q209.241 612.428 206.138 612.428 L202.865 612.428 L202.865 609.306 L206.288 609.306 Q209.09 609.306 210.576 608.196 Q212.062 607.068 212.062 604.961 Q212.062 602.798 210.52 601.651 Q208.996 600.485 206.138 600.485 Q204.577 600.485 202.79 600.824 Q201.003 601.162 198.859 601.877 L198.859 598.491 Q201.022 597.89 202.903 597.589 Q204.802 597.288 206.476 597.288 Q210.802 597.288 213.322 599.263 Q215.842 601.219 215.842 604.566 Q215.842 606.898 214.507 608.516 Q213.172 610.115 210.708 610.735 Z" fill="#000000" fill-rule="nonzero" fill-opacity="1" /><path clip-path="url(#clip690)" d="M18.0438 1022.54 L24.314 1022.54 Q22.5634 1026.2 21.704 1029.45 Q20.8447 1032.7 20.8447 1035.72 Q20.8447 1040.97 22.8817 1043.84 Q24.9187 1046.67 28.6745 1046.67 Q31.8255 1046.67 33.4488 1044.79 Q35.0402 1042.88 36.0269 1037.6 L36.8226 1033.72 Q38.1912 1026.52 41.6605 1023.12 Q45.098 1019.68 50.8908 1019.68 Q57.7976 1019.68 61.3624 1024.33 Q64.9272 1028.94 64.9272 1037.88 Q64.9272 1041.26 64.1633 1045.08 Q63.3994 1048.87 61.9035 1052.94 L55.2831 1052.94 Q57.4793 1049.02 58.5933 1045.27 Q59.7073 1041.51 59.7073 1037.88 Q59.7073 1032.38 57.543 1029.39 Q55.3786 1026.39 51.3682 1026.39 Q47.8671 1026.39 45.8937 1028.56 Q43.9204 1030.69 42.9337 1035.59 L42.1698 1039.51 Q40.7375 1046.7 37.682 1049.92 Q34.6264 1053.13 29.1837 1053.13 Q22.8817 1053.13 19.2532 1048.71 Q15.6248 1044.25 15.6248 1036.45 Q15.6248 1033.11 16.2295 1029.64 Q16.8343 1026.17 18.0438 1022.54 Z" fill="#000000" fill-rule="nonzero" fill-opacity="1" /><path clip-path="url(#clip690)" d="M46.0847 993.707 Q46.0847 1000.8 47.7079 1003.54 Q49.3312 1006.28 53.2461 1006.28 Q56.3653 1006.28 58.2114 1004.24 Q60.0256 1002.17 60.0256 998.64 Q60.0256 993.77 56.5881 990.842 Q53.1188 987.882 47.3897 987.882 L46.0847 987.882 L46.0847 993.707 M43.6657 982.026 L64.0042 982.026 L64.0042 987.882 L58.5933 987.882 Q61.8398 989.887 63.3994 992.879 Q64.9272 995.871 64.9272 1000.2 Q64.9272 1005.67 61.8716 1008.92 Q58.7843 1012.14 53.6281 1012.14 Q47.6125 1012.14 44.5569 1008.13 Q41.5014 1004.08 41.5014 996.094 L41.5014 987.882 L40.9285 987.882 Q36.8862 987.882 34.6901 990.556 Q32.4621 993.197 32.4621 998.004 Q32.4621 1001.06 33.1941 1003.96 Q33.9262 1006.85 35.3903 1009.53 L29.9795 1009.53 Q28.7381 1006.31 28.1334 1003.29 Q27.4968 1000.26 27.4968 997.399 Q27.4968 989.665 31.5072 985.845 Q35.5176 982.026 43.6657 982.026 Z" fill="#000000" fill-rule="nonzero" fill-opacity="1" /><path clip-path="url(#clip690)" d="M35.1993 942.208 Q31.2526 940.012 29.3747 936.956 Q27.4968 933.901 27.4968 929.763 Q27.4968 924.193 31.4117 921.17 Q35.2948 918.146 42.4881 918.146 L64.0042 918.146 L64.0042 924.034 L42.679 924.034 Q37.5546 924.034 35.072 925.848 Q32.5894 927.663 32.5894 931.386 Q32.5894 935.938 35.6131 938.58 Q38.6368 941.221 43.8567 941.221 L64.0042 941.221 L64.0042 947.11 L42.679 947.11 Q37.5228 947.11 35.072 948.924 Q32.5894 950.738 32.5894 954.526 Q32.5894 959.014 35.6449 961.655 Q38.6686 964.297 43.8567 964.297 L64.0042 964.297 L64.0042 970.185 L28.3562 970.185 L28.3562 964.297 L33.8944 964.297 Q30.616 962.292 29.0564 959.491 Q27.4968 956.69 27.4968 952.839 Q27.4968 948.956 29.4702 946.25 Q31.4436 943.513 35.1993 942.208 Z" fill="#000000" fill-rule="nonzero" fill-opacity="1" /><path clip-path="url(#clip690)" d="M58.657 900.799 L77.5631 900.799 L77.5631 906.688 L28.3562 906.688 L28.3562 900.799 L33.7671 900.799 Q30.5842 898.953 29.0564 896.152 Q27.4968 893.32 27.4968 889.405 Q27.4968 882.912 32.6531 878.869 Q37.8093 874.795 46.212 874.795 Q54.6147 874.795 59.771 878.869 Q64.9272 882.912 64.9272 889.405 Q64.9272 893.32 63.3994 896.152 Q61.8398 898.953 58.657 900.799 M46.212 880.875 Q39.7508 880.875 36.0905 883.548 Q32.3984 886.19 32.3984 890.837 Q32.3984 895.484 36.0905 898.157 Q39.7508 900.799 46.212 900.799 Q52.6732 900.799 56.3653 898.157 Q60.0256 895.484 60.0256 890.837 Q60.0256 886.19 56.3653 883.548 Q52.6732 880.875 46.212 880.875 Z" fill="#000000" fill-rule="nonzero" fill-opacity="1" /><path clip-path="url(#clip690)" d="M14.479 865.088 L14.479 859.231 L64.0042 859.231 L64.0042 865.088 L14.479 865.088 Z" fill="#000000" fill-rule="nonzero" fill-opacity="1" /><path clip-path="url(#clip690)" d="M44.7161 816.485 L47.5806 816.485 L47.5806 843.412 Q53.6281 843.03 56.8109 839.784 Q59.9619 836.506 59.9619 830.681 Q59.9619 827.307 59.1344 824.156 Q58.3069 820.973 56.6518 817.854 L62.1899 817.854 Q63.5267 821.005 64.227 824.315 Q64.9272 827.625 64.9272 831.031 Q64.9272 839.561 59.9619 844.558 Q54.9967 849.523 46.5303 849.523 Q37.7774 849.523 32.6531 844.813 Q27.4968 840.07 27.4968 832.05 Q27.4968 824.856 32.1438 820.687 Q36.7589 816.485 44.7161 816.485 M42.9973 822.342 Q38.1912 822.406 35.3266 825.047 Q32.4621 827.657 32.4621 831.986 Q32.4621 836.888 35.2312 839.848 Q38.0002 842.776 43.0292 843.221 L42.9973 822.342 Z" fill="#000000" fill-rule="nonzero" fill-opacity="1" /><path clip-path="url(#clip690)" d="M33.7671 783.416 L14.479 783.416 L14.479 777.559 L64.0042 777.559 L64.0042 783.416 L58.657 783.416 Q61.8398 785.262 63.3994 788.094 Q64.9272 790.895 64.9272 794.842 Q64.9272 801.303 59.771 805.377 Q54.6147 809.42 46.212 809.42 Q37.8093 809.42 32.6531 805.377 Q27.4968 801.303 27.4968 794.842 Q27.4968 790.895 29.0564 788.094 Q30.5842 785.262 33.7671 783.416 M46.212 803.372 Q52.6732 803.372 56.3653 800.73 Q60.0256 798.057 60.0256 793.41 Q60.0256 788.763 56.3653 786.089 Q52.6732 783.416 46.212 783.416 Q39.7508 783.416 36.0905 786.089 Q32.3984 788.763 32.3984 793.41 Q32.3984 798.057 36.0905 800.73 Q39.7508 803.372 46.212 803.372 Z" fill="#000000" fill-rule="nonzero" fill-opacity="1" /><path clip-path="url(#clip690)" d="M16.4842 744.521 L16.4842 738.092 L58.5933 738.092 L58.5933 714.952 L64.0042 714.952 L64.0042 744.521 L16.4842 744.521 Z" fill="#000000" fill-rule="nonzero" fill-opacity="1" /><path clip-path="url(#clip690)" d="M58.5933 706.518 L58.5933 696.014 L22.3406 696.014 L24.6323 707.441 L18.7758 707.441 L16.4842 696.078 L16.4842 689.649 L58.5933 689.649 L58.5933 679.145 L64.0042 679.145 L64.0042 706.518 L58.5933 706.518 Z" fill="#000000" fill-rule="nonzero" fill-opacity="1" /><path clip-path="url(#clip690)" d="M16.4842 646.012 L16.4842 615.966 L21.895 615.966 L21.895 639.582 L35.9632 639.582 L35.9632 616.952 L41.3741 616.952 L41.3741 639.582 L58.5933 639.582 L58.5933 615.393 L64.0042 615.393 L64.0042 646.012 L16.4842 646.012 Z" fill="#000000" fill-rule="nonzero" fill-opacity="1" /><path clip-path="url(#clip690)" d="M33.8307 584.424 Q33.2578 585.41 33.0032 586.588 Q32.7167 587.734 32.7167 589.134 Q32.7167 594.1 35.9632 596.773 Q39.1779 599.415 45.2253 599.415 L64.0042 599.415 L64.0042 605.303 L28.3562 605.303 L28.3562 599.415 L33.8944 599.415 Q30.6479 597.569 29.0883 594.609 Q27.4968 591.649 27.4968 587.416 Q27.4968 586.811 27.5923 586.079 Q27.656 585.347 27.8151 584.455 L33.8307 584.424 Z" fill="#000000" fill-rule="nonzero" fill-opacity="1" /><path clip-path="url(#clip690)" d="M33.8307 558.77 Q33.2578 559.757 33.0032 560.934 Q32.7167 562.08 32.7167 563.48 Q32.7167 568.446 35.9632 571.119 Q39.1779 573.761 45.2253 573.761 L64.0042 573.761 L64.0042 579.649 L28.3562 579.649 L28.3562 573.761 L33.8944 573.761 Q30.6479 571.915 29.0883 568.955 Q27.4968 565.995 27.4968 561.762 Q27.4968 561.157 27.5923 560.425 Q27.656 559.693 27.8151 558.802 L33.8307 558.77 Z" fill="#000000" fill-rule="nonzero" fill-opacity="1" /><path clip-path="url(#clip690)" d="M32.4621 540.246 Q32.4621 544.956 36.1542 547.694 Q39.8145 550.431 46.212 550.431 Q52.6095 550.431 56.3017 547.725 Q59.9619 544.988 59.9619 540.246 Q59.9619 535.567 56.2698 532.83 Q52.5777 530.092 46.212 530.092 Q39.8781 530.092 36.186 532.83 Q32.4621 535.567 32.4621 540.246 M27.4968 540.246 Q27.4968 532.607 32.4621 528.246 Q37.4273 523.886 46.212 523.886 Q54.9649 523.886 59.9619 528.246 Q64.9272 532.607 64.9272 540.246 Q64.9272 547.916 59.9619 552.277 Q54.9649 556.606 46.212 556.606 Q37.4273 556.606 32.4621 552.277 Q27.4968 547.916 27.4968 540.246 Z" fill="#000000" fill-rule="nonzero" fill-opacity="1" /><path clip-path="url(#clip690)" d="M33.8307 493.521 Q33.2578 494.508 33.0032 495.686 Q32.7167 496.832 32.7167 498.232 Q32.7167 503.197 35.9632 505.871 Q39.1779 508.513 45.2253 508.513 L64.0042 508.513 L64.0042 514.401 L28.3562 514.401 L28.3562 508.513 L33.8944 508.513 Q30.6479 506.667 29.0883 503.706 Q27.4968 500.746 27.4968 496.513 Q27.4968 495.908 27.5923 495.176 Q27.656 494.444 27.8151 493.553 L33.8307 493.521 Z" fill="#000000" fill-rule="nonzero" fill-opacity="1" /><path clip-path="url(#clip690)" d="M477.358 14.0809 L477.358 22.0612 Q472.699 19.8332 468.567 18.7395 Q464.435 17.6457 460.587 17.6457 Q453.903 17.6457 450.257 20.2383 Q446.652 22.8309 446.652 27.611 Q446.652 31.6214 449.042 33.6873 Q451.473 35.7128 458.197 36.9686 L463.139 37.9813 Q472.294 39.7232 476.629 44.1387 Q481.004 48.5136 481.004 55.8863 Q481.004 64.6767 475.089 69.2137 Q469.215 73.7508 457.832 73.7508 Q453.538 73.7508 448.677 72.7785 Q443.857 71.8063 438.672 69.9024 L438.672 61.4765 Q443.654 64.2716 448.434 65.6895 Q453.214 67.1073 457.832 67.1073 Q464.841 67.1073 468.648 64.3527 Q472.456 61.598 472.456 56.4939 Q472.456 52.0379 469.702 49.5264 Q466.987 47.0148 460.749 45.759 L455.766 44.7868 Q446.611 42.9639 442.52 39.075 Q438.429 35.1862 438.429 28.2591 Q438.429 20.2383 444.059 15.6203 Q449.731 11.0023 459.655 11.0023 Q463.909 11.0023 468.324 11.7719 Q472.74 12.5416 477.358 14.0809 Z" fill="#000000" fill-rule="nonzero" fill-opacity="1" /><path clip-path="url(#clip690)" d="M514.059 49.7694 Q505.025 49.7694 501.542 51.8354 Q498.058 53.9013 498.058 58.8839 Q498.058 62.8538 500.651 65.2034 Q503.284 67.5124 507.78 67.5124 Q513.978 67.5124 517.705 63.1374 Q521.472 58.7219 521.472 51.4303 L521.472 49.7694 L514.059 49.7694 M528.926 46.6907 L528.926 72.576 L521.472 72.576 L521.472 65.6895 Q518.92 69.8214 515.112 71.8063 Q511.304 73.7508 505.795 73.7508 Q498.828 73.7508 494.696 69.8619 Q490.604 65.9325 490.604 59.3701 Q490.604 51.7138 495.708 47.825 Q500.853 43.9361 511.021 43.9361 L521.472 43.9361 L521.472 43.2069 Q521.472 38.0623 518.069 35.2672 Q514.707 32.4315 508.59 32.4315 Q504.701 32.4315 501.015 33.3632 Q497.329 34.295 493.926 36.1584 L493.926 29.2718 Q498.017 27.692 501.866 26.9223 Q505.714 26.1121 509.36 26.1121 Q519.204 26.1121 524.065 31.2163 Q528.926 36.3204 528.926 46.6907 Z" fill="#000000" fill-rule="nonzero" fill-opacity="1" /><path clip-path="url(#clip690)" d="M579.603 35.9153 Q582.398 30.8922 586.287 28.5022 Q590.175 26.1121 595.442 26.1121 Q602.531 26.1121 606.379 31.0947 Q610.227 36.0368 610.227 45.1919 L610.227 72.576 L602.733 72.576 L602.733 45.4349 Q602.733 38.913 600.424 35.7533 Q598.115 32.5936 593.376 32.5936 Q587.583 32.5936 584.221 36.4419 Q580.858 40.2903 580.858 46.9338 L580.858 72.576 L573.364 72.576 L573.364 45.4349 Q573.364 38.8725 571.055 35.7533 Q568.746 32.5936 563.926 32.5936 Q558.214 32.5936 554.852 36.4824 Q551.489 40.3308 551.489 46.9338 L551.489 72.576 L543.995 72.576 L543.995 27.2059 L551.489 27.2059 L551.489 34.2544 Q554.041 30.082 557.606 28.0971 Q561.171 26.1121 566.073 26.1121 Q571.015 26.1121 574.458 28.6237 Q577.942 31.1352 579.603 35.9153 Z" fill="#000000" fill-rule="nonzero" fill-opacity="1" /><path clip-path="url(#clip690)" d="M632.305 65.7705 L632.305 89.8329 L624.811 89.8329 L624.811 27.2059 L632.305 27.2059 L632.305 34.0924 Q634.654 30.0415 638.219 28.0971 Q641.825 26.1121 646.807 26.1121 Q655.071 26.1121 660.216 32.6746 Q665.401 39.2371 665.401 49.9314 Q665.401 60.6258 660.216 67.1883 Q655.071 73.7508 646.807 73.7508 Q641.825 73.7508 638.219 71.8063 Q634.654 69.8214 632.305 65.7705 M657.664 49.9314 Q657.664 41.7081 654.261 37.0496 Q650.899 32.3505 644.984 32.3505 Q639.07 32.3505 635.667 37.0496 Q632.305 41.7081 632.305 49.9314 Q632.305 58.1548 635.667 62.8538 Q639.07 67.5124 644.984 67.5124 Q650.899 67.5124 654.261 62.8538 Q657.664 58.1548 657.664 49.9314 Z" fill="#000000" fill-rule="nonzero" fill-opacity="1" /><path clip-path="url(#clip690)" d="M677.756 9.54393 L685.21 9.54393 L685.21 72.576 L677.756 72.576 L677.756 9.54393 Z" fill="#000000" fill-rule="nonzero" fill-opacity="1" /><path clip-path="url(#clip690)" d="M739.613 48.0275 L739.613 51.6733 L705.343 51.6733 Q705.829 59.3701 709.961 63.421 Q714.133 67.4314 721.546 67.4314 Q725.84 67.4314 729.851 66.3781 Q733.902 65.3249 737.871 63.2184 L737.871 70.267 Q733.861 71.9684 729.648 72.8596 Q725.435 73.7508 721.101 73.7508 Q710.244 73.7508 703.884 67.4314 Q697.565 61.1119 697.565 50.3365 Q697.565 39.1965 703.56 32.6746 Q709.596 26.1121 719.804 26.1121 Q728.959 26.1121 734.266 32.0264 Q739.613 37.9003 739.613 48.0275 M732.16 45.84 Q732.079 39.7232 728.716 36.0774 Q725.395 32.4315 719.885 32.4315 Q713.647 32.4315 709.88 35.9558 Q706.153 39.4801 705.586 45.8805 L732.16 45.84 Z" fill="#000000" fill-rule="nonzero" fill-opacity="1" /><path clip-path="url(#clip690)" d="M781.702 34.0924 L781.702 9.54393 L789.156 9.54393 L789.156 72.576 L781.702 72.576 L781.702 65.7705 Q779.353 69.8214 775.747 71.8063 Q772.183 73.7508 767.159 73.7508 Q758.936 73.7508 753.751 67.1883 Q748.606 60.6258 748.606 49.9314 Q748.606 39.2371 753.751 32.6746 Q758.936 26.1121 767.159 26.1121 Q772.183 26.1121 775.747 28.0971 Q779.353 30.0415 781.702 34.0924 M756.303 49.9314 Q756.303 58.1548 759.665 62.8538 Q763.068 67.5124 768.982 67.5124 Q774.897 67.5124 778.299 62.8538 Q781.702 58.1548 781.702 49.9314 Q781.702 41.7081 778.299 37.0496 Q774.897 32.3505 768.982 32.3505 Q763.068 32.3505 759.665 37.0496 Q756.303 41.7081 756.303 49.9314 Z" fill="#000000" fill-rule="nonzero" fill-opacity="1" /><path clip-path="url(#clip690)" d="M831.204 12.096 L839.387 12.096 L839.387 65.6895 L868.837 65.6895 L868.837 72.576 L831.204 72.576 L831.204 12.096 Z" fill="#000000" fill-rule="nonzero" fill-opacity="1" /><path clip-path="url(#clip690)" d="M879.572 65.6895 L892.94 65.6895 L892.94 19.5497 L878.397 22.4663 L878.397 15.0127 L892.859 12.096 L901.042 12.096 L901.042 65.6895 L914.41 65.6895 L914.41 72.576 L879.572 72.576 L879.572 65.6895 Z" fill="#000000" fill-rule="nonzero" fill-opacity="1" /><path clip-path="url(#clip690)" d="M956.58 12.096 L994.82 12.096 L994.82 18.9825 L964.763 18.9825 L964.763 36.8875 L993.565 36.8875 L993.565 43.7741 L964.763 43.7741 L964.763 65.6895 L995.549 65.6895 L995.549 72.576 L956.58 72.576 L956.58 12.096 Z" fill="#000000" fill-rule="nonzero" fill-opacity="1" /><path clip-path="url(#clip690)" d="M1034.96 34.1734 Q1033.71 33.4443 1032.21 33.1202 Q1030.75 32.7556 1028.97 32.7556 Q1022.65 32.7556 1019.25 36.8875 Q1015.89 40.9789 1015.89 48.6757 L1015.89 72.576 L1008.39 72.576 L1008.39 27.2059 L1015.89 27.2059 L1015.89 34.2544 Q1018.23 30.1225 1022 28.1376 Q1025.77 26.1121 1031.16 26.1121 Q1031.93 26.1121 1032.86 26.2337 Q1033.79 26.3147 1034.92 26.5172 L1034.96 34.1734 Z" fill="#000000" fill-rule="nonzero" fill-opacity="1" /><path clip-path="url(#clip690)" d="M1067.62 34.1734 Q1066.36 33.4443 1064.86 33.1202 Q1063.4 32.7556 1061.62 32.7556 Q1055.3 32.7556 1051.9 36.8875 Q1048.54 40.9789 1048.54 48.6757 L1048.54 72.576 L1041.04 72.576 L1041.04 27.2059 L1048.54 27.2059 L1048.54 34.2544 Q1050.88 30.1225 1054.65 28.1376 Q1058.42 26.1121 1063.81 26.1121 Q1064.58 26.1121 1065.51 26.2337 Q1066.44 26.3147 1067.57 26.5172 L1067.62 34.1734 Z" fill="#000000" fill-rule="nonzero" fill-opacity="1" /><path clip-path="url(#clip690)" d="M1091.19 32.4315 Q1085.2 32.4315 1081.71 37.1306 Q1078.23 41.7891 1078.23 49.9314 Q1078.23 58.0738 1081.67 62.7728 Q1085.16 67.4314 1091.19 67.4314 Q1097.15 67.4314 1100.63 62.7323 Q1104.11 58.0333 1104.11 49.9314 Q1104.11 41.8701 1100.63 37.1711 Q1097.15 32.4315 1091.19 32.4315 M1091.19 26.1121 Q1100.91 26.1121 1106.46 32.4315 Q1112.01 38.7509 1112.01 49.9314 Q1112.01 61.0714 1106.46 67.4314 Q1100.91 73.7508 1091.19 73.7508 Q1081.43 73.7508 1075.88 67.4314 Q1070.37 61.0714 1070.37 49.9314 Q1070.37 38.7509 1075.88 32.4315 Q1081.43 26.1121 1091.19 26.1121 Z" fill="#000000" fill-rule="nonzero" fill-opacity="1" /><path clip-path="url(#clip690)" d="M1150.66 34.1734 Q1149.4 33.4443 1147.9 33.1202 Q1146.45 32.7556 1144.66 32.7556 Q1138.34 32.7556 1134.94 36.8875 Q1131.58 40.9789 1131.58 48.6757 L1131.58 72.576 L1124.08 72.576 L1124.08 27.2059 L1131.58 27.2059 L1131.58 34.2544 Q1133.93 30.1225 1137.7 28.1376 Q1141.46 26.1121 1146.85 26.1121 Q1147.62 26.1121 1148.55 26.2337 Q1149.48 26.3147 1150.62 26.5172 L1150.66 34.1734 Z" fill="#000000" fill-rule="nonzero" fill-opacity="1" /><path clip-path="url(#clip690)" d="M1179.5 27.2059 L1187.4 27.2059 L1201.58 65.2844 L1215.76 27.2059 L1223.66 27.2059 L1206.64 72.576 L1196.51 72.576 L1179.5 27.2059 Z" fill="#000000" fill-rule="nonzero" fill-opacity="1" /><path clip-path="url(#clip690)" d="M1262.87 28.5427 L1262.87 35.5912 Q1259.71 33.9709 1256.31 33.1607 Q1252.9 32.3505 1249.26 32.3505 Q1243.71 32.3505 1240.91 34.0519 Q1238.16 35.7533 1238.16 39.156 Q1238.16 41.7486 1240.14 43.2475 Q1242.13 44.7058 1248.12 46.0426 L1250.68 46.6097 Q1258.62 48.3111 1261.94 51.4303 Q1265.3 54.509 1265.3 60.0587 Q1265.3 66.3781 1260.28 70.0644 Q1255.29 73.7508 1246.54 73.7508 Q1242.9 73.7508 1238.93 73.0216 Q1235 72.3329 1230.62 70.9151 L1230.62 63.2184 Q1234.76 65.3654 1238.77 66.4591 Q1242.78 67.5124 1246.71 67.5124 Q1251.97 67.5124 1254.81 65.73 Q1257.64 63.9071 1257.64 60.6258 Q1257.64 57.5877 1255.58 55.9673 Q1253.55 54.3469 1246.62 52.8481 L1244.03 52.2405 Q1237.1 50.7821 1234.03 47.7845 Q1230.95 44.7463 1230.95 39.4801 Q1230.95 33.0797 1235.48 29.5959 Q1240.02 26.1121 1248.37 26.1121 Q1252.5 26.1121 1256.14 26.7198 Q1259.79 27.3274 1262.87 28.5427 Z" fill="#000000" fill-rule="nonzero" fill-opacity="1" /><path clip-path="url(#clip690)" d="M1303.86 12.096 L1316.06 12.096 L1331.49 53.2532 L1347.01 12.096 L1359.2 12.096 L1359.2 72.576 L1351.22 72.576 L1351.22 19.4686 L1335.62 60.9499 L1327.4 60.9499 L1311.8 19.4686 L1311.8 72.576 L1303.86 72.576 L1303.86 12.096 Z" fill="#000000" fill-rule="nonzero" fill-opacity="1" /><path clip-path="url(#clip690)" d="M1395.74 49.7694 Q1386.7 49.7694 1383.22 51.8354 Q1379.74 53.9013 1379.74 58.8839 Q1379.74 62.8538 1382.33 65.2034 Q1384.96 67.5124 1389.46 67.5124 Q1395.66 67.5124 1399.38 63.1374 Q1403.15 58.7219 1403.15 51.4303 L1403.15 49.7694 L1395.74 49.7694 M1410.61 46.6907 L1410.61 72.576 L1403.15 72.576 L1403.15 65.6895 Q1400.6 69.8214 1396.79 71.8063 Q1392.98 73.7508 1387.47 73.7508 Q1380.51 73.7508 1376.37 69.8619 Q1372.28 65.9325 1372.28 59.3701 Q1372.28 51.7138 1377.39 47.825 Q1382.53 43.9361 1392.7 43.9361 L1403.15 43.9361 L1403.15 43.2069 Q1403.15 38.0623 1399.75 35.2672 Q1396.39 32.4315 1390.27 32.4315 Q1386.38 32.4315 1382.69 33.3632 Q1379.01 34.295 1375.61 36.1584 L1375.61 29.2718 Q1379.7 27.692 1383.55 26.9223 Q1387.39 26.1121 1391.04 26.1121 Q1400.88 26.1121 1405.74 31.2163 Q1410.61 36.3204 1410.61 46.6907 Z" fill="#000000" fill-rule="nonzero" fill-opacity="1" /><path clip-path="url(#clip690)" d="M1463.67 27.2059 L1447.27 49.2833 L1464.52 72.576 L1455.73 72.576 L1442.53 54.752 L1429.32 72.576 L1420.53 72.576 L1438.15 48.8377 L1422.03 27.2059 L1430.82 27.2059 L1442.85 43.369 L1454.88 27.2059 L1463.67 27.2059 Z" fill="#000000" fill-rule="nonzero" fill-opacity="1" /><path clip-path="url(#clip690)" d="M1509.93 43.6931 L1509.93 65.8515 L1523.06 65.8515 Q1529.66 65.8515 1532.82 63.1374 Q1536.02 60.3828 1536.02 54.752 Q1536.02 49.0808 1532.82 46.4072 Q1529.66 43.6931 1523.06 43.6931 L1509.93 43.6931 M1509.93 18.8205 L1509.93 37.0496 L1522.05 37.0496 Q1528.04 37.0496 1530.96 34.8216 Q1533.91 32.5531 1533.91 27.935 Q1533.91 23.3575 1530.96 21.089 Q1528.04 18.8205 1522.05 18.8205 L1509.93 18.8205 M1501.75 12.096 L1522.65 12.096 Q1532.01 12.096 1537.07 15.9849 Q1542.14 19.8737 1542.14 27.0438 Q1542.14 32.5936 1539.55 35.8748 Q1536.95 39.156 1531.93 39.9662 Q1537.97 41.2625 1541.29 45.3944 Q1544.65 49.4858 1544.65 55.6432 Q1544.65 63.745 1539.14 68.1605 Q1533.63 72.576 1523.46 72.576 L1501.75 72.576 L1501.75 12.096 Z" fill="#000000" fill-rule="nonzero" fill-opacity="1" /><path clip-path="url(#clip690)" d="M1575.92 32.4315 Q1569.93 32.4315 1566.44 37.1306 Q1562.96 41.7891 1562.96 49.9314 Q1562.96 58.0738 1566.4 62.7728 Q1569.89 67.4314 1575.92 67.4314 Q1581.88 67.4314 1585.36 62.7323 Q1588.84 58.0333 1588.84 49.9314 Q1588.84 41.8701 1585.36 37.1711 Q1581.88 32.4315 1575.92 32.4315 M1575.92 26.1121 Q1585.64 26.1121 1591.19 32.4315 Q1596.74 38.7509 1596.74 49.9314 Q1596.74 61.0714 1591.19 67.4314 Q1585.64 73.7508 1575.92 73.7508 Q1566.16 73.7508 1560.61 67.4314 Q1555.1 61.0714 1555.1 49.9314 Q1555.1 38.7509 1560.61 32.4315 Q1566.16 26.1121 1575.92 26.1121 Z" fill="#000000" fill-rule="nonzero" fill-opacity="1" /><path clip-path="url(#clip690)" d="M1646.81 45.1919 L1646.81 72.576 L1639.36 72.576 L1639.36 45.4349 Q1639.36 38.994 1636.85 35.7938 Q1634.34 32.5936 1629.31 32.5936 Q1623.28 32.5936 1619.79 36.4419 Q1616.31 40.2903 1616.31 46.9338 L1616.31 72.576 L1608.82 72.576 L1608.82 27.2059 L1616.31 27.2059 L1616.31 34.2544 Q1618.98 30.163 1622.59 28.1376 Q1626.23 26.1121 1630.97 26.1121 Q1638.79 26.1121 1642.8 30.9732 Q1646.81 35.7938 1646.81 45.1919 Z" fill="#000000" fill-rule="nonzero" fill-opacity="1" /><path clip-path="url(#clip690)" d="M1691.54 34.0924 L1691.54 9.54393 L1698.99 9.54393 L1698.99 72.576 L1691.54 72.576 L1691.54 65.7705 Q1689.19 69.8214 1685.58 71.8063 Q1682.02 73.7508 1676.99 73.7508 Q1668.77 73.7508 1663.58 67.1883 Q1658.44 60.6258 1658.44 49.9314 Q1658.44 39.2371 1663.58 32.6746 Q1668.77 26.1121 1676.99 26.1121 Q1682.02 26.1121 1685.58 28.0971 Q1689.19 30.0415 1691.54 34.0924 M1666.14 49.9314 Q1666.14 58.1548 1669.5 62.8538 Q1672.9 67.5124 1678.82 67.5124 Q1684.73 67.5124 1688.13 62.8538 Q1691.54 58.1548 1691.54 49.9314 Q1691.54 41.7081 1688.13 37.0496 Q1684.73 32.3505 1678.82 32.3505 Q1672.9 32.3505 1669.5 37.0496 Q1666.14 41.7081 1666.14 49.9314 Z" fill="#000000" fill-rule="nonzero" fill-opacity="1" /><path clip-path="url(#clip690)" d="M1749.22 18.8205 L1749.22 65.8515 L1759.1 65.8515 Q1771.62 65.8515 1777.41 60.1802 Q1783.25 54.509 1783.25 42.2752 Q1783.25 30.1225 1777.41 24.4918 Q1771.62 18.8205 1759.1 18.8205 L1749.22 18.8205 M1741.04 12.096 L1757.85 12.096 Q1775.43 12.096 1783.65 19.4281 Q1791.88 26.7198 1791.88 42.2752 Q1791.88 57.9117 1783.61 65.2439 Q1775.35 72.576 1757.85 72.576 L1741.04 72.576 L1741.04 12.096 Z" fill="#000000" fill-rule="nonzero" fill-opacity="1" /><path clip-path="url(#clip690)" d="M1804.6 27.2059 L1812.05 27.2059 L1812.05 72.576 L1804.6 72.576 L1804.6 27.2059 M1804.6 9.54393 L1812.05 9.54393 L1812.05 18.9825 L1804.6 18.9825 L1804.6 9.54393 Z" fill="#000000" fill-rule="nonzero" fill-opacity="1" /><path clip-path="url(#clip690)" d="M1862.97 35.9153 Q1865.76 30.8922 1869.65 28.5022 Q1873.54 26.1121 1878.81 26.1121 Q1885.9 26.1121 1889.75 31.0947 Q1893.59 36.0368 1893.59 45.1919 L1893.59 72.576 L1886.1 72.576 L1886.1 45.4349 Q1886.1 38.913 1883.79 35.7533 Q1881.48 32.5936 1876.74 32.5936 Q1870.95 32.5936 1867.59 36.4419 Q1864.23 40.2903 1864.23 46.9338 L1864.23 72.576 L1856.73 72.576 L1856.73 45.4349 Q1856.73 38.8725 1854.42 35.7533 Q1852.11 32.5936 1847.29 32.5936 Q1841.58 32.5936 1838.22 36.4824 Q1834.86 40.3308 1834.86 46.9338 L1834.86 72.576 L1827.36 72.576 L1827.36 27.2059 L1834.86 27.2059 L1834.86 34.2544 Q1837.41 30.082 1840.97 28.0971 Q1844.54 26.1121 1849.44 26.1121 Q1854.38 26.1121 1857.82 28.6237 Q1861.31 31.1352 1862.97 35.9153 Z" fill="#000000" fill-rule="nonzero" fill-opacity="1" /><path clip-path="url(#clip690)" d="M1947.27 48.0275 L1947.27 51.6733 L1913 51.6733 Q1913.48 59.3701 1917.62 63.421 Q1921.79 67.4314 1929.2 67.4314 Q1933.5 67.4314 1937.51 66.3781 Q1941.56 65.3249 1945.53 63.2184 L1945.53 70.267 Q1941.52 71.9684 1937.3 72.8596 Q1933.09 73.7508 1928.76 73.7508 Q1917.9 73.7508 1911.54 67.4314 Q1905.22 61.1119 1905.22 50.3365 Q1905.22 39.1965 1911.22 32.6746 Q1917.25 26.1121 1927.46 26.1121 Q1936.62 26.1121 1941.92 32.0264 Q1947.27 37.9003 1947.27 48.0275 M1939.82 45.84 Q1939.73 39.7232 1936.37 36.0774 Q1933.05 32.4315 1927.54 32.4315 Q1921.3 32.4315 1917.54 35.9558 Q1913.81 39.4801 1913.24 45.8805 L1939.82 45.84 Z" fill="#000000" fill-rule="nonzero" fill-opacity="1" /><path clip-path="url(#clip690)" d="M1997.22 45.1919 L1997.22 72.576 L1989.76 72.576 L1989.76 45.4349 Q1989.76 38.994 1987.25 35.7938 Q1984.74 32.5936 1979.72 32.5936 Q1973.68 32.5936 1970.2 36.4419 Q1966.71 40.2903 1966.71 46.9338 L1966.71 72.576 L1959.22 72.576 L1959.22 27.2059 L1966.71 27.2059 L1966.71 34.2544 Q1969.39 30.163 1972.99 28.1376 Q1976.64 26.1121 1981.38 26.1121 Q1989.2 26.1121 1993.21 30.9732 Q1997.22 35.7938 1997.22 45.1919 Z" fill="#000000" fill-rule="nonzero" fill-opacity="1" /><path clip-path="url(#clip690)" d="M2041.01 28.5427 L2041.01 35.5912 Q2037.85 33.9709 2034.44 33.1607 Q2031.04 32.3505 2027.4 32.3505 Q2021.85 32.3505 2019.05 34.0519 Q2016.3 35.7533 2016.3 39.156 Q2016.3 41.7486 2018.28 43.2475 Q2020.27 44.7058 2026.26 46.0426 L2028.81 46.6097 Q2036.75 48.3111 2040.08 51.4303 Q2043.44 54.509 2043.44 60.0587 Q2043.44 66.3781 2038.41 70.0644 Q2033.43 73.7508 2024.68 73.7508 Q2021.04 73.7508 2017.07 73.0216 Q2013.14 72.3329 2008.76 70.9151 L2008.76 63.2184 Q2012.89 65.3654 2016.9 66.4591 Q2020.91 67.5124 2024.84 67.5124 Q2030.11 67.5124 2032.95 65.73 Q2035.78 63.9071 2035.78 60.6258 Q2035.78 57.5877 2033.72 55.9673 Q2031.69 54.3469 2024.76 52.8481 L2022.17 52.2405 Q2015.24 50.7821 2012.16 47.7845 Q2009.09 44.7463 2009.09 39.4801 Q2009.09 33.0797 2013.62 29.5959 Q2018.16 26.1121 2026.5 26.1121 Q2030.64 26.1121 2034.28 26.7198 Q2037.93 27.3274 2041.01 28.5427 Z" fill="#000000" fill-rule="nonzero" fill-opacity="1" /><path clip-path="url(#clip690)" d="M2055.31 27.2059 L2062.76 27.2059 L2062.76 72.576 L2055.31 72.576 L2055.31 27.2059 M2055.31 9.54393 L2062.76 9.54393 L2062.76 18.9825 L2055.31 18.9825 L2055.31 9.54393 Z" fill="#000000" fill-rule="nonzero" fill-opacity="1" /><path clip-path="url(#clip690)" d="M2095.94 32.4315 Q2089.94 32.4315 2086.46 37.1306 Q2082.97 41.7891 2082.97 49.9314 Q2082.97 58.0738 2086.42 62.7728 Q2089.9 67.4314 2095.94 67.4314 Q2101.89 67.4314 2105.38 62.7323 Q2108.86 58.0333 2108.86 49.9314 Q2108.86 41.8701 2105.38 37.1711 Q2101.89 32.4315 2095.94 32.4315 M2095.94 26.1121 Q2105.66 26.1121 2111.21 32.4315 Q2116.76 38.7509 2116.76 49.9314 Q2116.76 61.0714 2111.21 67.4314 Q2105.66 73.7508 2095.94 73.7508 Q2086.17 73.7508 2080.62 67.4314 Q2075.12 61.0714 2075.12 49.9314 Q2075.12 38.7509 2080.62 32.4315 Q2086.17 26.1121 2095.94 26.1121 Z" fill="#000000" fill-rule="nonzero" fill-opacity="1" /><path clip-path="url(#clip690)" d="M2166.83 45.1919 L2166.83 72.576 L2159.37 72.576 L2159.37 45.4349 Q2159.37 38.994 2156.86 35.7938 Q2154.35 32.5936 2149.33 32.5936 Q2143.29 32.5936 2139.81 36.4419 Q2136.32 40.2903 2136.32 46.9338 L2136.32 72.576 L2128.83 72.576 L2128.83 27.2059 L2136.32 27.2059 L2136.32 34.2544 Q2139 30.163 2142.6 28.1376 Q2146.25 26.1121 2150.99 26.1121 Q2158.81 26.1121 2162.82 30.9732 Q2166.83 35.7938 2166.83 45.1919 Z" fill="#000000" fill-rule="nonzero" fill-opacity="1" /><polyline clip-path="url(#clip692)" style="stroke:#009af9; stroke-linecap:round; stroke-linejoin:round; stroke-width:4; stroke-opacity:1; fill:none" points="311.942,183.718 532.094,336.379 752.247,446.3 972.399,485.138 1192.55,550.477 1412.7,668.613 1632.86,704.153 1853.01,793.387 2073.16,838.736 2293.31,919.965 "/>
<path clip-path="url(#clip692)" d="M311.942 199.718 L300.63 195.03 L295.942 183.718 L300.63 172.406 L311.942 167.718 L323.254 172.406 L327.942 183.718 L323.254 195.03 Z" fill="#009af9" fill-rule="evenodd" fill-opacity="1" stroke="#000000" stroke-opacity="1" stroke-width="3.2"/>
<path clip-path="url(#clip692)" d="M532.094 352.379 L520.782 347.691 L516.094 336.379 L520.782 325.067 L532.094 320.379 L543.406 325.067 L548.094 336.379 L543.406 347.691 Z" fill="#009af9" fill-rule="evenodd" fill-opacity="1" stroke="#000000" stroke-opacity="1" stroke-width="3.2"/>
<path clip-path="url(#clip692)" d="M752.247 462.3 L740.935 457.612 L736.247 446.3 L740.935 434.988 L752.247 430.3 L763.559 434.988 L768.247 446.3 L763.559 457.612 Z" fill="#009af9" fill-rule="evenodd" fill-opacity="1" stroke="#000000" stroke-opacity="1" stroke-width="3.2"/>
<path clip-path="url(#clip692)" d="M972.399 501.138 L961.087 496.45 L956.399 485.138 L961.087 473.826 L972.399 469.138 L983.711 473.826 L988.399 485.138 L983.711 496.45 Z" fill="#009af9" fill-rule="evenodd" fill-opacity="1" stroke="#000000" stroke-opacity="1" stroke-width="3.2"/>
<path clip-path="url(#clip692)" d="M1192.55 566.477 L1181.24 561.789 L1176.55 550.477 L1181.24 539.165 L1192.55 534.477 L1203.86 539.165 L1208.55 550.477 L1203.86 561.789 Z" fill="#009af9" fill-rule="evenodd" fill-opacity="1" stroke="#000000" stroke-opacity="1" stroke-width="3.2"/>
<path clip-path="url(#clip692)" d="M1412.7 684.613 L1401.39 679.925 L1396.7 668.613 L1401.39 657.301 L1412.7 652.613 L1424.02 657.301 L1428.7 668.613 L1424.02 679.925 Z" fill="#009af9" fill-rule="evenodd" fill-opacity="1" stroke="#000000" stroke-opacity="1" stroke-width="3.2"/>
<path clip-path="url(#clip692)" d="M1632.86 720.153 L1621.55 715.465 L1616.86 704.153 L1621.55 692.841 L1632.86 688.153 L1644.17 692.841 L1648.86 704.153 L1644.17 715.465 Z" fill="#009af9" fill-rule="evenodd" fill-opacity="1" stroke="#000000" stroke-opacity="1" stroke-width="3.2"/>
<path clip-path="url(#clip692)" d="M1853.01 809.387 L1841.7 804.699 L1837.01 793.387 L1841.7 782.075 L1853.01 777.387 L1864.32 782.075 L1869.01 793.387 L1864.32 804.699 Z" fill="#009af9" fill-rule="evenodd" fill-opacity="1" stroke="#000000" stroke-opacity="1" stroke-width="3.2"/>
<path clip-path="url(#clip692)" d="M2073.16 854.736 L2061.85 850.048 L2057.16 838.736 L2061.85 827.424 L2073.16 822.736 L2084.47 827.424 L2089.16 838.736 L2084.47 850.048 Z" fill="#009af9" fill-rule="evenodd" fill-opacity="1" stroke="#000000" stroke-opacity="1" stroke-width="3.2"/>
<path clip-path="url(#clip692)" d="M2293.31 935.965 L2282 931.277 L2277.31 919.965 L2282 908.653 L2293.31 903.965 L2304.63 908.653 L2309.31 919.965 L2304.63 931.277 Z" fill="#009af9" fill-rule="evenodd" fill-opacity="1" stroke="#000000" stroke-opacity="1" stroke-width="3.2"/>
<polyline clip-path="url(#clip692)" style="stroke:#e26f46; stroke-linecap:round; stroke-linejoin:round; stroke-width:4; stroke-opacity:1; fill:none" points="311.942,171.318 532.094,305.094 752.247,339.372 972.399,338.486 1192.55,439.136 1412.7,476.707 1632.86,507.591 1853.01,513.69 2073.16,521.923 2293.31,562.54 "/>
<path clip-path="url(#clip692)" d="M311.942 187.318 L300.63 182.63 L295.942 171.318 L300.63 160.006 L311.942 155.318 L323.254 160.006 L327.942 171.318 L323.254 182.63 Z" fill="#e26f46" fill-rule="evenodd" fill-opacity="1" stroke="#000000" stroke-opacity="1" stroke-width="3.2"/>
<path clip-path="url(#clip692)" d="M532.094 321.094 L520.782 316.406 L516.094 305.094 L520.782 293.782 L532.094 289.094 L543.406 293.782 L548.094 305.094 L543.406 316.406 Z" fill="#e26f46" fill-rule="evenodd" fill-opacity="1" stroke="#000000" stroke-opacity="1" stroke-width="3.2"/>
<path clip-path="url(#clip692)" d="M752.247 355.372 L740.935 350.684 L736.247 339.372 L740.935 328.06 L752.247 323.372 L763.559 328.06 L768.247 339.372 L763.559 350.684 Z" fill="#e26f46" fill-rule="evenodd" fill-opacity="1" stroke="#000000" stroke-opacity="1" stroke-width="3.2"/>
<path clip-path="url(#clip692)" d="M972.399 354.486 L961.087 349.798 L956.399 338.486 L961.087 327.174 L972.399 322.486 L983.711 327.174 L988.399 338.486 L983.711 349.798 Z" fill="#e26f46" fill-rule="evenodd" fill-opacity="1" stroke="#000000" stroke-opacity="1" stroke-width="3.2"/>
<path clip-path="url(#clip692)" d="M1192.55 455.136 L1181.24 450.448 L1176.55 439.136 L1181.24 427.824 L1192.55 423.136 L1203.86 427.824 L1208.55 439.136 L1203.86 450.448 Z" fill="#e26f46" fill-rule="evenodd" fill-opacity="1" stroke="#000000" stroke-opacity="1" stroke-width="3.2"/>
<path clip-path="url(#clip692)" d="M1412.7 492.707 L1401.39 488.019 L1396.7 476.707 L1401.39 465.395 L1412.7 460.707 L1424.02 465.395 L1428.7 476.707 L1424.02 488.019 Z" fill="#e26f46" fill-rule="evenodd" fill-opacity="1" stroke="#000000" stroke-opacity="1" stroke-width="3.2"/>
<path clip-path="url(#clip692)" d="M1632.86 523.591 L1621.55 518.903 L1616.86 507.591 L1621.55 496.279 L1632.86 491.591 L1644.17 496.279 L1648.86 507.591 L1644.17 518.903 Z" fill="#e26f46" fill-rule="evenodd" fill-opacity="1" stroke="#000000" stroke-opacity="1" stroke-width="3.2"/>
<path clip-path="url(#clip692)" d="M1853.01 529.69 L1841.7 525.002 L1837.01 513.69 L1841.7 502.378 L1853.01 497.69 L1864.32 502.378 L1869.01 513.69 L1864.32 525.002 Z" fill="#e26f46" fill-rule="evenodd" fill-opacity="1" stroke="#000000" stroke-opacity="1" stroke-width="3.2"/>
<path clip-path="url(#clip692)" d="M2073.16 537.923 L2061.85 533.235 L2057.16 521.923 L2061.85 510.611 L2073.16 505.923 L2084.47 510.611 L2089.16 521.923 L2084.47 533.235 Z" fill="#e26f46" fill-rule="evenodd" fill-opacity="1" stroke="#000000" stroke-opacity="1" stroke-width="3.2"/>
<path clip-path="url(#clip692)" d="M2293.31 578.54 L2282 573.852 L2277.31 562.54 L2282 551.228 L2293.31 546.54 L2304.63 551.228 L2309.31 562.54 L2304.63 573.852 Z" fill="#e26f46" fill-rule="evenodd" fill-opacity="1" stroke="#000000" stroke-opacity="1" stroke-width="3.2"/>
<polyline clip-path="url(#clip692)" style="stroke:#3da44d; stroke-linecap:round; stroke-linejoin:round; stroke-width:4; stroke-opacity:1; fill:none" points="311.942,231.292 532.094,403.199 752.247,489.226 972.399,575.158 1192.55,636.842 1412.7,631.79 1632.86,694.294 1853.01,756.717 2073.16,767.332 2293.31,758.86 "/>
<path clip-path="url(#clip692)" d="M311.942 247.292 L300.63 242.604 L295.942 231.292 L300.63 219.98 L311.942 215.292 L323.254 219.98 L327.942 231.292 L323.254 242.604 Z" fill="#3da44d" fill-rule="evenodd" fill-opacity="1" stroke="#000000" stroke-opacity="1" stroke-width="3.2"/>
<path clip-path="url(#clip692)" d="M532.094 419.199 L520.782 414.511 L516.094 403.199 L520.782 391.887 L532.094 387.199 L543.406 391.887 L548.094 403.199 L543.406 414.511 Z" fill="#3da44d" fill-rule="evenodd" fill-opacity="1" stroke="#000000" stroke-opacity="1" stroke-width="3.2"/>
<path clip-path="url(#clip692)" d="M752.247 505.226 L740.935 500.538 L736.247 489.226 L740.935 477.914 L752.247 473.226 L763.559 477.914 L768.247 489.226 L763.559 500.538 Z" fill="#3da44d" fill-rule="evenodd" fill-opacity="1" stroke="#000000" stroke-opacity="1" stroke-width="3.2"/>
<path clip-path="url(#clip692)" d="M972.399 591.158 L961.087 586.47 L956.399 575.158 L961.087 563.846 L972.399 559.158 L983.711 563.846 L988.399 575.158 L983.711 586.47 Z" fill="#3da44d" fill-rule="evenodd" fill-opacity="1" stroke="#000000" stroke-opacity="1" stroke-width="3.2"/>
<path clip-path="url(#clip692)" d="M1192.55 652.842 L1181.24 648.154 L1176.55 636.842 L1181.24 625.53 L1192.55 620.842 L1203.86 625.53 L1208.55 636.842 L1203.86 648.154 Z" fill="#3da44d" fill-rule="evenodd" fill-opacity="1" stroke="#000000" stroke-opacity="1" stroke-width="3.2"/>
<path clip-path="url(#clip692)" d="M1412.7 647.79 L1401.39 643.102 L1396.7 631.79 L1401.39 620.478 L1412.7 615.79 L1424.02 620.478 L1428.7 631.79 L1424.02 643.102 Z" fill="#3da44d" fill-rule="evenodd" fill-opacity="1" stroke="#000000" stroke-opacity="1" stroke-width="3.2"/>
<path clip-path="url(#clip692)" d="M1632.86 710.294 L1621.55 705.606 L1616.86 694.294 L1621.55 682.982 L1632.86 678.294 L1644.17 682.982 L1648.86 694.294 L1644.17 705.606 Z" fill="#3da44d" fill-rule="evenodd" fill-opacity="1" stroke="#000000" stroke-opacity="1" stroke-width="3.2"/>
<path clip-path="url(#clip692)" d="M1853.01 772.717 L1841.7 768.029 L1837.01 756.717 L1841.7 745.405 L1853.01 740.717 L1864.32 745.405 L1869.01 756.717 L1864.32 768.029 Z" fill="#3da44d" fill-rule="evenodd" fill-opacity="1" stroke="#000000" stroke-opacity="1" stroke-width="3.2"/>
<path clip-path="url(#clip692)" d="M2073.16 783.332 L2061.85 778.644 L2057.16 767.332 L2061.85 756.02 L2073.16 751.332 L2084.47 756.02 L2089.16 767.332 L2084.47 778.644 Z" fill="#3da44d" fill-rule="evenodd" fill-opacity="1" stroke="#000000" stroke-opacity="1" stroke-width="3.2"/>
<path clip-path="url(#clip692)" d="M2293.31 774.86 L2282 770.172 L2277.31 758.86 L2282 747.548 L2293.31 742.86 L2304.63 747.548 L2309.31 758.86 L2304.63 770.172 Z" fill="#3da44d" fill-rule="evenodd" fill-opacity="1" stroke="#000000" stroke-opacity="1" stroke-width="3.2"/>
<polyline clip-path="url(#clip692)" style="stroke:#c271d2; stroke-linecap:round; stroke-linejoin:round; stroke-width:4; stroke-opacity:1; fill:none" points="311.942,216.829 532.094,394.326 752.247,501.277 972.399,551.472 1192.55,567.846 1412.7,649.108 1632.86,687.057 1853.01,723.278 2073.16,731.089 2293.31,730.773 "/>
<path clip-path="url(#clip692)" d="M311.942 232.829 L300.63 228.141 L295.942 216.829 L300.63 205.517 L311.942 200.829 L323.254 205.517 L327.942 216.829 L323.254 228.141 Z" fill="#c271d2" fill-rule="evenodd" fill-opacity="1" stroke="#000000" stroke-opacity="1" stroke-width="3.2"/>
<path clip-path="url(#clip692)" d="M532.094 410.326 L520.782 405.638 L516.094 394.326 L520.782 383.014 L532.094 378.326 L543.406 383.014 L548.094 394.326 L543.406 405.638 Z" fill="#c271d2" fill-rule="evenodd" fill-opacity="1" stroke="#000000" stroke-opacity="1" stroke-width="3.2"/>
<path clip-path="url(#clip692)" d="M752.247 517.277 L740.935 512.589 L736.247 501.277 L740.935 489.965 L752.247 485.277 L763.559 489.965 L768.247 501.277 L763.559 512.589 Z" fill="#c271d2" fill-rule="evenodd" fill-opacity="1" stroke="#000000" stroke-opacity="1" stroke-width="3.2"/>
<path clip-path="url(#clip692)" d="M972.399 567.472 L961.087 562.784 L956.399 551.472 L961.087 540.16 L972.399 535.472 L983.711 540.16 L988.399 551.472 L983.711 562.784 Z" fill="#c271d2" fill-rule="evenodd" fill-opacity="1" stroke="#000000" stroke-opacity="1" stroke-width="3.2"/>
<path clip-path="url(#clip692)" d="M1192.55 583.846 L1181.24 579.158 L1176.55 567.846 L1181.24 556.534 L1192.55 551.846 L1203.86 556.534 L1208.55 567.846 L1203.86 579.158 Z" fill="#c271d2" fill-rule="evenodd" fill-opacity="1" stroke="#000000" stroke-opacity="1" stroke-width="3.2"/>
<path clip-path="url(#clip692)" d="M1412.7 665.108 L1401.39 660.42 L1396.7 649.108 L1401.39 637.796 L1412.7 633.108 L1424.02 637.796 L1428.7 649.108 L1424.02 660.42 Z" fill="#c271d2" fill-rule="evenodd" fill-opacity="1" stroke="#000000" stroke-opacity="1" stroke-width="3.2"/>
<path clip-path="url(#clip692)" d="M1632.86 703.057 L1621.55 698.369 L1616.86 687.057 L1621.55 675.745 L1632.86 671.057 L1644.17 675.745 L1648.86 687.057 L1644.17 698.369 Z" fill="#c271d2" fill-rule="evenodd" fill-opacity="1" stroke="#000000" stroke-opacity="1" stroke-width="3.2"/>
<path clip-path="url(#clip692)" d="M1853.01 739.278 L1841.7 734.59 L1837.01 723.278 L1841.7 711.966 L1853.01 707.278 L1864.32 711.966 L1869.01 723.278 L1864.32 734.59 Z" fill="#c271d2" fill-rule="evenodd" fill-opacity="1" stroke="#000000" stroke-opacity="1" stroke-width="3.2"/>
<path clip-path="url(#clip692)" d="M2073.16 747.089 L2061.85 742.401 L2057.16 731.089 L2061.85 719.777 L2073.16 715.089 L2084.47 719.777 L2089.16 731.089 L2084.47 742.401 Z" fill="#c271d2" fill-rule="evenodd" fill-opacity="1" stroke="#000000" stroke-opacity="1" stroke-width="3.2"/>
<path clip-path="url(#clip692)" d="M2293.31 746.773 L2282 742.085 L2277.31 730.773 L2282 719.461 L2293.31 714.773 L2304.63 719.461 L2309.31 730.773 L2304.63 742.085 Z" fill="#c271d2" fill-rule="evenodd" fill-opacity="1" stroke="#000000" stroke-opacity="1" stroke-width="3.2"/>
<polyline clip-path="url(#clip692)" style="stroke:#ac8d18; stroke-linecap:round; stroke-linejoin:round; stroke-width:4; stroke-opacity:1; fill:none" points="311.942,160.256 532.094,354.715 752.247,478.86 972.399,636.379 1192.55,796.23 1412.7,940.287 1632.86,1008.07 1853.01,1139.73 2073.16,1256.94 2293.31,1386.4 "/>
<path clip-path="url(#clip692)" d="M311.942 176.256 L300.63 171.568 L295.942 160.256 L300.63 148.944 L311.942 144.256 L323.254 148.944 L327.942 160.256 L323.254 171.568 Z" fill="#ac8d18" fill-rule="evenodd" fill-opacity="1" stroke="#000000" stroke-opacity="1" stroke-width="3.2"/>
<path clip-path="url(#clip692)" d="M532.094 370.715 L520.782 366.027 L516.094 354.715 L520.782 343.403 L532.094 338.715 L543.406 343.403 L548.094 354.715 L543.406 366.027 Z" fill="#ac8d18" fill-rule="evenodd" fill-opacity="1" stroke="#000000" stroke-opacity="1" stroke-width="3.2"/>
<path clip-path="url(#clip692)" d="M752.247 494.86 L740.935 490.172 L736.247 478.86 L740.935 467.548 L752.247 462.86 L763.559 467.548 L768.247 478.86 L763.559 490.172 Z" fill="#ac8d18" fill-rule="evenodd" fill-opacity="1" stroke="#000000" stroke-opacity="1" stroke-width="3.2"/>
<path clip-path="url(#clip692)" d="M972.399 652.379 L961.087 647.691 L956.399 636.379 L961.087 625.067 L972.399 620.379 L983.711 625.067 L988.399 636.379 L983.711 647.691 Z" fill="#ac8d18" fill-rule="evenodd" fill-opacity="1" stroke="#000000" stroke-opacity="1" stroke-width="3.2"/>
<path clip-path="url(#clip692)" d="M1192.55 812.23 L1181.24 807.542 L1176.55 796.23 L1181.24 784.918 L1192.55 780.23 L1203.86 784.918 L1208.55 796.23 L1203.86 807.542 Z" fill="#ac8d18" fill-rule="evenodd" fill-opacity="1" stroke="#000000" stroke-opacity="1" stroke-width="3.2"/>
<path clip-path="url(#clip692)" d="M1412.7 956.287 L1401.39 951.599 L1396.7 940.287 L1401.39 928.975 L1412.7 924.287 L1424.02 928.975 L1428.7 940.287 L1424.02 951.599 Z" fill="#ac8d18" fill-rule="evenodd" fill-opacity="1" stroke="#000000" stroke-opacity="1" stroke-width="3.2"/>
<path clip-path="url(#clip692)" d="M1632.86 1024.07 L1621.55 1019.38 L1616.86 1008.07 L1621.55 996.761 L1632.86 992.073 L1644.17 996.761 L1648.86 1008.07 L1644.17 1019.38 Z" fill="#ac8d18" fill-rule="evenodd" fill-opacity="1" stroke="#000000" stroke-opacity="1" stroke-width="3.2"/>
<path clip-path="url(#clip692)" d="M1853.01 1155.73 L1841.7 1151.04 L1837.01 1139.73 L1841.7 1128.42 L1853.01 1123.73 L1864.32 1128.42 L1869.01 1139.73 L1864.32 1151.04 Z" fill="#ac8d18" fill-rule="evenodd" fill-opacity="1" stroke="#000000" stroke-opacity="1" stroke-width="3.2"/>
<path clip-path="url(#clip692)" d="M2073.16 1272.94 L2061.85 1268.25 L2057.16 1256.94 L2061.85 1245.62 L2073.16 1240.94 L2084.47 1245.62 L2089.16 1256.94 L2084.47 1268.25 Z" fill="#ac8d18" fill-rule="evenodd" fill-opacity="1" stroke="#000000" stroke-opacity="1" stroke-width="3.2"/>
<path clip-path="url(#clip692)" d="M2293.31 1402.4 L2282 1397.71 L2277.31 1386.4 L2282 1375.08 L2293.31 1370.4 L2304.63 1375.08 L2309.31 1386.4 L2304.63 1397.71 Z" fill="#ac8d18" fill-rule="evenodd" fill-opacity="1" stroke="#000000" stroke-opacity="1" stroke-width="3.2"/>
<path clip-path="url(#clip690)" d="M1794.58 477.836 L2282.75 477.836 L2282.75 166.796 L1794.58 166.796  Z" fill="#ffffff" fill-rule="evenodd" fill-opacity="1"/>
<polyline clip-path="url(#clip690)" style="stroke:#000000; stroke-linecap:round; stroke-linejoin:round; stroke-width:4; stroke-opacity:1; fill:none" points="1794.58,477.836 2282.75,477.836 2282.75,166.796 1794.58,166.796 1794.58,477.836 "/>
<polyline clip-path="url(#clip690)" style="stroke:#009af9; stroke-linecap:round; stroke-linejoin:round; stroke-width:4; stroke-opacity:1; fill:none" points="1817.91,218.636 1957.93,218.636 "/>
<path clip-path="url(#clip690)" d="M1887.92 240.243 L1872.64 233.912 L1866.31 218.636 L1872.64 203.359 L1887.92 197.028 L1903.2 203.359 L1909.53 218.636 L1903.2 233.912 Z" fill="#009af9" fill-rule="evenodd" fill-opacity="1" stroke="#000000" stroke-opacity="1" stroke-width="4.55111"/>
<path clip-path="url(#clip690)" d="M1981.26 201.356 L2001.13 201.356 L2001.13 205.291 L1985.94 205.291 L1985.94 215.476 L1999.64 215.476 L1999.64 219.411 L1985.94 219.411 L1985.94 235.916 L1981.26 235.916 L1981.26 201.356 Z" fill="#000000" fill-rule="nonzero" fill-opacity="1" /><path clip-path="url(#clip690)" d="M2005.32 225.684 L2005.32 209.99 L2009.57 209.99 L2009.57 225.522 Q2009.57 229.203 2011.01 231.055 Q2012.44 232.883 2015.32 232.883 Q2018.76 232.883 2020.76 230.684 Q2022.77 228.485 2022.77 224.689 L2022.77 209.99 L2027.03 209.99 L2027.03 235.916 L2022.77 235.916 L2022.77 231.934 Q2021.22 234.295 2019.16 235.453 Q2017.12 236.587 2014.41 236.587 Q2009.94 236.587 2007.63 233.809 Q2005.32 231.031 2005.32 225.684 M2016.03 209.365 L2016.03 209.365 Z" fill="#000000" fill-rule="nonzero" fill-opacity="1" /><path clip-path="url(#clip690)" d="M2052.33 210.754 L2052.33 214.782 Q2050.52 213.856 2048.58 213.393 Q2046.63 212.93 2044.55 212.93 Q2041.38 212.93 2039.78 213.902 Q2038.21 214.874 2038.21 216.819 Q2038.21 218.3 2039.34 219.157 Q2040.48 219.99 2043.9 220.754 L2045.36 221.078 Q2049.9 222.05 2051.8 223.832 Q2053.72 225.592 2053.72 228.763 Q2053.72 232.374 2050.85 234.481 Q2048 236.587 2043 236.587 Q2040.92 236.587 2038.65 236.17 Q2036.4 235.777 2033.9 234.967 L2033.9 230.569 Q2036.26 231.795 2038.56 232.42 Q2040.85 233.022 2043.09 233.022 Q2046.1 233.022 2047.72 232.004 Q2049.34 230.962 2049.34 229.087 Q2049.34 227.351 2048.16 226.425 Q2047 225.499 2043.05 224.643 L2041.57 224.295 Q2037.61 223.462 2035.85 221.749 Q2034.09 220.013 2034.09 217.004 Q2034.09 213.346 2036.68 211.356 Q2039.27 209.365 2044.04 209.365 Q2046.4 209.365 2048.49 209.712 Q2050.57 210.059 2052.33 210.754 Z" fill="#000000" fill-rule="nonzero" fill-opacity="1" /><path clip-path="url(#clip690)" d="M2082.68 221.888 L2082.68 223.971 L2063.09 223.971 Q2063.37 228.369 2065.73 230.684 Q2068.12 232.976 2072.35 232.976 Q2074.81 232.976 2077.1 232.374 Q2079.41 231.772 2081.68 230.569 L2081.68 234.596 Q2079.39 235.568 2076.98 236.078 Q2074.57 236.587 2072.1 236.587 Q2065.89 236.587 2062.26 232.976 Q2058.65 229.365 2058.65 223.207 Q2058.65 216.842 2062.07 213.115 Q2065.52 209.365 2071.36 209.365 Q2076.59 209.365 2079.62 212.745 Q2082.68 216.101 2082.68 221.888 M2078.42 220.638 Q2078.37 217.143 2076.45 215.059 Q2074.55 212.976 2071.4 212.976 Q2067.84 212.976 2065.69 214.99 Q2063.56 217.004 2063.23 220.661 L2078.42 220.638 Z" fill="#000000" fill-rule="nonzero" fill-opacity="1" /><path clip-path="url(#clip690)" d="M2106.73 213.925 L2106.73 199.897 L2110.99 199.897 L2110.99 235.916 L2106.73 235.916 L2106.73 232.027 Q2105.38 234.342 2103.32 235.476 Q2101.29 236.587 2098.42 236.587 Q2093.72 236.587 2090.75 232.837 Q2087.81 229.087 2087.81 222.976 Q2087.81 216.865 2090.75 213.115 Q2093.72 209.365 2098.42 209.365 Q2101.29 209.365 2103.32 210.499 Q2105.38 211.61 2106.73 213.925 M2092.21 222.976 Q2092.21 227.675 2094.13 230.36 Q2096.08 233.022 2099.46 233.022 Q2102.84 233.022 2104.78 230.36 Q2106.73 227.675 2106.73 222.976 Q2106.73 218.277 2104.78 215.615 Q2102.84 212.93 2099.46 212.93 Q2096.08 212.93 2094.13 215.615 Q2092.21 218.277 2092.21 222.976 Z" fill="#000000" fill-rule="nonzero" fill-opacity="1" /><path clip-path="url(#clip690)" d="M2139.46 243.786 L2139.46 247.096 L2114.83 247.096 L2114.83 243.786 L2139.46 243.786 Z" fill="#000000" fill-rule="nonzero" fill-opacity="1" /><path clip-path="url(#clip690)" d="M2148.32 219.411 L2148.32 232.073 L2155.82 232.073 Q2159.6 232.073 2161.4 230.522 Q2163.23 228.948 2163.23 225.731 Q2163.23 222.49 2161.4 220.962 Q2159.6 219.411 2155.82 219.411 L2148.32 219.411 M2148.32 205.198 L2148.32 215.615 L2155.25 215.615 Q2158.67 215.615 2160.34 214.342 Q2162.03 213.045 2162.03 210.407 Q2162.03 207.791 2160.34 206.495 Q2158.67 205.198 2155.25 205.198 L2148.32 205.198 M2143.65 201.356 L2155.59 201.356 Q2160.94 201.356 2163.83 203.578 Q2166.73 205.8 2166.73 209.897 Q2166.73 213.069 2165.25 214.944 Q2163.76 216.819 2160.89 217.282 Q2164.34 218.022 2166.24 220.383 Q2168.16 222.721 2168.16 226.24 Q2168.16 230.869 2165.01 233.393 Q2161.87 235.916 2156.06 235.916 L2143.65 235.916 L2143.65 201.356 Z" fill="#000000" fill-rule="nonzero" fill-opacity="1" /><path clip-path="url(#clip690)" d="M2171.38 201.356 L2200.62 201.356 L2200.62 205.291 L2188.35 205.291 L2188.35 235.916 L2183.65 235.916 L2183.65 205.291 L2171.38 205.291 L2171.38 201.356 Z" fill="#000000" fill-rule="nonzero" fill-opacity="1" /><path clip-path="url(#clip690)" d="M2199.5 201.356 L2228.74 201.356 L2228.74 205.291 L2216.47 205.291 L2216.47 235.916 L2211.77 235.916 L2211.77 205.291 L2199.5 205.291 L2199.5 201.356 Z" fill="#000000" fill-rule="nonzero" fill-opacity="1" /><path clip-path="url(#clip690)" d="M2233.25 201.356 L2239.55 201.356 L2254.87 230.268 L2254.87 201.356 L2259.41 201.356 L2259.41 235.916 L2253.11 235.916 L2237.79 207.004 L2237.79 235.916 L2233.25 235.916 L2233.25 201.356 Z" fill="#000000" fill-rule="nonzero" fill-opacity="1" /><polyline clip-path="url(#clip690)" style="stroke:#e26f46; stroke-linecap:round; stroke-linejoin:round; stroke-width:4; stroke-opacity:1; fill:none" points="1817.91,270.476 1957.93,270.476 "/>
<path clip-path="url(#clip690)" d="M1887.92 292.083 L1872.64 285.752 L1866.31 270.476 L1872.64 255.199 L1887.92 248.868 L1903.2 255.199 L1909.53 270.476 L1903.2 285.752 Z" fill="#e26f46" fill-rule="evenodd" fill-opacity="1" stroke="#000000" stroke-opacity="1" stroke-width="4.55111"/>
<path clip-path="url(#clip690)" d="M1997.28 256.367 Q1992.19 256.367 1989.18 260.163 Q1986.2 263.96 1986.2 270.51 Q1986.2 277.038 1989.18 280.834 Q1992.19 284.631 1997.28 284.631 Q2002.38 284.631 2005.34 280.834 Q2008.32 277.038 2008.32 270.51 Q2008.32 263.96 2005.34 260.163 Q2002.38 256.367 1997.28 256.367 M2003.83 287.131 L2009.99 293.867 L2004.34 293.867 L1999.23 288.334 Q1998.46 288.381 1998.05 288.404 Q1997.65 288.427 1997.28 288.427 Q1989.99 288.427 1985.62 283.566 Q1981.26 278.682 1981.26 270.51 Q1981.26 262.316 1985.62 257.455 Q1989.99 252.571 1997.28 252.571 Q2004.55 252.571 2008.9 257.455 Q2013.26 262.316 2013.26 270.51 Q2013.26 276.529 2010.82 280.811 Q2008.42 285.094 2003.83 287.131 Z" fill="#000000" fill-rule="nonzero" fill-opacity="1" /><path clip-path="url(#clip690)" d="M2015.78 253.196 L2045.01 253.196 L2045.01 257.131 L2032.75 257.131 L2032.75 287.756 L2028.05 287.756 L2028.05 257.131 L2015.78 257.131 L2015.78 253.196 Z" fill="#000000" fill-rule="nonzero" fill-opacity="1" /><path clip-path="url(#clip690)" d="M2043.9 253.196 L2073.14 253.196 L2073.14 257.131 L2060.87 257.131 L2060.87 287.756 L2056.17 287.756 L2056.17 257.131 L2043.9 257.131 L2043.9 253.196 Z" fill="#000000" fill-rule="nonzero" fill-opacity="1" /><path clip-path="url(#clip690)" d="M2097.17 295.626 L2097.17 298.936 L2072.54 298.936 L2072.54 295.626 L2097.17 295.626 Z" fill="#000000" fill-rule="nonzero" fill-opacity="1" /><path clip-path="url(#clip690)" d="M2122.07 254.33 L2122.07 258.89 Q2119.41 257.617 2117.05 256.992 Q2114.69 256.367 2112.49 256.367 Q2108.67 256.367 2106.59 257.848 Q2104.53 259.33 2104.53 262.061 Q2104.53 264.353 2105.89 265.534 Q2107.28 266.691 2111.12 267.409 L2113.95 267.987 Q2119.18 268.983 2121.66 271.506 Q2124.16 274.006 2124.16 278.219 Q2124.16 283.242 2120.78 285.834 Q2117.42 288.427 2110.92 288.427 Q2108.46 288.427 2105.69 287.871 Q2102.93 287.316 2099.97 286.228 L2099.97 281.413 Q2102.81 283.01 2105.55 283.821 Q2108.28 284.631 2110.92 284.631 Q2114.92 284.631 2117.1 283.057 Q2119.27 281.483 2119.27 278.566 Q2119.27 276.02 2117.7 274.584 Q2116.15 273.149 2112.58 272.432 L2109.74 271.876 Q2104.5 270.835 2102.17 268.612 Q2099.83 266.39 2099.83 262.432 Q2099.83 257.848 2103.05 255.21 Q2106.29 252.571 2111.96 252.571 Q2114.39 252.571 2116.91 253.011 Q2119.44 253.45 2122.07 254.33 Z" fill="#000000" fill-rule="nonzero" fill-opacity="1" /><path clip-path="url(#clip690)" d="M2153.44 273.728 L2153.44 275.811 L2133.86 275.811 Q2134.13 280.209 2136.5 282.524 Q2138.88 284.816 2143.12 284.816 Q2145.57 284.816 2147.86 284.214 Q2150.18 283.612 2152.44 282.409 L2152.44 286.436 Q2150.15 287.408 2147.75 287.918 Q2145.34 288.427 2142.86 288.427 Q2136.66 288.427 2133.02 284.816 Q2129.41 281.205 2129.41 275.047 Q2129.41 268.682 2132.84 264.955 Q2136.29 261.205 2142.12 261.205 Q2147.35 261.205 2150.38 264.585 Q2153.44 267.941 2153.44 273.728 M2149.18 272.478 Q2149.13 268.983 2147.21 266.899 Q2145.31 264.816 2142.17 264.816 Q2138.6 264.816 2136.45 266.83 Q2134.32 268.844 2134 272.501 L2149.18 272.478 Z" fill="#000000" fill-rule="nonzero" fill-opacity="1" /><path clip-path="url(#clip690)" d="M2162.98 274.816 Q2162.98 279.515 2164.9 282.2 Q2166.84 284.862 2170.22 284.862 Q2173.6 284.862 2175.55 282.2 Q2177.49 279.515 2177.49 274.816 Q2177.49 270.117 2175.55 267.455 Q2173.6 264.77 2170.22 264.77 Q2166.84 264.77 2164.9 267.455 Q2162.98 270.117 2162.98 274.816 M2177.49 283.867 Q2176.15 286.182 2174.09 287.316 Q2172.05 288.427 2169.18 288.427 Q2164.48 288.427 2161.52 284.677 Q2158.58 280.927 2158.58 274.816 Q2158.58 268.705 2161.52 264.955 Q2164.48 261.205 2169.18 261.205 Q2172.05 261.205 2174.09 262.339 Q2176.15 263.45 2177.49 265.765 L2177.49 261.83 L2181.75 261.83 L2181.75 297.617 L2177.49 297.617 L2177.49 283.867 Z" fill="#000000" fill-rule="nonzero" fill-opacity="1" /><polyline clip-path="url(#clip690)" style="stroke:#3da44d; stroke-linecap:round; stroke-linejoin:round; stroke-width:4; stroke-opacity:1; fill:none" points="1817.91,322.316 1957.93,322.316 "/>
<path clip-path="url(#clip690)" d="M1887.92 343.923 L1872.64 337.592 L1866.31 322.316 L1872.64 307.039 L1887.92 300.708 L1903.2 307.039 L1909.53 322.316 L1903.2 337.592 Z" fill="#3da44d" fill-rule="evenodd" fill-opacity="1" stroke="#000000" stroke-opacity="1" stroke-width="4.55111"/>
<path clip-path="url(#clip690)" d="M1985.94 323.091 L1985.94 335.753 L1993.44 335.753 Q1997.21 335.753 1999.02 334.202 Q2000.85 332.628 2000.85 329.411 Q2000.85 326.17 1999.02 324.642 Q1997.21 323.091 1993.44 323.091 L1985.94 323.091 M1985.94 308.878 L1985.94 319.295 L1992.86 319.295 Q1996.29 319.295 1997.95 318.022 Q1999.64 316.725 1999.64 314.087 Q1999.64 311.471 1997.95 310.175 Q1996.29 308.878 1992.86 308.878 L1985.94 308.878 M1981.26 305.036 L1993.21 305.036 Q1998.56 305.036 2001.45 307.258 Q2004.34 309.48 2004.34 313.577 Q2004.34 316.749 2002.86 318.624 Q2001.38 320.499 1998.51 320.962 Q2001.96 321.702 2003.86 324.063 Q2005.78 326.401 2005.78 329.92 Q2005.78 334.549 2002.63 337.073 Q1999.48 339.596 1993.67 339.596 L1981.26 339.596 L1981.26 305.036 Z" fill="#000000" fill-rule="nonzero" fill-opacity="1" /><path clip-path="url(#clip690)" d="M2009 305.036 L2038.23 305.036 L2038.23 308.971 L2025.96 308.971 L2025.96 339.596 L2021.26 339.596 L2021.26 308.971 L2009 308.971 L2009 305.036 Z" fill="#000000" fill-rule="nonzero" fill-opacity="1" /><path clip-path="url(#clip690)" d="M2037.12 305.036 L2066.36 305.036 L2066.36 308.971 L2054.09 308.971 L2054.09 339.596 L2049.39 339.596 L2049.39 308.971 L2037.12 308.971 L2037.12 305.036 Z" fill="#000000" fill-rule="nonzero" fill-opacity="1" /><path clip-path="url(#clip690)" d="M2070.87 305.036 L2077.17 305.036 L2092.49 333.948 L2092.49 305.036 L2097.03 305.036 L2097.03 339.596 L2090.73 339.596 L2075.41 310.684 L2075.41 339.596 L2070.87 339.596 L2070.87 305.036 Z" fill="#000000" fill-rule="nonzero" fill-opacity="1" /><polyline clip-path="url(#clip690)" style="stroke:#c271d2; stroke-linecap:round; stroke-linejoin:round; stroke-width:4; stroke-opacity:1; fill:none" points="1817.91,374.156 1957.93,374.156 "/>
<path clip-path="url(#clip690)" d="M1887.92 395.763 L1872.64 389.432 L1866.31 374.156 L1872.64 358.879 L1887.92 352.548 L1903.2 358.879 L1909.53 374.156 L1903.2 389.432 Z" fill="#c271d2" fill-rule="evenodd" fill-opacity="1" stroke="#000000" stroke-opacity="1" stroke-width="4.55111"/>
<path clip-path="url(#clip690)" d="M2009.13 359.538 L2009.13 364.468 Q2006.77 362.269 2004.09 361.181 Q2001.43 360.093 1998.42 360.093 Q1992.49 360.093 1989.34 363.728 Q1986.2 367.339 1986.2 374.19 Q1986.2 381.019 1989.34 384.653 Q1992.49 388.264 1998.42 388.264 Q2001.43 388.264 2004.09 387.176 Q2006.77 386.089 2009.13 383.889 L2009.13 388.774 Q2006.68 390.44 2003.93 391.274 Q2001.2 392.107 1998.14 392.107 Q1990.29 392.107 1985.78 387.315 Q1981.26 382.501 1981.26 374.19 Q1981.26 365.857 1985.78 361.066 Q1990.29 356.251 1998.14 356.251 Q2001.24 356.251 2003.97 357.084 Q2006.73 357.894 2009.13 359.538 Z" fill="#000000" fill-rule="nonzero" fill-opacity="1" /><path clip-path="url(#clip690)" d="M2011.57 356.876 L2040.8 356.876 L2040.8 360.811 L2028.53 360.811 L2028.53 391.436 L2023.83 391.436 L2023.83 360.811 L2011.57 360.811 L2011.57 356.876 Z" fill="#000000" fill-rule="nonzero" fill-opacity="1" /><path clip-path="url(#clip690)" d="M2039.69 356.876 L2068.93 356.876 L2068.93 360.811 L2056.66 360.811 L2056.66 391.436 L2051.96 391.436 L2051.96 360.811 L2039.69 360.811 L2039.69 356.876 Z" fill="#000000" fill-rule="nonzero" fill-opacity="1" /><path clip-path="url(#clip690)" d="M2073.44 356.876 L2079.74 356.876 L2095.06 385.788 L2095.06 356.876 L2099.6 356.876 L2099.6 391.436 L2093.3 391.436 L2077.98 362.524 L2077.98 391.436 L2073.44 391.436 L2073.44 356.876 Z" fill="#000000" fill-rule="nonzero" fill-opacity="1" /><polyline clip-path="url(#clip690)" style="stroke:#ac8d18; stroke-linecap:round; stroke-linejoin:round; stroke-width:4; stroke-opacity:1; fill:none" points="1817.91,425.996 1957.93,425.996 "/>
<path clip-path="url(#clip690)" d="M1887.92 447.603 L1872.64 441.272 L1866.31 425.996 L1872.64 410.719 L1887.92 404.388 L1903.2 410.719 L1909.53 425.996 L1903.2 441.272 Z" fill="#ac8d18" fill-rule="evenodd" fill-opacity="1" stroke="#000000" stroke-opacity="1" stroke-width="4.55111"/>
<path clip-path="url(#clip690)" d="M1997.28 411.887 Q1992.19 411.887 1989.18 415.683 Q1986.2 419.48 1986.2 426.03 Q1986.2 432.558 1989.18 436.354 Q1992.19 440.151 1997.28 440.151 Q2002.38 440.151 2005.34 436.354 Q2008.32 432.558 2008.32 426.03 Q2008.32 419.48 2005.34 415.683 Q2002.38 411.887 1997.28 411.887 M2003.83 442.651 L2009.99 449.387 L2004.34 449.387 L1999.23 443.854 Q1998.46 443.901 1998.05 443.924 Q1997.65 443.947 1997.28 443.947 Q1989.99 443.947 1985.62 439.086 Q1981.26 434.202 1981.26 426.03 Q1981.26 417.836 1985.62 412.975 Q1989.99 408.091 1997.28 408.091 Q2004.55 408.091 2008.9 412.975 Q2013.26 417.836 2013.26 426.03 Q2013.26 432.049 2010.82 436.331 Q2008.42 440.614 2003.83 442.651 Z" fill="#000000" fill-rule="nonzero" fill-opacity="1" /><path clip-path="url(#clip690)" d="M2015.78 408.716 L2045.01 408.716 L2045.01 412.651 L2032.75 412.651 L2032.75 443.276 L2028.05 443.276 L2028.05 412.651 L2015.78 412.651 L2015.78 408.716 Z" fill="#000000" fill-rule="nonzero" fill-opacity="1" /><path clip-path="url(#clip690)" d="M2043.9 408.716 L2073.14 408.716 L2073.14 412.651 L2060.87 412.651 L2060.87 443.276 L2056.17 443.276 L2056.17 412.651 L2043.9 412.651 L2043.9 408.716 Z" fill="#000000" fill-rule="nonzero" fill-opacity="1" /><path clip-path="url(#clip690)" d="M2097.17 451.146 L2097.17 454.456 L2072.54 454.456 L2072.54 451.146 L2097.17 451.146 Z" fill="#000000" fill-rule="nonzero" fill-opacity="1" /><path clip-path="url(#clip690)" d="M2101.36 408.716 L2106.03 408.716 L2106.03 443.276 L2101.36 443.276 L2101.36 408.716 Z" fill="#000000" fill-rule="nonzero" fill-opacity="1" /><path clip-path="url(#clip690)" d="M2136.7 427.628 L2136.7 443.276 L2132.44 443.276 L2132.44 427.767 Q2132.44 424.086 2131.01 422.257 Q2129.57 420.429 2126.7 420.429 Q2123.25 420.429 2121.26 422.628 Q2119.27 424.827 2119.27 428.623 L2119.27 443.276 L2114.99 443.276 L2114.99 417.35 L2119.27 417.35 L2119.27 421.378 Q2120.8 419.04 2122.86 417.882 Q2124.94 416.725 2127.65 416.725 Q2132.12 416.725 2134.41 419.503 Q2136.7 422.257 2136.7 427.628 Z" fill="#000000" fill-rule="nonzero" fill-opacity="1" /><path clip-path="url(#clip690)" d="M2149.41 409.989 L2149.41 417.35 L2158.18 417.35 L2158.18 420.66 L2149.41 420.66 L2149.41 434.734 Q2149.41 437.905 2150.27 438.808 Q2151.15 439.711 2153.81 439.711 L2158.18 439.711 L2158.18 443.276 L2153.81 443.276 Q2148.88 443.276 2147 441.447 Q2145.13 439.595 2145.13 434.734 L2145.13 420.66 L2142 420.66 L2142 417.35 L2145.13 417.35 L2145.13 409.989 L2149.41 409.989 Z" fill="#000000" fill-rule="nonzero" fill-opacity="1" /></svg>
