<?xml version="1.0" encoding="utf-8"?>
<svg xmlns="http://www.w3.org/2000/svg" xmlns:xlink="http://www.w3.org/1999/xlink" width="600" height="400" viewBox="0 0 2400 1600">
<defs>
  <clipPath id="clip120">
    <rect x="0" y="0" width="2400" height="1600"/>
  </clipPath>
</defs>
<path clip-path="url(#clip120)" d="M0 1600 L2400 1600 L2400 8.88178e-14 L0 8.88178e-14  Z" fill="#ffffff" fill-rule="evenodd" fill-opacity="1"/>
<defs>
  <clipPath id="clip121">
    <rect x="480" y="0" width="1681" height="1600"/>
  </clipPath>
</defs>
<path clip-path="url(#clip120)" d="M276.876 1423.18 L2352.76 1423.18 L2352.76 123.472 L276.876 123.472  Z" fill="#ffffff" fill-rule="evenodd" fill-opacity="1"/>
<defs>
  <clipPath id="clip122">
    <rect x="276" y="123" width="2077" height="1301"/>
  </clipPath>
</defs>
<polyline clip-path="url(#clip122)" style="stroke:#000000; stroke-linecap:round; stroke-linejoin:round; stroke-width:2; stroke-opacity:0.1; fill:none" points="480.692,1423.18 480.692,123.472 "/>
<polyline clip-path="url(#clip122)" style="stroke:#000000; stroke-linecap:round; stroke-linejoin:round; stroke-width:2; stroke-opacity:0.1; fill:none" points="843.354,1423.18 843.354,123.472 "/>
<polyline clip-path="url(#clip122)" style="stroke:#000000; stroke-linecap:round; stroke-linejoin:round; stroke-width:2; stroke-opacity:0.1; fill:none" points="1206.02,1423.18 1206.02,123.472 "/>
<polyline clip-path="url(#clip122)" style="stroke:#000000; stroke-linecap:round; stroke-linejoin:round; stroke-width:2; stroke-opacity:0.1; fill:none" points="1568.68,1423.18 1568.68,123.472 "/>
<polyline clip-path="url(#clip122)" style="stroke:#000000; stroke-linecap:round; stroke-linejoin:round; stroke-width:2; stroke-opacity:0.1; fill:none" points="1931.34,1423.18 1931.34,123.472 "/>
<polyline clip-path="url(#clip122)" style="stroke:#000000; stroke-linecap:round; stroke-linejoin:round; stroke-width:2; stroke-opacity:0.1; fill:none" points="2294,1423.18 2294,123.472 "/>
<polyline clip-path="url(#clip122)" style="stroke:#000000; stroke-linecap:round; stroke-linejoin:round; stroke-width:2; stroke-opacity:0.1; fill:none" points="276.876,1083.18 2352.76,1083.18 "/>
<polyline clip-path="url(#clip122)" style="stroke:#000000; stroke-linecap:round; stroke-linejoin:round; stroke-width:2; stroke-opacity:0.1; fill:none" points="276.876,637.669 2352.76,637.669 "/>
<polyline clip-path="url(#clip122)" style="stroke:#000000; stroke-linecap:round; stroke-linejoin:round; stroke-width:2; stroke-opacity:0.1; fill:none" points="276.876,192.157 2352.76,192.157 "/>
<polyline clip-path="url(#clip120)" style="stroke:#000000; stroke-linecap:round; stroke-linejoin:round; stroke-width:4; stroke-opacity:1; fill:none" points="276.876,1423.18 2352.76,1423.18 "/>
<polyline clip-path="url(#clip120)" style="stroke:#000000; stroke-linecap:round; stroke-linejoin:round; stroke-width:4; stroke-opacity:1; fill:none" points="480.692,1423.18 480.692,1404.28 "/>
<polyline clip-path="url(#clip120)" style="stroke:#000000; stroke-linecap:round; stroke-linejoin:round; stroke-width:4; stroke-opacity:1; fill:none" points="843.354,1423.18 843.354,1404.28 "/>
<polyline clip-path="url(#clip120)" style="stroke:#000000; stroke-linecap:round; stroke-linejoin:round; stroke-width:4; stroke-opacity:1; fill:none" points="1206.02,1423.18 1206.02,1404.28 "/>
<polyline clip-path="url(#clip120)" style="stroke:#000000; stroke-linecap:round; stroke-linejoin:round; stroke-width:4; stroke-opacity:1; fill:none" points="1568.68,1423.18 1568.68,1404.28 "/>
<polyline clip-path="url(#clip120)" style="stroke:#000000; stroke-linecap:round; stroke-linejoin:round; stroke-width:4; stroke-opacity:1; fill:none" points="1931.34,1423.18 1931.34,1404.28 "/>
<polyline clip-path="url(#clip120)" style="stroke:#000000; stroke-linecap:round; stroke-linejoin:round; stroke-width:4; stroke-opacity:1; fill:none" points="2294,1423.18 2294,1404.28 "/>
<path clip-path="url(#clip120)" d="M470.97 1451.02 L489.326 1451.02 L489.326 1454.96 L475.252 1454.96 L475.252 1463.43 Q476.271 1463.08 477.289 1462.92 Q478.308 1462.73 479.326 1462.73 Q485.113 1462.73 488.493 1465.9 Q491.872 1469.08 491.872 1474.49 Q491.872 1480.07 488.4 1483.17 Q484.928 1486.25 478.609 1486.25 Q476.433 1486.25 474.164 1485.88 Q471.919 1485.51 469.511 1484.77 L469.511 1480.07 Q471.595 1481.2 473.817 1481.76 Q476.039 1482.32 478.516 1482.32 Q482.521 1482.32 484.859 1480.21 Q487.196 1478.1 487.196 1474.49 Q487.196 1470.88 484.859 1468.77 Q482.521 1466.67 478.516 1466.67 Q476.641 1466.67 474.766 1467.08 Q472.914 1467.5 470.97 1468.38 L470.97 1451.02 Z" fill="#000000" fill-rule="nonzero" fill-opacity="1" /><path clip-path="url(#clip120)" d="M818.042 1481.64 L825.681 1481.64 L825.681 1455.28 L817.371 1456.95 L817.371 1452.69 L825.635 1451.02 L830.31 1451.02 L830.31 1481.64 L837.949 1481.64 L837.949 1485.58 L818.042 1485.58 L818.042 1481.64 Z" fill="#000000" fill-rule="nonzero" fill-opacity="1" /><path clip-path="url(#clip120)" d="M857.394 1454.1 Q853.783 1454.1 851.954 1457.66 Q850.148 1461.2 850.148 1468.33 Q850.148 1475.44 851.954 1479.01 Q853.783 1482.55 857.394 1482.55 Q861.028 1482.55 862.833 1479.01 Q864.662 1475.44 864.662 1468.33 Q864.662 1461.2 862.833 1457.66 Q861.028 1454.1 857.394 1454.1 M857.394 1450.39 Q863.204 1450.39 866.259 1455 Q869.338 1459.58 869.338 1468.33 Q869.338 1477.06 866.259 1481.67 Q863.204 1486.25 857.394 1486.25 Q851.584 1486.25 848.505 1481.67 Q845.449 1477.06 845.449 1468.33 Q845.449 1459.58 848.505 1455 Q851.584 1450.39 857.394 1450.39 Z" fill="#000000" fill-rule="nonzero" fill-opacity="1" /><path clip-path="url(#clip120)" d="M1181.2 1481.64 L1188.84 1481.64 L1188.84 1455.28 L1180.53 1456.95 L1180.53 1452.69 L1188.79 1451.02 L1193.47 1451.02 L1193.47 1481.64 L1201.11 1481.64 L1201.11 1485.58 L1181.2 1485.58 L1181.2 1481.64 Z" fill="#000000" fill-rule="nonzero" fill-opacity="1" /><path clip-path="url(#clip120)" d="M1210.6 1451.02 L1228.96 1451.02 L1228.96 1454.96 L1214.88 1454.96 L1214.88 1463.43 Q1215.9 1463.08 1216.92 1462.92 Q1217.94 1462.73 1218.96 1462.73 Q1224.74 1462.73 1228.12 1465.9 Q1231.5 1469.08 1231.5 1474.49 Q1231.5 1480.07 1228.03 1483.17 Q1224.56 1486.25 1218.24 1486.25 Q1216.06 1486.25 1213.79 1485.88 Q1211.55 1485.51 1209.14 1484.77 L1209.14 1480.07 Q1211.23 1481.2 1213.45 1481.76 Q1215.67 1482.32 1218.15 1482.32 Q1222.15 1482.32 1224.49 1480.21 Q1226.83 1478.1 1226.83 1474.49 Q1226.83 1470.88 1224.49 1468.77 Q1222.15 1466.67 1218.15 1466.67 Q1216.27 1466.67 1214.4 1467.08 Q1212.54 1467.5 1210.6 1468.38 L1210.6 1451.02 Z" fill="#000000" fill-rule="nonzero" fill-opacity="1" /><path clip-path="url(#clip120)" d="M1547.45 1481.64 L1563.77 1481.64 L1563.77 1485.58 L1541.83 1485.58 L1541.83 1481.64 Q1544.49 1478.89 1549.07 1474.26 Q1553.68 1469.61 1554.86 1468.27 Q1557.11 1465.74 1557.99 1464.01 Q1558.89 1462.25 1558.89 1460.56 Q1558.89 1457.8 1556.94 1456.07 Q1555.02 1454.33 1551.92 1454.33 Q1549.72 1454.33 1547.27 1455.09 Q1544.84 1455.86 1542.06 1457.41 L1542.06 1452.69 Q1544.88 1451.55 1547.34 1450.97 Q1549.79 1450.39 1551.83 1450.39 Q1557.2 1450.39 1560.39 1453.08 Q1563.59 1455.77 1563.59 1460.26 Q1563.59 1462.39 1562.78 1464.31 Q1561.99 1466.2 1559.88 1468.8 Q1559.3 1469.47 1556.2 1472.69 Q1553.1 1475.88 1547.45 1481.64 Z" fill="#000000" fill-rule="nonzero" fill-opacity="1" /><path clip-path="url(#clip120)" d="M1583.59 1454.1 Q1579.98 1454.1 1578.15 1457.66 Q1576.34 1461.2 1576.34 1468.33 Q1576.34 1475.44 1578.15 1479.01 Q1579.98 1482.55 1583.59 1482.55 Q1587.22 1482.55 1589.03 1479.01 Q1590.86 1475.44 1590.86 1468.33 Q1590.86 1461.2 1589.03 1457.66 Q1587.22 1454.1 1583.59 1454.1 M1583.59 1450.39 Q1589.4 1450.39 1592.45 1455 Q1595.53 1459.58 1595.53 1468.33 Q1595.53 1477.06 1592.45 1481.67 Q1589.4 1486.25 1583.59 1486.25 Q1577.78 1486.25 1574.7 1481.67 Q1571.64 1477.06 1571.64 1468.33 Q1571.64 1459.58 1574.7 1455 Q1577.78 1450.39 1583.59 1450.39 Z" fill="#000000" fill-rule="nonzero" fill-opacity="1" /><path clip-path="url(#clip120)" d="M1910.61 1481.64 L1926.93 1481.64 L1926.93 1485.58 L1904.99 1485.58 L1904.99 1481.64 Q1907.65 1478.89 1912.23 1474.26 Q1916.84 1469.61 1918.02 1468.27 Q1920.27 1465.74 1921.15 1464.01 Q1922.05 1462.25 1922.05 1460.56 Q1922.05 1457.8 1920.1 1456.07 Q1918.18 1454.33 1915.08 1454.33 Q1912.88 1454.33 1910.43 1455.09 Q1908 1455.86 1905.22 1457.41 L1905.22 1452.69 Q1908.04 1451.55 1910.5 1450.97 Q1912.95 1450.39 1914.99 1450.39 Q1920.36 1450.39 1923.55 1453.08 Q1926.75 1455.77 1926.75 1460.26 Q1926.75 1462.39 1925.94 1464.31 Q1925.15 1466.2 1923.04 1468.8 Q1922.46 1469.47 1919.36 1472.69 Q1916.26 1475.88 1910.61 1481.64 Z" fill="#000000" fill-rule="nonzero" fill-opacity="1" /><path clip-path="url(#clip120)" d="M1936.79 1451.02 L1955.15 1451.02 L1955.15 1454.96 L1941.08 1454.96 L1941.08 1463.43 Q1942.09 1463.08 1943.11 1462.92 Q1944.13 1462.73 1945.15 1462.73 Q1950.94 1462.73 1954.32 1465.9 Q1957.7 1469.08 1957.7 1474.49 Q1957.7 1480.07 1954.22 1483.17 Q1950.75 1486.25 1944.43 1486.25 Q1942.26 1486.25 1939.99 1485.88 Q1937.74 1485.51 1935.34 1484.77 L1935.34 1480.07 Q1937.42 1481.2 1939.64 1481.76 Q1941.86 1482.32 1944.34 1482.32 Q1948.34 1482.32 1950.68 1480.21 Q1953.02 1478.1 1953.02 1474.49 Q1953.02 1470.88 1950.68 1468.77 Q1948.34 1466.67 1944.34 1466.67 Q1942.46 1466.67 1940.59 1467.08 Q1938.74 1467.5 1936.79 1468.38 L1936.79 1451.02 Z" fill="#000000" fill-rule="nonzero" fill-opacity="1" /><path clip-path="url(#clip120)" d="M2282.85 1466.95 Q2286.2 1467.66 2288.08 1469.93 Q2289.98 1472.2 2289.98 1475.53 Q2289.98 1480.65 2286.46 1483.45 Q2282.94 1486.25 2276.46 1486.25 Q2274.28 1486.25 2271.97 1485.81 Q2269.68 1485.39 2267.22 1484.54 L2267.22 1480.02 Q2269.17 1481.16 2271.48 1481.74 Q2273.8 1482.32 2276.32 1482.32 Q2280.72 1482.32 2283.01 1480.58 Q2285.32 1478.84 2285.32 1475.53 Q2285.32 1472.48 2283.17 1470.77 Q2281.04 1469.03 2277.22 1469.03 L2273.19 1469.03 L2273.19 1465.19 L2277.41 1465.19 Q2280.86 1465.19 2282.69 1463.82 Q2284.51 1462.43 2284.51 1459.84 Q2284.51 1457.18 2282.62 1455.77 Q2280.74 1454.33 2277.22 1454.33 Q2275.3 1454.33 2273.1 1454.75 Q2270.9 1455.16 2268.26 1456.04 L2268.26 1451.88 Q2270.93 1451.14 2273.24 1450.77 Q2275.58 1450.39 2277.64 1450.39 Q2282.96 1450.39 2286.06 1452.83 Q2289.17 1455.23 2289.17 1459.35 Q2289.17 1462.22 2287.52 1464.21 Q2285.88 1466.18 2282.85 1466.95 Z" fill="#000000" fill-rule="nonzero" fill-opacity="1" /><path clip-path="url(#clip120)" d="M2308.84 1454.1 Q2305.23 1454.1 2303.4 1457.66 Q2301.6 1461.2 2301.6 1468.33 Q2301.6 1475.44 2303.4 1479.01 Q2305.23 1482.55 2308.84 1482.55 Q2312.48 1482.55 2314.28 1479.01 Q2316.11 1475.44 2316.11 1468.33 Q2316.11 1461.2 2314.28 1457.66 Q2312.48 1454.1 2308.84 1454.1 M2308.84 1450.39 Q2314.65 1450.39 2317.71 1455 Q2320.79 1459.58 2320.79 1468.33 Q2320.79 1477.06 2317.71 1481.67 Q2314.65 1486.25 2308.84 1486.25 Q2303.03 1486.25 2299.95 1481.67 Q2296.9 1477.06 2296.9 1468.33 Q2296.9 1459.58 2299.95 1455 Q2303.03 1450.39 2308.84 1450.39 Z" fill="#000000" fill-rule="nonzero" fill-opacity="1" /><path clip-path="url(#clip120)" d="M1113.33 1539.24 Q1115.52 1535.29 1118.58 1533.41 Q1121.63 1531.54 1125.77 1531.54 Q1131.34 1531.54 1134.36 1535.45 Q1137.39 1539.33 1137.39 1546.53 L1137.39 1568.04 L1131.5 1568.04 L1131.5 1546.72 Q1131.5 1541.59 1129.69 1539.11 Q1127.87 1536.63 1124.15 1536.63 Q1119.6 1536.63 1116.95 1539.65 Q1114.31 1542.68 1114.31 1547.9 L1114.31 1568.04 L1108.42 1568.04 L1108.42 1546.72 Q1108.42 1541.56 1106.61 1539.11 Q1104.8 1536.63 1101.01 1536.63 Q1096.52 1536.63 1093.88 1539.68 Q1091.24 1542.71 1091.24 1547.9 L1091.24 1568.04 L1085.35 1568.04 L1085.35 1532.4 L1091.24 1532.4 L1091.24 1537.93 Q1093.24 1534.66 1096.04 1533.1 Q1098.84 1531.54 1102.69 1531.54 Q1106.58 1531.54 1109.28 1533.51 Q1112.02 1535.48 1113.33 1539.24 Z" fill="#000000" fill-rule="nonzero" fill-opacity="1" /><path clip-path="url(#clip120)" d="M1165.27 1550.12 Q1158.17 1550.12 1155.43 1551.75 Q1152.7 1553.37 1152.7 1557.29 Q1152.7 1560.4 1154.73 1562.25 Q1156.8 1564.07 1160.34 1564.07 Q1165.21 1564.07 1168.13 1560.63 Q1171.09 1557.16 1171.09 1551.43 L1171.09 1550.12 L1165.27 1550.12 M1176.95 1547.71 L1176.95 1568.04 L1171.09 1568.04 L1171.09 1562.63 Q1169.09 1565.88 1166.1 1567.44 Q1163.11 1568.97 1158.78 1568.97 Q1153.3 1568.97 1150.06 1565.91 Q1146.84 1562.82 1146.84 1557.67 Q1146.84 1551.65 1150.85 1548.6 Q1154.89 1545.54 1162.88 1545.54 L1171.09 1545.54 L1171.09 1544.97 Q1171.09 1540.93 1168.42 1538.73 Q1165.78 1536.5 1160.97 1536.5 Q1157.92 1536.5 1155.02 1537.23 Q1152.12 1537.97 1149.45 1539.43 L1149.45 1534.02 Q1152.67 1532.78 1155.69 1532.17 Q1158.71 1531.54 1161.58 1531.54 Q1169.31 1531.54 1173.13 1535.55 Q1176.95 1539.56 1176.95 1547.71 Z" fill="#000000" fill-rule="nonzero" fill-opacity="1" /><path clip-path="url(#clip120)" d="M1218.65 1532.4 L1205.76 1549.74 L1219.31 1568.04 L1212.41 1568.04 L1202.03 1554.04 L1191.66 1568.04 L1184.75 1568.04 L1198.59 1549.39 L1185.93 1532.4 L1192.83 1532.4 L1202.29 1545.1 L1211.74 1532.4 L1218.65 1532.4 Z" fill="#000000" fill-rule="nonzero" fill-opacity="1" /><path clip-path="url(#clip120)" d="M1273.9 1550.25 Q1273.9 1543.79 1271.23 1540.13 Q1268.58 1536.44 1263.94 1536.44 Q1259.29 1536.44 1256.62 1540.13 Q1253.98 1543.79 1253.98 1550.25 Q1253.98 1556.71 1256.62 1560.4 Q1259.29 1564.07 1263.94 1564.07 Q1268.58 1564.07 1271.23 1560.4 Q1273.9 1556.71 1273.9 1550.25 M1253.98 1537.81 Q1255.82 1534.62 1258.62 1533.1 Q1261.46 1531.54 1265.37 1531.54 Q1271.86 1531.54 1275.91 1536.69 Q1279.98 1541.85 1279.98 1550.25 Q1279.98 1558.65 1275.91 1563.81 Q1271.86 1568.97 1265.37 1568.97 Q1261.46 1568.97 1258.62 1567.44 Q1255.82 1565.88 1253.98 1562.7 L1253.98 1568.04 L1248.09 1568.04 L1248.09 1518.52 L1253.98 1518.52 L1253.98 1537.81 Z" fill="#000000" fill-rule="nonzero" fill-opacity="1" /><path clip-path="url(#clip120)" d="M1303.5 1536.5 Q1298.79 1536.5 1296.05 1540.19 Q1293.32 1543.85 1293.32 1550.25 Q1293.32 1556.65 1296.02 1560.34 Q1298.76 1564 1303.5 1564 Q1308.18 1564 1310.92 1560.31 Q1313.65 1556.62 1313.65 1550.25 Q1313.65 1543.92 1310.92 1540.23 Q1308.18 1536.5 1303.5 1536.5 M1303.5 1531.54 Q1311.14 1531.54 1315.5 1536.5 Q1319.86 1541.47 1319.86 1550.25 Q1319.86 1559 1315.5 1564 Q1311.14 1568.97 1303.5 1568.97 Q1295.83 1568.97 1291.47 1564 Q1287.14 1559 1287.14 1550.25 Q1287.14 1541.47 1291.47 1536.5 Q1295.83 1531.54 1303.5 1531.54 Z" fill="#000000" fill-rule="nonzero" fill-opacity="1" /><path clip-path="url(#clip120)" d="M1359.2 1546.53 L1359.2 1568.04 L1353.34 1568.04 L1353.34 1546.72 Q1353.34 1541.66 1351.37 1539.14 Q1349.4 1536.63 1345.45 1536.63 Q1340.71 1536.63 1337.97 1539.65 Q1335.23 1542.68 1335.23 1547.9 L1335.23 1568.04 L1329.35 1568.04 L1329.35 1532.4 L1335.23 1532.4 L1335.23 1537.93 Q1337.33 1534.72 1340.17 1533.13 Q1343.03 1531.54 1346.76 1531.54 Q1352.9 1531.54 1356.05 1535.36 Q1359.2 1539.14 1359.2 1546.53 Z" fill="#000000" fill-rule="nonzero" fill-opacity="1" /><path clip-path="url(#clip120)" d="M1394.34 1537.81 L1394.34 1518.52 L1400.2 1518.52 L1400.2 1568.04 L1394.34 1568.04 L1394.34 1562.7 Q1392.49 1565.88 1389.66 1567.44 Q1386.86 1568.97 1382.91 1568.97 Q1376.45 1568.97 1372.38 1563.81 Q1368.34 1558.65 1368.34 1550.25 Q1368.34 1541.85 1372.38 1536.69 Q1376.45 1531.54 1382.91 1531.54 Q1386.86 1531.54 1389.66 1533.1 Q1392.49 1534.62 1394.34 1537.81 M1374.38 1550.25 Q1374.38 1556.71 1377.02 1560.4 Q1379.7 1564.07 1384.35 1564.07 Q1388.99 1564.07 1391.67 1560.4 Q1394.34 1556.71 1394.34 1550.25 Q1394.34 1543.79 1391.67 1540.13 Q1388.99 1536.44 1384.35 1536.44 Q1379.7 1536.44 1377.02 1540.13 Q1374.38 1543.79 1374.38 1550.25 Z" fill="#000000" fill-rule="nonzero" fill-opacity="1" /><path clip-path="url(#clip120)" d="M1456.44 1537.81 L1456.44 1518.52 L1462.29 1518.52 L1462.29 1568.04 L1456.44 1568.04 L1456.44 1562.7 Q1454.59 1565.88 1451.76 1567.44 Q1448.96 1568.97 1445.01 1568.97 Q1438.55 1568.97 1434.48 1563.81 Q1430.43 1558.65 1430.43 1550.25 Q1430.43 1541.85 1434.48 1536.69 Q1438.55 1531.54 1445.01 1531.54 Q1448.96 1531.54 1451.76 1533.1 Q1454.59 1534.62 1456.44 1537.81 M1436.48 1550.25 Q1436.48 1556.71 1439.12 1560.4 Q1441.8 1564.07 1446.44 1564.07 Q1451.09 1564.07 1453.76 1560.4 Q1456.44 1556.71 1456.44 1550.25 Q1456.44 1543.79 1453.76 1540.13 Q1451.09 1536.44 1446.44 1536.44 Q1441.8 1536.44 1439.12 1540.13 Q1436.48 1543.79 1436.48 1550.25 Z" fill="#000000" fill-rule="nonzero" fill-opacity="1" /><path clip-path="url(#clip120)" d="M1474.36 1532.4 L1480.21 1532.4 L1480.21 1568.04 L1474.36 1568.04 L1474.36 1532.4 M1474.36 1518.52 L1480.21 1518.52 L1480.21 1525.93 L1474.36 1525.93 L1474.36 1518.52 Z" fill="#000000" fill-rule="nonzero" fill-opacity="1" /><path clip-path="url(#clip120)" d="M1520.22 1539.24 Q1522.42 1535.29 1525.47 1533.41 Q1528.53 1531.54 1532.67 1531.54 Q1538.24 1531.54 1541.26 1535.45 Q1544.28 1539.33 1544.28 1546.53 L1544.28 1568.04 L1538.4 1568.04 L1538.4 1546.72 Q1538.4 1541.59 1536.58 1539.11 Q1534.77 1536.63 1531.04 1536.63 Q1526.49 1536.63 1523.85 1539.65 Q1521.21 1542.68 1521.21 1547.9 L1521.21 1568.04 L1515.32 1568.04 L1515.32 1546.72 Q1515.32 1541.56 1513.51 1539.11 Q1511.69 1536.63 1507.9 1536.63 Q1503.42 1536.63 1500.77 1539.68 Q1498.13 1542.71 1498.13 1547.9 L1498.13 1568.04 L1492.24 1568.04 L1492.24 1532.4 L1498.13 1532.4 L1498.13 1537.93 Q1500.14 1534.66 1502.94 1533.1 Q1505.74 1531.54 1509.59 1531.54 Q1513.47 1531.54 1516.18 1533.51 Q1518.92 1535.48 1520.22 1539.24 Z" fill="#000000" fill-rule="nonzero" fill-opacity="1" /><polyline clip-path="url(#clip120)" style="stroke:#000000; stroke-linecap:round; stroke-linejoin:round; stroke-width:4; stroke-opacity:1; fill:none" points="276.876,1423.18 276.876,123.472 "/>
<polyline clip-path="url(#clip120)" style="stroke:#000000; stroke-linecap:round; stroke-linejoin:round; stroke-width:4; stroke-opacity:1; fill:none" points="276.876,1083.18 295.773,1083.18 "/>
<polyline clip-path="url(#clip120)" style="stroke:#000000; stroke-linecap:round; stroke-linejoin:round; stroke-width:4; stroke-opacity:1; fill:none" points="276.876,637.669 295.773,637.669 "/>
<polyline clip-path="url(#clip120)" style="stroke:#000000; stroke-linecap:round; stroke-linejoin:round; stroke-width:4; stroke-opacity:1; fill:none" points="276.876,192.157 295.773,192.157 "/>
<path clip-path="url(#clip120)" d="M114.931 1102.97 L122.57 1102.97 L122.57 1076.61 L114.26 1078.28 L114.26 1074.02 L122.524 1072.35 L127.2 1072.35 L127.2 1102.97 L134.839 1102.97 L134.839 1106.91 L114.931 1106.91 L114.931 1102.97 Z" fill="#000000" fill-rule="nonzero" fill-opacity="1" /><path clip-path="url(#clip120)" d="M154.283 1075.43 Q150.672 1075.43 148.843 1078.99 Q147.038 1082.53 147.038 1089.66 Q147.038 1096.77 148.843 1100.34 Q150.672 1103.88 154.283 1103.88 Q157.917 1103.88 159.723 1100.34 Q161.552 1096.77 161.552 1089.66 Q161.552 1082.53 159.723 1078.99 Q157.917 1075.43 154.283 1075.43 M154.283 1071.72 Q160.093 1071.72 163.149 1076.33 Q166.227 1080.91 166.227 1089.66 Q166.227 1098.39 163.149 1103 Q160.093 1107.58 154.283 1107.58 Q148.473 1107.58 145.394 1103 Q142.339 1098.39 142.339 1089.66 Q142.339 1080.91 145.394 1076.33 Q148.473 1071.72 154.283 1071.72 Z" fill="#000000" fill-rule="nonzero" fill-opacity="1" /><path clip-path="url(#clip120)" d="M166.227 1065.83 L190.339 1065.83 L190.339 1069.02 L166.227 1069.02 L166.227 1065.83 Z" fill="#000000" fill-rule="nonzero" fill-opacity="1" /><path clip-path="url(#clip120)" d="M199.197 1076.3 L205.404 1076.3 L205.404 1054.88 L198.652 1056.23 L198.652 1052.77 L205.366 1051.42 L209.166 1051.42 L209.166 1076.3 L215.372 1076.3 L215.372 1079.5 L199.197 1079.5 L199.197 1076.3 Z" fill="#000000" fill-rule="nonzero" fill-opacity="1" /><path clip-path="url(#clip120)" d="M231.171 1053.92 Q228.237 1053.92 226.751 1056.82 Q225.284 1059.69 225.284 1065.49 Q225.284 1071.26 226.751 1074.16 Q228.237 1077.04 231.171 1077.04 Q234.124 1077.04 235.591 1074.16 Q237.076 1071.26 237.076 1065.49 Q237.076 1059.69 235.591 1056.82 Q234.124 1053.92 231.171 1053.92 M231.171 1050.91 Q235.891 1050.91 238.374 1054.65 Q240.876 1058.38 240.876 1065.49 Q240.876 1072.58 238.374 1076.32 Q235.891 1080.04 231.171 1080.04 Q226.45 1080.04 223.949 1076.32 Q221.466 1072.58 221.466 1065.49 Q221.466 1058.38 223.949 1054.65 Q226.45 1050.91 231.171 1050.91 Z" fill="#000000" fill-rule="nonzero" fill-opacity="1" /><path clip-path="url(#clip120)" d="M140.247 657.462 L147.886 657.462 L147.886 631.096 L139.575 632.763 L139.575 628.503 L147.839 626.837 L152.515 626.837 L152.515 657.462 L160.154 657.462 L160.154 661.397 L140.247 661.397 L140.247 657.462 Z" fill="#000000" fill-rule="nonzero" fill-opacity="1" /><path clip-path="url(#clip120)" d="M179.598 629.916 Q175.987 629.916 174.159 633.48 Q172.353 637.022 172.353 644.152 Q172.353 651.258 174.159 654.823 Q175.987 658.364 179.598 658.364 Q183.233 658.364 185.038 654.823 Q186.867 651.258 186.867 644.152 Q186.867 637.022 185.038 633.48 Q183.233 629.916 179.598 629.916 M179.598 626.212 Q185.409 626.212 188.464 630.818 Q191.543 635.402 191.543 644.152 Q191.543 652.878 188.464 657.485 Q185.409 662.068 179.598 662.068 Q173.788 662.068 170.71 657.485 Q167.654 652.878 167.654 644.152 Q167.654 635.402 170.71 630.818 Q173.788 626.212 179.598 626.212 Z" fill="#000000" fill-rule="nonzero" fill-opacity="1" /><path clip-path="url(#clip120)" d="M191.543 620.313 L215.654 620.313 L215.654 623.51 L191.543 623.51 L191.543 620.313 Z" fill="#000000" fill-rule="nonzero" fill-opacity="1" /><path clip-path="url(#clip120)" d="M223.892 605.906 L238.807 605.906 L238.807 609.104 L227.372 609.104 L227.372 615.987 Q228.199 615.705 229.027 615.574 Q229.854 615.423 230.682 615.423 Q235.384 615.423 238.13 618 Q240.876 620.576 240.876 624.978 Q240.876 629.51 238.054 632.03 Q235.233 634.532 230.099 634.532 Q228.331 634.532 226.488 634.231 Q224.663 633.93 222.707 633.328 L222.707 629.51 Q224.4 630.432 226.205 630.883 Q228.011 631.335 230.023 631.335 Q233.277 631.335 235.177 629.623 Q237.076 627.912 237.076 624.978 Q237.076 622.043 235.177 620.332 Q233.277 618.62 230.023 618.62 Q228.5 618.62 226.977 618.959 Q225.472 619.298 223.892 620.012 L223.892 605.906 Z" fill="#000000" fill-rule="nonzero" fill-opacity="1" /><path clip-path="url(#clip120)" d="M170.17 211.949 L177.809 211.949 L177.809 185.584 L169.499 187.25 L169.499 182.991 L177.762 181.324 L182.438 181.324 L182.438 211.949 L190.077 211.949 L190.077 215.884 L170.17 215.884 L170.17 211.949 Z" fill="#000000" fill-rule="nonzero" fill-opacity="1" /><path clip-path="url(#clip120)" d="M209.522 184.403 Q205.91 184.403 204.082 187.968 Q202.276 191.509 202.276 198.639 Q202.276 205.746 204.082 209.31 Q205.91 212.852 209.522 212.852 Q213.156 212.852 214.961 209.31 Q216.79 205.746 216.79 198.639 Q216.79 191.509 214.961 187.968 Q213.156 184.403 209.522 184.403 M209.522 180.699 Q215.332 180.699 218.387 185.306 Q221.466 189.889 221.466 198.639 Q221.466 207.366 218.387 211.972 Q215.332 216.556 209.522 216.556 Q203.711 216.556 200.633 211.972 Q197.577 207.366 197.577 198.639 Q197.577 189.889 200.633 185.306 Q203.711 180.699 209.522 180.699 Z" fill="#000000" fill-rule="nonzero" fill-opacity="1" /><path clip-path="url(#clip120)" d="M231.171 162.895 Q228.237 162.895 226.751 165.792 Q225.284 168.669 225.284 174.462 Q225.284 180.236 226.751 183.133 Q228.237 186.01 231.171 186.01 Q234.124 186.01 235.591 183.133 Q237.076 180.236 237.076 174.462 Q237.076 168.669 235.591 165.792 Q234.124 162.895 231.171 162.895 M231.171 159.886 Q235.891 159.886 238.374 163.629 Q240.876 167.353 240.876 174.462 Q240.876 181.553 238.374 185.295 Q235.891 189.019 231.171 189.019 Q226.45 189.019 223.949 185.295 Q221.466 181.553 221.466 174.462 Q221.466 167.353 223.949 163.629 Q226.45 159.886 231.171 159.886 Z" fill="#000000" fill-rule="nonzero" fill-opacity="1" /><path clip-path="url(#clip120)" d="M29.4065 1023.93 L34.9447 1023.93 Q33.6716 1026.41 33.035 1029.08 Q32.3984 1031.76 32.3984 1034.62 Q32.3984 1038.98 33.7352 1041.18 Q35.072 1043.34 37.7456 1043.34 Q39.7826 1043.34 40.9603 1041.78 Q42.1061 1040.22 43.1565 1035.51 L43.6021 1033.51 Q44.9389 1027.27 47.3897 1024.66 Q49.8086 1022.02 54.1691 1022.02 Q59.1344 1022.02 62.0308 1025.96 Q64.9272 1029.88 64.9272 1036.75 Q64.9272 1039.62 64.3543 1042.74 Q63.8132 1045.83 62.6992 1049.26 L56.6518 1049.26 Q58.3387 1046.02 59.198 1042.87 Q60.0256 1039.71 60.0256 1036.63 Q60.0256 1032.49 58.6251 1030.26 Q57.1929 1028.03 54.6147 1028.03 Q52.2276 1028.03 50.9545 1029.66 Q49.6813 1031.25 48.5037 1036.69 L48.0262 1038.73 Q46.8804 1044.17 44.5251 1046.59 Q42.138 1049.01 38.0002 1049.01 Q32.9713 1049.01 30.2341 1045.44 Q27.4968 1041.88 27.4968 1035.32 Q27.4968 1032.08 27.9743 1029.21 Q28.4517 1026.35 29.4065 1023.93 Z" fill="#000000" fill-rule="nonzero" fill-opacity="1" /><path clip-path="url(#clip120)" d="M46.0847 996.492 Q46.0847 1003.59 47.7079 1006.33 Q49.3312 1009.06 53.2461 1009.06 Q56.3653 1009.06 58.2114 1007.03 Q60.0256 1004.96 60.0256 1001.43 Q60.0256 996.555 56.5881 993.627 Q53.1188 990.667 47.3897 990.667 L46.0847 990.667 L46.0847 996.492 M43.6657 984.811 L64.0042 984.811 L64.0042 990.667 L58.5933 990.667 Q61.8398 992.672 63.3994 995.664 Q64.9272 998.656 64.9272 1002.98 Q64.9272 1008.46 61.8716 1011.71 Q58.7843 1014.92 53.6281 1014.92 Q47.6125 1014.92 44.5569 1010.91 Q41.5014 1006.87 41.5014 998.879 L41.5014 990.667 L40.9285 990.667 Q36.8862 990.667 34.6901 993.341 Q32.4621 995.982 32.4621 1000.79 Q32.4621 1003.84 33.1941 1006.74 Q33.9262 1009.64 35.3903 1012.31 L29.9795 1012.31 Q28.7381 1009.1 28.1334 1006.07 Q27.4968 1003.05 27.4968 1000.18 Q27.4968 992.45 31.5072 988.63 Q35.5176 984.811 43.6657 984.811 Z" fill="#000000" fill-rule="nonzero" fill-opacity="1" /><path clip-path="url(#clip120)" d="M35.1993 944.993 Q31.2526 942.797 29.3747 939.741 Q27.4968 936.686 27.4968 932.548 Q27.4968 926.978 31.4117 923.955 Q35.2948 920.931 42.4881 920.931 L64.0042 920.931 L64.0042 926.819 L42.679 926.819 Q37.5546 926.819 35.072 928.633 Q32.5894 930.448 32.5894 934.171 Q32.5894 938.723 35.6131 941.365 Q38.6368 944.006 43.8567 944.006 L64.0042 944.006 L64.0042 949.895 L42.679 949.895 Q37.5228 949.895 35.072 951.709 Q32.5894 953.523 32.5894 957.311 Q32.5894 961.799 35.6449 964.44 Q38.6686 967.082 43.8567 967.082 L64.0042 967.082 L64.0042 972.97 L28.3562 972.97 L28.3562 967.082 L33.8944 967.082 Q30.616 965.077 29.0564 962.276 Q27.4968 959.475 27.4968 955.624 Q27.4968 951.741 29.4702 949.035 Q31.4436 946.298 35.1993 944.993 Z" fill="#000000" fill-rule="nonzero" fill-opacity="1" /><path clip-path="url(#clip120)" d="M58.657 903.584 L77.5631 903.584 L77.5631 909.473 L28.3562 909.473 L28.3562 903.584 L33.7671 903.584 Q30.5842 901.738 29.0564 898.937 Q27.4968 896.105 27.4968 892.19 Q27.4968 885.697 32.6531 881.654 Q37.8093 877.58 46.212 877.58 Q54.6147 877.58 59.771 881.654 Q64.9272 885.697 64.9272 892.19 Q64.9272 896.105 63.3994 898.937 Q61.8398 901.738 58.657 903.584 M46.212 883.66 Q39.7508 883.66 36.0905 886.333 Q32.3984 888.975 32.3984 893.622 Q32.3984 898.269 36.0905 900.942 Q39.7508 903.584 46.212 903.584 Q52.6732 903.584 56.3653 900.942 Q60.0256 898.269 60.0256 893.622 Q60.0256 888.975 56.3653 886.333 Q52.6732 883.66 46.212 883.66 Z" fill="#000000" fill-rule="nonzero" fill-opacity="1" /><path clip-path="url(#clip120)" d="M14.479 867.873 L14.479 862.016 L64.0042 862.016 L64.0042 867.873 L14.479 867.873 Z" fill="#000000" fill-rule="nonzero" fill-opacity="1" /><path clip-path="url(#clip120)" d="M44.7161 819.27 L47.5806 819.27 L47.5806 846.197 Q53.6281 845.815 56.8109 842.569 Q59.9619 839.291 59.9619 833.466 Q59.9619 830.092 59.1344 826.941 Q58.3069 823.758 56.6518 820.639 L62.1899 820.639 Q63.5267 823.79 64.227 827.1 Q64.9272 830.41 64.9272 833.816 Q64.9272 842.346 59.9619 847.343 Q54.9967 852.308 46.5303 852.308 Q37.7774 852.308 32.6531 847.598 Q27.4968 842.855 27.4968 834.835 Q27.4968 827.641 32.1438 823.472 Q36.7589 819.27 44.7161 819.27 M42.9973 825.127 Q38.1912 825.191 35.3266 827.832 Q32.4621 830.442 32.4621 834.771 Q32.4621 839.673 35.2312 842.633 Q38.0002 845.561 43.0292 846.006 L42.9973 825.127 Z" fill="#000000" fill-rule="nonzero" fill-opacity="1" /><path clip-path="url(#clip120)" d="M33.7671 786.201 L14.479 786.201 L14.479 780.344 L64.0042 780.344 L64.0042 786.201 L58.657 786.201 Q61.8398 788.047 63.3994 790.879 Q64.9272 793.68 64.9272 797.627 Q64.9272 804.088 59.771 808.162 Q54.6147 812.205 46.212 812.205 Q37.8093 812.205 32.6531 808.162 Q27.4968 804.088 27.4968 797.627 Q27.4968 793.68 29.0564 790.879 Q30.5842 788.047 33.7671 786.201 M46.212 806.157 Q52.6732 806.157 56.3653 803.515 Q60.0256 800.842 60.0256 796.195 Q60.0256 791.548 56.3653 788.874 Q52.6732 786.201 46.212 786.201 Q39.7508 786.201 36.0905 788.874 Q32.3984 791.548 32.3984 796.195 Q32.3984 800.842 36.0905 803.515 Q39.7508 806.157 46.212 806.157 Z" fill="#000000" fill-rule="nonzero" fill-opacity="1" /><path clip-path="url(#clip120)" d="M16.4842 747.306 L16.4842 740.877 L58.5933 740.877 L58.5933 717.737 L64.0042 717.737 L64.0042 747.306 L16.4842 747.306 Z" fill="#000000" fill-rule="nonzero" fill-opacity="1" /><path clip-path="url(#clip120)" d="M58.5933 709.303 L58.5933 698.799 L22.3406 698.799 L24.6323 710.226 L18.7758 710.226 L16.4842 698.863 L16.4842 692.434 L58.5933 692.434 L58.5933 681.93 L64.0042 681.93 L64.0042 709.303 L58.5933 709.303 Z" fill="#000000" fill-rule="nonzero" fill-opacity="1" /><path clip-path="url(#clip120)" d="M44.7161 618.56 L47.5806 618.56 L47.5806 645.487 Q53.6281 645.105 56.8109 641.858 Q59.9619 638.58 59.9619 632.755 Q59.9619 629.381 59.1344 626.23 Q58.3069 623.048 56.6518 619.928 L62.1899 619.928 Q63.5267 623.079 64.227 626.39 Q64.9272 629.7 64.9272 633.105 Q64.9272 641.635 59.9619 646.633 Q54.9967 651.598 46.5303 651.598 Q37.7774 651.598 32.6531 646.887 Q27.4968 642.145 27.4968 634.124 Q27.4968 626.931 32.1438 622.761 Q36.7589 618.56 44.7161 618.56 M42.9973 624.416 Q38.1912 624.48 35.3266 627.122 Q32.4621 629.732 32.4621 634.06 Q32.4621 638.962 35.2312 641.922 Q38.0002 644.85 43.0292 645.296 L42.9973 624.416 Z" fill="#000000" fill-rule="nonzero" fill-opacity="1" /><path clip-path="url(#clip120)" d="M33.8307 588.291 Q33.2578 589.277 33.0032 590.455 Q32.7167 591.601 32.7167 593.001 Q32.7167 597.967 35.9632 600.64 Q39.1779 603.282 45.2253 603.282 L64.0042 603.282 L64.0042 609.17 L28.3562 609.17 L28.3562 603.282 L33.8944 603.282 Q30.6479 601.436 29.0883 598.476 Q27.4968 595.516 27.4968 591.283 Q27.4968 590.678 27.5923 589.946 Q27.656 589.214 27.8151 588.323 L33.8307 588.291 Z" fill="#000000" fill-rule="nonzero" fill-opacity="1" /><path clip-path="url(#clip120)" d="M33.8307 562.637 Q33.2578 563.624 33.0032 564.801 Q32.7167 565.947 32.7167 567.348 Q32.7167 572.313 35.9632 574.986 Q39.1779 577.628 45.2253 577.628 L64.0042 577.628 L64.0042 583.517 L28.3562 583.517 L28.3562 577.628 L33.8944 577.628 Q30.6479 575.782 29.0883 572.822 Q27.4968 569.862 27.4968 565.629 Q27.4968 565.024 27.5923 564.292 Q27.656 563.56 27.8151 562.669 L33.8307 562.637 Z" fill="#000000" fill-rule="nonzero" fill-opacity="1" /><path clip-path="url(#clip120)" d="M32.4621 544.113 Q32.4621 548.823 36.1542 551.561 Q39.8145 554.298 46.212 554.298 Q52.6095 554.298 56.3017 551.593 Q59.9619 548.855 59.9619 544.113 Q59.9619 539.434 56.2698 536.697 Q52.5777 533.96 46.212 533.96 Q39.8781 533.96 36.186 536.697 Q32.4621 539.434 32.4621 544.113 M27.4968 544.113 Q27.4968 536.474 32.4621 532.113 Q37.4273 527.753 46.212 527.753 Q54.9649 527.753 59.9619 532.113 Q64.9272 536.474 64.9272 544.113 Q64.9272 551.783 59.9619 556.144 Q54.9649 560.473 46.212 560.473 Q37.4273 560.473 32.4621 556.144 Q27.4968 551.783 27.4968 544.113 Z" fill="#000000" fill-rule="nonzero" fill-opacity="1" /><path clip-path="url(#clip120)" d="M33.8307 497.389 Q33.2578 498.375 33.0032 499.553 Q32.7167 500.699 32.7167 502.099 Q32.7167 507.064 35.9632 509.738 Q39.1779 512.38 45.2253 512.38 L64.0042 512.38 L64.0042 518.268 L28.3562 518.268 L28.3562 512.38 L33.8944 512.38 Q30.6479 510.534 29.0883 507.574 Q27.4968 504.614 27.4968 500.38 Q27.4968 499.776 27.5923 499.044 Q27.656 498.312 27.8151 497.42 L33.8307 497.389 Z" fill="#000000" fill-rule="nonzero" fill-opacity="1" /><path clip-path="url(#clip120)" d="M699.038 12.096 L733.795 12.096 L733.795 18.9825 L707.221 18.9825 L707.221 36.8065 L731.202 36.8065 L731.202 43.6931 L707.221 43.6931 L707.221 72.576 L699.038 72.576 L699.038 12.096 Z" fill="#000000" fill-rule="nonzero" fill-opacity="1" /><path clip-path="url(#clip120)" d="M740.397 27.2059 L747.851 27.2059 L747.851 72.576 L740.397 72.576 L740.397 27.2059 M740.397 9.54393 L747.851 9.54393 L747.851 18.9825 L740.397 18.9825 L740.397 9.54393 Z" fill="#000000" fill-rule="nonzero" fill-opacity="1" /><path clip-path="url(#clip120)" d="M796.097 28.9478 L796.097 35.9153 Q792.938 34.1734 789.738 33.3227 Q786.578 32.4315 783.337 32.4315 Q776.086 32.4315 772.076 37.0496 Q768.065 41.6271 768.065 49.9314 Q768.065 58.2358 772.076 62.8538 Q776.086 67.4314 783.337 67.4314 Q786.578 67.4314 789.738 66.5807 Q792.938 65.6895 796.097 63.9476 L796.097 70.8341 Q792.978 72.2924 789.616 73.0216 Q786.294 73.7508 782.527 73.7508 Q772.278 73.7508 766.242 67.3098 Q760.206 60.8689 760.206 49.9314 Q760.206 38.832 766.283 32.472 Q772.4 26.1121 783.013 26.1121 Q786.456 26.1121 789.738 26.8413 Q793.019 27.5299 796.097 28.9478 Z" fill="#000000" fill-rule="nonzero" fill-opacity="1" /><path clip-path="url(#clip120)" d="M816.433 14.324 L816.433 27.2059 L831.786 27.2059 L831.786 32.9987 L816.433 32.9987 L816.433 57.6282 Q816.433 63.1779 817.932 64.7578 Q819.471 66.3376 824.13 66.3376 L831.786 66.3376 L831.786 72.576 L824.13 72.576 Q815.501 72.576 812.22 69.3758 Q808.939 66.1351 808.939 57.6282 L808.939 32.9987 L803.47 32.9987 L803.47 27.2059 L808.939 27.2059 L808.939 14.324 L816.433 14.324 Z" fill="#000000" fill-rule="nonzero" fill-opacity="1" /><path clip-path="url(#clip120)" d="M841.589 27.2059 L849.043 27.2059 L849.043 72.576 L841.589 72.576 L841.589 27.2059 M841.589 9.54393 L849.043 9.54393 L849.043 18.9825 L841.589 18.9825 L841.589 9.54393 Z" fill="#000000" fill-rule="nonzero" fill-opacity="1" /><path clip-path="url(#clip120)" d="M872.011 14.324 L872.011 27.2059 L887.364 27.2059 L887.364 32.9987 L872.011 32.9987 L872.011 57.6282 Q872.011 63.1779 873.51 64.7578 Q875.05 66.3376 879.708 66.3376 L887.364 66.3376 L887.364 72.576 L879.708 72.576 Q871.08 72.576 867.798 69.3758 Q864.517 66.1351 864.517 57.6282 L864.517 32.9987 L859.048 32.9987 L859.048 27.2059 L864.517 27.2059 L864.517 14.324 L872.011 14.324 Z" fill="#000000" fill-rule="nonzero" fill-opacity="1" /><path clip-path="url(#clip120)" d="M897.167 27.2059 L904.621 27.2059 L904.621 72.576 L897.167 72.576 L897.167 27.2059 M897.167 9.54393 L904.621 9.54393 L904.621 18.9825 L897.167 18.9825 L897.167 9.54393 Z" fill="#000000" fill-rule="nonzero" fill-opacity="1" /><path clip-path="url(#clip120)" d="M937.798 32.4315 Q931.803 32.4315 928.319 37.1306 Q924.835 41.7891 924.835 49.9314 Q924.835 58.0738 928.278 62.7728 Q931.762 67.4314 937.798 67.4314 Q943.753 67.4314 947.237 62.7323 Q950.72 58.0333 950.72 49.9314 Q950.72 41.8701 947.237 37.1711 Q943.753 32.4315 937.798 32.4315 M937.798 26.1121 Q947.52 26.1121 953.07 32.4315 Q958.62 38.7509 958.62 49.9314 Q958.62 61.0714 953.07 67.4314 Q947.52 73.7508 937.798 73.7508 Q928.035 73.7508 922.486 67.4314 Q916.976 61.0714 916.976 49.9314 Q916.976 38.7509 922.486 32.4315 Q928.035 26.1121 937.798 26.1121 Z" fill="#000000" fill-rule="nonzero" fill-opacity="1" /><path clip-path="url(#clip120)" d="M970.205 54.671 L970.205 27.2059 L977.659 27.2059 L977.659 54.3874 Q977.659 60.8284 980.171 64.0691 Q982.682 67.2693 987.705 67.2693 Q993.741 67.2693 997.225 63.421 Q1000.75 59.5726 1000.75 52.9291 L1000.75 27.2059 L1008.2 27.2059 L1008.2 72.576 L1000.75 72.576 L1000.75 65.6084 Q998.035 69.7404 994.43 71.7658 Q990.865 73.7508 986.125 73.7508 Q978.307 73.7508 974.256 68.8897 Q970.205 64.0286 970.205 54.671 M988.961 26.1121 L988.961 26.1121 Z" fill="#000000" fill-rule="nonzero" fill-opacity="1" /><path clip-path="url(#clip120)" d="M1052.48 28.5427 L1052.48 35.5912 Q1049.32 33.9709 1045.92 33.1607 Q1042.51 32.3505 1038.87 32.3505 Q1033.32 32.3505 1030.52 34.0519 Q1027.77 35.7533 1027.77 39.156 Q1027.77 41.7486 1029.75 43.2475 Q1031.74 44.7058 1037.73 46.0426 L1040.29 46.6097 Q1048.23 48.3111 1051.55 51.4303 Q1054.91 54.509 1054.91 60.0587 Q1054.91 66.3781 1049.89 70.0644 Q1044.9 73.7508 1036.15 73.7508 Q1032.51 73.7508 1028.54 73.0216 Q1024.61 72.3329 1020.23 70.9151 L1020.23 63.2184 Q1024.37 65.3654 1028.38 66.4591 Q1032.39 67.5124 1036.32 67.5124 Q1041.58 67.5124 1044.42 65.73 Q1047.25 63.9071 1047.25 60.6258 Q1047.25 57.5877 1045.19 55.9673 Q1043.16 54.3469 1036.24 52.8481 L1033.64 52.2405 Q1026.72 50.7821 1023.64 47.7845 Q1020.56 44.7463 1020.56 39.4801 Q1020.56 33.0797 1025.1 29.5959 Q1029.63 26.1121 1037.98 26.1121 Q1042.11 26.1121 1045.75 26.7198 Q1049.4 27.3274 1052.48 28.5427 Z" fill="#000000" fill-rule="nonzero" fill-opacity="1" /><path clip-path="url(#clip120)" d="M1134.71 63.9476 L1134.71 47.7034 L1121.34 47.7034 L1121.34 40.9789 L1142.81 40.9789 L1142.81 66.9452 Q1138.07 70.3075 1132.36 72.0494 Q1126.65 73.7508 1120.17 73.7508 Q1105.99 73.7508 1097.97 65.4869 Q1089.99 57.1826 1089.99 42.3968 Q1089.99 27.5705 1097.97 19.3066 Q1105.99 11.0023 1120.17 11.0023 Q1126.08 11.0023 1131.39 12.4606 Q1136.74 13.9189 1141.23 16.7545 L1141.23 25.464 Q1136.7 21.6156 1131.59 19.6712 Q1126.49 17.7268 1120.86 17.7268 Q1109.76 17.7268 1104.17 23.9246 Q1098.62 30.1225 1098.62 42.3968 Q1098.62 54.6305 1104.17 60.8284 Q1109.76 67.0263 1120.86 67.0263 Q1125.19 67.0263 1128.6 66.2971 Q1132 65.5274 1134.71 63.9476 Z" fill="#000000" fill-rule="nonzero" fill-opacity="1" /><path clip-path="url(#clip120)" d="M1157.76 12.096 L1192.52 12.096 L1192.52 18.9825 L1165.94 18.9825 L1165.94 36.8065 L1189.93 36.8065 L1189.93 43.6931 L1165.94 43.6931 L1165.94 72.576 L1157.76 72.576 L1157.76 12.096 Z" fill="#000000" fill-rule="nonzero" fill-opacity="1" /><path clip-path="url(#clip120)" d="M1260.45 28.5427 L1260.45 35.5912 Q1257.29 33.9709 1253.89 33.1607 Q1250.49 32.3505 1246.84 32.3505 Q1241.29 32.3505 1238.5 34.0519 Q1235.74 35.7533 1235.74 39.156 Q1235.74 41.7486 1237.73 43.2475 Q1239.71 44.7058 1245.71 46.0426 L1248.26 46.6097 Q1256.2 48.3111 1259.52 51.4303 Q1262.88 54.509 1262.88 60.0587 Q1262.88 66.3781 1257.86 70.0644 Q1252.88 73.7508 1244.13 73.7508 Q1240.48 73.7508 1236.51 73.0216 Q1232.58 72.3329 1228.21 70.9151 L1228.21 63.2184 Q1232.34 65.3654 1236.35 66.4591 Q1240.36 67.5124 1244.29 67.5124 Q1249.56 67.5124 1252.39 65.73 Q1255.23 63.9071 1255.23 60.6258 Q1255.23 57.5877 1253.16 55.9673 Q1251.14 54.3469 1244.21 52.8481 L1241.62 52.2405 Q1234.69 50.7821 1231.61 47.7845 Q1228.53 44.7463 1228.53 39.4801 Q1228.53 33.0797 1233.07 29.5959 Q1237.61 26.1121 1245.95 26.1121 Q1250.08 26.1121 1253.73 26.7198 Q1257.37 27.3274 1260.45 28.5427 Z" fill="#000000" fill-rule="nonzero" fill-opacity="1" /><path clip-path="url(#clip120)" d="M1295.37 49.7694 Q1286.34 49.7694 1282.85 51.8354 Q1279.37 53.9013 1279.37 58.8839 Q1279.37 62.8538 1281.96 65.2034 Q1284.6 67.5124 1289.09 67.5124 Q1295.29 67.5124 1299.02 63.1374 Q1302.78 58.7219 1302.78 51.4303 L1302.78 49.7694 L1295.37 49.7694 M1310.24 46.6907 L1310.24 72.576 L1302.78 72.576 L1302.78 65.6895 Q1300.23 69.8214 1296.42 71.8063 Q1292.62 73.7508 1287.11 73.7508 Q1280.14 73.7508 1276.01 69.8619 Q1271.92 65.9325 1271.92 59.3701 Q1271.92 51.7138 1277.02 47.825 Q1282.17 43.9361 1292.33 43.9361 L1302.78 43.9361 L1302.78 43.2069 Q1302.78 38.0623 1299.38 35.2672 Q1296.02 32.4315 1289.9 32.4315 Q1286.01 32.4315 1282.33 33.3632 Q1278.64 34.295 1275.24 36.1584 L1275.24 29.2718 Q1279.33 27.692 1283.18 26.9223 Q1287.03 26.1121 1290.67 26.1121 Q1300.52 26.1121 1305.38 31.2163 Q1310.24 36.3204 1310.24 46.6907 Z" fill="#000000" fill-rule="nonzero" fill-opacity="1" /><path clip-path="url(#clip120)" d="M1360.91 35.9153 Q1363.71 30.8922 1367.6 28.5022 Q1371.49 26.1121 1376.75 26.1121 Q1383.84 26.1121 1387.69 31.0947 Q1391.54 36.0368 1391.54 45.1919 L1391.54 72.576 L1384.05 72.576 L1384.05 45.4349 Q1384.05 38.913 1381.74 35.7533 Q1379.43 32.5936 1374.69 32.5936 Q1368.9 32.5936 1365.53 36.4419 Q1362.17 40.2903 1362.17 46.9338 L1362.17 72.576 L1354.68 72.576 L1354.68 45.4349 Q1354.68 38.8725 1352.37 35.7533 Q1350.06 32.5936 1345.24 32.5936 Q1339.53 32.5936 1336.16 36.4824 Q1332.8 40.3308 1332.8 46.9338 L1332.8 72.576 L1325.31 72.576 L1325.31 27.2059 L1332.8 27.2059 L1332.8 34.2544 Q1335.35 30.082 1338.92 28.0971 Q1342.48 26.1121 1347.38 26.1121 Q1352.33 26.1121 1355.77 28.6237 Q1359.25 31.1352 1360.91 35.9153 Z" fill="#000000" fill-rule="nonzero" fill-opacity="1" /><path clip-path="url(#clip120)" d="M1413.62 65.7705 L1413.62 89.8329 L1406.12 89.8329 L1406.12 27.2059 L1413.62 27.2059 L1413.62 34.0924 Q1415.97 30.0415 1419.53 28.0971 Q1423.14 26.1121 1428.12 26.1121 Q1436.38 26.1121 1441.53 32.6746 Q1446.71 39.2371 1446.71 49.9314 Q1446.71 60.6258 1441.53 67.1883 Q1436.38 73.7508 1428.12 73.7508 Q1423.14 73.7508 1419.53 71.8063 Q1415.97 69.8214 1413.62 65.7705 M1438.98 49.9314 Q1438.98 41.7081 1435.57 37.0496 Q1432.21 32.3505 1426.3 32.3505 Q1420.38 32.3505 1416.98 37.0496 Q1413.62 41.7081 1413.62 49.9314 Q1413.62 58.1548 1416.98 62.8538 Q1420.38 67.5124 1426.3 67.5124 Q1432.21 67.5124 1435.57 62.8538 Q1438.98 58.1548 1438.98 49.9314 Z" fill="#000000" fill-rule="nonzero" fill-opacity="1" /><path clip-path="url(#clip120)" d="M1459.07 9.54393 L1466.52 9.54393 L1466.52 72.576 L1459.07 72.576 L1459.07 9.54393 Z" fill="#000000" fill-rule="nonzero" fill-opacity="1" /><path clip-path="url(#clip120)" d="M1520.93 48.0275 L1520.93 51.6733 L1486.66 51.6733 Q1487.14 59.3701 1491.27 63.421 Q1495.45 67.4314 1502.86 67.4314 Q1507.15 67.4314 1511.16 66.3781 Q1515.21 65.3249 1519.18 63.2184 L1519.18 70.267 Q1515.17 71.9684 1510.96 72.8596 Q1506.75 73.7508 1502.41 73.7508 Q1491.56 73.7508 1485.2 67.4314 Q1478.88 61.1119 1478.88 50.3365 Q1478.88 39.1965 1484.87 32.6746 Q1490.91 26.1121 1501.12 26.1121 Q1510.27 26.1121 1515.58 32.0264 Q1520.93 37.9003 1520.93 48.0275 M1513.47 45.84 Q1513.39 39.7232 1510.03 36.0774 Q1506.71 32.4315 1501.2 32.4315 Q1494.96 32.4315 1491.19 35.9558 Q1487.47 39.4801 1486.9 45.8805 L1513.47 45.84 Z" fill="#000000" fill-rule="nonzero" fill-opacity="1" /><path clip-path="url(#clip120)" d="M1563.01 34.0924 L1563.01 9.54393 L1570.47 9.54393 L1570.47 72.576 L1563.01 72.576 L1563.01 65.7705 Q1560.67 69.8214 1557.06 71.8063 Q1553.49 73.7508 1548.47 73.7508 Q1540.25 73.7508 1535.06 67.1883 Q1529.92 60.6258 1529.92 49.9314 Q1529.92 39.2371 1535.06 32.6746 Q1540.25 26.1121 1548.47 26.1121 Q1553.49 26.1121 1557.06 28.0971 Q1560.67 30.0415 1563.01 34.0924 M1537.62 49.9314 Q1537.62 58.1548 1540.98 62.8538 Q1544.38 67.5124 1550.29 67.5124 Q1556.21 67.5124 1559.61 62.8538 Q1563.01 58.1548 1563.01 49.9314 Q1563.01 41.7081 1559.61 37.0496 Q1556.21 32.3505 1550.29 32.3505 Q1544.38 32.3505 1540.98 37.0496 Q1537.62 41.7081 1537.62 49.9314 Z" fill="#000000" fill-rule="nonzero" fill-opacity="1" /><path clip-path="url(#clip120)" d="M1612.52 12.096 L1620.7 12.096 L1620.7 65.6895 L1650.15 65.6895 L1650.15 72.576 L1612.52 72.576 L1612.52 12.096 Z" fill="#000000" fill-rule="nonzero" fill-opacity="1" /><path clip-path="url(#clip120)" d="M1660.88 65.6895 L1674.25 65.6895 L1674.25 19.5497 L1659.71 22.4663 L1659.71 15.0127 L1674.17 12.096 L1682.35 12.096 L1682.35 65.6895 L1695.72 65.6895 L1695.72 72.576 L1660.88 72.576 L1660.88 65.6895 Z" fill="#000000" fill-rule="nonzero" fill-opacity="1" /><path clip-path="url(#clip120)" d="M1776.38 48.0275 L1776.38 51.6733 L1742.11 51.6733 Q1742.59 59.3701 1746.72 63.421 Q1750.9 67.4314 1758.31 67.4314 Q1762.6 67.4314 1766.61 66.3781 Q1770.66 65.3249 1774.63 63.2184 L1774.63 70.267 Q1770.62 71.9684 1766.41 72.8596 Q1762.2 73.7508 1757.86 73.7508 Q1747.01 73.7508 1740.65 67.4314 Q1734.33 61.1119 1734.33 50.3365 Q1734.33 39.1965 1740.32 32.6746 Q1746.36 26.1121 1756.57 26.1121 Q1765.72 26.1121 1771.03 32.0264 Q1776.38 37.9003 1776.38 48.0275 M1768.92 45.84 Q1768.84 39.7232 1765.48 36.0774 Q1762.16 32.4315 1756.65 32.4315 Q1750.41 32.4315 1746.64 35.9558 Q1742.92 39.4801 1742.35 45.8805 L1768.92 45.84 Z" fill="#000000" fill-rule="nonzero" fill-opacity="1" /><path clip-path="url(#clip120)" d="M1814.9 34.1734 Q1813.64 33.4443 1812.15 33.1202 Q1810.69 32.7556 1808.9 32.7556 Q1802.59 32.7556 1799.18 36.8875 Q1795.82 40.9789 1795.82 48.6757 L1795.82 72.576 L1788.33 72.576 L1788.33 27.2059 L1795.82 27.2059 L1795.82 34.2544 Q1798.17 30.1225 1801.94 28.1376 Q1805.7 26.1121 1811.09 26.1121 Q1811.86 26.1121 1812.79 26.2337 Q1813.73 26.3147 1814.86 26.5172 L1814.9 34.1734 Z" fill="#000000" fill-rule="nonzero" fill-opacity="1" /><path clip-path="url(#clip120)" d="M1847.55 34.1734 Q1846.29 33.4443 1844.8 33.1202 Q1843.34 32.7556 1841.55 32.7556 Q1835.24 32.7556 1831.83 36.8875 Q1828.47 40.9789 1828.47 48.6757 L1828.47 72.576 L1820.98 72.576 L1820.98 27.2059 L1828.47 27.2059 L1828.47 34.2544 Q1830.82 30.1225 1834.59 28.1376 Q1838.35 26.1121 1843.74 26.1121 Q1844.51 26.1121 1845.44 26.2337 Q1846.38 26.3147 1847.51 26.5172 L1847.55 34.1734 Z" fill="#000000" fill-rule="nonzero" fill-opacity="1" /><path clip-path="url(#clip120)" d="M1871.13 32.4315 Q1865.13 32.4315 1861.65 37.1306 Q1858.16 41.7891 1858.16 49.9314 Q1858.16 58.0738 1861.61 62.7728 Q1865.09 67.4314 1871.13 67.4314 Q1877.08 67.4314 1880.56 62.7323 Q1884.05 58.0333 1884.05 49.9314 Q1884.05 41.8701 1880.56 37.1711 Q1877.08 32.4315 1871.13 32.4315 M1871.13 26.1121 Q1880.85 26.1121 1886.4 32.4315 Q1891.95 38.7509 1891.95 49.9314 Q1891.95 61.0714 1886.4 67.4314 Q1880.85 73.7508 1871.13 73.7508 Q1861.36 73.7508 1855.81 67.4314 Q1850.3 61.0714 1850.3 49.9314 Q1850.3 38.7509 1855.81 32.4315 Q1861.36 26.1121 1871.13 26.1121 Z" fill="#000000" fill-rule="nonzero" fill-opacity="1" /><path clip-path="url(#clip120)" d="M1930.59 34.1734 Q1929.34 33.4443 1927.84 33.1202 Q1926.38 32.7556 1924.6 32.7556 Q1918.28 32.7556 1914.88 36.8875 Q1911.51 40.9789 1911.51 48.6757 L1911.51 72.576 L1904.02 72.576 L1904.02 27.2059 L1911.51 27.2059 L1911.51 34.2544 Q1913.86 30.1225 1917.63 28.1376 Q1921.4 26.1121 1926.79 26.1121 Q1927.56 26.1121 1928.49 26.2337 Q1929.42 26.3147 1930.55 26.5172 L1930.59 34.1734 Z" fill="#000000" fill-rule="nonzero" fill-opacity="1" /><polyline clip-path="url(#clip122)" style="stroke:#009af9; stroke-linecap:round; stroke-linejoin:round; stroke-width:4; stroke-opacity:1; fill:none" points="335.627,160.256 553.224,265.005 770.822,373.986 988.419,471.353 1206.02,1012.57 1423.61,1337.77 1641.21,1384.77 1858.81,1383.61 2076.41,1385.01 2294,1381.54 "/>
<path clip-path="url(#clip122)" d="M335.627 176.256 L324.315 171.568 L319.627 160.256 L324.315 148.944 L335.627 144.256 L346.939 148.944 L351.627 160.256 L346.939 171.568 Z" fill="#009af9" fill-rule="evenodd" fill-opacity="1" stroke="#000000" stroke-opacity="1" stroke-width="3.2"/>
<path clip-path="url(#clip122)" d="M553.224 281.005 L541.912 276.317 L537.224 265.005 L541.912 253.693 L553.224 249.005 L564.536 253.693 L569.224 265.005 L564.536 276.317 Z" fill="#009af9" fill-rule="evenodd" fill-opacity="1" stroke="#000000" stroke-opacity="1" stroke-width="3.2"/>
<path clip-path="url(#clip122)" d="M770.822 389.986 L759.51 385.298 L754.822 373.986 L759.51 362.674 L770.822 357.986 L782.134 362.674 L786.822 373.986 L782.134 385.298 Z" fill="#009af9" fill-rule="evenodd" fill-opacity="1" stroke="#000000" stroke-opacity="1" stroke-width="3.2"/>
<path clip-path="url(#clip122)" d="M988.419 487.353 L977.107 482.665 L972.419 471.353 L977.107 460.041 L988.419 455.353 L999.731 460.041 L1004.42 471.353 L999.731 482.665 Z" fill="#009af9" fill-rule="evenodd" fill-opacity="1" stroke="#000000" stroke-opacity="1" stroke-width="3.2"/>
<path clip-path="url(#clip122)" d="M1206.02 1028.57 L1194.7 1023.88 L1190.02 1012.57 L1194.7 1001.26 L1206.02 996.568 L1217.33 1001.26 L1222.02 1012.57 L1217.33 1023.88 Z" fill="#009af9" fill-rule="evenodd" fill-opacity="1" stroke="#000000" stroke-opacity="1" stroke-width="3.2"/>
<path clip-path="url(#clip122)" d="M1423.61 1353.77 L1412.3 1349.08 L1407.61 1337.77 L1412.3 1326.46 L1423.61 1321.77 L1434.93 1326.46 L1439.61 1337.77 L1434.93 1349.08 Z" fill="#009af9" fill-rule="evenodd" fill-opacity="1" stroke="#000000" stroke-opacity="1" stroke-width="3.2"/>
<path clip-path="url(#clip122)" d="M1641.21 1400.77 L1629.9 1396.08 L1625.21 1384.77 L1629.9 1373.46 L1641.21 1368.77 L1652.52 1373.46 L1657.21 1384.77 L1652.52 1396.08 Z" fill="#009af9" fill-rule="evenodd" fill-opacity="1" stroke="#000000" stroke-opacity="1" stroke-width="3.2"/>
<path clip-path="url(#clip122)" d="M1858.81 1399.61 L1847.5 1394.92 L1842.81 1383.61 L1847.5 1372.29 L1858.81 1367.61 L1870.12 1372.29 L1874.81 1383.61 L1870.12 1394.92 Z" fill="#009af9" fill-rule="evenodd" fill-opacity="1" stroke="#000000" stroke-opacity="1" stroke-width="3.2"/>
<path clip-path="url(#clip122)" d="M2076.41 1401.01 L2065.1 1396.32 L2060.41 1385.01 L2065.1 1373.7 L2076.41 1369.01 L2087.72 1373.7 L2092.41 1385.01 L2087.72 1396.32 Z" fill="#009af9" fill-rule="evenodd" fill-opacity="1" stroke="#000000" stroke-opacity="1" stroke-width="3.2"/>
<path clip-path="url(#clip122)" d="M2294 1397.54 L2282.69 1392.85 L2278 1381.54 L2282.69 1370.23 L2294 1365.54 L2305.32 1370.23 L2310 1381.54 L2305.32 1392.85 Z" fill="#009af9" fill-rule="evenodd" fill-opacity="1" stroke="#000000" stroke-opacity="1" stroke-width="3.2"/>
<polyline clip-path="url(#clip122)" style="stroke:#e26f46; stroke-linecap:round; stroke-linejoin:round; stroke-width:4; stroke-opacity:1; fill:none" points="335.627,160.479 553.224,228.428 770.822,312.71 988.419,417.083 1206.02,718.93 1423.61,963.424 1641.21,1292.82 1858.81,1373.51 2076.41,1372.68 2294,1373.12 "/>
<path clip-path="url(#clip122)" d="M335.627 176.479 L324.315 171.791 L319.627 160.479 L324.315 149.167 L335.627 144.479 L346.939 149.167 L351.627 160.479 L346.939 171.791 Z" fill="#e26f46" fill-rule="evenodd" fill-opacity="1" stroke="#000000" stroke-opacity="1" stroke-width="3.2"/>
<path clip-path="url(#clip122)" d="M553.224 244.428 L541.912 239.74 L537.224 228.428 L541.912 217.116 L553.224 212.428 L564.536 217.116 L569.224 228.428 L564.536 239.74 Z" fill="#e26f46" fill-rule="evenodd" fill-opacity="1" stroke="#000000" stroke-opacity="1" stroke-width="3.2"/>
<path clip-path="url(#clip122)" d="M770.822 328.71 L759.51 324.022 L754.822 312.71 L759.51 301.398 L770.822 296.71 L782.134 301.398 L786.822 312.71 L782.134 324.022 Z" fill="#e26f46" fill-rule="evenodd" fill-opacity="1" stroke="#000000" stroke-opacity="1" stroke-width="3.2"/>
<path clip-path="url(#clip122)" d="M988.419 433.083 L977.107 428.395 L972.419 417.083 L977.107 405.771 L988.419 401.083 L999.731 405.771 L1004.42 417.083 L999.731 428.395 Z" fill="#e26f46" fill-rule="evenodd" fill-opacity="1" stroke="#000000" stroke-opacity="1" stroke-width="3.2"/>
<path clip-path="url(#clip122)" d="M1206.02 734.93 L1194.7 730.242 L1190.02 718.93 L1194.7 707.618 L1206.02 702.93 L1217.33 707.618 L1222.02 718.93 L1217.33 730.242 Z" fill="#e26f46" fill-rule="evenodd" fill-opacity="1" stroke="#000000" stroke-opacity="1" stroke-width="3.2"/>
<path clip-path="url(#clip122)" d="M1423.61 979.424 L1412.3 974.736 L1407.61 963.424 L1412.3 952.112 L1423.61 947.424 L1434.93 952.112 L1439.61 963.424 L1434.93 974.736 Z" fill="#e26f46" fill-rule="evenodd" fill-opacity="1" stroke="#000000" stroke-opacity="1" stroke-width="3.2"/>
<path clip-path="url(#clip122)" d="M1641.21 1308.82 L1629.9 1304.13 L1625.21 1292.82 L1629.9 1281.51 L1641.21 1276.82 L1652.52 1281.51 L1657.21 1292.82 L1652.52 1304.13 Z" fill="#e26f46" fill-rule="evenodd" fill-opacity="1" stroke="#000000" stroke-opacity="1" stroke-width="3.2"/>
<path clip-path="url(#clip122)" d="M1858.81 1389.51 L1847.5 1384.82 L1842.81 1373.51 L1847.5 1362.2 L1858.81 1357.51 L1870.12 1362.2 L1874.81 1373.51 L1870.12 1384.82 Z" fill="#e26f46" fill-rule="evenodd" fill-opacity="1" stroke="#000000" stroke-opacity="1" stroke-width="3.2"/>
<path clip-path="url(#clip122)" d="M2076.41 1388.68 L2065.1 1383.99 L2060.41 1372.68 L2065.1 1361.37 L2076.41 1356.68 L2087.72 1361.37 L2092.41 1372.68 L2087.72 1383.99 Z" fill="#e26f46" fill-rule="evenodd" fill-opacity="1" stroke="#000000" stroke-opacity="1" stroke-width="3.2"/>
<path clip-path="url(#clip122)" d="M2294 1389.12 L2282.69 1384.43 L2278 1373.12 L2282.69 1361.8 L2294 1357.12 L2305.32 1361.8 L2310 1373.12 L2305.32 1384.43 Z" fill="#e26f46" fill-rule="evenodd" fill-opacity="1" stroke="#000000" stroke-opacity="1" stroke-width="3.2"/>
<polyline clip-path="url(#clip122)" style="stroke:#3da44d; stroke-linecap:round; stroke-linejoin:round; stroke-width:4; stroke-opacity:1; fill:none" points="335.627,204.669 553.224,275.868 770.822,366.187 988.419,473.786 1206.02,1322.82 1423.61,1384.79 1641.21,1385.12 1858.81,1383.03 2076.41,1385.54 2294,1384.95 "/>
<path clip-path="url(#clip122)" d="M335.627 220.669 L324.315 215.981 L319.627 204.669 L324.315 193.357 L335.627 188.669 L346.939 193.357 L351.627 204.669 L346.939 215.981 Z" fill="#3da44d" fill-rule="evenodd" fill-opacity="1" stroke="#000000" stroke-opacity="1" stroke-width="3.2"/>
<path clip-path="url(#clip122)" d="M553.224 291.868 L541.912 287.18 L537.224 275.868 L541.912 264.556 L553.224 259.868 L564.536 264.556 L569.224 275.868 L564.536 287.18 Z" fill="#3da44d" fill-rule="evenodd" fill-opacity="1" stroke="#000000" stroke-opacity="1" stroke-width="3.2"/>
<path clip-path="url(#clip122)" d="M770.822 382.187 L759.51 377.499 L754.822 366.187 L759.51 354.875 L770.822 350.187 L782.134 354.875 L786.822 366.187 L782.134 377.499 Z" fill="#3da44d" fill-rule="evenodd" fill-opacity="1" stroke="#000000" stroke-opacity="1" stroke-width="3.2"/>
<path clip-path="url(#clip122)" d="M988.419 489.786 L977.107 485.098 L972.419 473.786 L977.107 462.474 L988.419 457.786 L999.731 462.474 L1004.42 473.786 L999.731 485.098 Z" fill="#3da44d" fill-rule="evenodd" fill-opacity="1" stroke="#000000" stroke-opacity="1" stroke-width="3.2"/>
<path clip-path="url(#clip122)" d="M1206.02 1338.82 L1194.7 1334.13 L1190.02 1322.82 L1194.7 1311.5 L1206.02 1306.82 L1217.33 1311.5 L1222.02 1322.82 L1217.33 1334.13 Z" fill="#3da44d" fill-rule="evenodd" fill-opacity="1" stroke="#000000" stroke-opacity="1" stroke-width="3.2"/>
<path clip-path="url(#clip122)" d="M1423.61 1400.79 L1412.3 1396.1 L1407.61 1384.79 L1412.3 1373.48 L1423.61 1368.79 L1434.93 1373.48 L1439.61 1384.79 L1434.93 1396.1 Z" fill="#3da44d" fill-rule="evenodd" fill-opacity="1" stroke="#000000" stroke-opacity="1" stroke-width="3.2"/>
<path clip-path="url(#clip122)" d="M1641.21 1401.12 L1629.9 1396.43 L1625.21 1385.12 L1629.9 1373.81 L1641.21 1369.12 L1652.52 1373.81 L1657.21 1385.12 L1652.52 1396.43 Z" fill="#3da44d" fill-rule="evenodd" fill-opacity="1" stroke="#000000" stroke-opacity="1" stroke-width="3.2"/>
<path clip-path="url(#clip122)" d="M1858.81 1399.03 L1847.5 1394.35 L1842.81 1383.03 L1847.5 1371.72 L1858.81 1367.03 L1870.12 1371.72 L1874.81 1383.03 L1870.12 1394.35 Z" fill="#3da44d" fill-rule="evenodd" fill-opacity="1" stroke="#000000" stroke-opacity="1" stroke-width="3.2"/>
<path clip-path="url(#clip122)" d="M2076.41 1401.54 L2065.1 1396.85 L2060.41 1385.54 L2065.1 1374.22 L2076.41 1369.54 L2087.72 1374.22 L2092.41 1385.54 L2087.72 1396.85 Z" fill="#3da44d" fill-rule="evenodd" fill-opacity="1" stroke="#000000" stroke-opacity="1" stroke-width="3.2"/>
<path clip-path="url(#clip122)" d="M2294 1400.95 L2282.69 1396.26 L2278 1384.95 L2282.69 1373.64 L2294 1368.95 L2305.32 1373.64 L2310 1384.95 L2305.32 1396.26 Z" fill="#3da44d" fill-rule="evenodd" fill-opacity="1" stroke="#000000" stroke-opacity="1" stroke-width="3.2"/>
<polyline clip-path="url(#clip122)" style="stroke:#c271d2; stroke-linecap:round; stroke-linejoin:round; stroke-width:4; stroke-opacity:1; fill:none" points="335.627,164.655 553.224,229.133 770.822,313.749 988.419,413.883 1206.02,721.838 1423.61,965.371 1641.21,1299.52 1858.81,1386.4 2076.41,1385.54 2294,1385.77 "/>
<path clip-path="url(#clip122)" d="M335.627 180.655 L324.315 175.967 L319.627 164.655 L324.315 153.343 L335.627 148.655 L346.939 153.343 L351.627 164.655 L346.939 175.967 Z" fill="#c271d2" fill-rule="evenodd" fill-opacity="1" stroke="#000000" stroke-opacity="1" stroke-width="3.2"/>
<path clip-path="url(#clip122)" d="M553.224 245.133 L541.912 240.445 L537.224 229.133 L541.912 217.821 L553.224 213.133 L564.536 217.821 L569.224 229.133 L564.536 240.445 Z" fill="#c271d2" fill-rule="evenodd" fill-opacity="1" stroke="#000000" stroke-opacity="1" stroke-width="3.2"/>
<path clip-path="url(#clip122)" d="M770.822 329.749 L759.51 325.061 L754.822 313.749 L759.51 302.437 L770.822 297.749 L782.134 302.437 L786.822 313.749 L782.134 325.061 Z" fill="#c271d2" fill-rule="evenodd" fill-opacity="1" stroke="#000000" stroke-opacity="1" stroke-width="3.2"/>
<path clip-path="url(#clip122)" d="M988.419 429.883 L977.107 425.195 L972.419 413.883 L977.107 402.571 L988.419 397.883 L999.731 402.571 L1004.42 413.883 L999.731 425.195 Z" fill="#c271d2" fill-rule="evenodd" fill-opacity="1" stroke="#000000" stroke-opacity="1" stroke-width="3.2"/>
<path clip-path="url(#clip122)" d="M1206.02 737.838 L1194.7 733.15 L1190.02 721.838 L1194.7 710.526 L1206.02 705.838 L1217.33 710.526 L1222.02 721.838 L1217.33 733.15 Z" fill="#c271d2" fill-rule="evenodd" fill-opacity="1" stroke="#000000" stroke-opacity="1" stroke-width="3.2"/>
<path clip-path="url(#clip122)" d="M1423.61 981.371 L1412.3 976.683 L1407.61 965.371 L1412.3 954.059 L1423.61 949.371 L1434.93 954.059 L1439.61 965.371 L1434.93 976.683 Z" fill="#c271d2" fill-rule="evenodd" fill-opacity="1" stroke="#000000" stroke-opacity="1" stroke-width="3.2"/>
<path clip-path="url(#clip122)" d="M1641.21 1315.52 L1629.9 1310.83 L1625.21 1299.52 L1629.9 1288.21 L1641.21 1283.52 L1652.52 1288.21 L1657.21 1299.52 L1652.52 1310.83 Z" fill="#c271d2" fill-rule="evenodd" fill-opacity="1" stroke="#000000" stroke-opacity="1" stroke-width="3.2"/>
<path clip-path="url(#clip122)" d="M1858.81 1402.4 L1847.5 1397.71 L1842.81 1386.4 L1847.5 1375.08 L1858.81 1370.4 L1870.12 1375.08 L1874.81 1386.4 L1870.12 1397.71 Z" fill="#c271d2" fill-rule="evenodd" fill-opacity="1" stroke="#000000" stroke-opacity="1" stroke-width="3.2"/>
<path clip-path="url(#clip122)" d="M2076.41 1401.54 L2065.1 1396.86 L2060.41 1385.54 L2065.1 1374.23 L2076.41 1369.54 L2087.72 1374.23 L2092.41 1385.54 L2087.72 1396.86 Z" fill="#c271d2" fill-rule="evenodd" fill-opacity="1" stroke="#000000" stroke-opacity="1" stroke-width="3.2"/>
<path clip-path="url(#clip122)" d="M2294 1401.77 L2282.69 1397.08 L2278 1385.77 L2282.69 1374.46 L2294 1369.77 L2305.32 1374.46 L2310 1385.77 L2305.32 1397.08 Z" fill="#c271d2" fill-rule="evenodd" fill-opacity="1" stroke="#000000" stroke-opacity="1" stroke-width="3.2"/>
<path clip-path="url(#clip120)" d="M1655.21 425.996 L2283.56 425.996 L2283.56 166.796 L1655.21 166.796  Z" fill="#ffffff" fill-rule="evenodd" fill-opacity="1"/>
<polyline clip-path="url(#clip120)" style="stroke:#000000; stroke-linecap:round; stroke-linejoin:round; stroke-width:4; stroke-opacity:1; fill:none" points="1655.21,425.996 2283.56,425.996 2283.56,166.796 1655.21,166.796 1655.21,425.996 "/>
<polyline clip-path="url(#clip120)" style="stroke:#009af9; stroke-linecap:round; stroke-linejoin:round; stroke-width:4; stroke-opacity:1; fill:none" points="1678.28,218.636 1816.67,218.636 "/>
<path clip-path="url(#clip120)" d="M1747.47 239.993 L1732.37 233.735 L1726.11 218.636 L1732.37 203.536 L1747.47 197.279 L1762.57 203.536 L1768.83 218.636 L1762.57 233.735 Z" fill="#009af9" fill-rule="evenodd" fill-opacity="1" stroke="#000000" stroke-opacity="1" stroke-width="4.55111"/>
<path clip-path="url(#clip120)" d="M1855.75 204.527 Q1850.66 204.527 1847.65 208.323 Q1844.66 212.12 1844.66 218.67 Q1844.66 225.198 1847.65 228.994 Q1850.66 232.791 1855.75 232.791 Q1860.84 232.791 1863.81 228.994 Q1866.79 225.198 1866.79 218.67 Q1866.79 212.12 1863.81 208.323 Q1860.84 204.527 1855.75 204.527 M1862.3 235.291 L1868.46 242.027 L1862.81 242.027 L1857.7 236.494 Q1856.93 236.541 1856.52 236.564 Q1856.12 236.587 1855.75 236.587 Q1848.46 236.587 1844.08 231.726 Q1839.73 226.842 1839.73 218.67 Q1839.73 210.476 1844.08 205.615 Q1848.46 200.731 1855.75 200.731 Q1863.02 200.731 1867.37 205.615 Q1871.72 210.476 1871.72 218.67 Q1871.72 224.689 1869.29 228.971 Q1866.89 233.254 1862.3 235.291 Z" fill="#000000" fill-rule="nonzero" fill-opacity="1" /><path clip-path="url(#clip120)" d="M1874.25 201.356 L1903.48 201.356 L1903.48 205.291 L1891.21 205.291 L1891.21 235.916 L1886.52 235.916 L1886.52 205.291 L1874.25 205.291 L1874.25 201.356 Z" fill="#000000" fill-rule="nonzero" fill-opacity="1" /><path clip-path="url(#clip120)" d="M1902.37 201.356 L1931.61 201.356 L1931.61 205.291 L1919.34 205.291 L1919.34 235.916 L1914.64 235.916 L1914.64 205.291 L1902.37 205.291 L1902.37 201.356 Z" fill="#000000" fill-rule="nonzero" fill-opacity="1" /><path clip-path="url(#clip120)" d="M1955.64 243.786 L1955.64 247.096 L1931.01 247.096 L1931.01 243.786 L1955.64 243.786 Z" fill="#000000" fill-rule="nonzero" fill-opacity="1" /><path clip-path="url(#clip120)" d="M1959.82 201.356 L1964.5 201.356 L1964.5 235.916 L1959.82 235.916 L1959.82 201.356 Z" fill="#000000" fill-rule="nonzero" fill-opacity="1" /><path clip-path="url(#clip120)" d="M1995.17 220.268 L1995.17 235.916 L1990.91 235.916 L1990.91 220.407 Q1990.91 216.726 1989.48 214.897 Q1988.04 213.069 1985.17 213.069 Q1981.72 213.069 1979.73 215.268 Q1977.74 217.467 1977.74 221.263 L1977.74 235.916 L1973.46 235.916 L1973.46 209.99 L1977.74 209.99 L1977.74 214.018 Q1979.27 211.68 1981.33 210.522 Q1983.41 209.365 1986.12 209.365 Q1990.59 209.365 1992.88 212.143 Q1995.17 214.897 1995.17 220.268 Z" fill="#000000" fill-rule="nonzero" fill-opacity="1" /><path clip-path="url(#clip120)" d="M2007.88 202.629 L2007.88 209.99 L2016.65 209.99 L2016.65 213.3 L2007.88 213.3 L2007.88 227.374 Q2007.88 230.545 2008.74 231.448 Q2009.62 232.351 2012.28 232.351 L2016.65 232.351 L2016.65 235.916 L2012.28 235.916 Q2007.35 235.916 2005.47 234.087 Q2003.6 232.235 2003.6 227.374 L2003.6 213.3 L2000.47 213.3 L2000.47 209.99 L2003.6 209.99 L2003.6 202.629 L2007.88 202.629 Z" fill="#000000" fill-rule="nonzero" fill-opacity="1" /><path clip-path="url(#clip120)" d="M2041.95 243.786 L2041.95 247.096 L2017.32 247.096 L2017.32 243.786 L2041.95 243.786 Z" fill="#000000" fill-rule="nonzero" fill-opacity="1" /><path clip-path="url(#clip120)" d="M2066.14 214.967 Q2067.74 212.096 2069.96 210.731 Q2072.19 209.365 2075.19 209.365 Q2079.25 209.365 2081.44 212.212 Q2083.64 215.036 2083.64 220.268 L2083.64 235.916 L2079.36 235.916 L2079.36 220.407 Q2079.36 216.68 2078.04 214.874 Q2076.72 213.069 2074.01 213.069 Q2070.7 213.069 2068.78 215.268 Q2066.86 217.467 2066.86 221.263 L2066.86 235.916 L2062.58 235.916 L2062.58 220.407 Q2062.58 216.657 2061.26 214.874 Q2059.94 213.069 2057.19 213.069 Q2053.92 213.069 2052 215.291 Q2050.08 217.49 2050.08 221.263 L2050.08 235.916 L2045.8 235.916 L2045.8 209.99 L2050.08 209.99 L2050.08 214.018 Q2051.54 211.633 2053.57 210.499 Q2055.61 209.365 2058.41 209.365 Q2061.24 209.365 2063.2 210.8 Q2065.19 212.235 2066.14 214.967 Z" fill="#000000" fill-rule="nonzero" fill-opacity="1" /><path clip-path="url(#clip120)" d="M2103.92 222.883 Q2098.76 222.883 2096.77 224.064 Q2094.78 225.244 2094.78 228.092 Q2094.78 230.36 2096.26 231.703 Q2097.76 233.022 2100.33 233.022 Q2103.88 233.022 2106 230.522 Q2108.16 227.999 2108.16 223.832 L2108.16 222.883 L2103.92 222.883 M2112.42 221.124 L2112.42 235.916 L2108.16 235.916 L2108.16 231.981 Q2106.7 234.342 2104.52 235.476 Q2102.35 236.587 2099.2 236.587 Q2095.22 236.587 2092.86 234.365 Q2090.52 232.119 2090.52 228.369 Q2090.52 223.994 2093.44 221.772 Q2096.38 219.55 2102.19 219.55 L2108.16 219.55 L2108.16 219.133 Q2108.16 216.194 2106.21 214.596 Q2104.29 212.976 2100.8 212.976 Q2098.57 212.976 2096.47 213.508 Q2094.36 214.041 2092.42 215.106 L2092.42 211.17 Q2094.75 210.268 2096.95 209.828 Q2099.15 209.365 2101.24 209.365 Q2106.86 209.365 2109.64 212.282 Q2112.42 215.198 2112.42 221.124 Z" fill="#000000" fill-rule="nonzero" fill-opacity="1" /><path clip-path="url(#clip120)" d="M2142.74 209.99 L2133.37 222.606 L2143.23 235.916 L2138.2 235.916 L2130.66 225.731 L2123.11 235.916 L2118.09 235.916 L2128.16 222.351 L2118.94 209.99 L2123.97 209.99 L2130.84 219.226 L2137.72 209.99 L2142.74 209.99 Z" fill="#000000" fill-rule="nonzero" fill-opacity="1" /><path clip-path="url(#clip120)" d="M2166.31 213.925 L2166.31 199.897 L2170.56 199.897 L2170.56 235.916 L2166.31 235.916 L2166.31 232.027 Q2164.96 234.342 2162.9 235.476 Q2160.87 236.587 2158 236.587 Q2153.3 236.587 2150.33 232.837 Q2147.39 229.087 2147.39 222.976 Q2147.39 216.865 2150.33 213.115 Q2153.3 209.365 2158 209.365 Q2160.87 209.365 2162.9 210.499 Q2164.96 211.61 2166.31 213.925 M2151.79 222.976 Q2151.79 227.675 2153.71 230.36 Q2155.66 233.022 2159.04 233.022 Q2162.42 233.022 2164.36 230.36 Q2166.31 227.675 2166.31 222.976 Q2166.31 218.277 2164.36 215.615 Q2162.42 212.93 2159.04 212.93 Q2155.66 212.93 2153.71 215.615 Q2151.79 218.277 2151.79 222.976 Z" fill="#000000" fill-rule="nonzero" fill-opacity="1" /><path clip-path="url(#clip120)" d="M2201.51 221.888 L2201.51 223.971 L2181.93 223.971 Q2182.21 228.369 2184.57 230.684 Q2186.95 232.976 2191.19 232.976 Q2193.64 232.976 2195.93 232.374 Q2198.25 231.772 2200.52 230.569 L2200.52 234.596 Q2198.23 235.568 2195.82 236.078 Q2193.41 236.587 2190.93 236.587 Q2184.73 236.587 2181.1 232.976 Q2177.49 229.365 2177.49 223.207 Q2177.49 216.842 2180.91 213.115 Q2184.36 209.365 2190.19 209.365 Q2195.43 209.365 2198.46 212.745 Q2201.51 216.101 2201.51 221.888 M2197.25 220.638 Q2197.21 217.143 2195.29 215.059 Q2193.39 212.976 2190.24 212.976 Q2186.68 212.976 2184.52 214.99 Q2182.39 217.004 2182.07 220.661 L2197.25 220.638 Z" fill="#000000" fill-rule="nonzero" fill-opacity="1" /><path clip-path="url(#clip120)" d="M2225.56 222.652 Q2225.56 218.022 2223.64 215.476 Q2221.74 212.93 2218.3 212.93 Q2214.87 212.93 2212.95 215.476 Q2211.05 218.022 2211.05 222.652 Q2211.05 227.258 2212.95 229.805 Q2214.87 232.351 2218.3 232.351 Q2221.74 232.351 2223.64 229.805 Q2225.56 227.258 2225.56 222.652 M2229.82 232.698 Q2229.82 239.318 2226.88 242.536 Q2223.94 245.777 2217.88 245.777 Q2215.63 245.777 2213.64 245.43 Q2211.65 245.105 2209.78 244.411 L2209.78 240.268 Q2211.65 241.286 2213.48 241.772 Q2215.31 242.258 2217.21 242.258 Q2221.4 242.258 2223.48 240.059 Q2225.56 237.883 2225.56 233.462 L2225.56 231.356 Q2224.24 233.647 2222.18 234.781 Q2220.12 235.916 2217.25 235.916 Q2212.49 235.916 2209.57 232.281 Q2206.65 228.647 2206.65 222.652 Q2206.65 216.633 2209.57 212.999 Q2212.49 209.365 2217.25 209.365 Q2220.12 209.365 2222.18 210.499 Q2224.24 211.633 2225.56 213.925 L2225.56 209.99 L2229.82 209.99 L2229.82 232.698 Z" fill="#000000" fill-rule="nonzero" fill-opacity="1" /><path clip-path="url(#clip120)" d="M2243.23 231.981 L2259.55 231.981 L2259.55 235.916 L2237.6 235.916 L2237.6 231.981 Q2240.26 229.226 2244.85 224.596 Q2249.45 219.944 2250.63 218.601 Q2252.88 216.078 2253.76 214.342 Q2254.66 212.583 2254.66 210.893 Q2254.66 208.138 2252.72 206.402 Q2250.8 204.666 2247.69 204.666 Q2245.49 204.666 2243.04 205.43 Q2240.61 206.194 2237.83 207.745 L2237.83 203.022 Q2240.66 201.888 2243.11 201.309 Q2245.56 200.731 2247.6 200.731 Q2252.97 200.731 2256.17 203.416 Q2259.36 206.101 2259.36 210.592 Q2259.36 212.721 2258.55 214.643 Q2257.76 216.541 2255.66 219.133 Q2255.08 219.805 2251.98 223.022 Q2248.87 226.217 2243.23 231.981 Z" fill="#000000" fill-rule="nonzero" fill-opacity="1" /><polyline clip-path="url(#clip120)" style="stroke:#e26f46; stroke-linecap:round; stroke-linejoin:round; stroke-width:4; stroke-opacity:1; fill:none" points="1678.28,270.476 1816.67,270.476 "/>
<path clip-path="url(#clip120)" d="M1747.47 291.833 L1732.37 285.575 L1726.11 270.476 L1732.37 255.376 L1747.47 249.119 L1762.57 255.376 L1768.83 270.476 L1762.57 285.575 Z" fill="#e26f46" fill-rule="evenodd" fill-opacity="1" stroke="#000000" stroke-opacity="1" stroke-width="4.55111"/>
<path clip-path="url(#clip120)" d="M1855.75 256.367 Q1850.66 256.367 1847.65 260.163 Q1844.66 263.96 1844.66 270.51 Q1844.66 277.038 1847.65 280.834 Q1850.66 284.631 1855.75 284.631 Q1860.84 284.631 1863.81 280.834 Q1866.79 277.038 1866.79 270.51 Q1866.79 263.96 1863.81 260.163 Q1860.84 256.367 1855.75 256.367 M1862.3 287.131 L1868.46 293.867 L1862.81 293.867 L1857.7 288.334 Q1856.93 288.381 1856.52 288.404 Q1856.12 288.427 1855.75 288.427 Q1848.46 288.427 1844.08 283.566 Q1839.73 278.682 1839.73 270.51 Q1839.73 262.316 1844.08 257.455 Q1848.46 252.571 1855.75 252.571 Q1863.02 252.571 1867.37 257.455 Q1871.72 262.316 1871.72 270.51 Q1871.72 276.529 1869.29 280.811 Q1866.89 285.094 1862.3 287.131 Z" fill="#000000" fill-rule="nonzero" fill-opacity="1" /><path clip-path="url(#clip120)" d="M1874.25 253.196 L1903.48 253.196 L1903.48 257.131 L1891.21 257.131 L1891.21 287.756 L1886.52 287.756 L1886.52 257.131 L1874.25 257.131 L1874.25 253.196 Z" fill="#000000" fill-rule="nonzero" fill-opacity="1" /><path clip-path="url(#clip120)" d="M1902.37 253.196 L1931.61 253.196 L1931.61 257.131 L1919.34 257.131 L1919.34 287.756 L1914.64 287.756 L1914.64 257.131 L1902.37 257.131 L1902.37 253.196 Z" fill="#000000" fill-rule="nonzero" fill-opacity="1" /><path clip-path="url(#clip120)" d="M1955.64 295.626 L1955.64 298.936 L1931.01 298.936 L1931.01 295.626 L1955.64 295.626 Z" fill="#000000" fill-rule="nonzero" fill-opacity="1" /><path clip-path="url(#clip120)" d="M1959.82 253.196 L1964.5 253.196 L1964.5 287.756 L1959.82 287.756 L1959.82 253.196 Z" fill="#000000" fill-rule="nonzero" fill-opacity="1" /><path clip-path="url(#clip120)" d="M1995.17 272.108 L1995.17 287.756 L1990.91 287.756 L1990.91 272.247 Q1990.91 268.566 1989.48 266.737 Q1988.04 264.909 1985.17 264.909 Q1981.72 264.909 1979.73 267.108 Q1977.74 269.307 1977.74 273.103 L1977.74 287.756 L1973.46 287.756 L1973.46 261.83 L1977.74 261.83 L1977.74 265.858 Q1979.27 263.52 1981.33 262.362 Q1983.41 261.205 1986.12 261.205 Q1990.59 261.205 1992.88 263.983 Q1995.17 266.737 1995.17 272.108 Z" fill="#000000" fill-rule="nonzero" fill-opacity="1" /><path clip-path="url(#clip120)" d="M2007.88 254.469 L2007.88 261.83 L2016.65 261.83 L2016.65 265.14 L2007.88 265.14 L2007.88 279.214 Q2007.88 282.385 2008.74 283.288 Q2009.62 284.191 2012.28 284.191 L2016.65 284.191 L2016.65 287.756 L2012.28 287.756 Q2007.35 287.756 2005.47 285.927 Q2003.6 284.075 2003.6 279.214 L2003.6 265.14 L2000.47 265.14 L2000.47 261.83 L2003.6 261.83 L2003.6 254.469 L2007.88 254.469 Z" fill="#000000" fill-rule="nonzero" fill-opacity="1" /><polyline clip-path="url(#clip120)" style="stroke:#3da44d; stroke-linecap:round; stroke-linejoin:round; stroke-width:4; stroke-opacity:1; fill:none" points="1678.28,322.316 1816.67,322.316 "/>
<path clip-path="url(#clip120)" d="M1747.47 343.673 L1732.37 337.415 L1726.11 322.316 L1732.37 307.216 L1747.47 300.959 L1762.57 307.216 L1768.83 322.316 L1762.57 337.415 Z" fill="#3da44d" fill-rule="evenodd" fill-opacity="1" stroke="#000000" stroke-opacity="1" stroke-width="4.55111"/>
<path clip-path="url(#clip120)" d="M1855.75 308.207 Q1850.66 308.207 1847.65 312.003 Q1844.66 315.8 1844.66 322.35 Q1844.66 328.878 1847.65 332.674 Q1850.66 336.471 1855.75 336.471 Q1860.84 336.471 1863.81 332.674 Q1866.79 328.878 1866.79 322.35 Q1866.79 315.8 1863.81 312.003 Q1860.84 308.207 1855.75 308.207 M1862.3 338.971 L1868.46 345.707 L1862.81 345.707 L1857.7 340.174 Q1856.93 340.221 1856.52 340.244 Q1856.12 340.267 1855.75 340.267 Q1848.46 340.267 1844.08 335.406 Q1839.73 330.522 1839.73 322.35 Q1839.73 314.156 1844.08 309.295 Q1848.46 304.411 1855.75 304.411 Q1863.02 304.411 1867.37 309.295 Q1871.72 314.156 1871.72 322.35 Q1871.72 328.369 1869.29 332.651 Q1866.89 336.934 1862.3 338.971 Z" fill="#000000" fill-rule="nonzero" fill-opacity="1" /><path clip-path="url(#clip120)" d="M1874.25 305.036 L1903.48 305.036 L1903.48 308.971 L1891.21 308.971 L1891.21 339.596 L1886.52 339.596 L1886.52 308.971 L1874.25 308.971 L1874.25 305.036 Z" fill="#000000" fill-rule="nonzero" fill-opacity="1" /><path clip-path="url(#clip120)" d="M1902.37 305.036 L1931.61 305.036 L1931.61 308.971 L1919.34 308.971 L1919.34 339.596 L1914.64 339.596 L1914.64 308.971 L1902.37 308.971 L1902.37 305.036 Z" fill="#000000" fill-rule="nonzero" fill-opacity="1" /><path clip-path="url(#clip120)" d="M1955.64 347.466 L1955.64 350.776 L1931.01 350.776 L1931.01 347.466 L1955.64 347.466 Z" fill="#000000" fill-rule="nonzero" fill-opacity="1" /><path clip-path="url(#clip120)" d="M1959.82 305.036 L1964.5 305.036 L1964.5 339.596 L1959.82 339.596 L1959.82 305.036 Z" fill="#000000" fill-rule="nonzero" fill-opacity="1" /><path clip-path="url(#clip120)" d="M1995.17 323.948 L1995.17 339.596 L1990.91 339.596 L1990.91 324.087 Q1990.91 320.406 1989.48 318.577 Q1988.04 316.749 1985.17 316.749 Q1981.72 316.749 1979.73 318.948 Q1977.74 321.147 1977.74 324.943 L1977.74 339.596 L1973.46 339.596 L1973.46 313.67 L1977.74 313.67 L1977.74 317.698 Q1979.27 315.36 1981.33 314.202 Q1983.41 313.045 1986.12 313.045 Q1990.59 313.045 1992.88 315.823 Q1995.17 318.577 1995.17 323.948 Z" fill="#000000" fill-rule="nonzero" fill-opacity="1" /><path clip-path="url(#clip120)" d="M2007.88 306.309 L2007.88 313.67 L2016.65 313.67 L2016.65 316.98 L2007.88 316.98 L2007.88 331.054 Q2007.88 334.225 2008.74 335.128 Q2009.62 336.031 2012.28 336.031 L2016.65 336.031 L2016.65 339.596 L2012.28 339.596 Q2007.35 339.596 2005.47 337.767 Q2003.6 335.915 2003.6 331.054 L2003.6 316.98 L2000.47 316.98 L2000.47 313.67 L2003.6 313.67 L2003.6 306.309 L2007.88 306.309 Z" fill="#000000" fill-rule="nonzero" fill-opacity="1" /><path clip-path="url(#clip120)" d="M2041.95 347.466 L2041.95 350.776 L2017.32 350.776 L2017.32 347.466 L2041.95 347.466 Z" fill="#000000" fill-rule="nonzero" fill-opacity="1" /><path clip-path="url(#clip120)" d="M2066.14 318.647 Q2067.74 315.776 2069.96 314.411 Q2072.19 313.045 2075.19 313.045 Q2079.25 313.045 2081.44 315.892 Q2083.64 318.716 2083.64 323.948 L2083.64 339.596 L2079.36 339.596 L2079.36 324.087 Q2079.36 320.36 2078.04 318.554 Q2076.72 316.749 2074.01 316.749 Q2070.7 316.749 2068.78 318.948 Q2066.86 321.147 2066.86 324.943 L2066.86 339.596 L2062.58 339.596 L2062.58 324.087 Q2062.58 320.337 2061.26 318.554 Q2059.94 316.749 2057.19 316.749 Q2053.92 316.749 2052 318.971 Q2050.08 321.17 2050.08 324.943 L2050.08 339.596 L2045.8 339.596 L2045.8 313.67 L2050.08 313.67 L2050.08 317.698 Q2051.54 315.313 2053.57 314.179 Q2055.61 313.045 2058.41 313.045 Q2061.24 313.045 2063.2 314.48 Q2065.19 315.915 2066.14 318.647 Z" fill="#000000" fill-rule="nonzero" fill-opacity="1" /><path clip-path="url(#clip120)" d="M2103.92 326.563 Q2098.76 326.563 2096.77 327.744 Q2094.78 328.924 2094.78 331.772 Q2094.78 334.04 2096.26 335.383 Q2097.76 336.702 2100.33 336.702 Q2103.88 336.702 2106 334.202 Q2108.16 331.679 2108.16 327.512 L2108.16 326.563 L2103.92 326.563 M2112.42 324.804 L2112.42 339.596 L2108.16 339.596 L2108.16 335.661 Q2106.7 338.022 2104.52 339.156 Q2102.35 340.267 2099.2 340.267 Q2095.22 340.267 2092.86 338.045 Q2090.52 335.799 2090.52 332.049 Q2090.52 327.674 2093.44 325.452 Q2096.38 323.23 2102.19 323.23 L2108.16 323.23 L2108.16 322.813 Q2108.16 319.874 2106.21 318.276 Q2104.29 316.656 2100.8 316.656 Q2098.57 316.656 2096.47 317.188 Q2094.36 317.721 2092.42 318.786 L2092.42 314.85 Q2094.75 313.948 2096.95 313.508 Q2099.15 313.045 2101.24 313.045 Q2106.86 313.045 2109.64 315.962 Q2112.42 318.878 2112.42 324.804 Z" fill="#000000" fill-rule="nonzero" fill-opacity="1" /><path clip-path="url(#clip120)" d="M2142.74 313.67 L2133.37 326.286 L2143.23 339.596 L2138.2 339.596 L2130.66 329.411 L2123.11 339.596 L2118.09 339.596 L2128.16 326.031 L2118.94 313.67 L2123.97 313.67 L2130.84 322.906 L2137.72 313.67 L2142.74 313.67 Z" fill="#000000" fill-rule="nonzero" fill-opacity="1" /><path clip-path="url(#clip120)" d="M2166.31 317.605 L2166.31 303.577 L2170.56 303.577 L2170.56 339.596 L2166.31 339.596 L2166.31 335.707 Q2164.96 338.022 2162.9 339.156 Q2160.87 340.267 2158 340.267 Q2153.3 340.267 2150.33 336.517 Q2147.39 332.767 2147.39 326.656 Q2147.39 320.545 2150.33 316.795 Q2153.3 313.045 2158 313.045 Q2160.87 313.045 2162.9 314.179 Q2164.96 315.29 2166.31 317.605 M2151.79 326.656 Q2151.79 331.355 2153.71 334.04 Q2155.66 336.702 2159.04 336.702 Q2162.42 336.702 2164.36 334.04 Q2166.31 331.355 2166.31 326.656 Q2166.31 321.957 2164.36 319.295 Q2162.42 316.61 2159.04 316.61 Q2155.66 316.61 2153.71 319.295 Q2151.79 321.957 2151.79 326.656 Z" fill="#000000" fill-rule="nonzero" fill-opacity="1" /><path clip-path="url(#clip120)" d="M2201.51 325.568 L2201.51 327.651 L2181.93 327.651 Q2182.21 332.049 2184.57 334.364 Q2186.95 336.656 2191.19 336.656 Q2193.64 336.656 2195.93 336.054 Q2198.25 335.452 2200.52 334.249 L2200.52 338.276 Q2198.23 339.248 2195.82 339.758 Q2193.41 340.267 2190.93 340.267 Q2184.73 340.267 2181.1 336.656 Q2177.49 333.045 2177.49 326.887 Q2177.49 320.522 2180.91 316.795 Q2184.36 313.045 2190.19 313.045 Q2195.43 313.045 2198.46 316.425 Q2201.51 319.781 2201.51 325.568 M2197.25 324.318 Q2197.21 320.823 2195.29 318.739 Q2193.39 316.656 2190.24 316.656 Q2186.68 316.656 2184.52 318.67 Q2182.39 320.684 2182.07 324.341 L2197.25 324.318 Z" fill="#000000" fill-rule="nonzero" fill-opacity="1" /><path clip-path="url(#clip120)" d="M2225.56 326.332 Q2225.56 321.702 2223.64 319.156 Q2221.74 316.61 2218.3 316.61 Q2214.87 316.61 2212.95 319.156 Q2211.05 321.702 2211.05 326.332 Q2211.05 330.938 2212.95 333.485 Q2214.87 336.031 2218.3 336.031 Q2221.74 336.031 2223.64 333.485 Q2225.56 330.938 2225.56 326.332 M2229.82 336.378 Q2229.82 342.998 2226.88 346.216 Q2223.94 349.457 2217.88 349.457 Q2215.63 349.457 2213.64 349.11 Q2211.65 348.785 2209.78 348.091 L2209.78 343.948 Q2211.65 344.966 2213.48 345.452 Q2215.31 345.938 2217.21 345.938 Q2221.4 345.938 2223.48 343.739 Q2225.56 341.563 2225.56 337.142 L2225.56 335.036 Q2224.24 337.327 2222.18 338.461 Q2220.12 339.596 2217.25 339.596 Q2212.49 339.596 2209.57 335.961 Q2206.65 332.327 2206.65 326.332 Q2206.65 320.313 2209.57 316.679 Q2212.49 313.045 2217.25 313.045 Q2220.12 313.045 2222.18 314.179 Q2224.24 315.313 2225.56 317.605 L2225.56 313.67 L2229.82 313.67 L2229.82 336.378 Z" fill="#000000" fill-rule="nonzero" fill-opacity="1" /><path clip-path="url(#clip120)" d="M2253.36 320.962 Q2256.72 321.679 2258.6 323.948 Q2260.49 326.216 2260.49 329.549 Q2260.49 334.665 2256.98 337.466 Q2253.46 340.267 2246.98 340.267 Q2244.8 340.267 2242.49 339.827 Q2240.19 339.411 2237.74 338.554 L2237.74 334.04 Q2239.68 335.174 2242 335.753 Q2244.31 336.332 2246.84 336.332 Q2251.24 336.332 2253.53 334.596 Q2255.84 332.86 2255.84 329.549 Q2255.84 326.494 2253.69 324.781 Q2251.56 323.045 2247.74 323.045 L2243.71 323.045 L2243.71 319.202 L2247.93 319.202 Q2251.37 319.202 2253.2 317.837 Q2255.03 316.448 2255.03 313.855 Q2255.03 311.193 2253.13 309.781 Q2251.26 308.346 2247.74 308.346 Q2245.82 308.346 2243.62 308.763 Q2241.42 309.179 2238.78 310.059 L2238.78 305.892 Q2241.44 305.151 2243.76 304.781 Q2246.1 304.411 2248.16 304.411 Q2253.48 304.411 2256.58 306.841 Q2259.68 309.249 2259.68 313.369 Q2259.68 316.239 2258.04 318.23 Q2256.4 320.198 2253.36 320.962 Z" fill="#000000" fill-rule="nonzero" fill-opacity="1" /><polyline clip-path="url(#clip120)" style="stroke:#c271d2; stroke-linecap:round; stroke-linejoin:round; stroke-width:4; stroke-opacity:1; fill:none" points="1678.28,374.156 1816.67,374.156 "/>
<path clip-path="url(#clip120)" d="M1747.47 395.513 L1732.37 389.255 L1726.11 374.156 L1732.37 359.056 L1747.47 352.799 L1762.57 359.056 L1768.83 374.156 L1762.57 389.255 Z" fill="#c271d2" fill-rule="evenodd" fill-opacity="1" stroke="#000000" stroke-opacity="1" stroke-width="4.55111"/>
<path clip-path="url(#clip120)" d="M1855.75 360.047 Q1850.66 360.047 1847.65 363.843 Q1844.66 367.64 1844.66 374.19 Q1844.66 380.718 1847.65 384.514 Q1850.66 388.311 1855.75 388.311 Q1860.84 388.311 1863.81 384.514 Q1866.79 380.718 1866.79 374.19 Q1866.79 367.64 1863.81 363.843 Q1860.84 360.047 1855.75 360.047 M1862.3 390.811 L1868.46 397.547 L1862.81 397.547 L1857.7 392.014 Q1856.93 392.061 1856.52 392.084 Q1856.12 392.107 1855.75 392.107 Q1848.46 392.107 1844.08 387.246 Q1839.73 382.362 1839.73 374.19 Q1839.73 365.996 1844.08 361.135 Q1848.46 356.251 1855.75 356.251 Q1863.02 356.251 1867.37 361.135 Q1871.72 365.996 1871.72 374.19 Q1871.72 380.209 1869.29 384.491 Q1866.89 388.774 1862.3 390.811 Z" fill="#000000" fill-rule="nonzero" fill-opacity="1" /><path clip-path="url(#clip120)" d="M1874.25 356.876 L1903.48 356.876 L1903.48 360.811 L1891.21 360.811 L1891.21 391.436 L1886.52 391.436 L1886.52 360.811 L1874.25 360.811 L1874.25 356.876 Z" fill="#000000" fill-rule="nonzero" fill-opacity="1" /><path clip-path="url(#clip120)" d="M1902.37 356.876 L1931.61 356.876 L1931.61 360.811 L1919.34 360.811 L1919.34 391.436 L1914.64 391.436 L1914.64 360.811 L1902.37 360.811 L1902.37 356.876 Z" fill="#000000" fill-rule="nonzero" fill-opacity="1" /><path clip-path="url(#clip120)" d="M1955.64 399.306 L1955.64 402.616 L1931.01 402.616 L1931.01 399.306 L1955.64 399.306 Z" fill="#000000" fill-rule="nonzero" fill-opacity="1" /><path clip-path="url(#clip120)" d="M1959.82 356.876 L1964.5 356.876 L1964.5 391.436 L1959.82 391.436 L1959.82 356.876 Z" fill="#000000" fill-rule="nonzero" fill-opacity="1" /><path clip-path="url(#clip120)" d="M1995.17 375.788 L1995.17 391.436 L1990.91 391.436 L1990.91 375.927 Q1990.91 372.246 1989.48 370.417 Q1988.04 368.589 1985.17 368.589 Q1981.72 368.589 1979.73 370.788 Q1977.74 372.987 1977.74 376.783 L1977.74 391.436 L1973.46 391.436 L1973.46 365.51 L1977.74 365.51 L1977.74 369.538 Q1979.27 367.2 1981.33 366.042 Q1983.41 364.885 1986.12 364.885 Q1990.59 364.885 1992.88 367.663 Q1995.17 370.417 1995.17 375.788 Z" fill="#000000" fill-rule="nonzero" fill-opacity="1" /><path clip-path="url(#clip120)" d="M2007.88 358.149 L2007.88 365.51 L2016.65 365.51 L2016.65 368.82 L2007.88 368.82 L2007.88 382.894 Q2007.88 386.065 2008.74 386.968 Q2009.62 387.871 2012.28 387.871 L2016.65 387.871 L2016.65 391.436 L2012.28 391.436 Q2007.35 391.436 2005.47 389.607 Q2003.6 387.755 2003.6 382.894 L2003.6 368.82 L2000.47 368.82 L2000.47 365.51 L2003.6 365.51 L2003.6 358.149 L2007.88 358.149 Z" fill="#000000" fill-rule="nonzero" fill-opacity="1" /><path clip-path="url(#clip120)" d="M2041.95 399.306 L2041.95 402.616 L2017.32 402.616 L2017.32 399.306 L2041.95 399.306 Z" fill="#000000" fill-rule="nonzero" fill-opacity="1" /><path clip-path="url(#clip120)" d="M2066.14 370.487 Q2067.74 367.616 2069.96 366.251 Q2072.19 364.885 2075.19 364.885 Q2079.25 364.885 2081.44 367.732 Q2083.64 370.556 2083.64 375.788 L2083.64 391.436 L2079.36 391.436 L2079.36 375.927 Q2079.36 372.2 2078.04 370.394 Q2076.72 368.589 2074.01 368.589 Q2070.7 368.589 2068.78 370.788 Q2066.86 372.987 2066.86 376.783 L2066.86 391.436 L2062.58 391.436 L2062.58 375.927 Q2062.58 372.177 2061.26 370.394 Q2059.94 368.589 2057.19 368.589 Q2053.92 368.589 2052 370.811 Q2050.08 373.01 2050.08 376.783 L2050.08 391.436 L2045.8 391.436 L2045.8 365.51 L2050.08 365.51 L2050.08 369.538 Q2051.54 367.153 2053.57 366.019 Q2055.61 364.885 2058.41 364.885 Q2061.24 364.885 2063.2 366.32 Q2065.19 367.755 2066.14 370.487 Z" fill="#000000" fill-rule="nonzero" fill-opacity="1" /><path clip-path="url(#clip120)" d="M2103.92 378.403 Q2098.76 378.403 2096.77 379.584 Q2094.78 380.764 2094.78 383.612 Q2094.78 385.88 2096.26 387.223 Q2097.76 388.542 2100.33 388.542 Q2103.88 388.542 2106 386.042 Q2108.16 383.519 2108.16 379.352 L2108.16 378.403 L2103.92 378.403 M2112.42 376.644 L2112.42 391.436 L2108.16 391.436 L2108.16 387.501 Q2106.7 389.862 2104.52 390.996 Q2102.35 392.107 2099.2 392.107 Q2095.22 392.107 2092.86 389.885 Q2090.52 387.639 2090.52 383.889 Q2090.52 379.514 2093.44 377.292 Q2096.38 375.07 2102.19 375.07 L2108.16 375.07 L2108.16 374.653 Q2108.16 371.714 2106.21 370.116 Q2104.29 368.496 2100.8 368.496 Q2098.57 368.496 2096.47 369.028 Q2094.36 369.561 2092.42 370.626 L2092.42 366.69 Q2094.75 365.788 2096.95 365.348 Q2099.15 364.885 2101.24 364.885 Q2106.86 364.885 2109.64 367.802 Q2112.42 370.718 2112.42 376.644 Z" fill="#000000" fill-rule="nonzero" fill-opacity="1" /><path clip-path="url(#clip120)" d="M2142.74 365.51 L2133.37 378.126 L2143.23 391.436 L2138.2 391.436 L2130.66 381.251 L2123.11 391.436 L2118.09 391.436 L2128.16 377.871 L2118.94 365.51 L2123.97 365.51 L2130.84 374.746 L2137.72 365.51 L2142.74 365.51 Z" fill="#000000" fill-rule="nonzero" fill-opacity="1" /><path clip-path="url(#clip120)" d="M2166.31 369.445 L2166.31 355.417 L2170.56 355.417 L2170.56 391.436 L2166.31 391.436 L2166.31 387.547 Q2164.96 389.862 2162.9 390.996 Q2160.87 392.107 2158 392.107 Q2153.3 392.107 2150.33 388.357 Q2147.39 384.607 2147.39 378.496 Q2147.39 372.385 2150.33 368.635 Q2153.3 364.885 2158 364.885 Q2160.87 364.885 2162.9 366.019 Q2164.96 367.13 2166.31 369.445 M2151.79 378.496 Q2151.79 383.195 2153.71 385.88 Q2155.66 388.542 2159.04 388.542 Q2162.42 388.542 2164.36 385.88 Q2166.31 383.195 2166.31 378.496 Q2166.31 373.797 2164.36 371.135 Q2162.42 368.45 2159.04 368.45 Q2155.66 368.45 2153.71 371.135 Q2151.79 373.797 2151.79 378.496 Z" fill="#000000" fill-rule="nonzero" fill-opacity="1" /><path clip-path="url(#clip120)" d="M2201.51 377.408 L2201.51 379.491 L2181.93 379.491 Q2182.21 383.889 2184.57 386.204 Q2186.95 388.496 2191.19 388.496 Q2193.64 388.496 2195.93 387.894 Q2198.25 387.292 2200.52 386.089 L2200.52 390.116 Q2198.23 391.088 2195.82 391.598 Q2193.41 392.107 2190.93 392.107 Q2184.73 392.107 2181.1 388.496 Q2177.49 384.885 2177.49 378.727 Q2177.49 372.362 2180.91 368.635 Q2184.36 364.885 2190.19 364.885 Q2195.43 364.885 2198.46 368.265 Q2201.51 371.621 2201.51 377.408 M2197.25 376.158 Q2197.21 372.663 2195.29 370.579 Q2193.39 368.496 2190.24 368.496 Q2186.68 368.496 2184.52 370.51 Q2182.39 372.524 2182.07 376.181 L2197.25 376.158 Z" fill="#000000" fill-rule="nonzero" fill-opacity="1" /><path clip-path="url(#clip120)" d="M2225.56 378.172 Q2225.56 373.542 2223.64 370.996 Q2221.74 368.45 2218.3 368.45 Q2214.87 368.45 2212.95 370.996 Q2211.05 373.542 2211.05 378.172 Q2211.05 382.778 2212.95 385.325 Q2214.87 387.871 2218.3 387.871 Q2221.74 387.871 2223.64 385.325 Q2225.56 382.778 2225.56 378.172 M2229.82 388.218 Q2229.82 394.838 2226.88 398.056 Q2223.94 401.297 2217.88 401.297 Q2215.63 401.297 2213.64 400.95 Q2211.65 400.625 2209.78 399.931 L2209.78 395.788 Q2211.65 396.806 2213.48 397.292 Q2215.31 397.778 2217.21 397.778 Q2221.4 397.778 2223.48 395.579 Q2225.56 393.403 2225.56 388.982 L2225.56 386.876 Q2224.24 389.167 2222.18 390.301 Q2220.12 391.436 2217.25 391.436 Q2212.49 391.436 2209.57 387.801 Q2206.65 384.167 2206.65 378.172 Q2206.65 372.153 2209.57 368.519 Q2212.49 364.885 2217.25 364.885 Q2220.12 364.885 2222.18 366.019 Q2224.24 367.153 2225.56 369.445 L2225.56 365.51 L2229.82 365.51 L2229.82 388.218 Z" fill="#000000" fill-rule="nonzero" fill-opacity="1" /><path clip-path="url(#clip120)" d="M2240.01 387.501 L2247.65 387.501 L2247.65 361.135 L2239.34 362.802 L2239.34 358.542 L2247.6 356.876 L2252.28 356.876 L2252.28 387.501 L2259.92 387.501 L2259.92 391.436 L2240.01 391.436 L2240.01 387.501 Z" fill="#000000" fill-rule="nonzero" fill-opacity="1" /></svg>
